<?xml version="1.0" encoding="UTF-8" standalone="no"?>
<!DOCTYPE svg PUBLIC "-//W3C//DTD SVG 1.1//EN"
 "http://www.w3.org/Graphics/SVG/1.1/DTD/svg11.dtd">
<!-- Generated by graphviz version 2.38.0 (20140413.2041)
 -->
<!-- Title: Workflow Pages: 1 -->
<svg width="1937pt" height="394pt"
 viewBox="0.00 0.00 1937.00 394.00" xmlns="http://www.w3.org/2000/svg" xmlns:xlink="http://www.w3.org/1999/xlink">
<g id="graph0" class="graph" transform="scale(1 1) rotate(0) translate(4 390)">
<title>Workflow</title>
<polygon fill="white" stroke="none" points="-4,4 -4,-390 1933,-390 1933,4 -4,4"/>
<text text-anchor="middle" x="964.5" y="-367.6" font-family="Helvetica,sans-Serif" font-size="18.00">exec_paleocar</text>
<g id="clust1" class="cluster"><title>cluster_workflow_box_outer</title>
<polygon fill="none" stroke="black" stroke-width="2" points="8,-62 8,-296 1921,-296 1921,-62 8,-62"/>
</g>
<g id="clust2" class="cluster"><title>cluster_workflow_box_inner</title>
<polygon fill="none" stroke="black" stroke-width="0" points="16,-70 16,-288 1913,-288 1913,-70 16,-70"/>
</g>
<g id="clust3" class="cluster"><title>cluster_input_ports_group_outer</title>
<polygon fill="none" stroke="black" stroke-width="0" points="842,-304 842,-350 1080,-350 1080,-304 842,-304"/>
</g>
<g id="clust4" class="cluster"><title>cluster_input_ports_group_inner</title>
<polygon fill="none" stroke="black" stroke-width="0" points="850,-312 850,-342 1072,-342 1072,-312 850,-312"/>
</g>
<g id="clust5" class="cluster"><title>cluster_output_ports_group_outer</title>
<polygon fill="none" stroke="black" stroke-width="0" points="874,-8 874,-54 1048,-54 1048,-8 874,-8"/>
</g>
<g id="clust6" class="cluster"><title>cluster_output_ports_group_inner</title>
<polygon fill="none" stroke="black" stroke-width="0" points="882,-16 882,-46 1040,-46 1040,-16 882,-16"/>
</g>
<!-- gen_paleocar_model -->
<g id="node1" class="node"><title>gen_paleocar_model</title>
<polygon fill="#ccffcc" stroke="black" points="729,-161.5 729,-207.5 1193,-207.5 1193,-161.5 729,-161.5"/>
<text text-anchor="middle" x="961" y="-192.3" font-family="Helvetica,sans-Serif" font-size="14.00">gen_paleocar_model</text>
<polyline fill="none" stroke="black" points="729,-184.5 1193,-184.5 "/>
<text text-anchor="middle" x="961" y="-169.3" font-family="Helvetica,sans-Serif" font-size="14.00">execute paleocar for reconstruction of paleoclimate of the study region.</text>
</g>
<!-- prediction_model -->
<g id="node2" class="node"><title>prediction_model</title>
<path fill="#ffffcc" stroke="black" d="M36.5,-78.5C36.5,-78.5 371.5,-78.5 371.5,-78.5 377.5,-78.5 383.5,-84.5 383.5,-90.5 383.5,-90.5 383.5,-112.5 383.5,-112.5 383.5,-118.5 377.5,-124.5 371.5,-124.5 371.5,-124.5 36.5,-124.5 36.5,-124.5 30.5,-124.5 24.5,-118.5 24.5,-112.5 24.5,-112.5 24.5,-90.5 24.5,-90.5 24.5,-84.5 30.5,-78.5 36.5,-78.5"/>
<text text-anchor="middle" x="204" y="-109.3" font-family="Helvetica,sans-Serif" font-size="14.00">prediction_model</text>
<polyline fill="none" stroke="black" points="24.5,-101.5 383.5,-101.5 "/>
<text text-anchor="middle" x="204" y="-86.3" font-family="Helvetica,sans-Serif" font-size="14.00">file:.output/{session_id}/{run_id}/{label}_prediction.Rds</text>
</g>
<!-- gen_paleocar_model&#45;&gt;prediction_model -->
<g id="edge1" class="edge"><title>gen_paleocar_model&#45;&gt;prediction_model</title>
<path fill="none" stroke="black" d="M739.384,-161.498C637.227,-151.151 514.108,-138.393 393.707,-125.071"/>
<polygon fill="black" stroke="black" points="393.885,-121.569 383.56,-123.946 393.114,-128.527 393.885,-121.569"/>
</g>
<!-- prediction_plot -->
<g id="node3" class="node"><title>prediction_plot</title>
<path fill="#ffffcc" stroke="black" d="M413.5,-78.5C413.5,-78.5 748.5,-78.5 748.5,-78.5 754.5,-78.5 760.5,-84.5 760.5,-90.5 760.5,-90.5 760.5,-112.5 760.5,-112.5 760.5,-118.5 754.5,-124.5 748.5,-124.5 748.5,-124.5 413.5,-124.5 413.5,-124.5 407.5,-124.5 401.5,-118.5 401.5,-112.5 401.5,-112.5 401.5,-90.5 401.5,-90.5 401.5,-84.5 407.5,-78.5 413.5,-78.5"/>
<text text-anchor="middle" x="581" y="-109.3" font-family="Helvetica,sans-Serif" font-size="14.00">prediction_plot</text>
<polyline fill="none" stroke="black" points="401.5,-101.5 760.5,-101.5 "/>
<text text-anchor="middle" x="581" y="-86.3" font-family="Helvetica,sans-Serif" font-size="14.00">file:.output/{session_id}/{run_id}/{label}_predictions.jpg</text>
</g>
<!-- gen_paleocar_model&#45;&gt;prediction_plot -->
<g id="edge2" class="edge"><title>gen_paleocar_model&#45;&gt;prediction_plot</title>
<path fill="none" stroke="black" d="M857.665,-161.473C807.08,-150.691 746.064,-137.685 694.219,-126.633"/>
<polygon fill="black" stroke="black" points="694.824,-123.184 684.314,-124.522 693.365,-130.03 694.824,-123.184"/>
</g>
<!-- uncertainty_model -->
<g id="node4" class="node"><title>uncertainty_model</title>
<path fill="#ffffcc" stroke="black" d="M791,-78.5C791,-78.5 1131,-78.5 1131,-78.5 1137,-78.5 1143,-84.5 1143,-90.5 1143,-90.5 1143,-112.5 1143,-112.5 1143,-118.5 1137,-124.5 1131,-124.5 1131,-124.5 791,-124.5 791,-124.5 785,-124.5 779,-118.5 779,-112.5 779,-112.5 779,-90.5 779,-90.5 779,-84.5 785,-78.5 791,-78.5"/>
<text text-anchor="middle" x="961" y="-109.3" font-family="Helvetica,sans-Serif" font-size="14.00">uncertainty_model</text>
<polyline fill="none" stroke="black" points="779,-101.5 1143,-101.5 "/>
<text text-anchor="middle" x="961" y="-86.3" font-family="Helvetica,sans-Serif" font-size="14.00">file:.output/{session_id}/{run_id}/{label}_uncertainty.Rds</text>
</g>
<!-- gen_paleocar_model&#45;&gt;uncertainty_model -->
<g id="edge3" class="edge"><title>gen_paleocar_model&#45;&gt;uncertainty_model</title>
<path fill="none" stroke="black" d="M961,-161.366C961,-153.152 961,-143.658 961,-134.725"/>
<polygon fill="black" stroke="black" points="964.5,-134.607 961,-124.607 957.5,-134.607 964.5,-134.607"/>
</g>
<!-- uncertainty_plot -->
<g id="node5" class="node"><title>uncertainty_plot</title>
<path fill="#ffffcc" stroke="black" d="M1173.5,-78.5C1173.5,-78.5 1506.5,-78.5 1506.5,-78.5 1512.5,-78.5 1518.5,-84.5 1518.5,-90.5 1518.5,-90.5 1518.5,-112.5 1518.5,-112.5 1518.5,-118.5 1512.5,-124.5 1506.5,-124.5 1506.5,-124.5 1173.5,-124.5 1173.5,-124.5 1167.5,-124.5 1161.5,-118.5 1161.5,-112.5 1161.5,-112.5 1161.5,-90.5 1161.5,-90.5 1161.5,-84.5 1167.5,-78.5 1173.5,-78.5"/>
<text text-anchor="middle" x="1340" y="-109.3" font-family="Helvetica,sans-Serif" font-size="14.00">uncertainty_plot</text>
<polyline fill="none" stroke="black" points="1161.5,-101.5 1518.5,-101.5 "/>
<text text-anchor="middle" x="1340" y="-86.3" font-family="Helvetica,sans-Serif" font-size="14.00">file:.output/{session_id}/{run_id}/{label}_uncertainty.jpg</text>
</g>
<!-- gen_paleocar_model&#45;&gt;uncertainty_plot -->
<g id="edge4" class="edge"><title>gen_paleocar_model&#45;&gt;uncertainty_plot</title>
<path fill="none" stroke="black" d="M1064.06,-161.473C1114.51,-150.691 1175.37,-137.685 1227.08,-126.633"/>
<polygon fill="black" stroke="black" points="1227.91,-130.035 1236.96,-124.522 1226.45,-123.19 1227.91,-130.035"/>
</g>
<!-- paleocar_log_file -->
<g id="node6" class="node"><title>paleocar_log_file</title>
<path fill="#ffffcc" stroke="black" d="M1549,-78.5C1549,-78.5 1893,-78.5 1893,-78.5 1899,-78.5 1905,-84.5 1905,-90.5 1905,-90.5 1905,-112.5 1905,-112.5 1905,-118.5 1899,-124.5 1893,-124.5 1893,-124.5 1549,-124.5 1549,-124.5 1543,-124.5 1537,-118.5 1537,-112.5 1537,-112.5 1537,-90.5 1537,-90.5 1537,-84.5 1543,-78.5 1549,-78.5"/>
<text text-anchor="middle" x="1721" y="-109.3" font-family="Helvetica,sans-Serif" font-size="14.00">paleocar_log_file</text>
<polyline fill="none" stroke="black" points="1537,-101.5 1905,-101.5 "/>
<text text-anchor="middle" x="1721" y="-86.3" font-family="Helvetica,sans-Serif" font-size="14.00">file:.output/{session_id}/{run_id}/paleocar_model_log.txt</text>
</g>
<!-- gen_paleocar_model&#45;&gt;paleocar_log_file -->
<g id="edge5" class="edge"><title>gen_paleocar_model&#45;&gt;paleocar_log_file</title>
<path fill="none" stroke="black" d="M1181.19,-161.466C1283.36,-151.073 1406.7,-138.285 1526.75,-125.131"/>
<polygon fill="black" stroke="black" points="1527.31,-128.591 1536.87,-124.021 1526.55,-121.633 1527.31,-128.591"/>
</g>
<!-- prediction_model_output_port -->
<g id="node21" class="node"><title>prediction_model_output_port</title>
<ellipse fill="#ffffff" stroke="black" cx="897" cy="-31" rx="7" ry="7"/>
</g>
<!-- prediction_model&#45;&gt;prediction_model_output_port -->
<g id="edge20" class="edge"><title>prediction_model&#45;&gt;prediction_model_output_port</title>
<path fill="none" stroke="black" d="M298.738,-78.469C328.735,-72.23 362.121,-66.0434 393,-62 582.429,-37.1952 814.629,-32.8816 879.464,-32.1473"/>
<polygon fill="black" stroke="black" points="879.893,-35.6434 889.858,-32.0454 879.824,-28.6437 879.893,-35.6434"/>
</g>
<!-- prediction_plot_output_port -->
<g id="node22" class="node"><title>prediction_plot_output_port</title>
<ellipse fill="#ffffff" stroke="black" cx="929" cy="-31" rx="7" ry="7"/>
</g>
<!-- prediction_plot&#45;&gt;prediction_plot_output_port -->
<g id="edge21" class="edge"><title>prediction_plot&#45;&gt;prediction_plot_output_port</title>
<path fill="none" stroke="black" d="M675.729,-78.402C705.726,-72.1598 739.114,-65.9883 770,-62 785.783,-59.962 899.026,-61.6147 913,-54 916.235,-52.2373 918.984,-49.5064 921.242,-46.561"/>
<polygon fill="black" stroke="black" points="924.343,-48.198 926.545,-37.8344 918.361,-44.5632 924.343,-48.198"/>
</g>
<!-- uncertainty_model_output_port -->
<g id="node23" class="node"><title>uncertainty_model_output_port</title>
<ellipse fill="#ffffff" stroke="black" cx="961" cy="-31" rx="7" ry="7"/>
</g>
<!-- uncertainty_model&#45;&gt;uncertainty_model_output_port -->
<g id="edge22" class="edge"><title>uncertainty_model&#45;&gt;uncertainty_model_output_port</title>
<path fill="none" stroke="black" d="M961,-78.4491C961,-68.6592 961,-57.3397 961,-48.3261"/>
<polygon fill="black" stroke="black" points="964.5,-48.1278 961,-38.1279 957.5,-48.1279 964.5,-48.1278"/>
</g>
<!-- uncertainty_plot_output_port -->
<g id="node24" class="node"><title>uncertainty_plot_output_port</title>
<ellipse fill="#ffffff" stroke="black" cx="993" cy="-31" rx="7" ry="7"/>
</g>
<!-- uncertainty_plot&#45;&gt;uncertainty_plot_output_port -->
<g id="edge23" class="edge"><title>uncertainty_plot&#45;&gt;uncertainty_plot_output_port</title>
<path fill="none" stroke="black" d="M1246.26,-78.4975C1216.3,-72.2208 1182.89,-66.0055 1152,-62 1136.22,-59.9538 1022.97,-61.6147 1009,-54 1005.77,-52.2373 1003.02,-49.5064 1000.76,-46.561"/>
<polygon fill="black" stroke="black" points="1003.64,-44.5632 995.455,-37.8344 997.657,-48.198 1003.64,-44.5632"/>
</g>
<!-- paleocar_log_file_output_port -->
<g id="node25" class="node"><title>paleocar_log_file_output_port</title>
<ellipse fill="#ffffff" stroke="black" cx="1025" cy="-31" rx="7" ry="7"/>
</g>
<!-- paleocar_log_file&#45;&gt;paleocar_log_file_output_port -->
<g id="edge24" class="edge"><title>paleocar_log_file&#45;&gt;paleocar_log_file_output_port</title>
<path fill="none" stroke="black" d="M1624.24,-78.4935C1593.6,-72.2556 1559.51,-66.0635 1528,-62 1338.9,-37.6166 1107.19,-33.0069 1042.5,-32.1752"/>
<polygon fill="black" stroke="black" points="1042.17,-28.6713 1032.13,-32.0572 1042.09,-35.6709 1042.17,-28.6713"/>
</g>
<!-- prediction_years -->
<g id="node7" class="node"><title>prediction_years</title>
<path fill="#ffffcc" stroke="black" d="M1437,-280C1437,-280 1339,-280 1339,-280 1333,-280 1327,-274 1327,-268 1327,-268 1327,-256 1327,-256 1327,-250 1333,-244 1339,-244 1339,-244 1437,-244 1437,-244 1443,-244 1449,-250 1449,-256 1449,-256 1449,-268 1449,-268 1449,-274 1443,-280 1437,-280"/>
<text text-anchor="middle" x="1388" y="-258.3" font-family="Helvetica,sans-Serif" font-size="14.00">prediction_years</text>
</g>
<!-- prediction_years&#45;&gt;gen_paleocar_model -->
<g id="edge6" class="edge"><title>prediction_years&#45;&gt;gen_paleocar_model</title>
<path fill="none" stroke="black" d="M1326.98,-245.892C1323.95,-245.232 1320.94,-244.597 1318,-244 1254.01,-231.007 1183.12,-218.919 1121.48,-209.144"/>
<polygon fill="black" stroke="black" points="1121.7,-205.635 1111.28,-207.533 1120.61,-212.549 1121.7,-205.635"/>
</g>
<!-- prism_data_for_coordinates -->
<g id="node8" class="node"><title>prism_data_for_coordinates</title>
<path fill="#ffffcc" stroke="black" d="M1296.5,-280C1296.5,-280 1125.5,-280 1125.5,-280 1119.5,-280 1113.5,-274 1113.5,-268 1113.5,-268 1113.5,-256 1113.5,-256 1113.5,-250 1119.5,-244 1125.5,-244 1125.5,-244 1296.5,-244 1296.5,-244 1302.5,-244 1308.5,-250 1308.5,-256 1308.5,-256 1308.5,-268 1308.5,-268 1308.5,-274 1302.5,-280 1296.5,-280"/>
<text text-anchor="middle" x="1211" y="-258.3" font-family="Helvetica,sans-Serif" font-size="14.00">prism_data_for_coordinates</text>
</g>
<!-- prism_data_for_coordinates&#45;&gt;gen_paleocar_model -->
<g id="edge7" class="edge"><title>prism_data_for_coordinates&#45;&gt;gen_paleocar_model</title>
<path fill="none" stroke="black" d="M1154.58,-243.962C1121.93,-234.101 1080.23,-221.508 1043.91,-210.538"/>
<polygon fill="black" stroke="black" points="1044.89,-207.179 1034.31,-207.639 1042.87,-213.88 1044.89,-207.179"/>
</g>
<!-- itrdb -->
<g id="node9" class="node"><title>itrdb</title>
<path fill="#fcfcfc" stroke="black" d="M1083,-280C1083,-280 1053,-280 1053,-280 1047,-280 1041,-274 1041,-268 1041,-268 1041,-256 1041,-256 1041,-250 1047,-244 1053,-244 1053,-244 1083,-244 1083,-244 1089,-244 1095,-250 1095,-256 1095,-256 1095,-268 1095,-268 1095,-274 1089,-280 1083,-280"/>
<text text-anchor="middle" x="1068" y="-258.3" font-family="Helvetica,sans-Serif" font-size="14.00">itrdb</text>
</g>
<!-- itrdb&#45;&gt;gen_paleocar_model -->
<g id="edge8" class="edge"><title>itrdb&#45;&gt;gen_paleocar_model</title>
<path fill="none" stroke="black" d="M1043.72,-243.868C1031.04,-234.921 1015.2,-223.745 1000.79,-213.575"/>
<polygon fill="black" stroke="black" points="1002.69,-210.632 992.5,-207.727 998.653,-216.352 1002.69,-210.632"/>
</g>
<!-- calibration_years -->
<g id="node10" class="node"><title>calibration_years</title>
<path fill="#fcfcfc" stroke="black" d="M1010.5,-280C1010.5,-280 911.5,-280 911.5,-280 905.5,-280 899.5,-274 899.5,-268 899.5,-268 899.5,-256 899.5,-256 899.5,-250 905.5,-244 911.5,-244 911.5,-244 1010.5,-244 1010.5,-244 1016.5,-244 1022.5,-250 1022.5,-256 1022.5,-256 1022.5,-268 1022.5,-268 1022.5,-274 1016.5,-280 1010.5,-280"/>
<text text-anchor="middle" x="961" y="-258.3" font-family="Helvetica,sans-Serif" font-size="14.00">calibration_years</text>
</g>
<!-- calibration_years&#45;&gt;gen_paleocar_model -->
<g id="edge9" class="edge"><title>calibration_years&#45;&gt;gen_paleocar_model</title>
<path fill="none" stroke="black" d="M961,-243.868C961,-236.175 961,-226.835 961,-217.902"/>
<polygon fill="black" stroke="black" points="964.5,-217.727 961,-207.727 957.5,-217.727 964.5,-217.727"/>
</g>
<!-- label -->
<g id="node11" class="node"><title>label</title>
<path fill="#fcfcfc" stroke="black" d="M869,-280C869,-280 839,-280 839,-280 833,-280 827,-274 827,-268 827,-268 827,-256 827,-256 827,-250 833,-244 839,-244 839,-244 869,-244 869,-244 875,-244 881,-250 881,-256 881,-256 881,-268 881,-268 881,-274 875,-280 869,-280"/>
<text text-anchor="middle" x="854" y="-258.3" font-family="Helvetica,sans-Serif" font-size="14.00">label</text>
</g>
<!-- label&#45;&gt;gen_paleocar_model -->
<g id="edge10" class="edge"><title>label&#45;&gt;gen_paleocar_model</title>
<path fill="none" stroke="black" d="M878.28,-243.868C890.96,-234.921 906.798,-223.745 921.212,-213.575"/>
<polygon fill="black" stroke="black" points="923.347,-216.352 929.5,-207.727 919.311,-210.632 923.347,-216.352"/>
</g>
<!-- min_width -->
<g id="node12" class="node"><title>min_width</title>
<path fill="#fcfcfc" stroke="black" d="M797,-280C797,-280 741,-280 741,-280 735,-280 729,-274 729,-268 729,-268 729,-256 729,-256 729,-250 735,-244 741,-244 741,-244 797,-244 797,-244 803,-244 809,-250 809,-256 809,-256 809,-268 809,-268 809,-274 803,-280 797,-280"/>
<text text-anchor="middle" x="769" y="-258.3" font-family="Helvetica,sans-Serif" font-size="14.00">min_width</text>
</g>
<!-- min_width&#45;&gt;gen_paleocar_model -->
<g id="edge11" class="edge"><title>min_width&#45;&gt;gen_paleocar_model</title>
<path fill="none" stroke="black" d="M809.249,-245.173C834.146,-235.383 866.697,-222.583 895.265,-211.349"/>
<polygon fill="black" stroke="black" points="896.758,-214.523 904.784,-207.606 894.197,-208.008 896.758,-214.523"/>
</g>
<!-- verbose -->
<g id="node13" class="node"><title>verbose</title>
<path fill="#fcfcfc" stroke="black" d="M699,-280C699,-280 655,-280 655,-280 649,-280 643,-274 643,-268 643,-268 643,-256 643,-256 643,-250 649,-244 655,-244 655,-244 699,-244 699,-244 705,-244 711,-250 711,-256 711,-256 711,-268 711,-268 711,-274 705,-280 699,-280"/>
<text text-anchor="middle" x="677" y="-258.3" font-family="Helvetica,sans-Serif" font-size="14.00">verbose</text>
</g>
<!-- verbose&#45;&gt;gen_paleocar_model -->
<g id="edge12" class="edge"><title>verbose&#45;&gt;gen_paleocar_model</title>
<path fill="none" stroke="black" d="M711.114,-247.02C714.101,-245.946 717.092,-244.923 720,-244 760.85,-231.035 806.37,-219.308 846.752,-209.816"/>
<polygon fill="black" stroke="black" points="847.686,-213.193 856.631,-207.515 846.097,-206.375 847.686,-213.193"/>
</g>
<!-- prediction_years_input_port -->
<g id="node14" class="node"><title>prediction_years_input_port</title>
<ellipse fill="#ffffff" stroke="black" cx="1057" cy="-327" rx="7" ry="7"/>
</g>
<!-- prediction_years_input_port&#45;&gt;prediction_years -->
<g id="edge13" class="edge"><title>prediction_years_input_port&#45;&gt;prediction_years</title>
<path fill="none" stroke="black" d="M1064.02,-326.022C1094.73,-325.948 1220.18,-323.863 1318,-296 1328.18,-293.099 1338.73,-288.857 1348.45,-284.374"/>
<polygon fill="black" stroke="black" points="1349.98,-287.522 1357.48,-280.038 1346.95,-281.211 1349.98,-287.522"/>
</g>
<!-- prism_data_for_coordinates_input_port -->
<g id="node15" class="node"><title>prism_data_for_coordinates_input_port</title>
<ellipse fill="#ffffff" stroke="black" cx="1025" cy="-327" rx="7" ry="7"/>
</g>
<!-- prism_data_for_coordinates_input_port&#45;&gt;prism_data_for_coordinates -->
<g id="edge14" class="edge"><title>prism_data_for_coordinates_input_port&#45;&gt;prism_data_for_coordinates</title>
<path fill="none" stroke="black" d="M1027.51,-320.269C1030.1,-315.1 1034.66,-307.751 1041,-304 1065.29,-289.63 1076.41,-301.959 1104,-296 1119.74,-292.599 1136.5,-287.944 1151.97,-283.201"/>
<polygon fill="black" stroke="black" points="1153.43,-286.412 1161.93,-280.084 1151.34,-279.732 1153.43,-286.412"/>
</g>
<!-- itrdb_input_port -->
<g id="node16" class="node"><title>itrdb_input_port</title>
<ellipse fill="#ffffff" stroke="black" cx="993" cy="-327" rx="7" ry="7"/>
</g>
<!-- itrdb_input_port&#45;&gt;itrdb -->
<g id="edge15" class="edge"><title>itrdb_input_port&#45;&gt;itrdb</title>
<path fill="none" stroke="black" d="M995.922,-320.175C998.675,-315.231 1003.24,-308.278 1009,-304 1017.69,-297.551 1022.71,-301.549 1032,-296 1036.24,-293.471 1040.41,-290.386 1044.32,-287.13"/>
<polygon fill="black" stroke="black" points="1046.81,-289.598 1051.94,-280.326 1042.15,-284.376 1046.81,-289.598"/>
</g>
<!-- calibration_years_input_port -->
<g id="node17" class="node"><title>calibration_years_input_port</title>
<ellipse fill="#ffffff" stroke="black" cx="961" cy="-327" rx="7" ry="7"/>
</g>
<!-- calibration_years_input_port&#45;&gt;calibration_years -->
<g id="edge16" class="edge"><title>calibration_years_input_port&#45;&gt;calibration_years</title>
<path fill="none" stroke="black" d="M961,-319.729C961,-312.795 961,-301.154 961,-290.215"/>
<polygon fill="black" stroke="black" points="964.5,-290.119 961,-280.119 957.5,-290.119 964.5,-290.119"/>
</g>
<!-- label_input_port -->
<g id="node18" class="node"><title>label_input_port</title>
<ellipse fill="#ffffff" stroke="black" cx="929" cy="-327" rx="7" ry="7"/>
</g>
<!-- label_input_port&#45;&gt;label -->
<g id="edge17" class="edge"><title>label_input_port&#45;&gt;label</title>
<path fill="none" stroke="black" d="M926.063,-320.195C923.3,-315.264 918.735,-308.318 913,-304 904.688,-297.742 899.932,-301.336 891,-296 886.701,-293.431 882.444,-290.325 878.433,-287.059"/>
<polygon fill="black" stroke="black" points="880.451,-284.175 870.61,-280.251 875.855,-289.456 880.451,-284.175"/>
</g>
<!-- min_width_input_port -->
<g id="node19" class="node"><title>min_width_input_port</title>
<ellipse fill="#ffffff" stroke="black" cx="897" cy="-327" rx="7" ry="7"/>
</g>
<!-- min_width_input_port&#45;&gt;min_width -->
<g id="edge18" class="edge"><title>min_width_input_port&#45;&gt;min_width</title>
<path fill="none" stroke="black" d="M894.486,-320.269C891.895,-315.1 887.341,-307.751 881,-304 856.707,-289.63 844.42,-305.93 818,-296 811.292,-293.479 804.595,-289.875 798.403,-285.968"/>
<polygon fill="black" stroke="black" points="799.994,-282.819 789.75,-280.117 796.073,-288.618 799.994,-282.819"/>
</g>
<!-- verbose_input_port -->
<g id="node20" class="node"><title>verbose_input_port</title>
<ellipse fill="#ffffff" stroke="black" cx="865" cy="-327" rx="7" ry="7"/>
</g>
<!-- verbose_input_port&#45;&gt;verbose -->
<g id="edge19" class="edge"><title>verbose_input_port&#45;&gt;verbose</title>
<path fill="none" stroke="black" d="M858.014,-325.656C836.474,-324.371 769.553,-318.684 720,-296 714.409,-293.441 708.871,-290.038 703.722,-286.389"/>
<polygon fill="black" stroke="black" points="705.563,-283.392 695.486,-280.121 701.324,-288.962 705.563,-283.392"/>
</g>
</g>
</svg>
