<?xml version="1.0" encoding="UTF-8" standalone="no"?>
<!DOCTYPE svg PUBLIC "-//W3C//DTD SVG 1.1//EN"
 "http://www.w3.org/Graphics/SVG/1.1/DTD/svg11.dtd">
<!-- Generated by graphviz version 2.38.0 (20140413.2041)
 -->
<!-- Title: Workflow Pages: 1 -->
<svg width="1937pt" height="405pt"
 viewBox="0.00 0.00 1937.00 405.00" xmlns="http://www.w3.org/2000/svg" xmlns:xlink="http://www.w3.org/1999/xlink">
<g id="graph0" class="graph" transform="scale(1 1) rotate(0) translate(4 401)">
<title>Workflow</title>
<polygon fill="white" stroke="none" points="-4,4 -4,-401 1933,-401 1933,4 -4,4"/>
<text text-anchor="middle" x="964.5" y="-378.6" font-family="Helvetica,sans-Serif" font-size="18.00">exec_paleocar</text>
<g id="clust1" class="cluster"><title>cluster_workflow_box_outer</title>
<polygon fill="none" stroke="black" stroke-width="2" points="8,-62 8,-307 1921,-307 1921,-62 8,-62"/>
</g>
<g id="clust2" class="cluster"><title>cluster_workflow_box_inner</title>
<polygon fill="none" stroke="black" stroke-width="0" points="16,-70 16,-299 1913,-299 1913,-70 16,-70"/>
</g>
<g id="clust3" class="cluster"><title>cluster_input_ports_group_outer</title>
<polygon fill="none" stroke="black" stroke-width="0" points="842,-315 842,-361 1080,-361 1080,-315 842,-315"/>
</g>
<g id="clust4" class="cluster"><title>cluster_input_ports_group_inner</title>
<polygon fill="none" stroke="black" stroke-width="0" points="850,-323 850,-353 1072,-353 1072,-323 850,-323"/>
</g>
<g id="clust5" class="cluster"><title>cluster_output_ports_group_outer</title>
<polygon fill="none" stroke="black" stroke-width="0" points="874,-8 874,-54 1048,-54 1048,-8 874,-8"/>
</g>
<g id="clust6" class="cluster"><title>cluster_output_ports_group_inner</title>
<polygon fill="none" stroke="black" stroke-width="0" points="882,-16 882,-46 1040,-46 1040,-16 882,-16"/>
</g>
<!-- gen_paleocar_model -->
<g id="node1" class="node"><title>gen_paleocar_model</title>
<polygon fill="#ccffcc" stroke="black" points="729,-161.5 729,-207.5 1193,-207.5 1193,-161.5 729,-161.5"/>
<text text-anchor="middle" x="961" y="-192.3" font-family="Helvetica,sans-Serif" font-size="14.00">gen_paleocar_model</text>
<polyline fill="none" stroke="black" points="729,-184.5 1193,-184.5 "/>
<text text-anchor="middle" x="961" y="-169.3" font-family="Helvetica,sans-Serif" font-size="14.00">execute paleocar for reconstruction of paleoclimate of the study region.</text>
</g>
<!-- prediction_model -->
<g id="node4" class="node"><title>prediction_model</title>
<path fill="#ffffcc" stroke="black" d="M36.5,-78.5C36.5,-78.5 371.5,-78.5 371.5,-78.5 377.5,-78.5 383.5,-84.5 383.5,-90.5 383.5,-90.5 383.5,-112.5 383.5,-112.5 383.5,-118.5 377.5,-124.5 371.5,-124.5 371.5,-124.5 36.5,-124.5 36.5,-124.5 30.5,-124.5 24.5,-118.5 24.5,-112.5 24.5,-112.5 24.5,-90.5 24.5,-90.5 24.5,-84.5 30.5,-78.5 36.5,-78.5"/>
<text text-anchor="middle" x="204" y="-109.3" font-family="Helvetica,sans-Serif" font-size="14.00">prediction_model</text>
<polyline fill="none" stroke="black" points="24.5,-101.5 383.5,-101.5 "/>
<text text-anchor="middle" x="204" y="-86.3" font-family="Helvetica,sans-Serif" font-size="14.00">file:.output/{session_id}/{run_id}/{label}_prediction.Rds</text>
</g>
<!-- gen_paleocar_model&#45;&gt;prediction_model -->
<g id="edge1" class="edge"><title>gen_paleocar_model&#45;&gt;prediction_model</title>
<path fill="none" stroke="black" d="M739.384,-161.498C637.227,-151.151 514.108,-138.393 393.707,-125.071"/>
<polygon fill="black" stroke="black" points="393.885,-121.569 383.56,-123.946 393.114,-128.527 393.885,-121.569"/>
</g>
<!-- prediction_plot -->
<g id="node5" class="node"><title>prediction_plot</title>
<path fill="#ffffcc" stroke="black" d="M413.5,-78.5C413.5,-78.5 748.5,-78.5 748.5,-78.5 754.5,-78.5 760.5,-84.5 760.5,-90.5 760.5,-90.5 760.5,-112.5 760.5,-112.5 760.5,-118.5 754.5,-124.5 748.5,-124.5 748.5,-124.5 413.5,-124.5 413.5,-124.5 407.5,-124.5 401.5,-118.5 401.5,-112.5 401.5,-112.5 401.5,-90.5 401.5,-90.5 401.5,-84.5 407.5,-78.5 413.5,-78.5"/>
<text text-anchor="middle" x="581" y="-109.3" font-family="Helvetica,sans-Serif" font-size="14.00">prediction_plot</text>
<polyline fill="none" stroke="black" points="401.5,-101.5 760.5,-101.5 "/>
<text text-anchor="middle" x="581" y="-86.3" font-family="Helvetica,sans-Serif" font-size="14.00">file:.ouptut/{session_id}/{run_id}/{label}_predictions.jpg</text>
</g>
<!-- gen_paleocar_model&#45;&gt;prediction_plot -->
<g id="edge2" class="edge"><title>gen_paleocar_model&#45;&gt;prediction_plot</title>
<path fill="none" stroke="black" d="M857.665,-161.473C807.08,-150.691 746.064,-137.685 694.219,-126.633"/>
<polygon fill="black" stroke="black" points="694.824,-123.184 684.314,-124.522 693.365,-130.03 694.824,-123.184"/>
</g>
<!-- uncertainty_model -->
<g id="node6" class="node"><title>uncertainty_model</title>
<path fill="#ffffcc" stroke="black" d="M791,-78.5C791,-78.5 1131,-78.5 1131,-78.5 1137,-78.5 1143,-84.5 1143,-90.5 1143,-90.5 1143,-112.5 1143,-112.5 1143,-118.5 1137,-124.5 1131,-124.5 1131,-124.5 791,-124.5 791,-124.5 785,-124.5 779,-118.5 779,-112.5 779,-112.5 779,-90.5 779,-90.5 779,-84.5 785,-78.5 791,-78.5"/>
<text text-anchor="middle" x="961" y="-109.3" font-family="Helvetica,sans-Serif" font-size="14.00">uncertainty_model</text>
<polyline fill="none" stroke="black" points="779,-101.5 1143,-101.5 "/>
<text text-anchor="middle" x="961" y="-86.3" font-family="Helvetica,sans-Serif" font-size="14.00">file:.output/{session_id}/{run_id}/{label}_uncertainty.Rds</text>
</g>
<!-- gen_paleocar_model&#45;&gt;uncertainty_model -->
<g id="edge3" class="edge"><title>gen_paleocar_model&#45;&gt;uncertainty_model</title>
<path fill="none" stroke="black" d="M961,-161.366C961,-153.152 961,-143.658 961,-134.725"/>
<polygon fill="black" stroke="black" points="964.5,-134.607 961,-124.607 957.5,-134.607 964.5,-134.607"/>
</g>
<!-- uncertainty_plot -->
<g id="node7" class="node"><title>uncertainty_plot</title>
<path fill="#ffffcc" stroke="black" d="M1173.5,-78.5C1173.5,-78.5 1506.5,-78.5 1506.5,-78.5 1512.5,-78.5 1518.5,-84.5 1518.5,-90.5 1518.5,-90.5 1518.5,-112.5 1518.5,-112.5 1518.5,-118.5 1512.5,-124.5 1506.5,-124.5 1506.5,-124.5 1173.5,-124.5 1173.5,-124.5 1167.5,-124.5 1161.5,-118.5 1161.5,-112.5 1161.5,-112.5 1161.5,-90.5 1161.5,-90.5 1161.5,-84.5 1167.5,-78.5 1173.5,-78.5"/>
<text text-anchor="middle" x="1340" y="-109.3" font-family="Helvetica,sans-Serif" font-size="14.00">uncertainty_plot</text>
<polyline fill="none" stroke="black" points="1161.5,-101.5 1518.5,-101.5 "/>
<text text-anchor="middle" x="1340" y="-86.3" font-family="Helvetica,sans-Serif" font-size="14.00">file:.output/{session_id}/{run_id}/{label}_uncertainty.jpg</text>
</g>
<!-- gen_paleocar_model&#45;&gt;uncertainty_plot -->
<g id="edge4" class="edge"><title>gen_paleocar_model&#45;&gt;uncertainty_plot</title>
<path fill="none" stroke="black" d="M1064.06,-161.473C1114.51,-150.691 1175.37,-137.685 1227.08,-126.633"/>
<polygon fill="black" stroke="black" points="1227.91,-130.035 1236.96,-124.522 1226.45,-123.19 1227.91,-130.035"/>
</g>
<!-- paleocar_log_file -->
<g id="node8" class="node"><title>paleocar_log_file</title>
<path fill="#ffffcc" stroke="black" d="M1549,-78.5C1549,-78.5 1893,-78.5 1893,-78.5 1899,-78.5 1905,-84.5 1905,-90.5 1905,-90.5 1905,-112.5 1905,-112.5 1905,-118.5 1899,-124.5 1893,-124.5 1893,-124.5 1549,-124.5 1549,-124.5 1543,-124.5 1537,-118.5 1537,-112.5 1537,-112.5 1537,-90.5 1537,-90.5 1537,-84.5 1543,-78.5 1549,-78.5"/>
<text text-anchor="middle" x="1721" y="-109.3" font-family="Helvetica,sans-Serif" font-size="14.00">paleocar_log_file</text>
<polyline fill="none" stroke="black" points="1537,-101.5 1905,-101.5 "/>
<text text-anchor="middle" x="1721" y="-86.3" font-family="Helvetica,sans-Serif" font-size="14.00">file:.output/{session_id}/{run_id}/paleocar_model_log.txt</text>
</g>
<!-- gen_paleocar_model&#45;&gt;paleocar_log_file -->
<g id="edge5" class="edge"><title>gen_paleocar_model&#45;&gt;paleocar_log_file</title>
<path fill="none" stroke="black" d="M1181.19,-161.466C1283.36,-151.073 1406.7,-138.285 1526.75,-125.131"/>
<polygon fill="black" stroke="black" points="1527.31,-128.591 1536.87,-124.021 1526.55,-121.633 1527.31,-128.591"/>
</g>
<!-- prediction_years -->
<g id="node2" class="node"><title>prediction_years</title>
<path fill="#ffffcc" stroke="black" d="M1625,-285.5C1625,-285.5 1527,-285.5 1527,-285.5 1521,-285.5 1515,-279.5 1515,-273.5 1515,-273.5 1515,-261.5 1515,-261.5 1515,-255.5 1521,-249.5 1527,-249.5 1527,-249.5 1625,-249.5 1625,-249.5 1631,-249.5 1637,-255.5 1637,-261.5 1637,-261.5 1637,-273.5 1637,-273.5 1637,-279.5 1631,-285.5 1625,-285.5"/>
<text text-anchor="middle" x="1576" y="-263.8" font-family="Helvetica,sans-Serif" font-size="14.00">prediction_years</text>
</g>
<!-- prediction_years&#45;&gt;gen_paleocar_model -->
<g id="edge6" class="edge"><title>prediction_years&#45;&gt;gen_paleocar_model</title>
<path fill="none" stroke="black" d="M1527.39,-249.474C1520.28,-247.394 1512.99,-245.483 1506,-244 1407.89,-223.194 1298.18,-209.604 1203.06,-200.815"/>
<polygon fill="black" stroke="black" points="1203.3,-197.322 1193.02,-199.9 1202.66,-204.293 1203.3,-197.322"/>
</g>
<!-- prism_data_for_coordinates -->
<g id="node3" class="node"><title>prism_data_for_coordinates</title>
<path fill="#ffffcc" stroke="black" d="M1199,-244.5C1199,-244.5 1485,-244.5 1485,-244.5 1491,-244.5 1497,-250.5 1497,-256.5 1497,-256.5 1497,-278.5 1497,-278.5 1497,-284.5 1491,-290.5 1485,-290.5 1485,-290.5 1199,-290.5 1199,-290.5 1193,-290.5 1187,-284.5 1187,-278.5 1187,-278.5 1187,-256.5 1187,-256.5 1187,-250.5 1193,-244.5 1199,-244.5"/>
<text text-anchor="middle" x="1342" y="-275.3" font-family="Helvetica,sans-Serif" font-size="14.00">prism_data_for_coordinates</text>
<polyline fill="none" stroke="black" points="1187,-267.5 1497,-267.5 "/>
<text text-anchor="middle" x="1342" y="-252.3" font-family="Helvetica,sans-Serif" font-size="14.00">file:.output/{session_id}/{run_id}/112W36N.csv</text>
</g>
<!-- prism_data_for_coordinates&#45;&gt;gen_paleocar_model -->
<g id="edge7" class="edge"><title>prism_data_for_coordinates&#45;&gt;gen_paleocar_model</title>
<path fill="none" stroke="black" d="M1238.39,-244.473C1187.68,-233.691 1126.5,-220.685 1074.52,-209.633"/>
<polygon fill="black" stroke="black" points="1075.1,-206.178 1064.59,-207.522 1073.64,-213.025 1075.1,-206.178"/>
</g>
<!-- prediction_model_output_port -->
<g id="node21" class="node"><title>prediction_model_output_port</title>
<ellipse fill="#ffffff" stroke="black" cx="897" cy="-31" rx="7" ry="7"/>
</g>
<!-- prediction_model&#45;&gt;prediction_model_output_port -->
<g id="edge20" class="edge"><title>prediction_model&#45;&gt;prediction_model_output_port</title>
<path fill="none" stroke="black" d="M298.738,-78.469C328.735,-72.23 362.121,-66.0434 393,-62 582.429,-37.1952 814.629,-32.8816 879.464,-32.1473"/>
<polygon fill="black" stroke="black" points="879.893,-35.6434 889.858,-32.0454 879.824,-28.6437 879.893,-35.6434"/>
</g>
<!-- prediction_plot_output_port -->
<g id="node22" class="node"><title>prediction_plot_output_port</title>
<ellipse fill="#ffffff" stroke="black" cx="929" cy="-31" rx="7" ry="7"/>
</g>
<!-- prediction_plot&#45;&gt;prediction_plot_output_port -->
<g id="edge21" class="edge"><title>prediction_plot&#45;&gt;prediction_plot_output_port</title>
<path fill="none" stroke="black" d="M675.729,-78.402C705.726,-72.1598 739.114,-65.9883 770,-62 785.783,-59.962 899.026,-61.6147 913,-54 916.235,-52.2373 918.984,-49.5064 921.242,-46.561"/>
<polygon fill="black" stroke="black" points="924.343,-48.198 926.545,-37.8344 918.361,-44.5632 924.343,-48.198"/>
</g>
<!-- uncertainty_model_output_port -->
<g id="node23" class="node"><title>uncertainty_model_output_port</title>
<ellipse fill="#ffffff" stroke="black" cx="961" cy="-31" rx="7" ry="7"/>
</g>
<!-- uncertainty_model&#45;&gt;uncertainty_model_output_port -->
<g id="edge22" class="edge"><title>uncertainty_model&#45;&gt;uncertainty_model_output_port</title>
<path fill="none" stroke="black" d="M961,-78.4491C961,-68.6592 961,-57.3397 961,-48.3261"/>
<polygon fill="black" stroke="black" points="964.5,-48.1278 961,-38.1279 957.5,-48.1279 964.5,-48.1278"/>
</g>
<!-- uncertainty_plot_output_port -->
<g id="node24" class="node"><title>uncertainty_plot_output_port</title>
<ellipse fill="#ffffff" stroke="black" cx="993" cy="-31" rx="7" ry="7"/>
</g>
<!-- uncertainty_plot&#45;&gt;uncertainty_plot_output_port -->
<g id="edge23" class="edge"><title>uncertainty_plot&#45;&gt;uncertainty_plot_output_port</title>
<path fill="none" stroke="black" d="M1246.26,-78.4975C1216.3,-72.2208 1182.89,-66.0055 1152,-62 1136.22,-59.9538 1022.97,-61.6147 1009,-54 1005.77,-52.2373 1003.02,-49.5064 1000.76,-46.561"/>
<polygon fill="black" stroke="black" points="1003.64,-44.5632 995.455,-37.8344 997.657,-48.198 1003.64,-44.5632"/>
</g>
<!-- paleocar_log_file_output_port -->
<g id="node25" class="node"><title>paleocar_log_file_output_port</title>
<ellipse fill="#ffffff" stroke="black" cx="1025" cy="-31" rx="7" ry="7"/>
</g>
<!-- paleocar_log_file&#45;&gt;paleocar_log_file_output_port -->
<g id="edge24" class="edge"><title>paleocar_log_file&#45;&gt;paleocar_log_file_output_port</title>
<path fill="none" stroke="black" d="M1624.24,-78.4935C1593.6,-72.2556 1559.51,-66.0635 1528,-62 1338.9,-37.6166 1107.19,-33.0069 1042.5,-32.1752"/>
<polygon fill="black" stroke="black" points="1042.17,-28.6713 1032.13,-32.0572 1042.09,-35.6709 1042.17,-28.6713"/>
</g>
<!-- itrdb -->
<g id="node9" class="node"><title>itrdb</title>
<path fill="#fcfcfc" stroke="black" d="M1053,-244.5C1053,-244.5 1157,-244.5 1157,-244.5 1163,-244.5 1169,-250.5 1169,-256.5 1169,-256.5 1169,-278.5 1169,-278.5 1169,-284.5 1163,-290.5 1157,-290.5 1157,-290.5 1053,-290.5 1053,-290.5 1047,-290.5 1041,-284.5 1041,-278.5 1041,-278.5 1041,-256.5 1041,-256.5 1041,-250.5 1047,-244.5 1053,-244.5"/>
<text text-anchor="middle" x="1105" y="-275.3" font-family="Helvetica,sans-Serif" font-size="14.00">itrdb</text>
<polyline fill="none" stroke="black" points="1041,-267.5 1169,-267.5 "/>
<text text-anchor="middle" x="1105" y="-252.3" font-family="Helvetica,sans-Serif" font-size="14.00">file:data/itrdb.Rda</text>
</g>
<!-- itrdb&#45;&gt;gen_paleocar_model -->
<g id="edge8" class="edge"><title>itrdb&#45;&gt;gen_paleocar_model</title>
<path fill="none" stroke="black" d="M1065.65,-244.366C1048.19,-234.544 1027.48,-222.894 1009.11,-212.56"/>
<polygon fill="black" stroke="black" points="1010.73,-209.459 1000.3,-207.607 1007.3,-215.56 1010.73,-209.459"/>
</g>
<!-- calibration_years -->
<g id="node10" class="node"><title>calibration_years</title>
<path fill="#fcfcfc" stroke="black" d="M1010.5,-285.5C1010.5,-285.5 911.5,-285.5 911.5,-285.5 905.5,-285.5 899.5,-279.5 899.5,-273.5 899.5,-273.5 899.5,-261.5 899.5,-261.5 899.5,-255.5 905.5,-249.5 911.5,-249.5 911.5,-249.5 1010.5,-249.5 1010.5,-249.5 1016.5,-249.5 1022.5,-255.5 1022.5,-261.5 1022.5,-261.5 1022.5,-273.5 1022.5,-273.5 1022.5,-279.5 1016.5,-285.5 1010.5,-285.5"/>
<text text-anchor="middle" x="961" y="-263.8" font-family="Helvetica,sans-Serif" font-size="14.00">calibration_years</text>
</g>
<!-- calibration_years&#45;&gt;gen_paleocar_model -->
<g id="edge9" class="edge"><title>calibration_years&#45;&gt;gen_paleocar_model</title>
<path fill="none" stroke="black" d="M961,-249.322C961,-240.102 961,-228.435 961,-217.606"/>
<polygon fill="black" stroke="black" points="964.5,-217.587 961,-207.587 957.5,-217.587 964.5,-217.587"/>
</g>
<!-- label -->
<g id="node11" class="node"><title>label</title>
<path fill="#fcfcfc" stroke="black" d="M869,-285.5C869,-285.5 839,-285.5 839,-285.5 833,-285.5 827,-279.5 827,-273.5 827,-273.5 827,-261.5 827,-261.5 827,-255.5 833,-249.5 839,-249.5 839,-249.5 869,-249.5 869,-249.5 875,-249.5 881,-255.5 881,-261.5 881,-261.5 881,-273.5 881,-273.5 881,-279.5 875,-285.5 869,-285.5"/>
<text text-anchor="middle" x="854" y="-263.8" font-family="Helvetica,sans-Serif" font-size="14.00">label</text>
</g>
<!-- label&#45;&gt;gen_paleocar_model -->
<g id="edge10" class="edge"><title>label&#45;&gt;gen_paleocar_model</title>
<path fill="none" stroke="black" d="M876.692,-249.322C890.379,-238.961 908.146,-225.511 923.839,-213.631"/>
<polygon fill="black" stroke="black" points="925.963,-216.413 931.824,-207.587 921.738,-210.832 925.963,-216.413"/>
</g>
<!-- min_width -->
<g id="node12" class="node"><title>min_width</title>
<path fill="#fcfcfc" stroke="black" d="M797,-285.5C797,-285.5 741,-285.5 741,-285.5 735,-285.5 729,-279.5 729,-273.5 729,-273.5 729,-261.5 729,-261.5 729,-255.5 735,-249.5 741,-249.5 741,-249.5 797,-249.5 797,-249.5 803,-249.5 809,-255.5 809,-261.5 809,-261.5 809,-273.5 809,-273.5 809,-279.5 803,-285.5 797,-285.5"/>
<text text-anchor="middle" x="769" y="-263.8" font-family="Helvetica,sans-Serif" font-size="14.00">min_width</text>
</g>
<!-- min_width&#45;&gt;gen_paleocar_model -->
<g id="edge11" class="edge"><title>min_width&#45;&gt;gen_paleocar_model</title>
<path fill="none" stroke="black" d="M805.581,-249.499C809.758,-247.618 813.964,-245.751 818,-244 843.308,-233.019 871.361,-221.419 895.869,-211.47"/>
<polygon fill="black" stroke="black" points="897.472,-214.597 905.427,-207.601 894.845,-208.109 897.472,-214.597"/>
</g>
<!-- verbose -->
<g id="node13" class="node"><title>verbose</title>
<path fill="#fcfcfc" stroke="black" d="M699,-285.5C699,-285.5 655,-285.5 655,-285.5 649,-285.5 643,-279.5 643,-273.5 643,-273.5 643,-261.5 643,-261.5 643,-255.5 649,-249.5 655,-249.5 655,-249.5 699,-249.5 699,-249.5 705,-249.5 711,-255.5 711,-261.5 711,-261.5 711,-273.5 711,-273.5 711,-279.5 705,-285.5 699,-285.5"/>
<text text-anchor="middle" x="677" y="-263.8" font-family="Helvetica,sans-Serif" font-size="14.00">verbose</text>
</g>
<!-- verbose&#45;&gt;gen_paleocar_model -->
<g id="edge12" class="edge"><title>verbose&#45;&gt;gen_paleocar_model</title>
<path fill="none" stroke="black" d="M707.587,-249.349C711.691,-247.389 715.9,-245.544 720,-244 756.711,-230.177 797.817,-218.784 835.539,-209.841"/>
<polygon fill="black" stroke="black" points="836.622,-213.183 845.565,-207.503 835.031,-206.366 836.622,-213.183"/>
</g>
<!-- prediction_years_input_port -->
<g id="node14" class="node"><title>prediction_years_input_port</title>
<ellipse fill="#ffffff" stroke="black" cx="1057" cy="-338" rx="7" ry="7"/>
</g>
<!-- prediction_years_input_port&#45;&gt;prediction_years -->
<g id="edge13" class="edge"><title>prediction_years_input_port&#45;&gt;prediction_years</title>
<path fill="none" stroke="black" d="M1064.11,-336.945C1114.48,-336.495 1418.09,-332.735 1506,-307 1518.48,-303.347 1531.21,-297.206 1542.33,-290.89"/>
<polygon fill="black" stroke="black" points="1544.43,-293.708 1551.25,-285.593 1540.86,-287.689 1544.43,-293.708"/>
</g>
<!-- prism_data_for_coordinates_input_port -->
<g id="node15" class="node"><title>prism_data_for_coordinates_input_port</title>
<ellipse fill="#ffffff" stroke="black" cx="1025" cy="-338" rx="7" ry="7"/>
</g>
<!-- prism_data_for_coordinates_input_port&#45;&gt;prism_data_for_coordinates -->
<g id="edge14" class="edge"><title>prism_data_for_coordinates_input_port&#45;&gt;prism_data_for_coordinates</title>
<path fill="none" stroke="black" d="M1027.46,-331.169C1030.01,-325.93 1034.54,-318.533 1041,-315 1067.76,-300.375 1147.82,-311.39 1178,-307 1201.68,-303.556 1226.97,-298.381 1250.43,-292.933"/>
<polygon fill="black" stroke="black" points="1251.43,-296.292 1260.36,-290.586 1249.82,-289.48 1251.43,-296.292"/>
</g>
<!-- itrdb_input_port -->
<g id="node16" class="node"><title>itrdb_input_port</title>
<ellipse fill="#ffffff" stroke="black" cx="993" cy="-338" rx="7" ry="7"/>
</g>
<!-- itrdb_input_port&#45;&gt;itrdb -->
<g id="edge15" class="edge"><title>itrdb_input_port&#45;&gt;itrdb</title>
<path fill="none" stroke="black" d="M995.922,-331.175C998.675,-326.231 1003.24,-319.278 1009,-315 1017.69,-308.551 1022.07,-311.314 1032,-307 1040.12,-303.473 1048.56,-299.406 1056.71,-295.267"/>
<polygon fill="black" stroke="black" points="1058.48,-298.293 1065.75,-290.587 1055.26,-292.077 1058.48,-298.293"/>
</g>
<!-- calibration_years_input_port -->
<g id="node17" class="node"><title>calibration_years_input_port</title>
<ellipse fill="#ffffff" stroke="black" cx="961" cy="-338" rx="7" ry="7"/>
</g>
<!-- calibration_years_input_port&#45;&gt;calibration_years -->
<g id="edge16" class="edge"><title>calibration_years_input_port&#45;&gt;calibration_years</title>
<path fill="none" stroke="black" d="M961,-330.678C961,-322.761 961,-308.681 961,-295.92"/>
<polygon fill="black" stroke="black" points="964.5,-295.675 961,-285.675 957.5,-295.675 964.5,-295.675"/>
</g>
<!-- label_input_port -->
<g id="node18" class="node"><title>label_input_port</title>
<ellipse fill="#ffffff" stroke="black" cx="929" cy="-338" rx="7" ry="7"/>
</g>
<!-- label_input_port&#45;&gt;label -->
<g id="edge17" class="edge"><title>label_input_port&#45;&gt;label</title>
<path fill="none" stroke="black" d="M926.063,-331.195C923.3,-326.264 918.735,-319.318 913,-315 904.688,-308.742 899.72,-312.676 891,-307 885.049,-303.126 879.347,-298.124 874.278,-293.016"/>
<polygon fill="black" stroke="black" points="876.724,-290.507 867.348,-285.574 871.601,-295.278 876.724,-290.507"/>
</g>
<!-- min_width_input_port -->
<g id="node19" class="node"><title>min_width_input_port</title>
<ellipse fill="#ffffff" stroke="black" cx="897" cy="-338" rx="7" ry="7"/>
</g>
<!-- min_width_input_port&#45;&gt;min_width -->
<g id="edge18" class="edge"><title>min_width_input_port&#45;&gt;min_width</title>
<path fill="none" stroke="black" d="M894.486,-331.269C891.895,-326.1 887.341,-318.751 881,-315 856.707,-300.63 844.039,-317.891 818,-307 809.535,-303.46 801.301,-298.039 794.073,-292.373"/>
<polygon fill="black" stroke="black" points="796.015,-289.435 786.098,-285.707 791.526,-294.806 796.015,-289.435"/>
</g>
<!-- verbose_input_port -->
<g id="node20" class="node"><title>verbose_input_port</title>
<ellipse fill="#ffffff" stroke="black" cx="865" cy="-338" rx="7" ry="7"/>
</g>
<!-- verbose_input_port&#45;&gt;verbose -->
<g id="edge19" class="edge"><title>verbose_input_port&#45;&gt;verbose</title>
<path fill="none" stroke="black" d="M857.934,-336.821C836.166,-336.01 768.66,-331.542 720,-307 712.703,-303.32 705.691,-298.076 699.522,-292.64"/>
<polygon fill="black" stroke="black" points="701.884,-290.056 692.203,-285.753 697.088,-295.154 701.884,-290.056"/>
</g>
</g>
</svg>
