<?xml version="1.0" encoding="UTF-8" standalone="no"?>
<!DOCTYPE svg PUBLIC "-//W3C//DTD SVG 1.1//EN"
 "http://www.w3.org/Graphics/SVG/1.1/DTD/svg11.dtd">
<!-- Generated by graphviz version 2.38.0 (20140413.2041)
 -->
<!-- Title: Workflow Pages: 1 -->
<svg width="798pt" height="405pt"
 viewBox="0.00 0.00 798.00 405.00" xmlns="http://www.w3.org/2000/svg" xmlns:xlink="http://www.w3.org/1999/xlink">
<g id="graph0" class="graph" transform="scale(1 1) rotate(0) translate(4 401)">
<title>Workflow</title>
<polygon fill="white" stroke="none" points="-4,4 -4,-401 794,-401 794,4 -4,4"/>
<text text-anchor="middle" x="395" y="-378.6" font-family="Helvetica,sans-Serif" font-size="18.00">extract_prism_data</text>
<g id="clust1" class="cluster"><title>cluster_workflow_box_outer</title>
<polygon fill="none" stroke="black" stroke-width="2" points="8,-62 8,-307 782,-307 782,-62 8,-62"/>
</g>
<g id="clust2" class="cluster"><title>cluster_workflow_box_inner</title>
<polygon fill="none" stroke="black" stroke-width="0" points="16,-70 16,-299 774,-299 774,-70 16,-70"/>
</g>
<g id="clust5" class="cluster"><title>cluster_output_ports_group_outer</title>
<polygon fill="none" stroke="black" stroke-width="0" points="372,-8 372,-54 418,-54 418,-8 372,-8"/>
</g>
<g id="clust6" class="cluster"><title>cluster_output_ports_group_inner</title>
<polygon fill="none" stroke="black" stroke-width="0" points="380,-16 380,-46 410,-46 410,-16 380,-16"/>
</g>
<g id="clust3" class="cluster"><title>cluster_input_ports_group_outer</title>
<polygon fill="none" stroke="black" stroke-width="0" points="355,-315 355,-361 433,-361 433,-315 355,-315"/>
</g>
<g id="clust4" class="cluster"><title>cluster_input_ports_group_inner</title>
<polygon fill="none" stroke="black" stroke-width="0" points="363,-323 363,-353 425,-353 425,-323 363,-323"/>
</g>
<!-- extract_prism_data -->
<g id="node1" class="node"><title>extract_prism_data</title>
<polygon fill="#ccffcc" stroke="black" points="24,-161.5 24,-207.5 766,-207.5 766,-161.5 24,-161.5"/>
<text text-anchor="middle" x="395" y="-192.3" font-family="Helvetica,sans-Serif" font-size="14.00">extract_prism_data</text>
<polyline fill="none" stroke="black" points="24,-184.5 766,-184.5 "/>
<text text-anchor="middle" x="395" y="-169.3" font-family="Helvetica,sans-Serif" font-size="14.00">Load the prism data file with precipitation values and extract the data for the input coordinates and save as a csv file.</text>
</g>
<!-- prism_data_for_coordinates -->
<g id="node2" class="node"><title>prism_data_for_coordinates</title>
<path fill="#ffffcc" stroke="black" d="M252,-78.5C252,-78.5 538,-78.5 538,-78.5 544,-78.5 550,-84.5 550,-90.5 550,-90.5 550,-112.5 550,-112.5 550,-118.5 544,-124.5 538,-124.5 538,-124.5 252,-124.5 252,-124.5 246,-124.5 240,-118.5 240,-112.5 240,-112.5 240,-90.5 240,-90.5 240,-84.5 246,-78.5 252,-78.5"/>
<text text-anchor="middle" x="395" y="-109.3" font-family="Helvetica,sans-Serif" font-size="14.00">prism_data_for_coordinates</text>
<polyline fill="none" stroke="black" points="240,-101.5 550,-101.5 "/>
<text text-anchor="middle" x="395" y="-86.3" font-family="Helvetica,sans-Serif" font-size="14.00">file:.output/{session_id}/{run_id}/112W36N.csv</text>
</g>
<!-- extract_prism_data&#45;&gt;prism_data_for_coordinates -->
<g id="edge1" class="edge"><title>extract_prism_data&#45;&gt;prism_data_for_coordinates</title>
<path fill="none" stroke="black" d="M395,-161.366C395,-153.152 395,-143.658 395,-134.725"/>
<polygon fill="black" stroke="black" points="398.5,-134.607 395,-124.607 391.5,-134.607 398.5,-134.607"/>
</g>
<!-- prism_data_for_coordinates_output_port -->
<g id="node7" class="node"><title>prism_data_for_coordinates_output_port</title>
<ellipse fill="#ffffff" stroke="black" cx="395" cy="-31" rx="7" ry="7"/>
</g>
<!-- prism_data_for_coordinates&#45;&gt;prism_data_for_coordinates_output_port -->
<g id="edge6" class="edge"><title>prism_data_for_coordinates&#45;&gt;prism_data_for_coordinates_output_port</title>
<path fill="none" stroke="black" d="M395,-78.4491C395,-68.6592 395,-57.3397 395,-48.3261"/>
<polygon fill="black" stroke="black" points="398.5,-48.1278 395,-38.1279 391.5,-48.1279 398.5,-48.1278"/>
</g>
<!-- coordinates -->
<g id="node3" class="node"><title>coordinates</title>
<path fill="#ffffcc" stroke="black" d="M492.5,-285.5C492.5,-285.5 425.5,-285.5 425.5,-285.5 419.5,-285.5 413.5,-279.5 413.5,-273.5 413.5,-273.5 413.5,-261.5 413.5,-261.5 413.5,-255.5 419.5,-249.5 425.5,-249.5 425.5,-249.5 492.5,-249.5 492.5,-249.5 498.5,-249.5 504.5,-255.5 504.5,-261.5 504.5,-261.5 504.5,-273.5 504.5,-273.5 504.5,-279.5 498.5,-285.5 492.5,-285.5"/>
<text text-anchor="middle" x="459" y="-263.8" font-family="Helvetica,sans-Serif" font-size="14.00">coordinates</text>
</g>
<!-- coordinates&#45;&gt;extract_prism_data -->
<g id="edge2" class="edge"><title>coordinates&#45;&gt;extract_prism_data</title>
<path fill="none" stroke="black" d="M445.427,-249.322C437.691,-239.531 427.776,-226.982 418.788,-215.606"/>
<polygon fill="black" stroke="black" points="421.397,-213.263 412.451,-207.587 415.905,-217.603 421.397,-213.263"/>
</g>
<!-- prism_data -->
<g id="node4" class="node"><title>prism_data</title>
<path fill="#fcfcfc" stroke="black" d="M276.5,-244.5C276.5,-244.5 383.5,-244.5 383.5,-244.5 389.5,-244.5 395.5,-250.5 395.5,-256.5 395.5,-256.5 395.5,-278.5 395.5,-278.5 395.5,-284.5 389.5,-290.5 383.5,-290.5 383.5,-290.5 276.5,-290.5 276.5,-290.5 270.5,-290.5 264.5,-284.5 264.5,-278.5 264.5,-278.5 264.5,-256.5 264.5,-256.5 264.5,-250.5 270.5,-244.5 276.5,-244.5"/>
<text text-anchor="middle" x="330" y="-275.3" font-family="Helvetica,sans-Serif" font-size="14.00">prism_data</text>
<polyline fill="none" stroke="black" points="264.5,-267.5 395.5,-267.5 "/>
<text text-anchor="middle" x="330" y="-252.3" font-family="Helvetica,sans-Serif" font-size="14.00">data/112W36N.nc</text>
</g>
<!-- prism_data&#45;&gt;extract_prism_data -->
<g id="edge3" class="edge"><title>prism_data&#45;&gt;extract_prism_data</title>
<path fill="none" stroke="black" d="M347.762,-244.366C354.927,-235.437 363.305,-224.997 370.999,-215.409"/>
<polygon fill="black" stroke="black" points="373.731,-217.597 377.26,-207.607 368.271,-213.216 373.731,-217.597"/>
</g>
<!-- coordinates_input_port -->
<g id="node5" class="node"><title>coordinates_input_port</title>
<ellipse fill="#ffffff" stroke="black" cx="410" cy="-338" rx="7" ry="7"/>
</g>
<!-- coordinates_input_port&#45;&gt;coordinates -->
<g id="edge4" class="edge"><title>coordinates_input_port&#45;&gt;coordinates</title>
<path fill="none" stroke="black" d="M413.845,-331.625C419.637,-323.528 430.973,-307.681 440.837,-293.891"/>
<polygon fill="black" stroke="black" points="443.755,-295.828 446.726,-285.658 438.061,-291.755 443.755,-295.828"/>
</g>
<!-- prism_data_input_port -->
<g id="node6" class="node"><title>prism_data_input_port</title>
<ellipse fill="#ffffff" stroke="black" cx="378" cy="-338" rx="7" ry="7"/>
</g>
<!-- prism_data_input_port&#45;&gt;prism_data -->
<g id="edge5" class="edge"><title>prism_data_input_port&#45;&gt;prism_data</title>
<path fill="none" stroke="black" d="M374.234,-331.625C369.242,-324.501 360.045,-311.377 351.326,-298.933"/>
<polygon fill="black" stroke="black" points="354.028,-296.691 345.423,-290.51 348.295,-300.708 354.028,-296.691"/>
</g>
</g>
</svg>
