<?xml version="1.0" encoding="UTF-8" standalone="no"?>
<!DOCTYPE svg PUBLIC "-//W3C//DTD SVG 1.1//EN"
 "http://www.w3.org/Graphics/SVG/1.1/DTD/svg11.dtd">
<!-- Generated by graphviz version 2.38.0 (20140413.2041)
 -->
<!-- Title: Workflow Pages: 1 -->
<svg width="508pt" height="383pt"
 viewBox="0.00 0.00 508.00 383.00" xmlns="http://www.w3.org/2000/svg" xmlns:xlink="http://www.w3.org/1999/xlink">
<g id="graph0" class="graph" transform="scale(1 1) rotate(0) translate(4 379)">
<title>Workflow</title>
<polygon fill="white" stroke="none" points="-4,4 -4,-379 504,-379 504,4 -4,4"/>
<text text-anchor="middle" x="250" y="-356.6" font-family="Helvetica,sans-Serif" font-size="18.00">get_tree_ring_values</text>
<g id="clust1" class="cluster"><title>cluster_workflow_box_outer</title>
<polygon fill="none" stroke="black" stroke-width="2" points="8,-62 8,-285 492,-285 492,-62 8,-62"/>
</g>
<g id="clust2" class="cluster"><title>cluster_workflow_box_inner</title>
<polygon fill="none" stroke="black" stroke-width="0" points="16,-70 16,-277 484,-277 484,-70 16,-70"/>
</g>
<g id="clust3" class="cluster"><title>cluster_input_ports_group_outer</title>
<polygon fill="none" stroke="black" stroke-width="0" points="211,-293 211,-339 289,-339 289,-293 211,-293"/>
</g>
<g id="clust4" class="cluster"><title>cluster_input_ports_group_inner</title>
<polygon fill="none" stroke="black" stroke-width="0" points="219,-301 219,-331 281,-331 281,-301 219,-301"/>
</g>
<g id="clust5" class="cluster"><title>cluster_output_ports_group_outer</title>
<polygon fill="none" stroke="black" stroke-width="0" points="227,-8 227,-54 273,-54 273,-8 227,-8"/>
</g>
<g id="clust6" class="cluster"><title>cluster_output_ports_group_inner</title>
<polygon fill="none" stroke="black" stroke-width="0" points="235,-16 235,-46 265,-46 265,-16 235,-16"/>
</g>
<!-- extract_tree_ring_values -->
<g id="node1" class="node"><title>extract_tree_ring_values</title>
<polygon fill="#ccffcc" stroke="black" points="336,-197 164,-197 164,-161 336,-161 336,-197"/>
<text text-anchor="middle" x="250" y="-175.3" font-family="Helvetica,sans-Serif" font-size="14.00">extract_tree_ring_values</text>
</g>
<!-- tree_ring_values -->
<g id="node2" class="node"><title>tree_ring_values</title>
<path fill="#ffffcc" stroke="black" d="M36,-78.5C36,-78.5 464,-78.5 464,-78.5 470,-78.5 476,-84.5 476,-90.5 476,-90.5 476,-112.5 476,-112.5 476,-118.5 470,-124.5 464,-124.5 464,-124.5 36,-124.5 36,-124.5 30,-124.5 24,-118.5 24,-112.5 24,-112.5 24,-90.5 24,-90.5 24,-84.5 30,-78.5 36,-78.5"/>
<text text-anchor="middle" x="250" y="-109.3" font-family="Helvetica,sans-Serif" font-size="14.00">tree_ring_values</text>
<polyline fill="none" stroke="black" points="24,-101.5 476,-101.5 "/>
<text text-anchor="middle" x="250" y="-86.3" font-family="Helvetica,sans-Serif" font-size="14.00">file:.output/{session_id}/{run_id}/{calibration_year}_tree_ring_data.csv</text>
</g>
<!-- extract_tree_ring_values&#45;&gt;tree_ring_values -->
<g id="edge1" class="edge"><title>extract_tree_ring_values&#45;&gt;tree_ring_values</title>
<path fill="none" stroke="black" d="M250,-160.868C250,-153.175 250,-143.835 250,-134.902"/>
<polygon fill="black" stroke="black" points="253.5,-134.727 250,-124.727 246.5,-134.727 253.5,-134.727"/>
</g>
<!-- tree_ring_values_output_port -->
<g id="node7" class="node"><title>tree_ring_values_output_port</title>
<ellipse fill="#ffffff" stroke="black" cx="250" cy="-31" rx="7" ry="7"/>
</g>
<!-- tree_ring_values&#45;&gt;tree_ring_values_output_port -->
<g id="edge6" class="edge"><title>tree_ring_values&#45;&gt;tree_ring_values_output_port</title>
<path fill="none" stroke="black" d="M250,-78.4491C250,-68.6592 250,-57.3397 250,-48.3261"/>
<polygon fill="black" stroke="black" points="253.5,-48.1278 250,-38.1279 246.5,-48.1279 253.5,-48.1278"/>
</g>
<!-- paleocar_models -->
<g id="node3" class="node"><title>paleocar_models</title>
<path fill="#ffffcc" stroke="black" d="M371.5,-269C371.5,-269 268.5,-269 268.5,-269 262.5,-269 256.5,-263 256.5,-257 256.5,-257 256.5,-245 256.5,-245 256.5,-239 262.5,-233 268.5,-233 268.5,-233 371.5,-233 371.5,-233 377.5,-233 383.5,-239 383.5,-245 383.5,-245 383.5,-257 383.5,-257 383.5,-263 377.5,-269 371.5,-269"/>
<text text-anchor="middle" x="320" y="-247.3" font-family="Helvetica,sans-Serif" font-size="14.00">paleocar_models</text>
</g>
<!-- paleocar_models&#45;&gt;extract_tree_ring_values -->
<g id="edge2" class="edge"><title>paleocar_models&#45;&gt;extract_tree_ring_values</title>
<path fill="none" stroke="black" d="M302.697,-232.697C294.135,-224.135 283.656,-213.656 274.304,-204.304"/>
<polygon fill="black" stroke="black" points="276.65,-201.701 267.104,-197.104 271.701,-206.65 276.65,-201.701"/>
</g>
<!-- calibration_year -->
<g id="node4" class="node"><title>calibration_year</title>
<path fill="#ffffcc" stroke="black" d="M226,-269C226,-269 134,-269 134,-269 128,-269 122,-263 122,-257 122,-257 122,-245 122,-245 122,-239 128,-233 134,-233 134,-233 226,-233 226,-233 232,-233 238,-239 238,-245 238,-245 238,-257 238,-257 238,-263 232,-269 226,-269"/>
<text text-anchor="middle" x="180" y="-247.3" font-family="Helvetica,sans-Serif" font-size="14.00">calibration_year</text>
</g>
<!-- calibration_year&#45;&gt;extract_tree_ring_values -->
<g id="edge3" class="edge"><title>calibration_year&#45;&gt;extract_tree_ring_values</title>
<path fill="none" stroke="black" d="M197.303,-232.697C205.865,-224.135 216.344,-213.656 225.696,-204.304"/>
<polygon fill="black" stroke="black" points="228.299,-206.65 232.896,-197.104 223.35,-201.701 228.299,-206.65"/>
</g>
<!-- paleocar_models_input_port -->
<g id="node5" class="node"><title>paleocar_models_input_port</title>
<ellipse fill="#ffffff" stroke="black" cx="266" cy="-316" rx="7" ry="7"/>
</g>
<!-- paleocar_models_input_port&#45;&gt;paleocar_models -->
<g id="edge4" class="edge"><title>paleocar_models_input_port&#45;&gt;paleocar_models</title>
<path fill="none" stroke="black" d="M270.237,-310.056C276.356,-302.918 288.089,-289.229 298.626,-276.936"/>
<polygon fill="black" stroke="black" points="301.456,-279.013 305.307,-269.142 296.141,-274.457 301.456,-279.013"/>
</g>
<!-- calibration_year_input_port -->
<g id="node6" class="node"><title>calibration_year_input_port</title>
<ellipse fill="#ffffff" stroke="black" cx="234" cy="-316" rx="7" ry="7"/>
</g>
<!-- calibration_year_input_port&#45;&gt;calibration_year -->
<g id="edge5" class="edge"><title>calibration_year_input_port&#45;&gt;calibration_year</title>
<path fill="none" stroke="black" d="M229.763,-310.056C223.644,-302.918 211.911,-289.229 201.374,-276.936"/>
<polygon fill="black" stroke="black" points="203.859,-274.457 194.693,-269.142 198.544,-279.013 203.859,-274.457"/>
</g>
</g>
</svg>
