<?xml version="1.0" encoding="UTF-8" standalone="no"?>
<!DOCTYPE svg PUBLIC "-//W3C//DTD SVG 1.1//EN"
 "http://www.w3.org/Graphics/SVG/1.1/DTD/svg11.dtd">
<!-- Generated by graphviz version 2.38.0 (20140413.2041)
 -->
<!-- Title: Workflow Pages: 1 -->
<svg width="380pt" height="383pt"
 viewBox="0.00 0.00 380.00 383.00" xmlns="http://www.w3.org/2000/svg" xmlns:xlink="http://www.w3.org/1999/xlink">
<g id="graph0" class="graph" transform="scale(1 1) rotate(0) translate(4 379)">
<title>Workflow</title>
<polygon fill="white" stroke="none" points="-4,4 -4,-379 376,-379 376,4 -4,4"/>
<text text-anchor="middle" x="186" y="-356.6" font-family="Helvetica,sans-Serif" font-size="18.00">get_species_of_trees</text>
<g id="clust1" class="cluster"><title>cluster_workflow_box_outer</title>
<polygon fill="none" stroke="black" stroke-width="2" points="8,-62 8,-285 364,-285 364,-62 8,-62"/>
</g>
<g id="clust2" class="cluster"><title>cluster_workflow_box_inner</title>
<polygon fill="none" stroke="black" stroke-width="0" points="16,-70 16,-277 356,-277 356,-70 16,-70"/>
</g>
<g id="clust3" class="cluster"><title>cluster_input_ports_group_outer</title>
<polygon fill="none" stroke="black" stroke-width="0" points="152,-293 152,-339 230,-339 230,-293 152,-293"/>
</g>
<g id="clust4" class="cluster"><title>cluster_input_ports_group_inner</title>
<polygon fill="none" stroke="black" stroke-width="0" points="160,-301 160,-331 222,-331 222,-301 160,-301"/>
</g>
<g id="clust5" class="cluster"><title>cluster_output_ports_group_outer</title>
<polygon fill="none" stroke="black" stroke-width="0" points="163,-8 163,-54 209,-54 209,-8 163,-8"/>
</g>
<g id="clust6" class="cluster"><title>cluster_output_ports_group_inner</title>
<polygon fill="none" stroke="black" stroke-width="0" points="171,-16 171,-46 201,-46 201,-16 171,-16"/>
</g>
<!-- extract_tree_species -->
<g id="node1" class="node"><title>extract_tree_species</title>
<polygon fill="#ccffcc" stroke="black" points="261,-197 111,-197 111,-161 261,-161 261,-197"/>
<text text-anchor="middle" x="186" y="-175.3" font-family="Helvetica,sans-Serif" font-size="14.00">extract_tree_species</text>
</g>
<!-- tree_species_used -->
<g id="node2" class="node"><title>tree_species_used</title>
<path fill="#ffffcc" stroke="black" d="M36,-78.5C36,-78.5 336,-78.5 336,-78.5 342,-78.5 348,-84.5 348,-90.5 348,-90.5 348,-112.5 348,-112.5 348,-118.5 342,-124.5 336,-124.5 336,-124.5 36,-124.5 36,-124.5 30,-124.5 24,-118.5 24,-112.5 24,-112.5 24,-90.5 24,-90.5 24,-84.5 30,-78.5 36,-78.5"/>
<text text-anchor="middle" x="186" y="-109.3" font-family="Helvetica,sans-Serif" font-size="14.00">tree_species_used</text>
<polyline fill="none" stroke="black" points="24,-101.5 348,-101.5 "/>
<text text-anchor="middle" x="186" y="-86.3" font-family="Helvetica,sans-Serif" font-size="14.00">file:.output/{session_id}{run_id}/tree_species.csv</text>
</g>
<!-- extract_tree_species&#45;&gt;tree_species_used -->
<g id="edge1" class="edge"><title>extract_tree_species&#45;&gt;tree_species_used</title>
<path fill="none" stroke="black" d="M186,-160.868C186,-153.175 186,-143.835 186,-134.902"/>
<polygon fill="black" stroke="black" points="189.5,-134.727 186,-124.727 182.5,-134.727 189.5,-134.727"/>
</g>
<!-- tree_species_used_output_port -->
<g id="node7" class="node"><title>tree_species_used_output_port</title>
<ellipse fill="#ffffff" stroke="black" cx="186" cy="-31" rx="7" ry="7"/>
</g>
<!-- tree_species_used&#45;&gt;tree_species_used_output_port -->
<g id="edge6" class="edge"><title>tree_species_used&#45;&gt;tree_species_used_output_port</title>
<path fill="none" stroke="black" d="M186,-78.4491C186,-68.6592 186,-57.3397 186,-48.3261"/>
<polygon fill="black" stroke="black" points="189.5,-48.1278 186,-38.1279 182.5,-48.1279 189.5,-48.1278"/>
</g>
<!-- itrdb -->
<g id="node3" class="node"><title>itrdb</title>
<path fill="#ffffcc" stroke="black" d="M261,-269C261,-269 231,-269 231,-269 225,-269 219,-263 219,-257 219,-257 219,-245 219,-245 219,-239 225,-233 231,-233 231,-233 261,-233 261,-233 267,-233 273,-239 273,-245 273,-245 273,-257 273,-257 273,-263 267,-269 261,-269"/>
<text text-anchor="middle" x="246" y="-247.3" font-family="Helvetica,sans-Serif" font-size="14.00">itrdb</text>
</g>
<!-- itrdb&#45;&gt;extract_tree_species -->
<g id="edge2" class="edge"><title>itrdb&#45;&gt;extract_tree_species</title>
<path fill="none" stroke="black" d="M231.169,-232.697C223.975,-224.305 215.203,-214.07 207.31,-204.861"/>
<polygon fill="black" stroke="black" points="209.826,-202.419 200.661,-197.104 204.511,-206.975 209.826,-202.419"/>
</g>
<!-- paleocar_models -->
<g id="node4" class="node"><title>paleocar_models</title>
<path fill="#ffffcc" stroke="black" d="M188.5,-269C188.5,-269 85.5,-269 85.5,-269 79.5,-269 73.5,-263 73.5,-257 73.5,-257 73.5,-245 73.5,-245 73.5,-239 79.5,-233 85.5,-233 85.5,-233 188.5,-233 188.5,-233 194.5,-233 200.5,-239 200.5,-245 200.5,-245 200.5,-257 200.5,-257 200.5,-263 194.5,-269 188.5,-269"/>
<text text-anchor="middle" x="137" y="-247.3" font-family="Helvetica,sans-Serif" font-size="14.00">paleocar_models</text>
</g>
<!-- paleocar_models&#45;&gt;extract_tree_species -->
<g id="edge3" class="edge"><title>paleocar_models&#45;&gt;extract_tree_species</title>
<path fill="none" stroke="black" d="M149.112,-232.697C154.868,-224.474 161.862,-214.483 168.206,-205.421"/>
<polygon fill="black" stroke="black" points="171.16,-207.304 174.027,-197.104 165.425,-203.29 171.16,-207.304"/>
</g>
<!-- paleocar_models_input_port -->
<g id="node5" class="node"><title>paleocar_models_input_port</title>
<ellipse fill="#ffffff" stroke="black" cx="175" cy="-316" rx="7" ry="7"/>
</g>
<!-- paleocar_models_input_port&#45;&gt;paleocar_models -->
<g id="edge4" class="edge"><title>paleocar_models_input_port&#45;&gt;paleocar_models</title>
<path fill="none" stroke="black" d="M171.76,-309.629C167.498,-302.562 159.712,-289.654 152.588,-277.843"/>
<polygon fill="black" stroke="black" points="155.5,-275.895 147.338,-269.14 149.506,-279.51 155.5,-275.895"/>
</g>
<!-- itrdb_input_port -->
<g id="node6" class="node"><title>itrdb_input_port</title>
<ellipse fill="#ffffff" stroke="black" cx="207" cy="-316" rx="7" ry="7"/>
</g>
<!-- itrdb_input_port&#45;&gt;itrdb -->
<g id="edge5" class="edge"><title>itrdb_input_port&#45;&gt;itrdb</title>
<path fill="none" stroke="black" d="M210.325,-309.629C214.699,-302.562 222.69,-289.654 230.002,-277.843"/>
<polygon fill="black" stroke="black" points="233.102,-279.485 235.39,-269.14 227.15,-275.8 233.102,-279.485"/>
</g>
</g>
</svg>
