<?xml version="1.0" encoding="UTF-8" standalone="no"?>
<!DOCTYPE svg PUBLIC "-//W3C//DTD SVG 1.1//EN"
 "http://www.w3.org/Graphics/SVG/1.1/DTD/svg11.dtd">
<!-- Generated by graphviz version 2.38.0 (20140413.2041)
 -->
<!-- Title: Workflow Pages: 1 -->
<svg width="1328pt" height="1202pt"
 viewBox="0.00 0.00 1328.00 1202.00" xmlns="http://www.w3.org/2000/svg" xmlns:xlink="http://www.w3.org/1999/xlink">
<g id="graph0" class="graph" transform="scale(1 1) rotate(0) translate(4 1198)">
<title>Workflow</title>
<polygon fill="white" stroke="none" points="-4,4 -4,-1198 1324,-1198 1324,4 -4,4"/>
<text text-anchor="middle" x="660" y="-1175.6" font-family="Helvetica,sans-Serif" font-size="18.00">get_itrdb_data</text>
<g id="clust1" class="cluster"><title>cluster_workflow_box_outer</title>
<polygon fill="none" stroke="black" stroke-width="2" points="8,-62 8,-1104 1308,-1104 1308,-62 8,-62"/>
</g>
<g id="clust2" class="cluster"><title>cluster_workflow_box_inner</title>
<polygon fill="none" stroke="black" stroke-width="0" points="16,-70 16,-1096 1300,-1096 1300,-70 16,-70"/>
</g>
<g id="clust5" class="cluster"><title>cluster_output_ports_group_outer</title>
<polygon fill="none" stroke="black" stroke-width="0" points="706,-8 706,-54 752,-54 752,-8 706,-8"/>
</g>
<g id="clust6" class="cluster"><title>cluster_output_ports_group_inner</title>
<polygon fill="none" stroke="black" stroke-width="0" points="714,-16 714,-46 744,-46 744,-16 714,-16"/>
</g>
<g id="clust3" class="cluster"><title>cluster_input_ports_group_outer</title>
<polygon fill="none" stroke="black" stroke-width="0" points="960,-1112 960,-1158 1070,-1158 1070,-1112 960,-1112"/>
</g>
<g id="clust4" class="cluster"><title>cluster_input_ports_group_inner</title>
<polygon fill="none" stroke="black" stroke-width="0" points="968,-1120 968,-1150 1062,-1150 1062,-1120 968,-1120"/>
</g>
<!-- create_shapefile_dir -->
<g id="node1" class="node"><title>create_shapefile_dir</title>
<polygon fill="#ccffcc" stroke="black" points="510,-969.5 510,-1015.5 962,-1015.5 962,-969.5 510,-969.5"/>
<text text-anchor="middle" x="736" y="-1000.3" font-family="Helvetica,sans-Serif" font-size="14.00">create_shapefile_dir</text>
<polyline fill="none" stroke="black" points="510,-992.5 962,-992.5 "/>
<text text-anchor="middle" x="736" y="-977.3" font-family="Helvetica,sans-Serif" font-size="14.00">create a direcorty for downloading the shapefiles for the study region.</text>
</g>
<!-- user_created_dir -->
<g id="node10" class="node"><title>user_created_dir</title>
<path fill="#ffffcc" stroke="black" d="M642.5,-886.5C642.5,-886.5 779.5,-886.5 779.5,-886.5 785.5,-886.5 791.5,-892.5 791.5,-898.5 791.5,-898.5 791.5,-920.5 791.5,-920.5 791.5,-926.5 785.5,-932.5 779.5,-932.5 779.5,-932.5 642.5,-932.5 642.5,-932.5 636.5,-932.5 630.5,-926.5 630.5,-920.5 630.5,-920.5 630.5,-898.5 630.5,-898.5 630.5,-892.5 636.5,-886.5 642.5,-886.5"/>
<text text-anchor="middle" x="711" y="-917.3" font-family="Helvetica,sans-Serif" font-size="14.00">user_created_dir</text>
<polyline fill="none" stroke="black" points="630.5,-909.5 791.5,-909.5 "/>
<text text-anchor="middle" x="711" y="-894.3" font-family="Helvetica,sans-Serif" font-size="14.00">file:data/{study_region}</text>
</g>
<!-- create_shapefile_dir&#45;&gt;user_created_dir -->
<g id="edge1" class="edge"><title>create_shapefile_dir&#45;&gt;user_created_dir</title>
<path fill="none" stroke="black" d="M729.169,-969.366C726.606,-961.062 723.639,-951.451 720.856,-942.434"/>
<polygon fill="black" stroke="black" points="724.117,-941.13 717.823,-932.607 717.428,-943.194 724.117,-941.13"/>
</g>
<!-- download_shapefile_archive -->
<g id="node2" class="node"><title>download_shapefile_archive</title>
<polygon fill="#ccffcc" stroke="black" points="594,-803.5 594,-849.5 1292,-849.5 1292,-803.5 594,-803.5"/>
<text text-anchor="middle" x="943" y="-834.3" font-family="Helvetica,sans-Serif" font-size="14.00">download_shapefile_archive</text>
<polyline fill="none" stroke="black" points="594,-826.5 1292,-826.5 "/>
<text text-anchor="middle" x="943" y="-811.3" font-family="Helvetica,sans-Serif" font-size="14.00">download the zip file of the region which contains the boundary, tracts, metadata.xml and nps_tracts.xml files.</text>
</g>
<!-- compressed_shapefile -->
<g id="node11" class="node"><title>compressed_shapefile</title>
<path fill="#ffffcc" stroke="black" d="M795,-720.5C795,-720.5 1091,-720.5 1091,-720.5 1097,-720.5 1103,-726.5 1103,-732.5 1103,-732.5 1103,-754.5 1103,-754.5 1103,-760.5 1097,-766.5 1091,-766.5 1091,-766.5 795,-766.5 795,-766.5 789,-766.5 783,-760.5 783,-754.5 783,-754.5 783,-732.5 783,-732.5 783,-726.5 789,-720.5 795,-720.5"/>
<text text-anchor="middle" x="943" y="-751.3" font-family="Helvetica,sans-Serif" font-size="14.00">compressed_shapefile</text>
<polyline fill="none" stroke="black" points="783,-743.5 1103,-743.5 "/>
<text text-anchor="middle" x="943" y="-728.3" font-family="Helvetica,sans-Serif" font-size="14.00">file:data/{study_region}/{study_region}_tracts.zip</text>
</g>
<!-- download_shapefile_archive&#45;&gt;compressed_shapefile -->
<g id="edge3" class="edge"><title>download_shapefile_archive&#45;&gt;compressed_shapefile</title>
<path fill="none" stroke="black" d="M943,-803.366C943,-795.152 943,-785.658 943,-776.725"/>
<polygon fill="black" stroke="black" points="946.5,-776.607 943,-766.607 939.5,-776.607 946.5,-776.607"/>
</g>
<!-- uncompress_shapefile -->
<g id="node3" class="node"><title>uncompress_shapefile</title>
<polygon fill="#ccffcc" stroke="black" points="741,-637.5 741,-683.5 1145,-683.5 1145,-637.5 741,-637.5"/>
<text text-anchor="middle" x="943" y="-668.3" font-family="Helvetica,sans-Serif" font-size="14.00">uncompress_shapefile</text>
<polyline fill="none" stroke="black" points="741,-660.5 1145,-660.5 "/>
<text text-anchor="middle" x="943" y="-645.3" font-family="Helvetica,sans-Serif" font-size="14.00">create a directory as the archive filename and extract the files.</text>
</g>
<!-- layer_boundary -->
<g id="node12" class="node"><title>layer_boundary</title>
<path fill="#ffffcc" stroke="black" d="M36.5,-554.5C36.5,-554.5 579.5,-554.5 579.5,-554.5 585.5,-554.5 591.5,-560.5 591.5,-566.5 591.5,-566.5 591.5,-588.5 591.5,-588.5 591.5,-594.5 585.5,-600.5 579.5,-600.5 579.5,-600.5 36.5,-600.5 36.5,-600.5 30.5,-600.5 24.5,-594.5 24.5,-588.5 24.5,-588.5 24.5,-566.5 24.5,-566.5 24.5,-560.5 30.5,-554.5 36.5,-554.5"/>
<text text-anchor="middle" x="308" y="-585.3" font-family="Helvetica,sans-Serif" font-size="14.00">layer_boundary</text>
<polyline fill="none" stroke="black" points="24.5,-577.5 591.5,-577.5 "/>
<text text-anchor="middle" x="308" y="-562.3" font-family="Helvetica,sans-Serif" font-size="14.00">file:data/{study_region}/{study_region}_tracts/{study_region}_boundary.{file_extensions}</text>
</g>
<!-- uncompress_shapefile&#45;&gt;layer_boundary -->
<g id="edge7" class="edge"><title>uncompress_shapefile&#45;&gt;layer_boundary</title>
<path fill="none" stroke="black" d="M770.322,-637.473C683.683,-626.422 578.733,-613.034 490.74,-601.81"/>
<polygon fill="black" stroke="black" points="491.006,-598.316 480.643,-600.522 490.12,-605.26 491.006,-598.316"/>
</g>
<!-- shapefiles_dir -->
<g id="node13" class="node"><title>shapefiles_dir</title>
<path fill="#ffffcc" stroke="black" d="M622,-554.5C622,-554.5 896,-554.5 896,-554.5 902,-554.5 908,-560.5 908,-566.5 908,-566.5 908,-588.5 908,-588.5 908,-594.5 902,-600.5 896,-600.5 896,-600.5 622,-600.5 622,-600.5 616,-600.5 610,-594.5 610,-588.5 610,-588.5 610,-566.5 610,-566.5 610,-560.5 616,-554.5 622,-554.5"/>
<text text-anchor="middle" x="759" y="-585.3" font-family="Helvetica,sans-Serif" font-size="14.00">shapefiles_dir</text>
<polyline fill="none" stroke="black" points="610,-577.5 908,-577.5 "/>
<text text-anchor="middle" x="759" y="-562.3" font-family="Helvetica,sans-Serif" font-size="14.00">file:data/{study_region}/{study_region}_tracts</text>
</g>
<!-- uncompress_shapefile&#45;&gt;shapefiles_dir -->
<g id="edge6" class="edge"><title>uncompress_shapefile&#45;&gt;shapefiles_dir</title>
<path fill="none" stroke="black" d="M892.721,-637.366C869.801,-627.277 842.498,-615.257 818.556,-604.718"/>
<polygon fill="black" stroke="black" points="819.781,-601.433 809.218,-600.607 816.96,-607.839 819.781,-601.433"/>
</g>
<!-- layer_tracts -->
<g id="node17" class="node"><title>layer_tracts</title>
<path fill="#fcfcfc" stroke="black" d="M1003.5,-595.5C1003.5,-595.5 938.5,-595.5 938.5,-595.5 932.5,-595.5 926.5,-589.5 926.5,-583.5 926.5,-583.5 926.5,-571.5 926.5,-571.5 926.5,-565.5 932.5,-559.5 938.5,-559.5 938.5,-559.5 1003.5,-559.5 1003.5,-559.5 1009.5,-559.5 1015.5,-565.5 1015.5,-571.5 1015.5,-571.5 1015.5,-583.5 1015.5,-583.5 1015.5,-589.5 1009.5,-595.5 1003.5,-595.5"/>
<text text-anchor="middle" x="971" y="-573.8" font-family="Helvetica,sans-Serif" font-size="14.00">layer_tracts</text>
</g>
<!-- uncompress_shapefile&#45;&gt;layer_tracts -->
<g id="edge8" class="edge"><title>uncompress_shapefile&#45;&gt;layer_tracts</title>
<path fill="none" stroke="black" d="M950.651,-637.366C954.087,-627.427 958.17,-615.616 961.773,-605.191"/>
<polygon fill="black" stroke="black" points="965.086,-606.322 965.045,-595.728 958.47,-604.035 965.086,-606.322"/>
</g>
<!-- metadata_xml_file -->
<g id="node18" class="node"><title>metadata_xml_file</title>
<path fill="#fcfcfc" stroke="black" d="M1154,-595.5C1154,-595.5 1046,-595.5 1046,-595.5 1040,-595.5 1034,-589.5 1034,-583.5 1034,-583.5 1034,-571.5 1034,-571.5 1034,-565.5 1040,-559.5 1046,-559.5 1046,-559.5 1154,-559.5 1154,-559.5 1160,-559.5 1166,-565.5 1166,-571.5 1166,-571.5 1166,-583.5 1166,-583.5 1166,-589.5 1160,-595.5 1154,-595.5"/>
<text text-anchor="middle" x="1100" y="-573.8" font-family="Helvetica,sans-Serif" font-size="14.00">metadata_xml_file</text>
</g>
<!-- uncompress_shapefile&#45;&gt;metadata_xml_file -->
<g id="edge9" class="edge"><title>uncompress_shapefile&#45;&gt;metadata_xml_file</title>
<path fill="none" stroke="black" d="M985.901,-637.366C1008.32,-625.798 1035.66,-611.693 1057.96,-600.19"/>
<polygon fill="black" stroke="black" points="1059.58,-603.293 1066.86,-595.598 1056.37,-597.072 1059.58,-603.293"/>
</g>
<!-- tracts_xml_file -->
<g id="node19" class="node"><title>tracts_xml_file</title>
<path fill="#fcfcfc" stroke="black" d="M1280,-595.5C1280,-595.5 1196,-595.5 1196,-595.5 1190,-595.5 1184,-589.5 1184,-583.5 1184,-583.5 1184,-571.5 1184,-571.5 1184,-565.5 1190,-559.5 1196,-559.5 1196,-559.5 1280,-559.5 1280,-559.5 1286,-559.5 1292,-565.5 1292,-571.5 1292,-571.5 1292,-583.5 1292,-583.5 1292,-589.5 1286,-595.5 1280,-595.5"/>
<text text-anchor="middle" x="1238" y="-573.8" font-family="Helvetica,sans-Serif" font-size="14.00">tracts_xml_file</text>
</g>
<!-- uncompress_shapefile&#45;&gt;tracts_xml_file -->
<g id="edge10" class="edge"><title>uncompress_shapefile&#45;&gt;tracts_xml_file</title>
<path fill="none" stroke="black" d="M1038.95,-637.497C1080.96,-627.3 1130.69,-614.466 1175,-601 1177.3,-600.302 1179.63,-599.57 1181.99,-598.814"/>
<polygon fill="black" stroke="black" points="1183.32,-602.059 1191.72,-595.597 1181.13,-595.413 1183.32,-602.059"/>
</g>
<!-- read_shapefile -->
<g id="node4" class="node"><title>read_shapefile</title>
<polygon fill="#ccffcc" stroke="black" points="533,-471.5 533,-517.5 985,-517.5 985,-471.5 533,-471.5"/>
<text text-anchor="middle" x="759" y="-502.3" font-family="Helvetica,sans-Serif" font-size="14.00">read_shapefile</text>
<polyline fill="none" stroke="black" points="533,-494.5 985,-494.5 "/>
<text text-anchor="middle" x="759" y="-479.3" font-family="Helvetica,sans-Serif" font-size="14.00">read the shapefile for the region and save it as a spatial vector object.</text>
</g>
<!-- dataframe -->
<g id="node14" class="node"><title>dataframe</title>
<path fill="#ffffcc" stroke="black" d="M961,-435C961,-435 905,-435 905,-435 899,-435 893,-429 893,-423 893,-423 893,-411 893,-411 893,-405 899,-399 905,-399 905,-399 961,-399 961,-399 967,-399 973,-405 973,-411 973,-411 973,-423 973,-423 973,-429 967,-435 961,-435"/>
<text text-anchor="middle" x="933" y="-413.3" font-family="Helvetica,sans-Serif" font-size="14.00">dataframe</text>
</g>
<!-- read_shapefile&#45;&gt;dataframe -->
<g id="edge13" class="edge"><title>read_shapefile&#45;&gt;dataframe</title>
<path fill="none" stroke="black" d="M809.796,-471.459C833.335,-461.245 861.178,-449.164 884.435,-439.073"/>
<polygon fill="black" stroke="black" points="885.983,-442.216 893.764,-435.025 883.197,-435.795 885.983,-442.216"/>
</g>
<!-- get_treepolygon -->
<g id="node5" class="node"><title>get_treepolygon</title>
<polygon fill="#ccffcc" stroke="black" points="669.5,-316.5 669.5,-362.5 1094.5,-362.5 1094.5,-316.5 669.5,-316.5"/>
<text text-anchor="middle" x="882" y="-347.3" font-family="Helvetica,sans-Serif" font-size="14.00">get_treepolygon</text>
<polyline fill="none" stroke="black" points="669.5,-339.5 1094.5,-339.5 "/>
<text text-anchor="middle" x="882" y="-324.3" font-family="Helvetica,sans-Serif" font-size="14.00">Get Tree&#45;ring data from the ITRDB for tree_buffer around GRCA</text>
</g>
<!-- treepolygon -->
<g id="node15" class="node"><title>treepolygon</title>
<path fill="#ffffcc" stroke="black" d="M1030,-280C1030,-280 962,-280 962,-280 956,-280 950,-274 950,-268 950,-268 950,-256 950,-256 950,-250 956,-244 962,-244 962,-244 1030,-244 1030,-244 1036,-244 1042,-250 1042,-256 1042,-256 1042,-268 1042,-268 1042,-274 1036,-280 1030,-280"/>
<text text-anchor="middle" x="996" y="-258.3" font-family="Helvetica,sans-Serif" font-size="14.00">treepolygon</text>
</g>
<!-- get_treepolygon&#45;&gt;treepolygon -->
<g id="edge16" class="edge"><title>get_treepolygon&#45;&gt;treepolygon</title>
<path fill="none" stroke="black" d="M915.28,-316.459C929.893,-306.781 947.039,-295.426 961.76,-285.676"/>
<polygon fill="black" stroke="black" points="963.706,-288.586 970.11,-280.146 959.841,-282.75 963.706,-288.586"/>
</g>
<!-- extract_tree_ring_data -->
<g id="node6" class="node"><title>extract_tree_ring_data</title>
<polygon fill="#ccffcc" stroke="black" points="485,-161.5 485,-207.5 973,-207.5 973,-161.5 485,-161.5"/>
<text text-anchor="middle" x="729" y="-192.3" font-family="Helvetica,sans-Serif" font-size="14.00">extract_tree_ring_data</text>
<polyline fill="none" stroke="black" points="485,-184.5 973,-184.5 "/>
<text text-anchor="middle" x="729" y="-169.3" font-family="Helvetica,sans-Serif" font-size="14.00">get all the tree ring chronologies and extract the values for the study region.</text>
</g>
<!-- itrdb -->
<g id="node7" class="node"><title>itrdb</title>
<path fill="#ffffcc" stroke="black" d="M680,-78.5C680,-78.5 778,-78.5 778,-78.5 784,-78.5 790,-84.5 790,-90.5 790,-90.5 790,-112.5 790,-112.5 790,-118.5 784,-124.5 778,-124.5 778,-124.5 680,-124.5 680,-124.5 674,-124.5 668,-118.5 668,-112.5 668,-112.5 668,-90.5 668,-90.5 668,-84.5 674,-78.5 680,-78.5"/>
<text text-anchor="middle" x="729" y="-109.3" font-family="Helvetica,sans-Serif" font-size="14.00">itrdb</text>
<polyline fill="none" stroke="black" points="668,-101.5 790,-101.5 "/>
<text text-anchor="middle" x="729" y="-86.3" font-family="Helvetica,sans-Serif" font-size="14.00">file:data/itrdb.rda</text>
</g>
<!-- extract_tree_ring_data&#45;&gt;itrdb -->
<g id="edge20" class="edge"><title>extract_tree_ring_data&#45;&gt;itrdb</title>
<path fill="none" stroke="black" d="M729,-161.366C729,-153.152 729,-143.658 729,-134.725"/>
<polygon fill="black" stroke="black" points="732.5,-134.607 729,-124.607 725.5,-134.607 732.5,-134.607"/>
</g>
<!-- itrdb_output_port -->
<g id="node32" class="node"><title>itrdb_output_port</title>
<ellipse fill="#ffffff" stroke="black" cx="729" cy="-31" rx="7" ry="7"/>
</g>
<!-- itrdb&#45;&gt;itrdb_output_port -->
<g id="edge33" class="edge"><title>itrdb&#45;&gt;itrdb_output_port</title>
<path fill="none" stroke="black" d="M729,-78.4491C729,-68.6592 729,-57.3397 729,-48.3261"/>
<polygon fill="black" stroke="black" points="732.5,-48.1278 729,-38.1279 725.5,-48.1279 732.5,-48.1278"/>
</g>
<!-- study_region -->
<g id="node8" class="node"><title>study_region</title>
<path fill="#ffffcc" stroke="black" d="M862,-1088C862,-1088 788,-1088 788,-1088 782,-1088 776,-1082 776,-1076 776,-1076 776,-1064 776,-1064 776,-1058 782,-1052 788,-1052 788,-1052 862,-1052 862,-1052 868,-1052 874,-1058 874,-1064 874,-1064 874,-1076 874,-1076 874,-1082 868,-1088 862,-1088"/>
<text text-anchor="middle" x="825" y="-1066.3" font-family="Helvetica,sans-Serif" font-size="14.00">study_region</text>
</g>
<!-- study_region&#45;&gt;create_shapefile_dir -->
<g id="edge2" class="edge"><title>study_region&#45;&gt;create_shapefile_dir</title>
<path fill="none" stroke="black" d="M804.805,-1051.87C794.554,-1043.17 781.821,-1032.37 770.106,-1022.43"/>
<polygon fill="black" stroke="black" points="772.091,-1019.53 762.201,-1015.73 767.563,-1024.86 772.091,-1019.53"/>
</g>
<!-- shapefile_archive -->
<g id="node9" class="node"><title>shapefile_archive</title>
<path fill="#ffffcc" stroke="black" d="M822,-886.5C822,-886.5 1208,-886.5 1208,-886.5 1214,-886.5 1220,-892.5 1220,-898.5 1220,-898.5 1220,-920.5 1220,-920.5 1220,-926.5 1214,-932.5 1208,-932.5 1208,-932.5 822,-932.5 822,-932.5 816,-932.5 810,-926.5 810,-920.5 810,-920.5 810,-898.5 810,-898.5 810,-892.5 816,-886.5 822,-886.5"/>
<text text-anchor="middle" x="1015" y="-917.3" font-family="Helvetica,sans-Serif" font-size="14.00">shapefile_archive</text>
<polyline fill="none" stroke="black" points="810,-909.5 1220,-909.5 "/>
<text text-anchor="middle" x="1015" y="-894.3" font-family="Helvetica,sans-Serif" font-size="14.00">http://nrdata.nps.gov/programs/Lands/{study_region}_tracts.zip</text>
</g>
<!-- shapefile_archive&#45;&gt;download_shapefile_archive -->
<g id="edge4" class="edge"><title>shapefile_archive&#45;&gt;download_shapefile_archive</title>
<path fill="none" stroke="black" d="M995.326,-886.366C987.309,-877.348 977.923,-866.788 969.33,-857.121"/>
<polygon fill="black" stroke="black" points="971.91,-854.756 962.651,-849.607 966.678,-859.406 971.91,-854.756"/>
</g>
<!-- user_created_dir&#45;&gt;download_shapefile_archive -->
<g id="edge5" class="edge"><title>user_created_dir&#45;&gt;download_shapefile_archive</title>
<path fill="none" stroke="black" d="M774.089,-886.473C803.752,-876.117 839.291,-863.709 870.1,-852.952"/>
<polygon fill="black" stroke="black" points="871.637,-856.123 879.924,-849.522 869.329,-849.514 871.637,-856.123"/>
</g>
<!-- user_created_dir&#45;&gt;uncompress_shapefile -->
<g id="edge12" class="edge"><title>user_created_dir&#45;&gt;uncompress_shapefile</title>
<path fill="none" stroke="black" d="M630.247,-887.265C612.391,-878.664 595.64,-866.671 585,-850 573.762,-832.392 573.579,-820.49 585,-803 625.746,-740.605 698.916,-705.719 768.534,-686.216"/>
<polygon fill="black" stroke="black" points="769.592,-689.556 778.33,-683.565 767.763,-682.799 769.592,-689.556"/>
</g>
<!-- compressed_shapefile&#45;&gt;uncompress_shapefile -->
<g id="edge11" class="edge"><title>compressed_shapefile&#45;&gt;uncompress_shapefile</title>
<path fill="none" stroke="black" d="M943,-720.366C943,-712.152 943,-702.658 943,-693.725"/>
<polygon fill="black" stroke="black" points="946.5,-693.607 943,-683.607 939.5,-693.607 946.5,-693.607"/>
</g>
<!-- layer_boundary&#45;&gt;read_shapefile -->
<g id="edge14" class="edge"><title>layer_boundary&#45;&gt;read_shapefile</title>
<path fill="none" stroke="black" d="M430.642,-554.473C491.178,-543.601 564.3,-530.468 626.16,-519.358"/>
<polygon fill="black" stroke="black" points="627.159,-522.735 636.382,-517.522 625.921,-515.845 627.159,-522.735"/>
</g>
<!-- shapefiles_dir&#45;&gt;read_shapefile -->
<g id="edge15" class="edge"><title>shapefiles_dir&#45;&gt;read_shapefile</title>
<path fill="none" stroke="black" d="M759,-554.366C759,-546.152 759,-536.658 759,-527.725"/>
<polygon fill="black" stroke="black" points="762.5,-527.607 759,-517.607 755.5,-527.607 762.5,-527.607"/>
</g>
<!-- dataframe&#45;&gt;get_treepolygon -->
<g id="edge18" class="edge"><title>dataframe&#45;&gt;get_treepolygon</title>
<path fill="none" stroke="black" d="M921.427,-398.868C915.892,-390.674 909.094,-380.61 902.711,-371.16"/>
<polygon fill="black" stroke="black" points="905.512,-369.054 897.014,-362.727 899.711,-372.972 905.512,-369.054"/>
</g>
<!-- treepolygon&#45;&gt;extract_tree_ring_data -->
<g id="edge21" class="edge"><title>treepolygon&#45;&gt;extract_tree_ring_data</title>
<path fill="none" stroke="black" d="M949.817,-246.613C946.836,-245.719 943.878,-244.842 941,-244 901.809,-232.539 858.365,-220.445 821.061,-210.246"/>
<polygon fill="black" stroke="black" points="821.784,-206.815 811.215,-207.559 819.941,-213.568 821.784,-206.815"/>
</g>
<!-- prediction_years -->
<g id="node16" class="node"><title>prediction_years</title>
<path fill="#ffffcc" stroke="black" d="M1225,-280C1225,-280 1127,-280 1127,-280 1121,-280 1115,-274 1115,-268 1115,-268 1115,-256 1115,-256 1115,-250 1121,-244 1127,-244 1127,-244 1225,-244 1225,-244 1231,-244 1237,-250 1237,-256 1237,-256 1237,-268 1237,-268 1237,-274 1231,-280 1225,-280"/>
<text text-anchor="middle" x="1176" y="-258.3" font-family="Helvetica,sans-Serif" font-size="14.00">prediction_years</text>
</g>
<!-- prediction_years&#45;&gt;extract_tree_ring_data -->
<g id="edge25" class="edge"><title>prediction_years&#45;&gt;extract_tree_ring_data</title>
<path fill="none" stroke="black" d="M1114.78,-250.66C1051.94,-240.046 951.966,-223.16 869.535,-209.237"/>
<polygon fill="black" stroke="black" points="870.017,-205.769 859.574,-207.554 868.851,-212.671 870.017,-205.769"/>
</g>
<!-- tree_buffer -->
<g id="node20" class="node"><title>tree_buffer</title>
<path fill="#fcfcfc" stroke="black" d="M862.5,-435C862.5,-435 799.5,-435 799.5,-435 793.5,-435 787.5,-429 787.5,-423 787.5,-423 787.5,-411 787.5,-411 787.5,-405 793.5,-399 799.5,-399 799.5,-399 862.5,-399 862.5,-399 868.5,-399 874.5,-405 874.5,-411 874.5,-411 874.5,-423 874.5,-423 874.5,-429 868.5,-435 862.5,-435"/>
<text text-anchor="middle" x="831" y="-413.3" font-family="Helvetica,sans-Serif" font-size="14.00">tree_buffer</text>
</g>
<!-- tree_buffer&#45;&gt;get_treepolygon -->
<g id="edge17" class="edge"><title>tree_buffer&#45;&gt;get_treepolygon</title>
<path fill="none" stroke="black" d="M842.573,-398.868C848.108,-390.674 854.906,-380.61 861.289,-371.16"/>
<polygon fill="black" stroke="black" points="864.289,-372.972 866.986,-362.727 858.488,-369.054 864.289,-372.972"/>
</g>
<!-- segments_approx_quarter_circle -->
<g id="node21" class="node"><title>segments_approx_quarter_circle</title>
<path fill="#fcfcfc" stroke="black" d="M757,-435C757,-435 555,-435 555,-435 549,-435 543,-429 543,-423 543,-423 543,-411 543,-411 543,-405 549,-399 555,-399 555,-399 757,-399 757,-399 763,-399 769,-405 769,-411 769,-411 769,-423 769,-423 769,-429 763,-435 757,-435"/>
<text text-anchor="middle" x="656" y="-413.3" font-family="Helvetica,sans-Serif" font-size="14.00">segments_approx_quarter_circle</text>
</g>
<!-- segments_approx_quarter_circle&#45;&gt;get_treepolygon -->
<g id="edge19" class="edge"><title>segments_approx_quarter_circle&#45;&gt;get_treepolygon</title>
<path fill="none" stroke="black" d="M707.001,-398.962C736.268,-389.185 773.572,-376.723 806.213,-365.818"/>
<polygon fill="black" stroke="black" points="807.355,-369.127 815.731,-362.639 805.137,-362.488 807.355,-369.127"/>
</g>
<!-- label -->
<g id="node22" class="node"><title>label</title>
<path fill="#fcfcfc" stroke="black" d="M920,-280C920,-280 890,-280 890,-280 884,-280 878,-274 878,-268 878,-268 878,-256 878,-256 878,-250 884,-244 890,-244 890,-244 920,-244 920,-244 926,-244 932,-250 932,-256 932,-256 932,-268 932,-268 932,-274 926,-280 920,-280"/>
<text text-anchor="middle" x="905" y="-258.3" font-family="Helvetica,sans-Serif" font-size="14.00">label</text>
</g>
<!-- label&#45;&gt;extract_tree_ring_data -->
<g id="edge22" class="edge"><title>label&#45;&gt;extract_tree_ring_data</title>
<path fill="none" stroke="black" d="M877.934,-248.058C874.928,-246.669 871.905,-245.292 869,-244 844.246,-232.99 816.785,-221.385 792.788,-211.439"/>
<polygon fill="black" stroke="black" points="794.008,-208.156 783.429,-207.572 791.335,-214.626 794.008,-208.156"/>
</g>
<!-- raw_dir -->
<g id="node23" class="node"><title>raw_dir</title>
<path fill="#fcfcfc" stroke="black" d="M848,-280C848,-280 810,-280 810,-280 804,-280 798,-274 798,-268 798,-268 798,-256 798,-256 798,-250 804,-244 810,-244 810,-244 848,-244 848,-244 854,-244 860,-250 860,-256 860,-256 860,-268 860,-268 860,-274 854,-280 848,-280"/>
<text text-anchor="middle" x="829" y="-258.3" font-family="Helvetica,sans-Serif" font-size="14.00">raw_dir</text>
</g>
<!-- raw_dir&#45;&gt;extract_tree_ring_data -->
<g id="edge23" class="edge"><title>raw_dir&#45;&gt;extract_tree_ring_data</title>
<path fill="none" stroke="black" d="M806.308,-243.868C794.569,-235.005 779.933,-223.954 766.563,-213.86"/>
<polygon fill="black" stroke="black" points="768.529,-210.959 758.439,-207.727 764.311,-216.545 768.529,-210.959"/>
</g>
<!-- extraction_dir -->
<g id="node24" class="node"><title>extraction_dir</title>
<path fill="#fcfcfc" stroke="black" d="M767.5,-280C767.5,-280 690.5,-280 690.5,-280 684.5,-280 678.5,-274 678.5,-268 678.5,-268 678.5,-256 678.5,-256 678.5,-250 684.5,-244 690.5,-244 690.5,-244 767.5,-244 767.5,-244 773.5,-244 779.5,-250 779.5,-256 779.5,-256 779.5,-268 779.5,-268 779.5,-274 773.5,-280 767.5,-280"/>
<text text-anchor="middle" x="729" y="-258.3" font-family="Helvetica,sans-Serif" font-size="14.00">extraction_dir</text>
</g>
<!-- extraction_dir&#45;&gt;extract_tree_ring_data -->
<g id="edge24" class="edge"><title>extraction_dir&#45;&gt;extract_tree_ring_data</title>
<path fill="none" stroke="black" d="M729,-243.868C729,-236.175 729,-226.835 729,-217.902"/>
<polygon fill="black" stroke="black" points="732.5,-217.727 729,-207.727 725.5,-217.727 732.5,-217.727"/>
</g>
<!-- calibration_years -->
<g id="node25" class="node"><title>calibration_years</title>
<path fill="#fcfcfc" stroke="black" d="M648.5,-280C648.5,-280 549.5,-280 549.5,-280 543.5,-280 537.5,-274 537.5,-268 537.5,-268 537.5,-256 537.5,-256 537.5,-250 543.5,-244 549.5,-244 549.5,-244 648.5,-244 648.5,-244 654.5,-244 660.5,-250 660.5,-256 660.5,-256 660.5,-268 660.5,-268 660.5,-274 654.5,-280 648.5,-280"/>
<text text-anchor="middle" x="599" y="-258.3" font-family="Helvetica,sans-Serif" font-size="14.00">calibration_years</text>
</g>
<!-- calibration_years&#45;&gt;extract_tree_ring_data -->
<g id="edge26" class="edge"><title>calibration_years&#45;&gt;extract_tree_ring_data</title>
<path fill="none" stroke="black" d="M628.499,-243.868C644.192,-234.754 663.868,-223.327 681.64,-213.005"/>
<polygon fill="black" stroke="black" points="683.839,-215.775 690.729,-207.727 680.324,-209.722 683.839,-215.775"/>
</g>
<!-- measurement_type -->
<g id="node26" class="node"><title>measurement_type</title>
<path fill="#fcfcfc" stroke="black" d="M507.5,-280C507.5,-280 392.5,-280 392.5,-280 386.5,-280 380.5,-274 380.5,-268 380.5,-268 380.5,-256 380.5,-256 380.5,-250 386.5,-244 392.5,-244 392.5,-244 507.5,-244 507.5,-244 513.5,-244 519.5,-250 519.5,-256 519.5,-256 519.5,-268 519.5,-268 519.5,-274 513.5,-280 507.5,-280"/>
<text text-anchor="middle" x="450" y="-258.3" font-family="Helvetica,sans-Serif" font-size="14.00">measurement_type</text>
</g>
<!-- measurement_type&#45;&gt;extract_tree_ring_data -->
<g id="edge27" class="edge"><title>measurement_type&#45;&gt;extract_tree_ring_data</title>
<path fill="none" stroke="black" d="M512.961,-243.962C549.787,-233.997 596.919,-221.242 637.758,-210.191"/>
<polygon fill="black" stroke="black" points="638.712,-213.559 647.45,-207.568 636.883,-206.802 638.712,-213.559"/>
</g>
<!-- chronology_type -->
<g id="node27" class="node"><title>chronology_type</title>
<path fill="#fcfcfc" stroke="black" d="M350,-280C350,-280 252,-280 252,-280 246,-280 240,-274 240,-268 240,-268 240,-256 240,-256 240,-250 246,-244 252,-244 252,-244 350,-244 350,-244 356,-244 362,-250 362,-256 362,-256 362,-268 362,-268 362,-274 356,-280 350,-280"/>
<text text-anchor="middle" x="301" y="-258.3" font-family="Helvetica,sans-Serif" font-size="14.00">chronology_type</text>
</g>
<!-- chronology_type&#45;&gt;extract_tree_ring_data -->
<g id="edge28" class="edge"><title>chronology_type&#45;&gt;extract_tree_ring_data</title>
<path fill="none" stroke="black" d="M362.022,-245.89C365.053,-245.231 368.058,-244.597 371,-244 435.166,-230.986 506.257,-218.894 568.067,-209.121"/>
<polygon fill="black" stroke="black" points="568.966,-212.523 578.3,-207.511 567.878,-205.608 568.966,-212.523"/>
</g>
<!-- force_redo -->
<g id="node28" class="node"><title>force_redo</title>
<path fill="#fcfcfc" stroke="black" d="M209.5,-280C209.5,-280 146.5,-280 146.5,-280 140.5,-280 134.5,-274 134.5,-268 134.5,-268 134.5,-256 134.5,-256 134.5,-250 140.5,-244 146.5,-244 146.5,-244 209.5,-244 209.5,-244 215.5,-244 221.5,-250 221.5,-256 221.5,-256 221.5,-268 221.5,-268 221.5,-274 215.5,-280 209.5,-280"/>
<text text-anchor="middle" x="178" y="-258.3" font-family="Helvetica,sans-Serif" font-size="14.00">force_redo</text>
</g>
<!-- force_redo&#45;&gt;extract_tree_ring_data -->
<g id="edge29" class="edge"><title>force_redo&#45;&gt;extract_tree_ring_data</title>
<path fill="none" stroke="black" d="M221.782,-246.236C224.884,-245.413 227.978,-244.656 231,-244 309.525,-226.962 396.164,-214.606 474.859,-205.769"/>
<polygon fill="black" stroke="black" points="475.358,-209.236 484.912,-204.655 474.587,-202.278 475.358,-209.236"/>
</g>
<!-- shapefile_archive_input_port -->
<g id="node29" class="node"><title>shapefile_archive_input_port</title>
<ellipse fill="#ffffff" stroke="black" cx="1015" cy="-1135" rx="7" ry="7"/>
</g>
<!-- shapefile_archive_input_port&#45;&gt;shapefile_archive -->
<g id="edge30" class="edge"><title>shapefile_archive_input_port&#45;&gt;shapefile_archive</title>
<path fill="none" stroke="black" d="M1015,-1127.55C1015,-1100.65 1015,-996.233 1015,-942.638"/>
<polygon fill="black" stroke="black" points="1018.5,-942.635 1015,-932.635 1011.5,-942.635 1018.5,-942.635"/>
</g>
<!-- study_region_input_port -->
<g id="node30" class="node"><title>study_region_input_port</title>
<ellipse fill="#ffffff" stroke="black" cx="983" cy="-1135" rx="7" ry="7"/>
</g>
<!-- study_region_input_port&#45;&gt;study_region -->
<g id="edge31" class="edge"><title>study_region_input_port&#45;&gt;study_region</title>
<path fill="none" stroke="black" d="M976.611,-1131.45C960.022,-1124.84 914.307,-1106.61 877.379,-1091.89"/>
<polygon fill="black" stroke="black" points="878.302,-1088.49 867.716,-1088.03 875.709,-1094.99 878.302,-1088.49"/>
</g>
<!-- prediction_years_input_port -->
<g id="node31" class="node"><title>prediction_years_input_port</title>
<ellipse fill="#ffffff" stroke="black" cx="1047" cy="-1135" rx="7" ry="7"/>
</g>
<!-- prediction_years_input_port&#45;&gt;prediction_years -->
<g id="edge32" class="edge"><title>prediction_years_input_port&#45;&gt;prediction_years</title>
<path fill="none" stroke="black" d="M1054.02,-1133.78C1096.75,-1132.01 1320,-1116.9 1320,-993.5 1320,-993.5 1320,-993.5 1320,-416 1320,-356.404 1261.35,-310.56 1218.91,-285.188"/>
<polygon fill="black" stroke="black" points="1220.53,-282.082 1210.13,-280.087 1217.02,-288.136 1220.53,-282.082"/>
</g>
</g>
</svg>
