<?xml version="1.0" encoding="UTF-8" standalone="no"?>
<!DOCTYPE svg PUBLIC "-//W3C//DTD SVG 1.1//EN"
 "http://www.w3.org/Graphics/SVG/1.1/DTD/svg11.dtd">
<!-- Generated by graphviz version 2.38.0 (20140413.2041)
 -->
<!-- Title: Workflow Pages: 1 -->
<svg width="2292pt" height="726pt"
 viewBox="0.00 0.00 2292.00 726.00" xmlns="http://www.w3.org/2000/svg" xmlns:xlink="http://www.w3.org/1999/xlink">
<g id="graph0" class="graph" transform="scale(1 1) rotate(0) translate(4 722)">
<title>Workflow</title>
<polygon fill="white" stroke="none" points="-4,4 -4,-722 2288,-722 2288,4 -4,4"/>
<text text-anchor="middle" x="1142" y="-699.6" font-family="Helvetica,sans-Serif" font-size="18.00">paleocar_web&#45;app_data_flow</text>
<g id="clust1" class="cluster"><title>cluster_workflow_box_outer</title>
<polygon fill="none" stroke="black" stroke-width="2" points="8,-62 8,-628 2276,-628 2276,-62 8,-62"/>
</g>
<g id="clust2" class="cluster"><title>cluster_workflow_box_inner</title>
<polygon fill="none" stroke="black" stroke-width="0" points="16,-70 16,-620 2268,-620 2268,-70 16,-70"/>
</g>
<g id="clust5" class="cluster"><title>cluster_output_ports_group_outer</title>
<polygon fill="none" stroke="black" stroke-width="0" points="1024,-8 1024,-54 1230,-54 1230,-8 1024,-8"/>
</g>
<g id="clust6" class="cluster"><title>cluster_output_ports_group_inner</title>
<polygon fill="none" stroke="black" stroke-width="0" points="1032,-16 1032,-46 1222,-46 1222,-16 1032,-16"/>
</g>
<g id="clust3" class="cluster"><title>cluster_input_ports_group_outer</title>
<polygon fill="none" stroke="black" stroke-width="0" points="1135,-636 1135,-682 1405,-682 1405,-636 1135,-636"/>
</g>
<g id="clust4" class="cluster"><title>cluster_input_ports_group_inner</title>
<polygon fill="none" stroke="black" stroke-width="0" points="1143,-644 1143,-674 1397,-674 1397,-644 1143,-644"/>
</g>
<!-- get_client_data -->
<g id="node1" class="node"><title>get_client_data</title>
<polygon fill="#ccffcc" stroke="black" points="644.5,-493.5 644.5,-539.5 1305.5,-539.5 1305.5,-493.5 644.5,-493.5"/>
<text text-anchor="middle" x="975" y="-524.3" font-family="Helvetica,sans-Serif" font-size="14.00">get_client_data</text>
<polyline fill="none" stroke="black" points="644.5,-516.5 1305.5,-516.5 "/>
<text text-anchor="middle" x="975" y="-501.3" font-family="Helvetica,sans-Serif" font-size="14.00">get the data from the user and generate the client side metadata for storing the information of each run.</text>
</g>
<!-- coordinates -->
<g id="node13" class="node"><title>coordinates</title>
<path fill="#ffffcc" stroke="black" d="M1003.5,-451.5C1003.5,-451.5 936.5,-451.5 936.5,-451.5 930.5,-451.5 924.5,-445.5 924.5,-439.5 924.5,-439.5 924.5,-427.5 924.5,-427.5 924.5,-421.5 930.5,-415.5 936.5,-415.5 936.5,-415.5 1003.5,-415.5 1003.5,-415.5 1009.5,-415.5 1015.5,-421.5 1015.5,-427.5 1015.5,-427.5 1015.5,-439.5 1015.5,-439.5 1015.5,-445.5 1009.5,-451.5 1003.5,-451.5"/>
<text text-anchor="middle" x="970" y="-429.8" font-family="Helvetica,sans-Serif" font-size="14.00">coordinates</text>
</g>
<!-- get_client_data&#45;&gt;coordinates -->
<g id="edge3" class="edge"><title>get_client_data&#45;&gt;coordinates</title>
<path fill="none" stroke="black" d="M973.634,-493.366C973.033,-483.632 972.321,-472.102 971.688,-461.838"/>
<polygon fill="black" stroke="black" points="975.173,-461.493 971.063,-451.728 968.186,-461.924 975.173,-461.493"/>
</g>
<!-- session_id -->
<g id="node14" class="node"><title>session_id</title>
<path fill="#ffffcc" stroke="black" d="M798,-451.5C798,-451.5 736,-451.5 736,-451.5 730,-451.5 724,-445.5 724,-439.5 724,-439.5 724,-427.5 724,-427.5 724,-421.5 730,-415.5 736,-415.5 736,-415.5 798,-415.5 798,-415.5 804,-415.5 810,-421.5 810,-427.5 810,-427.5 810,-439.5 810,-439.5 810,-445.5 804,-451.5 798,-451.5"/>
<text text-anchor="middle" x="767" y="-429.8" font-family="Helvetica,sans-Serif" font-size="14.00">session_id</text>
</g>
<!-- get_client_data&#45;&gt;session_id -->
<g id="edge1" class="edge"><title>get_client_data&#45;&gt;session_id</title>
<path fill="none" stroke="black" d="M917.18,-493.475C888.771,-482.595 854.05,-469.212 823,-457 821.598,-456.449 820.178,-455.888 818.744,-455.322"/>
<polygon fill="black" stroke="black" points="819.757,-451.958 809.171,-451.52 817.173,-458.464 819.757,-451.958"/>
</g>
<!-- run_id -->
<g id="node15" class="node"><title>run_id</title>
<path fill="#ffffcc" stroke="black" d="M876,-451.5C876,-451.5 844,-451.5 844,-451.5 838,-451.5 832,-445.5 832,-439.5 832,-439.5 832,-427.5 832,-427.5 832,-421.5 838,-415.5 844,-415.5 844,-415.5 876,-415.5 876,-415.5 882,-415.5 888,-421.5 888,-427.5 888,-427.5 888,-439.5 888,-439.5 888,-445.5 882,-451.5 876,-451.5"/>
<text text-anchor="middle" x="860" y="-429.8" font-family="Helvetica,sans-Serif" font-size="14.00">run_id</text>
</g>
<!-- get_client_data&#45;&gt;run_id -->
<g id="edge2" class="edge"><title>get_client_data&#45;&gt;run_id</title>
<path fill="none" stroke="black" d="M943.576,-493.366C927.864,-482.3 908.858,-468.913 892.942,-457.703"/>
<polygon fill="black" stroke="black" points="894.65,-454.625 884.459,-451.728 890.619,-460.348 894.65,-454.625"/>
</g>
<!-- prediction_years -->
<g id="node17" class="node"><title>prediction_years</title>
<path fill="#ffffcc" stroke="black" d="M1294,-368.5C1294,-368.5 1196,-368.5 1196,-368.5 1190,-368.5 1184,-362.5 1184,-356.5 1184,-356.5 1184,-344.5 1184,-344.5 1184,-338.5 1190,-332.5 1196,-332.5 1196,-332.5 1294,-332.5 1294,-332.5 1300,-332.5 1306,-338.5 1306,-344.5 1306,-344.5 1306,-356.5 1306,-356.5 1306,-362.5 1300,-368.5 1294,-368.5"/>
<text text-anchor="middle" x="1245" y="-346.8" font-family="Helvetica,sans-Serif" font-size="14.00">prediction_years</text>
</g>
<!-- get_client_data&#45;&gt;prediction_years -->
<g id="edge4" class="edge"><title>get_client_data&#45;&gt;prediction_years</title>
<path fill="none" stroke="black" d="M1011.41,-493.382C1062.88,-462.123 1156.37,-405.334 1208.1,-373.914"/>
<polygon fill="black" stroke="black" points="1210.22,-376.723 1216.95,-368.54 1206.58,-370.74 1210.22,-376.723"/>
</g>
<!-- acccess_static_server_files -->
<g id="node2" class="node"><title>acccess_static_server_files</title>
<polygon fill="#ccffcc" stroke="black" points="118,-493.5 118,-539.5 626,-539.5 626,-493.5 118,-493.5"/>
<text text-anchor="middle" x="372" y="-524.3" font-family="Helvetica,sans-Serif" font-size="14.00">acccess_static_server_files</text>
<polyline fill="none" stroke="black" points="118,-516.5 626,-516.5 "/>
<text text-anchor="middle" x="372" y="-501.3" font-family="Helvetica,sans-Serif" font-size="14.00">the static files available and required for execution of PaleoCAR on the server.</text>
</g>
<!-- prism_data -->
<g id="node16" class="node"><title>prism_data</title>
<path fill="#ffffcc" stroke="black" d="M435,-410.5C435,-410.5 565,-410.5 565,-410.5 571,-410.5 577,-416.5 577,-422.5 577,-422.5 577,-444.5 577,-444.5 577,-450.5 571,-456.5 565,-456.5 565,-456.5 435,-456.5 435,-456.5 429,-456.5 423,-450.5 423,-444.5 423,-444.5 423,-422.5 423,-422.5 423,-416.5 429,-410.5 435,-410.5"/>
<text text-anchor="middle" x="500" y="-441.3" font-family="Helvetica,sans-Serif" font-size="14.00">prism_data</text>
<polyline fill="none" stroke="black" points="423,-433.5 577,-433.5 "/>
<text text-anchor="middle" x="500" y="-418.3" font-family="Helvetica,sans-Serif" font-size="14.00">file:data/112W36N.nc</text>
</g>
<!-- acccess_static_server_files&#45;&gt;prism_data -->
<g id="edge7" class="edge"><title>acccess_static_server_files&#45;&gt;prism_data</title>
<path fill="none" stroke="black" d="M406.977,-493.366C422.216,-483.723 440.24,-472.317 456.345,-462.125"/>
<polygon fill="black" stroke="black" points="458.487,-464.912 465.066,-456.607 454.744,-458.997 458.487,-464.912"/>
</g>
<!-- itrdb -->
<g id="node19" class="node"><title>itrdb</title>
<path fill="#ffffcc" stroke="black" d="M222,-327.5C222,-327.5 320,-327.5 320,-327.5 326,-327.5 332,-333.5 332,-339.5 332,-339.5 332,-361.5 332,-361.5 332,-367.5 326,-373.5 320,-373.5 320,-373.5 222,-373.5 222,-373.5 216,-373.5 210,-367.5 210,-361.5 210,-361.5 210,-339.5 210,-339.5 210,-333.5 216,-327.5 222,-327.5"/>
<text text-anchor="middle" x="271" y="-358.3" font-family="Helvetica,sans-Serif" font-size="14.00">itrdb</text>
<polyline fill="none" stroke="black" points="210,-350.5 332,-350.5 "/>
<text text-anchor="middle" x="271" y="-335.3" font-family="Helvetica,sans-Serif" font-size="14.00">file:data/itrdb.rda</text>
</g>
<!-- acccess_static_server_files&#45;&gt;itrdb -->
<g id="edge8" class="edge"><title>acccess_static_server_files&#45;&gt;itrdb</title>
<path fill="none" stroke="black" d="M358.379,-493.382C340.71,-464.692 309.797,-414.496 289.874,-382.147"/>
<polygon fill="black" stroke="black" points="292.791,-380.208 284.566,-373.529 286.83,-383.879 292.791,-380.208"/>
</g>
<!-- extract_prism_data -->
<g id="node3" class="node"><title>extract_prism_data</title>
<polygon fill="#ccffcc" stroke="black" points="350,-327.5 350,-373.5 1166,-373.5 1166,-327.5 350,-327.5"/>
<text text-anchor="middle" x="758" y="-358.3" font-family="Helvetica,sans-Serif" font-size="14.00">extract_prism_data</text>
<polyline fill="none" stroke="black" points="350,-350.5 1166,-350.5 "/>
<text text-anchor="middle" x="758" y="-335.3" font-family="Helvetica,sans-Serif" font-size="14.00">get the prism data file on the server with precipitation values and extract the data for the input coordinates and save as a csv file.</text>
</g>
<!-- prism_data_for_coordinates -->
<g id="node18" class="node"><title>prism_data_for_coordinates</title>
<path fill="#ffffcc" stroke="black" d="M720,-244.5C720,-244.5 1006,-244.5 1006,-244.5 1012,-244.5 1018,-250.5 1018,-256.5 1018,-256.5 1018,-278.5 1018,-278.5 1018,-284.5 1012,-290.5 1006,-290.5 1006,-290.5 720,-290.5 720,-290.5 714,-290.5 708,-284.5 708,-278.5 708,-278.5 708,-256.5 708,-256.5 708,-250.5 714,-244.5 720,-244.5"/>
<text text-anchor="middle" x="863" y="-275.3" font-family="Helvetica,sans-Serif" font-size="14.00">prism_data_for_coordinates</text>
<polyline fill="none" stroke="black" points="708,-267.5 1018,-267.5 "/>
<text text-anchor="middle" x="863" y="-252.3" font-family="Helvetica,sans-Serif" font-size="14.00">file:.output/{session_id}/{run_id}/112W36N.csv</text>
</g>
<!-- extract_prism_data&#45;&gt;prism_data_for_coordinates -->
<g id="edge11" class="edge"><title>extract_prism_data&#45;&gt;prism_data_for_coordinates</title>
<path fill="none" stroke="black" d="M786.692,-327.366C798.845,-317.991 813.158,-306.949 826.085,-296.977"/>
<polygon fill="black" stroke="black" points="828.563,-299.486 834.343,-290.607 824.287,-293.944 828.563,-299.486"/>
</g>
<!-- exec_paleocar -->
<g id="node4" class="node"><title>exec_paleocar</title>
<polygon fill="#ccffcc" stroke="black" points="720.5,-161.5 720.5,-207.5 1727.5,-207.5 1727.5,-161.5 720.5,-161.5"/>
<text text-anchor="middle" x="1224" y="-192.3" font-family="Helvetica,sans-Serif" font-size="14.00">exec_paleocar</text>
<polyline fill="none" stroke="black" points="720.5,-184.5 1727.5,-184.5 "/>
<text text-anchor="middle" x="1224" y="-169.3" font-family="Helvetica,sans-Serif" font-size="14.00">execute paleocar for reconstruction of paleoclimate of the study region. Generate the timeseries graphs, and paleocar models of paleoclimatic reconstruction.</text>
</g>
<!-- prediction_graph -->
<g id="node5" class="node"><title>prediction_graph</title>
<path fill="#ffffcc" stroke="black" d="M36.5,-78.5C36.5,-78.5 371.5,-78.5 371.5,-78.5 377.5,-78.5 383.5,-84.5 383.5,-90.5 383.5,-90.5 383.5,-112.5 383.5,-112.5 383.5,-118.5 377.5,-124.5 371.5,-124.5 371.5,-124.5 36.5,-124.5 36.5,-124.5 30.5,-124.5 24.5,-118.5 24.5,-112.5 24.5,-112.5 24.5,-90.5 24.5,-90.5 24.5,-84.5 30.5,-78.5 36.5,-78.5"/>
<text text-anchor="middle" x="204" y="-109.3" font-family="Helvetica,sans-Serif" font-size="14.00">prediction_graph</text>
<polyline fill="none" stroke="black" points="24.5,-101.5 383.5,-101.5 "/>
<text text-anchor="middle" x="204" y="-86.3" font-family="Helvetica,sans-Serif" font-size="14.00">file:.output/{session_id}/{run_id}/{label}_predictions.jpg</text>
</g>
<!-- exec_paleocar&#45;&gt;prediction_graph -->
<g id="edge17" class="edge"><title>exec_paleocar&#45;&gt;prediction_graph</title>
<path fill="none" stroke="black" d="M857.058,-161.493C715.449,-152.022 551.915,-139.897 393.943,-125.067"/>
<polygon fill="black" stroke="black" points="393.83,-121.541 383.546,-124.086 393.173,-128.51 393.83,-121.541"/>
</g>
<!-- paleocar_models -->
<g id="node6" class="node"><title>paleocar_models</title>
<path fill="#ffffcc" stroke="black" d="M414,-78.5C414,-78.5 726,-78.5 726,-78.5 732,-78.5 738,-84.5 738,-90.5 738,-90.5 738,-112.5 738,-112.5 738,-118.5 732,-124.5 726,-124.5 726,-124.5 414,-124.5 414,-124.5 408,-124.5 402,-118.5 402,-112.5 402,-112.5 402,-90.5 402,-90.5 402,-84.5 408,-78.5 414,-78.5"/>
<text text-anchor="middle" x="570" y="-109.3" font-family="Helvetica,sans-Serif" font-size="14.00">paleocar_models</text>
<polyline fill="none" stroke="black" points="402,-101.5 738,-101.5 "/>
<text text-anchor="middle" x="570" y="-86.3" font-family="Helvetica,sans-Serif" font-size="14.00">file:.output/{session_id}/{run_id}/{label}_model.Rds</text>
</g>
<!-- exec_paleocar&#45;&gt;paleocar_models -->
<g id="edge19" class="edge"><title>exec_paleocar&#45;&gt;paleocar_models</title>
<path fill="none" stroke="black" d="M1043.06,-161.499C956.686,-150.951 851.595,-138.048 748.168,-125.144"/>
<polygon fill="black" stroke="black" points="748.521,-121.661 738.165,-123.895 747.654,-128.607 748.521,-121.661"/>
</g>
<!-- prediction_model -->
<g id="node7" class="node"><title>prediction_model</title>
<path fill="#ffffcc" stroke="black" d="M768.5,-78.5C768.5,-78.5 1103.5,-78.5 1103.5,-78.5 1109.5,-78.5 1115.5,-84.5 1115.5,-90.5 1115.5,-90.5 1115.5,-112.5 1115.5,-112.5 1115.5,-118.5 1109.5,-124.5 1103.5,-124.5 1103.5,-124.5 768.5,-124.5 768.5,-124.5 762.5,-124.5 756.5,-118.5 756.5,-112.5 756.5,-112.5 756.5,-90.5 756.5,-90.5 756.5,-84.5 762.5,-78.5 768.5,-78.5"/>
<text text-anchor="middle" x="936" y="-109.3" font-family="Helvetica,sans-Serif" font-size="14.00">prediction_model</text>
<polyline fill="none" stroke="black" points="756.5,-101.5 1115.5,-101.5 "/>
<text text-anchor="middle" x="936" y="-86.3" font-family="Helvetica,sans-Serif" font-size="14.00">file:.output/{session_id}/{run_id}/{label}_prediction.Rds</text>
</g>
<!-- exec_paleocar&#45;&gt;prediction_model -->
<g id="edge16" class="edge"><title>exec_paleocar&#45;&gt;prediction_model</title>
<path fill="none" stroke="black" d="M1145.68,-161.473C1108.06,-150.893 1062.83,-138.171 1024.02,-127.256"/>
<polygon fill="black" stroke="black" points="1024.88,-123.86 1014.3,-124.522 1022.98,-130.599 1024.88,-123.86"/>
</g>
<!-- paleocar_log_file -->
<g id="node8" class="node"><title>paleocar_log_file</title>
<path fill="#ffffcc" stroke="black" d="M1146,-78.5C1146,-78.5 1490,-78.5 1490,-78.5 1496,-78.5 1502,-84.5 1502,-90.5 1502,-90.5 1502,-112.5 1502,-112.5 1502,-118.5 1496,-124.5 1490,-124.5 1490,-124.5 1146,-124.5 1146,-124.5 1140,-124.5 1134,-118.5 1134,-112.5 1134,-112.5 1134,-90.5 1134,-90.5 1134,-84.5 1140,-78.5 1146,-78.5"/>
<text text-anchor="middle" x="1318" y="-109.3" font-family="Helvetica,sans-Serif" font-size="14.00">paleocar_log_file</text>
<polyline fill="none" stroke="black" points="1134,-101.5 1502,-101.5 "/>
<text text-anchor="middle" x="1318" y="-86.3" font-family="Helvetica,sans-Serif" font-size="14.00">file:.output/{session_id}/{run_id}/paleocar_model_log.txt</text>
</g>
<!-- exec_paleocar&#45;&gt;paleocar_log_file -->
<g id="edge21" class="edge"><title>exec_paleocar&#45;&gt;paleocar_log_file</title>
<path fill="none" stroke="black" d="M1249.69,-161.366C1260.46,-152.08 1273.14,-141.16 1284.62,-131.262"/>
<polygon fill="black" stroke="black" points="1287.05,-133.786 1292.35,-124.607 1282.48,-128.483 1287.05,-133.786"/>
</g>
<!-- uncertainty_model -->
<g id="node9" class="node"><title>uncertainty_model</title>
<path fill="#ffffcc" stroke="black" d="M1532,-78.5C1532,-78.5 1872,-78.5 1872,-78.5 1878,-78.5 1884,-84.5 1884,-90.5 1884,-90.5 1884,-112.5 1884,-112.5 1884,-118.5 1878,-124.5 1872,-124.5 1872,-124.5 1532,-124.5 1532,-124.5 1526,-124.5 1520,-118.5 1520,-112.5 1520,-112.5 1520,-90.5 1520,-90.5 1520,-84.5 1526,-78.5 1532,-78.5"/>
<text text-anchor="middle" x="1702" y="-109.3" font-family="Helvetica,sans-Serif" font-size="14.00">uncertainty_model</text>
<polyline fill="none" stroke="black" points="1520,-101.5 1884,-101.5 "/>
<text text-anchor="middle" x="1702" y="-86.3" font-family="Helvetica,sans-Serif" font-size="14.00">file:.output/{session_id}/{run_id}/{label}_uncertainty.Rds</text>
</g>
<!-- exec_paleocar&#45;&gt;uncertainty_model -->
<g id="edge18" class="edge"><title>exec_paleocar&#45;&gt;uncertainty_model</title>
<path fill="none" stroke="black" d="M1353.98,-161.473C1418.41,-150.556 1496.28,-137.36 1562.02,-126.221"/>
<polygon fill="black" stroke="black" points="1562.77,-129.644 1572.04,-124.522 1561.6,-122.742 1562.77,-129.644"/>
</g>
<!-- uncertainty_graph -->
<g id="node10" class="node"><title>uncertainty_graph</title>
<path fill="#ffffcc" stroke="black" d="M1914.5,-78.5C1914.5,-78.5 2247.5,-78.5 2247.5,-78.5 2253.5,-78.5 2259.5,-84.5 2259.5,-90.5 2259.5,-90.5 2259.5,-112.5 2259.5,-112.5 2259.5,-118.5 2253.5,-124.5 2247.5,-124.5 2247.5,-124.5 1914.5,-124.5 1914.5,-124.5 1908.5,-124.5 1902.5,-118.5 1902.5,-112.5 1902.5,-112.5 1902.5,-90.5 1902.5,-90.5 1902.5,-84.5 1908.5,-78.5 1914.5,-78.5"/>
<text text-anchor="middle" x="2081" y="-109.3" font-family="Helvetica,sans-Serif" font-size="14.00">uncertainty_graph</text>
<polyline fill="none" stroke="black" points="1902.5,-101.5 2259.5,-101.5 "/>
<text text-anchor="middle" x="2081" y="-86.3" font-family="Helvetica,sans-Serif" font-size="14.00">file:.output/{session_id}/{run_id}/{label}_uncertainty.jpg</text>
</g>
<!-- exec_paleocar&#45;&gt;uncertainty_graph -->
<g id="edge20" class="edge"><title>exec_paleocar&#45;&gt;uncertainty_graph</title>
<path fill="none" stroke="black" d="M1498.41,-161.491C1616.52,-151.518 1756.39,-139.044 1892.21,-125.067"/>
<polygon fill="black" stroke="black" points="1892.81,-128.524 1902.4,-124.015 1892.09,-121.561 1892.81,-128.524"/>
</g>
<!-- prediction_graph_output_port -->
<g id="node34" class="node"><title>prediction_graph_output_port</title>
<ellipse fill="#ffffff" stroke="black" cx="1047" cy="-31" rx="7" ry="7"/>
</g>
<!-- prediction_graph&#45;&gt;prediction_graph_output_port -->
<g id="edge37" class="edge"><title>prediction_graph&#45;&gt;prediction_graph_output_port</title>
<path fill="none" stroke="black" d="M297.739,-78.4149C327.982,-72.0943 361.762,-65.8743 393,-62 644.612,-30.7933 954.292,-31.193 1029.81,-31.8123"/>
<polygon fill="black" stroke="black" points="1029.84,-35.3127 1039.87,-31.9088 1029.9,-28.313 1029.84,-35.3127"/>
</g>
<!-- paleocar_models_output_port -->
<g id="node35" class="node"><title>paleocar_models_output_port</title>
<ellipse fill="#ffffff" stroke="black" cx="1079" cy="-31" rx="7" ry="7"/>
</g>
<!-- paleocar_models&#45;&gt;paleocar_models_output_port -->
<g id="edge38" class="edge"><title>paleocar_models&#45;&gt;paleocar_models_output_port</title>
<path fill="none" stroke="black" d="M655.871,-78.4079C684.642,-71.9221 717.026,-65.6064 747,-62 764.435,-59.9022 1047.45,-62.1663 1063,-54 1066.26,-52.287 1069.02,-49.5755 1071.28,-46.633"/>
<polygon fill="black" stroke="black" points="1074.39,-48.2491 1076.57,-37.8799 1068.4,-44.6294 1074.39,-48.2491"/>
</g>
<!-- prediction_model_output_port -->
<g id="node36" class="node"><title>prediction_model_output_port</title>
<ellipse fill="#ffffff" stroke="black" cx="1111" cy="-31" rx="7" ry="7"/>
</g>
<!-- prediction_model&#45;&gt;prediction_model_output_port -->
<g id="edge39" class="edge"><title>prediction_model&#45;&gt;prediction_model_output_port</title>
<path fill="none" stroke="black" d="M1046.83,-78.3903C1063.84,-72.1523 1080.54,-64.1799 1095,-54 1098.01,-51.8799 1100.67,-49.0094 1102.92,-46.0425"/>
<polygon fill="black" stroke="black" points="1105.93,-47.825 1108.34,-37.5072 1100.03,-44.0721 1105.93,-47.825"/>
</g>
<!-- paleocar_log_file_output_port -->
<g id="node37" class="node"><title>paleocar_log_file_output_port</title>
<ellipse fill="#ffffff" stroke="black" cx="1143" cy="-31" rx="7" ry="7"/>
</g>
<!-- paleocar_log_file&#45;&gt;paleocar_log_file_output_port -->
<g id="edge40" class="edge"><title>paleocar_log_file&#45;&gt;paleocar_log_file_output_port</title>
<path fill="none" stroke="black" d="M1207.17,-78.3903C1190.16,-72.1523 1173.46,-64.1799 1159,-54 1155.99,-51.8799 1153.33,-49.0094 1151.08,-46.0425"/>
<polygon fill="black" stroke="black" points="1153.97,-44.0721 1145.66,-37.5072 1148.07,-47.825 1153.97,-44.0721"/>
</g>
<!-- uncertainty_model_output_port -->
<g id="node38" class="node"><title>uncertainty_model_output_port</title>
<ellipse fill="#ffffff" stroke="black" cx="1175" cy="-31" rx="7" ry="7"/>
</g>
<!-- uncertainty_model&#45;&gt;uncertainty_model_output_port -->
<g id="edge41" class="edge"><title>uncertainty_model&#45;&gt;uncertainty_model_output_port</title>
<path fill="none" stroke="black" d="M1609.25,-78.433C1578.2,-71.9489 1543.27,-65.6278 1511,-62 1493.33,-60.0133 1206.74,-62.2671 1191,-54 1187.74,-52.2875 1184.98,-49.5762 1182.72,-46.6337"/>
<polygon fill="black" stroke="black" points="1185.6,-44.6301 1177.43,-37.8804 1179.61,-48.2496 1185.6,-44.6301"/>
</g>
<!-- uncertainty_graph_output_port -->
<g id="node39" class="node"><title>uncertainty_graph_output_port</title>
<ellipse fill="#ffffff" stroke="black" cx="1207" cy="-31" rx="7" ry="7"/>
</g>
<!-- uncertainty_graph&#45;&gt;uncertainty_graph_output_port -->
<g id="edge42" class="edge"><title>uncertainty_graph&#45;&gt;uncertainty_graph_output_port</title>
<path fill="none" stroke="black" d="M1988.25,-78.4717C1958.04,-72.114 1924.25,-65.858 1893,-62 1628.52,-29.3447 1302.86,-30.8444 1224.53,-31.7496"/>
<polygon fill="black" stroke="black" points="1224.09,-28.255 1214.13,-31.8845 1224.18,-35.2545 1224.09,-28.255"/>
</g>
<!-- user_map_marker_pos -->
<g id="node11" class="node"><title>user_map_marker_pos</title>
<path fill="#ffffcc" stroke="black" d="M1276,-612C1276,-612 1136,-612 1136,-612 1130,-612 1124,-606 1124,-600 1124,-600 1124,-588 1124,-588 1124,-582 1130,-576 1136,-576 1136,-576 1276,-576 1276,-576 1282,-576 1288,-582 1288,-588 1288,-588 1288,-600 1288,-600 1288,-606 1282,-612 1276,-612"/>
<text text-anchor="middle" x="1206" y="-590.3" font-family="Helvetica,sans-Serif" font-size="14.00">user_map_marker_pos</text>
</g>
<!-- user_map_marker_pos&#45;&gt;get_client_data -->
<g id="edge5" class="edge"><title>user_map_marker_pos&#45;&gt;get_client_data</title>
<path fill="none" stroke="black" d="M1153.87,-575.962C1123.96,-566.185 1085.83,-553.723 1052.46,-542.818"/>
<polygon fill="black" stroke="black" points="1053.33,-539.418 1042.74,-539.639 1051.15,-546.072 1053.33,-539.418"/>
</g>
<!-- user_prediction_years -->
<g id="node12" class="node"><title>user_prediction_years</title>
<path fill="#ffffcc" stroke="black" d="M1059,-612C1059,-612 925,-612 925,-612 919,-612 913,-606 913,-600 913,-600 913,-588 913,-588 913,-582 919,-576 925,-576 925,-576 1059,-576 1059,-576 1065,-576 1071,-582 1071,-588 1071,-588 1071,-600 1071,-600 1071,-606 1065,-612 1059,-612"/>
<text text-anchor="middle" x="992" y="-590.3" font-family="Helvetica,sans-Serif" font-size="14.00">user_prediction_years</text>
</g>
<!-- user_prediction_years&#45;&gt;get_client_data -->
<g id="edge6" class="edge"><title>user_prediction_years&#45;&gt;get_client_data</title>
<path fill="none" stroke="black" d="M988.142,-575.868C986.391,-568.092 984.261,-558.632 982.23,-549.611"/>
<polygon fill="black" stroke="black" points="985.616,-548.714 980.005,-539.727 978.787,-550.251 985.616,-548.714"/>
</g>
<!-- coordinates&#45;&gt;extract_prism_data -->
<g id="edge12" class="edge"><title>coordinates&#45;&gt;extract_prism_data</title>
<path fill="none" stroke="black" d="M925.299,-415.421C896.331,-404.353 858.056,-389.729 825.427,-377.262"/>
<polygon fill="black" stroke="black" points="826.535,-373.939 815.944,-373.639 824.036,-380.478 826.535,-373.939"/>
</g>
<!-- session_id&#45;&gt;extract_prism_data -->
<g id="edge13" class="edge"><title>session_id&#45;&gt;extract_prism_data</title>
<path fill="none" stroke="black" d="M765.091,-415.322C764.067,-406.102 762.771,-394.435 761.567,-383.606"/>
<polygon fill="black" stroke="black" points="765.037,-383.139 760.454,-373.587 758.08,-383.912 765.037,-383.139"/>
</g>
<!-- run_id&#45;&gt;extract_prism_data -->
<g id="edge14" class="edge"><title>run_id&#45;&gt;extract_prism_data</title>
<path fill="none" stroke="black" d="M838.368,-415.322C825.441,-405.056 808.694,-391.757 793.837,-379.959"/>
<polygon fill="black" stroke="black" points="795.821,-377.065 785.813,-373.587 791.468,-382.547 795.821,-377.065"/>
</g>
<!-- prism_data&#45;&gt;extract_prism_data -->
<g id="edge15" class="edge"><title>prism_data&#45;&gt;extract_prism_data</title>
<path fill="none" stroke="black" d="M570.159,-410.473C603.575,-399.982 643.696,-387.386 678.263,-376.534"/>
<polygon fill="black" stroke="black" points="679.363,-379.857 687.855,-373.522 677.266,-373.178 679.363,-379.857"/>
</g>
<!-- prediction_years&#45;&gt;exec_paleocar -->
<g id="edge22" class="edge"><title>prediction_years&#45;&gt;exec_paleocar</title>
<path fill="none" stroke="black" d="M1200.58,-332.32C1182.76,-322.968 1164.08,-309.463 1154,-291 1143.99,-272.666 1145.15,-262.923 1154,-244 1159.4,-232.453 1168.32,-222.384 1178.02,-214.005"/>
<polygon fill="black" stroke="black" points="1180.32,-216.65 1185.91,-207.652 1175.93,-211.197 1180.32,-216.65"/>
</g>
<!-- prism_data_for_coordinates&#45;&gt;exec_paleocar -->
<g id="edge23" class="edge"><title>prism_data_for_coordinates&#45;&gt;exec_paleocar</title>
<path fill="none" stroke="black" d="M961.168,-244.473C1009.02,-233.736 1066.71,-220.793 1115.83,-209.771"/>
<polygon fill="black" stroke="black" points="1116.86,-213.127 1125.85,-207.522 1115.33,-206.297 1116.86,-213.127"/>
</g>
<!-- itrdb&#45;&gt;exec_paleocar -->
<g id="edge24" class="edge"><title>itrdb&#45;&gt;exec_paleocar</title>
<path fill="none" stroke="black" d="M332.373,-329.454C335.283,-328.604 338.17,-327.781 341,-327 498.44,-283.528 538.006,-271.535 699,-244 784.215,-229.425 877.86,-217.652 962.171,-208.593"/>
<polygon fill="black" stroke="black" points="962.569,-212.071 972.141,-207.53 961.826,-205.11 962.569,-212.071"/>
</g>
<!-- historical_precip_data -->
<g id="node20" class="node"><title>historical_precip_data</title>
<path fill="#fcfcfc" stroke="black" d="M743.5,-612C743.5,-612 612.5,-612 612.5,-612 606.5,-612 600.5,-606 600.5,-600 600.5,-600 600.5,-588 600.5,-588 600.5,-582 606.5,-576 612.5,-576 612.5,-576 743.5,-576 743.5,-576 749.5,-576 755.5,-582 755.5,-588 755.5,-588 755.5,-600 755.5,-600 755.5,-606 749.5,-612 743.5,-612"/>
<text text-anchor="middle" x="678" y="-590.3" font-family="Helvetica,sans-Serif" font-size="14.00">historical_precip_data</text>
</g>
<!-- historical_precip_data&#45;&gt;acccess_static_server_files -->
<g id="edge9" class="edge"><title>historical_precip_data&#45;&gt;acccess_static_server_files</title>
<path fill="none" stroke="black" d="M608.946,-575.962C568.301,-565.934 516.208,-553.081 471.222,-541.981"/>
<polygon fill="black" stroke="black" points="471.989,-538.566 461.442,-539.568 470.312,-545.362 471.989,-538.566"/>
</g>
<!-- tree_ring_data -->
<g id="node21" class="node"><title>tree_ring_data</title>
<path fill="#fcfcfc" stroke="black" d="M492,-612C492,-612 408,-612 408,-612 402,-612 396,-606 396,-600 396,-600 396,-588 396,-588 396,-582 402,-576 408,-576 408,-576 492,-576 492,-576 498,-576 504,-582 504,-588 504,-588 504,-600 504,-600 504,-606 498,-612 492,-612"/>
<text text-anchor="middle" x="450" y="-590.3" font-family="Helvetica,sans-Serif" font-size="14.00">tree_ring_data</text>
</g>
<!-- tree_ring_data&#45;&gt;acccess_static_server_files -->
<g id="edge10" class="edge"><title>tree_ring_data&#45;&gt;acccess_static_server_files</title>
<path fill="none" stroke="black" d="M432.301,-575.868C423.403,-567.256 412.372,-556.578 402.187,-546.719"/>
<polygon fill="black" stroke="black" points="404.582,-544.167 394.963,-539.727 399.714,-549.197 404.582,-544.167"/>
</g>
<!-- calibration_years -->
<g id="node22" class="node"><title>calibration_years</title>
<path fill="#fcfcfc" stroke="black" d="M1273.5,-285.5C1273.5,-285.5 1174.5,-285.5 1174.5,-285.5 1168.5,-285.5 1162.5,-279.5 1162.5,-273.5 1162.5,-273.5 1162.5,-261.5 1162.5,-261.5 1162.5,-255.5 1168.5,-249.5 1174.5,-249.5 1174.5,-249.5 1273.5,-249.5 1273.5,-249.5 1279.5,-249.5 1285.5,-255.5 1285.5,-261.5 1285.5,-261.5 1285.5,-273.5 1285.5,-273.5 1285.5,-279.5 1279.5,-285.5 1273.5,-285.5"/>
<text text-anchor="middle" x="1224" y="-263.8" font-family="Helvetica,sans-Serif" font-size="14.00">calibration_years</text>
</g>
<!-- calibration_years&#45;&gt;exec_paleocar -->
<g id="edge25" class="edge"><title>calibration_years&#45;&gt;exec_paleocar</title>
<path fill="none" stroke="black" d="M1224,-249.322C1224,-240.102 1224,-228.435 1224,-217.606"/>
<polygon fill="black" stroke="black" points="1227.5,-217.587 1224,-207.587 1220.5,-217.587 1227.5,-217.587"/>
</g>
<!-- label -->
<g id="node23" class="node"><title>label</title>
<path fill="#fcfcfc" stroke="black" d="M1346,-285.5C1346,-285.5 1316,-285.5 1316,-285.5 1310,-285.5 1304,-279.5 1304,-273.5 1304,-273.5 1304,-261.5 1304,-261.5 1304,-255.5 1310,-249.5 1316,-249.5 1316,-249.5 1346,-249.5 1346,-249.5 1352,-249.5 1358,-255.5 1358,-261.5 1358,-261.5 1358,-273.5 1358,-273.5 1358,-279.5 1352,-285.5 1346,-285.5"/>
<text text-anchor="middle" x="1331" y="-263.8" font-family="Helvetica,sans-Serif" font-size="14.00">label</text>
</g>
<!-- label&#45;&gt;exec_paleocar -->
<g id="edge26" class="edge"><title>label&#45;&gt;exec_paleocar</title>
<path fill="none" stroke="black" d="M1308.31,-249.322C1294.62,-238.961 1276.85,-225.511 1261.16,-213.631"/>
<polygon fill="black" stroke="black" points="1263.26,-210.832 1253.18,-207.587 1259.04,-216.413 1263.26,-210.832"/>
</g>
<!-- min_width -->
<g id="node24" class="node"><title>min_width</title>
<path fill="#fcfcfc" stroke="black" d="M1530,-285.5C1530,-285.5 1474,-285.5 1474,-285.5 1468,-285.5 1462,-279.5 1462,-273.5 1462,-273.5 1462,-261.5 1462,-261.5 1462,-255.5 1468,-249.5 1474,-249.5 1474,-249.5 1530,-249.5 1530,-249.5 1536,-249.5 1542,-255.5 1542,-261.5 1542,-261.5 1542,-273.5 1542,-273.5 1542,-279.5 1536,-285.5 1530,-285.5"/>
<text text-anchor="middle" x="1502" y="-263.8" font-family="Helvetica,sans-Serif" font-size="14.00">min_width</text>
</g>
<!-- min_width&#45;&gt;exec_paleocar -->
<g id="edge27" class="edge"><title>min_width&#45;&gt;exec_paleocar</title>
<path fill="none" stroke="black" d="M1466.72,-249.388C1462.15,-247.445 1457.5,-245.593 1453,-244 1415.72,-230.8 1374.05,-219.246 1336.58,-209.971"/>
<polygon fill="black" stroke="black" points="1337.18,-206.517 1326.64,-207.54 1335.52,-213.316 1337.18,-206.517"/>
</g>
<!-- verbose -->
<g id="node25" class="node"><title>verbose</title>
<path fill="#fcfcfc" stroke="black" d="M1432,-285.5C1432,-285.5 1388,-285.5 1388,-285.5 1382,-285.5 1376,-279.5 1376,-273.5 1376,-273.5 1376,-261.5 1376,-261.5 1376,-255.5 1382,-249.5 1388,-249.5 1388,-249.5 1432,-249.5 1432,-249.5 1438,-249.5 1444,-255.5 1444,-261.5 1444,-261.5 1444,-273.5 1444,-273.5 1444,-279.5 1438,-285.5 1432,-285.5"/>
<text text-anchor="middle" x="1410" y="-263.8" font-family="Helvetica,sans-Serif" font-size="14.00">verbose</text>
</g>
<!-- verbose&#45;&gt;exec_paleocar -->
<g id="edge28" class="edge"><title>verbose&#45;&gt;exec_paleocar</title>
<path fill="none" stroke="black" d="M1378.23,-249.453C1374.47,-247.562 1370.67,-245.705 1367,-244 1342.52,-232.619 1315.19,-221.145 1291.03,-211.411"/>
<polygon fill="black" stroke="black" points="1292.17,-208.099 1281.59,-207.63 1289.57,-214.597 1292.17,-208.099"/>
</g>
<!-- user_map_marker_pos_input_port -->
<g id="node26" class="node"><title>user_map_marker_pos_input_port</title>
<ellipse fill="#ffffff" stroke="black" cx="1254" cy="-659" rx="7" ry="7"/>
</g>
<!-- user_map_marker_pos_input_port&#45;&gt;user_map_marker_pos -->
<g id="edge29" class="edge"><title>user_map_marker_pos_input_port&#45;&gt;user_map_marker_pos</title>
<path fill="none" stroke="black" d="M1250.36,-652.896C1247.15,-648.414 1242.32,-641.733 1238,-636 1234.08,-630.794 1229.82,-625.264 1225.73,-620.007"/>
<polygon fill="black" stroke="black" points="1228.44,-617.779 1219.52,-612.056 1222.92,-622.09 1228.44,-617.779"/>
</g>
<!-- user_prediction_years_input_port -->
<g id="node27" class="node"><title>user_prediction_years_input_port</title>
<ellipse fill="#ffffff" stroke="black" cx="1222" cy="-659" rx="7" ry="7"/>
</g>
<!-- user_prediction_years_input_port&#45;&gt;user_prediction_years -->
<g id="edge30" class="edge"><title>user_prediction_years_input_port&#45;&gt;user_prediction_years</title>
<path fill="none" stroke="black" d="M1219.52,-652.212C1216.95,-647.004 1212.41,-639.628 1206,-636 1188.33,-626.004 1134.99,-631.532 1115,-628 1095.99,-624.641 1075.64,-619.735 1057.08,-614.727"/>
<polygon fill="black" stroke="black" points="1057.83,-611.304 1047.26,-612.026 1055.97,-618.053 1057.83,-611.304"/>
</g>
<!-- calibration_years_input_port -->
<g id="node28" class="node"><title>calibration_years_input_port</title>
<ellipse fill="#ffffff" stroke="black" cx="1286" cy="-659" rx="7" ry="7"/>
</g>
<!-- calibration_years_input_port&#45;&gt;calibration_years -->
<g id="edge31" class="edge"><title>calibration_years_input_port&#45;&gt;calibration_years</title>
<path fill="none" stroke="black" d="M1289.3,-652.607C1300.14,-634.352 1334,-572.92 1334,-517.5 1334,-517.5 1334,-517.5 1334,-432.5 1334,-384.857 1341.46,-366.62 1315,-327 1304.89,-311.855 1289.38,-299.79 1274.01,-290.644"/>
<polygon fill="black" stroke="black" points="1275.46,-287.441 1265.02,-285.596 1272.03,-293.545 1275.46,-287.441"/>
</g>
<!-- label_input_port -->
<g id="node29" class="node"><title>label_input_port</title>
<ellipse fill="#ffffff" stroke="black" cx="1318" cy="-659" rx="7" ry="7"/>
</g>
<!-- label_input_port&#45;&gt;label -->
<g id="edge32" class="edge"><title>label_input_port&#45;&gt;label</title>
<path fill="none" stroke="black" d="M1321.13,-652.429C1324.02,-647.648 1328.65,-640.79 1334,-636 1339.34,-631.218 1343.76,-633.779 1348,-628 1377.72,-587.474 1372,-567.756 1372,-517.5 1372,-517.5 1372,-517.5 1372,-432.5 1372,-382.978 1354.19,-327.488 1342.04,-295.413"/>
<polygon fill="black" stroke="black" points="1345.22,-293.911 1338.33,-285.859 1338.69,-296.448 1345.22,-293.911"/>
</g>
<!-- verbose_input_port -->
<g id="node30" class="node"><title>verbose_input_port</title>
<ellipse fill="#ffffff" stroke="black" cx="1350" cy="-659" rx="7" ry="7"/>
</g>
<!-- verbose_input_port&#45;&gt;verbose -->
<g id="edge33" class="edge"><title>verbose_input_port&#45;&gt;verbose</title>
<path fill="none" stroke="black" d="M1353.56,-652.835C1356.72,-648.314 1361.52,-641.61 1366,-636 1368.95,-632.308 1370.65,-632.098 1373,-628 1398.78,-583.08 1410,-569.291 1410,-517.5 1410,-517.5 1410,-517.5 1410,-432.5 1410,-384.409 1410,-328.385 1410,-295.831"/>
<polygon fill="black" stroke="black" points="1413.5,-295.736 1410,-285.736 1406.5,-295.736 1413.5,-295.736"/>
</g>
<!-- min_width_input_port -->
<g id="node31" class="node"><title>min_width_input_port</title>
<ellipse fill="#ffffff" stroke="black" cx="1382" cy="-659" rx="7" ry="7"/>
</g>
<!-- min_width_input_port&#45;&gt;min_width -->
<g id="edge34" class="edge"><title>min_width_input_port&#45;&gt;min_width</title>
<path fill="none" stroke="black" d="M1387.27,-654.058C1406.94,-638.84 1475,-581.562 1475,-517.5 1475,-517.5 1475,-517.5 1475,-432.5 1475,-383.761 1486.75,-327.944 1494.75,-295.606"/>
<polygon fill="black" stroke="black" points="1498.23,-296.138 1497.3,-285.584 1491.44,-294.414 1498.23,-296.138"/>
</g>
<!-- historical_precip_data_input_port -->
<g id="node32" class="node"><title>historical_precip_data_input_port</title>
<ellipse fill="#ffffff" stroke="black" cx="1190" cy="-659" rx="7" ry="7"/>
</g>
<!-- historical_precip_data_input_port&#45;&gt;historical_precip_data -->
<g id="edge35" class="edge"><title>historical_precip_data_input_port&#45;&gt;historical_precip_data</title>
<path fill="none" stroke="black" d="M1187.57,-652.127C1185.03,-646.857 1180.52,-639.44 1174,-636 1160.73,-628.993 918.949,-629.309 904,-628 858.202,-623.991 807.532,-616.845 765.797,-610.225"/>
<polygon fill="black" stroke="black" points="766.091,-606.728 755.663,-608.601 764.983,-613.64 766.091,-606.728"/>
</g>
<!-- tree_ring_data_input_port -->
<g id="node33" class="node"><title>tree_ring_data_input_port</title>
<ellipse fill="#ffffff" stroke="black" cx="1158" cy="-659" rx="7" ry="7"/>
</g>
<!-- tree_ring_data_input_port&#45;&gt;tree_ring_data -->
<g id="edge36" class="edge"><title>tree_ring_data_input_port&#45;&gt;tree_ring_data</title>
<path fill="none" stroke="black" d="M1150.91,-658.097C1102.77,-658.66 818.876,-660.434 591,-628 565.515,-624.373 537.859,-618.368 513.847,-612.467"/>
<polygon fill="black" stroke="black" points="514.695,-609.072 504.145,-610.041 512.997,-615.863 514.695,-609.072"/>
</g>
</g>
</svg>
