<?xml version="1.0" encoding="UTF-8" standalone="no"?>
<!DOCTYPE svg PUBLIC "-//W3C//DTD SVG 1.1//EN"
 "http://www.w3.org/Graphics/SVG/1.1/DTD/svg11.dtd">
<!-- Generated by graphviz version 2.38.0 (20140413.2041)
 -->
<!-- Title: Workflow Pages: 1 -->
<svg width="1318pt" height="845pt"
 viewBox="0.00 0.00 1318.00 845.00" xmlns="http://www.w3.org/2000/svg" xmlns:xlink="http://www.w3.org/1999/xlink">
<g id="graph0" class="graph" transform="scale(1 1) rotate(0) translate(4 841)">
<title>Workflow</title>
<polygon fill="white" stroke="none" points="-4,4 -4,-841 1314,-841 1314,4 -4,4"/>
<text text-anchor="middle" x="655" y="-818.6" font-family="Helvetica,sans-Serif" font-size="18.00">gen_paleocar_model</text>
<g id="clust1" class="cluster"><title>cluster_workflow_box_outer</title>
<polygon fill="none" stroke="black" stroke-width="2" points="8,-62 8,-747 1302,-747 1302,-62 8,-62"/>
</g>
<g id="clust2" class="cluster"><title>cluster_workflow_box_inner</title>
<polygon fill="none" stroke="black" stroke-width="0" points="16,-70 16,-739 1294,-739 1294,-70 16,-70"/>
</g>
<g id="clust5" class="cluster"><title>cluster_output_ports_group_outer</title>
<polygon fill="none" stroke="black" stroke-width="0" points="569,-8 569,-54 615,-54 615,-8 569,-8"/>
</g>
<g id="clust6" class="cluster"><title>cluster_output_ports_group_inner</title>
<polygon fill="none" stroke="black" stroke-width="0" points="577,-16 577,-46 607,-46 607,-16 577,-16"/>
</g>
<g id="clust3" class="cluster"><title>cluster_input_ports_group_outer</title>
<polygon fill="none" stroke="black" stroke-width="0" points="567,-755 567,-801 773,-801 773,-755 567,-755"/>
</g>
<g id="clust4" class="cluster"><title>cluster_input_ports_group_inner</title>
<polygon fill="none" stroke="black" stroke-width="0" points="575,-763 575,-793 765,-793 765,-763 575,-763"/>
</g>
<!-- print_message -->
<g id="node1" class="node"><title>print_message</title>
<polygon fill="#ccffcc" stroke="black" points="896,-612.5 896,-658.5 1286,-658.5 1286,-612.5 896,-612.5"/>
<text text-anchor="middle" x="1091" y="-643.3" font-family="Helvetica,sans-Serif" font-size="14.00">print_message</text>
<polyline fill="none" stroke="black" points="896,-635.5 1286,-635.5 "/>
<text text-anchor="middle" x="1091" y="-620.3" font-family="Helvetica,sans-Serif" font-size="14.00">writing messages to the command line, if the variable is set.</text>
</g>
<!-- get_predictor_matrix -->
<g id="node2" class="node"><title>get_predictor_matrix</title>
<polygon fill="#ccffcc" stroke="black" points="464.5,-612.5 464.5,-658.5 877.5,-658.5 877.5,-612.5 464.5,-612.5"/>
<text text-anchor="middle" x="671" y="-643.3" font-family="Helvetica,sans-Serif" font-size="14.00">get_predictor_matrix</text>
<polyline fill="none" stroke="black" points="464.5,-635.5 877.5,-635.5 "/>
<text text-anchor="middle" x="671" y="-620.3" font-family="Helvetica,sans-Serif" font-size="14.00">create a matrix of tree ring chronologies for the calibration year.</text>
</g>
<!-- predictor_matrix -->
<g id="node14" class="node"><title>predictor_matrix</title>
<path fill="#ffffcc" stroke="black" d="M796.5,-576C796.5,-576 701.5,-576 701.5,-576 695.5,-576 689.5,-570 689.5,-564 689.5,-564 689.5,-552 689.5,-552 689.5,-546 695.5,-540 701.5,-540 701.5,-540 796.5,-540 796.5,-540 802.5,-540 808.5,-546 808.5,-552 808.5,-552 808.5,-564 808.5,-564 808.5,-570 802.5,-576 796.5,-576"/>
<text text-anchor="middle" x="749" y="-554.3" font-family="Helvetica,sans-Serif" font-size="14.00">predictor_matrix</text>
</g>
<!-- get_predictor_matrix&#45;&gt;predictor_matrix -->
<g id="edge2" class="edge"><title>get_predictor_matrix&#45;&gt;predictor_matrix</title>
<path fill="none" stroke="black" d="M693.981,-612.256C703.342,-603.195 714.193,-592.691 723.773,-583.419"/>
<polygon fill="black" stroke="black" points="726.379,-585.767 731.13,-576.298 721.51,-580.738 726.379,-585.767"/>
</g>
<!-- max_preds -->
<g id="node17" class="node"><title>max_preds</title>
<path fill="#ffffcc" stroke="black" d="M624,-498.5C624,-498.5 560,-498.5 560,-498.5 554,-498.5 548,-492.5 548,-486.5 548,-486.5 548,-474.5 548,-474.5 548,-468.5 554,-462.5 560,-462.5 560,-462.5 624,-462.5 624,-462.5 630,-462.5 636,-468.5 636,-474.5 636,-474.5 636,-486.5 636,-486.5 636,-492.5 630,-498.5 624,-498.5"/>
<text text-anchor="middle" x="592" y="-476.8" font-family="Helvetica,sans-Serif" font-size="14.00">max_preds</text>
</g>
<!-- get_predictor_matrix&#45;&gt;max_preds -->
<g id="edge3" class="edge"><title>get_predictor_matrix&#45;&gt;max_preds</title>
<path fill="none" stroke="black" d="M659.513,-612.252C645.21,-584.553 620.812,-537.301 605.594,-507.827"/>
<polygon fill="black" stroke="black" points="608.51,-505.846 600.812,-498.566 602.29,-509.058 608.51,-505.846"/>
</g>
<!-- get_reconstruction_matrix -->
<g id="node3" class="node"><title>get_reconstruction_matrix</title>
<polygon fill="#ccffcc" stroke="black" points="24,-612.5 24,-658.5 446,-658.5 446,-612.5 24,-612.5"/>
<text text-anchor="middle" x="235" y="-643.3" font-family="Helvetica,sans-Serif" font-size="14.00">get_reconstruction_matrix</text>
<polyline fill="none" stroke="black" points="24,-635.5 446,-635.5 "/>
<text text-anchor="middle" x="235" y="-620.3" font-family="Helvetica,sans-Serif" font-size="14.00">get reconstruction matrix for chronologies for the prediction year.</text>
</g>
<!-- reconstruction_matrix -->
<g id="node12" class="node"><title>reconstruction_matrix</title>
<path fill="#ffffcc" stroke="black" d="M394,-576C394,-576 266,-576 266,-576 260,-576 254,-570 254,-564 254,-564 254,-552 254,-552 254,-546 260,-540 266,-540 266,-540 394,-540 394,-540 400,-540 406,-546 406,-552 406,-552 406,-564 406,-564 406,-570 400,-576 394,-576"/>
<text text-anchor="middle" x="330" y="-554.3" font-family="Helvetica,sans-Serif" font-size="14.00">reconstruction_matrix</text>
</g>
<!-- get_reconstruction_matrix&#45;&gt;reconstruction_matrix -->
<g id="edge7" class="edge"><title>get_reconstruction_matrix&#45;&gt;reconstruction_matrix</title>
<path fill="none" stroke="black" d="M262.733,-612.459C274.57,-603.052 288.399,-592.062 300.43,-582.5"/>
<polygon fill="black" stroke="black" points="302.774,-585.108 308.425,-576.146 298.419,-579.628 302.774,-585.108"/>
</g>
<!-- get_predlist -->
<g id="node4" class="node"><title>get_predlist</title>
<polygon fill="#ccffcc" stroke="black" points="274,-457.5 274,-503.5 482,-503.5 482,-457.5 274,-457.5"/>
<text text-anchor="middle" x="378" y="-488.3" font-family="Helvetica,sans-Serif" font-size="14.00">get_predlist</text>
<polyline fill="none" stroke="black" points="274,-480.5 482,-480.5 "/>
<text text-anchor="middle" x="378" y="-465.3" font-family="Helvetica,sans-Serif" font-size="14.00">create list of prediction values.</text>
</g>
<!-- predlist -->
<g id="node15" class="node"><title>predlist</title>
<path fill="#ffffcc" stroke="black" d="M478.5,-421C478.5,-421 439.5,-421 439.5,-421 433.5,-421 427.5,-415 427.5,-409 427.5,-409 427.5,-397 427.5,-397 427.5,-391 433.5,-385 439.5,-385 439.5,-385 478.5,-385 478.5,-385 484.5,-385 490.5,-391 490.5,-397 490.5,-397 490.5,-409 490.5,-409 490.5,-415 484.5,-421 478.5,-421"/>
<text text-anchor="middle" x="459" y="-399.3" font-family="Helvetica,sans-Serif" font-size="14.00">predlist</text>
</g>
<!-- get_predlist&#45;&gt;predlist -->
<g id="edge11" class="edge"><title>get_predlist&#45;&gt;predlist</title>
<path fill="none" stroke="black" d="M401.865,-457.256C411.756,-448.036 423.251,-437.322 433.325,-427.932"/>
<polygon fill="black" stroke="black" points="435.773,-430.434 440.702,-421.055 431.001,-425.314 435.773,-430.434"/>
</g>
<!-- get_carscores -->
<g id="node5" class="node"><title>get_carscores</title>
<polygon fill="#ccffcc" stroke="black" points="654.5,-457.5 654.5,-503.5 999.5,-503.5 999.5,-457.5 654.5,-457.5"/>
<text text-anchor="middle" x="827" y="-488.3" font-family="Helvetica,sans-Serif" font-size="14.00">get_carscores</text>
<polyline fill="none" stroke="black" points="654.5,-480.5 999.5,-480.5 "/>
<text text-anchor="middle" x="827" y="-465.3" font-family="Helvetica,sans-Serif" font-size="14.00">get the carscores for reconstruction of paleoclimate.</text>
</g>
<!-- carscores -->
<g id="node16" class="node"><title>carscores</title>
<path fill="#ffffcc" stroke="black" d="M767,-421C767,-421 711,-421 711,-421 705,-421 699,-415 699,-409 699,-409 699,-397 699,-397 699,-391 705,-385 711,-385 711,-385 767,-385 767,-385 773,-385 779,-391 779,-397 779,-397 779,-409 779,-409 779,-415 773,-421 767,-421"/>
<text text-anchor="middle" x="739" y="-399.3" font-family="Helvetica,sans-Serif" font-size="14.00">carscores</text>
</g>
<!-- get_carscores&#45;&gt;carscores -->
<g id="edge13" class="edge"><title>get_carscores&#45;&gt;carscores</title>
<path fill="none" stroke="black" d="M801.073,-457.256C790.221,-447.945 777.594,-437.112 766.572,-427.656"/>
<polygon fill="black" stroke="black" points="768.748,-424.911 758.879,-421.055 764.19,-430.223 768.748,-424.911"/>
</g>
<!-- optimizeModels -->
<g id="node6" class="node"><title>optimizeModels</title>
<polygon fill="#ccffcc" stroke="black" points="650,-197 534,-197 534,-161 650,-161 650,-197"/>
<text text-anchor="middle" x="592" y="-175.3" font-family="Helvetica,sans-Serif" font-size="14.00">optimizeModels</text>
</g>
<!-- paleocar_models -->
<g id="node8" class="node"><title>paleocar_models</title>
<path fill="#ffffcc" stroke="black" d="M436,-78.5C436,-78.5 748,-78.5 748,-78.5 754,-78.5 760,-84.5 760,-90.5 760,-90.5 760,-112.5 760,-112.5 760,-118.5 754,-124.5 748,-124.5 748,-124.5 436,-124.5 436,-124.5 430,-124.5 424,-118.5 424,-112.5 424,-112.5 424,-90.5 424,-90.5 424,-84.5 430,-78.5 436,-78.5"/>
<text text-anchor="middle" x="592" y="-109.3" font-family="Helvetica,sans-Serif" font-size="14.00">paleocar_models</text>
<polyline fill="none" stroke="black" points="424,-101.5 760,-101.5 "/>
<text text-anchor="middle" x="592" y="-86.3" font-family="Helvetica,sans-Serif" font-size="14.00">file:.output/{session_id}/{run_id}/{label}_model.Rds</text>
</g>
<!-- optimizeModels&#45;&gt;paleocar_models -->
<g id="edge20" class="edge"><title>optimizeModels&#45;&gt;paleocar_models</title>
<path fill="none" stroke="black" d="M592,-160.868C592,-153.175 592,-143.835 592,-134.902"/>
<polygon fill="black" stroke="black" points="595.5,-134.727 592,-124.727 588.5,-134.727 595.5,-134.727"/>
</g>
<!-- calculate_Models -->
<g id="node7" class="node"><title>calculate_Models</title>
<polygon fill="#ccffcc" stroke="black" points="655.5,-345 528.5,-345 528.5,-309 655.5,-309 655.5,-345"/>
<polygon fill="none" stroke="black" points="659.5,-349 524.5,-349 524.5,-305 659.5,-305 659.5,-349"/>
<text text-anchor="middle" x="592" y="-323.3" font-family="Helvetica,sans-Serif" font-size="14.00">calculate_Models</text>
</g>
<!-- linear_models -->
<g id="node18" class="node"><title>linear_models</title>
<path fill="#ffffcc" stroke="black" d="M633,-269C633,-269 551,-269 551,-269 545,-269 539,-263 539,-257 539,-257 539,-245 539,-245 539,-239 545,-233 551,-233 551,-233 633,-233 633,-233 639,-233 645,-239 645,-245 645,-245 645,-257 645,-257 645,-263 639,-269 633,-269"/>
<text text-anchor="middle" x="592" y="-247.3" font-family="Helvetica,sans-Serif" font-size="14.00">linear_models</text>
</g>
<!-- calculate_Models&#45;&gt;linear_models -->
<g id="edge16" class="edge"><title>calculate_Models&#45;&gt;linear_models</title>
<path fill="none" stroke="black" d="M592,-304.993C592,-297.061 592,-287.915 592,-279.478"/>
<polygon fill="black" stroke="black" points="595.5,-279.315 592,-269.315 588.5,-279.315 595.5,-279.315"/>
</g>
<!-- paleocar_models_output_port -->
<g id="node27" class="node"><title>paleocar_models_output_port</title>
<ellipse fill="#ffffff" stroke="black" cx="592" cy="-31" rx="7" ry="7"/>
</g>
<!-- paleocar_models&#45;&gt;paleocar_models_output_port -->
<g id="edge28" class="edge"><title>paleocar_models&#45;&gt;paleocar_models_output_port</title>
<path fill="none" stroke="black" d="M592,-78.4491C592,-68.6592 592,-57.3397 592,-48.3261"/>
<polygon fill="black" stroke="black" points="595.5,-48.1278 592,-38.1279 588.5,-48.1279 595.5,-48.1278"/>
</g>
<!-- verbose -->
<g id="node9" class="node"><title>verbose</title>
<path fill="#ffffcc" stroke="black" d="M960,-731C960,-731 916,-731 916,-731 910,-731 904,-725 904,-719 904,-719 904,-707 904,-707 904,-701 910,-695 916,-695 916,-695 960,-695 960,-695 966,-695 972,-701 972,-707 972,-707 972,-719 972,-719 972,-725 966,-731 960,-731"/>
<text text-anchor="middle" x="938" y="-709.3" font-family="Helvetica,sans-Serif" font-size="14.00">verbose</text>
</g>
<!-- verbose&#45;&gt;print_message -->
<g id="edge1" class="edge"><title>verbose&#45;&gt;print_message</title>
<path fill="none" stroke="black" d="M972.336,-695.056C991.455,-685.622 1015.68,-673.666 1037.26,-663.021"/>
<polygon fill="black" stroke="black" points="1038.9,-666.114 1046.32,-658.55 1035.8,-659.837 1038.9,-666.114"/>
</g>
<!-- itrdb -->
<g id="node10" class="node"><title>itrdb</title>
<path fill="#ffffcc" stroke="black" d="M632,-731C632,-731 602,-731 602,-731 596,-731 590,-725 590,-719 590,-719 590,-707 590,-707 590,-701 596,-695 602,-695 602,-695 632,-695 632,-695 638,-695 644,-701 644,-707 644,-707 644,-719 644,-719 644,-725 638,-731 632,-731"/>
<text text-anchor="middle" x="617" y="-709.3" font-family="Helvetica,sans-Serif" font-size="14.00">itrdb</text>
</g>
<!-- itrdb&#45;&gt;get_predictor_matrix -->
<g id="edge4" class="edge"><title>itrdb&#45;&gt;get_predictor_matrix</title>
<path fill="none" stroke="black" d="M629.253,-694.868C635.174,-686.59 642.459,-676.404 649.277,-666.871"/>
<polygon fill="black" stroke="black" points="652.132,-668.896 655.103,-658.727 646.438,-664.824 652.132,-668.896"/>
</g>
<!-- itrdb&#45;&gt;get_reconstruction_matrix -->
<g id="edge8" class="edge"><title>itrdb&#45;&gt;get_reconstruction_matrix</title>
<path fill="none" stroke="black" d="M589.794,-698.209C586.869,-697.012 583.901,-695.911 581,-695 533.693,-680.141 481.491,-668.817 432.29,-660.282"/>
<polygon fill="black" stroke="black" points="432.613,-656.787 422.167,-658.558 431.437,-663.688 432.613,-656.787"/>
</g>
<!-- prediction_years -->
<g id="node11" class="node"><title>prediction_years</title>
<path fill="#ffffcc" stroke="black" d="M400,-731C400,-731 302,-731 302,-731 296,-731 290,-725 290,-719 290,-719 290,-707 290,-707 290,-701 296,-695 302,-695 302,-695 400,-695 400,-695 406,-695 412,-701 412,-707 412,-707 412,-719 412,-719 412,-725 406,-731 400,-731"/>
<text text-anchor="middle" x="351" y="-709.3" font-family="Helvetica,sans-Serif" font-size="14.00">prediction_years</text>
</g>
<!-- prediction_years&#45;&gt;get_reconstruction_matrix -->
<g id="edge9" class="edge"><title>prediction_years&#45;&gt;get_reconstruction_matrix</title>
<path fill="none" stroke="black" d="M324.678,-694.868C310.803,-685.837 293.44,-674.536 277.697,-664.29"/>
<polygon fill="black" stroke="black" points="279.44,-661.248 269.15,-658.727 275.621,-667.115 279.44,-661.248"/>
</g>
<!-- reconstruction_matrix&#45;&gt;get_predlist -->
<g id="edge12" class="edge"><title>reconstruction_matrix&#45;&gt;get_predlist</title>
<path fill="none" stroke="black" d="M340.892,-539.868C346.048,-531.757 352.369,-521.815 358.323,-512.45"/>
<polygon fill="black" stroke="black" points="361.458,-514.043 363.869,-503.727 355.55,-510.288 361.458,-514.043"/>
</g>
<!-- prism_data_for_coordinates -->
<g id="node13" class="node"><title>prism_data_for_coordinates</title>
<path fill="#ffffcc" stroke="black" d="M1180.5,-576C1180.5,-576 1009.5,-576 1009.5,-576 1003.5,-576 997.5,-570 997.5,-564 997.5,-564 997.5,-552 997.5,-552 997.5,-546 1003.5,-540 1009.5,-540 1009.5,-540 1180.5,-540 1180.5,-540 1186.5,-540 1192.5,-546 1192.5,-552 1192.5,-552 1192.5,-564 1192.5,-564 1192.5,-570 1186.5,-576 1180.5,-576"/>
<text text-anchor="middle" x="1095" y="-554.3" font-family="Helvetica,sans-Serif" font-size="14.00">prism_data_for_coordinates</text>
</g>
<!-- prism_data_for_coordinates&#45;&gt;get_carscores -->
<g id="edge14" class="edge"><title>prism_data_for_coordinates&#45;&gt;get_carscores</title>
<path fill="none" stroke="black" d="M1034.52,-539.962C999.297,-530.039 954.255,-517.35 915.142,-506.331"/>
<polygon fill="black" stroke="black" points="915.909,-502.911 905.335,-503.568 914.011,-509.649 915.909,-502.911"/>
</g>
<!-- predictor_matrix&#45;&gt;get_carscores -->
<g id="edge15" class="edge"><title>predictor_matrix&#45;&gt;get_carscores</title>
<path fill="none" stroke="black" d="M766.699,-539.868C775.597,-531.256 786.628,-520.578 796.813,-510.719"/>
<polygon fill="black" stroke="black" points="799.286,-513.197 804.037,-503.727 794.418,-508.167 799.286,-513.197"/>
</g>
<!-- predlist&#45;&gt;calculate_Models -->
<g id="edge17" class="edge"><title>predlist&#45;&gt;calculate_Models</title>
<path fill="none" stroke="black" d="M489.847,-384.837C506.334,-375.664 526.971,-364.181 545.373,-353.943"/>
<polygon fill="black" stroke="black" points="547.162,-356.953 554.199,-349.032 543.759,-350.836 547.162,-356.953"/>
</g>
<!-- carscores&#45;&gt;calculate_Models -->
<g id="edge18" class="edge"><title>carscores&#45;&gt;calculate_Models</title>
<path fill="none" stroke="black" d="M704.906,-384.837C686.518,-375.581 663.459,-363.973 642.981,-353.664"/>
<polygon fill="black" stroke="black" points="644.286,-350.402 633.78,-349.032 641.139,-356.655 644.286,-350.402"/>
</g>
<!-- max_preds&#45;&gt;calculate_Models -->
<g id="edge19" class="edge"><title>max_preds&#45;&gt;calculate_Models</title>
<path fill="none" stroke="black" d="M592,-462.416C592,-437.495 592,-390.748 592,-359.49"/>
<polygon fill="black" stroke="black" points="595.5,-359.14 592,-349.14 588.5,-359.14 595.5,-359.14"/>
</g>
<!-- linear_models&#45;&gt;optimizeModels -->
<g id="edge21" class="edge"><title>linear_models&#45;&gt;optimizeModels</title>
<path fill="none" stroke="black" d="M592,-232.697C592,-224.983 592,-215.712 592,-207.112"/>
<polygon fill="black" stroke="black" points="595.5,-207.104 592,-197.104 588.5,-207.104 595.5,-207.104"/>
</g>
<!-- calibration_years -->
<g id="node19" class="node"><title>calibration_years</title>
<path fill="#fcfcfc" stroke="black" d="M773.5,-731C773.5,-731 674.5,-731 674.5,-731 668.5,-731 662.5,-725 662.5,-719 662.5,-719 662.5,-707 662.5,-707 662.5,-701 668.5,-695 674.5,-695 674.5,-695 773.5,-695 773.5,-695 779.5,-695 785.5,-701 785.5,-707 785.5,-707 785.5,-719 785.5,-719 785.5,-725 779.5,-731 773.5,-731"/>
<text text-anchor="middle" x="724" y="-709.3" font-family="Helvetica,sans-Serif" font-size="14.00">calibration_years</text>
</g>
<!-- calibration_years&#45;&gt;get_predictor_matrix -->
<g id="edge5" class="edge"><title>calibration_years&#45;&gt;get_predictor_matrix</title>
<path fill="none" stroke="black" d="M711.973,-694.868C706.221,-686.674 699.156,-676.61 692.523,-667.16"/>
<polygon fill="black" stroke="black" points="695.213,-664.9 686.603,-658.727 689.484,-668.922 695.213,-664.9"/>
</g>
<!-- min_width -->
<g id="node20" class="node"><title>min_width</title>
<path fill="#fcfcfc" stroke="black" d="M560,-731C560,-731 504,-731 504,-731 498,-731 492,-725 492,-719 492,-719 492,-707 492,-707 492,-701 498,-695 504,-695 504,-695 560,-695 560,-695 566,-695 572,-701 572,-707 572,-707 572,-719 572,-719 572,-725 566,-731 560,-731"/>
<text text-anchor="middle" x="532" y="-709.3" font-family="Helvetica,sans-Serif" font-size="14.00">min_width</text>
</g>
<!-- min_width&#45;&gt;get_predictor_matrix -->
<g id="edge6" class="edge"><title>min_width&#45;&gt;get_predictor_matrix</title>
<path fill="none" stroke="black" d="M563.541,-694.868C580.621,-685.591 602.112,-673.917 621.379,-663.453"/>
<polygon fill="black" stroke="black" points="623.222,-666.435 630.338,-658.586 619.88,-660.283 623.222,-666.435"/>
</g>
<!-- min_width&#45;&gt;get_reconstruction_matrix -->
<g id="edge10" class="edge"><title>min_width&#45;&gt;get_reconstruction_matrix</title>
<path fill="none" stroke="black" d="M491.945,-701.818C451.103,-691.435 386.197,-674.936 331.84,-661.118"/>
<polygon fill="black" stroke="black" points="332.376,-657.643 321.822,-658.571 330.651,-664.427 332.376,-657.643"/>
</g>
<!-- prediction_years_input_port -->
<g id="node21" class="node"><title>prediction_years_input_port</title>
<ellipse fill="#ffffff" stroke="black" cx="590" cy="-778" rx="7" ry="7"/>
</g>
<!-- prediction_years_input_port&#45;&gt;prediction_years -->
<g id="edge22" class="edge"><title>prediction_years_input_port&#45;&gt;prediction_years</title>
<path fill="none" stroke="black" d="M583.358,-775.249C560.22,-769.15 481.328,-748.354 421.839,-732.673"/>
<polygon fill="black" stroke="black" points="422.659,-729.27 412.098,-730.105 420.875,-736.039 422.659,-729.27"/>
</g>
<!-- prism_data_for_coordinates_input_port -->
<g id="node22" class="node"><title>prism_data_for_coordinates_input_port</title>
<ellipse fill="#ffffff" stroke="black" cx="750" cy="-778" rx="7" ry="7"/>
</g>
<!-- prism_data_for_coordinates_input_port&#45;&gt;prism_data_for_coordinates -->
<g id="edge23" class="edge"><title>prism_data_for_coordinates_input_port&#45;&gt;prism_data_for_coordinates</title>
<path fill="none" stroke="black" d="M757.039,-776.676C815.884,-773.801 1225.54,-750.605 1295,-659 1307.62,-642.355 1307.74,-628.555 1295,-612 1282.78,-596.121 1243.23,-584.017 1202.49,-575.413"/>
<polygon fill="black" stroke="black" points="1203.18,-571.982 1192.69,-573.411 1201.78,-578.84 1203.18,-571.982"/>
</g>
<!-- itrdb_input_port -->
<g id="node23" class="node"><title>itrdb_input_port</title>
<ellipse fill="#ffffff" stroke="black" cx="654" cy="-778" rx="7" ry="7"/>
</g>
<!-- itrdb_input_port&#45;&gt;itrdb -->
<g id="edge24" class="edge"><title>itrdb_input_port&#45;&gt;itrdb</title>
<path fill="none" stroke="black" d="M650.845,-771.629C646.695,-764.562 639.114,-751.654 632.178,-739.843"/>
<polygon fill="black" stroke="black" points="635.148,-737.99 627.066,-731.14 629.112,-741.535 635.148,-737.99"/>
</g>
<!-- calibration_years_input_port -->
<g id="node24" class="node"><title>calibration_years_input_port</title>
<ellipse fill="#ffffff" stroke="black" cx="686" cy="-778" rx="7" ry="7"/>
</g>
<!-- calibration_years_input_port&#45;&gt;calibration_years -->
<g id="edge25" class="edge"><title>calibration_years_input_port&#45;&gt;calibration_years</title>
<path fill="none" stroke="black" d="M689.24,-771.629C693.502,-764.562 701.288,-751.654 708.412,-739.843"/>
<polygon fill="black" stroke="black" points="711.494,-741.51 713.662,-731.14 705.5,-737.895 711.494,-741.51"/>
</g>
<!-- min_width_input_port -->
<g id="node25" class="node"><title>min_width_input_port</title>
<ellipse fill="#ffffff" stroke="black" cx="622" cy="-778" rx="7" ry="7"/>
</g>
<!-- min_width_input_port&#45;&gt;min_width -->
<g id="edge26" class="edge"><title>min_width_input_port&#45;&gt;min_width</title>
<path fill="none" stroke="black" d="M619.316,-771.527C616.606,-766.541 611.971,-759.316 606,-755 596.545,-748.166 591.499,-752.087 581,-747 575.064,-744.124 569.018,-740.61 563.292,-736.961"/>
<polygon fill="black" stroke="black" points="564.883,-733.815 554.619,-731.186 561.003,-739.641 564.883,-733.815"/>
</g>
<!-- verbose_input_port -->
<g id="node26" class="node"><title>verbose_input_port</title>
<ellipse fill="#ffffff" stroke="black" cx="718" cy="-778" rx="7" ry="7"/>
</g>
<!-- verbose_input_port&#45;&gt;verbose -->
<g id="edge27" class="edge"><title>verbose_input_port&#45;&gt;verbose</title>
<path fill="none" stroke="black" d="M720.518,-771.275C723.111,-766.11 727.667,-758.764 734,-755 757.506,-741.031 768.092,-751.858 795,-747 828.385,-740.973 865.726,-732.289 893.877,-725.341"/>
<polygon fill="black" stroke="black" points="894.95,-728.681 903.808,-722.868 893.258,-721.888 894.95,-728.681"/>
</g>
</g>
</svg>
