<?xml version="1.0" encoding="UTF-8" standalone="no"?>
<!DOCTYPE svg PUBLIC "-//W3C//DTD SVG 1.1//EN"
 "http://www.w3.org/Graphics/SVG/1.1/DTD/svg11.dtd">
<!-- Generated by graphviz version 2.38.0 (20140413.2041)
 -->
<!-- Title: Workflow Pages: 1 -->
<svg width="1583pt" height="571pt"
 viewBox="0.00 0.00 1583.43 571.00" xmlns="http://www.w3.org/2000/svg" xmlns:xlink="http://www.w3.org/1999/xlink">
<g id="graph0" class="graph" transform="scale(1 1) rotate(0) translate(4 567)">
<title>Workflow</title>
<polygon fill="white" stroke="none" points="-4,4 -4,-567 1579.43,-567 1579.43,4 -4,4"/>
<text text-anchor="middle" x="787.714" y="-544.6" font-family="Helvetica,sans-Serif" font-size="18.00">exec_paleocar</text>
<g id="clust1" class="cluster"><title>cluster_workflow_box_outer</title>
<polygon fill="none" stroke="black" stroke-width="2" points="8,-62 8,-473 1518,-473 1518,-62 8,-62"/>
</g>
<g id="clust2" class="cluster"><title>cluster_workflow_box_inner</title>
<polygon fill="none" stroke="black" stroke-width="0" points="16,-70 16,-465 1510,-465 1510,-70 16,-70"/>
</g>
<g id="clust3" class="cluster"><title>cluster_input_ports_group_outer</title>
<polygon fill="none" stroke="black" stroke-width="0" points="857,-481 857,-527 1063,-527 1063,-481 857,-481"/>
</g>
<g id="clust4" class="cluster"><title>cluster_input_ports_group_inner</title>
<polygon fill="none" stroke="black" stroke-width="0" points="865,-489 865,-519 1055,-519 1055,-489 865,-489"/>
</g>
<g id="clust5" class="cluster"><title>cluster_output_ports_group_outer</title>
<polygon fill="none" stroke="black" stroke-width="0" points="1032,-8 1032,-54 1238,-54 1238,-8 1032,-8"/>
</g>
<g id="clust6" class="cluster"><title>cluster_output_ports_group_inner</title>
<polygon fill="none" stroke="black" stroke-width="0" points="1040,-16 1040,-46 1230,-46 1230,-16 1040,-16"/>
</g>
<!-- create_paleocar_model -->
<g id="node1" class="node"><title>create_paleocar_model</title>
<polygon fill="#ccffcc" stroke="black" points="745.5,-327.5 745.5,-373.5 1210.5,-373.5 1210.5,-327.5 745.5,-327.5"/>
<text text-anchor="middle" x="978" y="-358.3" font-family="Helvetica,sans-Serif" font-size="14.00">create_paleocar_model</text>
<polyline fill="none" stroke="black" points="745.5,-350.5 1210.5,-350.5 "/>
<text text-anchor="middle" x="978" y="-335.3" font-family="Helvetica,sans-Serif" font-size="14.00">generate paleocar models for predicting the climate for the given years.</text>
</g>
<!-- paleocar_models -->
<g id="node6" class="node"><title>paleocar_models</title>
<path fill="#ffffcc" stroke="black" d="M792,-244.5C792,-244.5 1104,-244.5 1104,-244.5 1110,-244.5 1116,-250.5 1116,-256.5 1116,-256.5 1116,-278.5 1116,-278.5 1116,-284.5 1110,-290.5 1104,-290.5 1104,-290.5 792,-290.5 792,-290.5 786,-290.5 780,-284.5 780,-278.5 780,-278.5 780,-256.5 780,-256.5 780,-250.5 786,-244.5 792,-244.5"/>
<text text-anchor="middle" x="948" y="-275.3" font-family="Helvetica,sans-Serif" font-size="14.00">paleocar_models</text>
<polyline fill="none" stroke="black" points="780,-267.5 1116,-267.5 "/>
<text text-anchor="middle" x="948" y="-252.3" font-family="Helvetica,sans-Serif" font-size="14.00">file:.output/{session_id}/{run_id}/{label}_model.Rds</text>
</g>
<!-- create_paleocar_model&#45;&gt;paleocar_models -->
<g id="edge1" class="edge"><title>create_paleocar_model&#45;&gt;paleocar_models</title>
<path fill="none" stroke="black" d="M969.802,-327.366C966.694,-318.973 963.091,-309.245 959.72,-300.143"/>
<polygon fill="black" stroke="black" points="962.943,-298.769 956.188,-290.607 956.379,-301.2 962.943,-298.769"/>
</g>
<!-- paleocar_log_file -->
<g id="node9" class="node"><title>paleocar_log_file</title>
<path fill="#ffffcc" stroke="black" d="M1146,-244.5C1146,-244.5 1490,-244.5 1490,-244.5 1496,-244.5 1502,-250.5 1502,-256.5 1502,-256.5 1502,-278.5 1502,-278.5 1502,-284.5 1496,-290.5 1490,-290.5 1490,-290.5 1146,-290.5 1146,-290.5 1140,-290.5 1134,-284.5 1134,-278.5 1134,-278.5 1134,-256.5 1134,-256.5 1134,-250.5 1140,-244.5 1146,-244.5"/>
<text text-anchor="middle" x="1318" y="-275.3" font-family="Helvetica,sans-Serif" font-size="14.00">paleocar_log_file</text>
<polyline fill="none" stroke="black" points="1134,-267.5 1502,-267.5 "/>
<text text-anchor="middle" x="1318" y="-252.3" font-family="Helvetica,sans-Serif" font-size="14.00">file:.output/{session_id}/{run_id}/paleocar_model_log.txt</text>
</g>
<!-- create_paleocar_model&#45;&gt;paleocar_log_file -->
<g id="edge2" class="edge"><title>create_paleocar_model&#45;&gt;paleocar_log_file</title>
<path fill="none" stroke="black" d="M1070.46,-327.473C1115.44,-316.758 1169.63,-303.847 1215.83,-292.841"/>
<polygon fill="black" stroke="black" points="1216.64,-296.245 1225.56,-290.522 1215.02,-289.435 1216.64,-296.245"/>
</g>
<!-- extract_prediction_model -->
<g id="node2" class="node"><title>extract_prediction_model</title>
<polygon fill="#ccffcc" stroke="black" points="771.5,-161.5 771.5,-207.5 1236.5,-207.5 1236.5,-161.5 771.5,-161.5"/>
<text text-anchor="middle" x="1004" y="-192.3" font-family="Helvetica,sans-Serif" font-size="14.00">extract_prediction_model</text>
<polyline fill="none" stroke="black" points="771.5,-184.5 1236.5,-184.5 "/>
<text text-anchor="middle" x="1004" y="-169.3" font-family="Helvetica,sans-Serif" font-size="14.00">generate paleocar models for predicting the climate for the given years.</text>
</g>
<!-- prediction_graph -->
<g id="node7" class="node"><title>prediction_graph</title>
<path fill="#ffffcc" stroke="black" d="M784,-78.5C784,-78.5 1112,-78.5 1112,-78.5 1118,-78.5 1124,-84.5 1124,-90.5 1124,-90.5 1124,-112.5 1124,-112.5 1124,-118.5 1118,-124.5 1112,-124.5 1112,-124.5 784,-124.5 784,-124.5 778,-124.5 772,-118.5 772,-112.5 772,-112.5 772,-90.5 772,-90.5 772,-84.5 778,-78.5 784,-78.5"/>
<text text-anchor="middle" x="948" y="-109.3" font-family="Helvetica,sans-Serif" font-size="14.00">prediction_graph</text>
<polyline fill="none" stroke="black" points="772,-101.5 1124,-101.5 "/>
<text text-anchor="middle" x="948" y="-86.3" font-family="Helvetica,sans-Serif" font-size="14.00">file:.output/{session_id}/{run_id}/{label}_prediction.jpg</text>
</g>
<!-- extract_prediction_model&#45;&gt;prediction_graph -->
<g id="edge9" class="edge"><title>extract_prediction_model&#45;&gt;prediction_graph</title>
<path fill="none" stroke="black" d="M988.698,-161.366C982.648,-152.616 975.595,-142.414 969.076,-132.985"/>
<polygon fill="black" stroke="black" points="971.85,-130.842 963.284,-124.607 966.092,-134.823 971.85,-130.842"/>
</g>
<!-- prediction_model -->
<g id="node8" class="node"><title>prediction_model</title>
<path fill="#ffffcc" stroke="black" d="M1154.5,-78.5C1154.5,-78.5 1489.5,-78.5 1489.5,-78.5 1495.5,-78.5 1501.5,-84.5 1501.5,-90.5 1501.5,-90.5 1501.5,-112.5 1501.5,-112.5 1501.5,-118.5 1495.5,-124.5 1489.5,-124.5 1489.5,-124.5 1154.5,-124.5 1154.5,-124.5 1148.5,-124.5 1142.5,-118.5 1142.5,-112.5 1142.5,-112.5 1142.5,-90.5 1142.5,-90.5 1142.5,-84.5 1148.5,-78.5 1154.5,-78.5"/>
<text text-anchor="middle" x="1322" y="-109.3" font-family="Helvetica,sans-Serif" font-size="14.00">prediction_model</text>
<polyline fill="none" stroke="black" points="1142.5,-101.5 1501.5,-101.5 "/>
<text text-anchor="middle" x="1322" y="-86.3" font-family="Helvetica,sans-Serif" font-size="14.00">file:.output/{session_id}/{run_id}/{label}_prediction.Rds</text>
</g>
<!-- extract_prediction_model&#45;&gt;prediction_model -->
<g id="edge10" class="edge"><title>extract_prediction_model&#45;&gt;prediction_model</title>
<path fill="none" stroke="black" d="M1090.47,-161.473C1132.28,-150.825 1182.59,-138.009 1225.63,-127.048"/>
<polygon fill="black" stroke="black" points="1226.72,-130.382 1235.54,-124.522 1224.99,-123.599 1226.72,-130.382"/>
</g>
<!-- extract_uncertainty_model -->
<g id="node3" class="node"><title>extract_uncertainty_model</title>
<polygon fill="#ccffcc" stroke="black" points="288.5,-161.5 288.5,-207.5 753.5,-207.5 753.5,-161.5 288.5,-161.5"/>
<text text-anchor="middle" x="521" y="-192.3" font-family="Helvetica,sans-Serif" font-size="14.00">extract_uncertainty_model</text>
<polyline fill="none" stroke="black" points="288.5,-184.5 753.5,-184.5 "/>
<text text-anchor="middle" x="521" y="-169.3" font-family="Helvetica,sans-Serif" font-size="14.00">generate paleocar models for predicting the climate for the given years.</text>
</g>
<!-- uncertainty_model -->
<g id="node10" class="node"><title>uncertainty_model</title>
<path fill="#ffffcc" stroke="black" d="M36.5,-78.5C36.5,-78.5 371.5,-78.5 371.5,-78.5 377.5,-78.5 383.5,-84.5 383.5,-90.5 383.5,-90.5 383.5,-112.5 383.5,-112.5 383.5,-118.5 377.5,-124.5 371.5,-124.5 371.5,-124.5 36.5,-124.5 36.5,-124.5 30.5,-124.5 24.5,-118.5 24.5,-112.5 24.5,-112.5 24.5,-90.5 24.5,-90.5 24.5,-84.5 30.5,-78.5 36.5,-78.5"/>
<text text-anchor="middle" x="204" y="-109.3" font-family="Helvetica,sans-Serif" font-size="14.00">uncertainty_model</text>
<polyline fill="none" stroke="black" points="24.5,-101.5 383.5,-101.5 "/>
<text text-anchor="middle" x="204" y="-86.3" font-family="Helvetica,sans-Serif" font-size="14.00">file:.output/{session_id}/{run_id}/{label}_prediction.Rds</text>
</g>
<!-- extract_uncertainty_model&#45;&gt;uncertainty_model -->
<g id="edge14" class="edge"><title>extract_uncertainty_model&#45;&gt;uncertainty_model</title>
<path fill="none" stroke="black" d="M434.797,-161.473C393.125,-150.825 342.967,-138.009 300.07,-127.048"/>
<polygon fill="black" stroke="black" points="300.741,-123.607 290.186,-124.522 299.008,-130.389 300.741,-123.607"/>
</g>
<!-- uncertainty_graph -->
<g id="node11" class="node"><title>uncertainty_graph</title>
<path fill="#ffffcc" stroke="black" d="M414,-78.5C414,-78.5 742,-78.5 742,-78.5 748,-78.5 754,-84.5 754,-90.5 754,-90.5 754,-112.5 754,-112.5 754,-118.5 748,-124.5 742,-124.5 742,-124.5 414,-124.5 414,-124.5 408,-124.5 402,-118.5 402,-112.5 402,-112.5 402,-90.5 402,-90.5 402,-84.5 408,-78.5 414,-78.5"/>
<text text-anchor="middle" x="578" y="-109.3" font-family="Helvetica,sans-Serif" font-size="14.00">uncertainty_graph</text>
<polyline fill="none" stroke="black" points="402,-101.5 754,-101.5 "/>
<text text-anchor="middle" x="578" y="-86.3" font-family="Helvetica,sans-Serif" font-size="14.00">file:.output/{session_id}/{run_id}/{label}_prediction.jpg</text>
</g>
<!-- extract_uncertainty_model&#45;&gt;uncertainty_graph -->
<g id="edge13" class="edge"><title>extract_uncertainty_model&#45;&gt;uncertainty_graph</title>
<path fill="none" stroke="black" d="M536.576,-161.366C542.733,-152.616 549.912,-142.414 556.548,-132.985"/>
<polygon fill="black" stroke="black" points="559.551,-134.799 562.443,-124.607 553.826,-130.771 559.551,-134.799"/>
</g>
<!-- prediction_years -->
<g id="node4" class="node"><title>prediction_years</title>
<path fill="#ffffcc" stroke="black" d="M701,-451.5C701,-451.5 603,-451.5 603,-451.5 597,-451.5 591,-445.5 591,-439.5 591,-439.5 591,-427.5 591,-427.5 591,-421.5 597,-415.5 603,-415.5 603,-415.5 701,-415.5 701,-415.5 707,-415.5 713,-421.5 713,-427.5 713,-427.5 713,-439.5 713,-439.5 713,-445.5 707,-451.5 701,-451.5"/>
<text text-anchor="middle" x="652" y="-429.8" font-family="Helvetica,sans-Serif" font-size="14.00">prediction_years</text>
</g>
<!-- prediction_years&#45;&gt;create_paleocar_model -->
<g id="edge7" class="edge"><title>prediction_years&#45;&gt;create_paleocar_model</title>
<path fill="none" stroke="black" d="M703.457,-415.404C709.681,-413.501 715.968,-411.655 722,-410 767.574,-397.494 818.214,-385.524 862.346,-375.706"/>
<polygon fill="black" stroke="black" points="863.235,-379.094 872.242,-373.516 861.722,-372.26 863.235,-379.094"/>
</g>
<!-- prediction_years&#45;&gt;extract_prediction_model -->
<g id="edge11" class="edge"><title>prediction_years&#45;&gt;extract_prediction_model</title>
<path fill="none" stroke="black" d="M657.795,-415.345C671.317,-378.021 708.626,-289.176 771,-244 790.668,-229.755 813.443,-218.963 836.894,-210.792"/>
<polygon fill="black" stroke="black" points="838.233,-214.035 846.62,-207.561 836.026,-207.392 838.233,-214.035"/>
</g>
<!-- prediction_years&#45;&gt;extract_uncertainty_model -->
<g id="edge15" class="edge"><title>prediction_years&#45;&gt;extract_uncertainty_model</title>
<path fill="none" stroke="black" d="M642.788,-415.131C620.867,-373.799 565.356,-269.133 537.49,-216.591"/>
<polygon fill="black" stroke="black" points="540.56,-214.911 532.783,-207.716 534.376,-218.19 540.56,-214.911"/>
</g>
<!-- prism_data_for_coordinates -->
<g id="node5" class="node"><title>prism_data_for_coordinates</title>
<path fill="#ffffcc" stroke="black" d="M1195.5,-410.5C1195.5,-410.5 1458.5,-410.5 1458.5,-410.5 1464.5,-410.5 1470.5,-416.5 1470.5,-422.5 1470.5,-422.5 1470.5,-444.5 1470.5,-444.5 1470.5,-450.5 1464.5,-456.5 1458.5,-456.5 1458.5,-456.5 1195.5,-456.5 1195.5,-456.5 1189.5,-456.5 1183.5,-450.5 1183.5,-444.5 1183.5,-444.5 1183.5,-422.5 1183.5,-422.5 1183.5,-416.5 1189.5,-410.5 1195.5,-410.5"/>
<text text-anchor="middle" x="1327" y="-441.3" font-family="Helvetica,sans-Serif" font-size="14.00">prism_data_for_coordinates</text>
<polyline fill="none" stroke="black" points="1183.5,-433.5 1470.5,-433.5 "/>
<text text-anchor="middle" x="1327" y="-418.3" font-family="Helvetica,sans-Serif" font-size="14.00">.output/{session_id}/{run_id}/112W36N.csv</text>
</g>
<!-- prism_data_for_coordinates&#45;&gt;create_paleocar_model -->
<g id="edge8" class="edge"><title>prism_data_for_coordinates&#45;&gt;create_paleocar_model</title>
<path fill="none" stroke="black" d="M1232.1,-410.473C1185.93,-399.758 1130.3,-386.847 1082.87,-375.841"/>
<polygon fill="black" stroke="black" points="1083.42,-372.374 1072.89,-373.522 1081.84,-379.193 1083.42,-372.374"/>
</g>
<!-- paleocar_models&#45;&gt;extract_prediction_model -->
<g id="edge12" class="edge"><title>paleocar_models&#45;&gt;extract_prediction_model</title>
<path fill="none" stroke="black" d="M963.302,-244.366C969.352,-235.616 976.405,-225.414 982.924,-215.985"/>
<polygon fill="black" stroke="black" points="985.908,-217.823 988.716,-207.607 980.15,-213.842 985.908,-217.823"/>
</g>
<!-- paleocar_models&#45;&gt;extract_uncertainty_model -->
<g id="edge16" class="edge"><title>paleocar_models&#45;&gt;extract_uncertainty_model</title>
<path fill="none" stroke="black" d="M831.884,-244.473C774.688,-233.624 705.625,-220.522 647.133,-209.427"/>
<polygon fill="black" stroke="black" points="647.57,-205.947 637.092,-207.522 646.265,-212.825 647.57,-205.947"/>
</g>
<!-- paleocar_models_output_port -->
<g id="node27" class="node"><title>paleocar_models_output_port</title>
<ellipse fill="#ffffff" stroke="black" cx="1183" cy="-31" rx="7" ry="7"/>
</g>
<!-- paleocar_models&#45;&gt;paleocar_models_output_port -->
<g id="edge28" class="edge"><title>paleocar_models&#45;&gt;paleocar_models_output_port</title>
<path fill="none" stroke="black" d="M1069.21,-244.469C1226.66,-214.596 1484.65,-160.863 1511,-125 1527.58,-102.435 1530.54,-82.0511 1511,-62 1498.9,-49.5833 1214.35,-62.0655 1199,-54 1195.74,-52.2865 1192.98,-49.5748 1190.72,-46.6322"/>
<polygon fill="black" stroke="black" points="1193.6,-44.6287 1185.43,-37.8794 1187.61,-48.2485 1193.6,-44.6287"/>
</g>
<!-- prediction_graph_output_port -->
<g id="node22" class="node"><title>prediction_graph_output_port</title>
<ellipse fill="#ffffff" stroke="black" cx="1119" cy="-31" rx="7" ry="7"/>
</g>
<!-- prediction_graph&#45;&gt;prediction_graph_output_port -->
<g id="edge23" class="edge"><title>prediction_graph&#45;&gt;prediction_graph_output_port</title>
<path fill="none" stroke="black" d="M1055.24,-78.368C1072.11,-72.1241 1088.68,-64.1557 1103,-54 1106.01,-51.8694 1108.66,-48.9948 1110.91,-46.0274"/>
<polygon fill="black" stroke="black" points="1113.92,-47.8139 1116.33,-37.4976 1108.01,-44.0573 1113.92,-47.8139"/>
</g>
<!-- prediction_model_output_port -->
<g id="node23" class="node"><title>prediction_model_output_port</title>
<ellipse fill="#ffffff" stroke="black" cx="1151" cy="-31" rx="7" ry="7"/>
</g>
<!-- prediction_model&#45;&gt;prediction_model_output_port -->
<g id="edge24" class="edge"><title>prediction_model&#45;&gt;prediction_model_output_port</title>
<path fill="none" stroke="black" d="M1214.76,-78.368C1197.89,-72.1241 1181.32,-64.1557 1167,-54 1163.99,-51.8694 1161.34,-48.9948 1159.09,-46.0274"/>
<polygon fill="black" stroke="black" points="1161.99,-44.0573 1153.67,-37.4976 1156.08,-47.8139 1161.99,-44.0573"/>
</g>
<!-- paleocar_log_file_output_port -->
<g id="node24" class="node"><title>paleocar_log_file_output_port</title>
<ellipse fill="#ffffff" stroke="black" cx="1215" cy="-31" rx="7" ry="7"/>
</g>
<!-- paleocar_log_file&#45;&gt;paleocar_log_file_output_port -->
<g id="edge25" class="edge"><title>paleocar_log_file&#45;&gt;paleocar_log_file_output_port</title>
<path fill="none" stroke="black" d="M1458.84,-244.466C1497.51,-235.393 1532.12,-223.343 1544,-208 1583.72,-156.689 1587.75,-109.921 1544,-62 1522.79,-38.7724 1296.39,-33.3243 1232,-32.2404"/>
<polygon fill="black" stroke="black" points="1232,-28.7401 1221.94,-32.0855 1231.89,-35.7392 1232,-28.7401"/>
</g>
<!-- uncertainty_model_output_port -->
<g id="node25" class="node"><title>uncertainty_model_output_port</title>
<ellipse fill="#ffffff" stroke="black" cx="1055" cy="-31" rx="7" ry="7"/>
</g>
<!-- uncertainty_model&#45;&gt;uncertainty_model_output_port -->
<g id="edge26" class="edge"><title>uncertainty_model&#45;&gt;uncertainty_model_output_port</title>
<path fill="none" stroke="black" d="M297.738,-78.4045C327.981,-72.0833 361.761,-65.8657 393,-62 647.692,-30.4829 961.158,-31.1131 1037.6,-31.7969"/>
<polygon fill="black" stroke="black" points="1037.75,-35.2986 1047.78,-31.9022 1037.82,-28.299 1037.75,-35.2986"/>
</g>
<!-- uncertainty_graph_output_port -->
<g id="node26" class="node"><title>uncertainty_graph_output_port</title>
<ellipse fill="#ffffff" stroke="black" cx="1087" cy="-31" rx="7" ry="7"/>
</g>
<!-- uncertainty_graph&#45;&gt;uncertainty_graph_output_port -->
<g id="edge27" class="edge"><title>uncertainty_graph&#45;&gt;uncertainty_graph_output_port</title>
<path fill="none" stroke="black" d="M667.804,-78.4376C697.88,-71.9538 731.716,-65.6318 763,-62 780.003,-60.0261 1055.85,-61.9646 1071,-54 1074.26,-52.2859 1077.02,-49.574 1079.28,-46.6314"/>
<polygon fill="black" stroke="black" points="1082.39,-48.248 1084.57,-37.8789 1076.4,-44.628 1082.39,-48.248"/>
</g>
<!-- label -->
<g id="node12" class="node"><title>label</title>
<path fill="#fcfcfc" stroke="black" d="M1153,-451.5C1153,-451.5 1123,-451.5 1123,-451.5 1117,-451.5 1111,-445.5 1111,-439.5 1111,-439.5 1111,-427.5 1111,-427.5 1111,-421.5 1117,-415.5 1123,-415.5 1123,-415.5 1153,-415.5 1153,-415.5 1159,-415.5 1165,-421.5 1165,-427.5 1165,-427.5 1165,-439.5 1165,-439.5 1165,-445.5 1159,-451.5 1153,-451.5"/>
<text text-anchor="middle" x="1138" y="-429.8" font-family="Helvetica,sans-Serif" font-size="14.00">label</text>
</g>
<!-- label&#45;&gt;create_paleocar_model -->
<g id="edge3" class="edge"><title>label&#45;&gt;create_paleocar_model</title>
<path fill="none" stroke="black" d="M1111.47,-415.434C1108.31,-413.546 1105.11,-411.695 1102,-410 1081.35,-398.724 1058.15,-387.433 1037.46,-377.82"/>
<polygon fill="black" stroke="black" points="1038.69,-374.535 1028.15,-373.528 1035.76,-380.893 1038.69,-374.535"/>
</g>
<!-- calibration_years -->
<g id="node13" class="node"><title>calibration_years</title>
<path fill="#fcfcfc" stroke="black" d="M1080.5,-451.5C1080.5,-451.5 981.5,-451.5 981.5,-451.5 975.5,-451.5 969.5,-445.5 969.5,-439.5 969.5,-439.5 969.5,-427.5 969.5,-427.5 969.5,-421.5 975.5,-415.5 981.5,-415.5 981.5,-415.5 1080.5,-415.5 1080.5,-415.5 1086.5,-415.5 1092.5,-421.5 1092.5,-427.5 1092.5,-427.5 1092.5,-439.5 1092.5,-439.5 1092.5,-445.5 1086.5,-451.5 1080.5,-451.5"/>
<text text-anchor="middle" x="1031" y="-429.8" font-family="Helvetica,sans-Serif" font-size="14.00">calibration_years</text>
</g>
<!-- calibration_years&#45;&gt;create_paleocar_model -->
<g id="edge4" class="edge"><title>calibration_years&#45;&gt;create_paleocar_model</title>
<path fill="none" stroke="black" d="M1019.76,-415.322C1013.48,-405.721 1005.46,-393.469 998.134,-382.27"/>
<polygon fill="black" stroke="black" points="1000.86,-380.038 992.452,-373.587 994.998,-383.871 1000.86,-380.038"/>
</g>
<!-- itrdb -->
<g id="node14" class="node"><title>itrdb</title>
<path fill="#fcfcfc" stroke="black" d="M841,-410.5C841,-410.5 939,-410.5 939,-410.5 945,-410.5 951,-416.5 951,-422.5 951,-422.5 951,-444.5 951,-444.5 951,-450.5 945,-456.5 939,-456.5 939,-456.5 841,-456.5 841,-456.5 835,-456.5 829,-450.5 829,-444.5 829,-444.5 829,-422.5 829,-422.5 829,-416.5 835,-410.5 841,-410.5"/>
<text text-anchor="middle" x="890" y="-441.3" font-family="Helvetica,sans-Serif" font-size="14.00">itrdb</text>
<polyline fill="none" stroke="black" points="829,-433.5 951,-433.5 "/>
<text text-anchor="middle" x="890" y="-418.3" font-family="Helvetica,sans-Serif" font-size="14.00">data/ITRDB.Rda</text>
</g>
<!-- itrdb&#45;&gt;create_paleocar_model -->
<g id="edge5" class="edge"><title>itrdb&#45;&gt;create_paleocar_model</title>
<path fill="none" stroke="black" d="M914.046,-410.366C924.038,-401.169 935.772,-390.369 946.441,-380.548"/>
<polygon fill="black" stroke="black" points="948.995,-382.954 953.983,-373.607 944.255,-377.804 948.995,-382.954"/>
</g>
<!-- min_width -->
<g id="node15" class="node"><title>min_width</title>
<path fill="#fcfcfc" stroke="black" d="M799,-451.5C799,-451.5 743,-451.5 743,-451.5 737,-451.5 731,-445.5 731,-439.5 731,-439.5 731,-427.5 731,-427.5 731,-421.5 737,-415.5 743,-415.5 743,-415.5 799,-415.5 799,-415.5 805,-415.5 811,-421.5 811,-427.5 811,-427.5 811,-439.5 811,-439.5 811,-445.5 805,-451.5 799,-451.5"/>
<text text-anchor="middle" x="771" y="-429.8" font-family="Helvetica,sans-Serif" font-size="14.00">min_width</text>
</g>
<!-- min_width&#45;&gt;create_paleocar_model -->
<g id="edge6" class="edge"><title>min_width&#45;&gt;create_paleocar_model</title>
<path fill="none" stroke="black" d="M807.256,-415.48C811.531,-413.584 815.849,-411.719 820,-410 847.56,-398.59 878.234,-386.987 905.169,-377.156"/>
<polygon fill="black" stroke="black" points="906.706,-380.322 914.91,-373.618 904.316,-373.742 906.706,-380.322"/>
</g>
<!-- prediction_years_input_port -->
<g id="node16" class="node"><title>prediction_years_input_port</title>
<ellipse fill="#ffffff" stroke="black" cx="880" cy="-504" rx="7" ry="7"/>
</g>
<!-- prediction_years_input_port&#45;&gt;prediction_years -->
<g id="edge17" class="edge"><title>prediction_years_input_port&#45;&gt;prediction_years</title>
<path fill="none" stroke="black" d="M872.861,-502.449C850.179,-500.529 777.962,-493.126 722,-473 710.172,-468.746 697.946,-462.679 687.086,-456.616"/>
<polygon fill="black" stroke="black" points="688.736,-453.527 678.324,-451.564 685.239,-459.591 688.736,-453.527"/>
</g>
<!-- prism_data_for_coordinates_input_port -->
<g id="node17" class="node"><title>prism_data_for_coordinates_input_port</title>
<ellipse fill="#ffffff" stroke="black" cx="1040" cy="-504" rx="7" ry="7"/>
</g>
<!-- prism_data_for_coordinates_input_port&#45;&gt;prism_data_for_coordinates -->
<g id="edge18" class="edge"><title>prism_data_for_coordinates_input_port&#45;&gt;prism_data_for_coordinates</title>
<path fill="none" stroke="black" d="M1046.71,-501.564C1066.33,-497.348 1125.29,-484.578 1174,-473 1192.49,-468.604 1212.21,-463.761 1231.12,-459.038"/>
<polygon fill="black" stroke="black" points="1232.07,-462.407 1240.92,-456.582 1230.37,-455.617 1232.07,-462.407"/>
</g>
<!-- itrdb_input_port -->
<g id="node18" class="node"><title>itrdb_input_port</title>
<ellipse fill="#ffffff" stroke="black" cx="944" cy="-504" rx="7" ry="7"/>
</g>
<!-- itrdb_input_port&#45;&gt;itrdb -->
<g id="edge19" class="edge"><title>itrdb_input_port&#45;&gt;itrdb</title>
<path fill="none" stroke="black" d="M940.394,-497.872C937.203,-493.374 932.384,-486.684 928,-481 923.808,-475.564 919.258,-469.849 914.812,-464.356"/>
<polygon fill="black" stroke="black" points="917.46,-462.065 908.427,-456.529 912.036,-466.49 917.46,-462.065"/>
</g>
<!-- calibration_years_input_port -->
<g id="node19" class="node"><title>calibration_years_input_port</title>
<ellipse fill="#ffffff" stroke="black" cx="976" cy="-504" rx="7" ry="7"/>
</g>
<!-- calibration_years_input_port&#45;&gt;calibration_years -->
<g id="edge20" class="edge"><title>calibration_years_input_port&#45;&gt;calibration_years</title>
<path fill="none" stroke="black" d="M979.588,-497.858C982.768,-493.352 987.58,-486.656 992,-481 997.503,-473.959 1003.64,-466.479 1009.39,-459.625"/>
<polygon fill="black" stroke="black" points="1012.11,-461.825 1015.89,-451.929 1006.76,-457.306 1012.11,-461.825"/>
</g>
<!-- label_input_port -->
<g id="node20" class="node"><title>label_input_port</title>
<ellipse fill="#ffffff" stroke="black" cx="1008" cy="-504" rx="7" ry="7"/>
</g>
<!-- label_input_port&#45;&gt;label -->
<g id="edge21" class="edge"><title>label_input_port&#45;&gt;label</title>
<path fill="none" stroke="black" d="M1010.49,-497.234C1013.07,-492.04 1017.61,-484.674 1024,-481 1054.21,-463.621 1070.78,-488.489 1102,-473 1108.5,-469.775 1114.43,-464.856 1119.51,-459.6"/>
<polygon fill="black" stroke="black" points="1122.37,-461.646 1126.33,-451.817 1117.11,-457.033 1122.37,-461.646"/>
</g>
<!-- min_width_input_port -->
<g id="node21" class="node"><title>min_width_input_port</title>
<ellipse fill="#ffffff" stroke="black" cx="912" cy="-504" rx="7" ry="7"/>
</g>
<!-- min_width_input_port&#45;&gt;min_width -->
<g id="edge22" class="edge"><title>min_width_input_port&#45;&gt;min_width</title>
<path fill="none" stroke="black" d="M909.504,-497.238C906.927,-492.047 902.381,-484.683 896,-481 866.583,-464.023 851.473,-485.769 820,-473 811.498,-469.55 803.251,-464.161 796.023,-458.495"/>
<polygon fill="black" stroke="black" points="797.966,-455.557 788.053,-451.817 793.47,-460.922 797.966,-455.557"/>
</g>
</g>
</svg>
