<?xml version="1.0" encoding="UTF-8" standalone="no"?>
<!DOCTYPE svg PUBLIC "-//W3C//DTD SVG 1.1//EN"
 "http://www.w3.org/Graphics/SVG/1.1/DTD/svg11.dtd">
<!-- Generated by graphviz version 2.38.0 (20140413.2041)
 -->
<!-- Title: Workflow Pages: 1 -->
<svg width="320pt" height="576pt"
 viewBox="0.00 0.00 320.00 576.00" xmlns="http://www.w3.org/2000/svg" xmlns:xlink="http://www.w3.org/1999/xlink">
<g id="graph0" class="graph" transform="scale(1 1) rotate(0) translate(4 572)">
<title>Workflow</title>
<polygon fill="white" stroke="none" points="-4,4 -4,-572 316,-572 316,4 -4,4"/>
<g id="clust1" class="cluster"><title>cluster_workflow_box_outer</title>
<polygon fill="none" stroke="black" stroke-width="2" points="8,-34 8,-534 304,-534 304,-34 8,-34"/>
</g>
<g id="clust2" class="cluster"><title>cluster_workflow_box_inner</title>
<polygon fill="none" stroke="black" stroke-width="0" points="16,-42 16,-526 296,-526 296,-42 16,-42"/>
</g>
<!-- defineLinearModels -->
<g id="node1" class="node"><title>defineLinearModels</title>
<polygon fill="#ccffcc" stroke="black" points="217,-446 75,-446 75,-410 217,-410 217,-446"/>
<text text-anchor="middle" x="146" y="-424.3" font-family="Helvetica,sans-Serif" font-size="14.00">defineLinearModels</text>
</g>
<!-- models -->
<g id="node8" class="node"><title>models</title>
<path fill="#ffffcc" stroke="black" d="M101,-374C101,-374 61,-374 61,-374 55,-374 49,-368 49,-362 49,-362 49,-350 49,-350 49,-344 55,-338 61,-338 61,-338 101,-338 101,-338 107,-338 113,-344 113,-350 113,-350 113,-362 113,-362 113,-368 107,-374 101,-374"/>
<text text-anchor="middle" x="81" y="-352.3" font-family="Helvetica,sans-Serif" font-size="14.00">models</text>
</g>
<!-- defineLinearModels&#45;&gt;models -->
<g id="edge1" class="edge"><title>defineLinearModels&#45;&gt;models</title>
<path fill="none" stroke="black" d="M129.933,-409.697C122.061,-401.22 112.445,-390.864 103.827,-381.583"/>
<polygon fill="black" stroke="black" points="106.252,-379.051 96.8826,-374.104 101.122,-383.814 106.252,-379.051"/>
</g>
<!-- matches -->
<g id="node9" class="node"><title>matches</title>
<path fill="#ffffcc" stroke="black" d="M190.5,-374C190.5,-374 143.5,-374 143.5,-374 137.5,-374 131.5,-368 131.5,-362 131.5,-362 131.5,-350 131.5,-350 131.5,-344 137.5,-338 143.5,-338 143.5,-338 190.5,-338 190.5,-338 196.5,-338 202.5,-344 202.5,-350 202.5,-350 202.5,-362 202.5,-362 202.5,-368 196.5,-374 190.5,-374"/>
<text text-anchor="middle" x="167" y="-352.3" font-family="Helvetica,sans-Serif" font-size="14.00">matches</text>
</g>
<!-- defineLinearModels&#45;&gt;matches -->
<g id="edge2" class="edge"><title>defineLinearModels&#45;&gt;matches</title>
<path fill="none" stroke="black" d="M151.191,-409.697C153.531,-401.898 156.347,-392.509 158.951,-383.829"/>
<polygon fill="black" stroke="black" points="162.348,-384.688 161.869,-374.104 155.643,-382.677 162.348,-384.688"/>
</g>
<!-- calculateLinearModels -->
<g id="node2" class="node"><title>calculateLinearModels</title>
<polygon fill="#ccffcc" stroke="black" points="214,-302 56,-302 56,-266 214,-266 214,-302"/>
<text text-anchor="middle" x="135" y="-280.3" font-family="Helvetica,sans-Serif" font-size="14.00">calculateLinearModels</text>
</g>
<!-- coefficients -->
<g id="node10" class="node"><title>coefficients</title>
<path fill="#ffffcc" stroke="black" d="M117,-230C117,-230 51,-230 51,-230 45,-230 39,-224 39,-218 39,-218 39,-206 39,-206 39,-200 45,-194 51,-194 51,-194 117,-194 117,-194 123,-194 129,-200 129,-206 129,-206 129,-218 129,-218 129,-224 123,-230 117,-230"/>
<text text-anchor="middle" x="84" y="-208.3" font-family="Helvetica,sans-Serif" font-size="14.00">coefficients</text>
</g>
<!-- calculateLinearModels&#45;&gt;coefficients -->
<g id="edge6" class="edge"><title>calculateLinearModels&#45;&gt;coefficients</title>
<path fill="none" stroke="black" d="M122.393,-265.697C116.403,-257.474 109.124,-247.483 102.521,-238.421"/>
<polygon fill="black" stroke="black" points="105.179,-236.126 96.4617,-230.104 99.5215,-240.248 105.179,-236.126"/>
</g>
<!-- model.errors -->
<g id="node11" class="node"><title>model.errors</title>
<path fill="#ffffcc" stroke="black" d="M233,-230C233,-230 159,-230 159,-230 153,-230 147,-224 147,-218 147,-218 147,-206 147,-206 147,-200 153,-194 159,-194 159,-194 233,-194 233,-194 239,-194 245,-200 245,-206 245,-206 245,-218 245,-218 245,-224 239,-230 233,-230"/>
<text text-anchor="middle" x="196" y="-208.3" font-family="Helvetica,sans-Serif" font-size="14.00">model.errors</text>
</g>
<!-- calculateLinearModels&#45;&gt;model.errors -->
<g id="edge7" class="edge"><title>calculateLinearModels&#45;&gt;model.errors</title>
<path fill="none" stroke="black" d="M150.079,-265.697C157.392,-257.305 166.31,-247.07 174.335,-237.861"/>
<polygon fill="black" stroke="black" points="177.164,-239.943 181.095,-230.104 171.886,-235.344 177.164,-239.943"/>
</g>
<!-- simplifyLinearModels -->
<g id="node3" class="node"><title>simplifyLinearModels</title>
<polygon fill="#ccffcc" stroke="black" points="222,-158 72,-158 72,-122 222,-122 222,-158"/>
<text text-anchor="middle" x="147" y="-136.3" font-family="Helvetica,sans-Serif" font-size="14.00">simplifyLinearModels</text>
</g>
<!-- linear.models -->
<g id="node4" class="node"><title>linear.models</title>
<path fill="#ffffcc" stroke="black" d="M185.5,-86C185.5,-86 108.5,-86 108.5,-86 102.5,-86 96.5,-80 96.5,-74 96.5,-74 96.5,-62 96.5,-62 96.5,-56 102.5,-50 108.5,-50 108.5,-50 185.5,-50 185.5,-50 191.5,-50 197.5,-56 197.5,-62 197.5,-62 197.5,-74 197.5,-74 197.5,-80 191.5,-86 185.5,-86"/>
<text text-anchor="middle" x="147" y="-64.3" font-family="Helvetica,sans-Serif" font-size="14.00">linear.models</text>
</g>
<!-- simplifyLinearModels&#45;&gt;linear.models -->
<g id="edge10" class="edge"><title>simplifyLinearModels&#45;&gt;linear.models</title>
<path fill="none" stroke="black" d="M147,-121.697C147,-113.983 147,-104.712 147,-96.1124"/>
<polygon fill="black" stroke="black" points="150.5,-96.1043 147,-86.1043 143.5,-96.1044 150.5,-96.1043"/>
</g>
<!-- linear.models_output_port -->
<g id="node15" class="node"><title>linear.models_output_port</title>
<ellipse fill="#ffffff" stroke="black" cx="147" cy="-7" rx="7" ry="7"/>
</g>
<!-- linear.models&#45;&gt;linear.models_output_port -->
<g id="edge16" class="edge"><title>linear.models&#45;&gt;linear.models_output_port</title>
<path fill="none" stroke="black" d="M147,-49.9348C147,-41.8859 147,-32.3254 147,-24.3671"/>
<polygon fill="black" stroke="black" points="150.5,-24.2164 147,-14.2164 143.5,-24.2165 150.5,-24.2164"/>
</g>
<!-- predlist -->
<g id="node5" class="node"><title>predlist</title>
<path fill="#ffffcc" stroke="black" d="M75.5,-518C75.5,-518 36.5,-518 36.5,-518 30.5,-518 24.5,-512 24.5,-506 24.5,-506 24.5,-494 24.5,-494 24.5,-488 30.5,-482 36.5,-482 36.5,-482 75.5,-482 75.5,-482 81.5,-482 87.5,-488 87.5,-494 87.5,-494 87.5,-506 87.5,-506 87.5,-512 81.5,-518 75.5,-518"/>
<text text-anchor="middle" x="56" y="-496.3" font-family="Helvetica,sans-Serif" font-size="14.00">predlist</text>
</g>
<!-- predlist&#45;&gt;defineLinearModels -->
<g id="edge3" class="edge"><title>predlist&#45;&gt;defineLinearModels</title>
<path fill="none" stroke="black" d="M78.2472,-481.697C89.5819,-472.881 103.53,-462.032 115.819,-452.474"/>
<polygon fill="black" stroke="black" points="118.264,-455.007 124.009,-446.104 113.966,-449.481 118.264,-455.007"/>
</g>
<!-- carscores -->
<g id="node6" class="node"><title>carscores</title>
<path fill="#ffffcc" stroke="black" d="M174,-518C174,-518 118,-518 118,-518 112,-518 106,-512 106,-506 106,-506 106,-494 106,-494 106,-488 112,-482 118,-482 118,-482 174,-482 174,-482 180,-482 186,-488 186,-494 186,-494 186,-506 186,-506 186,-512 180,-518 174,-518"/>
<text text-anchor="middle" x="146" y="-496.3" font-family="Helvetica,sans-Serif" font-size="14.00">carscores</text>
</g>
<!-- carscores&#45;&gt;defineLinearModels -->
<g id="edge4" class="edge"><title>carscores&#45;&gt;defineLinearModels</title>
<path fill="none" stroke="black" d="M146,-481.697C146,-473.983 146,-464.712 146,-456.112"/>
<polygon fill="black" stroke="black" points="149.5,-456.104 146,-446.104 142.5,-456.104 149.5,-456.104"/>
</g>
<!-- max.preds -->
<g id="node7" class="node"><title>max.preds</title>
<path fill="#ffffcc" stroke="black" d="M275.5,-518C275.5,-518 216.5,-518 216.5,-518 210.5,-518 204.5,-512 204.5,-506 204.5,-506 204.5,-494 204.5,-494 204.5,-488 210.5,-482 216.5,-482 216.5,-482 275.5,-482 275.5,-482 281.5,-482 287.5,-488 287.5,-494 287.5,-494 287.5,-506 287.5,-506 287.5,-512 281.5,-518 275.5,-518"/>
<text text-anchor="middle" x="246" y="-496.3" font-family="Helvetica,sans-Serif" font-size="14.00">max.preds</text>
</g>
<!-- max.preds&#45;&gt;defineLinearModels -->
<g id="edge5" class="edge"><title>max.preds&#45;&gt;defineLinearModels</title>
<path fill="none" stroke="black" d="M221.537,-481.876C208.704,-472.893 192.804,-461.763 178.906,-452.034"/>
<polygon fill="black" stroke="black" points="180.756,-449.057 170.557,-446.19 176.742,-454.792 180.756,-449.057"/>
</g>
<!-- models&#45;&gt;calculateLinearModels -->
<g id="edge8" class="edge"><title>models&#45;&gt;calculateLinearModels</title>
<path fill="none" stroke="black" d="M94.3483,-337.697C100.757,-329.389 108.558,-319.277 115.606,-310.141"/>
<polygon fill="black" stroke="black" points="118.468,-312.16 121.805,-302.104 112.926,-307.884 118.468,-312.16"/>
</g>
<!-- matches&#45;&gt;calculateLinearModels -->
<g id="edge9" class="edge"><title>matches&#45;&gt;calculateLinearModels</title>
<path fill="none" stroke="black" d="M159.09,-337.697C155.447,-329.728 151.046,-320.1 147.006,-311.264"/>
<polygon fill="black" stroke="black" points="150.16,-309.744 142.819,-302.104 143.794,-312.654 150.16,-309.744"/>
</g>
<!-- coefficients&#45;&gt;simplifyLinearModels -->
<g id="edge11" class="edge"><title>coefficients&#45;&gt;simplifyLinearModels</title>
<path fill="none" stroke="black" d="M99.573,-193.697C107.202,-185.22 116.523,-174.864 124.876,-165.583"/>
<polygon fill="black" stroke="black" points="127.518,-167.879 131.606,-158.104 122.315,-163.196 127.518,-167.879"/>
</g>
<!-- model.errors&#45;&gt;simplifyLinearModels -->
<g id="edge12" class="edge"><title>model.errors&#45;&gt;simplifyLinearModels</title>
<path fill="none" stroke="black" d="M183.888,-193.697C178.132,-185.474 171.138,-175.483 164.794,-166.421"/>
<polygon fill="black" stroke="black" points="167.575,-164.29 158.973,-158.104 161.84,-168.304 167.575,-164.29"/>
</g>
<!-- predlist_input_port -->
<g id="node12" class="node"><title>predlist_input_port</title>
<ellipse fill="#ffffff" stroke="black" cx="56" cy="-561" rx="7" ry="7"/>
</g>
<!-- predlist_input_port&#45;&gt;predlist -->
<g id="edge13" class="edge"><title>predlist_input_port&#45;&gt;predlist</title>
<path fill="none" stroke="black" d="M56,-553.686C56,-547.486 56,-537.595 56,-528.048"/>
<polygon fill="black" stroke="black" points="59.5001,-528.016 56,-518.016 52.5001,-528.016 59.5001,-528.016"/>
</g>
<!-- carscores_input_port -->
<g id="node13" class="node"><title>carscores_input_port</title>
<ellipse fill="#ffffff" stroke="black" cx="146" cy="-561" rx="7" ry="7"/>
</g>
<!-- carscores_input_port&#45;&gt;carscores -->
<g id="edge14" class="edge"><title>carscores_input_port&#45;&gt;carscores</title>
<path fill="none" stroke="black" d="M146,-553.686C146,-547.486 146,-537.595 146,-528.048"/>
<polygon fill="black" stroke="black" points="149.5,-528.016 146,-518.016 142.5,-528.016 149.5,-528.016"/>
</g>
<!-- max.preds_input_port -->
<g id="node14" class="node"><title>max.preds_input_port</title>
<ellipse fill="#ffffff" stroke="black" cx="246" cy="-561" rx="7" ry="7"/>
</g>
<!-- max.preds_input_port&#45;&gt;max.preds -->
<g id="edge15" class="edge"><title>max.preds_input_port&#45;&gt;max.preds</title>
<path fill="none" stroke="black" d="M246,-553.686C246,-547.486 246,-537.595 246,-528.048"/>
<polygon fill="black" stroke="black" points="249.5,-528.016 246,-518.016 242.5,-528.016 249.5,-528.016"/>
</g>
</g>
</svg>
