<?xml version="1.0" encoding="UTF-8" standalone="no"?>
<!DOCTYPE svg PUBLIC "-//W3C//DTD SVG 1.1//EN"
 "http://www.w3.org/Graphics/SVG/1.1/DTD/svg11.dtd">
<!-- Generated by graphviz version 2.38.0 (20140413.2041)
 -->
<!-- Title: Workflow Pages: 1 -->
<svg width="320pt" height="632pt"
 viewBox="0.00 0.00 320.00 632.00" xmlns="http://www.w3.org/2000/svg" xmlns:xlink="http://www.w3.org/1999/xlink">
<g id="graph0" class="graph" transform="scale(1 1) rotate(0) translate(4 628)">
<title>Workflow</title>
<polygon fill="white" stroke="none" points="-4,4 -4,-628 316,-628 316,4 -4,4"/>
<g id="clust1" class="cluster"><title>cluster_workflow_box_outer</title>
<polygon fill="none" stroke="black" stroke-width="2" points="8,-62 8,-562 304,-562 304,-62 8,-62"/>
</g>
<g id="clust2" class="cluster"><title>cluster_workflow_box_inner</title>
<polygon fill="none" stroke="black" stroke-width="0" points="16,-70 16,-554 296,-554 296,-70 16,-70"/>
</g>
<g id="clust5" class="cluster"><title>cluster_output_ports_group_outer</title>
<polygon fill="none" stroke="black" stroke-width="0" points="124,-8 124,-54 170,-54 170,-8 124,-8"/>
</g>
<g id="clust6" class="cluster"><title>cluster_output_ports_group_inner</title>
<polygon fill="none" stroke="black" stroke-width="0" points="132,-16 132,-46 162,-46 162,-16 132,-16"/>
</g>
<g id="clust3" class="cluster"><title>cluster_input_ports_group_outer</title>
<polygon fill="none" stroke="black" stroke-width="0" points="111,-570 111,-616 221,-616 221,-570 111,-570"/>
</g>
<g id="clust4" class="cluster"><title>cluster_input_ports_group_inner</title>
<polygon fill="none" stroke="black" stroke-width="0" points="119,-578 119,-608 213,-608 213,-578 119,-578"/>
</g>
<!-- defineLinearModels -->
<g id="node1" class="node"><title>defineLinearModels</title>
<polygon fill="#ccffcc" stroke="black" points="237,-474 95,-474 95,-438 237,-438 237,-474"/>
<text text-anchor="middle" x="166" y="-452.3" font-family="Helvetica,sans-Serif" font-size="14.00">defineLinearModels</text>
</g>
<!-- models -->
<g id="node8" class="node"><title>models</title>
<path fill="#ffffcc" stroke="black" d="M111,-402C111,-402 71,-402 71,-402 65,-402 59,-396 59,-390 59,-390 59,-378 59,-378 59,-372 65,-366 71,-366 71,-366 111,-366 111,-366 117,-366 123,-372 123,-378 123,-378 123,-390 123,-390 123,-396 117,-402 111,-402"/>
<text text-anchor="middle" x="91" y="-380.3" font-family="Helvetica,sans-Serif" font-size="14.00">models</text>
</g>
<!-- defineLinearModels&#45;&gt;models -->
<g id="edge1" class="edge"><title>defineLinearModels&#45;&gt;models</title>
<path fill="none" stroke="black" d="M147.461,-437.697C138.197,-429.05 126.838,-418.449 116.743,-409.027"/>
<polygon fill="black" stroke="black" points="119.025,-406.369 109.326,-402.104 114.249,-411.486 119.025,-406.369"/>
</g>
<!-- matches -->
<g id="node9" class="node"><title>matches</title>
<path fill="#ffffcc" stroke="black" d="M200.5,-402C200.5,-402 153.5,-402 153.5,-402 147.5,-402 141.5,-396 141.5,-390 141.5,-390 141.5,-378 141.5,-378 141.5,-372 147.5,-366 153.5,-366 153.5,-366 200.5,-366 200.5,-366 206.5,-366 212.5,-372 212.5,-378 212.5,-378 212.5,-390 212.5,-390 212.5,-396 206.5,-402 200.5,-402"/>
<text text-anchor="middle" x="177" y="-380.3" font-family="Helvetica,sans-Serif" font-size="14.00">matches</text>
</g>
<!-- defineLinearModels&#45;&gt;matches -->
<g id="edge2" class="edge"><title>defineLinearModels&#45;&gt;matches</title>
<path fill="none" stroke="black" d="M168.719,-437.697C169.931,-429.983 171.388,-420.712 172.739,-412.112"/>
<polygon fill="black" stroke="black" points="176.217,-412.526 174.312,-402.104 169.302,-411.44 176.217,-412.526"/>
</g>
<!-- calculateLinearModels -->
<g id="node2" class="node"><title>calculateLinearModels</title>
<polygon fill="#ccffcc" stroke="black" points="219,-330 61,-330 61,-294 219,-294 219,-330"/>
<text text-anchor="middle" x="140" y="-308.3" font-family="Helvetica,sans-Serif" font-size="14.00">calculateLinearModels</text>
</g>
<!-- coefficients -->
<g id="node10" class="node"><title>coefficients</title>
<path fill="#ffffcc" stroke="black" d="M117,-258C117,-258 51,-258 51,-258 45,-258 39,-252 39,-246 39,-246 39,-234 39,-234 39,-228 45,-222 51,-222 51,-222 117,-222 117,-222 123,-222 129,-228 129,-234 129,-234 129,-246 129,-246 129,-252 123,-258 117,-258"/>
<text text-anchor="middle" x="84" y="-236.3" font-family="Helvetica,sans-Serif" font-size="14.00">coefficients</text>
</g>
<!-- calculateLinearModels&#45;&gt;coefficients -->
<g id="edge6" class="edge"><title>calculateLinearModels&#45;&gt;coefficients</title>
<path fill="none" stroke="black" d="M126.157,-293.697C119.511,-285.389 111.422,-275.277 104.113,-266.141"/>
<polygon fill="black" stroke="black" points="106.664,-263.727 97.6835,-258.104 101.197,-268.099 106.664,-263.727"/>
</g>
<!-- model.errors -->
<g id="node11" class="node"><title>model.errors</title>
<path fill="#ffffcc" stroke="black" d="M233,-258C233,-258 159,-258 159,-258 153,-258 147,-252 147,-246 147,-246 147,-234 147,-234 147,-228 153,-222 159,-222 159,-222 233,-222 233,-222 239,-222 245,-228 245,-234 245,-234 245,-246 245,-246 245,-252 239,-258 233,-258"/>
<text text-anchor="middle" x="196" y="-236.3" font-family="Helvetica,sans-Serif" font-size="14.00">model.errors</text>
</g>
<!-- calculateLinearModels&#45;&gt;model.errors -->
<g id="edge7" class="edge"><title>calculateLinearModels&#45;&gt;model.errors</title>
<path fill="none" stroke="black" d="M153.843,-293.697C160.489,-285.389 168.578,-275.277 175.887,-266.141"/>
<polygon fill="black" stroke="black" points="178.803,-268.099 182.317,-258.104 173.336,-263.727 178.803,-268.099"/>
</g>
<!-- simplifyLinearModels -->
<g id="node3" class="node"><title>simplifyLinearModels</title>
<polygon fill="#ccffcc" stroke="black" points="222,-186 72,-186 72,-150 222,-150 222,-186"/>
<text text-anchor="middle" x="147" y="-164.3" font-family="Helvetica,sans-Serif" font-size="14.00">simplifyLinearModels</text>
</g>
<!-- linear.models -->
<g id="node4" class="node"><title>linear.models</title>
<path fill="#ffffcc" stroke="black" d="M185.5,-114C185.5,-114 108.5,-114 108.5,-114 102.5,-114 96.5,-108 96.5,-102 96.5,-102 96.5,-90 96.5,-90 96.5,-84 102.5,-78 108.5,-78 108.5,-78 185.5,-78 185.5,-78 191.5,-78 197.5,-84 197.5,-90 197.5,-90 197.5,-102 197.5,-102 197.5,-108 191.5,-114 185.5,-114"/>
<text text-anchor="middle" x="147" y="-92.3" font-family="Helvetica,sans-Serif" font-size="14.00">linear.models</text>
</g>
<!-- simplifyLinearModels&#45;&gt;linear.models -->
<g id="edge10" class="edge"><title>simplifyLinearModels&#45;&gt;linear.models</title>
<path fill="none" stroke="black" d="M147,-149.697C147,-141.983 147,-132.712 147,-124.112"/>
<polygon fill="black" stroke="black" points="150.5,-124.104 147,-114.104 143.5,-124.104 150.5,-124.104"/>
</g>
<!-- linear.models_output_port -->
<g id="node15" class="node"><title>linear.models_output_port</title>
<ellipse fill="#ffffff" stroke="black" cx="147" cy="-31" rx="7" ry="7"/>
</g>
<!-- linear.models&#45;&gt;linear.models_output_port -->
<g id="edge16" class="edge"><title>linear.models&#45;&gt;linear.models_output_port</title>
<path fill="none" stroke="black" d="M147,-77.785C147,-68.6656 147,-57.5197 147,-48.5085"/>
<polygon fill="black" stroke="black" points="150.5,-48.242 147,-38.242 143.5,-48.2421 150.5,-48.242"/>
</g>
<!-- predlist -->
<g id="node5" class="node"><title>predlist</title>
<path fill="#ffffcc" stroke="black" d="M275.5,-546C275.5,-546 236.5,-546 236.5,-546 230.5,-546 224.5,-540 224.5,-534 224.5,-534 224.5,-522 224.5,-522 224.5,-516 230.5,-510 236.5,-510 236.5,-510 275.5,-510 275.5,-510 281.5,-510 287.5,-516 287.5,-522 287.5,-522 287.5,-534 287.5,-534 287.5,-540 281.5,-546 275.5,-546"/>
<text text-anchor="middle" x="256" y="-524.3" font-family="Helvetica,sans-Serif" font-size="14.00">predlist</text>
</g>
<!-- predlist&#45;&gt;defineLinearModels -->
<g id="edge3" class="edge"><title>predlist&#45;&gt;defineLinearModels</title>
<path fill="none" stroke="black" d="M233.753,-509.697C222.418,-500.881 208.47,-490.032 196.181,-480.474"/>
<polygon fill="black" stroke="black" points="198.034,-477.481 187.991,-474.104 193.736,-483.007 198.034,-477.481"/>
</g>
<!-- carscores -->
<g id="node6" class="node"><title>carscores</title>
<path fill="#ffffcc" stroke="black" d="M194,-546C194,-546 138,-546 138,-546 132,-546 126,-540 126,-534 126,-534 126,-522 126,-522 126,-516 132,-510 138,-510 138,-510 194,-510 194,-510 200,-510 206,-516 206,-522 206,-522 206,-534 206,-534 206,-540 200,-546 194,-546"/>
<text text-anchor="middle" x="166" y="-524.3" font-family="Helvetica,sans-Serif" font-size="14.00">carscores</text>
</g>
<!-- carscores&#45;&gt;defineLinearModels -->
<g id="edge4" class="edge"><title>carscores&#45;&gt;defineLinearModels</title>
<path fill="none" stroke="black" d="M166,-509.697C166,-501.983 166,-492.712 166,-484.112"/>
<polygon fill="black" stroke="black" points="169.5,-484.104 166,-474.104 162.5,-484.104 169.5,-484.104"/>
</g>
<!-- max.preds -->
<g id="node7" class="node"><title>max.preds</title>
<path fill="#ffffcc" stroke="black" d="M95.5,-546C95.5,-546 36.5,-546 36.5,-546 30.5,-546 24.5,-540 24.5,-534 24.5,-534 24.5,-522 24.5,-522 24.5,-516 30.5,-510 36.5,-510 36.5,-510 95.5,-510 95.5,-510 101.5,-510 107.5,-516 107.5,-522 107.5,-522 107.5,-534 107.5,-534 107.5,-540 101.5,-546 95.5,-546"/>
<text text-anchor="middle" x="66" y="-524.3" font-family="Helvetica,sans-Serif" font-size="14.00">max.preds</text>
</g>
<!-- max.preds&#45;&gt;defineLinearModels -->
<g id="edge5" class="edge"><title>max.preds&#45;&gt;defineLinearModels</title>
<path fill="none" stroke="black" d="M90.4628,-509.876C103.296,-500.893 119.196,-489.763 133.094,-480.034"/>
<polygon fill="black" stroke="black" points="135.258,-482.792 141.443,-474.19 131.244,-477.057 135.258,-482.792"/>
</g>
<!-- models&#45;&gt;calculateLinearModels -->
<g id="edge8" class="edge"><title>models&#45;&gt;calculateLinearModels</title>
<path fill="none" stroke="black" d="M103.112,-365.697C108.868,-357.474 115.862,-347.483 122.206,-338.421"/>
<polygon fill="black" stroke="black" points="125.16,-340.304 128.027,-330.104 119.425,-336.29 125.16,-340.304"/>
</g>
<!-- matches&#45;&gt;calculateLinearModels -->
<g id="edge9" class="edge"><title>matches&#45;&gt;calculateLinearModels</title>
<path fill="none" stroke="black" d="M167.854,-365.697C163.597,-357.644 158.444,-347.894 153.734,-338.982"/>
<polygon fill="black" stroke="black" points="156.808,-337.31 149.041,-330.104 150.62,-340.581 156.808,-337.31"/>
</g>
<!-- coefficients&#45;&gt;simplifyLinearModels -->
<g id="edge11" class="edge"><title>coefficients&#45;&gt;simplifyLinearModels</title>
<path fill="none" stroke="black" d="M99.573,-221.697C107.202,-213.22 116.523,-202.864 124.876,-193.583"/>
<polygon fill="black" stroke="black" points="127.518,-195.879 131.606,-186.104 122.315,-191.196 127.518,-195.879"/>
</g>
<!-- model.errors&#45;&gt;simplifyLinearModels -->
<g id="edge12" class="edge"><title>model.errors&#45;&gt;simplifyLinearModels</title>
<path fill="none" stroke="black" d="M183.888,-221.697C178.132,-213.474 171.138,-203.483 164.794,-194.421"/>
<polygon fill="black" stroke="black" points="167.575,-192.29 158.973,-186.104 161.84,-196.304 167.575,-192.29"/>
</g>
<!-- predlist_input_port -->
<g id="node12" class="node"><title>predlist_input_port</title>
<ellipse fill="#ffffff" stroke="black" cx="198" cy="-593" rx="7" ry="7"/>
</g>
<!-- predlist_input_port&#45;&gt;predlist -->
<g id="edge13" class="edge"><title>predlist_input_port&#45;&gt;predlist</title>
<path fill="none" stroke="black" d="M202.551,-587.056C209.186,-579.85 221.966,-565.968 233.366,-553.585"/>
<polygon fill="black" stroke="black" points="236.02,-555.87 240.218,-546.142 230.87,-551.129 236.02,-555.87"/>
</g>
<!-- carscores_input_port -->
<g id="node13" class="node"><title>carscores_input_port</title>
<ellipse fill="#ffffff" stroke="black" cx="166" cy="-593" rx="7" ry="7"/>
</g>
<!-- carscores_input_port&#45;&gt;carscores -->
<g id="edge14" class="edge"><title>carscores_input_port&#45;&gt;carscores</title>
<path fill="none" stroke="black" d="M166,-585.729C166,-578.795 166,-567.154 166,-556.215"/>
<polygon fill="black" stroke="black" points="169.5,-556.119 166,-546.119 162.5,-556.119 169.5,-556.119"/>
</g>
<!-- max.preds_input_port -->
<g id="node14" class="node"><title>max.preds_input_port</title>
<ellipse fill="#ffffff" stroke="black" cx="134" cy="-593" rx="7" ry="7"/>
</g>
<!-- max.preds_input_port&#45;&gt;max.preds -->
<g id="edge15" class="edge"><title>max.preds_input_port&#45;&gt;max.preds</title>
<path fill="none" stroke="black" d="M129.11,-587.469C121.35,-580.28 105.683,-565.765 91.9004,-552.996"/>
<polygon fill="black" stroke="black" points="94.2142,-550.368 84.4999,-546.14 89.4568,-555.503 94.2142,-550.368"/>
</g>
</g>
</svg>
