<?xml version="1.0" encoding="UTF-8" standalone="no"?>
<!DOCTYPE svg PUBLIC "-//W3C//DTD SVG 1.1//EN"
 "http://www.w3.org/Graphics/SVG/1.1/DTD/svg11.dtd">
<!-- Generated by graphviz version 2.38.0 (20140413.2041)
 -->
<!-- Title: Workflow Pages: 1 -->
<svg width="1871pt" height="377pt"
 viewBox="0.00 0.00 1871.00 377.00" xmlns="http://www.w3.org/2000/svg" xmlns:xlink="http://www.w3.org/1999/xlink">
<g id="graph0" class="graph" transform="scale(1 1) rotate(0) translate(4 373)">
<title>Workflow</title>
<polygon fill="white" stroke="none" points="-4,4 -4,-373 1867,-373 1867,4 -4,4"/>
<g id="clust1" class="cluster"><title>cluster_workflow_box_outer</title>
<polygon fill="none" stroke="black" stroke-width="2" points="8,-62 8,-307 1855,-307 1855,-62 8,-62"/>
</g>
<g id="clust2" class="cluster"><title>cluster_workflow_box_inner</title>
<polygon fill="none" stroke="black" stroke-width="0" points="16,-70 16,-299 1847,-299 1847,-70 16,-70"/>
</g>
<g id="clust3" class="cluster"><title>cluster_input_ports_group_outer</title>
<polygon fill="none" stroke="black" stroke-width="0" points="777,-315 777,-361 1015,-361 1015,-315 777,-315"/>
</g>
<g id="clust4" class="cluster"><title>cluster_input_ports_group_inner</title>
<polygon fill="none" stroke="black" stroke-width="0" points="785,-323 785,-353 1007,-353 1007,-323 785,-323"/>
</g>
<g id="clust5" class="cluster"><title>cluster_output_ports_group_outer</title>
<polygon fill="none" stroke="black" stroke-width="0" points="809,-8 809,-54 983,-54 983,-8 809,-8"/>
</g>
<g id="clust6" class="cluster"><title>cluster_output_ports_group_inner</title>
<polygon fill="none" stroke="black" stroke-width="0" points="817,-16 817,-46 975,-46 975,-16 817,-16"/>
</g>
<!-- gen_paleocar_model -->
<g id="node1" class="node"><title>gen_paleocar_model</title>
<polygon fill="#ccffcc" stroke="black" points="664,-161.5 664,-207.5 1128,-207.5 1128,-161.5 664,-161.5"/>
<text text-anchor="middle" x="896" y="-192.3" font-family="Helvetica,sans-Serif" font-size="14.00">gen_paleocar_model</text>
<polyline fill="none" stroke="black" points="664,-184.5 1128,-184.5 "/>
<text text-anchor="middle" x="896" y="-169.3" font-family="Helvetica,sans-Serif" font-size="14.00">execute paleocar for reconstruction of paleoclimate of the study region.</text>
</g>
<!-- prediction_model -->
<g id="node4" class="node"><title>prediction_model</title>
<path fill="#ffffcc" stroke="black" d="M36,-78.5C36,-78.5 364,-78.5 364,-78.5 370,-78.5 376,-84.5 376,-90.5 376,-90.5 376,-112.5 376,-112.5 376,-118.5 370,-124.5 364,-124.5 364,-124.5 36,-124.5 36,-124.5 30,-124.5 24,-118.5 24,-112.5 24,-112.5 24,-90.5 24,-90.5 24,-84.5 30,-78.5 36,-78.5"/>
<text text-anchor="middle" x="200" y="-109.3" font-family="Helvetica,sans-Serif" font-size="14.00">prediction_model</text>
<polyline fill="none" stroke="black" points="24,-101.5 376,-101.5 "/>
<text text-anchor="middle" x="200" y="-86.3" font-family="Helvetica,sans-Serif" font-size="14.00">file:/.output/{session_id}/{run_id}/{label}.prediction.rds</text>
</g>
<!-- gen_paleocar_model&#45;&gt;prediction_model -->
<g id="edge1" class="edge"><title>gen_paleocar_model&#45;&gt;prediction_model</title>
<path fill="none" stroke="black" d="M701.621,-161.489C609.252,-150.959 497.013,-138.062 386.247,-125.026"/>
<polygon fill="black" stroke="black" points="386.563,-121.539 376.222,-123.845 385.744,-128.491 386.563,-121.539"/>
</g>
<!-- prediction_plot -->
<g id="node5" class="node"><title>prediction_plot</title>
<path fill="#ffffcc" stroke="black" d="M406.5,-78.5C406.5,-78.5 687.5,-78.5 687.5,-78.5 693.5,-78.5 699.5,-84.5 699.5,-90.5 699.5,-90.5 699.5,-112.5 699.5,-112.5 699.5,-118.5 693.5,-124.5 687.5,-124.5 687.5,-124.5 406.5,-124.5 406.5,-124.5 400.5,-124.5 394.5,-118.5 394.5,-112.5 394.5,-112.5 394.5,-90.5 394.5,-90.5 394.5,-84.5 400.5,-78.5 406.5,-78.5"/>
<text text-anchor="middle" x="547" y="-109.3" font-family="Helvetica,sans-Serif" font-size="14.00">prediction_plot</text>
<polyline fill="none" stroke="black" points="394.5,-101.5 699.5,-101.5 "/>
<text text-anchor="middle" x="547" y="-86.3" font-family="Helvetica,sans-Serif" font-size="14.00">file:/{session_id}/{run_id}/{label}.prediction.jpg</text>
</g>
<!-- gen_paleocar_model&#45;&gt;prediction_plot -->
<g id="edge2" class="edge"><title>gen_paleocar_model&#45;&gt;prediction_plot</title>
<path fill="none" stroke="black" d="M801.095,-161.473C754.927,-150.758 699.297,-137.847 651.875,-126.841"/>
<polygon fill="black" stroke="black" points="652.418,-123.374 641.886,-124.522 650.836,-130.193 652.418,-123.374"/>
</g>
<!-- uncertainty_model -->
<g id="node6" class="node"><title>uncertainty_model</title>
<path fill="#ffffcc" stroke="black" d="M729.5,-78.5C729.5,-78.5 1062.5,-78.5 1062.5,-78.5 1068.5,-78.5 1074.5,-84.5 1074.5,-90.5 1074.5,-90.5 1074.5,-112.5 1074.5,-112.5 1074.5,-118.5 1068.5,-124.5 1062.5,-124.5 1062.5,-124.5 729.5,-124.5 729.5,-124.5 723.5,-124.5 717.5,-118.5 717.5,-112.5 717.5,-112.5 717.5,-90.5 717.5,-90.5 717.5,-84.5 723.5,-78.5 729.5,-78.5"/>
<text text-anchor="middle" x="896" y="-109.3" font-family="Helvetica,sans-Serif" font-size="14.00">uncertainty_model</text>
<polyline fill="none" stroke="black" points="717.5,-101.5 1074.5,-101.5 "/>
<text text-anchor="middle" x="896" y="-86.3" font-family="Helvetica,sans-Serif" font-size="14.00">file:/.output/{session_id}/{run_id}/{label}.uncertainty.rds</text>
</g>
<!-- gen_paleocar_model&#45;&gt;uncertainty_model -->
<g id="edge3" class="edge"><title>gen_paleocar_model&#45;&gt;uncertainty_model</title>
<path fill="none" stroke="black" d="M896,-161.366C896,-153.152 896,-143.658 896,-134.725"/>
<polygon fill="black" stroke="black" points="899.5,-134.607 896,-124.607 892.5,-134.607 899.5,-134.607"/>
</g>
<!-- uncertainty_plot -->
<g id="node7" class="node"><title>uncertainty_plot</title>
<path fill="#ffffcc" stroke="black" d="M1105,-78.5C1105,-78.5 1437,-78.5 1437,-78.5 1443,-78.5 1449,-84.5 1449,-90.5 1449,-90.5 1449,-112.5 1449,-112.5 1449,-118.5 1443,-124.5 1437,-124.5 1437,-124.5 1105,-124.5 1105,-124.5 1099,-124.5 1093,-118.5 1093,-112.5 1093,-112.5 1093,-90.5 1093,-90.5 1093,-84.5 1099,-78.5 1105,-78.5"/>
<text text-anchor="middle" x="1271" y="-109.3" font-family="Helvetica,sans-Serif" font-size="14.00">uncertainty_plot</text>
<polyline fill="none" stroke="black" points="1093,-101.5 1449,-101.5 "/>
<text text-anchor="middle" x="1271" y="-86.3" font-family="Helvetica,sans-Serif" font-size="14.00">file:/.output/{session_id}/{run_id}/{label}.uncertainty.jpg</text>
</g>
<!-- gen_paleocar_model&#45;&gt;uncertainty_plot -->
<g id="edge4" class="edge"><title>gen_paleocar_model&#45;&gt;uncertainty_plot</title>
<path fill="none" stroke="black" d="M997.975,-161.473C1047.79,-150.713 1107.86,-137.739 1158.95,-126.702"/>
<polygon fill="black" stroke="black" points="1160.01,-130.055 1169.05,-124.522 1158.53,-123.213 1160.01,-130.055"/>
</g>
<!-- paleocar_log_file -->
<g id="node8" class="node"><title>paleocar_log_file</title>
<path fill="#ffffcc" stroke="black" d="M1479.5,-78.5C1479.5,-78.5 1826.5,-78.5 1826.5,-78.5 1832.5,-78.5 1838.5,-84.5 1838.5,-90.5 1838.5,-90.5 1838.5,-112.5 1838.5,-112.5 1838.5,-118.5 1832.5,-124.5 1826.5,-124.5 1826.5,-124.5 1479.5,-124.5 1479.5,-124.5 1473.5,-124.5 1467.5,-118.5 1467.5,-112.5 1467.5,-112.5 1467.5,-90.5 1467.5,-90.5 1467.5,-84.5 1473.5,-78.5 1479.5,-78.5"/>
<text text-anchor="middle" x="1653" y="-109.3" font-family="Helvetica,sans-Serif" font-size="14.00">paleocar_log_file</text>
<polyline fill="none" stroke="black" points="1467.5,-101.5 1838.5,-101.5 "/>
<text text-anchor="middle" x="1653" y="-86.3" font-family="Helvetica,sans-Serif" font-size="14.00">file:/.output/{session_id}/{run_id}/paleocar_model_log.txt</text>
</g>
<!-- gen_paleocar_model&#45;&gt;paleocar_log_file -->
<g id="edge5" class="edge"><title>gen_paleocar_model&#45;&gt;paleocar_log_file</title>
<path fill="none" stroke="black" d="M1112.9,-161.493C1214.41,-151.051 1337.23,-138.216 1457.35,-125.065"/>
<polygon fill="black" stroke="black" points="1457.92,-128.525 1467.48,-123.956 1457.16,-121.566 1457.92,-128.525"/>
</g>
<!-- prediction_years -->
<g id="node2" class="node"><title>prediction_years</title>
<path fill="#ffffcc" stroke="black" d="M1571,-285.5C1571,-285.5 1473,-285.5 1473,-285.5 1467,-285.5 1461,-279.5 1461,-273.5 1461,-273.5 1461,-261.5 1461,-261.5 1461,-255.5 1467,-249.5 1473,-249.5 1473,-249.5 1571,-249.5 1571,-249.5 1577,-249.5 1583,-255.5 1583,-261.5 1583,-261.5 1583,-273.5 1583,-273.5 1583,-279.5 1577,-285.5 1571,-285.5"/>
<text text-anchor="middle" x="1522" y="-263.8" font-family="Helvetica,sans-Serif" font-size="14.00">prediction_years</text>
</g>
<!-- prediction_years&#45;&gt;gen_paleocar_model -->
<g id="edge6" class="edge"><title>prediction_years&#45;&gt;gen_paleocar_model</title>
<path fill="none" stroke="black" d="M1473.39,-249.461C1466.28,-247.382 1458.99,-245.476 1452,-244 1350.31,-222.548 1236.42,-208.807 1138.33,-200.079"/>
<polygon fill="black" stroke="black" points="1138.55,-196.585 1128.28,-199.198 1137.93,-203.558 1138.55,-196.585"/>
</g>
<!-- prism_data_for_coordinates -->
<g id="node3" class="node"><title>prism_data_for_coordinates</title>
<path fill="#ffffcc" stroke="black" d="M1141,-244.5C1141,-244.5 1431,-244.5 1431,-244.5 1437,-244.5 1443,-250.5 1443,-256.5 1443,-256.5 1443,-278.5 1443,-278.5 1443,-284.5 1437,-290.5 1431,-290.5 1431,-290.5 1141,-290.5 1141,-290.5 1135,-290.5 1129,-284.5 1129,-278.5 1129,-278.5 1129,-256.5 1129,-256.5 1129,-250.5 1135,-244.5 1141,-244.5"/>
<text text-anchor="middle" x="1286" y="-275.3" font-family="Helvetica,sans-Serif" font-size="14.00">prism_data_for_coordinates</text>
<polyline fill="none" stroke="black" points="1129,-267.5 1443,-267.5 "/>
<text text-anchor="middle" x="1286" y="-252.3" font-family="Helvetica,sans-Serif" font-size="14.00">file:/.output/{session_id}/{run_id}/112W36N.csv</text>
</g>
<!-- prism_data_for_coordinates&#45;&gt;gen_paleocar_model -->
<g id="edge7" class="edge"><title>prism_data_for_coordinates&#45;&gt;gen_paleocar_model</title>
<path fill="none" stroke="black" d="M1179.95,-244.473C1127.92,-233.668 1065.15,-220.631 1011.87,-209.565"/>
<polygon fill="black" stroke="black" points="1012.54,-206.129 1002.03,-207.522 1011.11,-212.983 1012.54,-206.129"/>
</g>
<!-- prediction_model_output_port -->
<g id="node21" class="node"><title>prediction_model_output_port</title>
<ellipse fill="#ffffff" stroke="black" cx="832" cy="-31" rx="7" ry="7"/>
</g>
<!-- prediction_model&#45;&gt;prediction_model_output_port -->
<g id="edge20" class="edge"><title>prediction_model&#45;&gt;prediction_model_output_port</title>
<path fill="none" stroke="black" d="M293.714,-78.4943C323.111,-72.295 355.777,-66.1246 386,-62 551.814,-39.3708 754.745,-33.5784 814.606,-32.3145"/>
<polygon fill="black" stroke="black" points="814.952,-35.8085 824.882,-32.1137 814.815,-28.8098 814.952,-35.8085"/>
</g>
<!-- prediction_plot_output_port -->
<g id="node22" class="node"><title>prediction_plot_output_port</title>
<ellipse fill="#ffffff" stroke="black" cx="864" cy="-31" rx="7" ry="7"/>
</g>
<!-- prediction_plot&#45;&gt;prediction_plot_output_port -->
<g id="edge21" class="edge"><title>prediction_plot&#45;&gt;prediction_plot_output_port</title>
<path fill="none" stroke="black" d="M627.213,-78.4907C653.129,-72.1741 682.113,-65.9374 709,-62 739.613,-57.5169 820.844,-68.8265 848,-54 851.233,-52.2347 853.982,-49.5028 856.24,-46.5572"/>
<polygon fill="black" stroke="black" points="859.34,-48.1954 861.543,-37.8321 853.359,-44.5597 859.34,-48.1954"/>
</g>
<!-- uncertainty_model_output_port -->
<g id="node23" class="node"><title>uncertainty_model_output_port</title>
<ellipse fill="#ffffff" stroke="black" cx="896" cy="-31" rx="7" ry="7"/>
</g>
<!-- uncertainty_model&#45;&gt;uncertainty_model_output_port -->
<g id="edge22" class="edge"><title>uncertainty_model&#45;&gt;uncertainty_model_output_port</title>
<path fill="none" stroke="black" d="M896,-78.4491C896,-68.6592 896,-57.3397 896,-48.3261"/>
<polygon fill="black" stroke="black" points="899.5,-48.1278 896,-38.1279 892.5,-48.1279 899.5,-48.1278"/>
</g>
<!-- uncertainty_plot_output_port -->
<g id="node24" class="node"><title>uncertainty_plot_output_port</title>
<ellipse fill="#ffffff" stroke="black" cx="928" cy="-31" rx="7" ry="7"/>
</g>
<!-- uncertainty_plot&#45;&gt;uncertainty_plot_output_port -->
<g id="edge23" class="edge"><title>uncertainty_plot&#45;&gt;uncertainty_plot_output_port</title>
<path fill="none" stroke="black" d="M1177.28,-78.4138C1147.6,-72.1722 1114.57,-65.998 1084,-62 1068.55,-59.9792 957.677,-61.4636 944,-54 940.766,-52.2354 938.018,-49.5038 935.759,-46.5582"/>
<polygon fill="black" stroke="black" points="938.641,-44.5606 930.456,-37.8327 932.659,-48.1961 938.641,-44.5606"/>
</g>
<!-- paleocar_log_file_output_port -->
<g id="node25" class="node"><title>paleocar_log_file_output_port</title>
<ellipse fill="#ffffff" stroke="black" cx="960" cy="-31" rx="7" ry="7"/>
</g>
<!-- paleocar_log_file&#45;&gt;paleocar_log_file_output_port -->
<g id="edge24" class="edge"><title>paleocar_log_file&#45;&gt;paleocar_log_file_output_port</title>
<path fill="none" stroke="black" d="M1554.72,-78.4156C1523.9,-72.2128 1489.66,-66.0603 1458,-62 1270.75,-37.9866 1041.37,-33.1168 977.322,-32.1997"/>
<polygon fill="black" stroke="black" points="977.099,-28.6967 967.055,-32.0676 977.009,-35.6961 977.099,-28.6967"/>
</g>
<!-- itrdb -->
<g id="node9" class="node"><title>itrdb</title>
<path fill="#fcfcfc" stroke="black" d="M991.5,-244.5C991.5,-244.5 1098.5,-244.5 1098.5,-244.5 1104.5,-244.5 1110.5,-250.5 1110.5,-256.5 1110.5,-256.5 1110.5,-278.5 1110.5,-278.5 1110.5,-284.5 1104.5,-290.5 1098.5,-290.5 1098.5,-290.5 991.5,-290.5 991.5,-290.5 985.5,-290.5 979.5,-284.5 979.5,-278.5 979.5,-278.5 979.5,-256.5 979.5,-256.5 979.5,-250.5 985.5,-244.5 991.5,-244.5"/>
<text text-anchor="middle" x="1045" y="-275.3" font-family="Helvetica,sans-Serif" font-size="14.00">itrdb</text>
<polyline fill="none" stroke="black" points="979.5,-267.5 1110.5,-267.5 "/>
<text text-anchor="middle" x="1045" y="-252.3" font-family="Helvetica,sans-Serif" font-size="14.00">file:/data/itrdb.Rda</text>
</g>
<!-- itrdb&#45;&gt;gen_paleocar_model -->
<g id="edge8" class="edge"><title>itrdb&#45;&gt;gen_paleocar_model</title>
<path fill="none" stroke="black" d="M1004.29,-244.366C986.135,-234.5 964.592,-222.788 945.518,-212.419"/>
<polygon fill="black" stroke="black" points="947.123,-209.308 936.666,-207.607 943.78,-215.458 947.123,-209.308"/>
</g>
<!-- calibration_yearss -->
<g id="node10" class="node"><title>calibration_yearss</title>
<path fill="#fcfcfc" stroke="black" d="M949.5,-285.5C949.5,-285.5 842.5,-285.5 842.5,-285.5 836.5,-285.5 830.5,-279.5 830.5,-273.5 830.5,-273.5 830.5,-261.5 830.5,-261.5 830.5,-255.5 836.5,-249.5 842.5,-249.5 842.5,-249.5 949.5,-249.5 949.5,-249.5 955.5,-249.5 961.5,-255.5 961.5,-261.5 961.5,-261.5 961.5,-273.5 961.5,-273.5 961.5,-279.5 955.5,-285.5 949.5,-285.5"/>
<text text-anchor="middle" x="896" y="-263.8" font-family="Helvetica,sans-Serif" font-size="14.00">calibration_yearss</text>
</g>
<!-- calibration_yearss&#45;&gt;gen_paleocar_model -->
<g id="edge9" class="edge"><title>calibration_yearss&#45;&gt;gen_paleocar_model</title>
<path fill="none" stroke="black" d="M896,-249.322C896,-240.102 896,-228.435 896,-217.606"/>
<polygon fill="black" stroke="black" points="899.5,-217.587 896,-207.587 892.5,-217.587 899.5,-217.587"/>
</g>
<!-- label -->
<g id="node11" class="node"><title>label</title>
<path fill="#fcfcfc" stroke="black" d="M800,-285.5C800,-285.5 770,-285.5 770,-285.5 764,-285.5 758,-279.5 758,-273.5 758,-273.5 758,-261.5 758,-261.5 758,-255.5 764,-249.5 770,-249.5 770,-249.5 800,-249.5 800,-249.5 806,-249.5 812,-255.5 812,-261.5 812,-261.5 812,-273.5 812,-273.5 812,-279.5 806,-285.5 800,-285.5"/>
<text text-anchor="middle" x="785" y="-263.8" font-family="Helvetica,sans-Serif" font-size="14.00">label</text>
</g>
<!-- label&#45;&gt;gen_paleocar_model -->
<g id="edge10" class="edge"><title>label&#45;&gt;gen_paleocar_model</title>
<path fill="none" stroke="black" d="M808.54,-249.322C822.739,-238.961 841.17,-225.511 857.45,-213.631"/>
<polygon fill="black" stroke="black" points="859.718,-216.309 865.733,-207.587 855.592,-210.654 859.718,-216.309"/>
</g>
<!-- min_width -->
<g id="node12" class="node"><title>min_width</title>
<path fill="#fcfcfc" stroke="black" d="M728,-285.5C728,-285.5 672,-285.5 672,-285.5 666,-285.5 660,-279.5 660,-273.5 660,-273.5 660,-261.5 660,-261.5 660,-255.5 666,-249.5 672,-249.5 672,-249.5 728,-249.5 728,-249.5 734,-249.5 740,-255.5 740,-261.5 740,-261.5 740,-273.5 740,-273.5 740,-279.5 734,-285.5 728,-285.5"/>
<text text-anchor="middle" x="700" y="-263.8" font-family="Helvetica,sans-Serif" font-size="14.00">min_width</text>
</g>
<!-- min_width&#45;&gt;gen_paleocar_model -->
<g id="edge11" class="edge"><title>min_width&#45;&gt;gen_paleocar_model</title>
<path fill="none" stroke="black" d="M736.565,-249.46C740.745,-247.586 744.956,-245.732 749,-244 774.972,-232.878 803.804,-221.249 829.006,-211.317"/>
<polygon fill="black" stroke="black" points="830.446,-214.512 838.474,-207.598 827.886,-207.996 830.446,-214.512"/>
</g>
<!-- verbose -->
<g id="node13" class="node"><title>verbose</title>
<path fill="#fcfcfc" stroke="black" d="M630,-285.5C630,-285.5 586,-285.5 586,-285.5 580,-285.5 574,-279.5 574,-273.5 574,-273.5 574,-261.5 574,-261.5 574,-255.5 580,-249.5 586,-249.5 586,-249.5 630,-249.5 630,-249.5 636,-249.5 642,-255.5 642,-261.5 642,-261.5 642,-273.5 642,-273.5 642,-279.5 636,-285.5 630,-285.5"/>
<text text-anchor="middle" x="608" y="-263.8" font-family="Helvetica,sans-Serif" font-size="14.00">verbose</text>
</g>
<!-- verbose&#45;&gt;gen_paleocar_model -->
<g id="edge12" class="edge"><title>verbose&#45;&gt;gen_paleocar_model</title>
<path fill="none" stroke="black" d="M638.582,-249.334C642.686,-247.377 646.897,-245.536 651,-244 688.031,-230.136 729.467,-218.768 767.577,-209.862"/>
<polygon fill="black" stroke="black" points="768.747,-213.184 777.709,-207.533 767.179,-206.362 768.747,-213.184"/>
</g>
<!-- prediction_years_input_port -->
<g id="node14" class="node"><title>prediction_years_input_port</title>
<ellipse fill="#ffffff" stroke="black" cx="992" cy="-338" rx="7" ry="7"/>
</g>
<!-- prediction_years_input_port&#45;&gt;prediction_years -->
<g id="edge13" class="edge"><title>prediction_years_input_port&#45;&gt;prediction_years</title>
<path fill="none" stroke="black" d="M998.956,-336.959C1049.56,-336.603 1361.73,-333.347 1452,-307 1464.48,-303.357 1477.21,-297.219 1488.33,-290.902"/>
<polygon fill="black" stroke="black" points="1490.44,-293.719 1497.25,-285.604 1486.86,-287.7 1490.44,-293.719"/>
</g>
<!-- prism_data_for_coordinates_input_port -->
<g id="node15" class="node"><title>prism_data_for_coordinates_input_port</title>
<ellipse fill="#ffffff" stroke="black" cx="960" cy="-338" rx="7" ry="7"/>
</g>
<!-- prism_data_for_coordinates_input_port&#45;&gt;prism_data_for_coordinates -->
<g id="edge14" class="edge"><title>prism_data_for_coordinates_input_port&#45;&gt;prism_data_for_coordinates</title>
<path fill="none" stroke="black" d="M962.455,-331.165C965.004,-325.923 969.53,-318.524 976,-315 990.073,-307.335 1104.14,-309.263 1120,-307 1144.2,-303.548 1170.06,-298.315 1194.01,-292.809"/>
<polygon fill="black" stroke="black" points="1194.84,-296.208 1203.78,-290.521 1193.25,-289.392 1194.84,-296.208"/>
</g>
<!-- itrdb_input_port -->
<g id="node16" class="node"><title>itrdb_input_port</title>
<ellipse fill="#ffffff" stroke="black" cx="928" cy="-338" rx="7" ry="7"/>
</g>
<!-- itrdb_input_port&#45;&gt;itrdb -->
<g id="edge15" class="edge"><title>itrdb_input_port&#45;&gt;itrdb</title>
<path fill="none" stroke="black" d="M930.662,-331.498C933.357,-326.49 937.983,-319.251 944,-315 954.222,-307.779 959.395,-311.688 971,-307 979.579,-303.535 988.485,-299.401 997.021,-295.148"/>
<polygon fill="black" stroke="black" points="998.788,-298.176 1006.1,-290.513 995.606,-291.941 998.788,-298.176"/>
</g>
<!-- calibration_yearss_input_port -->
<g id="node17" class="node"><title>calibration_yearss_input_port</title>
<ellipse fill="#ffffff" stroke="black" cx="896" cy="-338" rx="7" ry="7"/>
</g>
<!-- calibration_yearss_input_port&#45;&gt;calibration_yearss -->
<g id="edge16" class="edge"><title>calibration_yearss_input_port&#45;&gt;calibration_yearss</title>
<path fill="none" stroke="black" d="M896,-330.678C896,-322.761 896,-308.681 896,-295.92"/>
<polygon fill="black" stroke="black" points="899.5,-295.675 896,-285.675 892.5,-295.675 899.5,-295.675"/>
</g>
<!-- label_input_port -->
<g id="node18" class="node"><title>label_input_port</title>
<ellipse fill="#ffffff" stroke="black" cx="864" cy="-338" rx="7" ry="7"/>
</g>
<!-- label_input_port&#45;&gt;label -->
<g id="edge17" class="edge"><title>label_input_port&#45;&gt;label</title>
<path fill="none" stroke="black" d="M861.327,-331.512C858.625,-326.515 853.995,-319.282 848,-315 838.162,-307.973 832.295,-313.339 822,-307 815.954,-303.277 810.213,-298.336 805.137,-293.238"/>
<polygon fill="black" stroke="black" points="807.584,-290.73 798.216,-285.781 802.454,-295.492 807.584,-290.73"/>
</g>
<!-- min_width_input_port -->
<g id="node19" class="node"><title>min_width_input_port</title>
<ellipse fill="#ffffff" stroke="black" cx="832" cy="-338" rx="7" ry="7"/>
</g>
<!-- min_width_input_port&#45;&gt;min_width -->
<g id="edge18" class="edge"><title>min_width_input_port&#45;&gt;min_width</title>
<path fill="none" stroke="black" d="M829.492,-331.258C826.906,-326.081 822.355,-318.727 816,-315 790.131,-299.829 776.71,-318.468 749,-307 740.522,-303.491 732.283,-298.082 725.056,-292.416"/>
<polygon fill="black" stroke="black" points="726.998,-289.477 717.082,-285.745 722.506,-294.846 726.998,-289.477"/>
</g>
<!-- verbose_input_port -->
<g id="node20" class="node"><title>verbose_input_port</title>
<ellipse fill="#ffffff" stroke="black" cx="800" cy="-338" rx="7" ry="7"/>
</g>
<!-- verbose_input_port&#45;&gt;verbose -->
<g id="edge19" class="edge"><title>verbose_input_port&#45;&gt;verbose</title>
<path fill="none" stroke="black" d="M793.054,-336.876C771.03,-336.226 701.25,-332.176 651,-307 643.693,-303.339 636.677,-298.103 630.509,-292.667"/>
<polygon fill="black" stroke="black" points="632.871,-290.083 623.191,-285.778 628.073,-295.18 632.871,-290.083"/>
</g>
</g>
</svg>
