<?xml version="1.0" encoding="UTF-8" standalone="no"?>
<!DOCTYPE svg PUBLIC "-//W3C//DTD SVG 1.1//EN"
 "http://www.w3.org/Graphics/SVG/1.1/DTD/svg11.dtd">
<!-- Generated by graphviz version 2.38.0 (20140413.2041)
 -->
<!-- Title: Workflow Pages: 1 -->
<svg width="798pt" height="377pt"
 viewBox="0.00 0.00 798.00 377.00" xmlns="http://www.w3.org/2000/svg" xmlns:xlink="http://www.w3.org/1999/xlink">
<g id="graph0" class="graph" transform="scale(1 1) rotate(0) translate(4 373)">
<title>Workflow</title>
<polygon fill="white" stroke="none" points="-4,4 -4,-373 794,-373 794,4 -4,4"/>
<g id="clust1" class="cluster"><title>cluster_workflow_box_outer</title>
<polygon fill="none" stroke="black" stroke-width="2" points="8,-62 8,-307 782,-307 782,-62 8,-62"/>
</g>
<g id="clust2" class="cluster"><title>cluster_workflow_box_inner</title>
<polygon fill="none" stroke="black" stroke-width="0" points="16,-70 16,-299 774,-299 774,-70 16,-70"/>
</g>
<g id="clust3" class="cluster"><title>cluster_input_ports_group_outer</title>
<polygon fill="none" stroke="black" stroke-width="0" points="355,-315 355,-361 433,-361 433,-315 355,-315"/>
</g>
<g id="clust4" class="cluster"><title>cluster_input_ports_group_inner</title>
<polygon fill="none" stroke="black" stroke-width="0" points="363,-323 363,-353 425,-353 425,-323 363,-323"/>
</g>
<g id="clust5" class="cluster"><title>cluster_output_ports_group_outer</title>
<polygon fill="none" stroke="black" stroke-width="0" points="372,-8 372,-54 418,-54 418,-8 372,-8"/>
</g>
<g id="clust6" class="cluster"><title>cluster_output_ports_group_inner</title>
<polygon fill="none" stroke="black" stroke-width="0" points="380,-16 380,-46 410,-46 410,-16 380,-16"/>
</g>
<!-- extract_prism_data -->
<g id="node1" class="node"><title>extract_prism_data</title>
<polygon fill="#ccffcc" stroke="black" points="24,-161.5 24,-207.5 766,-207.5 766,-161.5 24,-161.5"/>
<text text-anchor="middle" x="395" y="-192.3" font-family="Helvetica,sans-Serif" font-size="14.00">extract_prism_data</text>
<polyline fill="none" stroke="black" points="24,-184.5 766,-184.5 "/>
<text text-anchor="middle" x="395" y="-169.3" font-family="Helvetica,sans-Serif" font-size="14.00">Load the prism data file with precipitation values and extract the data for the input coordinates and save as a csv file.</text>
</g>
<!-- prism_data_for_coordinates -->
<g id="node2" class="node"><title>prism_data_for_coordinates</title>
<path fill="#ffffcc" stroke="black" d="M251.5,-78.5C251.5,-78.5 538.5,-78.5 538.5,-78.5 544.5,-78.5 550.5,-84.5 550.5,-90.5 550.5,-90.5 550.5,-112.5 550.5,-112.5 550.5,-118.5 544.5,-124.5 538.5,-124.5 538.5,-124.5 251.5,-124.5 251.5,-124.5 245.5,-124.5 239.5,-118.5 239.5,-112.5 239.5,-112.5 239.5,-90.5 239.5,-90.5 239.5,-84.5 245.5,-78.5 251.5,-78.5"/>
<text text-anchor="middle" x="395" y="-109.3" font-family="Helvetica,sans-Serif" font-size="14.00">prism_data_for_coordinates</text>
<polyline fill="none" stroke="black" points="239.5,-101.5 550.5,-101.5 "/>
<text text-anchor="middle" x="395" y="-86.3" font-family="Helvetica,sans-Serif" font-size="14.00">file:/.output/{session_id}/{run_id}/{data_file}.csv</text>
</g>
<!-- extract_prism_data&#45;&gt;prism_data_for_coordinates -->
<g id="edge1" class="edge"><title>extract_prism_data&#45;&gt;prism_data_for_coordinates</title>
<path fill="none" stroke="black" d="M395,-161.366C395,-153.152 395,-143.658 395,-134.725"/>
<polygon fill="black" stroke="black" points="398.5,-134.607 395,-124.607 391.5,-134.607 398.5,-134.607"/>
</g>
<!-- prism_data_for_coordinates_output_port -->
<g id="node7" class="node"><title>prism_data_for_coordinates_output_port</title>
<ellipse fill="#ffffff" stroke="black" cx="395" cy="-31" rx="7" ry="7"/>
</g>
<!-- prism_data_for_coordinates&#45;&gt;prism_data_for_coordinates_output_port -->
<g id="edge6" class="edge"><title>prism_data_for_coordinates&#45;&gt;prism_data_for_coordinates_output_port</title>
<path fill="none" stroke="black" d="M395,-78.4491C395,-68.6592 395,-57.3397 395,-48.3261"/>
<polygon fill="black" stroke="black" points="398.5,-48.1278 395,-38.1279 391.5,-48.1279 398.5,-48.1278"/>
</g>
<!-- coordinates -->
<g id="node3" class="node"><title>coordinates</title>
<path fill="#ffffcc" stroke="black" d="M499.5,-285.5C499.5,-285.5 432.5,-285.5 432.5,-285.5 426.5,-285.5 420.5,-279.5 420.5,-273.5 420.5,-273.5 420.5,-261.5 420.5,-261.5 420.5,-255.5 426.5,-249.5 432.5,-249.5 432.5,-249.5 499.5,-249.5 499.5,-249.5 505.5,-249.5 511.5,-255.5 511.5,-261.5 511.5,-261.5 511.5,-273.5 511.5,-273.5 511.5,-279.5 505.5,-285.5 499.5,-285.5"/>
<text text-anchor="middle" x="466" y="-263.8" font-family="Helvetica,sans-Serif" font-size="14.00">coordinates</text>
</g>
<!-- coordinates&#45;&gt;extract_prism_data -->
<g id="edge2" class="edge"><title>coordinates&#45;&gt;extract_prism_data</title>
<path fill="none" stroke="black" d="M450.943,-249.322C442.277,-239.436 431.147,-226.738 421.1,-215.275"/>
<polygon fill="black" stroke="black" points="423.584,-212.8 414.36,-207.587 418.32,-217.414 423.584,-212.8"/>
</g>
<!-- prism_data -->
<g id="node4" class="node"><title>prism_data</title>
<path fill="#fcfcfc" stroke="black" d="M256,-244.5C256,-244.5 390,-244.5 390,-244.5 396,-244.5 402,-250.5 402,-256.5 402,-256.5 402,-278.5 402,-278.5 402,-284.5 396,-290.5 390,-290.5 390,-290.5 256,-290.5 256,-290.5 250,-290.5 244,-284.5 244,-278.5 244,-278.5 244,-256.5 244,-256.5 244,-250.5 250,-244.5 256,-244.5"/>
<text text-anchor="middle" x="323" y="-275.3" font-family="Helvetica,sans-Serif" font-size="14.00">prism_data</text>
<polyline fill="none" stroke="black" points="244,-267.5 402,-267.5 "/>
<text text-anchor="middle" x="323" y="-252.3" font-family="Helvetica,sans-Serif" font-size="14.00">file:/data/112W36N.nc</text>
</g>
<!-- prism_data&#45;&gt;extract_prism_data -->
<g id="edge3" class="edge"><title>prism_data&#45;&gt;extract_prism_data</title>
<path fill="none" stroke="black" d="M342.674,-244.366C350.691,-235.348 360.077,-224.788 368.67,-215.121"/>
<polygon fill="black" stroke="black" points="371.322,-217.406 375.349,-207.607 366.09,-212.756 371.322,-217.406"/>
</g>
<!-- coordinates_input_port -->
<g id="node5" class="node"><title>coordinates_input_port</title>
<ellipse fill="#ffffff" stroke="black" cx="410" cy="-338" rx="7" ry="7"/>
</g>
<!-- coordinates_input_port&#45;&gt;coordinates -->
<g id="edge4" class="edge"><title>coordinates_input_port&#45;&gt;coordinates</title>
<path fill="none" stroke="black" d="M414.027,-332.074C420.568,-324.073 433.932,-307.727 445.469,-293.613"/>
<polygon fill="black" stroke="black" points="448.367,-295.599 451.986,-285.642 442.947,-291.169 448.367,-295.599"/>
</g>
<!-- prism_data_input_port -->
<g id="node6" class="node"><title>prism_data_input_port</title>
<ellipse fill="#ffffff" stroke="black" cx="378" cy="-338" rx="7" ry="7"/>
</g>
<!-- prism_data_input_port&#45;&gt;prism_data -->
<g id="edge5" class="edge"><title>prism_data_input_port&#45;&gt;prism_data</title>
<path fill="none" stroke="black" d="M374.045,-332.074C368.333,-324.961 357.326,-311.251 346.991,-298.379"/>
<polygon fill="black" stroke="black" points="349.686,-296.145 340.696,-290.539 344.227,-300.528 349.686,-296.145"/>
</g>
</g>
</svg>
