<?xml version="1.0" encoding="UTF-8" standalone="no"?>
<!DOCTYPE svg PUBLIC "-//W3C//DTD SVG 1.1//EN"
 "http://www.w3.org/Graphics/SVG/1.1/DTD/svg11.dtd">
<!-- Generated by graphviz version 2.38.0 (20140413.2041)
 -->
<!-- Title: Workflow Pages: 1 -->
<svg width="1665pt" height="377pt"
 viewBox="0.00 0.00 1665.00 377.00" xmlns="http://www.w3.org/2000/svg" xmlns:xlink="http://www.w3.org/1999/xlink">
<g id="graph0" class="graph" transform="scale(1 1) rotate(0) translate(4 373)">
<title>Workflow</title>
<polygon fill="white" stroke="none" points="-4,4 -4,-373 1661,-373 1661,4 -4,4"/>
<g id="clust1" class="cluster"><title>cluster_workflow_box_outer</title>
<polygon fill="none" stroke="black" stroke-width="2" points="8,-62 8,-307 1649,-307 1649,-62 8,-62"/>
</g>
<g id="clust2" class="cluster"><title>cluster_workflow_box_inner</title>
<polygon fill="none" stroke="black" stroke-width="0" points="16,-70 16,-299 1641,-299 1641,-70 16,-70"/>
</g>
<g id="clust5" class="cluster"><title>cluster_output_ports_group_outer</title>
<polygon fill="none" stroke="black" stroke-width="0" points="809,-8 809,-54 983,-54 983,-8 809,-8"/>
</g>
<g id="clust6" class="cluster"><title>cluster_output_ports_group_inner</title>
<polygon fill="none" stroke="black" stroke-width="0" points="817,-16 817,-46 975,-46 975,-16 817,-16"/>
</g>
<g id="clust3" class="cluster"><title>cluster_input_ports_group_outer</title>
<polygon fill="none" stroke="black" stroke-width="0" points="809,-315 809,-361 983,-361 983,-315 809,-315"/>
</g>
<g id="clust4" class="cluster"><title>cluster_input_ports_group_inner</title>
<polygon fill="none" stroke="black" stroke-width="0" points="817,-323 817,-353 975,-353 975,-323 817,-323"/>
</g>
<!-- gen_paleocar_model -->
<g id="node1" class="node"><title>gen_paleocar_model</title>
<polygon fill="#ccffcc" stroke="black" points="642,-161.5 642,-207.5 1150,-207.5 1150,-161.5 642,-161.5"/>
<text text-anchor="middle" x="896" y="-192.3" font-family="Helvetica,sans-Serif" font-size="14.00">gen_paleocar_model</text>
<polyline fill="none" stroke="black" points="642,-184.5 1150,-184.5 "/>
<text text-anchor="middle" x="896" y="-169.3" font-family="Helvetica,sans-Serif" font-size="14.00">execute paleocar model for reconstruction of paleoclimate of the study region.</text>
</g>
<!-- prediction_model -->
<g id="node2" class="node"><title>prediction_model</title>
<path fill="#ffffcc" stroke="black" d="M36,-78.5C36,-78.5 364,-78.5 364,-78.5 370,-78.5 376,-84.5 376,-90.5 376,-90.5 376,-112.5 376,-112.5 376,-118.5 370,-124.5 364,-124.5 364,-124.5 36,-124.5 36,-124.5 30,-124.5 24,-118.5 24,-112.5 24,-112.5 24,-90.5 24,-90.5 24,-84.5 30,-78.5 36,-78.5"/>
<text text-anchor="middle" x="200" y="-109.3" font-family="Helvetica,sans-Serif" font-size="14.00">prediction_model</text>
<polyline fill="none" stroke="black" points="24,-101.5 376,-101.5 "/>
<text text-anchor="middle" x="200" y="-86.3" font-family="Helvetica,sans-Serif" font-size="14.00">file:/.output/{session_id}/{run_id}/{label}.prediction.rds</text>
</g>
<!-- gen_paleocar_model&#45;&gt;prediction_model -->
<g id="edge1" class="edge"><title>gen_paleocar_model&#45;&gt;prediction_model</title>
<path fill="none" stroke="black" d="M701.621,-161.489C609.252,-150.959 497.013,-138.062 386.247,-125.026"/>
<polygon fill="black" stroke="black" points="386.563,-121.539 376.222,-123.845 385.744,-128.491 386.563,-121.539"/>
</g>
<!-- prediction_plot -->
<g id="node3" class="node"><title>prediction_plot</title>
<path fill="#ffffcc" stroke="black" d="M406.5,-78.5C406.5,-78.5 687.5,-78.5 687.5,-78.5 693.5,-78.5 699.5,-84.5 699.5,-90.5 699.5,-90.5 699.5,-112.5 699.5,-112.5 699.5,-118.5 693.5,-124.5 687.5,-124.5 687.5,-124.5 406.5,-124.5 406.5,-124.5 400.5,-124.5 394.5,-118.5 394.5,-112.5 394.5,-112.5 394.5,-90.5 394.5,-90.5 394.5,-84.5 400.5,-78.5 406.5,-78.5"/>
<text text-anchor="middle" x="547" y="-109.3" font-family="Helvetica,sans-Serif" font-size="14.00">prediction_plot</text>
<polyline fill="none" stroke="black" points="394.5,-101.5 699.5,-101.5 "/>
<text text-anchor="middle" x="547" y="-86.3" font-family="Helvetica,sans-Serif" font-size="14.00">file:/{session_id}/{run_id}/{label}.prediction.jpg</text>
</g>
<!-- gen_paleocar_model&#45;&gt;prediction_plot -->
<g id="edge2" class="edge"><title>gen_paleocar_model&#45;&gt;prediction_plot</title>
<path fill="none" stroke="black" d="M801.095,-161.473C754.927,-150.758 699.297,-137.847 651.875,-126.841"/>
<polygon fill="black" stroke="black" points="652.418,-123.374 641.886,-124.522 650.836,-130.193 652.418,-123.374"/>
</g>
<!-- uncertainty_model -->
<g id="node4" class="node"><title>uncertainty_model</title>
<path fill="#ffffcc" stroke="black" d="M729.5,-78.5C729.5,-78.5 1062.5,-78.5 1062.5,-78.5 1068.5,-78.5 1074.5,-84.5 1074.5,-90.5 1074.5,-90.5 1074.5,-112.5 1074.5,-112.5 1074.5,-118.5 1068.5,-124.5 1062.5,-124.5 1062.5,-124.5 729.5,-124.5 729.5,-124.5 723.5,-124.5 717.5,-118.5 717.5,-112.5 717.5,-112.5 717.5,-90.5 717.5,-90.5 717.5,-84.5 723.5,-78.5 729.5,-78.5"/>
<text text-anchor="middle" x="896" y="-109.3" font-family="Helvetica,sans-Serif" font-size="14.00">uncertainty_model</text>
<polyline fill="none" stroke="black" points="717.5,-101.5 1074.5,-101.5 "/>
<text text-anchor="middle" x="896" y="-86.3" font-family="Helvetica,sans-Serif" font-size="14.00">file:/.output/{session_id}/{run_id}/{label}.uncertainty.rds</text>
</g>
<!-- gen_paleocar_model&#45;&gt;uncertainty_model -->
<g id="edge3" class="edge"><title>gen_paleocar_model&#45;&gt;uncertainty_model</title>
<path fill="none" stroke="black" d="M896,-161.366C896,-153.152 896,-143.658 896,-134.725"/>
<polygon fill="black" stroke="black" points="899.5,-134.607 896,-124.607 892.5,-134.607 899.5,-134.607"/>
</g>
<!-- uncertainty_plot -->
<g id="node5" class="node"><title>uncertainty_plot</title>
<path fill="#ffffcc" stroke="black" d="M1105,-78.5C1105,-78.5 1437,-78.5 1437,-78.5 1443,-78.5 1449,-84.5 1449,-90.5 1449,-90.5 1449,-112.5 1449,-112.5 1449,-118.5 1443,-124.5 1437,-124.5 1437,-124.5 1105,-124.5 1105,-124.5 1099,-124.5 1093,-118.5 1093,-112.5 1093,-112.5 1093,-90.5 1093,-90.5 1093,-84.5 1099,-78.5 1105,-78.5"/>
<text text-anchor="middle" x="1271" y="-109.3" font-family="Helvetica,sans-Serif" font-size="14.00">uncertainty_plot</text>
<polyline fill="none" stroke="black" points="1093,-101.5 1449,-101.5 "/>
<text text-anchor="middle" x="1271" y="-86.3" font-family="Helvetica,sans-Serif" font-size="14.00">file:/.output/{session_id}/{run_id}/{label}.uncertainty.jpg</text>
</g>
<!-- gen_paleocar_model&#45;&gt;uncertainty_plot -->
<g id="edge4" class="edge"><title>gen_paleocar_model&#45;&gt;uncertainty_plot</title>
<path fill="none" stroke="black" d="M997.975,-161.473C1047.79,-150.713 1107.86,-137.739 1158.95,-126.702"/>
<polygon fill="black" stroke="black" points="1160.01,-130.055 1169.05,-124.522 1158.53,-123.213 1160.01,-130.055"/>
</g>
<!-- paleocar_exec_log_file -->
<g id="node6" class="node"><title>paleocar_exec_log_file</title>
<path fill="#ffffcc" stroke="black" d="M1620.5,-119.5C1620.5,-119.5 1479.5,-119.5 1479.5,-119.5 1473.5,-119.5 1467.5,-113.5 1467.5,-107.5 1467.5,-107.5 1467.5,-95.5 1467.5,-95.5 1467.5,-89.5 1473.5,-83.5 1479.5,-83.5 1479.5,-83.5 1620.5,-83.5 1620.5,-83.5 1626.5,-83.5 1632.5,-89.5 1632.5,-95.5 1632.5,-95.5 1632.5,-107.5 1632.5,-107.5 1632.5,-113.5 1626.5,-119.5 1620.5,-119.5"/>
<text text-anchor="middle" x="1550" y="-97.8" font-family="Helvetica,sans-Serif" font-size="14.00">paleocar_exec_log_file</text>
</g>
<!-- gen_paleocar_model&#45;&gt;paleocar_exec_log_file -->
<g id="edge5" class="edge"><title>gen_paleocar_model&#45;&gt;paleocar_exec_log_file</title>
<path fill="none" stroke="black" d="M1150.2,-164.432C1246.95,-155.24 1357.96,-142.356 1458,-125 1463.47,-124.051 1469.09,-122.962 1474.74,-121.785"/>
<polygon fill="black" stroke="black" points="1475.86,-125.123 1484.89,-119.584 1474.38,-118.281 1475.86,-125.123"/>
</g>
<!-- prediction_model_output_port -->
<g id="node17" class="node"><title>prediction_model_output_port</title>
<ellipse fill="#ffffff" stroke="black" cx="832" cy="-31" rx="7" ry="7"/>
</g>
<!-- prediction_model&#45;&gt;prediction_model_output_port -->
<g id="edge16" class="edge"><title>prediction_model&#45;&gt;prediction_model_output_port</title>
<path fill="none" stroke="black" d="M293.714,-78.4943C323.111,-72.295 355.777,-66.1246 386,-62 551.814,-39.3708 754.745,-33.5784 814.606,-32.3145"/>
<polygon fill="black" stroke="black" points="814.952,-35.8085 824.882,-32.1137 814.815,-28.8098 814.952,-35.8085"/>
</g>
<!-- prediction_plot_output_port -->
<g id="node18" class="node"><title>prediction_plot_output_port</title>
<ellipse fill="#ffffff" stroke="black" cx="864" cy="-31" rx="7" ry="7"/>
</g>
<!-- prediction_plot&#45;&gt;prediction_plot_output_port -->
<g id="edge17" class="edge"><title>prediction_plot&#45;&gt;prediction_plot_output_port</title>
<path fill="none" stroke="black" d="M627.213,-78.4907C653.129,-72.1741 682.113,-65.9374 709,-62 739.613,-57.5169 820.844,-68.8265 848,-54 851.233,-52.2347 853.982,-49.5028 856.24,-46.5572"/>
<polygon fill="black" stroke="black" points="859.34,-48.1954 861.543,-37.8321 853.359,-44.5597 859.34,-48.1954"/>
</g>
<!-- uncertainty_model_output_port -->
<g id="node19" class="node"><title>uncertainty_model_output_port</title>
<ellipse fill="#ffffff" stroke="black" cx="896" cy="-31" rx="7" ry="7"/>
</g>
<!-- uncertainty_model&#45;&gt;uncertainty_model_output_port -->
<g id="edge18" class="edge"><title>uncertainty_model&#45;&gt;uncertainty_model_output_port</title>
<path fill="none" stroke="black" d="M896,-78.4491C896,-68.6592 896,-57.3397 896,-48.3261"/>
<polygon fill="black" stroke="black" points="899.5,-48.1278 896,-38.1279 892.5,-48.1279 899.5,-48.1278"/>
</g>
<!-- uncertainty_plot_output_port -->
<g id="node20" class="node"><title>uncertainty_plot_output_port</title>
<ellipse fill="#ffffff" stroke="black" cx="928" cy="-31" rx="7" ry="7"/>
</g>
<!-- uncertainty_plot&#45;&gt;uncertainty_plot_output_port -->
<g id="edge19" class="edge"><title>uncertainty_plot&#45;&gt;uncertainty_plot_output_port</title>
<path fill="none" stroke="black" d="M1177.28,-78.4138C1147.6,-72.1722 1114.57,-65.998 1084,-62 1068.55,-59.9792 957.677,-61.4636 944,-54 940.766,-52.2354 938.018,-49.5038 935.759,-46.5582"/>
<polygon fill="black" stroke="black" points="938.641,-44.5606 930.456,-37.8327 932.659,-48.1961 938.641,-44.5606"/>
</g>
<!-- paleocar_exec_log_file_output_port -->
<g id="node21" class="node"><title>paleocar_exec_log_file_output_port</title>
<ellipse fill="#ffffff" stroke="black" cx="960" cy="-31" rx="7" ry="7"/>
</g>
<!-- paleocar_exec_log_file&#45;&gt;paleocar_exec_log_file_output_port -->
<g id="edge20" class="edge"><title>paleocar_exec_log_file&#45;&gt;paleocar_exec_log_file_output_port</title>
<path fill="none" stroke="black" d="M1516.83,-83.4282C1499.72,-75.4547 1478.24,-66.7014 1458,-62 1363.7,-40.0944 1054.37,-33.5703 977.44,-32.2681"/>
<polygon fill="black" stroke="black" points="977.213,-28.7641 967.158,-32.1024 977.1,-35.7632 977.213,-28.7641"/>
</g>
<!-- prediction_years -->
<g id="node7" class="node"><title>prediction_years</title>
<path fill="#ffffcc" stroke="black" d="M1419,-285.5C1419,-285.5 1321,-285.5 1321,-285.5 1315,-285.5 1309,-279.5 1309,-273.5 1309,-273.5 1309,-261.5 1309,-261.5 1309,-255.5 1315,-249.5 1321,-249.5 1321,-249.5 1419,-249.5 1419,-249.5 1425,-249.5 1431,-255.5 1431,-261.5 1431,-261.5 1431,-273.5 1431,-273.5 1431,-279.5 1425,-285.5 1419,-285.5"/>
<text text-anchor="middle" x="1370" y="-263.8" font-family="Helvetica,sans-Serif" font-size="14.00">prediction_years</text>
</g>
<!-- prediction_years&#45;&gt;gen_paleocar_model -->
<g id="edge6" class="edge"><title>prediction_years&#45;&gt;gen_paleocar_model</title>
<path fill="none" stroke="black" d="M1320.57,-249.484C1313.71,-247.454 1306.72,-245.554 1300,-244 1237.08,-229.441 1167.77,-217.834 1104.58,-208.923"/>
<polygon fill="black" stroke="black" points="1104.88,-205.431 1094.5,-207.516 1103.92,-212.364 1104.88,-205.431"/>
</g>
<!-- prism_data_for_coordinates -->
<g id="node8" class="node"><title>prism_data_for_coordinates</title>
<path fill="#ffffcc" stroke="black" d="M991.5,-244.5C991.5,-244.5 1278.5,-244.5 1278.5,-244.5 1284.5,-244.5 1290.5,-250.5 1290.5,-256.5 1290.5,-256.5 1290.5,-278.5 1290.5,-278.5 1290.5,-284.5 1284.5,-290.5 1278.5,-290.5 1278.5,-290.5 991.5,-290.5 991.5,-290.5 985.5,-290.5 979.5,-284.5 979.5,-278.5 979.5,-278.5 979.5,-256.5 979.5,-256.5 979.5,-250.5 985.5,-244.5 991.5,-244.5"/>
<text text-anchor="middle" x="1135" y="-275.3" font-family="Helvetica,sans-Serif" font-size="14.00">prism_data_for_coordinates</text>
<polyline fill="none" stroke="black" points="979.5,-267.5 1290.5,-267.5 "/>
<text text-anchor="middle" x="1135" y="-252.3" font-family="Helvetica,sans-Serif" font-size="14.00">file:/.output/{session_id}/{run_id}/{data_file}.csv</text>
</g>
<!-- prism_data_for_coordinates&#45;&gt;gen_paleocar_model -->
<g id="edge7" class="edge"><title>prism_data_for_coordinates&#45;&gt;gen_paleocar_model</title>
<path fill="none" stroke="black" d="M1070.01,-244.473C1039.32,-234.072 1002.52,-221.601 970.687,-210.812"/>
<polygon fill="black" stroke="black" points="971.573,-207.417 960.979,-207.522 969.327,-214.047 971.573,-207.417"/>
</g>
<!-- itrdb -->
<g id="node9" class="node"><title>itrdb</title>
<path fill="#fcfcfc" stroke="black" d="M842.5,-244.5C842.5,-244.5 949.5,-244.5 949.5,-244.5 955.5,-244.5 961.5,-250.5 961.5,-256.5 961.5,-256.5 961.5,-278.5 961.5,-278.5 961.5,-284.5 955.5,-290.5 949.5,-290.5 949.5,-290.5 842.5,-290.5 842.5,-290.5 836.5,-290.5 830.5,-284.5 830.5,-278.5 830.5,-278.5 830.5,-256.5 830.5,-256.5 830.5,-250.5 836.5,-244.5 842.5,-244.5"/>
<text text-anchor="middle" x="896" y="-275.3" font-family="Helvetica,sans-Serif" font-size="14.00">itrdb</text>
<polyline fill="none" stroke="black" points="830.5,-267.5 961.5,-267.5 "/>
<text text-anchor="middle" x="896" y="-252.3" font-family="Helvetica,sans-Serif" font-size="14.00">file:/data/itrdb.Rda</text>
</g>
<!-- itrdb&#45;&gt;gen_paleocar_model -->
<g id="edge8" class="edge"><title>itrdb&#45;&gt;gen_paleocar_model</title>
<path fill="none" stroke="black" d="M896,-244.366C896,-236.152 896,-226.658 896,-217.725"/>
<polygon fill="black" stroke="black" points="899.5,-217.607 896,-207.607 892.5,-217.607 899.5,-217.607"/>
</g>
<!-- calibration_years -->
<g id="node10" class="node"><title>calibration_years</title>
<path fill="#fcfcfc" stroke="black" d="M800.5,-285.5C800.5,-285.5 701.5,-285.5 701.5,-285.5 695.5,-285.5 689.5,-279.5 689.5,-273.5 689.5,-273.5 689.5,-261.5 689.5,-261.5 689.5,-255.5 695.5,-249.5 701.5,-249.5 701.5,-249.5 800.5,-249.5 800.5,-249.5 806.5,-249.5 812.5,-255.5 812.5,-261.5 812.5,-261.5 812.5,-273.5 812.5,-273.5 812.5,-279.5 806.5,-285.5 800.5,-285.5"/>
<text text-anchor="middle" x="751" y="-263.8" font-family="Helvetica,sans-Serif" font-size="14.00">calibration_years</text>
</g>
<!-- calibration_years&#45;&gt;gen_paleocar_model -->
<g id="edge9" class="edge"><title>calibration_years&#45;&gt;gen_paleocar_model</title>
<path fill="none" stroke="black" d="M781.751,-249.322C800.894,-238.628 825.928,-224.644 847.681,-212.492"/>
<polygon fill="black" stroke="black" points="849.439,-215.519 856.462,-207.587 846.025,-209.408 849.439,-215.519"/>
</g>
<!-- label -->
<g id="node11" class="node"><title>label</title>
<path fill="#fcfcfc" stroke="black" d="M659,-285.5C659,-285.5 629,-285.5 629,-285.5 623,-285.5 617,-279.5 617,-273.5 617,-273.5 617,-261.5 617,-261.5 617,-255.5 623,-249.5 629,-249.5 629,-249.5 659,-249.5 659,-249.5 665,-249.5 671,-255.5 671,-261.5 671,-261.5 671,-273.5 671,-273.5 671,-279.5 665,-285.5 659,-285.5"/>
<text text-anchor="middle" x="644" y="-263.8" font-family="Helvetica,sans-Serif" font-size="14.00">label</text>
</g>
<!-- label&#45;&gt;gen_paleocar_model -->
<g id="edge10" class="edge"><title>label&#45;&gt;gen_paleocar_model</title>
<path fill="none" stroke="black" d="M670.198,-249.349C673.749,-247.389 677.408,-245.544 681,-244 712.941,-230.269 748.956,-218.968 782.246,-210.084"/>
<polygon fill="black" stroke="black" points="783.231,-213.444 792.018,-207.524 781.457,-206.673 783.231,-213.444"/>
</g>
<!-- prediction_years_input_port -->
<g id="node12" class="node"><title>prediction_years_input_port</title>
<ellipse fill="#ffffff" stroke="black" cx="960" cy="-338" rx="7" ry="7"/>
</g>
<!-- prediction_years_input_port&#45;&gt;prediction_years -->
<g id="edge11" class="edge"><title>prediction_years_input_port&#45;&gt;prediction_years</title>
<path fill="none" stroke="black" d="M966.943,-336.777C1009.4,-335.355 1234.38,-326.97 1300,-307 1312.34,-303.246 1324.94,-297.141 1336,-290.888"/>
<polygon fill="black" stroke="black" points="1338.05,-293.744 1344.88,-285.648 1334.49,-287.715 1338.05,-293.744"/>
</g>
<!-- prism_data_for_coordinates_input_port -->
<g id="node13" class="node"><title>prism_data_for_coordinates_input_port</title>
<ellipse fill="#ffffff" stroke="black" cx="928" cy="-338" rx="7" ry="7"/>
</g>
<!-- prism_data_for_coordinates_input_port&#45;&gt;prism_data_for_coordinates -->
<g id="edge12" class="edge"><title>prism_data_for_coordinates_input_port&#45;&gt;prism_data_for_coordinates</title>
<path fill="none" stroke="black" d="M930.615,-331.429C933.277,-326.374 937.88,-319.101 944,-315 946.113,-313.584 987.69,-303.4 1031.51,-292.923"/>
<polygon fill="black" stroke="black" points="1032.56,-296.27 1041.48,-290.544 1030.94,-289.462 1032.56,-296.27"/>
</g>
<!-- itrdb_input_port -->
<g id="node14" class="node"><title>itrdb_input_port</title>
<ellipse fill="#ffffff" stroke="black" cx="896" cy="-338" rx="7" ry="7"/>
</g>
<!-- itrdb_input_port&#45;&gt;itrdb -->
<g id="edge13" class="edge"><title>itrdb_input_port&#45;&gt;itrdb</title>
<path fill="none" stroke="black" d="M896,-330.678C896,-323.781 896,-312.208 896,-300.904"/>
<polygon fill="black" stroke="black" points="899.5,-300.74 896,-290.74 892.5,-300.74 899.5,-300.74"/>
</g>
<!-- calibration_years_input_port -->
<g id="node15" class="node"><title>calibration_years_input_port</title>
<ellipse fill="#ffffff" stroke="black" cx="864" cy="-338" rx="7" ry="7"/>
</g>
<!-- calibration_years_input_port&#45;&gt;calibration_years -->
<g id="edge14" class="edge"><title>calibration_years_input_port&#45;&gt;calibration_years</title>
<path fill="none" stroke="black" d="M861.327,-331.512C858.625,-326.515 853.995,-319.282 848,-315 838.162,-307.973 833.147,-311.682 822,-307 810.801,-302.296 799.052,-296.367 788.407,-290.581"/>
<polygon fill="black" stroke="black" points="789.82,-287.362 779.378,-285.567 786.421,-293.482 789.82,-287.362"/>
</g>
<!-- label_input_port -->
<g id="node16" class="node"><title>label_input_port</title>
<ellipse fill="#ffffff" stroke="black" cx="832" cy="-338" rx="7" ry="7"/>
</g>
<!-- label_input_port&#45;&gt;label -->
<g id="edge15" class="edge"><title>label_input_port&#45;&gt;label</title>
<path fill="none" stroke="black" d="M824.878,-337.058C802.311,-336.949 730.942,-334.328 681,-307 674.662,-303.532 668.753,-298.607 663.601,-293.434"/>
<polygon fill="black" stroke="black" points="665.963,-290.831 656.63,-285.818 660.8,-295.557 665.963,-290.831"/>
</g>
</g>
</svg>
