<?xml version="1.0" encoding="UTF-8" standalone="no"?>
<!DOCTYPE svg PUBLIC "-//W3C//DTD SVG 1.1//EN"
 "http://www.w3.org/Graphics/SVG/1.1/DTD/svg11.dtd">
<!-- Generated by graphviz version 2.38.0 (20140413.2041)
 -->
<!-- Title: Workflow Pages: 1 -->
<svg width="1281pt" height="1174pt"
 viewBox="0.00 0.00 1281.00 1174.00" xmlns="http://www.w3.org/2000/svg" xmlns:xlink="http://www.w3.org/1999/xlink">
<g id="graph0" class="graph" transform="scale(1 1) rotate(0) translate(4 1170)">
<title>Workflow</title>
<polygon fill="white" stroke="none" points="-4,4 -4,-1170 1277,-1170 1277,4 -4,4"/>
<g id="clust1" class="cluster"><title>cluster_workflow_box_outer</title>
<polygon fill="none" stroke="black" stroke-width="2" points="8,-62 8,-1104 1261,-1104 1261,-62 8,-62"/>
</g>
<g id="clust2" class="cluster"><title>cluster_workflow_box_inner</title>
<polygon fill="none" stroke="black" stroke-width="0" points="16,-70 16,-1096 1253,-1096 1253,-70 16,-70"/>
</g>
<g id="clust3" class="cluster"><title>cluster_input_ports_group_outer</title>
<polygon fill="none" stroke="black" stroke-width="0" points="913,-1112 913,-1158 1023,-1158 1023,-1112 913,-1112"/>
</g>
<g id="clust4" class="cluster"><title>cluster_input_ports_group_inner</title>
<polygon fill="none" stroke="black" stroke-width="0" points="921,-1120 921,-1150 1015,-1150 1015,-1120 921,-1120"/>
</g>
<g id="clust5" class="cluster"><title>cluster_output_ports_group_outer</title>
<polygon fill="none" stroke="black" stroke-width="0" points="683,-8 683,-54 729,-54 729,-8 683,-8"/>
</g>
<g id="clust6" class="cluster"><title>cluster_output_ports_group_inner</title>
<polygon fill="none" stroke="black" stroke-width="0" points="691,-16 691,-46 721,-46 721,-16 691,-16"/>
</g>
<!-- create_shapefile_dir -->
<g id="node1" class="node"><title>create_shapefile_dir</title>
<polygon fill="#ccffcc" stroke="black" points="469,-969.5 469,-1015.5 921,-1015.5 921,-969.5 469,-969.5"/>
<text text-anchor="middle" x="695" y="-1000.3" font-family="Helvetica,sans-Serif" font-size="14.00">create_shapefile_dir</text>
<polyline fill="none" stroke="black" points="469,-992.5 921,-992.5 "/>
<text text-anchor="middle" x="695" y="-977.3" font-family="Helvetica,sans-Serif" font-size="14.00">create a direcorty for downloading the shapefiles for the study region.</text>
</g>
<!-- user_created_dir -->
<g id="node10" class="node"><title>user_created_dir</title>
<path fill="#ffffcc" stroke="black" d="M619.5,-886.5C619.5,-886.5 732.5,-886.5 732.5,-886.5 738.5,-886.5 744.5,-892.5 744.5,-898.5 744.5,-898.5 744.5,-920.5 744.5,-920.5 744.5,-926.5 738.5,-932.5 732.5,-932.5 732.5,-932.5 619.5,-932.5 619.5,-932.5 613.5,-932.5 607.5,-926.5 607.5,-920.5 607.5,-920.5 607.5,-898.5 607.5,-898.5 607.5,-892.5 613.5,-886.5 619.5,-886.5"/>
<text text-anchor="middle" x="676" y="-917.3" font-family="Helvetica,sans-Serif" font-size="14.00">user_created_dir</text>
<polyline fill="none" stroke="black" points="607.5,-909.5 744.5,-909.5 "/>
<text text-anchor="middle" x="676" y="-894.3" font-family="Helvetica,sans-Serif" font-size="14.00">file:./{study_region}</text>
</g>
<!-- create_shapefile_dir&#45;&gt;user_created_dir -->
<g id="edge1" class="edge"><title>create_shapefile_dir&#45;&gt;user_created_dir</title>
<path fill="none" stroke="black" d="M689.808,-969.366C687.86,-961.062 685.606,-951.451 683.491,-942.434"/>
<polygon fill="black" stroke="black" points="686.877,-941.543 681.186,-932.607 680.062,-943.142 686.877,-941.543"/>
</g>
<!-- download_shapefile_archive -->
<g id="node2" class="node"><title>download_shapefile_archive</title>
<polygon fill="#ccffcc" stroke="black" points="547,-803.5 547,-849.5 1245,-849.5 1245,-803.5 547,-803.5"/>
<text text-anchor="middle" x="896" y="-834.3" font-family="Helvetica,sans-Serif" font-size="14.00">download_shapefile_archive</text>
<polyline fill="none" stroke="black" points="547,-826.5 1245,-826.5 "/>
<text text-anchor="middle" x="896" y="-811.3" font-family="Helvetica,sans-Serif" font-size="14.00">download the zip file of the region which contains the boundary, tracts, metadata.xml and nps_tracts.xml files.</text>
</g>
<!-- compressed_shapefile -->
<g id="node11" class="node"><title>compressed_shapefile</title>
<path fill="#ffffcc" stroke="black" d="M760,-720.5C760,-720.5 1032,-720.5 1032,-720.5 1038,-720.5 1044,-726.5 1044,-732.5 1044,-732.5 1044,-754.5 1044,-754.5 1044,-760.5 1038,-766.5 1032,-766.5 1032,-766.5 760,-766.5 760,-766.5 754,-766.5 748,-760.5 748,-754.5 748,-754.5 748,-732.5 748,-732.5 748,-726.5 754,-720.5 760,-720.5"/>
<text text-anchor="middle" x="896" y="-751.3" font-family="Helvetica,sans-Serif" font-size="14.00">compressed_shapefile</text>
<polyline fill="none" stroke="black" points="748,-743.5 1044,-743.5 "/>
<text text-anchor="middle" x="896" y="-728.3" font-family="Helvetica,sans-Serif" font-size="14.00">file:./{study_region}/{study_region}_tracts.zip</text>
</g>
<!-- download_shapefile_archive&#45;&gt;compressed_shapefile -->
<g id="edge3" class="edge"><title>download_shapefile_archive&#45;&gt;compressed_shapefile</title>
<path fill="none" stroke="black" d="M896,-803.366C896,-795.152 896,-785.658 896,-776.725"/>
<polygon fill="black" stroke="black" points="899.5,-776.607 896,-766.607 892.5,-776.607 899.5,-776.607"/>
</g>
<!-- uncompress_shapefile -->
<g id="node3" class="node"><title>uncompress_shapefile</title>
<polygon fill="#ccffcc" stroke="black" points="694,-637.5 694,-683.5 1098,-683.5 1098,-637.5 694,-637.5"/>
<text text-anchor="middle" x="896" y="-668.3" font-family="Helvetica,sans-Serif" font-size="14.00">uncompress_shapefile</text>
<polyline fill="none" stroke="black" points="694,-660.5 1098,-660.5 "/>
<text text-anchor="middle" x="896" y="-645.3" font-family="Helvetica,sans-Serif" font-size="14.00">create a directory as the archive filename and extract the files.</text>
</g>
<!-- layer_boundary -->
<g id="node12" class="node"><title>layer_boundary</title>
<path fill="#ffffcc" stroke="black" d="M36,-554.5C36,-554.5 556,-554.5 556,-554.5 562,-554.5 568,-560.5 568,-566.5 568,-566.5 568,-588.5 568,-588.5 568,-594.5 562,-600.5 556,-600.5 556,-600.5 36,-600.5 36,-600.5 30,-600.5 24,-594.5 24,-588.5 24,-588.5 24,-566.5 24,-566.5 24,-560.5 30,-554.5 36,-554.5"/>
<text text-anchor="middle" x="296" y="-585.3" font-family="Helvetica,sans-Serif" font-size="14.00">layer_boundary</text>
<polyline fill="none" stroke="black" points="24,-577.5 568,-577.5 "/>
<text text-anchor="middle" x="296" y="-562.3" font-family="Helvetica,sans-Serif" font-size="14.00">file:./{study_region}/{study_region}_tracts/{study_region}_boundary.{file_extensions}</text>
</g>
<!-- uncompress_shapefile&#45;&gt;layer_boundary -->
<g id="edge7" class="edge"><title>uncompress_shapefile&#45;&gt;layer_boundary</title>
<path fill="none" stroke="black" d="M732.84,-637.473C651.142,-626.444 552.213,-613.089 469.173,-601.878"/>
<polygon fill="black" stroke="black" points="469.506,-598.392 459.128,-600.522 468.569,-605.329 469.506,-598.392"/>
</g>
<!-- shapefiles_dir -->
<g id="node13" class="node"><title>shapefiles_dir</title>
<path fill="#ffffcc" stroke="black" d="M598.5,-554.5C598.5,-554.5 849.5,-554.5 849.5,-554.5 855.5,-554.5 861.5,-560.5 861.5,-566.5 861.5,-566.5 861.5,-588.5 861.5,-588.5 861.5,-594.5 855.5,-600.5 849.5,-600.5 849.5,-600.5 598.5,-600.5 598.5,-600.5 592.5,-600.5 586.5,-594.5 586.5,-588.5 586.5,-588.5 586.5,-566.5 586.5,-566.5 586.5,-560.5 592.5,-554.5 598.5,-554.5"/>
<text text-anchor="middle" x="724" y="-585.3" font-family="Helvetica,sans-Serif" font-size="14.00">shapefiles_dir</text>
<polyline fill="none" stroke="black" points="586.5,-577.5 861.5,-577.5 "/>
<text text-anchor="middle" x="724" y="-562.3" font-family="Helvetica,sans-Serif" font-size="14.00">file:./{study_region}/{study_region}_tracts</text>
</g>
<!-- uncompress_shapefile&#45;&gt;shapefiles_dir -->
<g id="edge6" class="edge"><title>uncompress_shapefile&#45;&gt;shapefiles_dir</title>
<path fill="none" stroke="black" d="M849,-637.366C827.764,-627.366 802.504,-615.47 780.267,-604.998"/>
<polygon fill="black" stroke="black" points="781.481,-601.701 770.943,-600.607 778.499,-608.034 781.481,-601.701"/>
</g>
<!-- layer_tracts -->
<g id="node17" class="node"><title>layer_tracts</title>
<path fill="#fcfcfc" stroke="black" d="M956.5,-595.5C956.5,-595.5 891.5,-595.5 891.5,-595.5 885.5,-595.5 879.5,-589.5 879.5,-583.5 879.5,-583.5 879.5,-571.5 879.5,-571.5 879.5,-565.5 885.5,-559.5 891.5,-559.5 891.5,-559.5 956.5,-559.5 956.5,-559.5 962.5,-559.5 968.5,-565.5 968.5,-571.5 968.5,-571.5 968.5,-583.5 968.5,-583.5 968.5,-589.5 962.5,-595.5 956.5,-595.5"/>
<text text-anchor="middle" x="924" y="-573.8" font-family="Helvetica,sans-Serif" font-size="14.00">layer_tracts</text>
</g>
<!-- uncompress_shapefile&#45;&gt;layer_tracts -->
<g id="edge8" class="edge"><title>uncompress_shapefile&#45;&gt;layer_tracts</title>
<path fill="none" stroke="black" d="M903.651,-637.366C907.087,-627.427 911.17,-615.616 914.773,-605.191"/>
<polygon fill="black" stroke="black" points="918.086,-606.322 918.045,-595.728 911.47,-604.035 918.086,-606.322"/>
</g>
<!-- metadata_xml_file -->
<g id="node18" class="node"><title>metadata_xml_file</title>
<path fill="#fcfcfc" stroke="black" d="M1107,-595.5C1107,-595.5 999,-595.5 999,-595.5 993,-595.5 987,-589.5 987,-583.5 987,-583.5 987,-571.5 987,-571.5 987,-565.5 993,-559.5 999,-559.5 999,-559.5 1107,-559.5 1107,-559.5 1113,-559.5 1119,-565.5 1119,-571.5 1119,-571.5 1119,-583.5 1119,-583.5 1119,-589.5 1113,-595.5 1107,-595.5"/>
<text text-anchor="middle" x="1053" y="-573.8" font-family="Helvetica,sans-Serif" font-size="14.00">metadata_xml_file</text>
</g>
<!-- uncompress_shapefile&#45;&gt;metadata_xml_file -->
<g id="edge9" class="edge"><title>uncompress_shapefile&#45;&gt;metadata_xml_file</title>
<path fill="none" stroke="black" d="M938.901,-637.366C961.324,-625.798 988.663,-611.693 1010.96,-600.19"/>
<polygon fill="black" stroke="black" points="1012.58,-603.293 1019.86,-595.598 1009.37,-597.072 1012.58,-603.293"/>
</g>
<!-- tracts_xml_file -->
<g id="node19" class="node"><title>tracts_xml_file</title>
<path fill="#fcfcfc" stroke="black" d="M1233,-595.5C1233,-595.5 1149,-595.5 1149,-595.5 1143,-595.5 1137,-589.5 1137,-583.5 1137,-583.5 1137,-571.5 1137,-571.5 1137,-565.5 1143,-559.5 1149,-559.5 1149,-559.5 1233,-559.5 1233,-559.5 1239,-559.5 1245,-565.5 1245,-571.5 1245,-571.5 1245,-583.5 1245,-583.5 1245,-589.5 1239,-595.5 1233,-595.5"/>
<text text-anchor="middle" x="1191" y="-573.8" font-family="Helvetica,sans-Serif" font-size="14.00">tracts_xml_file</text>
</g>
<!-- uncompress_shapefile&#45;&gt;tracts_xml_file -->
<g id="edge10" class="edge"><title>uncompress_shapefile&#45;&gt;tracts_xml_file</title>
<path fill="none" stroke="black" d="M991.949,-637.497C1033.96,-627.3 1083.69,-614.466 1128,-601 1130.3,-600.302 1132.63,-599.57 1134.99,-598.814"/>
<polygon fill="black" stroke="black" points="1136.32,-602.059 1144.72,-595.597 1134.13,-595.413 1136.32,-602.059"/>
</g>
<!-- read_shapefile -->
<g id="node4" class="node"><title>read_shapefile</title>
<polygon fill="#ccffcc" stroke="black" points="498,-471.5 498,-517.5 950,-517.5 950,-471.5 498,-471.5"/>
<text text-anchor="middle" x="724" y="-502.3" font-family="Helvetica,sans-Serif" font-size="14.00">read_shapefile</text>
<polyline fill="none" stroke="black" points="498,-494.5 950,-494.5 "/>
<text text-anchor="middle" x="724" y="-479.3" font-family="Helvetica,sans-Serif" font-size="14.00">read the shapefile for the region and save it as a spatial vector object.</text>
</g>
<!-- dataframe -->
<g id="node14" class="node"><title>dataframe</title>
<path fill="#ffffcc" stroke="black" d="M920,-435C920,-435 864,-435 864,-435 858,-435 852,-429 852,-423 852,-423 852,-411 852,-411 852,-405 858,-399 864,-399 864,-399 920,-399 920,-399 926,-399 932,-405 932,-411 932,-411 932,-423 932,-423 932,-429 926,-435 920,-435"/>
<text text-anchor="middle" x="892" y="-413.3" font-family="Helvetica,sans-Serif" font-size="14.00">dataframe</text>
</g>
<!-- read_shapefile&#45;&gt;dataframe -->
<g id="edge13" class="edge"><title>read_shapefile&#45;&gt;dataframe</title>
<path fill="none" stroke="black" d="M773.044,-471.459C795.671,-461.291 822.416,-449.271 844.81,-439.207"/>
<polygon fill="black" stroke="black" points="846.43,-442.317 854.117,-435.025 843.561,-435.932 846.43,-442.317"/>
</g>
<!-- get_treepolygon -->
<g id="node5" class="node"><title>get_treepolygon</title>
<polygon fill="#ccffcc" stroke="black" points="628.5,-316.5 628.5,-362.5 1053.5,-362.5 1053.5,-316.5 628.5,-316.5"/>
<text text-anchor="middle" x="841" y="-347.3" font-family="Helvetica,sans-Serif" font-size="14.00">get_treepolygon</text>
<polyline fill="none" stroke="black" points="628.5,-339.5 1053.5,-339.5 "/>
<text text-anchor="middle" x="841" y="-324.3" font-family="Helvetica,sans-Serif" font-size="14.00">Get Tree&#45;ring data from the ITRDB for tree_buffer around GRCA</text>
</g>
<!-- treepolygon -->
<g id="node15" class="node"><title>treepolygon</title>
<path fill="#ffffcc" stroke="black" d="M991,-280C991,-280 923,-280 923,-280 917,-280 911,-274 911,-268 911,-268 911,-256 911,-256 911,-250 917,-244 923,-244 923,-244 991,-244 991,-244 997,-244 1003,-250 1003,-256 1003,-256 1003,-268 1003,-268 1003,-274 997,-280 991,-280"/>
<text text-anchor="middle" x="957" y="-258.3" font-family="Helvetica,sans-Serif" font-size="14.00">treepolygon</text>
</g>
<!-- get_treepolygon&#45;&gt;treepolygon -->
<g id="edge16" class="edge"><title>get_treepolygon&#45;&gt;treepolygon</title>
<path fill="none" stroke="black" d="M874.864,-316.459C889.734,-306.781 907.18,-295.426 922.159,-285.676"/>
<polygon fill="black" stroke="black" points="924.184,-288.535 930.656,-280.146 920.366,-282.668 924.184,-288.535"/>
</g>
<!-- extract_tree_ring_data -->
<g id="node6" class="node"><title>extract_tree_ring_data</title>
<polygon fill="#ccffcc" stroke="black" points="462,-161.5 462,-207.5 950,-207.5 950,-161.5 462,-161.5"/>
<text text-anchor="middle" x="706" y="-192.3" font-family="Helvetica,sans-Serif" font-size="14.00">extract_tree_ring_data</text>
<polyline fill="none" stroke="black" points="462,-184.5 950,-184.5 "/>
<text text-anchor="middle" x="706" y="-169.3" font-family="Helvetica,sans-Serif" font-size="14.00">get all the tree ring chronologies and extract the values for the study region.</text>
</g>
<!-- itrdb -->
<g id="node7" class="node"><title>itrdb</title>
<path fill="#ffffcc" stroke="black" d="M669.5,-78.5C669.5,-78.5 742.5,-78.5 742.5,-78.5 748.5,-78.5 754.5,-84.5 754.5,-90.5 754.5,-90.5 754.5,-112.5 754.5,-112.5 754.5,-118.5 748.5,-124.5 742.5,-124.5 742.5,-124.5 669.5,-124.5 669.5,-124.5 663.5,-124.5 657.5,-118.5 657.5,-112.5 657.5,-112.5 657.5,-90.5 657.5,-90.5 657.5,-84.5 663.5,-78.5 669.5,-78.5"/>
<text text-anchor="middle" x="706" y="-109.3" font-family="Helvetica,sans-Serif" font-size="14.00">itrdb</text>
<polyline fill="none" stroke="black" points="657.5,-101.5 754.5,-101.5 "/>
<text text-anchor="middle" x="706" y="-86.3" font-family="Helvetica,sans-Serif" font-size="14.00">file:itrdb.Rda</text>
</g>
<!-- extract_tree_ring_data&#45;&gt;itrdb -->
<g id="edge20" class="edge"><title>extract_tree_ring_data&#45;&gt;itrdb</title>
<path fill="none" stroke="black" d="M706,-161.366C706,-153.152 706,-143.658 706,-134.725"/>
<polygon fill="black" stroke="black" points="709.5,-134.607 706,-124.607 702.5,-134.607 709.5,-134.607"/>
</g>
<!-- itrdb_output_port -->
<g id="node32" class="node"><title>itrdb_output_port</title>
<ellipse fill="#ffffff" stroke="black" cx="706" cy="-31" rx="7" ry="7"/>
</g>
<!-- itrdb&#45;&gt;itrdb_output_port -->
<g id="edge33" class="edge"><title>itrdb&#45;&gt;itrdb_output_port</title>
<path fill="none" stroke="black" d="M706,-78.4491C706,-68.6592 706,-57.3397 706,-48.3261"/>
<polygon fill="black" stroke="black" points="709.5,-48.1278 706,-38.1279 702.5,-48.1279 709.5,-48.1278"/>
</g>
<!-- study_region -->
<g id="node8" class="node"><title>study_region</title>
<path fill="#ffffcc" stroke="black" d="M821,-1088C821,-1088 747,-1088 747,-1088 741,-1088 735,-1082 735,-1076 735,-1076 735,-1064 735,-1064 735,-1058 741,-1052 747,-1052 747,-1052 821,-1052 821,-1052 827,-1052 833,-1058 833,-1064 833,-1064 833,-1076 833,-1076 833,-1082 827,-1088 821,-1088"/>
<text text-anchor="middle" x="784" y="-1066.3" font-family="Helvetica,sans-Serif" font-size="14.00">study_region</text>
</g>
<!-- study_region&#45;&gt;create_shapefile_dir -->
<g id="edge2" class="edge"><title>study_region&#45;&gt;create_shapefile_dir</title>
<path fill="none" stroke="black" d="M763.805,-1051.87C753.554,-1043.17 740.821,-1032.37 729.106,-1022.43"/>
<polygon fill="black" stroke="black" points="731.091,-1019.53 721.201,-1015.73 726.563,-1024.86 731.091,-1019.53"/>
</g>
<!-- shapefile_archive -->
<g id="node9" class="node"><title>shapefile_archive</title>
<path fill="#ffffcc" stroke="black" d="M775,-886.5C775,-886.5 1161,-886.5 1161,-886.5 1167,-886.5 1173,-892.5 1173,-898.5 1173,-898.5 1173,-920.5 1173,-920.5 1173,-926.5 1167,-932.5 1161,-932.5 1161,-932.5 775,-932.5 775,-932.5 769,-932.5 763,-926.5 763,-920.5 763,-920.5 763,-898.5 763,-898.5 763,-892.5 769,-886.5 775,-886.5"/>
<text text-anchor="middle" x="968" y="-917.3" font-family="Helvetica,sans-Serif" font-size="14.00">shapefile_archive</text>
<polyline fill="none" stroke="black" points="763,-909.5 1173,-909.5 "/>
<text text-anchor="middle" x="968" y="-894.3" font-family="Helvetica,sans-Serif" font-size="14.00">http://nrdata.nps.gov/programs/Lands/{study_region}_tracts.zip</text>
</g>
<!-- shapefile_archive&#45;&gt;download_shapefile_archive -->
<g id="edge4" class="edge"><title>shapefile_archive&#45;&gt;download_shapefile_archive</title>
<path fill="none" stroke="black" d="M948.326,-886.366C940.309,-877.348 930.923,-866.788 922.33,-857.121"/>
<polygon fill="black" stroke="black" points="924.91,-854.756 915.651,-849.607 919.678,-859.406 924.91,-854.756"/>
</g>
<!-- user_created_dir&#45;&gt;download_shapefile_archive -->
<g id="edge5" class="edge"><title>user_created_dir&#45;&gt;download_shapefile_archive</title>
<path fill="none" stroke="black" d="M735.825,-886.473C763.833,-876.162 797.363,-863.816 826.491,-853.092"/>
<polygon fill="black" stroke="black" points="828.012,-856.262 836.187,-849.522 825.593,-849.693 828.012,-856.262"/>
</g>
<!-- user_created_dir&#45;&gt;uncompress_shapefile -->
<g id="edge12" class="edge"><title>user_created_dir&#45;&gt;uncompress_shapefile</title>
<path fill="none" stroke="black" d="M607.241,-896.178C581.003,-887.765 553.661,-873.649 538,-850 526.467,-832.584 526.385,-820.362 538,-803 579.79,-740.53 653.952,-705.639 723.978,-686.152"/>
<polygon fill="black" stroke="black" points="725.08,-689.48 733.828,-683.503 723.262,-682.72 725.08,-689.48"/>
</g>
<!-- compressed_shapefile&#45;&gt;uncompress_shapefile -->
<g id="edge11" class="edge"><title>compressed_shapefile&#45;&gt;uncompress_shapefile</title>
<path fill="none" stroke="black" d="M896,-720.366C896,-712.152 896,-702.658 896,-693.725"/>
<polygon fill="black" stroke="black" points="899.5,-693.607 896,-683.607 892.5,-693.607 899.5,-693.607"/>
</g>
<!-- layer_boundary&#45;&gt;read_shapefile -->
<g id="edge14" class="edge"><title>layer_boundary&#45;&gt;read_shapefile</title>
<path fill="none" stroke="black" d="M412.388,-554.473C469.718,-543.624 538.943,-530.522 597.571,-519.427"/>
<polygon fill="black" stroke="black" points="598.461,-522.821 607.636,-517.522 597.159,-515.943 598.461,-522.821"/>
</g>
<!-- shapefiles_dir&#45;&gt;read_shapefile -->
<g id="edge15" class="edge"><title>shapefiles_dir&#45;&gt;read_shapefile</title>
<path fill="none" stroke="black" d="M724,-554.366C724,-546.152 724,-536.658 724,-527.725"/>
<polygon fill="black" stroke="black" points="727.5,-527.607 724,-517.607 720.5,-527.607 727.5,-527.607"/>
</g>
<!-- dataframe&#45;&gt;get_treepolygon -->
<g id="edge18" class="edge"><title>dataframe&#45;&gt;get_treepolygon</title>
<path fill="none" stroke="black" d="M880.427,-398.868C874.892,-390.674 868.094,-380.61 861.711,-371.16"/>
<polygon fill="black" stroke="black" points="864.512,-369.054 856.014,-362.727 858.711,-372.972 864.512,-369.054"/>
</g>
<!-- treepolygon&#45;&gt;extract_tree_ring_data -->
<g id="edge21" class="edge"><title>treepolygon&#45;&gt;extract_tree_ring_data</title>
<path fill="none" stroke="black" d="M910.796,-246.683C907.821,-245.772 904.869,-244.871 902,-244 865.352,-232.867 824.792,-220.731 790.123,-210.413"/>
<polygon fill="black" stroke="black" points="791.091,-207.049 780.508,-207.553 789.096,-213.759 791.091,-207.049"/>
</g>
<!-- prediction_years -->
<g id="node16" class="node"><title>prediction_years</title>
<path fill="#ffffcc" stroke="black" d="M1182,-280C1182,-280 1084,-280 1084,-280 1078,-280 1072,-274 1072,-268 1072,-268 1072,-256 1072,-256 1072,-250 1078,-244 1084,-244 1084,-244 1182,-244 1182,-244 1188,-244 1194,-250 1194,-256 1194,-256 1194,-268 1194,-268 1194,-274 1188,-280 1182,-280"/>
<text text-anchor="middle" x="1133" y="-258.3" font-family="Helvetica,sans-Serif" font-size="14.00">prediction_years</text>
</g>
<!-- prediction_years&#45;&gt;extract_tree_ring_data -->
<g id="edge25" class="edge"><title>prediction_years&#45;&gt;extract_tree_ring_data</title>
<path fill="none" stroke="black" d="M1071.82,-250.183C1011.67,-239.547 917.859,-222.96 840.297,-209.246"/>
<polygon fill="black" stroke="black" points="840.895,-205.797 830.439,-207.503 839.676,-212.69 840.895,-205.797"/>
</g>
<!-- tree_buffer -->
<g id="node20" class="node"><title>tree_buffer</title>
<path fill="#fcfcfc" stroke="black" d="M821.5,-435C821.5,-435 758.5,-435 758.5,-435 752.5,-435 746.5,-429 746.5,-423 746.5,-423 746.5,-411 746.5,-411 746.5,-405 752.5,-399 758.5,-399 758.5,-399 821.5,-399 821.5,-399 827.5,-399 833.5,-405 833.5,-411 833.5,-411 833.5,-423 833.5,-423 833.5,-429 827.5,-435 821.5,-435"/>
<text text-anchor="middle" x="790" y="-413.3" font-family="Helvetica,sans-Serif" font-size="14.00">tree_buffer</text>
</g>
<!-- tree_buffer&#45;&gt;get_treepolygon -->
<g id="edge17" class="edge"><title>tree_buffer&#45;&gt;get_treepolygon</title>
<path fill="none" stroke="black" d="M801.573,-398.868C807.108,-390.674 813.906,-380.61 820.289,-371.16"/>
<polygon fill="black" stroke="black" points="823.289,-372.972 825.986,-362.727 817.488,-369.054 823.289,-372.972"/>
</g>
<!-- segments_approx_quarter_circle -->
<g id="node21" class="node"><title>segments_approx_quarter_circle</title>
<path fill="#fcfcfc" stroke="black" d="M716,-435C716,-435 514,-435 514,-435 508,-435 502,-429 502,-423 502,-423 502,-411 502,-411 502,-405 508,-399 514,-399 514,-399 716,-399 716,-399 722,-399 728,-405 728,-411 728,-411 728,-423 728,-423 728,-429 722,-435 716,-435"/>
<text text-anchor="middle" x="615" y="-413.3" font-family="Helvetica,sans-Serif" font-size="14.00">segments_approx_quarter_circle</text>
</g>
<!-- segments_approx_quarter_circle&#45;&gt;get_treepolygon -->
<g id="edge19" class="edge"><title>segments_approx_quarter_circle&#45;&gt;get_treepolygon</title>
<path fill="none" stroke="black" d="M666.001,-398.962C695.268,-389.185 732.572,-376.723 765.213,-365.818"/>
<polygon fill="black" stroke="black" points="766.355,-369.127 774.731,-362.639 764.137,-362.488 766.355,-369.127"/>
</g>
<!-- label -->
<g id="node22" class="node"><title>label</title>
<path fill="#fcfcfc" stroke="black" d="M881,-280C881,-280 851,-280 851,-280 845,-280 839,-274 839,-268 839,-268 839,-256 839,-256 839,-250 845,-244 851,-244 851,-244 881,-244 881,-244 887,-244 893,-250 893,-256 893,-256 893,-268 893,-268 893,-274 887,-280 881,-280"/>
<text text-anchor="middle" x="866" y="-258.3" font-family="Helvetica,sans-Serif" font-size="14.00">label</text>
</g>
<!-- label&#45;&gt;extract_tree_ring_data -->
<g id="edge22" class="edge"><title>label&#45;&gt;extract_tree_ring_data</title>
<path fill="none" stroke="black" d="M838.858,-248.192C817.803,-238.257 787.906,-224.149 761.803,-211.832"/>
<polygon fill="black" stroke="black" points="763.286,-208.662 752.749,-207.56 760.299,-214.993 763.286,-208.662"/>
</g>
<!-- raw.dir -->
<g id="node23" class="node"><title>raw.dir</title>
<path fill="#fcfcfc" stroke="black" d="M809,-280C809,-280 775,-280 775,-280 769,-280 763,-274 763,-268 763,-268 763,-256 763,-256 763,-250 769,-244 775,-244 775,-244 809,-244 809,-244 815,-244 821,-250 821,-256 821,-256 821,-268 821,-268 821,-274 815,-280 809,-280"/>
<text text-anchor="middle" x="792" y="-258.3" font-family="Helvetica,sans-Serif" font-size="14.00">raw.dir</text>
</g>
<!-- raw.dir&#45;&gt;extract_tree_ring_data -->
<g id="edge23" class="edge"><title>raw.dir&#45;&gt;extract_tree_ring_data</title>
<path fill="none" stroke="black" d="M772.485,-243.868C762.58,-235.172 750.276,-224.37 738.956,-214.432"/>
<polygon fill="black" stroke="black" points="741.142,-211.694 731.318,-207.727 736.524,-216.954 741.142,-211.694"/>
</g>
<!-- extract.dir -->
<g id="node24" class="node"><title>extract.dir</title>
<path fill="#fcfcfc" stroke="black" d="M733,-280C733,-280 679,-280 679,-280 673,-280 667,-274 667,-268 667,-268 667,-256 667,-256 667,-250 673,-244 679,-244 679,-244 733,-244 733,-244 739,-244 745,-250 745,-256 745,-256 745,-268 745,-268 745,-274 739,-280 733,-280"/>
<text text-anchor="middle" x="706" y="-258.3" font-family="Helvetica,sans-Serif" font-size="14.00">extract.dir</text>
</g>
<!-- extract.dir&#45;&gt;extract_tree_ring_data -->
<g id="edge24" class="edge"><title>extract.dir&#45;&gt;extract_tree_ring_data</title>
<path fill="none" stroke="black" d="M706,-243.868C706,-236.175 706,-226.835 706,-217.902"/>
<polygon fill="black" stroke="black" points="709.5,-217.727 706,-207.727 702.5,-217.727 709.5,-217.727"/>
</g>
<!-- calibration_years -->
<g id="node25" class="node"><title>calibration_years</title>
<path fill="#fcfcfc" stroke="black" d="M636.5,-280C636.5,-280 537.5,-280 537.5,-280 531.5,-280 525.5,-274 525.5,-268 525.5,-268 525.5,-256 525.5,-256 525.5,-250 531.5,-244 537.5,-244 537.5,-244 636.5,-244 636.5,-244 642.5,-244 648.5,-250 648.5,-256 648.5,-256 648.5,-268 648.5,-268 648.5,-274 642.5,-280 636.5,-280"/>
<text text-anchor="middle" x="587" y="-258.3" font-family="Helvetica,sans-Serif" font-size="14.00">calibration_years</text>
</g>
<!-- calibration_years&#45;&gt;extract_tree_ring_data -->
<g id="edge26" class="edge"><title>calibration_years&#45;&gt;extract_tree_ring_data</title>
<path fill="none" stroke="black" d="M614.003,-243.868C628.236,-234.837 646.049,-223.536 662.199,-213.29"/>
<polygon fill="black" stroke="black" points="664.398,-216.039 670.967,-207.727 660.648,-210.129 664.398,-216.039"/>
</g>
<!-- measurement_type -->
<g id="node26" class="node"><title>measurement_type</title>
<path fill="#fcfcfc" stroke="black" d="M495.5,-280C495.5,-280 380.5,-280 380.5,-280 374.5,-280 368.5,-274 368.5,-268 368.5,-268 368.5,-256 368.5,-256 368.5,-250 374.5,-244 380.5,-244 380.5,-244 495.5,-244 495.5,-244 501.5,-244 507.5,-250 507.5,-256 507.5,-256 507.5,-268 507.5,-268 507.5,-274 501.5,-280 495.5,-280"/>
<text text-anchor="middle" x="438" y="-258.3" font-family="Helvetica,sans-Serif" font-size="14.00">measurement_type</text>
</g>
<!-- measurement_type&#45;&gt;extract_tree_ring_data -->
<g id="edge27" class="edge"><title>measurement_type&#45;&gt;extract_tree_ring_data</title>
<path fill="none" stroke="black" d="M498.479,-243.962C533.703,-234.039 578.745,-221.35 617.858,-210.331"/>
<polygon fill="black" stroke="black" points="618.989,-213.649 627.665,-207.568 617.091,-206.911 618.989,-213.649"/>
</g>
<!-- chronology_type -->
<g id="node27" class="node"><title>chronology_type</title>
<path fill="#fcfcfc" stroke="black" d="M338,-280C338,-280 240,-280 240,-280 234,-280 228,-274 228,-268 228,-268 228,-256 228,-256 228,-250 234,-244 240,-244 240,-244 338,-244 338,-244 344,-244 350,-250 350,-256 350,-256 350,-268 350,-268 350,-274 344,-280 338,-280"/>
<text text-anchor="middle" x="289" y="-258.3" font-family="Helvetica,sans-Serif" font-size="14.00">chronology_type</text>
</g>
<!-- chronology_type&#45;&gt;extract_tree_ring_data -->
<g id="edge28" class="edge"><title>chronology_type&#45;&gt;extract_tree_ring_data</title>
<path fill="none" stroke="black" d="M350.026,-245.908C353.056,-245.244 356.06,-244.604 359,-244 421.64,-231.131 491.067,-219.005 551.26,-209.167"/>
<polygon fill="black" stroke="black" points="551.916,-212.606 561.224,-207.545 550.792,-205.697 551.916,-212.606"/>
</g>
<!-- force.redo -->
<g id="node28" class="node"><title>force.redo</title>
<path fill="#fcfcfc" stroke="black" d="M197.5,-280C197.5,-280 138.5,-280 138.5,-280 132.5,-280 126.5,-274 126.5,-268 126.5,-268 126.5,-256 126.5,-256 126.5,-250 132.5,-244 138.5,-244 138.5,-244 197.5,-244 197.5,-244 203.5,-244 209.5,-250 209.5,-256 209.5,-256 209.5,-268 209.5,-268 209.5,-274 203.5,-280 197.5,-280"/>
<text text-anchor="middle" x="168" y="-258.3" font-family="Helvetica,sans-Serif" font-size="14.00">force.redo</text>
</g>
<!-- force.redo&#45;&gt;extract_tree_ring_data -->
<g id="edge29" class="edge"><title>force.redo&#45;&gt;extract_tree_ring_data</title>
<path fill="none" stroke="black" d="M209.555,-246.387C212.73,-245.504 215.904,-244.695 219,-244 293.85,-227.211 376.323,-214.994 451.786,-206.21"/>
<polygon fill="black" stroke="black" points="452.372,-209.666 461.907,-205.048 451.573,-202.712 452.372,-209.666"/>
</g>
<!-- shapefile_archive_input_port -->
<g id="node29" class="node"><title>shapefile_archive_input_port</title>
<ellipse fill="#ffffff" stroke="black" cx="968" cy="-1135" rx="7" ry="7"/>
</g>
<!-- shapefile_archive_input_port&#45;&gt;shapefile_archive -->
<g id="edge30" class="edge"><title>shapefile_archive_input_port&#45;&gt;shapefile_archive</title>
<path fill="none" stroke="black" d="M968,-1127.55C968,-1100.65 968,-996.233 968,-942.638"/>
<polygon fill="black" stroke="black" points="971.5,-942.635 968,-932.635 964.5,-942.635 971.5,-942.635"/>
</g>
<!-- study_region_input_port -->
<g id="node30" class="node"><title>study_region_input_port</title>
<ellipse fill="#ffffff" stroke="black" cx="936" cy="-1135" rx="7" ry="7"/>
</g>
<!-- study_region_input_port&#45;&gt;study_region -->
<g id="edge31" class="edge"><title>study_region_input_port&#45;&gt;study_region</title>
<path fill="none" stroke="black" d="M929.853,-1131.45C913.895,-1124.84 869.915,-1106.61 834.39,-1091.89"/>
<polygon fill="black" stroke="black" points="835.672,-1088.63 825.094,-1088.03 832.992,-1095.09 835.672,-1088.63"/>
</g>
<!-- prediction_years_input_port -->
<g id="node31" class="node"><title>prediction_years_input_port</title>
<ellipse fill="#ffffff" stroke="black" cx="1000" cy="-1135" rx="7" ry="7"/>
</g>
<!-- prediction_years_input_port&#45;&gt;prediction_years -->
<g id="edge32" class="edge"><title>prediction_years_input_port&#45;&gt;prediction_years</title>
<path fill="none" stroke="black" d="M1007.02,-1133.78C1049.75,-1132.01 1273,-1116.9 1273,-993.5 1273,-993.5 1273,-993.5 1273,-416 1273,-357.132 1215.89,-311.048 1174.62,-285.433"/>
<polygon fill="black" stroke="black" points="1176.19,-282.293 1165.82,-280.127 1172.58,-288.288 1176.19,-282.293"/>
</g>
</g>
</svg>
