<?xml version="1.0" encoding="UTF-8" standalone="no"?>
<!DOCTYPE svg PUBLIC "-//W3C//DTD SVG 1.1//EN"
 "http://www.w3.org/Graphics/SVG/1.1/DTD/svg11.dtd">
<!-- Generated by graphviz version 2.38.0 (20140413.2041)
 -->
<!-- Title: Workflow Pages: 1 -->
<svg width="613pt" height="228pt"
 viewBox="0.00 0.00 613.00 228.00" xmlns="http://www.w3.org/2000/svg" xmlns:xlink="http://www.w3.org/1999/xlink">
<g id="graph0" class="graph" transform="scale(1 1) rotate(0) translate(4 224)">
<title>Workflow</title>
<polygon fill="white" stroke="none" points="-4,4 -4,-224 609,-224 609,4 -4,4"/>
<text text-anchor="middle" x="302.5" y="-201.6" font-family="Helvetica,sans-Serif" font-size="18.00">get_predictor_matrix</text>
<g id="clust1" class="cluster"><title>cluster_workflow_box_outer</title>
<polygon fill="none" stroke="black" stroke-width="2" points="62,-8 62,-184 543,-184 543,-8 62,-8"/>
</g>
<g id="clust2" class="cluster"><title>cluster_workflow_box_inner</title>
<polygon fill="none" stroke="black" stroke-width="0" points="70,-16 70,-176 535,-176 535,-16 70,-16"/>
</g>
<g id="clust3" class="cluster"><title>cluster_input_ports_group_outer</title>
<polygon fill="none" stroke="black" stroke-width="0" points="8,-41 8,-151 54,-151 54,-41 8,-41"/>
</g>
<g id="clust4" class="cluster"><title>cluster_input_ports_group_inner</title>
<polygon fill="none" stroke="black" stroke-width="0" points="16,-49 16,-143 46,-143 46,-49 16,-49"/>
</g>
<g id="clust5" class="cluster"><title>cluster_output_ports_group_outer</title>
<polygon fill="none" stroke="black" stroke-width="0" points="551,-57 551,-135 597,-135 597,-57 551,-57"/>
</g>
<g id="clust6" class="cluster"><title>cluster_output_ports_group_inner</title>
<polygon fill="none" stroke="black" stroke-width="0" points="559,-65 559,-127 589,-127 589,-65 559,-65"/>
</g>
<!-- get_predictor_matrix -->
<g id="node1" class="node"><title>get_predictor_matrix</title>
<polygon fill="#ccffcc" stroke="black" points="377,-114 230,-114 230,-78 377,-78 377,-114"/>
<text text-anchor="middle" x="303.5" y="-92.3" font-family="Helvetica,sans-Serif" font-size="14.00">get_predictor_matrix</text>
</g>
<!-- predictor.matrix -->
<g id="node2" class="node"><title>predictor.matrix</title>
<path fill="#ffffcc" stroke="black" d="M515,-87C515,-87 425,-87 425,-87 419,-87 413,-81 413,-75 413,-75 413,-63 413,-63 413,-57 419,-51 425,-51 425,-51 515,-51 515,-51 521,-51 527,-57 527,-63 527,-63 527,-75 527,-75 527,-81 521,-87 515,-87"/>
<text text-anchor="middle" x="470" y="-65.3" font-family="Helvetica,sans-Serif" font-size="14.00">predictor.matrix</text>
</g>
<!-- get_predictor_matrix&#45;&gt;predictor.matrix -->
<g id="edge1" class="edge"><title>get_predictor_matrix&#45;&gt;predictor.matrix</title>
<path fill="none" stroke="black" d="M377.131,-84.0788C385.575,-82.6928 394.156,-81.2844 402.512,-79.9129"/>
<polygon fill="black" stroke="black" points="403.267,-83.3359 412.568,-78.2624 402.133,-76.4283 403.267,-83.3359"/>
</g>
<!-- max.preds -->
<g id="node3" class="node"><title>max.preds</title>
<path fill="#ffffcc" stroke="black" d="M499.5,-141C499.5,-141 440.5,-141 440.5,-141 434.5,-141 428.5,-135 428.5,-129 428.5,-129 428.5,-117 428.5,-117 428.5,-111 434.5,-105 440.5,-105 440.5,-105 499.5,-105 499.5,-105 505.5,-105 511.5,-111 511.5,-117 511.5,-117 511.5,-129 511.5,-129 511.5,-135 505.5,-141 499.5,-141"/>
<text text-anchor="middle" x="470" y="-119.3" font-family="Helvetica,sans-Serif" font-size="14.00">max.preds</text>
</g>
<!-- get_predictor_matrix&#45;&gt;max.preds -->
<g id="edge2" class="edge"><title>get_predictor_matrix&#45;&gt;max.preds</title>
<path fill="none" stroke="black" d="M377.131,-107.921C390.985,-110.195 405.209,-112.53 418.2,-114.662"/>
<polygon fill="black" stroke="black" points="417.889,-118.158 428.324,-116.324 419.023,-111.25 417.889,-118.158"/>
</g>
<!-- predictor.matrix_output_port -->
<g id="node10" class="node"><title>predictor.matrix_output_port</title>
<ellipse fill="#ffffff" stroke="black" cx="574" cy="-80" rx="7" ry="7"/>
</g>
<!-- predictor.matrix&#45;&gt;predictor.matrix_output_port -->
<g id="edge9" class="edge"><title>predictor.matrix&#45;&gt;predictor.matrix_output_port</title>
<path fill="none" stroke="black" d="M527.073,-75.047C537.896,-76.2143 548.412,-77.3484 556.644,-78.2361"/>
<polygon fill="black" stroke="black" points="556.523,-81.7433 566.841,-79.3358 557.274,-74.7837 556.523,-81.7433"/>
</g>
<!-- max.preds_output_port -->
<g id="node11" class="node"><title>max.preds_output_port</title>
<ellipse fill="#ffffff" stroke="black" cx="574" cy="-112" rx="7" ry="7"/>
</g>
<!-- max.preds&#45;&gt;max.preds_output_port -->
<g id="edge10" class="edge"><title>max.preds&#45;&gt;max.preds_output_port</title>
<path fill="none" stroke="black" d="M511.606,-118.621C527.273,-116.931 544.306,-115.094 556.448,-113.785"/>
<polygon fill="black" stroke="black" points="557.161,-117.229 566.728,-112.676 556.41,-110.269 557.161,-117.229"/>
</g>
<!-- itrdb -->
<g id="node4" class="node"><title>itrdb</title>
<path fill="#ffffcc" stroke="black" d="M151,-168C151,-168 121,-168 121,-168 115,-168 109,-162 109,-156 109,-156 109,-144 109,-144 109,-138 115,-132 121,-132 121,-132 151,-132 151,-132 157,-132 163,-138 163,-144 163,-144 163,-156 163,-156 163,-162 157,-168 151,-168"/>
<text text-anchor="middle" x="136" y="-146.3" font-family="Helvetica,sans-Serif" font-size="14.00">itrdb</text>
</g>
<!-- itrdb&#45;&gt;get_predictor_matrix -->
<g id="edge3" class="edge"><title>itrdb&#45;&gt;get_predictor_matrix</title>
<path fill="none" stroke="black" d="M163.224,-141.444C183.187,-134.93 211.556,-125.673 237.488,-117.213"/>
<polygon fill="black" stroke="black" points="238.863,-120.445 247.284,-114.016 236.692,-113.791 238.863,-120.445"/>
</g>
<!-- calibration_year -->
<g id="node5" class="node"><title>calibration_year</title>
<path fill="#ffffcc" stroke="black" d="M182,-114C182,-114 90,-114 90,-114 84,-114 78,-108 78,-102 78,-102 78,-90 78,-90 78,-84 84,-78 90,-78 90,-78 182,-78 182,-78 188,-78 194,-84 194,-90 194,-90 194,-102 194,-102 194,-108 188,-114 182,-114"/>
<text text-anchor="middle" x="136" y="-92.3" font-family="Helvetica,sans-Serif" font-size="14.00">calibration_year</text>
</g>
<!-- calibration_year&#45;&gt;get_predictor_matrix -->
<g id="edge4" class="edge"><title>calibration_year&#45;&gt;get_predictor_matrix</title>
<path fill="none" stroke="black" d="M194.419,-96C202.606,-96 211.158,-96 219.712,-96"/>
<polygon fill="black" stroke="black" points="219.731,-99.5001 229.731,-96 219.731,-92.5001 219.731,-99.5001"/>
</g>
<!-- min.width -->
<g id="node6" class="node"><title>min.width</title>
<path fill="#fcfcfc" stroke="black" d="M161.5,-60C161.5,-60 110.5,-60 110.5,-60 104.5,-60 98.5,-54 98.5,-48 98.5,-48 98.5,-36 98.5,-36 98.5,-30 104.5,-24 110.5,-24 110.5,-24 161.5,-24 161.5,-24 167.5,-24 173.5,-30 173.5,-36 173.5,-36 173.5,-48 173.5,-48 173.5,-54 167.5,-60 161.5,-60"/>
<text text-anchor="middle" x="136" y="-38.3" font-family="Helvetica,sans-Serif" font-size="14.00">min.width</text>
</g>
<!-- min.width&#45;&gt;get_predictor_matrix -->
<g id="edge5" class="edge"><title>min.width&#45;&gt;get_predictor_matrix</title>
<path fill="none" stroke="black" d="M173.73,-53.9844C192.56,-60.1285 216.053,-67.7937 237.798,-74.8886"/>
<polygon fill="black" stroke="black" points="236.723,-78.2196 247.315,-77.9942 238.894,-71.5648 236.723,-78.2196"/>
</g>
<!-- itrdb_input_port -->
<g id="node7" class="node"><title>itrdb_input_port</title>
<ellipse fill="#ffffff" stroke="black" cx="31" cy="-128" rx="7" ry="7"/>
</g>
<!-- itrdb_input_port&#45;&gt;itrdb -->
<g id="edge6" class="edge"><title>itrdb_input_port&#45;&gt;itrdb</title>
<path fill="none" stroke="black" d="M38.1347,-129.31C49.9275,-131.829 76.5744,-137.521 98.9402,-142.298"/>
<polygon fill="black" stroke="black" points="98.3359,-145.748 108.846,-144.414 99.7981,-138.902 98.3359,-145.748"/>
</g>
<!-- calibration_year_input_port -->
<g id="node8" class="node"><title>calibration_year_input_port</title>
<ellipse fill="#ffffff" stroke="black" cx="31" cy="-96" rx="7" ry="7"/>
</g>
<!-- calibration_year_input_port&#45;&gt;calibration_year -->
<g id="edge7" class="edge"><title>calibration_year_input_port&#45;&gt;calibration_year</title>
<path fill="none" stroke="black" d="M38.1347,-96C44.5934,-96 55.5078,-96 67.7342,-96"/>
<polygon fill="black" stroke="black" points="67.7608,-99.5001 77.7607,-96 67.7607,-92.5001 67.7608,-99.5001"/>
</g>
<!-- min.width_input_port -->
<g id="node9" class="node"><title>min.width_input_port</title>
<ellipse fill="#ffffff" stroke="black" cx="31" cy="-64" rx="7" ry="7"/>
</g>
<!-- min.width_input_port&#45;&gt;min.width -->
<g id="edge8" class="edge"><title>min.width_input_port&#45;&gt;min.width</title>
<path fill="none" stroke="black" d="M38.1347,-62.6897C48.1379,-60.5531 68.8293,-56.1336 88.5295,-51.9257"/>
<polygon fill="black" stroke="black" points="89.3251,-55.3348 98.3734,-49.8232 87.8628,-48.4893 89.3251,-55.3348"/>
</g>
</g>
</svg>
