<?xml version="1.0" encoding="UTF-8" standalone="no"?>
<!DOCTYPE svg PUBLIC "-//W3C//DTD SVG 1.1//EN"
 "http://www.w3.org/Graphics/SVG/1.1/DTD/svg11.dtd">
<!-- Generated by graphviz version 2.38.0 (20140413.2041)
 -->
<!-- Title: Workflow Pages: 1 -->
<svg width="578pt" height="642pt"
 viewBox="0.00 0.00 578.00 642.00" xmlns="http://www.w3.org/2000/svg" xmlns:xlink="http://www.w3.org/1999/xlink">
<g id="graph0" class="graph" transform="scale(1 1) rotate(0) translate(4 638)">
<title>Workflow</title>
<polygon fill="white" stroke="none" points="-4,4 -4,-638 574,-638 574,4 -4,4"/>
<g id="clust1" class="cluster"><title>cluster_workflow_box_outer</title>
<polygon fill="none" stroke="black" stroke-width="2" points="22,-34 22,-600 516,-600 516,-34 22,-34"/>
</g>
<g id="clust2" class="cluster"><title>cluster_workflow_box_inner</title>
<polygon fill="none" stroke="black" stroke-width="0" points="30,-42 30,-592 508,-592 508,-42 30,-42"/>
</g>
<!-- gen_shapefile -->
<g id="node1" class="node"><title>gen_shapefile</title>
<polygon fill="#ccffcc" stroke="black" points="38.5,-454.5 38.5,-500.5 475.5,-500.5 475.5,-454.5 38.5,-454.5"/>
<text text-anchor="middle" x="257" y="-485.3" font-family="Helvetica,sans-Serif" font-size="14.00">gen_shapefile</text>
<polyline fill="none" stroke="black" points="38.5,-477.5 475.5,-477.5 "/>
<text text-anchor="middle" x="257" y="-462.3" font-family="Helvetica,sans-Serif" font-size="14.00">download shape dir and create the shapefile for the spatial polygon</text>
</g>
<!-- shapefile -->
<g id="node6" class="node"><title>shapefile</title>
<path fill="#ffffcc" stroke="black" d="M92.5,-371.5C92.5,-371.5 221.5,-371.5 221.5,-371.5 227.5,-371.5 233.5,-377.5 233.5,-383.5 233.5,-383.5 233.5,-405.5 233.5,-405.5 233.5,-411.5 227.5,-417.5 221.5,-417.5 221.5,-417.5 92.5,-417.5 92.5,-417.5 86.5,-417.5 80.5,-411.5 80.5,-405.5 80.5,-405.5 80.5,-383.5 80.5,-383.5 80.5,-377.5 86.5,-371.5 92.5,-371.5"/>
<text text-anchor="middle" x="157" y="-402.3" font-family="Helvetica,sans-Serif" font-size="14.00">shapefile</text>
<polyline fill="none" stroke="black" points="80.5,-394.5 233.5,-394.5 "/>
<text text-anchor="middle" x="157" y="-379.3" font-family="Helvetica,sans-Serif" font-size="14.00">file:/data&#45;raw/grca.shx</text>
</g>
<!-- gen_shapefile&#45;&gt;shapefile -->
<g id="edge1" class="edge"><title>gen_shapefile&#45;&gt;shapefile</title>
<path fill="none" stroke="black" d="M229.675,-454.366C218.1,-444.991 204.468,-433.949 192.157,-423.977"/>
<polygon fill="black" stroke="black" points="194.266,-421.181 184.292,-417.607 189.86,-426.621 194.266,-421.181"/>
</g>
<!-- get_treepolygon -->
<g id="node2" class="node"><title>get_treepolygon</title>
<polygon fill="#ccffcc" stroke="black" points="38,-288.5 38,-334.5 500,-334.5 500,-288.5 38,-288.5"/>
<text text-anchor="middle" x="269" y="-319.3" font-family="Helvetica,sans-Serif" font-size="14.00">get_treepolygon</text>
<polyline fill="none" stroke="black" points="38,-311.5 500,-311.5 "/>
<text text-anchor="middle" x="269" y="-296.3" font-family="Helvetica,sans-Serif" font-size="14.00">Get Tree&#45;ring data from the ITRDB for 10&#45;degree buffer around GRCA</text>
</g>
<!-- treepolygon -->
<g id="node7" class="node"><title>treepolygon</title>
<path fill="#ffffcc" stroke="black" d="M200,-252C200,-252 132,-252 132,-252 126,-252 120,-246 120,-240 120,-240 120,-228 120,-228 120,-222 126,-216 132,-216 132,-216 200,-216 200,-216 206,-216 212,-222 212,-228 212,-228 212,-240 212,-240 212,-246 206,-252 200,-252"/>
<text text-anchor="middle" x="166" y="-230.3" font-family="Helvetica,sans-Serif" font-size="14.00">treepolygon</text>
</g>
<!-- get_treepolygon&#45;&gt;treepolygon -->
<g id="edge3" class="edge"><title>get_treepolygon&#45;&gt;treepolygon</title>
<path fill="none" stroke="black" d="M238.931,-288.459C225.975,-278.962 210.815,-267.85 197.684,-258.225"/>
<polygon fill="black" stroke="black" points="199.526,-255.235 189.391,-252.146 195.388,-260.881 199.526,-255.235"/>
</g>
<!-- get_itrdb -->
<g id="node3" class="node"><title>get_itrdb</title>
<polygon fill="#ccffcc" stroke="black" points="67.5,-133.5 67.5,-179.5 468.5,-179.5 468.5,-133.5 67.5,-133.5"/>
<text text-anchor="middle" x="268" y="-164.3" font-family="Helvetica,sans-Serif" font-size="14.00">get_itrdb</text>
<polyline fill="none" stroke="black" points="67.5,-156.5 468.5,-156.5 "/>
<text text-anchor="middle" x="268" y="-141.3" font-family="Helvetica,sans-Serif" font-size="14.00">extract the re&#45;whitened residuals of the tree&#45;ring chronologies</text>
</g>
<!-- itrdb -->
<g id="node4" class="node"><title>itrdb</title>
<path fill="#ffffcc" stroke="black" d="M214.5,-50.5C214.5,-50.5 321.5,-50.5 321.5,-50.5 327.5,-50.5 333.5,-56.5 333.5,-62.5 333.5,-62.5 333.5,-84.5 333.5,-84.5 333.5,-90.5 327.5,-96.5 321.5,-96.5 321.5,-96.5 214.5,-96.5 214.5,-96.5 208.5,-96.5 202.5,-90.5 202.5,-84.5 202.5,-84.5 202.5,-62.5 202.5,-62.5 202.5,-56.5 208.5,-50.5 214.5,-50.5"/>
<text text-anchor="middle" x="268" y="-81.3" font-family="Helvetica,sans-Serif" font-size="14.00">itrdb</text>
<polyline fill="none" stroke="black" points="202.5,-73.5 333.5,-73.5 "/>
<text text-anchor="middle" x="268" y="-58.3" font-family="Helvetica,sans-Serif" font-size="14.00">file:/data/itrdb.Rda</text>
</g>
<!-- get_itrdb&#45;&gt;itrdb -->
<g id="edge6" class="edge"><title>get_itrdb&#45;&gt;itrdb</title>
<path fill="none" stroke="black" d="M268,-133.366C268,-125.152 268,-115.658 268,-106.725"/>
<polygon fill="black" stroke="black" points="271.5,-106.607 268,-96.6068 264.5,-106.607 271.5,-106.607"/>
</g>
<!-- itrdb_output_port -->
<g id="node17" class="node"><title>itrdb_output_port</title>
<ellipse fill="#ffffff" stroke="black" cx="268" cy="-7" rx="7" ry="7"/>
</g>
<!-- itrdb&#45;&gt;itrdb_output_port -->
<g id="edge16" class="edge"><title>itrdb&#45;&gt;itrdb_output_port</title>
<path fill="none" stroke="black" d="M268,-50.3028C268,-41.6846 268,-32.0022 268,-24.0776"/>
<polygon fill="black" stroke="black" points="271.5,-24.0535 268,-14.0535 264.5,-24.0535 271.5,-24.0535"/>
</g>
<!-- shapefile_dir -->
<g id="node5" class="node"><title>shapefile_dir</title>
<path fill="#ffffcc" stroke="black" d="M95.5,-537.5C95.5,-537.5 418.5,-537.5 418.5,-537.5 424.5,-537.5 430.5,-543.5 430.5,-549.5 430.5,-549.5 430.5,-571.5 430.5,-571.5 430.5,-577.5 424.5,-583.5 418.5,-583.5 418.5,-583.5 95.5,-583.5 95.5,-583.5 89.5,-583.5 83.5,-577.5 83.5,-571.5 83.5,-571.5 83.5,-549.5 83.5,-549.5 83.5,-543.5 89.5,-537.5 95.5,-537.5"/>
<text text-anchor="middle" x="257" y="-568.3" font-family="Helvetica,sans-Serif" font-size="14.00">shapefile_dir</text>
<polyline fill="none" stroke="black" points="83.5,-560.5 430.5,-560.5 "/>
<text text-anchor="middle" x="257" y="-545.3" font-family="Helvetica,sans-Serif" font-size="14.00">http://nrdata.nps.gov/programs/Lands/grca_tracts.zip</text>
</g>
<!-- shapefile_dir&#45;&gt;gen_shapefile -->
<g id="edge2" class="edge"><title>shapefile_dir&#45;&gt;gen_shapefile</title>
<path fill="none" stroke="black" d="M257,-537.366C257,-529.152 257,-519.658 257,-510.725"/>
<polygon fill="black" stroke="black" points="260.5,-510.607 257,-500.607 253.5,-510.607 260.5,-510.607"/>
</g>
<!-- shapefile&#45;&gt;get_treepolygon -->
<g id="edge5" class="edge"><title>shapefile&#45;&gt;get_treepolygon</title>
<path fill="none" stroke="black" d="M187.604,-371.366C200.692,-361.902 216.126,-350.739 230.018,-340.693"/>
<polygon fill="black" stroke="black" points="232.381,-343.303 238.433,-334.607 228.278,-337.631 232.381,-343.303"/>
</g>
<!-- treepolygon&#45;&gt;get_itrdb -->
<g id="edge7" class="edge"><title>treepolygon&#45;&gt;get_itrdb</title>
<path fill="none" stroke="black" d="M189.145,-215.868C201.12,-207.005 216.049,-195.954 229.686,-185.86"/>
<polygon fill="black" stroke="black" points="232.017,-188.489 237.972,-179.727 227.852,-182.863 232.017,-188.489"/>
</g>
<!-- tree_buffer -->
<g id="node8" class="node"><title>tree_buffer</title>
<path fill="#fcfcfc" stroke="black" d="M264,-371.5C264,-371.5 488,-371.5 488,-371.5 494,-371.5 500,-377.5 500,-383.5 500,-383.5 500,-405.5 500,-405.5 500,-411.5 494,-417.5 488,-417.5 488,-417.5 264,-417.5 264,-417.5 258,-417.5 252,-411.5 252,-405.5 252,-405.5 252,-383.5 252,-383.5 252,-377.5 258,-371.5 264,-371.5"/>
<text text-anchor="middle" x="376" y="-402.3" font-family="Helvetica,sans-Serif" font-size="14.00">tree_buffer</text>
<polyline fill="none" stroke="black" points="252,-394.5 500,-394.5 "/>
<text text-anchor="middle" x="376" y="-379.3" font-family="Helvetica,sans-Serif" font-size="14.00">10_degree_buffer_around_the_area</text>
</g>
<!-- tree_buffer&#45;&gt;get_treepolygon -->
<g id="edge4" class="edge"><title>tree_buffer&#45;&gt;get_treepolygon</title>
<path fill="none" stroke="black" d="M346.762,-371.366C334.259,-361.902 319.513,-350.739 306.242,-340.693"/>
<polygon fill="black" stroke="black" points="308.288,-337.852 298.203,-334.607 304.063,-343.433 308.288,-337.852"/>
</g>
<!-- label -->
<g id="node9" class="node"><title>label</title>
<path fill="#fcfcfc" stroke="black" d="M85,-252C85,-252 55,-252 55,-252 49,-252 43,-246 43,-240 43,-240 43,-228 43,-228 43,-222 49,-216 55,-216 55,-216 85,-216 85,-216 91,-216 97,-222 97,-228 97,-228 97,-240 97,-240 97,-246 91,-252 85,-252"/>
<text text-anchor="middle" x="70" y="-230.3" font-family="Helvetica,sans-Serif" font-size="14.00">label</text>
</g>
<!-- label&#45;&gt;get_itrdb -->
<g id="edge8" class="edge"><title>label&#45;&gt;get_itrdb</title>
<path fill="none" stroke="black" d="M97.291,-221.522C101.857,-219.648 106.554,-217.749 111,-216 139.208,-204.901 170.467,-193.144 197.619,-183.104"/>
<polygon fill="black" stroke="black" points="198.87,-186.373 207.04,-179.628 196.447,-179.806 198.87,-186.373"/>
</g>
<!-- measurement.type -->
<g id="node10" class="node"><title>measurement.type</title>
<path fill="#fcfcfc" stroke="black" d="M352,-252C352,-252 242,-252 242,-252 236,-252 230,-246 230,-240 230,-240 230,-228 230,-228 230,-222 236,-216 242,-216 242,-216 352,-216 352,-216 358,-216 364,-222 364,-228 364,-228 364,-240 364,-240 364,-246 358,-252 352,-252"/>
<text text-anchor="middle" x="297" y="-230.3" font-family="Helvetica,sans-Serif" font-size="14.00">measurement.type</text>
</g>
<!-- measurement.type&#45;&gt;get_itrdb -->
<g id="edge9" class="edge"><title>measurement.type&#45;&gt;get_itrdb</title>
<path fill="none" stroke="black" d="M290.419,-215.868C287.4,-208.008 283.721,-198.428 280.222,-189.32"/>
<polygon fill="black" stroke="black" points="283.39,-187.807 276.537,-179.727 276.856,-190.317 283.39,-187.807"/>
</g>
<!-- chronology.type -->
<g id="node11" class="node"><title>chronology.type</title>
<path fill="#fcfcfc" stroke="black" d="M487.5,-252C487.5,-252 394.5,-252 394.5,-252 388.5,-252 382.5,-246 382.5,-240 382.5,-240 382.5,-228 382.5,-228 382.5,-222 388.5,-216 394.5,-216 394.5,-216 487.5,-216 487.5,-216 493.5,-216 499.5,-222 499.5,-228 499.5,-228 499.5,-240 499.5,-240 499.5,-246 493.5,-252 487.5,-252"/>
<text text-anchor="middle" x="441" y="-230.3" font-family="Helvetica,sans-Serif" font-size="14.00">chronology.type</text>
</g>
<!-- chronology.type&#45;&gt;get_itrdb -->
<g id="edge10" class="edge"><title>chronology.type&#45;&gt;get_itrdb</title>
<path fill="none" stroke="black" d="M401.744,-215.868C379.909,-206.339 352.281,-194.282 327.812,-183.603"/>
<polygon fill="black" stroke="black" points="329.173,-180.378 318.608,-179.586 326.373,-186.794 329.173,-180.378"/>
</g>
<!-- shapefile_dir_input_port -->
<g id="node12" class="node"><title>shapefile_dir_input_port</title>
<ellipse fill="#ffffff" stroke="black" cx="257" cy="-627" rx="7" ry="7"/>
</g>
<!-- shapefile_dir_input_port&#45;&gt;shapefile_dir -->
<g id="edge11" class="edge"><title>shapefile_dir_input_port&#45;&gt;shapefile_dir</title>
<path fill="none" stroke="black" d="M257,-619.58C257,-613.384 257,-603.516 257,-593.66"/>
<polygon fill="black" stroke="black" points="260.5,-593.548 257,-583.548 253.5,-593.548 260.5,-593.548"/>
</g>
<!-- tree_buffer_input_port -->
<g id="node13" class="node"><title>tree_buffer_input_port</title>
<ellipse fill="#ffffff" stroke="black" cx="531" cy="-477.5" rx="7" ry="7"/>
</g>
<!-- tree_buffer_input_port&#45;&gt;tree_buffer -->
<g id="edge12" class="edge"><title>tree_buffer_input_port&#45;&gt;tree_buffer</title>
<path fill="none" stroke="black" d="M527.501,-471.057C524.061,-466.066 518.407,-458.75 512,-454 494.442,-440.985 473.543,-430.162 453.46,-421.51"/>
<polygon fill="black" stroke="black" points="454.573,-418.182 443.996,-417.563 451.878,-424.643 454.573,-418.182"/>
</g>
<!-- label_input_port -->
<g id="node14" class="node"><title>label_input_port</title>
<ellipse fill="#ffffff" stroke="black" cx="7" cy="-311.5" rx="7" ry="7"/>
</g>
<!-- label_input_port&#45;&gt;label -->
<g id="edge13" class="edge"><title>label_input_port&#45;&gt;label</title>
<path fill="none" stroke="black" d="M11.1336,-305.546C18.7557,-296.412 35.497,-276.349 49.1849,-259.945"/>
<polygon fill="black" stroke="black" points="51.8862,-262.171 55.6058,-252.25 46.5116,-257.686 51.8862,-262.171"/>
</g>
<!-- measurement.type_input_port -->
<g id="node15" class="node"><title>measurement.type_input_port</title>
<ellipse fill="#ffffff" stroke="black" cx="531" cy="-311.5" rx="7" ry="7"/>
</g>
<!-- measurement.type_input_port&#45;&gt;measurement.type -->
<g id="edge14" class="edge"><title>measurement.type_input_port&#45;&gt;measurement.type</title>
<path fill="none" stroke="black" d="M527.92,-305.201C524.634,-300.025 518.95,-292.315 512,-288 505.88,-284.2 433.207,-266.678 374.021,-252.806"/>
<polygon fill="black" stroke="black" points="374.81,-249.396 364.276,-250.526 373.216,-256.212 374.81,-249.396"/>
</g>
<!-- chronology.type_input_port -->
<g id="node16" class="node"><title>chronology.type_input_port</title>
<ellipse fill="#ffffff" stroke="black" cx="563" cy="-311.5" rx="7" ry="7"/>
</g>
<!-- chronology.type_input_port&#45;&gt;chronology.type -->
<g id="edge15" class="edge"><title>chronology.type_input_port&#45;&gt;chronology.type</title>
<path fill="none" stroke="black" d="M559.964,-304.723C557.137,-299.782 552.534,-292.739 547,-288 532.166,-275.297 513.759,-264.728 496.468,-256.456"/>
<polygon fill="black" stroke="black" points="497.554,-253.103 487.007,-252.098 494.625,-259.461 497.554,-253.103"/>
</g>
</g>
</svg>
