<?xml version="1.0" encoding="UTF-8" standalone="no"?>
<!DOCTYPE svg PUBLIC "-//W3C//DTD SVG 1.1//EN"
 "http://www.w3.org/Graphics/SVG/1.1/DTD/svg11.dtd">
<!-- Generated by graphviz version 2.38.0 (20140413.2041)
 -->
<!-- Title: Workflow Pages: 1 -->
<svg width="776pt" height="390pt"
 viewBox="0.00 0.00 776.00 390.00" xmlns="http://www.w3.org/2000/svg" xmlns:xlink="http://www.w3.org/1999/xlink">
<g id="graph0" class="graph" transform="scale(1 1) rotate(0) translate(4 386)">
<title>Workflow</title>
<polygon fill="white" stroke="none" points="-4,4 -4,-386 772,-386 772,4 -4,4"/>
<text text-anchor="middle" x="384" y="-363.6" font-family="Helvetica,sans-Serif" font-size="18.00">get_itrdb_data</text>
<g id="clust1" class="cluster"><title>cluster_workflow_box_outer</title>
<polygon fill="none" stroke="black" stroke-width="2" points="62,-8 62,-346 706,-346 706,-8 62,-8"/>
</g>
<g id="clust2" class="cluster"><title>cluster_workflow_box_inner</title>
<polygon fill="none" stroke="black" stroke-width="0" points="70,-16 70,-338 698,-338 698,-16 70,-16"/>
</g>
<g id="clust5" class="cluster"><title>cluster_output_ports_group_outer</title>
<polygon fill="none" stroke="black" stroke-width="0" points="714,-154 714,-200 760,-200 760,-154 714,-154"/>
</g>
<g id="clust6" class="cluster"><title>cluster_output_ports_group_inner</title>
<polygon fill="none" stroke="black" stroke-width="0" points="722,-162 722,-192 752,-192 752,-162 722,-162"/>
</g>
<g id="clust3" class="cluster"><title>cluster_input_ports_group_outer</title>
<polygon fill="none" stroke="black" stroke-width="0" points="8,-164 8,-306 54,-306 54,-164 8,-164"/>
</g>
<g id="clust4" class="cluster"><title>cluster_input_ports_group_inner</title>
<polygon fill="none" stroke="black" stroke-width="0" points="16,-172 16,-298 46,-298 46,-172 16,-172"/>
</g>
<!-- get_treepolygon -->
<g id="node1" class="node"><title>get_treepolygon</title>
<polygon fill="#ccffcc" stroke="black" points="321,-330 201,-330 201,-294 321,-294 321,-330"/>
<text text-anchor="middle" x="261" y="-308.3" font-family="Helvetica,sans-Serif" font-size="14.00">get_treepolygon</text>
</g>
<!-- treepolygon -->
<g id="node7" class="node"><title>treepolygon</title>
<path fill="#ffffcc" stroke="black" d="M458,-330C458,-330 390,-330 390,-330 384,-330 378,-324 378,-318 378,-318 378,-306 378,-306 378,-300 384,-294 390,-294 390,-294 458,-294 458,-294 464,-294 470,-300 470,-306 470,-306 470,-318 470,-318 470,-324 464,-330 458,-330"/>
<text text-anchor="middle" x="424" y="-308.3" font-family="Helvetica,sans-Serif" font-size="14.00">treepolygon</text>
</g>
<!-- get_treepolygon&#45;&gt;treepolygon -->
<g id="edge1" class="edge"><title>get_treepolygon&#45;&gt;treepolygon</title>
<path fill="none" stroke="black" d="M321.036,-312C336.276,-312 352.623,-312 367.666,-312"/>
<polygon fill="black" stroke="black" points="367.843,-315.5 377.843,-312 367.843,-308.5 367.843,-315.5"/>
</g>
<!-- get_itrdb -->
<g id="node2" class="node"><title>get_itrdb</title>
<polygon fill="#ccffcc" stroke="black" points="600,-195 527,-195 527,-159 600,-159 600,-195"/>
<text text-anchor="middle" x="563.5" y="-173.3" font-family="Helvetica,sans-Serif" font-size="14.00">get_itrdb</text>
</g>
<!-- itrdb -->
<g id="node8" class="node"><title>itrdb</title>
<path fill="#ffffcc" stroke="black" d="M678,-195C678,-195 648,-195 648,-195 642,-195 636,-189 636,-183 636,-183 636,-171 636,-171 636,-165 642,-159 648,-159 648,-159 678,-159 678,-159 684,-159 690,-165 690,-171 690,-171 690,-183 690,-183 690,-189 684,-195 678,-195"/>
<text text-anchor="middle" x="663" y="-173.3" font-family="Helvetica,sans-Serif" font-size="14.00">itrdb</text>
</g>
<!-- get_itrdb&#45;&gt;itrdb -->
<g id="edge4" class="edge"><title>get_itrdb&#45;&gt;itrdb</title>
<path fill="none" stroke="black" d="M600.252,-177C608.506,-177 617.296,-177 625.579,-177"/>
<polygon fill="black" stroke="black" points="625.719,-180.5 635.719,-177 625.719,-173.5 625.719,-180.5"/>
</g>
<!-- prism_data -->
<g id="node3" class="node"><title>prism_data</title>
<path fill="#ffffcc" stroke="black" d="M153,-330C153,-330 90,-330 90,-330 84,-330 78,-324 78,-318 78,-318 78,-306 78,-306 78,-300 84,-294 90,-294 90,-294 153,-294 153,-294 159,-294 165,-300 165,-306 165,-306 165,-318 165,-318 165,-324 159,-330 153,-330"/>
<text text-anchor="middle" x="121.5" y="-308.3" font-family="Helvetica,sans-Serif" font-size="14.00">prism_data</text>
</g>
<!-- prism_data&#45;&gt;get_treepolygon -->
<g id="edge2" class="edge"><title>prism_data&#45;&gt;get_treepolygon</title>
<path fill="none" stroke="black" d="M165.252,-312C173.355,-312 182.023,-312 190.702,-312"/>
<polygon fill="black" stroke="black" points="190.863,-315.5 200.863,-312 190.863,-308.5 190.863,-315.5"/>
</g>
<!-- tree.buffer -->
<g id="node4" class="node"><title>tree.buffer</title>
<path fill="#ffffcc" stroke="black" d="M151,-276C151,-276 92,-276 92,-276 86,-276 80,-270 80,-264 80,-264 80,-252 80,-252 80,-246 86,-240 92,-240 92,-240 151,-240 151,-240 157,-240 163,-246 163,-252 163,-252 163,-264 163,-264 163,-270 157,-276 151,-276"/>
<text text-anchor="middle" x="121.5" y="-254.3" font-family="Helvetica,sans-Serif" font-size="14.00">tree.buffer</text>
</g>
<!-- tree.buffer&#45;&gt;get_treepolygon -->
<g id="edge3" class="edge"><title>tree.buffer&#45;&gt;get_treepolygon</title>
<path fill="none" stroke="black" d="M163.011,-273.91C176.012,-279.016 190.645,-284.762 204.526,-290.214"/>
<polygon fill="black" stroke="black" points="203.4,-293.532 213.987,-293.93 205.959,-287.016 203.4,-293.532"/>
</g>
<!-- prediction.years -->
<g id="node5" class="node"><title>prediction.years</title>
<path fill="#ffffcc" stroke="black" d="M470.5,-222C470.5,-222 377.5,-222 377.5,-222 371.5,-222 365.5,-216 365.5,-210 365.5,-210 365.5,-198 365.5,-198 365.5,-192 371.5,-186 377.5,-186 377.5,-186 470.5,-186 470.5,-186 476.5,-186 482.5,-192 482.5,-198 482.5,-198 482.5,-210 482.5,-210 482.5,-216 476.5,-222 470.5,-222"/>
<text text-anchor="middle" x="424" y="-200.3" font-family="Helvetica,sans-Serif" font-size="14.00">prediction.years</text>
</g>
<!-- prediction.years&#45;&gt;get_itrdb -->
<g id="edge5" class="edge"><title>prediction.years&#45;&gt;get_itrdb</title>
<path fill="none" stroke="black" d="M482.516,-192.706C494.01,-190.449 505.934,-188.107 516.957,-185.943"/>
<polygon fill="black" stroke="black" points="517.65,-189.374 526.788,-184.012 516.301,-182.505 517.65,-189.374"/>
</g>
<!-- calibration.years -->
<g id="node6" class="node"><title>calibration.years</title>
<path fill="#ffffcc" stroke="black" d="M471.5,-276C471.5,-276 376.5,-276 376.5,-276 370.5,-276 364.5,-270 364.5,-264 364.5,-264 364.5,-252 364.5,-252 364.5,-246 370.5,-240 376.5,-240 376.5,-240 471.5,-240 471.5,-240 477.5,-240 483.5,-246 483.5,-252 483.5,-252 483.5,-264 483.5,-264 483.5,-270 477.5,-276 471.5,-276"/>
<text text-anchor="middle" x="424" y="-254.3" font-family="Helvetica,sans-Serif" font-size="14.00">calibration.years</text>
</g>
<!-- calibration.years&#45;&gt;get_itrdb -->
<g id="edge6" class="edge"><title>calibration.years&#45;&gt;get_itrdb</title>
<path fill="none" stroke="black" d="M473.279,-239.957C479.361,-237.19 485.406,-234.185 491,-231 505.859,-222.54 521.14,-211.389 533.741,-201.418"/>
<polygon fill="black" stroke="black" points="536.018,-204.079 541.604,-195.076 531.623,-198.63 536.018,-204.079"/>
</g>
<!-- treepolygon&#45;&gt;get_itrdb -->
<g id="edge7" class="edge"><title>treepolygon&#45;&gt;get_itrdb</title>
<path fill="none" stroke="black" d="M470.007,-297.863C477.463,-294.358 484.779,-290.105 491,-285 517.737,-263.06 538.156,-228.498 550.197,-204.401"/>
<polygon fill="black" stroke="black" points="553.494,-205.624 554.692,-195.097 547.191,-202.579 553.494,-205.624"/>
</g>
<!-- itrdb_output_port -->
<g id="node16" class="node"><title>itrdb_output_port</title>
<ellipse fill="#ffffff" stroke="black" cx="737" cy="-177" rx="7" ry="7"/>
</g>
<!-- itrdb&#45;&gt;itrdb_output_port -->
<g id="edge15" class="edge"><title>itrdb&#45;&gt;itrdb_output_port</title>
<path fill="none" stroke="black" d="M690.401,-177C700.224,-177 711.076,-177 719.728,-177"/>
<polygon fill="black" stroke="black" points="719.859,-180.5 729.859,-177 719.859,-173.5 719.859,-180.5"/>
</g>
<!-- label -->
<g id="node9" class="node"><title>label</title>
<path fill="#fcfcfc" stroke="black" d="M439,-168C439,-168 409,-168 409,-168 403,-168 397,-162 397,-156 397,-156 397,-144 397,-144 397,-138 403,-132 409,-132 409,-132 439,-132 439,-132 445,-132 451,-138 451,-144 451,-144 451,-156 451,-156 451,-162 445,-168 439,-168"/>
<text text-anchor="middle" x="424" y="-146.3" font-family="Helvetica,sans-Serif" font-size="14.00">label</text>
</g>
<!-- label&#45;&gt;get_itrdb -->
<g id="edge8" class="edge"><title>label&#45;&gt;get_itrdb</title>
<path fill="none" stroke="black" d="M451.186,-155.142C469.684,-158.774 494.96,-163.738 516.751,-168.017"/>
<polygon fill="black" stroke="black" points="516.315,-171.498 526.802,-169.99 517.664,-164.629 516.315,-171.498"/>
</g>
<!-- measurement.type -->
<g id="node10" class="node"><title>measurement.type</title>
<path fill="#fcfcfc" stroke="black" d="M479,-114C479,-114 369,-114 369,-114 363,-114 357,-108 357,-102 357,-102 357,-90 357,-90 357,-84 363,-78 369,-78 369,-78 479,-78 479,-78 485,-78 491,-84 491,-90 491,-90 491,-102 491,-102 491,-108 485,-114 479,-114"/>
<text text-anchor="middle" x="424" y="-92.3" font-family="Helvetica,sans-Serif" font-size="14.00">measurement.type</text>
</g>
<!-- measurement.type&#45;&gt;get_itrdb -->
<g id="edge9" class="edge"><title>measurement.type&#45;&gt;get_itrdb</title>
<path fill="none" stroke="black" d="M473.279,-114.043C479.361,-116.81 485.406,-119.815 491,-123 505.859,-131.46 521.14,-142.611 533.741,-152.582"/>
<polygon fill="black" stroke="black" points="531.623,-155.37 541.604,-158.924 536.018,-149.921 531.623,-155.37"/>
</g>
<!-- chronology.type -->
<g id="node11" class="node"><title>chronology.type</title>
<path fill="#fcfcfc" stroke="black" d="M470.5,-60C470.5,-60 377.5,-60 377.5,-60 371.5,-60 365.5,-54 365.5,-48 365.5,-48 365.5,-36 365.5,-36 365.5,-30 371.5,-24 377.5,-24 377.5,-24 470.5,-24 470.5,-24 476.5,-24 482.5,-30 482.5,-36 482.5,-36 482.5,-48 482.5,-48 482.5,-54 476.5,-60 470.5,-60"/>
<text text-anchor="middle" x="424" y="-38.3" font-family="Helvetica,sans-Serif" font-size="14.00">chronology.type</text>
</g>
<!-- chronology.type&#45;&gt;get_itrdb -->
<g id="edge10" class="edge"><title>chronology.type&#45;&gt;get_itrdb</title>
<path fill="none" stroke="black" d="M477.827,-60.1436C482.503,-62.7588 486.98,-65.7016 491,-69 517.737,-90.9398 538.156,-125.502 550.197,-149.599"/>
<polygon fill="black" stroke="black" points="547.191,-151.421 554.692,-158.903 553.494,-148.376 547.191,-151.421"/>
</g>
<!-- calibration.years_input_port -->
<g id="node12" class="node"><title>calibration.years_input_port</title>
<ellipse fill="#ffffff" stroke="black" cx="31" cy="-219" rx="7" ry="7"/>
</g>
<!-- calibration.years_input_port&#45;&gt;calibration.years -->
<g id="edge11" class="edge"><title>calibration.years_input_port&#45;&gt;calibration.years</title>
<path fill="none" stroke="black" d="M38.101,-219.519C56.974,-221.132 116.081,-226.234 165,-231 229.189,-237.254 302.297,-244.96 354.26,-250.536"/>
<polygon fill="black" stroke="black" points="354.045,-254.033 364.362,-251.622 354.793,-247.073 354.045,-254.033"/>
</g>
<!-- prediction.years_input_port -->
<g id="node13" class="node"><title>prediction.years_input_port</title>
<ellipse fill="#ffffff" stroke="black" cx="31" cy="-187" rx="7" ry="7"/>
</g>
<!-- prediction.years_input_port&#45;&gt;prediction.years -->
<g id="edge12" class="edge"><title>prediction.years_input_port&#45;&gt;prediction.years</title>
<path fill="none" stroke="black" d="M38.3067,-187.192C69.2011,-188.14 207.658,-192.51 321,-198 331.988,-198.532 343.638,-199.159 354.985,-199.803"/>
<polygon fill="black" stroke="black" points="355.107,-203.315 365.292,-200.396 355.51,-196.327 355.107,-203.315"/>
</g>
<!-- tree.buffer_input_port -->
<g id="node14" class="node"><title>tree.buffer_input_port</title>
<ellipse fill="#ffffff" stroke="black" cx="31" cy="-251" rx="7" ry="7"/>
</g>
<!-- tree.buffer_input_port&#45;&gt;tree.buffer -->
<g id="edge13" class="edge"><title>tree.buffer_input_port&#45;&gt;tree.buffer</title>
<path fill="none" stroke="black" d="M38.083,-251.481C44.9854,-252.027 56.9441,-252.973 69.6455,-253.978"/>
<polygon fill="black" stroke="black" points="69.6637,-257.49 79.9086,-254.789 70.2157,-250.512 69.6637,-257.49"/>
</g>
<!-- prism_data_input_port -->
<g id="node15" class="node"><title>prism_data_input_port</title>
<ellipse fill="#ffffff" stroke="black" cx="31" cy="-283" rx="7" ry="7"/>
</g>
<!-- prism_data_input_port&#45;&gt;prism_data -->
<g id="edge14" class="edge"><title>prism_data_input_port&#45;&gt;prism_data</title>
<path fill="none" stroke="black" d="M37.8067,-284.903C44.4258,-287.072 55.9402,-290.845 68.3106,-294.898"/>
<polygon fill="black" stroke="black" points="67.2774,-298.243 77.8702,-298.031 69.4572,-291.591 67.2774,-298.243"/>
</g>
</g>
</svg>
