<?xml version="1.0" encoding="UTF-8" standalone="no"?>
<!DOCTYPE svg PUBLIC "-//W3C//DTD SVG 1.1//EN"
 "http://www.w3.org/Graphics/SVG/1.1/DTD/svg11.dtd">
<!-- Generated by graphviz version 2.38.0 (20140413.2041)
 -->
<!-- Title: Workflow Pages: 1 -->
<svg width="345pt" height="344pt"
 viewBox="0.00 0.00 345.00 344.00" xmlns="http://www.w3.org/2000/svg" xmlns:xlink="http://www.w3.org/1999/xlink">
<g id="graph0" class="graph" transform="scale(1 1) rotate(0) translate(4 340)">
<title>Workflow</title>
<polygon fill="white" stroke="none" points="-4,4 -4,-340 341,-340 341,4 -4,4"/>
<g id="clust1" class="cluster"><title>cluster_workflow_box_outer</title>
<polygon fill="none" stroke="black" stroke-width="2" points="8,-62 8,-274 329,-274 329,-62 8,-62"/>
</g>
<g id="clust2" class="cluster"><title>cluster_workflow_box_inner</title>
<polygon fill="none" stroke="black" stroke-width="0" points="16,-70 16,-266 321,-266 321,-70 16,-70"/>
</g>
<g id="clust3" class="cluster"><title>cluster_input_ports_group_outer</title>
<polygon fill="none" stroke="black" stroke-width="0" points="124,-282 124,-328 234,-328 234,-282 124,-282"/>
</g>
<g id="clust4" class="cluster"><title>cluster_input_ports_group_inner</title>
<polygon fill="none" stroke="black" stroke-width="0" points="132,-290 132,-320 226,-320 226,-290 132,-290"/>
</g>
<g id="clust5" class="cluster"><title>cluster_output_ports_group_outer</title>
<polygon fill="none" stroke="black" stroke-width="0" points="136,-8 136,-54 214,-54 214,-8 136,-8"/>
</g>
<g id="clust6" class="cluster"><title>cluster_output_ports_group_inner</title>
<polygon fill="none" stroke="black" stroke-width="0" points="144,-16 144,-46 206,-46 206,-16 144,-16"/>
</g>
<!-- get_predictor_matrix -->
<g id="node1" class="node"><title>get_predictor_matrix</title>
<polygon fill="#ccffcc" stroke="black" points="252.5,-186 105.5,-186 105.5,-150 252.5,-150 252.5,-186"/>
<text text-anchor="middle" x="179" y="-164.3" font-family="Helvetica,sans-Serif" font-size="14.00">get_predictor_matrix</text>
</g>
<!-- predictor.matrix -->
<g id="node2" class="node"><title>predictor.matrix</title>
<path fill="#ffffcc" stroke="black" d="M162,-114C162,-114 72,-114 72,-114 66,-114 60,-108 60,-102 60,-102 60,-90 60,-90 60,-84 66,-78 72,-78 72,-78 162,-78 162,-78 168,-78 174,-84 174,-90 174,-90 174,-102 174,-102 174,-108 168,-114 162,-114"/>
<text text-anchor="middle" x="117" y="-92.3" font-family="Helvetica,sans-Serif" font-size="14.00">predictor.matrix</text>
</g>
<!-- get_predictor_matrix&#45;&gt;predictor.matrix -->
<g id="edge1" class="edge"><title>get_predictor_matrix&#45;&gt;predictor.matrix</title>
<path fill="none" stroke="black" d="M163.674,-149.697C156.241,-141.305 147.177,-131.07 139.02,-121.861"/>
<polygon fill="black" stroke="black" points="141.4,-119.27 132.15,-114.104 136.16,-123.911 141.4,-119.27"/>
</g>
<!-- max.preds -->
<g id="node3" class="node"><title>max.preds</title>
<path fill="#ffffcc" stroke="black" d="M263.5,-114C263.5,-114 204.5,-114 204.5,-114 198.5,-114 192.5,-108 192.5,-102 192.5,-102 192.5,-90 192.5,-90 192.5,-84 198.5,-78 204.5,-78 204.5,-78 263.5,-78 263.5,-78 269.5,-78 275.5,-84 275.5,-90 275.5,-90 275.5,-102 275.5,-102 275.5,-108 269.5,-114 263.5,-114"/>
<text text-anchor="middle" x="234" y="-92.3" font-family="Helvetica,sans-Serif" font-size="14.00">max.preds</text>
</g>
<!-- get_predictor_matrix&#45;&gt;max.preds -->
<g id="edge2" class="edge"><title>get_predictor_matrix&#45;&gt;max.preds</title>
<path fill="none" stroke="black" d="M192.596,-149.697C199.123,-141.389 207.068,-131.277 214.247,-122.141"/>
<polygon fill="black" stroke="black" points="217.135,-124.13 220.561,-114.104 211.631,-119.805 217.135,-124.13"/>
</g>
<!-- predictor.matrix_output_port -->
<g id="node10" class="node"><title>predictor.matrix_output_port</title>
<ellipse fill="#ffffff" stroke="black" cx="159" cy="-31" rx="7" ry="7"/>
</g>
<!-- predictor.matrix&#45;&gt;predictor.matrix_output_port -->
<g id="edge9" class="edge"><title>predictor.matrix&#45;&gt;predictor.matrix_output_port</title>
<path fill="none" stroke="black" d="M128.477,-77.785C135.182,-67.7264 143.532,-55.2022 149.802,-45.7966"/>
<polygon fill="black" stroke="black" points="152.793,-47.6197 155.428,-37.3577 146.969,-43.7368 152.793,-47.6197"/>
</g>
<!-- max.preds_output_port -->
<g id="node11" class="node"><title>max.preds_output_port</title>
<ellipse fill="#ffffff" stroke="black" cx="191" cy="-31" rx="7" ry="7"/>
</g>
<!-- max.preds&#45;&gt;max.preds_output_port -->
<g id="edge10" class="edge"><title>max.preds&#45;&gt;max.preds_output_port</title>
<path fill="none" stroke="black" d="M222.25,-77.785C215.385,-67.7264 206.836,-55.2022 200.417,-45.7966"/>
<polygon fill="black" stroke="black" points="203.185,-43.6441 194.657,-37.3577 197.404,-47.5904 203.185,-43.6441"/>
</g>
<!-- itrdb -->
<g id="node4" class="node"><title>itrdb</title>
<path fill="#ffffcc" stroke="black" d="M301,-258C301,-258 271,-258 271,-258 265,-258 259,-252 259,-246 259,-246 259,-234 259,-234 259,-228 265,-222 271,-222 271,-222 301,-222 301,-222 307,-222 313,-228 313,-234 313,-234 313,-246 313,-246 313,-252 307,-258 301,-258"/>
<text text-anchor="middle" x="286" y="-236.3" font-family="Helvetica,sans-Serif" font-size="14.00">itrdb</text>
</g>
<!-- itrdb&#45;&gt;get_predictor_matrix -->
<g id="edge3" class="edge"><title>itrdb&#45;&gt;get_predictor_matrix</title>
<path fill="none" stroke="black" d="M259.825,-221.876C245.964,-212.808 228.759,-201.552 213.789,-191.759"/>
<polygon fill="black" stroke="black" points="215.56,-188.735 205.276,-186.19 211.728,-194.593 215.56,-188.735"/>
</g>
<!-- calibration_years -->
<g id="node5" class="node"><title>calibration_years</title>
<path fill="#ffffcc" stroke="black" d="M228.5,-258C228.5,-258 129.5,-258 129.5,-258 123.5,-258 117.5,-252 117.5,-246 117.5,-246 117.5,-234 117.5,-234 117.5,-228 123.5,-222 129.5,-222 129.5,-222 228.5,-222 228.5,-222 234.5,-222 240.5,-228 240.5,-234 240.5,-234 240.5,-246 240.5,-246 240.5,-252 234.5,-258 228.5,-258"/>
<text text-anchor="middle" x="179" y="-236.3" font-family="Helvetica,sans-Serif" font-size="14.00">calibration_years</text>
</g>
<!-- calibration_years&#45;&gt;get_predictor_matrix -->
<g id="edge4" class="edge"><title>calibration_years&#45;&gt;get_predictor_matrix</title>
<path fill="none" stroke="black" d="M179,-221.697C179,-213.983 179,-204.712 179,-196.112"/>
<polygon fill="black" stroke="black" points="182.5,-196.104 179,-186.104 175.5,-196.104 182.5,-196.104"/>
</g>
<!-- min.width -->
<g id="node6" class="node"><title>min.width</title>
<path fill="#fcfcfc" stroke="black" d="M87.5,-258C87.5,-258 36.5,-258 36.5,-258 30.5,-258 24.5,-252 24.5,-246 24.5,-246 24.5,-234 24.5,-234 24.5,-228 30.5,-222 36.5,-222 36.5,-222 87.5,-222 87.5,-222 93.5,-222 99.5,-228 99.5,-234 99.5,-234 99.5,-246 99.5,-246 99.5,-252 93.5,-258 87.5,-258"/>
<text text-anchor="middle" x="62" y="-236.3" font-family="Helvetica,sans-Serif" font-size="14.00">min.width</text>
</g>
<!-- min.width&#45;&gt;get_predictor_matrix -->
<g id="edge5" class="edge"><title>min.width&#45;&gt;get_predictor_matrix</title>
<path fill="none" stroke="black" d="M90.6214,-221.876C105.919,-212.724 124.943,-201.342 141.418,-191.485"/>
<polygon fill="black" stroke="black" points="143.484,-194.327 150.269,-186.19 139.89,-188.32 143.484,-194.327"/>
</g>
<!-- itrdb_input_port -->
<g id="node7" class="node"><title>itrdb_input_port</title>
<ellipse fill="#ffffff" stroke="black" cx="211" cy="-305" rx="7" ry="7"/>
</g>
<!-- itrdb_input_port&#45;&gt;itrdb -->
<g id="edge6" class="edge"><title>itrdb_input_port&#45;&gt;itrdb</title>
<path fill="none" stroke="black" d="M216.158,-300.253C223.729,-294.705 238.228,-283.892 250,-274 253.453,-271.099 257.024,-267.979 260.517,-264.856"/>
<polygon fill="black" stroke="black" points="262.908,-267.413 267.959,-258.099 258.203,-262.23 262.908,-267.413"/>
</g>
<!-- calibration_years_input_port -->
<g id="node8" class="node"><title>calibration_years_input_port</title>
<ellipse fill="#ffffff" stroke="black" cx="179" cy="-305" rx="7" ry="7"/>
</g>
<!-- calibration_years_input_port&#45;&gt;calibration_years -->
<g id="edge7" class="edge"><title>calibration_years_input_port&#45;&gt;calibration_years</title>
<path fill="none" stroke="black" d="M179,-297.729C179,-290.795 179,-279.154 179,-268.215"/>
<polygon fill="black" stroke="black" points="182.5,-268.119 179,-258.119 175.5,-268.119 182.5,-268.119"/>
</g>
<!-- min.width_input_port -->
<g id="node9" class="node"><title>min.width_input_port</title>
<ellipse fill="#ffffff" stroke="black" cx="147" cy="-305" rx="7" ry="7"/>
</g>
<!-- min.width_input_port&#45;&gt;min.width -->
<g id="edge8" class="edge"><title>min.width_input_port&#45;&gt;min.width</title>
<path fill="none" stroke="black" d="M141.423,-299.866C131.774,-292.715 111.293,-277.535 93.5471,-264.382"/>
<polygon fill="black" stroke="black" points="95.2324,-261.275 85.1143,-258.132 91.0642,-266.898 95.2324,-261.275"/>
</g>
</g>
</svg>
