<?xml version="1.0" encoding="UTF-8" standalone="no"?>
<!DOCTYPE svg PUBLIC "-//W3C//DTD SVG 1.1//EN"
 "http://www.w3.org/Graphics/SVG/1.1/DTD/svg11.dtd">
<!-- Generated by graphviz version 2.38.0 (20140413.2041)
 -->
<!-- Title: Workflow Pages: 1 -->
<svg width="661pt" height="698pt"
 viewBox="0.00 0.00 661.00 698.00" xmlns="http://www.w3.org/2000/svg" xmlns:xlink="http://www.w3.org/1999/xlink">
<g id="graph0" class="graph" transform="scale(1 1) rotate(0) translate(4 694)">
<title>Workflow</title>
<polygon fill="white" stroke="none" points="-4,4 -4,-694 657,-694 657,4 -4,4"/>
<g id="clust1" class="cluster"><title>cluster_workflow_box_outer</title>
<polygon fill="none" stroke="black" stroke-width="2" points="8,-62 8,-628 624,-628 624,-62 8,-62"/>
</g>
<g id="clust2" class="cluster"><title>cluster_workflow_box_inner</title>
<polygon fill="none" stroke="black" stroke-width="0" points="16,-70 16,-620 616,-620 616,-70 16,-70"/>
</g>
<g id="clust3" class="cluster"><title>cluster_input_ports_group_outer</title>
<polygon fill="none" stroke="black" stroke-width="0" points="471,-636 471,-682 645,-682 645,-636 471,-636"/>
</g>
<g id="clust4" class="cluster"><title>cluster_input_ports_group_inner</title>
<polygon fill="none" stroke="black" stroke-width="0" points="479,-644 479,-674 637,-674 637,-644 479,-644"/>
</g>
<g id="clust5" class="cluster"><title>cluster_output_ports_group_outer</title>
<polygon fill="none" stroke="black" stroke-width="0" points="293,-8 293,-54 339,-54 339,-8 293,-8"/>
</g>
<g id="clust6" class="cluster"><title>cluster_output_ports_group_inner</title>
<polygon fill="none" stroke="black" stroke-width="0" points="301,-16 301,-46 331,-46 331,-16 301,-16"/>
</g>
<!-- get_shapefile -->
<g id="node1" class="node"><title>get_shapefile</title>
<polygon fill="#ccffcc" stroke="black" points="24,-482.5 24,-528.5 492,-528.5 492,-482.5 24,-482.5"/>
<text text-anchor="middle" x="258" y="-513.3" font-family="Helvetica,sans-Serif" font-size="14.00">get_shapefile</text>
<polyline fill="none" stroke="black" points="24,-505.5 492,-505.5 "/>
<text text-anchor="middle" x="258" y="-490.3" font-family="Helvetica,sans-Serif" font-size="14.00">download shapefile archive and extract the shapefile for the grca region.</text>
</g>
<!-- shapefile -->
<g id="node7" class="node"><title>shapefile</title>
<path fill="#ffffcc" stroke="black" d="M122.5,-399.5C122.5,-399.5 251.5,-399.5 251.5,-399.5 257.5,-399.5 263.5,-405.5 263.5,-411.5 263.5,-411.5 263.5,-433.5 263.5,-433.5 263.5,-439.5 257.5,-445.5 251.5,-445.5 251.5,-445.5 122.5,-445.5 122.5,-445.5 116.5,-445.5 110.5,-439.5 110.5,-433.5 110.5,-433.5 110.5,-411.5 110.5,-411.5 110.5,-405.5 116.5,-399.5 122.5,-399.5"/>
<text text-anchor="middle" x="187" y="-430.3" font-family="Helvetica,sans-Serif" font-size="14.00">shapefile</text>
<polyline fill="none" stroke="black" points="110.5,-422.5 263.5,-422.5 "/>
<text text-anchor="middle" x="187" y="-407.3" font-family="Helvetica,sans-Serif" font-size="14.00">file:/data&#45;raw/grca.shx</text>
</g>
<!-- get_shapefile&#45;&gt;shapefile -->
<g id="edge1" class="edge"><title>get_shapefile&#45;&gt;shapefile</title>
<path fill="none" stroke="black" d="M238.599,-482.366C230.772,-473.437 221.621,-462.997 213.216,-453.409"/>
<polygon fill="black" stroke="black" points="215.601,-450.82 206.378,-445.607 210.337,-455.434 215.601,-450.82"/>
</g>
<!-- get_treepolygon -->
<g id="node2" class="node"><title>get_treepolygon</title>
<polygon fill="#ccffcc" stroke="black" points="24.5,-316.5 24.5,-362.5 449.5,-362.5 449.5,-316.5 24.5,-316.5"/>
<text text-anchor="middle" x="237" y="-347.3" font-family="Helvetica,sans-Serif" font-size="14.00">get_treepolygon</text>
<polyline fill="none" stroke="black" points="24.5,-339.5 449.5,-339.5 "/>
<text text-anchor="middle" x="237" y="-324.3" font-family="Helvetica,sans-Serif" font-size="14.00">Get Tree&#45;ring data from the ITRDB for tree_buffer around GRCA</text>
</g>
<!-- treepolygon -->
<g id="node8" class="node"><title>treepolygon</title>
<path fill="#ffffcc" stroke="black" d="M161,-280C161,-280 93,-280 93,-280 87,-280 81,-274 81,-268 81,-268 81,-256 81,-256 81,-250 87,-244 93,-244 93,-244 161,-244 161,-244 167,-244 173,-250 173,-256 173,-256 173,-268 173,-268 173,-274 167,-280 161,-280"/>
<text text-anchor="middle" x="127" y="-258.3" font-family="Helvetica,sans-Serif" font-size="14.00">treepolygon</text>
</g>
<!-- get_treepolygon&#45;&gt;treepolygon -->
<g id="edge3" class="edge"><title>get_treepolygon&#45;&gt;treepolygon</title>
<path fill="none" stroke="black" d="M204.888,-316.459C190.919,-306.872 174.552,-295.638 160.437,-285.95"/>
<polygon fill="black" stroke="black" points="162.207,-282.919 151.981,-280.146 158.245,-288.691 162.207,-282.919"/>
</g>
<!-- get_tree_ring_data -->
<g id="node3" class="node"><title>get_tree_ring_data</title>
<polygon fill="#ccffcc" stroke="black" points="24,-161.5 24,-207.5 608,-207.5 608,-161.5 24,-161.5"/>
<text text-anchor="middle" x="316" y="-192.3" font-family="Helvetica,sans-Serif" font-size="14.00">get_tree_ring_data</text>
<polyline fill="none" stroke="black" points="24,-184.5 608,-184.5 "/>
<text text-anchor="middle" x="316" y="-169.3" font-family="Helvetica,sans-Serif" font-size="14.00">Extract tree ring data for the grca region using get_itrdb function and treepolygon template.</text>
</g>
<!-- ITRDB -->
<g id="node4" class="node"><title>ITRDB</title>
<path fill="#ffffcc" stroke="black" d="M262.5,-78.5C262.5,-78.5 369.5,-78.5 369.5,-78.5 375.5,-78.5 381.5,-84.5 381.5,-90.5 381.5,-90.5 381.5,-112.5 381.5,-112.5 381.5,-118.5 375.5,-124.5 369.5,-124.5 369.5,-124.5 262.5,-124.5 262.5,-124.5 256.5,-124.5 250.5,-118.5 250.5,-112.5 250.5,-112.5 250.5,-90.5 250.5,-90.5 250.5,-84.5 256.5,-78.5 262.5,-78.5"/>
<text text-anchor="middle" x="316" y="-109.3" font-family="Helvetica,sans-Serif" font-size="14.00">ITRDB</text>
<polyline fill="none" stroke="black" points="250.5,-101.5 381.5,-101.5 "/>
<text text-anchor="middle" x="316" y="-86.3" font-family="Helvetica,sans-Serif" font-size="14.00">file:/data/itrdb.Rda</text>
</g>
<!-- get_tree_ring_data&#45;&gt;ITRDB -->
<g id="edge6" class="edge"><title>get_tree_ring_data&#45;&gt;ITRDB</title>
<path fill="none" stroke="black" d="M316,-161.366C316,-153.152 316,-143.658 316,-134.725"/>
<polygon fill="black" stroke="black" points="319.5,-134.607 316,-124.607 312.5,-134.607 319.5,-134.607"/>
</g>
<!-- ITRDB_output_port -->
<g id="node17" class="node"><title>ITRDB_output_port</title>
<ellipse fill="#ffffff" stroke="black" cx="316" cy="-31" rx="7" ry="7"/>
</g>
<!-- ITRDB&#45;&gt;ITRDB_output_port -->
<g id="edge16" class="edge"><title>ITRDB&#45;&gt;ITRDB_output_port</title>
<path fill="none" stroke="black" d="M316,-78.4491C316,-68.6592 316,-57.3397 316,-48.3261"/>
<polygon fill="black" stroke="black" points="319.5,-48.1278 316,-38.1279 312.5,-48.1279 319.5,-48.1278"/>
</g>
<!-- shapefile_archive -->
<g id="node5" class="node"><title>shapefile_archive</title>
<path fill="#ffffcc" stroke="black" d="M126.5,-565.5C126.5,-565.5 449.5,-565.5 449.5,-565.5 455.5,-565.5 461.5,-571.5 461.5,-577.5 461.5,-577.5 461.5,-599.5 461.5,-599.5 461.5,-605.5 455.5,-611.5 449.5,-611.5 449.5,-611.5 126.5,-611.5 126.5,-611.5 120.5,-611.5 114.5,-605.5 114.5,-599.5 114.5,-599.5 114.5,-577.5 114.5,-577.5 114.5,-571.5 120.5,-565.5 126.5,-565.5"/>
<text text-anchor="middle" x="288" y="-596.3" font-family="Helvetica,sans-Serif" font-size="14.00">shapefile_archive</text>
<polyline fill="none" stroke="black" points="114.5,-588.5 461.5,-588.5 "/>
<text text-anchor="middle" x="288" y="-573.3" font-family="Helvetica,sans-Serif" font-size="14.00">http://nrdata.nps.gov/programs/Lands/grca_tracts.zip</text>
</g>
<!-- shapefile_archive&#45;&gt;get_shapefile -->
<g id="edge2" class="edge"><title>shapefile_archive&#45;&gt;get_shapefile</title>
<path fill="none" stroke="black" d="M279.802,-565.366C276.694,-556.973 273.091,-547.245 269.72,-538.143"/>
<polygon fill="black" stroke="black" points="272.943,-536.769 266.188,-528.607 266.379,-539.2 272.943,-536.769"/>
</g>
<!-- tree_buffer -->
<g id="node6" class="node"><title>tree_buffer</title>
<path fill="#ffffcc" stroke="black" d="M294,-399.5C294,-399.5 518,-399.5 518,-399.5 524,-399.5 530,-405.5 530,-411.5 530,-411.5 530,-433.5 530,-433.5 530,-439.5 524,-445.5 518,-445.5 518,-445.5 294,-445.5 294,-445.5 288,-445.5 282,-439.5 282,-433.5 282,-433.5 282,-411.5 282,-411.5 282,-405.5 288,-399.5 294,-399.5"/>
<text text-anchor="middle" x="406" y="-430.3" font-family="Helvetica,sans-Serif" font-size="14.00">tree_buffer</text>
<polyline fill="none" stroke="black" points="282,-422.5 530,-422.5 "/>
<text text-anchor="middle" x="406" y="-407.3" font-family="Helvetica,sans-Serif" font-size="14.00">10_degree_buffer_around_the_area</text>
</g>
<!-- tree_buffer&#45;&gt;get_treepolygon -->
<g id="edge4" class="edge"><title>tree_buffer&#45;&gt;get_treepolygon</title>
<path fill="none" stroke="black" d="M359.82,-399.366C338.955,-389.366 314.134,-377.47 292.286,-366.998"/>
<polygon fill="black" stroke="black" points="293.655,-363.773 283.124,-362.607 290.629,-370.085 293.655,-363.773"/>
</g>
<!-- shapefile&#45;&gt;get_treepolygon -->
<g id="edge5" class="edge"><title>shapefile&#45;&gt;get_treepolygon</title>
<path fill="none" stroke="black" d="M200.663,-399.366C206.009,-390.705 212.233,-380.622 218.004,-371.274"/>
<polygon fill="black" stroke="black" points="221.079,-372.955 223.354,-362.607 215.123,-369.278 221.079,-372.955"/>
</g>
<!-- treepolygon&#45;&gt;get_tree_ring_data -->
<g id="edge7" class="edge"><title>treepolygon&#45;&gt;get_tree_ring_data</title>
<path fill="none" stroke="black" d="M169.887,-243.868C193.951,-234.255 224.456,-222.069 251.362,-211.321"/>
<polygon fill="black" stroke="black" points="252.724,-214.546 260.712,-207.586 250.127,-208.045 252.724,-214.546"/>
</g>
<!-- user_label_itrdb -->
<g id="node9" class="node"><title>user_label_itrdb</title>
<path fill="#fcfcfc" stroke="black" d="M298.5,-280C298.5,-280 203.5,-280 203.5,-280 197.5,-280 191.5,-274 191.5,-268 191.5,-268 191.5,-256 191.5,-256 191.5,-250 197.5,-244 203.5,-244 203.5,-244 298.5,-244 298.5,-244 304.5,-244 310.5,-250 310.5,-256 310.5,-256 310.5,-268 310.5,-268 310.5,-274 304.5,-280 298.5,-280"/>
<text text-anchor="middle" x="251" y="-258.3" font-family="Helvetica,sans-Serif" font-size="14.00">user_label_itrdb</text>
</g>
<!-- user_label_itrdb&#45;&gt;get_tree_ring_data -->
<g id="edge8" class="edge"><title>user_label_itrdb&#45;&gt;get_tree_ring_data</title>
<path fill="none" stroke="black" d="M265.75,-243.868C272.948,-235.506 281.823,-225.198 290.101,-215.583"/>
<polygon fill="black" stroke="black" points="292.992,-217.589 296.864,-207.727 287.688,-213.021 292.992,-217.589"/>
</g>
<!-- measurement_type -->
<g id="node10" class="node"><title>measurement_type</title>
<path fill="#fcfcfc" stroke="black" d="M455.5,-280C455.5,-280 340.5,-280 340.5,-280 334.5,-280 328.5,-274 328.5,-268 328.5,-268 328.5,-256 328.5,-256 328.5,-250 334.5,-244 340.5,-244 340.5,-244 455.5,-244 455.5,-244 461.5,-244 467.5,-250 467.5,-256 467.5,-256 467.5,-268 467.5,-268 467.5,-274 461.5,-280 455.5,-280"/>
<text text-anchor="middle" x="398" y="-258.3" font-family="Helvetica,sans-Serif" font-size="14.00">measurement_type</text>
</g>
<!-- measurement_type&#45;&gt;get_tree_ring_data -->
<g id="edge9" class="edge"><title>measurement_type&#45;&gt;get_tree_ring_data</title>
<path fill="none" stroke="black" d="M379.393,-243.868C370.039,-235.256 358.442,-224.578 347.735,-214.719"/>
<polygon fill="black" stroke="black" points="349.868,-211.925 340.14,-207.727 345.126,-217.075 349.868,-211.925"/>
</g>
<!-- chronology_type -->
<g id="node11" class="node"><title>chronology_type</title>
<path fill="#fcfcfc" stroke="black" d="M596,-280C596,-280 498,-280 498,-280 492,-280 486,-274 486,-268 486,-268 486,-256 486,-256 486,-250 492,-244 498,-244 498,-244 596,-244 596,-244 602,-244 608,-250 608,-256 608,-256 608,-268 608,-268 608,-274 602,-280 596,-280"/>
<text text-anchor="middle" x="547" y="-258.3" font-family="Helvetica,sans-Serif" font-size="14.00">chronology_type</text>
</g>
<!-- chronology_type&#45;&gt;get_tree_ring_data -->
<g id="edge10" class="edge"><title>chronology_type&#45;&gt;get_tree_ring_data</title>
<path fill="none" stroke="black" d="M494.871,-243.962C464.956,-234.185 426.827,-221.723 393.463,-210.818"/>
<polygon fill="black" stroke="black" points="394.328,-207.418 383.735,-207.639 392.153,-214.072 394.328,-207.418"/>
</g>
<!-- shapefile_archive_input_port -->
<g id="node12" class="node"><title>shapefile_archive_input_port</title>
<ellipse fill="#ffffff" stroke="black" cx="494" cy="-659" rx="7" ry="7"/>
</g>
<!-- shapefile_archive_input_port&#45;&gt;shapefile_archive -->
<g id="edge11" class="edge"><title>shapefile_archive_input_port&#45;&gt;shapefile_archive</title>
<path fill="none" stroke="black" d="M487.609,-655.875C468.827,-649.629 412.095,-630.765 363.891,-614.736"/>
<polygon fill="black" stroke="black" points="364.972,-611.407 354.378,-611.572 362.763,-618.049 364.972,-611.407"/>
</g>
<!-- user_label_itrdb_input_port -->
<g id="node13" class="node"><title>user_label_itrdb_input_port</title>
<ellipse fill="#ffffff" stroke="black" cx="558" cy="-659" rx="7" ry="7"/>
</g>
<!-- user_label_itrdb_input_port&#45;&gt;user_label_itrdb -->
<g id="edge12" class="edge"><title>user_label_itrdb_input_port&#45;&gt;user_label_itrdb</title>
<path fill="none" stroke="black" d="M558,-651.938C558,-631.472 558,-563.049 558,-506.5 558,-506.5 558,-506.5 558,-421.5 558,-399.271 571.587,-381.659 458,-316 456.434,-315.095 379.849,-295.597 320.293,-280.511"/>
<polygon fill="black" stroke="black" points="321.074,-277.098 310.521,-278.037 319.356,-283.884 321.074,-277.098"/>
</g>
<!-- tree_buffer_input_port -->
<g id="node14" class="node"><title>tree_buffer_input_port</title>
<ellipse fill="#ffffff" stroke="black" cx="526" cy="-659" rx="7" ry="7"/>
</g>
<!-- tree_buffer_input_port&#45;&gt;tree_buffer -->
<g id="edge13" class="edge"><title>tree_buffer_input_port&#45;&gt;tree_buffer</title>
<path fill="none" stroke="black" d="M526.863,-651.907C529.928,-627.954 538.208,-538.794 501,-482 492.807,-469.494 480.918,-459.211 468.307,-450.948"/>
<polygon fill="black" stroke="black" points="469.852,-447.79 459.497,-445.547 466.193,-453.758 469.852,-447.79"/>
</g>
<!-- measurement_type_input_port -->
<g id="node15" class="node"><title>measurement_type_input_port</title>
<ellipse fill="#ffffff" stroke="black" cx="590" cy="-659" rx="7" ry="7"/>
</g>
<!-- measurement_type_input_port&#45;&gt;measurement_type -->
<g id="edge14" class="edge"><title>measurement_type_input_port&#45;&gt;measurement_type</title>
<path fill="none" stroke="black" d="M590.412,-651.942C591.768,-631.486 596,-563.094 596,-506.5 596,-506.5 596,-506.5 596,-421.5 596,-373.413 604.757,-351.204 572,-316 564.85,-308.316 518.2,-294.319 475.005,-282.639"/>
<polygon fill="black" stroke="black" points="475.847,-279.241 465.282,-280.032 474.034,-286.002 475.847,-279.241"/>
</g>
<!-- chronology_type_input_port -->
<g id="node16" class="node"><title>chronology_type_input_port</title>
<ellipse fill="#ffffff" stroke="black" cx="622" cy="-659" rx="7" ry="7"/>
</g>
<!-- chronology_type_input_port&#45;&gt;chronology_type -->
<g id="edge15" class="edge"><title>chronology_type_input_port&#45;&gt;chronology_type</title>
<path fill="none" stroke="black" d="M622.825,-651.952C625.536,-631.529 634,-563.227 634,-506.5 634,-506.5 634,-506.5 634,-421.5 634,-373.413 635.033,-357.057 610,-316 603.072,-304.637 592.85,-294.529 582.646,-286.266"/>
<polygon fill="black" stroke="black" points="584.596,-283.351 574.53,-280.045 580.338,-288.907 584.596,-283.351"/>
</g>
</g>
</svg>
