<?xml version="1.0" encoding="UTF-8" standalone="no"?>
<!DOCTYPE svg PUBLIC "-//W3C//DTD SVG 1.1//EN"
 "http://www.w3.org/Graphics/SVG/1.1/DTD/svg11.dtd">
<!-- Generated by graphviz version 2.38.0 (20140413.2041)
 -->
<!-- Title: Workflow Pages: 1 -->
<svg width="560pt" height="377pt"
 viewBox="0.00 0.00 560.00 377.00" xmlns="http://www.w3.org/2000/svg" xmlns:xlink="http://www.w3.org/1999/xlink">
<g id="graph0" class="graph" transform="scale(1 1) rotate(0) translate(4 373)">
<title>Workflow</title>
<polygon fill="white" stroke="none" points="-4,4 -4,-373 556,-373 556,4 -4,4"/>
<g id="clust1" class="cluster"><title>cluster_workflow_box_outer</title>
<polygon fill="none" stroke="black" stroke-width="2" points="8,-62 8,-307 544,-307 544,-62 8,-62"/>
</g>
<g id="clust2" class="cluster"><title>cluster_workflow_box_inner</title>
<polygon fill="none" stroke="black" stroke-width="0" points="16,-70 16,-299 536,-299 536,-70 16,-70"/>
</g>
<g id="clust3" class="cluster"><title>cluster_input_ports_group_outer</title>
<polygon fill="none" stroke="black" stroke-width="0" points="253,-315 253,-361 299,-361 299,-315 253,-315"/>
</g>
<g id="clust4" class="cluster"><title>cluster_input_ports_group_inner</title>
<polygon fill="none" stroke="black" stroke-width="0" points="261,-323 261,-353 291,-353 291,-323 261,-323"/>
</g>
<g id="clust5" class="cluster"><title>cluster_output_ports_group_outer</title>
<polygon fill="none" stroke="black" stroke-width="0" points="253,-8 253,-54 299,-54 299,-8 253,-8"/>
</g>
<g id="clust6" class="cluster"><title>cluster_output_ports_group_inner</title>
<polygon fill="none" stroke="black" stroke-width="0" points="261,-16 261,-46 291,-46 291,-16 261,-16"/>
</g>
<!-- get_prism_data -->
<g id="node1" class="node"><title>get_prism_data</title>
<polygon fill="#ccffcc" stroke="black" points="24.5,-161.5 24.5,-207.5 527.5,-207.5 527.5,-161.5 24.5,-161.5"/>
<text text-anchor="middle" x="276" y="-192.3" font-family="Helvetica,sans-Serif" font-size="14.00">get_prism_data</text>
<polyline fill="none" stroke="black" points="24.5,-184.5 527.5,-184.5 "/>
<text text-anchor="middle" x="276" y="-169.3" font-family="Helvetica,sans-Serif" font-size="14.00">download prism data and extract precipitation values for the region of interest.</text>
</g>
<!-- prism_data -->
<g id="node2" class="node"><title>prism_data</title>
<path fill="#ffffcc" stroke="black" d="M210.5,-78.5C210.5,-78.5 341.5,-78.5 341.5,-78.5 347.5,-78.5 353.5,-84.5 353.5,-90.5 353.5,-90.5 353.5,-112.5 353.5,-112.5 353.5,-118.5 347.5,-124.5 341.5,-124.5 341.5,-124.5 210.5,-124.5 210.5,-124.5 204.5,-124.5 198.5,-118.5 198.5,-112.5 198.5,-112.5 198.5,-90.5 198.5,-90.5 198.5,-84.5 204.5,-78.5 210.5,-78.5"/>
<text text-anchor="middle" x="276" y="-109.3" font-family="Helvetica,sans-Serif" font-size="14.00">prism_data</text>
<polyline fill="none" stroke="black" points="198.5,-101.5 353.5,-101.5 "/>
<text text-anchor="middle" x="276" y="-86.3" font-family="Helvetica,sans-Serif" font-size="14.00">file:/data/{data_file}.nc</text>
</g>
<!-- get_prism_data&#45;&gt;prism_data -->
<g id="edge1" class="edge"><title>get_prism_data&#45;&gt;prism_data</title>
<path fill="none" stroke="black" d="M276,-161.366C276,-153.152 276,-143.658 276,-134.725"/>
<polygon fill="black" stroke="black" points="279.5,-134.607 276,-124.607 272.5,-134.607 279.5,-134.607"/>
</g>
<!-- prism_data_output_port -->
<g id="node5" class="node"><title>prism_data_output_port</title>
<ellipse fill="#ffffff" stroke="black" cx="276" cy="-31" rx="7" ry="7"/>
</g>
<!-- prism_data&#45;&gt;prism_data_output_port -->
<g id="edge4" class="edge"><title>prism_data&#45;&gt;prism_data_output_port</title>
<path fill="none" stroke="black" d="M276,-78.4491C276,-68.6592 276,-57.3397 276,-48.3261"/>
<polygon fill="black" stroke="black" points="279.5,-48.1278 276,-38.1279 272.5,-48.1279 279.5,-48.1278"/>
</g>
<!-- prism_gridded_data -->
<g id="node3" class="node"><title>prism_gridded_data</title>
<path fill="#ffffcc" stroke="black" d="M145,-244.5C145,-244.5 407,-244.5 407,-244.5 413,-244.5 419,-250.5 419,-256.5 419,-256.5 419,-278.5 419,-278.5 419,-284.5 413,-290.5 407,-290.5 407,-290.5 145,-290.5 145,-290.5 139,-290.5 133,-284.5 133,-278.5 133,-278.5 133,-256.5 133,-256.5 133,-250.5 139,-244.5 145,-244.5"/>
<text text-anchor="middle" x="276" y="-275.3" font-family="Helvetica,sans-Serif" font-size="14.00">prism_gridded_data</text>
<polyline fill="none" stroke="black" points="133,-267.5 419,-267.5 "/>
<text text-anchor="middle" x="276" y="-252.3" font-family="Helvetica,sans-Serif" font-size="14.00">http://www.prism.oregonstate.edu/historical</text>
</g>
<!-- prism_gridded_data&#45;&gt;get_prism_data -->
<g id="edge2" class="edge"><title>prism_gridded_data&#45;&gt;get_prism_data</title>
<path fill="none" stroke="black" d="M276,-244.366C276,-236.152 276,-226.658 276,-217.725"/>
<polygon fill="black" stroke="black" points="279.5,-217.607 276,-207.607 272.5,-217.607 279.5,-217.607"/>
</g>
<!-- prism_gridded_data_input_port -->
<g id="node4" class="node"><title>prism_gridded_data_input_port</title>
<ellipse fill="#ffffff" stroke="black" cx="276" cy="-338" rx="7" ry="7"/>
</g>
<!-- prism_gridded_data_input_port&#45;&gt;prism_gridded_data -->
<g id="edge3" class="edge"><title>prism_gridded_data_input_port&#45;&gt;prism_gridded_data</title>
<path fill="none" stroke="black" d="M276,-330.678C276,-323.781 276,-312.208 276,-300.904"/>
<polygon fill="black" stroke="black" points="279.5,-300.74 276,-290.74 272.5,-300.74 279.5,-300.74"/>
</g>
</g>
</svg>
