<?xml version="1.0" encoding="UTF-8" standalone="no"?>
<!DOCTYPE svg PUBLIC "-//W3C//DTD SVG 1.1//EN"
 "http://www.w3.org/Graphics/SVG/1.1/DTD/svg11.dtd">
<!-- Generated by graphviz version 2.38.0 (20140413.2041)
 -->
<!-- Title: Workflow Pages: 1 -->
<svg width="674pt" height="186pt"
 viewBox="0.00 0.00 674.00 186.00" xmlns="http://www.w3.org/2000/svg" xmlns:xlink="http://www.w3.org/1999/xlink">
<g id="graph0" class="graph" transform="scale(1 1) rotate(0) translate(4 182)">
<title>Workflow</title>
<polygon fill="white" stroke="none" points="-4,4 -4,-182 670,-182 670,4 -4,4"/>
<text text-anchor="middle" x="333" y="-159.6" font-family="Helvetica,sans-Serif" font-size="18.00">get_prism_data</text>
<g id="clust1" class="cluster"><title>cluster_workflow_box_outer</title>
<polygon fill="none" stroke="black" stroke-width="2" points="62,-8 62,-142 604,-142 604,-8 62,-8"/>
</g>
<g id="clust2" class="cluster"><title>cluster_workflow_box_inner</title>
<polygon fill="none" stroke="black" stroke-width="0" points="70,-16 70,-134 596,-134 596,-16 70,-16"/>
</g>
<g id="clust3" class="cluster"><title>cluster_input_ports_group_outer</title>
<polygon fill="none" stroke="black" stroke-width="0" points="8,-39 8,-117 54,-117 54,-39 8,-39"/>
</g>
<g id="clust4" class="cluster"><title>cluster_input_ports_group_inner</title>
<polygon fill="none" stroke="black" stroke-width="0" points="16,-47 16,-109 46,-109 46,-47 16,-47"/>
</g>
<g id="clust5" class="cluster"><title>cluster_output_ports_group_outer</title>
<polygon fill="none" stroke="black" stroke-width="0" points="612,-52 612,-98 658,-98 658,-52 612,-52"/>
</g>
<g id="clust6" class="cluster"><title>cluster_output_ports_group_inner</title>
<polygon fill="none" stroke="black" stroke-width="0" points="620,-60 620,-90 650,-90 650,-60 620,-60"/>
</g>
<!-- get_prism_data -->
<g id="node1" class="node"><title>get_prism_data</title>
<polygon fill="#ccffcc" stroke="black" points="388,-93 272,-93 272,-57 388,-57 388,-93"/>
<text text-anchor="middle" x="330" y="-71.3" font-family="Helvetica,sans-Serif" font-size="14.00">get_prism_data</text>
</g>
<!-- prism_data -->
<g id="node2" class="node"><title>prism_data</title>
<path fill="#ffffcc" stroke="black" d="M436,-52C436,-52 576,-52 576,-52 582,-52 588,-58 588,-64 588,-64 588,-86 588,-86 588,-92 582,-98 576,-98 576,-98 436,-98 436,-98 430,-98 424,-92 424,-86 424,-86 424,-64 424,-64 424,-58 430,-52 436,-52"/>
<text text-anchor="middle" x="506" y="-82.8" font-family="Helvetica,sans-Serif" font-size="14.00">prism_data</text>
<polyline fill="none" stroke="black" points="424,-75 588,-75 "/>
<text text-anchor="middle" x="506" y="-59.8" font-family="Helvetica,sans-Serif" font-size="14.00">file:/data/112W36N.csv</text>
</g>
<!-- get_prism_data&#45;&gt;prism_data -->
<g id="edge1" class="edge"><title>get_prism_data&#45;&gt;prism_data</title>
<path fill="none" stroke="black" d="M388.456,-75C396.638,-75 405.216,-75 413.848,-75"/>
<polygon fill="black" stroke="black" points="413.987,-78.5001 423.987,-75 413.986,-71.5001 413.987,-78.5001"/>
</g>
<!-- prism_data_output_port -->
<g id="node7" class="node"><title>prism_data_output_port</title>
<ellipse fill="#ffffff" stroke="black" cx="635" cy="-75" rx="7" ry="7"/>
</g>
<!-- prism_data&#45;&gt;prism_data_output_port -->
<g id="edge6" class="edge"><title>prism_data&#45;&gt;prism_data_output_port</title>
<path fill="none" stroke="black" d="M588.15,-75C599.255,-75 609.578,-75 617.606,-75"/>
<polygon fill="black" stroke="black" points="617.832,-78.5001 627.832,-75 617.832,-71.5001 617.832,-78.5001"/>
</g>
<!-- coordinates -->
<g id="node3" class="node"><title>coordinates</title>
<path fill="#ffffcc" stroke="black" d="M190.5,-126C190.5,-126 123.5,-126 123.5,-126 117.5,-126 111.5,-120 111.5,-114 111.5,-114 111.5,-102 111.5,-102 111.5,-96 117.5,-90 123.5,-90 123.5,-90 190.5,-90 190.5,-90 196.5,-90 202.5,-96 202.5,-102 202.5,-102 202.5,-114 202.5,-114 202.5,-120 196.5,-126 190.5,-126"/>
<text text-anchor="middle" x="157" y="-104.3" font-family="Helvetica,sans-Serif" font-size="14.00">coordinates</text>
</g>
<!-- coordinates&#45;&gt;get_prism_data -->
<g id="edge2" class="edge"><title>coordinates&#45;&gt;get_prism_data</title>
<path fill="none" stroke="black" d="M202.928,-99.3296C220.959,-95.85 242.124,-91.7656 261.908,-87.9476"/>
<polygon fill="black" stroke="black" points="262.64,-91.371 271.796,-86.0394 261.314,-84.4978 262.64,-91.371"/>
</g>
<!-- netcdf_file -->
<g id="node4" class="node"><title>netcdf_file</title>
<path fill="#ffffcc" stroke="black" d="M90,-25C90,-25 224,-25 224,-25 230,-25 236,-31 236,-37 236,-37 236,-59 236,-59 236,-65 230,-71 224,-71 224,-71 90,-71 90,-71 84,-71 78,-65 78,-59 78,-59 78,-37 78,-37 78,-31 84,-25 90,-25"/>
<text text-anchor="middle" x="157" y="-55.8" font-family="Helvetica,sans-Serif" font-size="14.00">netcdf_file</text>
<polyline fill="none" stroke="black" points="78,-48 236,-48 "/>
<text text-anchor="middle" x="157" y="-32.8" font-family="Helvetica,sans-Serif" font-size="14.00">file:/data/112W36N.nc</text>
</g>
<!-- netcdf_file&#45;&gt;get_prism_data -->
<g id="edge3" class="edge"><title>netcdf_file&#45;&gt;get_prism_data</title>
<path fill="none" stroke="black" d="M236.493,-60.3937C244.982,-61.7341 253.564,-63.0891 261.901,-64.4054"/>
<polygon fill="black" stroke="black" points="261.502,-67.8857 271.926,-65.9883 262.594,-60.9714 261.502,-67.8857"/>
</g>
<!-- coordinates_input_port -->
<g id="node5" class="node"><title>coordinates_input_port</title>
<ellipse fill="#ffffff" stroke="black" cx="31" cy="-94" rx="7" ry="7"/>
</g>
<!-- coordinates_input_port&#45;&gt;coordinates -->
<g id="edge4" class="edge"><title>coordinates_input_port&#45;&gt;coordinates</title>
<path fill="none" stroke="black" d="M37.9808,-94.6752C49.5886,-95.9858 76.2361,-98.9944 101.278,-101.822"/>
<polygon fill="black" stroke="black" points="101.164,-105.331 111.493,-102.975 101.949,-98.3751 101.164,-105.331"/>
</g>
<!-- netcdf_file_input_port -->
<g id="node6" class="node"><title>netcdf_file_input_port</title>
<ellipse fill="#ffffff" stroke="black" cx="31" cy="-62" rx="7" ry="7"/>
</g>
<!-- netcdf_file_input_port&#45;&gt;netcdf_file -->
<g id="edge5" class="edge"><title>netcdf_file_input_port&#45;&gt;netcdf_file</title>
<path fill="none" stroke="black" d="M37.9808,-61.3248C44.3417,-60.6066 55.2189,-59.3785 67.8731,-57.9498"/>
<polygon fill="black" stroke="black" points="68.3068,-61.4232 77.851,-56.8233 67.5214,-54.4674 68.3068,-61.4232"/>
</g>
</g>
</svg>
