<?xml version="1.0" encoding="UTF-8" standalone="no"?>
<!DOCTYPE svg PUBLIC "-//W3C//DTD SVG 1.1//EN"
 "http://www.w3.org/Graphics/SVG/1.1/DTD/svg11.dtd">
<!-- Generated by graphviz version 2.38.0 (20140413.2041)
 -->
<!-- Title: Workflow Pages: 1 -->
<svg width="321pt" height="310pt"
 viewBox="0.00 0.00 321.00 310.00" xmlns="http://www.w3.org/2000/svg" xmlns:xlink="http://www.w3.org/1999/xlink">
<g id="graph0" class="graph" transform="scale(1 1) rotate(0) translate(4 306)">
<title>Workflow</title>
<polygon fill="white" stroke="none" points="-4,4 -4,-306 317,-306 317,4 -4,4"/>
<g id="clust1" class="cluster"><title>cluster_workflow_box_outer</title>
<polygon fill="none" stroke="black" stroke-width="2" points="8,-34 8,-268 305,-268 305,-34 8,-34"/>
</g>
<g id="clust2" class="cluster"><title>cluster_workflow_box_inner</title>
<polygon fill="none" stroke="black" stroke-width="0" points="16,-42 16,-260 297,-260 297,-42 16,-42"/>
</g>
<!-- get_prism_data -->
<g id="node1" class="node"><title>get_prism_data</title>
<polygon fill="#ccffcc" stroke="black" points="214,-169 98,-169 98,-133 214,-133 214,-169"/>
<text text-anchor="middle" x="156" y="-147.3" font-family="Helvetica,sans-Serif" font-size="14.00">get_prism_data</text>
</g>
<!-- prism_data -->
<g id="node2" class="node"><title>prism_data</title>
<path fill="#ffffcc" stroke="black" d="M87,-50.5C87,-50.5 225,-50.5 225,-50.5 231,-50.5 237,-56.5 237,-62.5 237,-62.5 237,-84.5 237,-84.5 237,-90.5 231,-96.5 225,-96.5 225,-96.5 87,-96.5 87,-96.5 81,-96.5 75,-90.5 75,-84.5 75,-84.5 75,-62.5 75,-62.5 75,-56.5 81,-50.5 87,-50.5"/>
<text text-anchor="middle" x="156" y="-81.3" font-family="Helvetica,sans-Serif" font-size="14.00">prism_data</text>
<polyline fill="none" stroke="black" points="75,-73.5 237,-73.5 "/>
<text text-anchor="middle" x="156" y="-58.3" font-family="Helvetica,sans-Serif" font-size="14.00">file:/data/{data_file}.csv</text>
</g>
<!-- get_prism_data&#45;&gt;prism_data -->
<g id="edge1" class="edge"><title>get_prism_data&#45;&gt;prism_data</title>
<path fill="none" stroke="black" d="M156,-132.868C156,-125.175 156,-115.835 156,-106.902"/>
<polygon fill="black" stroke="black" points="159.5,-106.727 156,-96.7266 152.5,-106.727 159.5,-106.727"/>
</g>
<!-- prism_data_output_port -->
<g id="node7" class="node"><title>prism_data_output_port</title>
<ellipse fill="#ffffff" stroke="black" cx="156" cy="-7" rx="7" ry="7"/>
</g>
<!-- prism_data&#45;&gt;prism_data_output_port -->
<g id="edge6" class="edge"><title>prism_data&#45;&gt;prism_data_output_port</title>
<path fill="none" stroke="black" d="M156,-50.3028C156,-41.6846 156,-32.0022 156,-24.0776"/>
<polygon fill="black" stroke="black" points="159.5,-24.0535 156,-14.0535 152.5,-24.0535 159.5,-24.0535"/>
</g>
<!-- coordinates -->
<g id="node3" class="node"><title>coordinates</title>
<path fill="#ffffcc" stroke="black" d="M103.5,-246.5C103.5,-246.5 36.5,-246.5 36.5,-246.5 30.5,-246.5 24.5,-240.5 24.5,-234.5 24.5,-234.5 24.5,-222.5 24.5,-222.5 24.5,-216.5 30.5,-210.5 36.5,-210.5 36.5,-210.5 103.5,-210.5 103.5,-210.5 109.5,-210.5 115.5,-216.5 115.5,-222.5 115.5,-222.5 115.5,-234.5 115.5,-234.5 115.5,-240.5 109.5,-246.5 103.5,-246.5"/>
<text text-anchor="middle" x="70" y="-224.8" font-family="Helvetica,sans-Serif" font-size="14.00">coordinates</text>
</g>
<!-- coordinates&#45;&gt;get_prism_data -->
<g id="edge2" class="edge"><title>coordinates&#45;&gt;get_prism_data</title>
<path fill="none" stroke="black" d="M89.5147,-210.368C101.17,-200.136 116.146,-186.988 128.933,-175.762"/>
<polygon fill="black" stroke="black" points="131.357,-178.292 136.562,-169.064 126.738,-173.032 131.357,-178.292"/>
</g>
<!-- netcdf_file -->
<g id="node4" class="node"><title>netcdf_file</title>
<path fill="#ffffcc" stroke="black" d="M145.5,-205.5C145.5,-205.5 276.5,-205.5 276.5,-205.5 282.5,-205.5 288.5,-211.5 288.5,-217.5 288.5,-217.5 288.5,-239.5 288.5,-239.5 288.5,-245.5 282.5,-251.5 276.5,-251.5 276.5,-251.5 145.5,-251.5 145.5,-251.5 139.5,-251.5 133.5,-245.5 133.5,-239.5 133.5,-239.5 133.5,-217.5 133.5,-217.5 133.5,-211.5 139.5,-205.5 145.5,-205.5"/>
<text text-anchor="middle" x="211" y="-236.3" font-family="Helvetica,sans-Serif" font-size="14.00">netcdf_file</text>
<polyline fill="none" stroke="black" points="133.5,-228.5 288.5,-228.5 "/>
<text text-anchor="middle" x="211" y="-213.3" font-family="Helvetica,sans-Serif" font-size="14.00">file:/data/{data_file}.nc</text>
</g>
<!-- netcdf_file&#45;&gt;get_prism_data -->
<g id="edge3" class="edge"><title>netcdf_file&#45;&gt;get_prism_data</title>
<path fill="none" stroke="black" d="M194.796,-205.256C188.456,-196.554 181.148,-186.521 174.595,-177.526"/>
<polygon fill="black" stroke="black" points="177.318,-175.319 168.601,-169.298 171.66,-179.441 177.318,-175.319"/>
</g>
<!-- coordinates_input_port -->
<g id="node5" class="node"><title>coordinates_input_port</title>
<ellipse fill="#ffffff" stroke="black" cx="70" cy="-295" rx="7" ry="7"/>
</g>
<!-- coordinates_input_port&#45;&gt;coordinates -->
<g id="edge4" class="edge"><title>coordinates_input_port&#45;&gt;coordinates</title>
<path fill="none" stroke="black" d="M70,-287.58C70,-280.358 70,-268.151 70,-256.786"/>
<polygon fill="black" stroke="black" points="73.5001,-256.753 70,-246.753 66.5001,-256.753 73.5001,-256.753"/>
</g>
<!-- netcdf_file_input_port -->
<g id="node6" class="node"><title>netcdf_file_input_port</title>
<ellipse fill="#ffffff" stroke="black" cx="211" cy="-295" rx="7" ry="7"/>
</g>
<!-- netcdf_file_input_port&#45;&gt;netcdf_file -->
<g id="edge5" class="edge"><title>netcdf_file_input_port&#45;&gt;netcdf_file</title>
<path fill="none" stroke="black" d="M211,-287.58C211,-281.384 211,-271.516 211,-261.66"/>
<polygon fill="black" stroke="black" points="214.5,-261.548 211,-251.548 207.5,-261.548 214.5,-261.548"/>
</g>
</g>
</svg>
