<?xml version="1.0" encoding="UTF-8" standalone="no"?>
<!DOCTYPE svg PUBLIC "-//W3C//DTD SVG 1.1//EN"
 "http://www.w3.org/Graphics/SVG/1.1/DTD/svg11.dtd">
<!-- Generated by graphviz version 2.38.0 (20140413.2041)
 -->
<!-- Title: Workflow Pages: 1 -->
<svg width="2674pt" height="1120pt"
 viewBox="0.00 0.00 2674.00 1120.00" xmlns="http://www.w3.org/2000/svg" xmlns:xlink="http://www.w3.org/1999/xlink">
<g id="graph0" class="graph" transform="scale(1 1) rotate(0) translate(4 1116)">
<title>Workflow</title>
<polygon fill="white" stroke="none" points="-4,4 -4,-1116 2670,-1116 2670,4 -4,4"/>
<g id="clust1" class="cluster"><title>cluster_workflow_box_outer</title>
<polygon fill="none" stroke="black" stroke-width="2" points="8,-62 8,-1104 2284,-1104 2284,-62 8,-62"/>
</g>
<g id="clust2" class="cluster"><title>cluster_workflow_box_inner</title>
<polygon fill="none" stroke="black" stroke-width="0" points="16,-70 16,-1096 2276,-1096 2276,-70 16,-70"/>
</g>
<g id="clust3" class="cluster"><title>cluster_input_ports_group_outer</title>
<polygon fill="none" stroke="black" stroke-width="0" points="2292,-969.5 2292,-1015.5 2658,-1015.5 2658,-969.5 2292,-969.5"/>
</g>
<g id="clust4" class="cluster"><title>cluster_input_ports_group_inner</title>
<polygon fill="none" stroke="black" stroke-width="0" points="2300,-977.5 2300,-1007.5 2650,-1007.5 2650,-977.5 2300,-977.5"/>
</g>
<g id="clust5" class="cluster"><title>cluster_output_ports_group_outer</title>
<polygon fill="none" stroke="black" stroke-width="0" points="1140,-8 1140,-54 1314,-54 1314,-8 1140,-8"/>
</g>
<g id="clust6" class="cluster"><title>cluster_output_ports_group_inner</title>
<polygon fill="none" stroke="black" stroke-width="0" points="1148,-16 1148,-46 1306,-46 1306,-16 1148,-16"/>
</g>
<!-- create_shapefile_dir -->
<g id="node1" class="node"><title>create_shapefile_dir</title>
<polygon fill="#ccffcc" stroke="black" points="1657,-969.5 1657,-1015.5 2109,-1015.5 2109,-969.5 1657,-969.5"/>
<text text-anchor="middle" x="1883" y="-1000.3" font-family="Helvetica,sans-Serif" font-size="14.00">create_shapefile_dir</text>
<polyline fill="none" stroke="black" points="1657,-992.5 2109,-992.5 "/>
<text text-anchor="middle" x="1883" y="-977.3" font-family="Helvetica,sans-Serif" font-size="14.00">create a direcorty for downloading the shapefiles for the study region.</text>
</g>
<!-- user_created_dir -->
<g id="node14" class="node"><title>user_created_dir</title>
<path fill="#ffffcc" stroke="black" d="M1714.5,-886.5C1714.5,-886.5 1827.5,-886.5 1827.5,-886.5 1833.5,-886.5 1839.5,-892.5 1839.5,-898.5 1839.5,-898.5 1839.5,-920.5 1839.5,-920.5 1839.5,-926.5 1833.5,-932.5 1827.5,-932.5 1827.5,-932.5 1714.5,-932.5 1714.5,-932.5 1708.5,-932.5 1702.5,-926.5 1702.5,-920.5 1702.5,-920.5 1702.5,-898.5 1702.5,-898.5 1702.5,-892.5 1708.5,-886.5 1714.5,-886.5"/>
<text text-anchor="middle" x="1771" y="-917.3" font-family="Helvetica,sans-Serif" font-size="14.00">user_created_dir</text>
<polyline fill="none" stroke="black" points="1702.5,-909.5 1839.5,-909.5 "/>
<text text-anchor="middle" x="1771" y="-894.3" font-family="Helvetica,sans-Serif" font-size="14.00">file:./{study_region}</text>
</g>
<!-- create_shapefile_dir&#45;&gt;user_created_dir -->
<g id="edge1" class="edge"><title>create_shapefile_dir&#45;&gt;user_created_dir</title>
<path fill="none" stroke="black" d="M1852.4,-969.366C1839.31,-959.902 1823.87,-948.739 1809.98,-938.693"/>
<polygon fill="black" stroke="black" points="1811.72,-935.631 1801.57,-932.607 1807.62,-941.303 1811.72,-935.631"/>
</g>
<!-- download_shapefile_archive -->
<g id="node2" class="node"><title>download_shapefile_archive</title>
<polygon fill="#ccffcc" stroke="black" points="1496,-803.5 1496,-849.5 2194,-849.5 2194,-803.5 1496,-803.5"/>
<text text-anchor="middle" x="1845" y="-834.3" font-family="Helvetica,sans-Serif" font-size="14.00">download_shapefile_archive</text>
<polyline fill="none" stroke="black" points="1496,-826.5 2194,-826.5 "/>
<text text-anchor="middle" x="1845" y="-811.3" font-family="Helvetica,sans-Serif" font-size="14.00">download the zip file of the region which contains the boundary, tracts, metadata.xml and nps_tracts.xml files.</text>
</g>
<!-- compressed_shapefile -->
<g id="node15" class="node"><title>compressed_shapefile</title>
<path fill="#ffffcc" stroke="black" d="M1609,-720.5C1609,-720.5 1881,-720.5 1881,-720.5 1887,-720.5 1893,-726.5 1893,-732.5 1893,-732.5 1893,-754.5 1893,-754.5 1893,-760.5 1887,-766.5 1881,-766.5 1881,-766.5 1609,-766.5 1609,-766.5 1603,-766.5 1597,-760.5 1597,-754.5 1597,-754.5 1597,-732.5 1597,-732.5 1597,-726.5 1603,-720.5 1609,-720.5"/>
<text text-anchor="middle" x="1745" y="-751.3" font-family="Helvetica,sans-Serif" font-size="14.00">compressed_shapefile</text>
<polyline fill="none" stroke="black" points="1597,-743.5 1893,-743.5 "/>
<text text-anchor="middle" x="1745" y="-728.3" font-family="Helvetica,sans-Serif" font-size="14.00">file:./{study_region}/{study_region}_tracts.zip</text>
</g>
<!-- download_shapefile_archive&#45;&gt;compressed_shapefile -->
<g id="edge3" class="edge"><title>download_shapefile_archive&#45;&gt;compressed_shapefile</title>
<path fill="none" stroke="black" d="M1817.67,-803.366C1806.1,-793.991 1792.47,-782.949 1780.16,-772.977"/>
<polygon fill="black" stroke="black" points="1782.27,-770.181 1772.29,-766.607 1777.86,-775.621 1782.27,-770.181"/>
</g>
<!-- uncompress_shapefile -->
<g id="node3" class="node"><title>uncompress_shapefile</title>
<polygon fill="#ccffcc" stroke="black" points="1275,-637.5 1275,-683.5 1679,-683.5 1679,-637.5 1275,-637.5"/>
<text text-anchor="middle" x="1477" y="-668.3" font-family="Helvetica,sans-Serif" font-size="14.00">uncompress_shapefile</text>
<polyline fill="none" stroke="black" points="1275,-660.5 1679,-660.5 "/>
<text text-anchor="middle" x="1477" y="-645.3" font-family="Helvetica,sans-Serif" font-size="14.00">create a directory as the archive filename and extract the files.</text>
</g>
<!-- tracts_files -->
<g id="node9" class="node"><title>tracts_files</title>
<path fill="#ffffcc" stroke="black" d="M36,-554.5C36,-554.5 532,-554.5 532,-554.5 538,-554.5 544,-560.5 544,-566.5 544,-566.5 544,-588.5 544,-588.5 544,-594.5 538,-600.5 532,-600.5 532,-600.5 36,-600.5 36,-600.5 30,-600.5 24,-594.5 24,-588.5 24,-588.5 24,-566.5 24,-566.5 24,-560.5 30,-554.5 36,-554.5"/>
<text text-anchor="middle" x="284" y="-585.3" font-family="Helvetica,sans-Serif" font-size="14.00">tracts_files</text>
<polyline fill="none" stroke="black" points="24,-577.5 544,-577.5 "/>
<text text-anchor="middle" x="284" y="-562.3" font-family="Helvetica,sans-Serif" font-size="14.00">file:./{study_region}/{study_region}_tracts/{study_region}_tracts.{file_extensions}</text>
</g>
<!-- uncompress_shapefile&#45;&gt;tracts_files -->
<g id="edge8" class="edge"><title>uncompress_shapefile&#45;&gt;tracts_files</title>
<path fill="none" stroke="black" d="M1274.59,-647.865C1089.8,-636.967 808.799,-619.703 554.369,-601.094"/>
<polygon fill="black" stroke="black" points="554.415,-597.588 544.186,-600.348 553.903,-604.57 554.415,-597.588"/>
</g>
<!-- metadata_file -->
<g id="node10" class="node"><title>metadata_file</title>
<path fill="#ffffcc" stroke="black" d="M574.5,-554.5C574.5,-554.5 1011.5,-554.5 1011.5,-554.5 1017.5,-554.5 1023.5,-560.5 1023.5,-566.5 1023.5,-566.5 1023.5,-588.5 1023.5,-588.5 1023.5,-594.5 1017.5,-600.5 1011.5,-600.5 1011.5,-600.5 574.5,-600.5 574.5,-600.5 568.5,-600.5 562.5,-594.5 562.5,-588.5 562.5,-588.5 562.5,-566.5 562.5,-566.5 562.5,-560.5 568.5,-554.5 574.5,-554.5"/>
<text text-anchor="middle" x="793" y="-585.3" font-family="Helvetica,sans-Serif" font-size="14.00">metadata_file</text>
<polyline fill="none" stroke="black" points="562.5,-577.5 1023.5,-577.5 "/>
<text text-anchor="middle" x="793" y="-562.3" font-family="Helvetica,sans-Serif" font-size="14.00">file:./{study_region}/{study_region}_tracts/{study_region}_metadata.xml</text>
</g>
<!-- uncompress_shapefile&#45;&gt;metadata_file -->
<g id="edge9" class="edge"><title>uncompress_shapefile&#45;&gt;metadata_file</title>
<path fill="none" stroke="black" d="M1291,-637.473C1197.39,-626.388 1083.94,-612.953 988.976,-601.708"/>
<polygon fill="black" stroke="black" points="989.308,-598.223 978.965,-600.522 988.484,-605.174 989.308,-598.223"/>
</g>
<!-- tracts_xml -->
<g id="node11" class="node"><title>tracts_xml</title>
<path fill="#ffffcc" stroke="black" d="M1054,-554.5C1054,-554.5 1400,-554.5 1400,-554.5 1406,-554.5 1412,-560.5 1412,-566.5 1412,-566.5 1412,-588.5 1412,-588.5 1412,-594.5 1406,-600.5 1400,-600.5 1400,-600.5 1054,-600.5 1054,-600.5 1048,-600.5 1042,-594.5 1042,-588.5 1042,-588.5 1042,-566.5 1042,-566.5 1042,-560.5 1048,-554.5 1054,-554.5"/>
<text text-anchor="middle" x="1227" y="-585.3" font-family="Helvetica,sans-Serif" font-size="14.00">tracts_xml</text>
<polyline fill="none" stroke="black" points="1042,-577.5 1412,-577.5 "/>
<text text-anchor="middle" x="1227" y="-562.3" font-family="Helvetica,sans-Serif" font-size="14.00">file:./{study_region}/{study_region}_tracts/nps_tracts.xml</text>
</g>
<!-- uncompress_shapefile&#45;&gt;tracts_xml -->
<g id="edge10" class="edge"><title>uncompress_shapefile&#45;&gt;tracts_xml</title>
<path fill="none" stroke="black" d="M1409.02,-637.473C1376.77,-627.027 1338.09,-614.494 1304.69,-603.673"/>
<polygon fill="black" stroke="black" points="1305.56,-600.275 1294.97,-600.522 1303.4,-606.934 1305.56,-600.275"/>
</g>
<!-- layer_boundary -->
<g id="node16" class="node"><title>layer_boundary</title>
<path fill="#ffffcc" stroke="black" d="M1442,-554.5C1442,-554.5 1962,-554.5 1962,-554.5 1968,-554.5 1974,-560.5 1974,-566.5 1974,-566.5 1974,-588.5 1974,-588.5 1974,-594.5 1968,-600.5 1962,-600.5 1962,-600.5 1442,-600.5 1442,-600.5 1436,-600.5 1430,-594.5 1430,-588.5 1430,-588.5 1430,-566.5 1430,-566.5 1430,-560.5 1436,-554.5 1442,-554.5"/>
<text text-anchor="middle" x="1702" y="-585.3" font-family="Helvetica,sans-Serif" font-size="14.00">layer_boundary</text>
<polyline fill="none" stroke="black" points="1430,-577.5 1974,-577.5 "/>
<text text-anchor="middle" x="1702" y="-562.3" font-family="Helvetica,sans-Serif" font-size="14.00">file:./{study_region}/{study_region}_tracts/{study_region}_boundary.{file_extensions}</text>
</g>
<!-- uncompress_shapefile&#45;&gt;layer_boundary -->
<g id="edge7" class="edge"><title>uncompress_shapefile&#45;&gt;layer_boundary</title>
<path fill="none" stroke="black" d="M1538.19,-637.473C1566.95,-627.117 1601.42,-614.709 1631.3,-603.952"/>
<polygon fill="black" stroke="black" points="1632.6,-607.203 1640.83,-600.522 1630.23,-600.616 1632.6,-607.203"/>
</g>
<!-- shapefiles_dir -->
<g id="node17" class="node"><title>shapefiles_dir</title>
<path fill="#ffffcc" stroke="black" d="M2004.5,-554.5C2004.5,-554.5 2255.5,-554.5 2255.5,-554.5 2261.5,-554.5 2267.5,-560.5 2267.5,-566.5 2267.5,-566.5 2267.5,-588.5 2267.5,-588.5 2267.5,-594.5 2261.5,-600.5 2255.5,-600.5 2255.5,-600.5 2004.5,-600.5 2004.5,-600.5 1998.5,-600.5 1992.5,-594.5 1992.5,-588.5 1992.5,-588.5 1992.5,-566.5 1992.5,-566.5 1992.5,-560.5 1998.5,-554.5 2004.5,-554.5"/>
<text text-anchor="middle" x="2130" y="-585.3" font-family="Helvetica,sans-Serif" font-size="14.00">shapefiles_dir</text>
<polyline fill="none" stroke="black" points="1992.5,-577.5 2267.5,-577.5 "/>
<text text-anchor="middle" x="2130" y="-562.3" font-family="Helvetica,sans-Serif" font-size="14.00">file:./{study_region}/{study_region}_tracts</text>
</g>
<!-- uncompress_shapefile&#45;&gt;shapefiles_dir -->
<g id="edge6" class="edge"><title>uncompress_shapefile&#45;&gt;shapefiles_dir</title>
<path fill="none" stroke="black" d="M1679.12,-637.855C1769.01,-627.8 1876.36,-615.207 1982.38,-601.062"/>
<polygon fill="black" stroke="black" points="1982.86,-604.529 1992.31,-599.733 1981.93,-597.591 1982.86,-604.529"/>
</g>
<!-- read_shapefile -->
<g id="node4" class="node"><title>read_shapefile</title>
<polygon fill="#ccffcc" stroke="black" points="1774,-471.5 1774,-517.5 2226,-517.5 2226,-471.5 1774,-471.5"/>
<text text-anchor="middle" x="2000" y="-502.3" font-family="Helvetica,sans-Serif" font-size="14.00">read_shapefile</text>
<polyline fill="none" stroke="black" points="1774,-494.5 2226,-494.5 "/>
<text text-anchor="middle" x="2000" y="-479.3" font-family="Helvetica,sans-Serif" font-size="14.00">read the shapefile for the region and save it as a spatial vector object.</text>
</g>
<!-- spatial_dataframe -->
<g id="node19" class="node"><title>spatial_dataframe</title>
<path fill="#ffffcc" stroke="black" d="M2052.5,-435C2052.5,-435 1947.5,-435 1947.5,-435 1941.5,-435 1935.5,-429 1935.5,-423 1935.5,-423 1935.5,-411 1935.5,-411 1935.5,-405 1941.5,-399 1947.5,-399 1947.5,-399 2052.5,-399 2052.5,-399 2058.5,-399 2064.5,-405 2064.5,-411 2064.5,-411 2064.5,-423 2064.5,-423 2064.5,-429 2058.5,-435 2052.5,-435"/>
<text text-anchor="middle" x="2000" y="-413.3" font-family="Helvetica,sans-Serif" font-size="14.00">spatial_dataframe</text>
</g>
<!-- read_shapefile&#45;&gt;spatial_dataframe -->
<g id="edge13" class="edge"><title>read_shapefile&#45;&gt;spatial_dataframe</title>
<path fill="none" stroke="black" d="M2000,-471.256C2000,-463.182 2000,-453.962 2000,-445.489"/>
<polygon fill="black" stroke="black" points="2003.5,-445.298 2000,-435.298 1996.5,-445.298 2003.5,-445.298"/>
</g>
<!-- get_treepolygon -->
<g id="node5" class="node"><title>get_treepolygon</title>
<polygon fill="#ccffcc" stroke="black" points="1815.5,-316.5 1815.5,-362.5 2240.5,-362.5 2240.5,-316.5 1815.5,-316.5"/>
<text text-anchor="middle" x="2028" y="-347.3" font-family="Helvetica,sans-Serif" font-size="14.00">get_treepolygon</text>
<polyline fill="none" stroke="black" points="1815.5,-339.5 2240.5,-339.5 "/>
<text text-anchor="middle" x="2028" y="-324.3" font-family="Helvetica,sans-Serif" font-size="14.00">Get Tree&#45;ring data from the ITRDB for tree_buffer around GRCA</text>
</g>
<!-- treepolygon -->
<g id="node20" class="node"><title>treepolygon</title>
<path fill="#ffffcc" stroke="black" d="M1422,-280C1422,-280 1354,-280 1354,-280 1348,-280 1342,-274 1342,-268 1342,-268 1342,-256 1342,-256 1342,-250 1348,-244 1354,-244 1354,-244 1422,-244 1422,-244 1428,-244 1434,-250 1434,-256 1434,-256 1434,-268 1434,-268 1434,-274 1428,-280 1422,-280"/>
<text text-anchor="middle" x="1388" y="-258.3" font-family="Helvetica,sans-Serif" font-size="14.00">treepolygon</text>
</g>
<!-- get_treepolygon&#45;&gt;treepolygon -->
<g id="edge16" class="edge"><title>get_treepolygon&#45;&gt;treepolygon</title>
<path fill="none" stroke="black" d="M1815.27,-327.502C1706.46,-319.361 1572.07,-305.435 1444.03,-279.977"/>
<polygon fill="black" stroke="black" points="1444.53,-276.508 1434.04,-277.964 1443.15,-283.37 1444.53,-276.508"/>
</g>
<!-- extract_tree_ring_data -->
<g id="node6" class="node"><title>extract_tree_ring_data</title>
<polygon fill="#ccffcc" stroke="black" points="1492,-161.5 1492,-207.5 2020,-207.5 2020,-161.5 1492,-161.5"/>
<text text-anchor="middle" x="1756" y="-192.3" font-family="Helvetica,sans-Serif" font-size="14.00">extract_tree_ring_data</text>
<polyline fill="none" stroke="black" points="1492,-184.5 2020,-184.5 "/>
<text text-anchor="middle" x="1756" y="-169.3" font-family="Helvetica,sans-Serif" font-size="14.00">download all the tree ring chronologies and extract the values for the study region.</text>
</g>
<!-- itrdb -->
<g id="node7" class="node"><title>itrdb</title>
<path fill="#ffffcc" stroke="black" d="M1284,-78.5C1284,-78.5 1646,-78.5 1646,-78.5 1652,-78.5 1658,-84.5 1658,-90.5 1658,-90.5 1658,-112.5 1658,-112.5 1658,-118.5 1652,-124.5 1646,-124.5 1646,-124.5 1284,-124.5 1284,-124.5 1278,-124.5 1272,-118.5 1272,-112.5 1272,-112.5 1272,-90.5 1272,-90.5 1272,-84.5 1278,-78.5 1284,-78.5"/>
<text text-anchor="middle" x="1465" y="-109.3" font-family="Helvetica,sans-Serif" font-size="14.00">itrdb</text>
<polyline fill="none" stroke="black" points="1272,-101.5 1658,-101.5 "/>
<text text-anchor="middle" x="1465" y="-86.3" font-family="Helvetica,sans-Serif" font-size="14.00">file:./{region_name}/{raw.dir}/ITRDB/itrdb&#45;v705&#45;{var}&#45;crn.zip</text>
</g>
<!-- extract_tree_ring_data&#45;&gt;itrdb -->
<g id="edge20" class="edge"><title>extract_tree_ring_data&#45;&gt;itrdb</title>
<path fill="none" stroke="black" d="M1676.87,-161.473C1638.85,-150.893 1593.15,-138.171 1553.94,-127.256"/>
<polygon fill="black" stroke="black" points="1554.69,-123.832 1544.12,-124.522 1552.81,-130.576 1554.69,-123.832"/>
</g>
<!-- selected_itrdb -->
<g id="node8" class="node"><title>selected_itrdb</title>
<path fill="#ffffcc" stroke="black" d="M1696.5,-78.5C1696.5,-78.5 1807.5,-78.5 1807.5,-78.5 1813.5,-78.5 1819.5,-84.5 1819.5,-90.5 1819.5,-90.5 1819.5,-112.5 1819.5,-112.5 1819.5,-118.5 1813.5,-124.5 1807.5,-124.5 1807.5,-124.5 1696.5,-124.5 1696.5,-124.5 1690.5,-124.5 1684.5,-118.5 1684.5,-112.5 1684.5,-112.5 1684.5,-90.5 1684.5,-90.5 1684.5,-84.5 1690.5,-78.5 1696.5,-78.5"/>
<text text-anchor="middle" x="1752" y="-109.3" font-family="Helvetica,sans-Serif" font-size="14.00">selected_itrdb</text>
<polyline fill="none" stroke="black" points="1684.5,-101.5 1819.5,-101.5 "/>
<text text-anchor="middle" x="1752" y="-86.3" font-family="Helvetica,sans-Serif" font-size="14.00">file:./data/itrdb.Rda</text>
</g>
<!-- extract_tree_ring_data&#45;&gt;selected_itrdb -->
<g id="edge21" class="edge"><title>extract_tree_ring_data&#45;&gt;selected_itrdb</title>
<path fill="none" stroke="black" d="M1754.91,-161.366C1754.5,-153.152 1754.03,-143.658 1753.59,-134.725"/>
<polygon fill="black" stroke="black" points="1757.08,-134.422 1753.09,-124.607 1750.09,-134.767 1757.08,-134.422"/>
</g>
<!-- itrdb_output_port -->
<g id="node40" class="node"><title>itrdb_output_port</title>
<ellipse fill="#ffffff" stroke="black" cx="1259" cy="-31" rx="7" ry="7"/>
</g>
<!-- itrdb&#45;&gt;itrdb_output_port -->
<g id="edge41" class="edge"><title>itrdb&#45;&gt;itrdb_output_port</title>
<path fill="none" stroke="black" d="M1325.24,-78.42C1307.49,-72.1943 1290.23,-64.218 1275,-54 1271.94,-51.9474 1269.26,-49.1033 1267.01,-46.1405"/>
<polygon fill="black" stroke="black" points="1269.91,-44.167 1261.62,-37.569 1263.98,-47.8964 1269.91,-44.167"/>
</g>
<!-- selected_itrdb_output_port -->
<g id="node41" class="node"><title>selected_itrdb_output_port</title>
<ellipse fill="#ffffff" stroke="black" cx="1291" cy="-31" rx="7" ry="7"/>
</g>
<!-- selected_itrdb&#45;&gt;selected_itrdb_output_port -->
<g id="edge42" class="edge"><title>selected_itrdb&#45;&gt;selected_itrdb_output_port</title>
<path fill="none" stroke="black" d="M1710.68,-78.3301C1697.12,-72.0049 1681.75,-65.8037 1667,-62 1597.75,-44.1361 1372.95,-34.9164 1308.45,-32.5947"/>
<polygon fill="black" stroke="black" points="1308.18,-29.0831 1298.06,-32.2313 1307.93,-36.0788 1308.18,-29.0831"/>
</g>
<!-- tracts_files_output_port -->
<g id="node42" class="node"><title>tracts_files_output_port</title>
<ellipse fill="#ffffff" stroke="black" cx="1163" cy="-31" rx="7" ry="7"/>
</g>
<!-- tracts_files&#45;&gt;tracts_files_output_port -->
<g id="edge43" class="edge"><title>tracts_files&#45;&gt;tracts_files_output_port</title>
<path fill="none" stroke="black" d="M375.244,-554.45C441.654,-532.326 520,-490.799 520,-418 520,-418 520,-418 520,-183.5 520,-51.1152 1042.91,-34.2933 1145.61,-32.2661"/>
<polygon fill="black" stroke="black" points="1145.84,-35.7627 1155.78,-32.0886 1145.72,-28.7638 1145.84,-35.7627"/>
</g>
<!-- metadata_file_output_port -->
<g id="node43" class="node"><title>metadata_file_output_port</title>
<ellipse fill="#ffffff" stroke="black" cx="1195" cy="-31" rx="7" ry="7"/>
</g>
<!-- metadata_file&#45;&gt;metadata_file_output_port -->
<g id="edge44" class="edge"><title>metadata_file&#45;&gt;metadata_file_output_port</title>
<path fill="none" stroke="black" d="M859.758,-554.397C917.239,-530.662 991,-486.801 991,-418 991,-418 991,-418 991,-183.5 991,-82.0398 1106.34,-124.819 1179,-54 1181.49,-51.573 1183.87,-48.7223 1186,-45.8924"/>
<polygon fill="black" stroke="black" points="1189.01,-47.6911 1191.77,-37.4617 1183.23,-43.7381 1189.01,-47.6911"/>
</g>
<!-- tracts_xml_output_port -->
<g id="node44" class="node"><title>tracts_xml_output_port</title>
<ellipse fill="#ffffff" stroke="black" cx="1227" cy="-31" rx="7" ry="7"/>
</g>
<!-- tracts_xml&#45;&gt;tracts_xml_output_port -->
<g id="edge45" class="edge"><title>tracts_xml&#45;&gt;tracts_xml_output_port</title>
<path fill="none" stroke="black" d="M1227,-554.449C1227,-523.83 1227,-466.706 1227,-418 1227,-418 1227,-418 1227,-183.5 1227,-134.24 1227,-75.9708 1227,-48.2389"/>
<polygon fill="black" stroke="black" points="1230.5,-48.0617 1227,-38.0617 1223.5,-48.0618 1230.5,-48.0617"/>
</g>
<!-- study_region -->
<g id="node12" class="node"><title>study_region</title>
<path fill="#ffffcc" stroke="black" d="M2144,-1088C2144,-1088 2070,-1088 2070,-1088 2064,-1088 2058,-1082 2058,-1076 2058,-1076 2058,-1064 2058,-1064 2058,-1058 2064,-1052 2070,-1052 2070,-1052 2144,-1052 2144,-1052 2150,-1052 2156,-1058 2156,-1064 2156,-1064 2156,-1076 2156,-1076 2156,-1082 2150,-1088 2144,-1088"/>
<text text-anchor="middle" x="2107" y="-1066.3" font-family="Helvetica,sans-Serif" font-size="14.00">study_region</text>
</g>
<!-- study_region&#45;&gt;create_shapefile_dir -->
<g id="edge2" class="edge"><title>study_region&#45;&gt;create_shapefile_dir</title>
<path fill="none" stroke="black" d="M2057.84,-1052.43C2028.66,-1042.59 1991.05,-1029.92 1958.2,-1018.85"/>
<polygon fill="black" stroke="black" points="1959.22,-1015.5 1948.62,-1015.62 1956.98,-1022.13 1959.22,-1015.5"/>
</g>
<!-- shapefile_archive -->
<g id="node13" class="node"><title>shapefile_archive</title>
<path fill="#ffffcc" stroke="black" d="M1870,-886.5C1870,-886.5 2256,-886.5 2256,-886.5 2262,-886.5 2268,-892.5 2268,-898.5 2268,-898.5 2268,-920.5 2268,-920.5 2268,-926.5 2262,-932.5 2256,-932.5 2256,-932.5 1870,-932.5 1870,-932.5 1864,-932.5 1858,-926.5 1858,-920.5 1858,-920.5 1858,-898.5 1858,-898.5 1858,-892.5 1864,-886.5 1870,-886.5"/>
<text text-anchor="middle" x="2063" y="-917.3" font-family="Helvetica,sans-Serif" font-size="14.00">shapefile_archive</text>
<polyline fill="none" stroke="black" points="1858,-909.5 2268,-909.5 "/>
<text text-anchor="middle" x="2063" y="-894.3" font-family="Helvetica,sans-Serif" font-size="14.00">http://nrdata.nps.gov/programs/Lands/{study_region}_tracts.zip</text>
</g>
<!-- shapefile_archive&#45;&gt;download_shapefile_archive -->
<g id="edge4" class="edge"><title>shapefile_archive&#45;&gt;download_shapefile_archive</title>
<path fill="none" stroke="black" d="M2003.72,-886.473C1975.97,-876.162 1942.74,-863.816 1913.88,-853.092"/>
<polygon fill="black" stroke="black" points="1914.86,-849.724 1904.27,-849.522 1912.42,-856.286 1914.86,-849.724"/>
</g>
<!-- user_created_dir&#45;&gt;download_shapefile_archive -->
<g id="edge5" class="edge"><title>user_created_dir&#45;&gt;download_shapefile_archive</title>
<path fill="none" stroke="black" d="M1791.22,-886.366C1799.46,-877.348 1809.11,-866.788 1817.94,-857.121"/>
<polygon fill="black" stroke="black" points="1820.64,-859.35 1824.8,-849.607 1815.47,-854.629 1820.64,-859.35"/>
</g>
<!-- user_created_dir&#45;&gt;uncompress_shapefile -->
<g id="edge12" class="edge"><title>user_created_dir&#45;&gt;uncompress_shapefile</title>
<path fill="none" stroke="black" d="M1702.17,-903.79C1627.25,-897.099 1514.45,-881.916 1487,-850 1449.67,-806.595 1458.63,-734.65 1468.09,-693.329"/>
<polygon fill="black" stroke="black" points="1471.51,-694.064 1470.48,-683.519 1464.71,-692.408 1471.51,-694.064"/>
</g>
<!-- compressed_shapefile&#45;&gt;uncompress_shapefile -->
<g id="edge11" class="edge"><title>compressed_shapefile&#45;&gt;uncompress_shapefile</title>
<path fill="none" stroke="black" d="M1672.12,-720.473C1637.41,-709.982 1595.73,-697.386 1559.83,-686.534"/>
<polygon fill="black" stroke="black" points="1560.45,-683.065 1549.86,-683.522 1558.42,-689.766 1560.45,-683.065"/>
</g>
<!-- layer_boundary&#45;&gt;read_shapefile -->
<g id="edge14" class="edge"><title>layer_boundary&#45;&gt;read_shapefile</title>
<path fill="none" stroke="black" d="M1783.04,-554.473C1822.05,-543.87 1868.97,-531.117 1909.18,-520.187"/>
<polygon fill="black" stroke="black" points="1910.25,-523.523 1918.98,-517.522 1908.41,-516.768 1910.25,-523.523"/>
</g>
<!-- shapefiles_dir&#45;&gt;read_shapefile -->
<g id="edge15" class="edge"><title>shapefiles_dir&#45;&gt;read_shapefile</title>
<path fill="none" stroke="black" d="M2094.48,-554.366C2079,-544.723 2060.69,-533.317 2044.34,-523.125"/>
<polygon fill="black" stroke="black" points="2045.82,-519.925 2035.48,-517.607 2042.12,-525.866 2045.82,-519.925"/>
</g>
<!-- tree_buffer -->
<g id="node18" class="node"><title>tree_buffer</title>
<path fill="#ffffcc" stroke="black" d="M2157.5,-435C2157.5,-435 2094.5,-435 2094.5,-435 2088.5,-435 2082.5,-429 2082.5,-423 2082.5,-423 2082.5,-411 2082.5,-411 2082.5,-405 2088.5,-399 2094.5,-399 2094.5,-399 2157.5,-399 2157.5,-399 2163.5,-399 2169.5,-405 2169.5,-411 2169.5,-411 2169.5,-423 2169.5,-423 2169.5,-429 2163.5,-435 2157.5,-435"/>
<text text-anchor="middle" x="2126" y="-413.3" font-family="Helvetica,sans-Serif" font-size="14.00">tree_buffer</text>
</g>
<!-- tree_buffer&#45;&gt;get_treepolygon -->
<g id="edge17" class="edge"><title>tree_buffer&#45;&gt;get_treepolygon</title>
<path fill="none" stroke="black" d="M2103.76,-398.868C2092.26,-390.005 2077.91,-378.954 2064.81,-368.86"/>
<polygon fill="black" stroke="black" points="2066.91,-366.057 2056.85,-362.727 2062.64,-371.602 2066.91,-366.057"/>
</g>
<!-- spatial_dataframe&#45;&gt;get_treepolygon -->
<g id="edge18" class="edge"><title>spatial_dataframe&#45;&gt;get_treepolygon</title>
<path fill="none" stroke="black" d="M2006.35,-398.868C2009.27,-391.008 2012.82,-381.428 2016.2,-372.32"/>
<polygon fill="black" stroke="black" points="2019.56,-373.32 2019.76,-362.727 2013,-370.886 2019.56,-373.32"/>
</g>
<!-- treepolygon&#45;&gt;extract_tree_ring_data -->
<g id="edge22" class="edge"><title>treepolygon&#45;&gt;extract_tree_ring_data</title>
<path fill="none" stroke="black" d="M1434.11,-246.327C1437.11,-245.504 1440.09,-244.719 1443,-244 1496.82,-230.699 1556.51,-218.842 1609.21,-209.338"/>
<polygon fill="black" stroke="black" points="1610.08,-212.738 1619.3,-207.53 1608.84,-205.848 1610.08,-212.738"/>
</g>
<!-- prediction_years -->
<g id="node21" class="node"><title>prediction_years</title>
<path fill="#ffffcc" stroke="black" d="M1562,-280C1562,-280 1464,-280 1464,-280 1458,-280 1452,-274 1452,-268 1452,-268 1452,-256 1452,-256 1452,-250 1458,-244 1464,-244 1464,-244 1562,-244 1562,-244 1568,-244 1574,-250 1574,-256 1574,-256 1574,-268 1574,-268 1574,-274 1568,-280 1562,-280"/>
<text text-anchor="middle" x="1513" y="-258.3" font-family="Helvetica,sans-Serif" font-size="14.00">prediction_years</text>
</g>
<!-- prediction_years&#45;&gt;extract_tree_ring_data -->
<g id="edge26" class="edge"><title>prediction_years&#45;&gt;extract_tree_ring_data</title>
<path fill="none" stroke="black" d="M1567.84,-243.962C1599.44,-234.143 1639.76,-221.616 1674.96,-210.678"/>
<polygon fill="black" stroke="black" points="1676.23,-213.948 1684.75,-207.639 1674.16,-207.263 1676.23,-213.948"/>
</g>
<!-- quadsegs -->
<g id="node22" class="node"><title>quadsegs</title>
<path fill="#fcfcfc" stroke="black" d="M2256,-435C2256,-435 2200,-435 2200,-435 2194,-435 2188,-429 2188,-423 2188,-423 2188,-411 2188,-411 2188,-405 2194,-399 2200,-399 2200,-399 2256,-399 2256,-399 2262,-399 2268,-405 2268,-411 2268,-411 2268,-423 2268,-423 2268,-429 2262,-435 2256,-435"/>
<text text-anchor="middle" x="2228" y="-413.3" font-family="Helvetica,sans-Serif" font-size="14.00">quadsegs</text>
</g>
<!-- quadsegs&#45;&gt;get_treepolygon -->
<g id="edge19" class="edge"><title>quadsegs&#45;&gt;get_treepolygon</title>
<path fill="none" stroke="black" d="M2187.53,-400.721C2161.37,-390.846 2126.66,-377.744 2096.3,-366.284"/>
<polygon fill="black" stroke="black" points="2097.2,-362.884 2086.61,-362.626 2094.73,-369.433 2097.2,-362.884"/>
</g>
<!-- label -->
<g id="node23" class="node"><title>label</title>
<path fill="#fcfcfc" stroke="black" d="M1776,-280C1776,-280 1746,-280 1746,-280 1740,-280 1734,-274 1734,-268 1734,-268 1734,-256 1734,-256 1734,-250 1740,-244 1746,-244 1746,-244 1776,-244 1776,-244 1782,-244 1788,-250 1788,-256 1788,-256 1788,-268 1788,-268 1788,-274 1782,-280 1776,-280"/>
<text text-anchor="middle" x="1761" y="-258.3" font-family="Helvetica,sans-Serif" font-size="14.00">label</text>
</g>
<!-- label&#45;&gt;extract_tree_ring_data -->
<g id="edge23" class="edge"><title>label&#45;&gt;extract_tree_ring_data</title>
<path fill="none" stroke="black" d="M1759.87,-243.868C1759.36,-236.175 1758.74,-226.835 1758.15,-217.902"/>
<polygon fill="black" stroke="black" points="1761.63,-217.473 1757.47,-207.727 1754.64,-217.936 1761.63,-217.473"/>
</g>
<!-- raw_dir -->
<g id="node24" class="node"><title>raw_dir</title>
<path fill="#fcfcfc" stroke="black" d="M1856,-280C1856,-280 1818,-280 1818,-280 1812,-280 1806,-274 1806,-268 1806,-268 1806,-256 1806,-256 1806,-250 1812,-244 1818,-244 1818,-244 1856,-244 1856,-244 1862,-244 1868,-250 1868,-256 1868,-256 1868,-268 1868,-268 1868,-274 1862,-280 1856,-280"/>
<text text-anchor="middle" x="1837" y="-258.3" font-family="Helvetica,sans-Serif" font-size="14.00">raw_dir</text>
</g>
<!-- raw_dir&#45;&gt;extract_tree_ring_data -->
<g id="edge24" class="edge"><title>raw_dir&#45;&gt;extract_tree_ring_data</title>
<path fill="none" stroke="black" d="M1818.62,-243.868C1809.38,-235.256 1797.92,-224.578 1787.35,-214.719"/>
<polygon fill="black" stroke="black" points="1789.55,-211.985 1779.85,-207.727 1784.77,-217.105 1789.55,-211.985"/>
</g>
<!-- extract_dir -->
<g id="node25" class="node"><title>extract_dir</title>
<path fill="#fcfcfc" stroke="black" d="M1957.5,-280C1957.5,-280 1898.5,-280 1898.5,-280 1892.5,-280 1886.5,-274 1886.5,-268 1886.5,-268 1886.5,-256 1886.5,-256 1886.5,-250 1892.5,-244 1898.5,-244 1898.5,-244 1957.5,-244 1957.5,-244 1963.5,-244 1969.5,-250 1969.5,-256 1969.5,-256 1969.5,-268 1969.5,-268 1969.5,-274 1963.5,-280 1957.5,-280"/>
<text text-anchor="middle" x="1928" y="-258.3" font-family="Helvetica,sans-Serif" font-size="14.00">extract_dir</text>
</g>
<!-- extract_dir&#45;&gt;extract_tree_ring_data -->
<g id="edge25" class="edge"><title>extract_dir&#45;&gt;extract_tree_ring_data</title>
<path fill="none" stroke="black" d="M1888.97,-243.868C1867.36,-234.381 1840.04,-222.388 1815.79,-211.744"/>
<polygon fill="black" stroke="black" points="1816.88,-208.401 1806.31,-207.586 1814.06,-214.81 1816.88,-208.401"/>
</g>
<!-- calibration_years -->
<g id="node26" class="node"><title>calibration_years</title>
<path fill="#fcfcfc" stroke="black" d="M1703.5,-280C1703.5,-280 1604.5,-280 1604.5,-280 1598.5,-280 1592.5,-274 1592.5,-268 1592.5,-268 1592.5,-256 1592.5,-256 1592.5,-250 1598.5,-244 1604.5,-244 1604.5,-244 1703.5,-244 1703.5,-244 1709.5,-244 1715.5,-250 1715.5,-256 1715.5,-256 1715.5,-268 1715.5,-268 1715.5,-274 1709.5,-280 1703.5,-280"/>
<text text-anchor="middle" x="1654" y="-258.3" font-family="Helvetica,sans-Serif" font-size="14.00">calibration_years</text>
</g>
<!-- calibration_years&#45;&gt;extract_tree_ring_data -->
<g id="edge27" class="edge"><title>calibration_years&#45;&gt;extract_tree_ring_data</title>
<path fill="none" stroke="black" d="M1677.15,-243.868C1689.12,-235.005 1704.05,-223.954 1717.69,-213.86"/>
<polygon fill="black" stroke="black" points="1720.02,-216.489 1725.97,-207.727 1715.85,-210.863 1720.02,-216.489"/>
</g>
<!-- measurement_type -->
<g id="node27" class="node"><title>measurement_type</title>
<path fill="#fcfcfc" stroke="black" d="M2255.5,-280C2255.5,-280 2140.5,-280 2140.5,-280 2134.5,-280 2128.5,-274 2128.5,-268 2128.5,-268 2128.5,-256 2128.5,-256 2128.5,-250 2134.5,-244 2140.5,-244 2140.5,-244 2255.5,-244 2255.5,-244 2261.5,-244 2267.5,-250 2267.5,-256 2267.5,-256 2267.5,-268 2267.5,-268 2267.5,-274 2261.5,-280 2255.5,-280"/>
<text text-anchor="middle" x="2198" y="-258.3" font-family="Helvetica,sans-Serif" font-size="14.00">measurement_type</text>
</g>
<!-- measurement_type&#45;&gt;extract_tree_ring_data -->
<g id="edge28" class="edge"><title>measurement_type&#45;&gt;extract_tree_ring_data</title>
<path fill="none" stroke="black" d="M2128.25,-245.785C2125.13,-245.168 2122.03,-244.57 2119,-244 2052.01,-231.403 1977.74,-219.136 1913.93,-209.116"/>
<polygon fill="black" stroke="black" points="1914.2,-205.616 1903.78,-207.527 1913.12,-212.531 1914.2,-205.616"/>
</g>
<!-- chronology_type -->
<g id="node28" class="node"><title>chronology_type</title>
<path fill="#fcfcfc" stroke="black" d="M2098,-280C2098,-280 2000,-280 2000,-280 1994,-280 1988,-274 1988,-268 1988,-268 1988,-256 1988,-256 1988,-250 1994,-244 2000,-244 2000,-244 2098,-244 2098,-244 2104,-244 2110,-250 2110,-256 2110,-256 2110,-268 2110,-268 2110,-274 2104,-280 2098,-280"/>
<text text-anchor="middle" x="2049" y="-258.3" font-family="Helvetica,sans-Serif" font-size="14.00">chronology_type</text>
</g>
<!-- chronology_type&#45;&gt;extract_tree_ring_data -->
<g id="edge29" class="edge"><title>chronology_type&#45;&gt;extract_tree_ring_data</title>
<path fill="none" stroke="black" d="M1987.93,-245.265C1948.4,-235.078 1896.11,-221.605 1851.19,-210.029"/>
<polygon fill="black" stroke="black" points="1851.99,-206.62 1841.43,-207.514 1850.24,-213.399 1851.99,-206.62"/>
</g>
<!-- shapefile_archive_input_port -->
<g id="node29" class="node"><title>shapefile_archive_input_port</title>
<ellipse fill="#ffffff" stroke="black" cx="2315" cy="-992.5" rx="7" ry="7"/>
</g>
<!-- shapefile_archive_input_port&#45;&gt;shapefile_archive -->
<g id="edge30" class="edge"><title>shapefile_archive_input_port&#45;&gt;shapefile_archive</title>
<path fill="none" stroke="black" d="M2309.84,-987.449C2303.25,-982.462 2291.36,-974.036 2280,-969 2248.67,-955.11 2213.3,-943.864 2180.34,-935.085"/>
<polygon fill="black" stroke="black" points="2181.22,-931.696 2170.66,-932.556 2179.45,-938.469 2181.22,-931.696"/>
</g>
<!-- study_region_input_port -->
<g id="node30" class="node"><title>study_region_input_port</title>
<ellipse fill="#ffffff" stroke="black" cx="2603" cy="-992.5" rx="7" ry="7"/>
</g>
<!-- study_region_input_port&#45;&gt;study_region -->
<g id="edge31" class="edge"><title>study_region_input_port&#45;&gt;study_region</title>
<path fill="none" stroke="black" d="M2600.53,-999.383C2597.98,-1004.69 2593.45,-1012.21 2587,-1016 2517.08,-1057.09 2278.72,-1066.34 2166.42,-1068.41"/>
<polygon fill="black" stroke="black" points="2166.22,-1064.92 2156.29,-1068.59 2166.34,-1071.91 2166.22,-1064.92"/>
</g>
<!-- prediction_years_input_port -->
<g id="node31" class="node"><title>prediction_years_input_port</title>
<ellipse fill="#ffffff" stroke="black" cx="2411" cy="-992.5" rx="7" ry="7"/>
</g>
<!-- prediction_years_input_port&#45;&gt;prediction_years -->
<g id="edge32" class="edge"><title>prediction_years_input_port&#45;&gt;prediction_years</title>
<path fill="none" stroke="black" d="M2408.94,-985.629C2401.71,-964.54 2378,-890.523 2378,-827.5 2378,-827.5 2378,-827.5 2378,-416 2378,-343.808 2317.6,-341.337 2250,-316 2111.21,-263.981 1730.67,-301.344 1584,-280 1583.9,-279.985 1583.8,-279.97 1583.69,-279.955"/>
<polygon fill="black" stroke="black" points="1584.49,-276.54 1574.05,-278.36 1583.35,-283.446 1584.49,-276.54"/>
</g>
<!-- calibration_years_input_port -->
<g id="node32" class="node"><title>calibration_years_input_port</title>
<ellipse fill="#ffffff" stroke="black" cx="2443" cy="-992.5" rx="7" ry="7"/>
</g>
<!-- calibration_years_input_port&#45;&gt;calibration_years -->
<g id="edge33" class="edge"><title>calibration_years_input_port&#45;&gt;calibration_years</title>
<path fill="none" stroke="black" d="M2441.37,-985.597C2435.68,-964.398 2417,-890.056 2417,-827.5 2417,-827.5 2417,-827.5 2417,-416 2417,-370.188 2427.34,-345.157 2392,-316 2336.71,-270.379 1834.55,-289.267 1725.85,-279.635"/>
<polygon fill="black" stroke="black" points="1726.16,-276.147 1715.83,-278.501 1725.37,-283.103 1726.16,-276.147"/>
</g>
<!-- label_input_port -->
<g id="node33" class="node"><title>label_input_port</title>
<ellipse fill="#ffffff" stroke="black" cx="2475" cy="-992.5" rx="7" ry="7"/>
</g>
<!-- label_input_port&#45;&gt;label -->
<g id="edge34" class="edge"><title>label_input_port&#45;&gt;label</title>
<path fill="none" stroke="black" d="M2473.81,-985.572C2469.65,-964.288 2456,-889.698 2456,-827.5 2456,-827.5 2456,-827.5 2456,-416 2456,-370.188 2466.3,-345.206 2431,-316 2378.6,-272.644 1901.73,-295.572 1798.15,-279.144"/>
<polygon fill="black" stroke="black" points="1798.61,-275.666 1788.11,-277.124 1797.22,-282.528 1798.61,-275.666"/>
</g>
<!-- raw_dir_input_port -->
<g id="node34" class="node"><title>raw_dir_input_port</title>
<ellipse fill="#ffffff" stroke="black" cx="2507" cy="-992.5" rx="7" ry="7"/>
</g>
<!-- raw_dir_input_port&#45;&gt;raw_dir -->
<g id="edge35" class="edge"><title>raw_dir_input_port&#45;&gt;raw_dir</title>
<path fill="none" stroke="black" d="M2506.15,-985.258C2503.25,-963.533 2494,-889.193 2494,-827.5 2494,-827.5 2494,-827.5 2494,-416 2494,-370.293 2505.02,-345.375 2470,-316 2421.39,-275.219 1977.05,-293.34 1878.28,-279.053"/>
<polygon fill="black" stroke="black" points="1878.91,-275.61 1868.44,-277.251 1877.65,-282.495 1878.91,-275.61"/>
</g>
<!-- extract_dir_input_port -->
<g id="node35" class="node"><title>extract_dir_input_port</title>
<ellipse fill="#ffffff" stroke="black" cx="2539" cy="-992.5" rx="7" ry="7"/>
</g>
<!-- extract_dir_input_port&#45;&gt;extract_dir -->
<g id="edge36" class="edge"><title>extract_dir_input_port&#45;&gt;extract_dir</title>
<path fill="none" stroke="black" d="M2538.54,-985.248C2536.98,-963.49 2532,-889.056 2532,-827.5 2532,-827.5 2532,-827.5 2532,-416 2532,-370.293 2542.91,-345.501 2508,-316 2464.85,-279.534 2071.12,-290.392 1979.56,-279.338"/>
<polygon fill="black" stroke="black" points="1979.93,-275.855 1969.52,-277.794 1978.87,-282.773 1979.93,-275.855"/>
</g>
<!-- chronology_type_input_port -->
<g id="node36" class="node"><title>chronology_type_input_port</title>
<ellipse fill="#ffffff" stroke="black" cx="2571" cy="-992.5" rx="7" ry="7"/>
</g>
<!-- chronology_type_input_port&#45;&gt;chronology_type -->
<g id="edge37" class="edge"><title>chronology_type_input_port&#45;&gt;chronology_type</title>
<path fill="none" stroke="black" d="M2570.93,-985.244C2570.71,-963.473 2570,-889.001 2570,-827.5 2570,-827.5 2570,-827.5 2570,-416 2570,-370.293 2580.67,-345.785 2546,-316 2473.94,-254.089 2213.8,-295.104 2120,-280 2119.9,-279.984 2119.8,-279.967 2119.69,-279.951"/>
<polygon fill="black" stroke="black" points="2120.53,-276.545 2110.07,-278.241 2119.31,-283.437 2120.53,-276.545"/>
</g>
<!-- measurement_type_input_port -->
<g id="node37" class="node"><title>measurement_type_input_port</title>
<ellipse fill="#ffffff" stroke="black" cx="2635" cy="-992.5" rx="7" ry="7"/>
</g>
<!-- measurement_type_input_port&#45;&gt;measurement_type -->
<g id="edge38" class="edge"><title>measurement_type_input_port&#45;&gt;measurement_type</title>
<path fill="none" stroke="black" d="M2634.08,-985.26C2630.97,-963.543 2621,-889.224 2621,-827.5 2621,-827.5 2621,-827.5 2621,-416 2621,-368.611 2620.95,-345.666 2584,-316 2538.21,-279.243 2377.01,-267.965 2277.99,-264.514"/>
<polygon fill="black" stroke="black" points="2277.83,-261.007 2267.72,-264.176 2277.6,-268.003 2277.83,-261.007"/>
</g>
<!-- tree_buffer_input_port -->
<g id="node38" class="node"><title>tree_buffer_input_port</title>
<ellipse fill="#ffffff" stroke="black" cx="2347" cy="-992.5" rx="7" ry="7"/>
</g>
<!-- tree_buffer_input_port&#45;&gt;tree_buffer -->
<g id="edge39" class="edge"><title>tree_buffer_input_port&#45;&gt;tree_buffer</title>
<path fill="none" stroke="black" d="M2343.96,-986.029C2332.98,-965.723 2296,-892.501 2296,-827.5 2296,-827.5 2296,-827.5 2296,-576.5 2296,-522.337 2274.65,-507.902 2235,-471 2219.05,-456.154 2198.17,-444.646 2178.95,-436.206"/>
<polygon fill="black" stroke="black" points="2180.26,-432.958 2169.69,-432.307 2177.55,-439.41 2180.26,-432.958"/>
</g>
<!-- quadsegs_input_port -->
<g id="node39" class="node"><title>quadsegs_input_port</title>
<ellipse fill="#ffffff" stroke="black" cx="2379" cy="-992.5" rx="7" ry="7"/>
</g>
<!-- quadsegs_input_port&#45;&gt;quadsegs -->
<g id="edge40" class="edge"><title>quadsegs_input_port&#45;&gt;quadsegs</title>
<path fill="none" stroke="black" d="M2376.44,-985.675C2367.46,-964.742 2338,-891.186 2338,-827.5 2338,-827.5 2338,-827.5 2338,-576.5 2338,-527.988 2338.51,-510.25 2310,-471 2301.02,-458.631 2288.18,-448.399 2275.33,-440.334"/>
<polygon fill="black" stroke="black" points="2276.87,-437.175 2266.48,-435.097 2273.3,-443.2 2276.87,-437.175"/>
</g>
</g>
</svg>
