<?xml version="1.0" encoding="UTF-8" standalone="no"?>
<!DOCTYPE svg PUBLIC "-//W3C//DTD SVG 1.1//EN"
 "http://www.w3.org/Graphics/SVG/1.1/DTD/svg11.dtd">
<!-- Generated by graphviz version 2.38.0 (20140413.2041)
 -->
<!-- Title: Workflow Pages: 1 -->
<svg width="669pt" height="186pt"
 viewBox="0.00 0.00 669.00 186.00" xmlns="http://www.w3.org/2000/svg" xmlns:xlink="http://www.w3.org/1999/xlink">
<g id="graph0" class="graph" transform="scale(1 1) rotate(0) translate(4 182)">
<title>Workflow</title>
<polygon fill="white" stroke="none" points="-4,4 -4,-182 665,-182 665,4 -4,4"/>
<text text-anchor="middle" x="330.5" y="-159.6" font-family="Helvetica,sans-Serif" font-size="18.00">get_prism_data</text>
<g id="clust1" class="cluster"><title>cluster_workflow_box_outer</title>
<polygon fill="none" stroke="black" stroke-width="2" points="62,-8 62,-142 599,-142 599,-8 62,-8"/>
</g>
<g id="clust2" class="cluster"><title>cluster_workflow_box_inner</title>
<polygon fill="none" stroke="black" stroke-width="0" points="70,-16 70,-134 591,-134 591,-16 70,-16"/>
</g>
<g id="clust3" class="cluster"><title>cluster_input_ports_group_outer</title>
<polygon fill="none" stroke="black" stroke-width="0" points="8,-39 8,-117 54,-117 54,-39 8,-39"/>
</g>
<g id="clust4" class="cluster"><title>cluster_input_ports_group_inner</title>
<polygon fill="none" stroke="black" stroke-width="0" points="16,-47 16,-109 46,-109 46,-47 16,-47"/>
</g>
<g id="clust5" class="cluster"><title>cluster_output_ports_group_outer</title>
<polygon fill="none" stroke="black" stroke-width="0" points="607,-52 607,-98 653,-98 653,-52 607,-52"/>
</g>
<g id="clust6" class="cluster"><title>cluster_output_ports_group_inner</title>
<polygon fill="none" stroke="black" stroke-width="0" points="615,-60 615,-90 645,-90 645,-60 615,-60"/>
</g>
<!-- get_prism_data -->
<g id="node1" class="node"><title>get_prism_data</title>
<polygon fill="#ccffcc" stroke="black" points="385,-93 269,-93 269,-57 385,-57 385,-93"/>
<text text-anchor="middle" x="327" y="-71.3" font-family="Helvetica,sans-Serif" font-size="14.00">get_prism_data</text>
</g>
<!-- prism_data -->
<g id="node2" class="node"><title>prism_data</title>
<path fill="#ffffcc" stroke="black" d="M433,-52C433,-52 571,-52 571,-52 577,-52 583,-58 583,-64 583,-64 583,-86 583,-86 583,-92 577,-98 571,-98 571,-98 433,-98 433,-98 427,-98 421,-92 421,-86 421,-86 421,-64 421,-64 421,-58 427,-52 433,-52"/>
<text text-anchor="middle" x="502" y="-82.8" font-family="Helvetica,sans-Serif" font-size="14.00">prism_data</text>
<polyline fill="none" stroke="black" points="421,-75 583,-75 "/>
<text text-anchor="middle" x="502" y="-59.8" font-family="Helvetica,sans-Serif" font-size="14.00">file:/data/{data_file}.csv</text>
</g>
<!-- get_prism_data&#45;&gt;prism_data -->
<g id="edge1" class="edge"><title>get_prism_data&#45;&gt;prism_data</title>
<path fill="none" stroke="black" d="M385.126,-75C393.332,-75 401.938,-75 410.596,-75"/>
<polygon fill="black" stroke="black" points="410.763,-78.5001 420.763,-75 410.763,-71.5001 410.763,-78.5001"/>
</g>
<!-- prism_data_output_port -->
<g id="node7" class="node"><title>prism_data_output_port</title>
<ellipse fill="#ffffff" stroke="black" cx="630" cy="-75" rx="7" ry="7"/>
</g>
<!-- prism_data&#45;&gt;prism_data_output_port -->
<g id="edge6" class="edge"><title>prism_data&#45;&gt;prism_data_output_port</title>
<path fill="none" stroke="black" d="M583.155,-75C594.242,-75 604.562,-75 612.592,-75"/>
<polygon fill="black" stroke="black" points="612.824,-78.5001 622.824,-75 612.824,-71.5001 612.824,-78.5001"/>
</g>
<!-- coordinates -->
<g id="node3" class="node"><title>coordinates</title>
<path fill="#ffffcc" stroke="black" d="M189,-126C189,-126 122,-126 122,-126 116,-126 110,-120 110,-114 110,-114 110,-102 110,-102 110,-96 116,-90 122,-90 122,-90 189,-90 189,-90 195,-90 201,-96 201,-102 201,-102 201,-114 201,-114 201,-120 195,-126 189,-126"/>
<text text-anchor="middle" x="155.5" y="-104.3" font-family="Helvetica,sans-Serif" font-size="14.00">coordinates</text>
</g>
<!-- coordinates&#45;&gt;get_prism_data -->
<g id="edge2" class="edge"><title>coordinates&#45;&gt;get_prism_data</title>
<path fill="none" stroke="black" d="M201.034,-99.3296C218.742,-95.8822 239.498,-91.841 258.953,-88.0535"/>
<polygon fill="black" stroke="black" points="259.837,-91.447 268.984,-86.1004 258.5,-84.576 259.837,-91.447"/>
</g>
<!-- netcdf_file -->
<g id="node4" class="node"><title>netcdf_file</title>
<path fill="#ffffcc" stroke="black" d="M90,-25C90,-25 221,-25 221,-25 227,-25 233,-31 233,-37 233,-37 233,-59 233,-59 233,-65 227,-71 221,-71 221,-71 90,-71 90,-71 84,-71 78,-65 78,-59 78,-59 78,-37 78,-37 78,-31 84,-25 90,-25"/>
<text text-anchor="middle" x="155.5" y="-55.8" font-family="Helvetica,sans-Serif" font-size="14.00">netcdf_file</text>
<polyline fill="none" stroke="black" points="78,-48 233,-48 "/>
<text text-anchor="middle" x="155.5" y="-32.8" font-family="Helvetica,sans-Serif" font-size="14.00">file:/data/{data_file}.nc</text>
</g>
<!-- netcdf_file&#45;&gt;get_prism_data -->
<g id="edge3" class="edge"><title>netcdf_file&#45;&gt;get_prism_data</title>
<path fill="none" stroke="black" d="M233.315,-60.236C241.846,-61.595 250.486,-62.9712 258.884,-64.3089"/>
<polygon fill="black" stroke="black" points="258.558,-67.8011 268.984,-65.9178 259.659,-60.8882 258.558,-67.8011"/>
</g>
<!-- coordinates_input_port -->
<g id="node5" class="node"><title>coordinates_input_port</title>
<ellipse fill="#ffffff" stroke="black" cx="31" cy="-94" rx="7" ry="7"/>
</g>
<!-- coordinates_input_port&#45;&gt;coordinates -->
<g id="edge4" class="edge"><title>coordinates_input_port&#45;&gt;coordinates</title>
<path fill="none" stroke="black" d="M38.2432,-94.7135C49.8133,-96.0358 75.6324,-98.9866 100.007,-101.772"/>
<polygon fill="black" stroke="black" points="99.6252,-105.251 109.958,-102.909 100.42,-98.2966 99.6252,-105.251"/>
</g>
<!-- netcdf_file_input_port -->
<g id="node6" class="node"><title>netcdf_file_input_port</title>
<ellipse fill="#ffffff" stroke="black" cx="31" cy="-62" rx="7" ry="7"/>
</g>
<!-- netcdf_file_input_port&#45;&gt;netcdf_file -->
<g id="edge5" class="edge"><title>netcdf_file_input_port&#45;&gt;netcdf_file</title>
<path fill="none" stroke="black" d="M38.2432,-61.2865C44.591,-60.561 55.2279,-59.3454 67.5621,-57.9358"/>
<polygon fill="black" stroke="black" points="68.2304,-61.3823 77.7683,-56.7693 67.4355,-54.4275 68.2304,-61.3823"/>
</g>
</g>
</svg>
