<?xml version="1.0" encoding="UTF-8" standalone="no"?>
<!DOCTYPE svg PUBLIC "-//W3C//DTD SVG 1.1//EN"
 "http://www.w3.org/Graphics/SVG/1.1/DTD/svg11.dtd">
<!-- Generated by graphviz version 2.38.0 (20140413.2041)
 -->
<!-- Title: Workflow Pages: 1 -->
<svg width="614pt" height="377pt"
 viewBox="0.00 0.00 614.00 377.00" xmlns="http://www.w3.org/2000/svg" xmlns:xlink="http://www.w3.org/1999/xlink">
<g id="graph0" class="graph" transform="scale(1 1) rotate(0) translate(4 373)">
<title>Workflow</title>
<polygon fill="white" stroke="none" points="-4,4 -4,-373 610,-373 610,4 -4,4"/>
<g id="clust1" class="cluster"><title>cluster_workflow_box_outer</title>
<polygon fill="none" stroke="black" stroke-width="2" points="8,-62 8,-307 598,-307 598,-62 8,-62"/>
</g>
<g id="clust2" class="cluster"><title>cluster_workflow_box_inner</title>
<polygon fill="none" stroke="black" stroke-width="0" points="16,-70 16,-299 590,-299 590,-70 16,-70"/>
</g>
<g id="clust3" class="cluster"><title>cluster_input_ports_group_outer</title>
<polygon fill="none" stroke="black" stroke-width="0" points="210,-315 210,-361 288,-361 288,-315 210,-315"/>
</g>
<g id="clust4" class="cluster"><title>cluster_input_ports_group_inner</title>
<polygon fill="none" stroke="black" stroke-width="0" points="218,-323 218,-353 280,-353 280,-323 218,-323"/>
</g>
<g id="clust5" class="cluster"><title>cluster_output_ports_group_outer</title>
<polygon fill="none" stroke="black" stroke-width="0" points="280,-8 280,-54 326,-54 326,-8 280,-8"/>
</g>
<g id="clust6" class="cluster"><title>cluster_output_ports_group_inner</title>
<polygon fill="none" stroke="black" stroke-width="0" points="288,-16 288,-46 318,-46 318,-16 288,-16"/>
</g>
<!-- get_tree_ring_values -->
<g id="node1" class="node"><title>get_tree_ring_values</title>
<polygon fill="#ccffcc" stroke="black" points="24.5,-161.5 24.5,-207.5 581.5,-207.5 581.5,-161.5 24.5,-161.5"/>
<text text-anchor="middle" x="303" y="-192.3" font-family="Helvetica,sans-Serif" font-size="14.00">get_tree_ring_values</text>
<polyline fill="none" stroke="black" points="24.5,-184.5 581.5,-184.5 "/>
<text text-anchor="middle" x="303" y="-169.3" font-family="Helvetica,sans-Serif" font-size="14.00">extract the values of the tree ring chronologies used for reconstruction for a given year</text>
</g>
<!-- tree_ring_values -->
<g id="node2" class="node"><title>tree_ring_values</title>
<path fill="#ffffcc" stroke="black" d="M86,-78.5C86,-78.5 520,-78.5 520,-78.5 526,-78.5 532,-84.5 532,-90.5 532,-90.5 532,-112.5 532,-112.5 532,-118.5 526,-124.5 520,-124.5 520,-124.5 86,-124.5 86,-124.5 80,-124.5 74,-118.5 74,-112.5 74,-112.5 74,-90.5 74,-90.5 74,-84.5 80,-78.5 86,-78.5"/>
<text text-anchor="middle" x="303" y="-109.3" font-family="Helvetica,sans-Serif" font-size="14.00">tree_ring_values</text>
<polyline fill="none" stroke="black" points="74,-101.5 532,-101.5 "/>
<text text-anchor="middle" x="303" y="-86.3" font-family="Helvetica,sans-Serif" font-size="14.00">file:/.output/{session_id}/{run_id}/{user_input_year}_tree_ring_data.csv</text>
</g>
<!-- get_tree_ring_values&#45;&gt;tree_ring_values -->
<g id="edge1" class="edge"><title>get_tree_ring_values&#45;&gt;tree_ring_values</title>
<path fill="none" stroke="black" d="M303,-161.366C303,-153.152 303,-143.658 303,-134.725"/>
<polygon fill="black" stroke="black" points="306.5,-134.607 303,-124.607 299.5,-134.607 306.5,-134.607"/>
</g>
<!-- tree_ring_values_output_port -->
<g id="node7" class="node"><title>tree_ring_values_output_port</title>
<ellipse fill="#ffffff" stroke="black" cx="303" cy="-31" rx="7" ry="7"/>
</g>
<!-- tree_ring_values&#45;&gt;tree_ring_values_output_port -->
<g id="edge6" class="edge"><title>tree_ring_values&#45;&gt;tree_ring_values_output_port</title>
<path fill="none" stroke="black" d="M303,-78.4491C303,-68.6592 303,-57.3397 303,-48.3261"/>
<polygon fill="black" stroke="black" points="306.5,-48.1278 303,-38.1279 299.5,-48.1279 306.5,-48.1278"/>
</g>
<!-- paleocar_models -->
<g id="node3" class="node"><title>paleocar_models</title>
<path fill="#ffffcc" stroke="black" d="M216.5,-244.5C216.5,-244.5 525.5,-244.5 525.5,-244.5 531.5,-244.5 537.5,-250.5 537.5,-256.5 537.5,-256.5 537.5,-278.5 537.5,-278.5 537.5,-284.5 531.5,-290.5 525.5,-290.5 525.5,-290.5 216.5,-290.5 216.5,-290.5 210.5,-290.5 204.5,-284.5 204.5,-278.5 204.5,-278.5 204.5,-256.5 204.5,-256.5 204.5,-250.5 210.5,-244.5 216.5,-244.5"/>
<text text-anchor="middle" x="371" y="-275.3" font-family="Helvetica,sans-Serif" font-size="14.00">paleocar_models</text>
<polyline fill="none" stroke="black" points="204.5,-267.5 537.5,-267.5 "/>
<text text-anchor="middle" x="371" y="-252.3" font-family="Helvetica,sans-Serif" font-size="14.00">file:/.output/{session_id}{run_id}/{label}.models.rds</text>
</g>
<!-- paleocar_models&#45;&gt;get_tree_ring_values -->
<g id="edge2" class="edge"><title>paleocar_models&#45;&gt;get_tree_ring_values</title>
<path fill="none" stroke="black" d="M352.419,-244.366C344.923,-235.437 336.158,-224.997 328.109,-215.409"/>
<polygon fill="black" stroke="black" points="330.669,-213.015 321.559,-207.607 325.308,-217.516 330.669,-213.015"/>
</g>
<!-- user_input_year -->
<g id="node4" class="node"><title>user_input_year</title>
<path fill="#ffffcc" stroke="black" d="M174,-285.5C174,-285.5 80,-285.5 80,-285.5 74,-285.5 68,-279.5 68,-273.5 68,-273.5 68,-261.5 68,-261.5 68,-255.5 74,-249.5 80,-249.5 80,-249.5 174,-249.5 174,-249.5 180,-249.5 186,-255.5 186,-261.5 186,-261.5 186,-273.5 186,-273.5 186,-279.5 180,-285.5 174,-285.5"/>
<text text-anchor="middle" x="127" y="-263.8" font-family="Helvetica,sans-Serif" font-size="14.00">user_input_year</text>
</g>
<!-- user_input_year&#45;&gt;get_tree_ring_values -->
<g id="edge3" class="edge"><title>user_input_year&#45;&gt;get_tree_ring_values</title>
<path fill="none" stroke="black" d="M164.325,-249.322C187.974,-238.438 219.029,-224.146 245.755,-211.846"/>
<polygon fill="black" stroke="black" points="247.388,-214.947 255.009,-207.587 244.462,-208.588 247.388,-214.947"/>
</g>
<!-- paleocar_models_input_port -->
<g id="node5" class="node"><title>paleocar_models_input_port</title>
<ellipse fill="#ffffff" stroke="black" cx="265" cy="-338" rx="7" ry="7"/>
</g>
<!-- paleocar_models_input_port&#45;&gt;paleocar_models -->
<g id="edge4" class="edge"><title>paleocar_models_input_port&#45;&gt;paleocar_models</title>
<path fill="none" stroke="black" d="M270.402,-333.509C281.139,-326.571 306.056,-310.469 328.403,-296.027"/>
<polygon fill="black" stroke="black" points="330.309,-298.963 336.808,-290.596 326.509,-293.084 330.309,-298.963"/>
</g>
<!-- user_input_year_input_port -->
<g id="node6" class="node"><title>user_input_year_input_port</title>
<ellipse fill="#ffffff" stroke="black" cx="233" cy="-338" rx="7" ry="7"/>
</g>
<!-- user_input_year_input_port&#45;&gt;user_input_year -->
<g id="edge5" class="edge"><title>user_input_year_input_port&#45;&gt;user_input_year</title>
<path fill="none" stroke="black" d="M227.598,-333.509C215.649,-325.787 186.138,-306.716 162.15,-291.215"/>
<polygon fill="black" stroke="black" points="163.904,-288.181 153.605,-285.693 160.104,-294.06 163.904,-288.181"/>
</g>
</g>
</svg>
