<?xml version="1.0" encoding="UTF-8" standalone="no"?>
<!DOCTYPE svg PUBLIC "-//W3C//DTD SVG 1.1//EN"
 "http://www.w3.org/Graphics/SVG/1.1/DTD/svg11.dtd">
<!-- Generated by graphviz version 2.38.0 (20140413.2041)
 -->
<!-- Title: Workflow Pages: 1 -->
<svg width="338pt" height="288pt"
 viewBox="0.00 0.00 338.00 288.00" xmlns="http://www.w3.org/2000/svg" xmlns:xlink="http://www.w3.org/1999/xlink">
<g id="graph0" class="graph" transform="scale(1 1) rotate(0) translate(4 284)">
<title>Workflow</title>
<polygon fill="white" stroke="none" points="-4,4 -4,-284 334,-284 334,4 -4,4"/>
<g id="clust1" class="cluster"><title>cluster_workflow_box_outer</title>
<polygon fill="none" stroke="black" stroke-width="2" points="8,-34 8,-246 322,-246 322,-34 8,-34"/>
</g>
<g id="clust2" class="cluster"><title>cluster_workflow_box_inner</title>
<polygon fill="none" stroke="black" stroke-width="0" points="16,-42 16,-238 314,-238 314,-42 16,-42"/>
</g>
<!-- get_predictor_matrix -->
<g id="node1" class="node"><title>get_predictor_matrix</title>
<polygon fill="#ccffcc" stroke="black" points="227.5,-158 80.5,-158 80.5,-122 227.5,-122 227.5,-158"/>
<text text-anchor="middle" x="154" y="-136.3" font-family="Helvetica,sans-Serif" font-size="14.00">get_predictor_matrix</text>
</g>
<!-- predictor.matrix -->
<g id="node2" class="node"><title>predictor.matrix</title>
<path fill="#ffffcc" stroke="black" d="M159,-86C159,-86 69,-86 69,-86 63,-86 57,-80 57,-74 57,-74 57,-62 57,-62 57,-56 63,-50 69,-50 69,-50 159,-50 159,-50 165,-50 171,-56 171,-62 171,-62 171,-74 171,-74 171,-80 165,-86 159,-86"/>
<text text-anchor="middle" x="114" y="-64.3" font-family="Helvetica,sans-Serif" font-size="14.00">predictor.matrix</text>
</g>
<!-- get_predictor_matrix&#45;&gt;predictor.matrix -->
<g id="edge1" class="edge"><title>get_predictor_matrix&#45;&gt;predictor.matrix</title>
<path fill="none" stroke="black" d="M144.112,-121.697C139.511,-113.644 133.94,-103.894 128.847,-94.9824"/>
<polygon fill="black" stroke="black" points="131.774,-93.0503 123.774,-86.1043 125.696,-96.5233 131.774,-93.0503"/>
</g>
<!-- max.preds -->
<g id="node3" class="node"><title>max.preds</title>
<path fill="#ffffcc" stroke="black" d="M260.5,-86C260.5,-86 201.5,-86 201.5,-86 195.5,-86 189.5,-80 189.5,-74 189.5,-74 189.5,-62 189.5,-62 189.5,-56 195.5,-50 201.5,-50 201.5,-50 260.5,-50 260.5,-50 266.5,-50 272.5,-56 272.5,-62 272.5,-62 272.5,-74 272.5,-74 272.5,-80 266.5,-86 260.5,-86"/>
<text text-anchor="middle" x="231" y="-64.3" font-family="Helvetica,sans-Serif" font-size="14.00">max.preds</text>
</g>
<!-- get_predictor_matrix&#45;&gt;max.preds -->
<g id="edge2" class="edge"><title>get_predictor_matrix&#45;&gt;max.preds</title>
<path fill="none" stroke="black" d="M173.034,-121.697C182.545,-113.05 194.207,-102.449 204.57,-93.027"/>
<polygon fill="black" stroke="black" points="207.14,-95.4209 212.185,-86.1043 202.431,-90.2413 207.14,-95.4209"/>
</g>
<!-- predictor.matrix_output_port -->
<g id="node10" class="node"><title>predictor.matrix_output_port</title>
<ellipse fill="#ffffff" stroke="black" cx="114" cy="-7" rx="7" ry="7"/>
</g>
<!-- predictor.matrix&#45;&gt;predictor.matrix_output_port -->
<g id="edge9" class="edge"><title>predictor.matrix&#45;&gt;predictor.matrix_output_port</title>
<path fill="none" stroke="black" d="M114,-49.9348C114,-41.8859 114,-32.3254 114,-24.3671"/>
<polygon fill="black" stroke="black" points="117.5,-24.2164 114,-14.2164 110.5,-24.2165 117.5,-24.2164"/>
</g>
<!-- max.preds_output_port -->
<g id="node11" class="node"><title>max.preds_output_port</title>
<ellipse fill="#ffffff" stroke="black" cx="231" cy="-7" rx="7" ry="7"/>
</g>
<!-- max.preds&#45;&gt;max.preds_output_port -->
<g id="edge10" class="edge"><title>max.preds&#45;&gt;max.preds_output_port</title>
<path fill="none" stroke="black" d="M231,-49.9348C231,-41.8859 231,-32.3254 231,-24.3671"/>
<polygon fill="black" stroke="black" points="234.5,-24.2164 231,-14.2164 227.5,-24.2165 234.5,-24.2164"/>
</g>
<!-- itrdb -->
<g id="node4" class="node"><title>itrdb</title>
<path fill="#ffffcc" stroke="black" d="M66,-230C66,-230 36,-230 36,-230 30,-230 24,-224 24,-218 24,-218 24,-206 24,-206 24,-200 30,-194 36,-194 36,-194 66,-194 66,-194 72,-194 78,-200 78,-206 78,-206 78,-218 78,-218 78,-224 72,-230 66,-230"/>
<text text-anchor="middle" x="51" y="-208.3" font-family="Helvetica,sans-Serif" font-size="14.00">itrdb</text>
</g>
<!-- itrdb&#45;&gt;get_predictor_matrix -->
<g id="edge3" class="edge"><title>itrdb&#45;&gt;get_predictor_matrix</title>
<path fill="none" stroke="black" d="M76.1966,-193.876C89.4145,-184.893 105.792,-173.763 120.107,-164.034"/>
<polygon fill="black" stroke="black" points="122.403,-166.705 128.707,-158.19 118.468,-160.916 122.403,-166.705"/>
</g>
<!-- calibration_year -->
<g id="node5" class="node"><title>calibration_year</title>
<path fill="#ffffcc" stroke="black" d="M200,-230C200,-230 108,-230 108,-230 102,-230 96,-224 96,-218 96,-218 96,-206 96,-206 96,-200 102,-194 108,-194 108,-194 200,-194 200,-194 206,-194 212,-200 212,-206 212,-206 212,-218 212,-218 212,-224 206,-230 200,-230"/>
<text text-anchor="middle" x="154" y="-208.3" font-family="Helvetica,sans-Serif" font-size="14.00">calibration_year</text>
</g>
<!-- calibration_year&#45;&gt;get_predictor_matrix -->
<g id="edge4" class="edge"><title>calibration_year&#45;&gt;get_predictor_matrix</title>
<path fill="none" stroke="black" d="M154,-193.697C154,-185.983 154,-176.712 154,-168.112"/>
<polygon fill="black" stroke="black" points="157.5,-168.104 154,-158.104 150.5,-168.104 157.5,-168.104"/>
</g>
<!-- min.width -->
<g id="node6" class="node"><title>min.width</title>
<path fill="#fcfcfc" stroke="black" d="M293.5,-230C293.5,-230 242.5,-230 242.5,-230 236.5,-230 230.5,-224 230.5,-218 230.5,-218 230.5,-206 230.5,-206 230.5,-200 236.5,-194 242.5,-194 242.5,-194 293.5,-194 293.5,-194 299.5,-194 305.5,-200 305.5,-206 305.5,-206 305.5,-218 305.5,-218 305.5,-224 299.5,-230 293.5,-230"/>
<text text-anchor="middle" x="268" y="-208.3" font-family="Helvetica,sans-Serif" font-size="14.00">min.width</text>
</g>
<!-- min.width&#45;&gt;get_predictor_matrix -->
<g id="edge5" class="edge"><title>min.width&#45;&gt;get_predictor_matrix</title>
<path fill="none" stroke="black" d="M240.112,-193.876C225.207,-184.724 206.671,-173.342 190.618,-163.485"/>
<polygon fill="black" stroke="black" points="192.348,-160.44 181.995,-158.19 188.685,-166.405 192.348,-160.44"/>
</g>
<!-- itrdb_input_port -->
<g id="node7" class="node"><title>itrdb_input_port</title>
<ellipse fill="#ffffff" stroke="black" cx="51" cy="-273" rx="7" ry="7"/>
</g>
<!-- itrdb_input_port&#45;&gt;itrdb -->
<g id="edge6" class="edge"><title>itrdb_input_port&#45;&gt;itrdb</title>
<path fill="none" stroke="black" d="M51,-265.686C51,-259.486 51,-249.595 51,-240.048"/>
<polygon fill="black" stroke="black" points="54.5001,-240.016 51,-230.016 47.5001,-240.016 54.5001,-240.016"/>
</g>
<!-- calibration_year_input_port -->
<g id="node8" class="node"><title>calibration_year_input_port</title>
<ellipse fill="#ffffff" stroke="black" cx="154" cy="-273" rx="7" ry="7"/>
</g>
<!-- calibration_year_input_port&#45;&gt;calibration_year -->
<g id="edge7" class="edge"><title>calibration_year_input_port&#45;&gt;calibration_year</title>
<path fill="none" stroke="black" d="M154,-265.686C154,-259.486 154,-249.595 154,-240.048"/>
<polygon fill="black" stroke="black" points="157.5,-240.016 154,-230.016 150.5,-240.016 157.5,-240.016"/>
</g>
<!-- min.width_input_port -->
<g id="node9" class="node"><title>min.width_input_port</title>
<ellipse fill="#ffffff" stroke="black" cx="268" cy="-273" rx="7" ry="7"/>
</g>
<!-- min.width_input_port&#45;&gt;min.width -->
<g id="edge8" class="edge"><title>min.width_input_port&#45;&gt;min.width</title>
<path fill="none" stroke="black" d="M268,-265.686C268,-259.486 268,-249.595 268,-240.048"/>
<polygon fill="black" stroke="black" points="271.5,-240.016 268,-230.016 264.5,-240.016 271.5,-240.016"/>
</g>
</g>
</svg>
