<?xml version="1.0" encoding="UTF-8" standalone="no"?>
<!DOCTYPE svg PUBLIC "-//W3C//DTD SVG 1.1//EN"
 "http://www.w3.org/Graphics/SVG/1.1/DTD/svg11.dtd">
<!-- Generated by graphviz version 2.38.0 (20140413.2041)
 -->
<!-- Title: Workflow Pages: 1 -->
<svg width="338pt" height="344pt"
 viewBox="0.00 0.00 338.00 344.00" xmlns="http://www.w3.org/2000/svg" xmlns:xlink="http://www.w3.org/1999/xlink">
<g id="graph0" class="graph" transform="scale(1 1) rotate(0) translate(4 340)">
<title>Workflow</title>
<polygon fill="white" stroke="none" points="-4,4 -4,-340 334,-340 334,4 -4,4"/>
<g id="clust1" class="cluster"><title>cluster_workflow_box_outer</title>
<polygon fill="none" stroke="black" stroke-width="2" points="8,-62 8,-274 322,-274 322,-62 8,-62"/>
</g>
<g id="clust2" class="cluster"><title>cluster_workflow_box_inner</title>
<polygon fill="none" stroke="black" stroke-width="0" points="16,-70 16,-266 314,-266 314,-70 16,-70"/>
</g>
<g id="clust3" class="cluster"><title>cluster_input_ports_group_outer</title>
<polygon fill="none" stroke="black" stroke-width="0" points="121,-282 121,-328 231,-328 231,-282 121,-282"/>
</g>
<g id="clust4" class="cluster"><title>cluster_input_ports_group_inner</title>
<polygon fill="none" stroke="black" stroke-width="0" points="129,-290 129,-320 223,-320 223,-290 129,-290"/>
</g>
<g id="clust5" class="cluster"><title>cluster_output_ports_group_outer</title>
<polygon fill="none" stroke="black" stroke-width="0" points="133,-8 133,-54 211,-54 211,-8 133,-8"/>
</g>
<g id="clust6" class="cluster"><title>cluster_output_ports_group_inner</title>
<polygon fill="none" stroke="black" stroke-width="0" points="141,-16 141,-46 203,-46 203,-16 141,-16"/>
</g>
<!-- get_predictor_matrix -->
<g id="node1" class="node"><title>get_predictor_matrix</title>
<polygon fill="#ccffcc" stroke="black" points="249.5,-186 102.5,-186 102.5,-150 249.5,-150 249.5,-186"/>
<text text-anchor="middle" x="176" y="-164.3" font-family="Helvetica,sans-Serif" font-size="14.00">get_predictor_matrix</text>
</g>
<!-- predictor.matrix -->
<g id="node2" class="node"><title>predictor.matrix</title>
<path fill="#ffffcc" stroke="black" d="M159,-114C159,-114 69,-114 69,-114 63,-114 57,-108 57,-102 57,-102 57,-90 57,-90 57,-84 63,-78 69,-78 69,-78 159,-78 159,-78 165,-78 171,-84 171,-90 171,-90 171,-102 171,-102 171,-108 165,-114 159,-114"/>
<text text-anchor="middle" x="114" y="-92.3" font-family="Helvetica,sans-Serif" font-size="14.00">predictor.matrix</text>
</g>
<!-- get_predictor_matrix&#45;&gt;predictor.matrix -->
<g id="edge1" class="edge"><title>get_predictor_matrix&#45;&gt;predictor.matrix</title>
<path fill="none" stroke="black" d="M160.674,-149.697C153.241,-141.305 144.177,-131.07 136.02,-121.861"/>
<polygon fill="black" stroke="black" points="138.4,-119.27 129.15,-114.104 133.16,-123.911 138.4,-119.27"/>
</g>
<!-- max.preds -->
<g id="node3" class="node"><title>max.preds</title>
<path fill="#ffffcc" stroke="black" d="M260.5,-114C260.5,-114 201.5,-114 201.5,-114 195.5,-114 189.5,-108 189.5,-102 189.5,-102 189.5,-90 189.5,-90 189.5,-84 195.5,-78 201.5,-78 201.5,-78 260.5,-78 260.5,-78 266.5,-78 272.5,-84 272.5,-90 272.5,-90 272.5,-102 272.5,-102 272.5,-108 266.5,-114 260.5,-114"/>
<text text-anchor="middle" x="231" y="-92.3" font-family="Helvetica,sans-Serif" font-size="14.00">max.preds</text>
</g>
<!-- get_predictor_matrix&#45;&gt;max.preds -->
<g id="edge2" class="edge"><title>get_predictor_matrix&#45;&gt;max.preds</title>
<path fill="none" stroke="black" d="M189.596,-149.697C196.123,-141.389 204.068,-131.277 211.247,-122.141"/>
<polygon fill="black" stroke="black" points="214.135,-124.13 217.561,-114.104 208.631,-119.805 214.135,-124.13"/>
</g>
<!-- predictor.matrix_output_port -->
<g id="node10" class="node"><title>predictor.matrix_output_port</title>
<ellipse fill="#ffffff" stroke="black" cx="156" cy="-31" rx="7" ry="7"/>
</g>
<!-- predictor.matrix&#45;&gt;predictor.matrix_output_port -->
<g id="edge9" class="edge"><title>predictor.matrix&#45;&gt;predictor.matrix_output_port</title>
<path fill="none" stroke="black" d="M125.477,-77.785C132.182,-67.7264 140.532,-55.2022 146.802,-45.7966"/>
<polygon fill="black" stroke="black" points="149.793,-47.6197 152.428,-37.3577 143.969,-43.7368 149.793,-47.6197"/>
</g>
<!-- max.preds_output_port -->
<g id="node11" class="node"><title>max.preds_output_port</title>
<ellipse fill="#ffffff" stroke="black" cx="188" cy="-31" rx="7" ry="7"/>
</g>
<!-- max.preds&#45;&gt;max.preds_output_port -->
<g id="edge10" class="edge"><title>max.preds&#45;&gt;max.preds_output_port</title>
<path fill="none" stroke="black" d="M219.25,-77.785C212.385,-67.7264 203.836,-55.2022 197.417,-45.7966"/>
<polygon fill="black" stroke="black" points="200.185,-43.6441 191.657,-37.3577 194.404,-47.5904 200.185,-43.6441"/>
</g>
<!-- itrdb -->
<g id="node4" class="node"><title>itrdb</title>
<path fill="#ffffcc" stroke="black" d="M294,-258C294,-258 264,-258 264,-258 258,-258 252,-252 252,-246 252,-246 252,-234 252,-234 252,-228 258,-222 264,-222 264,-222 294,-222 294,-222 300,-222 306,-228 306,-234 306,-234 306,-246 306,-246 306,-252 300,-258 294,-258"/>
<text text-anchor="middle" x="279" y="-236.3" font-family="Helvetica,sans-Serif" font-size="14.00">itrdb</text>
</g>
<!-- itrdb&#45;&gt;get_predictor_matrix -->
<g id="edge3" class="edge"><title>itrdb&#45;&gt;get_predictor_matrix</title>
<path fill="none" stroke="black" d="M253.803,-221.876C240.586,-212.893 224.208,-201.763 209.893,-192.034"/>
<polygon fill="black" stroke="black" points="211.532,-188.916 201.293,-186.19 207.597,-194.705 211.532,-188.916"/>
</g>
<!-- calibration_year -->
<g id="node5" class="node"><title>calibration_year</title>
<path fill="#ffffcc" stroke="black" d="M222,-258C222,-258 130,-258 130,-258 124,-258 118,-252 118,-246 118,-246 118,-234 118,-234 118,-228 124,-222 130,-222 130,-222 222,-222 222,-222 228,-222 234,-228 234,-234 234,-234 234,-246 234,-246 234,-252 228,-258 222,-258"/>
<text text-anchor="middle" x="176" y="-236.3" font-family="Helvetica,sans-Serif" font-size="14.00">calibration_year</text>
</g>
<!-- calibration_year&#45;&gt;get_predictor_matrix -->
<g id="edge4" class="edge"><title>calibration_year&#45;&gt;get_predictor_matrix</title>
<path fill="none" stroke="black" d="M176,-221.697C176,-213.983 176,-204.712 176,-196.112"/>
<polygon fill="black" stroke="black" points="179.5,-196.104 176,-186.104 172.5,-196.104 179.5,-196.104"/>
</g>
<!-- min.width -->
<g id="node6" class="node"><title>min.width</title>
<path fill="#fcfcfc" stroke="black" d="M87.5,-258C87.5,-258 36.5,-258 36.5,-258 30.5,-258 24.5,-252 24.5,-246 24.5,-246 24.5,-234 24.5,-234 24.5,-228 30.5,-222 36.5,-222 36.5,-222 87.5,-222 87.5,-222 93.5,-222 99.5,-228 99.5,-234 99.5,-234 99.5,-246 99.5,-246 99.5,-252 93.5,-258 87.5,-258"/>
<text text-anchor="middle" x="62" y="-236.3" font-family="Helvetica,sans-Serif" font-size="14.00">min.width</text>
</g>
<!-- min.width&#45;&gt;get_predictor_matrix -->
<g id="edge5" class="edge"><title>min.width&#45;&gt;get_predictor_matrix</title>
<path fill="none" stroke="black" d="M89.8875,-221.876C104.793,-212.724 123.329,-201.342 139.382,-191.485"/>
<polygon fill="black" stroke="black" points="141.315,-194.405 148.005,-186.19 137.652,-188.44 141.315,-194.405"/>
</g>
<!-- itrdb_input_port -->
<g id="node7" class="node"><title>itrdb_input_port</title>
<ellipse fill="#ffffff" stroke="black" cx="208" cy="-305" rx="7" ry="7"/>
</g>
<!-- itrdb_input_port&#45;&gt;itrdb -->
<g id="edge6" class="edge"><title>itrdb_input_port&#45;&gt;itrdb</title>
<path fill="none" stroke="black" d="M213.03,-299.779C219.869,-294.019 232.46,-283.344 243,-274 246.212,-271.153 249.561,-268.141 252.868,-265.141"/>
<polygon fill="black" stroke="black" points="255.396,-267.573 260.423,-258.247 250.677,-262.403 255.396,-267.573"/>
</g>
<!-- calibration_year_input_port -->
<g id="node8" class="node"><title>calibration_year_input_port</title>
<ellipse fill="#ffffff" stroke="black" cx="176" cy="-305" rx="7" ry="7"/>
</g>
<!-- calibration_year_input_port&#45;&gt;calibration_year -->
<g id="edge7" class="edge"><title>calibration_year_input_port&#45;&gt;calibration_year</title>
<path fill="none" stroke="black" d="M176,-297.729C176,-290.795 176,-279.154 176,-268.215"/>
<polygon fill="black" stroke="black" points="179.5,-268.119 176,-258.119 172.5,-268.119 179.5,-268.119"/>
</g>
<!-- min.width_input_port -->
<g id="node9" class="node"><title>min.width_input_port</title>
<ellipse fill="#ffffff" stroke="black" cx="144" cy="-305" rx="7" ry="7"/>
</g>
<!-- min.width_input_port&#45;&gt;min.width -->
<g id="edge8" class="edge"><title>min.width_input_port&#45;&gt;min.width</title>
<path fill="none" stroke="black" d="M138.62,-299.866C129.311,-292.715 109.554,-277.535 92.4336,-264.382"/>
<polygon fill="black" stroke="black" points="94.3608,-261.449 84.2985,-258.132 90.096,-267 94.3608,-261.449"/>
</g>
</g>
</svg>
