<?xml version="1.0" encoding="UTF-8" standalone="no"?>
<!DOCTYPE svg PUBLIC "-//W3C//DTD SVG 1.1//EN"
 "http://www.w3.org/Graphics/SVG/1.1/DTD/svg11.dtd">
<!-- Generated by graphviz version 2.38.0 (20140413.2041)
 -->
<!-- Title: Workflow Pages: 1 -->
<svg width="314pt" height="344pt"
 viewBox="0.00 0.00 314.00 344.00" xmlns="http://www.w3.org/2000/svg" xmlns:xlink="http://www.w3.org/1999/xlink">
<g id="graph0" class="graph" transform="scale(1 1) rotate(0) translate(4 340)">
<title>Workflow</title>
<polygon fill="white" stroke="none" points="-4,4 -4,-340 310,-340 310,4 -4,4"/>
<g id="clust1" class="cluster"><title>cluster_workflow_box_outer</title>
<polygon fill="none" stroke="black" stroke-width="2" points="8,-62 8,-274 298,-274 298,-62 8,-62"/>
</g>
<g id="clust2" class="cluster"><title>cluster_workflow_box_inner</title>
<polygon fill="none" stroke="black" stroke-width="0" points="16,-70 16,-266 290,-266 290,-70 16,-70"/>
</g>
<g id="clust3" class="cluster"><title>cluster_input_ports_group_outer</title>
<polygon fill="none" stroke="black" stroke-width="0" points="111,-282 111,-328 189,-328 189,-282 111,-282"/>
</g>
<g id="clust4" class="cluster"><title>cluster_input_ports_group_inner</title>
<polygon fill="none" stroke="black" stroke-width="0" points="119,-290 119,-320 181,-320 181,-290 119,-290"/>
</g>
<g id="clust5" class="cluster"><title>cluster_output_ports_group_outer</title>
<polygon fill="none" stroke="black" stroke-width="0" points="127,-8 127,-54 173,-54 173,-8 127,-8"/>
</g>
<g id="clust6" class="cluster"><title>cluster_output_ports_group_inner</title>
<polygon fill="none" stroke="black" stroke-width="0" points="135,-16 135,-46 165,-46 165,-16 135,-16"/>
</g>
<!-- get_car_scores -->
<g id="node1" class="node"><title>get_car_scores</title>
<polygon fill="#ccffcc" stroke="black" points="208,-186 92,-186 92,-150 208,-150 208,-186"/>
<text text-anchor="middle" x="150" y="-164.3" font-family="Helvetica,sans-Serif" font-size="14.00">get_car_scores</text>
</g>
<!-- carscores -->
<g id="node2" class="node"><title>carscores</title>
<path fill="#ffffcc" stroke="black" d="M178,-114C178,-114 122,-114 122,-114 116,-114 110,-108 110,-102 110,-102 110,-90 110,-90 110,-84 116,-78 122,-78 122,-78 178,-78 178,-78 184,-78 190,-84 190,-90 190,-90 190,-102 190,-102 190,-108 184,-114 178,-114"/>
<text text-anchor="middle" x="150" y="-92.3" font-family="Helvetica,sans-Serif" font-size="14.00">carscores</text>
</g>
<!-- get_car_scores&#45;&gt;carscores -->
<g id="edge1" class="edge"><title>get_car_scores&#45;&gt;carscores</title>
<path fill="none" stroke="black" d="M150,-149.697C150,-141.983 150,-132.712 150,-124.112"/>
<polygon fill="black" stroke="black" points="153.5,-124.104 150,-114.104 146.5,-124.104 153.5,-124.104"/>
</g>
<!-- carscores_output_port -->
<g id="node7" class="node"><title>carscores_output_port</title>
<ellipse fill="#ffffff" stroke="black" cx="150" cy="-31" rx="7" ry="7"/>
</g>
<!-- carscores&#45;&gt;carscores_output_port -->
<g id="edge6" class="edge"><title>carscores&#45;&gt;carscores_output_port</title>
<path fill="none" stroke="black" d="M150,-77.785C150,-68.6656 150,-57.5197 150,-48.5085"/>
<polygon fill="black" stroke="black" points="153.5,-48.242 150,-38.242 146.5,-48.2421 153.5,-48.242"/>
</g>
<!-- predictand.matrix -->
<g id="node3" class="node"><title>predictand.matrix</title>
<path fill="#ffffcc" stroke="black" d="M269.5,-258C269.5,-258 168.5,-258 168.5,-258 162.5,-258 156.5,-252 156.5,-246 156.5,-246 156.5,-234 156.5,-234 156.5,-228 162.5,-222 168.5,-222 168.5,-222 269.5,-222 269.5,-222 275.5,-222 281.5,-228 281.5,-234 281.5,-234 281.5,-246 281.5,-246 281.5,-252 275.5,-258 269.5,-258"/>
<text text-anchor="middle" x="219" y="-236.3" font-family="Helvetica,sans-Serif" font-size="14.00">predictand.matrix</text>
</g>
<!-- predictand.matrix&#45;&gt;get_car_scores -->
<g id="edge2" class="edge"><title>predictand.matrix&#45;&gt;get_car_scores</title>
<path fill="none" stroke="black" d="M201.944,-221.697C193.505,-213.135 183.175,-202.656 173.957,-193.304"/>
<polygon fill="black" stroke="black" points="176.373,-190.769 166.86,-186.104 171.387,-195.683 176.373,-190.769"/>
</g>
<!-- predictor.matrix -->
<g id="node4" class="node"><title>predictor.matrix</title>
<path fill="#ffffcc" stroke="black" d="M126,-258C126,-258 36,-258 36,-258 30,-258 24,-252 24,-246 24,-246 24,-234 24,-234 24,-228 30,-222 36,-222 36,-222 126,-222 126,-222 132,-222 138,-228 138,-234 138,-234 138,-246 138,-246 138,-252 132,-258 126,-258"/>
<text text-anchor="middle" x="81" y="-236.3" font-family="Helvetica,sans-Serif" font-size="14.00">predictor.matrix</text>
</g>
<!-- predictor.matrix&#45;&gt;get_car_scores -->
<g id="edge3" class="edge"><title>predictor.matrix&#45;&gt;get_car_scores</title>
<path fill="none" stroke="black" d="M98.0562,-221.697C106.495,-213.135 116.825,-202.656 126.043,-193.304"/>
<polygon fill="black" stroke="black" points="128.613,-195.683 133.14,-186.104 123.627,-190.769 128.613,-195.683"/>
</g>
<!-- predictand.matrix_input_port -->
<g id="node5" class="node"><title>predictand.matrix_input_port</title>
<ellipse fill="#ffffff" stroke="black" cx="166" cy="-305" rx="7" ry="7"/>
</g>
<!-- predictand.matrix_input_port&#45;&gt;predictand.matrix -->
<g id="edge4" class="edge"><title>predictand.matrix_input_port&#45;&gt;predictand.matrix</title>
<path fill="none" stroke="black" d="M170.159,-299.056C176.164,-291.918 187.68,-278.229 198.022,-265.936"/>
<polygon fill="black" stroke="black" points="200.819,-268.048 204.579,-258.142 195.463,-263.541 200.819,-268.048"/>
</g>
<!-- predictor.matrix_input_port -->
<g id="node6" class="node"><title>predictor.matrix_input_port</title>
<ellipse fill="#ffffff" stroke="black" cx="134" cy="-305" rx="7" ry="7"/>
</g>
<!-- predictor.matrix_input_port&#45;&gt;predictor.matrix -->
<g id="edge5" class="edge"><title>predictor.matrix_input_port&#45;&gt;predictor.matrix</title>
<path fill="none" stroke="black" d="M129.841,-299.056C123.836,-291.918 112.32,-278.229 101.978,-265.936"/>
<polygon fill="black" stroke="black" points="104.537,-263.541 95.4212,-258.142 99.1806,-268.048 104.537,-263.541"/>
</g>
</g>
</svg>
