<?xml version="1.0" encoding="UTF-8" standalone="no"?>
<!DOCTYPE svg PUBLIC "-//W3C//DTD SVG 1.1//EN"
 "http://www.w3.org/Graphics/SVG/1.1/DTD/svg11.dtd">
<!-- Generated by graphviz version 2.38.0 (20140413.2041)
 -->
<!-- Title: Workflow Pages: 1 -->
<svg width="557pt" height="174pt"
 viewBox="0.00 0.00 557.00 174.00" xmlns="http://www.w3.org/2000/svg" xmlns:xlink="http://www.w3.org/1999/xlink">
<g id="graph0" class="graph" transform="scale(1 1) rotate(0) translate(4 170)">
<title>Workflow</title>
<polygon fill="white" stroke="none" points="-4,4 -4,-170 553,-170 553,4 -4,4"/>
<text text-anchor="middle" x="274.5" y="-147.6" font-family="Helvetica,sans-Serif" font-size="18.00">get_car_scores</text>
<g id="clust1" class="cluster"><title>cluster_workflow_box_outer</title>
<polygon fill="none" stroke="black" stroke-width="2" points="62,-8 62,-130 487,-130 487,-8 62,-8"/>
</g>
<g id="clust2" class="cluster"><title>cluster_workflow_box_inner</title>
<polygon fill="none" stroke="black" stroke-width="0" points="70,-16 70,-122 479,-122 479,-16 70,-16"/>
</g>
<g id="clust3" class="cluster"><title>cluster_input_ports_group_outer</title>
<polygon fill="none" stroke="black" stroke-width="0" points="8,-30 8,-108 54,-108 54,-30 8,-30"/>
</g>
<g id="clust4" class="cluster"><title>cluster_input_ports_group_inner</title>
<polygon fill="none" stroke="black" stroke-width="0" points="16,-38 16,-100 46,-100 46,-38 16,-38"/>
</g>
<g id="clust5" class="cluster"><title>cluster_output_ports_group_outer</title>
<polygon fill="none" stroke="black" stroke-width="0" points="495,-46 495,-92 541,-92 541,-46 495,-46"/>
</g>
<g id="clust6" class="cluster"><title>cluster_output_ports_group_inner</title>
<polygon fill="none" stroke="black" stroke-width="0" points="503,-54 503,-84 533,-84 533,-54 503,-54"/>
</g>
<!-- get_car_scores -->
<g id="node1" class="node"><title>get_car_scores</title>
<polygon fill="#ccffcc" stroke="black" points="355,-87 239,-87 239,-51 355,-51 355,-87"/>
<text text-anchor="middle" x="297" y="-65.3" font-family="Helvetica,sans-Serif" font-size="14.00">get_car_scores</text>
</g>
<!-- carscores -->
<g id="node2" class="node"><title>carscores</title>
<path fill="#ffffcc" stroke="black" d="M459,-87C459,-87 403,-87 403,-87 397,-87 391,-81 391,-75 391,-75 391,-63 391,-63 391,-57 397,-51 403,-51 403,-51 459,-51 459,-51 465,-51 471,-57 471,-63 471,-63 471,-75 471,-75 471,-81 465,-87 459,-87"/>
<text text-anchor="middle" x="431" y="-65.3" font-family="Helvetica,sans-Serif" font-size="14.00">carscores</text>
</g>
<!-- get_car_scores&#45;&gt;carscores -->
<g id="edge1" class="edge"><title>get_car_scores&#45;&gt;carscores</title>
<path fill="none" stroke="black" d="M355.129,-69C363.556,-69 372.179,-69 380.435,-69"/>
<polygon fill="black" stroke="black" points="380.655,-72.5001 390.655,-69 380.655,-65.5001 380.655,-72.5001"/>
</g>
<!-- carscores_output_port -->
<g id="node7" class="node"><title>carscores_output_port</title>
<ellipse fill="#ffffff" stroke="black" cx="518" cy="-69" rx="7" ry="7"/>
</g>
<!-- carscores&#45;&gt;carscores_output_port -->
<g id="edge6" class="edge"><title>carscores&#45;&gt;carscores_output_port</title>
<path fill="none" stroke="black" d="M471.017,-69C481.459,-69 492.182,-69 500.645,-69"/>
<polygon fill="black" stroke="black" points="500.836,-72.5001 510.836,-69 500.836,-65.5001 500.836,-72.5001"/>
</g>
<!-- predictand.matrix -->
<g id="node3" class="node"><title>predictand.matrix</title>
<path fill="#ffffcc" stroke="black" d="M191,-114C191,-114 90,-114 90,-114 84,-114 78,-108 78,-102 78,-102 78,-90 78,-90 78,-84 84,-78 90,-78 90,-78 191,-78 191,-78 197,-78 203,-84 203,-90 203,-90 203,-102 203,-102 203,-108 197,-114 191,-114"/>
<text text-anchor="middle" x="140.5" y="-92.3" font-family="Helvetica,sans-Serif" font-size="14.00">predictand.matrix</text>
</g>
<!-- predictand.matrix&#45;&gt;get_car_scores -->
<g id="edge2" class="edge"><title>predictand.matrix&#45;&gt;get_car_scores</title>
<path fill="none" stroke="black" d="M203.006,-85.2513C211.474,-83.7715 220.205,-82.2457 228.769,-80.749"/>
<polygon fill="black" stroke="black" points="229.472,-84.1794 238.72,-79.01 228.267,-77.2839 229.472,-84.1794"/>
</g>
<!-- predictor.matrix -->
<g id="node4" class="node"><title>predictor.matrix</title>
<path fill="#ffffcc" stroke="black" d="M185.5,-60C185.5,-60 95.5,-60 95.5,-60 89.5,-60 83.5,-54 83.5,-48 83.5,-48 83.5,-36 83.5,-36 83.5,-30 89.5,-24 95.5,-24 95.5,-24 185.5,-24 185.5,-24 191.5,-24 197.5,-30 197.5,-36 197.5,-36 197.5,-48 197.5,-48 197.5,-54 191.5,-60 185.5,-60"/>
<text text-anchor="middle" x="140.5" y="-38.3" font-family="Helvetica,sans-Serif" font-size="14.00">predictor.matrix</text>
</g>
<!-- predictor.matrix&#45;&gt;get_car_scores -->
<g id="edge3" class="edge"><title>predictor.matrix&#45;&gt;get_car_scores</title>
<path fill="none" stroke="black" d="M197.715,-51.824C207.85,-53.5951 218.507,-55.4575 228.914,-57.2762"/>
<polygon fill="black" stroke="black" points="228.336,-60.7283 238.79,-59.0021 229.542,-53.8328 228.336,-60.7283"/>
</g>
<!-- predictand.matrix_input_port -->
<g id="node5" class="node"><title>predictand.matrix_input_port</title>
<ellipse fill="#ffffff" stroke="black" cx="31" cy="-85" rx="7" ry="7"/>
</g>
<!-- predictand.matrix_input_port&#45;&gt;predictand.matrix -->
<g id="edge4" class="edge"><title>predictand.matrix_input_port&#45;&gt;predictand.matrix</title>
<path fill="none" stroke="black" d="M38.0877,-85.6229C44.5013,-86.2792 55.3636,-87.3907 67.6551,-88.6484"/>
<polygon fill="black" stroke="black" points="67.457,-92.1464 77.7614,-89.6826 68.1696,-85.1827 67.457,-92.1464"/>
</g>
<!-- predictor.matrix_input_port -->
<g id="node6" class="node"><title>predictor.matrix_input_port</title>
<ellipse fill="#ffffff" stroke="black" cx="31" cy="-53" rx="7" ry="7"/>
</g>
<!-- predictor.matrix_input_port&#45;&gt;predictor.matrix -->
<g id="edge5" class="edge"><title>predictor.matrix_input_port&#45;&gt;predictor.matrix</title>
<path fill="none" stroke="black" d="M38.0877,-52.3771C45.4496,-51.6238 58.6731,-50.2707 73.1916,-48.785"/>
<polygon fill="black" stroke="black" points="73.8018,-52.241 83.3935,-47.7411 73.0892,-45.2773 73.8018,-52.241"/>
</g>
</g>
</svg>
