<?xml version="1.0" encoding="UTF-8" standalone="no"?>
<!DOCTYPE svg PUBLIC "-//W3C//DTD SVG 1.1//EN"
 "http://www.w3.org/Graphics/SVG/1.1/DTD/svg11.dtd">
<!-- Generated by graphviz version 2.38.0 (20140413.2041)
 -->
<!-- Title: Workflow Pages: 1 -->
<svg width="314pt" height="288pt"
 viewBox="0.00 0.00 314.00 288.00" xmlns="http://www.w3.org/2000/svg" xmlns:xlink="http://www.w3.org/1999/xlink">
<g id="graph0" class="graph" transform="scale(1 1) rotate(0) translate(4 284)">
<title>Workflow</title>
<polygon fill="white" stroke="none" points="-4,4 -4,-284 310,-284 310,4 -4,4"/>
<g id="clust1" class="cluster"><title>cluster_workflow_box_outer</title>
<polygon fill="none" stroke="black" stroke-width="2" points="8,-34 8,-246 298,-246 298,-34 8,-34"/>
</g>
<g id="clust2" class="cluster"><title>cluster_workflow_box_inner</title>
<polygon fill="none" stroke="black" stroke-width="0" points="16,-42 16,-238 290,-238 290,-42 16,-42"/>
</g>
<!-- get_car_scores -->
<g id="node1" class="node"><title>get_car_scores</title>
<polygon fill="#ccffcc" stroke="black" points="213,-158 97,-158 97,-122 213,-122 213,-158"/>
<text text-anchor="middle" x="155" y="-136.3" font-family="Helvetica,sans-Serif" font-size="14.00">get_car_scores</text>
</g>
<!-- carscores -->
<g id="node2" class="node"><title>carscores</title>
<path fill="#ffffcc" stroke="black" d="M183,-86C183,-86 127,-86 127,-86 121,-86 115,-80 115,-74 115,-74 115,-62 115,-62 115,-56 121,-50 127,-50 127,-50 183,-50 183,-50 189,-50 195,-56 195,-62 195,-62 195,-74 195,-74 195,-80 189,-86 183,-86"/>
<text text-anchor="middle" x="155" y="-64.3" font-family="Helvetica,sans-Serif" font-size="14.00">carscores</text>
</g>
<!-- get_car_scores&#45;&gt;carscores -->
<g id="edge1" class="edge"><title>get_car_scores&#45;&gt;carscores</title>
<path fill="none" stroke="black" d="M155,-121.697C155,-113.983 155,-104.712 155,-96.1124"/>
<polygon fill="black" stroke="black" points="158.5,-96.1043 155,-86.1043 151.5,-96.1044 158.5,-96.1043"/>
</g>
<!-- carscores_output_port -->
<g id="node7" class="node"><title>carscores_output_port</title>
<ellipse fill="#ffffff" stroke="black" cx="155" cy="-7" rx="7" ry="7"/>
</g>
<!-- carscores&#45;&gt;carscores_output_port -->
<g id="edge6" class="edge"><title>carscores&#45;&gt;carscores_output_port</title>
<path fill="none" stroke="black" d="M155,-49.9348C155,-41.8859 155,-32.3254 155,-24.3671"/>
<polygon fill="black" stroke="black" points="158.5,-24.2164 155,-14.2164 151.5,-24.2165 158.5,-24.2164"/>
</g>
<!-- predictand.matrix -->
<g id="node3" class="node"><title>predictand.matrix</title>
<path fill="#ffffcc" stroke="black" d="M137.5,-230C137.5,-230 36.5,-230 36.5,-230 30.5,-230 24.5,-224 24.5,-218 24.5,-218 24.5,-206 24.5,-206 24.5,-200 30.5,-194 36.5,-194 36.5,-194 137.5,-194 137.5,-194 143.5,-194 149.5,-200 149.5,-206 149.5,-206 149.5,-218 149.5,-218 149.5,-224 143.5,-230 137.5,-230"/>
<text text-anchor="middle" x="87" y="-208.3" font-family="Helvetica,sans-Serif" font-size="14.00">predictand.matrix</text>
</g>
<!-- predictand.matrix&#45;&gt;get_car_scores -->
<g id="edge2" class="edge"><title>predictand.matrix&#45;&gt;get_car_scores</title>
<path fill="none" stroke="black" d="M103.809,-193.697C112.126,-185.135 122.305,-174.656 131.39,-165.304"/>
<polygon fill="black" stroke="black" points="133.927,-167.716 138.384,-158.104 128.906,-162.838 133.927,-167.716"/>
</g>
<!-- predictor.matrix -->
<g id="node4" class="node"><title>predictor.matrix</title>
<path fill="#ffffcc" stroke="black" d="M270,-230C270,-230 180,-230 180,-230 174,-230 168,-224 168,-218 168,-218 168,-206 168,-206 168,-200 174,-194 180,-194 180,-194 270,-194 270,-194 276,-194 282,-200 282,-206 282,-206 282,-218 282,-218 282,-224 276,-230 270,-230"/>
<text text-anchor="middle" x="225" y="-208.3" font-family="Helvetica,sans-Serif" font-size="14.00">predictor.matrix</text>
</g>
<!-- predictor.matrix&#45;&gt;get_car_scores -->
<g id="edge3" class="edge"><title>predictor.matrix&#45;&gt;get_car_scores</title>
<path fill="none" stroke="black" d="M207.697,-193.697C199.135,-185.135 188.656,-174.656 179.304,-165.304"/>
<polygon fill="black" stroke="black" points="181.65,-162.701 172.104,-158.104 176.701,-167.65 181.65,-162.701"/>
</g>
<!-- predictand.matrix_input_port -->
<g id="node5" class="node"><title>predictand.matrix_input_port</title>
<ellipse fill="#ffffff" stroke="black" cx="87" cy="-273" rx="7" ry="7"/>
</g>
<!-- predictand.matrix_input_port&#45;&gt;predictand.matrix -->
<g id="edge4" class="edge"><title>predictand.matrix_input_port&#45;&gt;predictand.matrix</title>
<path fill="none" stroke="black" d="M87,-265.686C87,-259.486 87,-249.595 87,-240.048"/>
<polygon fill="black" stroke="black" points="90.5001,-240.016 87,-230.016 83.5001,-240.016 90.5001,-240.016"/>
</g>
<!-- predictor.matrix_input_port -->
<g id="node6" class="node"><title>predictor.matrix_input_port</title>
<ellipse fill="#ffffff" stroke="black" cx="225" cy="-273" rx="7" ry="7"/>
</g>
<!-- predictor.matrix_input_port&#45;&gt;predictor.matrix -->
<g id="edge5" class="edge"><title>predictor.matrix_input_port&#45;&gt;predictor.matrix</title>
<path fill="none" stroke="black" d="M225,-265.686C225,-259.486 225,-249.595 225,-240.048"/>
<polygon fill="black" stroke="black" points="228.5,-240.016 225,-230.016 221.5,-240.016 228.5,-240.016"/>
</g>
</g>
</svg>
