<?xml version="1.0" encoding="UTF-8" standalone="no"?>
<!DOCTYPE svg PUBLIC "-//W3C//DTD SVG 1.1//EN"
 "http://www.w3.org/Graphics/SVG/1.1/DTD/svg11.dtd">
<!-- Generated by graphviz version 2.38.0 (20140413.2041)
 -->
<!-- Title: Workflow Pages: 1 -->
<svg width="548pt" height="728pt"
 viewBox="0.00 0.00 548.00 728.00" xmlns="http://www.w3.org/2000/svg" xmlns:xlink="http://www.w3.org/1999/xlink">
<g id="graph0" class="graph" transform="scale(1 1) rotate(0) translate(4 724)">
<title>Workflow</title>
<polygon fill="white" stroke="none" points="-4,4 -4,-724 544,-724 544,4 -4,4"/>
<g id="clust1" class="cluster"><title>cluster_workflow_box_outer</title>
<polygon fill="none" stroke="black" stroke-width="2" points="8,-34 8,-686 532,-686 532,-34 8,-34"/>
</g>
<g id="clust2" class="cluster"><title>cluster_workflow_box_inner</title>
<polygon fill="none" stroke="black" stroke-width="0" points="16,-42 16,-678 524,-678 524,-42 16,-42"/>
</g>
<!-- get_predictor_matrix -->
<g id="node1" class="node"><title>get_predictor_matrix</title>
<polygon fill="#ccffcc" stroke="black" points="487.5,-598 340.5,-598 340.5,-562 487.5,-562 487.5,-598"/>
<text text-anchor="middle" x="414" y="-576.3" font-family="Helvetica,sans-Serif" font-size="14.00">get_predictor_matrix</text>
</g>
<!-- predictor.matrix -->
<g id="node10" class="node"><title>predictor.matrix</title>
<path fill="#ffffcc" stroke="black" d="M459,-526C459,-526 369,-526 369,-526 363,-526 357,-520 357,-514 357,-514 357,-502 357,-502 357,-496 363,-490 369,-490 369,-490 459,-490 459,-490 465,-490 471,-496 471,-502 471,-502 471,-514 471,-514 471,-520 465,-526 459,-526"/>
<text text-anchor="middle" x="414" y="-504.3" font-family="Helvetica,sans-Serif" font-size="14.00">predictor.matrix</text>
</g>
<!-- get_predictor_matrix&#45;&gt;predictor.matrix -->
<g id="edge1" class="edge"><title>get_predictor_matrix&#45;&gt;predictor.matrix</title>
<path fill="none" stroke="black" d="M414,-561.697C414,-553.983 414,-544.712 414,-536.112"/>
<polygon fill="black" stroke="black" points="417.5,-536.104 414,-526.104 410.5,-536.104 417.5,-536.104"/>
</g>
<!-- max.preds -->
<g id="node13" class="node"><title>max.preds</title>
<path fill="#ffffcc" stroke="black" d="M481.5,-454C481.5,-454 422.5,-454 422.5,-454 416.5,-454 410.5,-448 410.5,-442 410.5,-442 410.5,-430 410.5,-430 410.5,-424 416.5,-418 422.5,-418 422.5,-418 481.5,-418 481.5,-418 487.5,-418 493.5,-424 493.5,-430 493.5,-430 493.5,-442 493.5,-442 493.5,-448 487.5,-454 481.5,-454"/>
<text text-anchor="middle" x="452" y="-432.3" font-family="Helvetica,sans-Serif" font-size="14.00">max.preds</text>
</g>
<!-- get_predictor_matrix&#45;&gt;max.preds -->
<g id="edge2" class="edge"><title>get_predictor_matrix&#45;&gt;max.preds</title>
<path fill="none" stroke="black" d="M446.053,-561.88C459.12,-553.055 472.82,-540.974 480,-526 489.721,-505.726 480.669,-481.273 470.343,-463.132"/>
<polygon fill="black" stroke="black" points="473.128,-460.977 464.921,-454.277 467.158,-464.633 473.128,-460.977"/>
</g>
<!-- get_reconstruction_matrix -->
<g id="node2" class="node"><title>get_reconstruction_matrix</title>
<polygon fill="#ccffcc" stroke="black" points="275,-598 95,-598 95,-562 275,-562 275,-598"/>
<text text-anchor="middle" x="185" y="-576.3" font-family="Helvetica,sans-Serif" font-size="14.00">get_reconstruction_matrix</text>
</g>
<!-- reconstruction.matrix -->
<g id="node9" class="node"><title>reconstruction.matrix</title>
<path fill="#ffffcc" stroke="black" d="M183.5,-526C183.5,-526 60.5,-526 60.5,-526 54.5,-526 48.5,-520 48.5,-514 48.5,-514 48.5,-502 48.5,-502 48.5,-496 54.5,-490 60.5,-490 60.5,-490 183.5,-490 183.5,-490 189.5,-490 195.5,-496 195.5,-502 195.5,-502 195.5,-514 195.5,-514 195.5,-520 189.5,-526 183.5,-526"/>
<text text-anchor="middle" x="122" y="-504.3" font-family="Helvetica,sans-Serif" font-size="14.00">reconstruction.matrix</text>
</g>
<!-- get_reconstruction_matrix&#45;&gt;reconstruction.matrix -->
<g id="edge6" class="edge"><title>get_reconstruction_matrix&#45;&gt;reconstruction.matrix</title>
<path fill="none" stroke="black" d="M169.427,-561.697C161.798,-553.22 152.477,-542.864 144.124,-533.583"/>
<polygon fill="black" stroke="black" points="146.685,-531.196 137.394,-526.104 141.482,-535.879 146.685,-531.196"/>
</g>
<!-- get_predlist -->
<g id="node3" class="node"><title>get_predlist</title>
<polygon fill="#ccffcc" stroke="black" points="198,-454 106,-454 106,-418 198,-418 198,-454"/>
<text text-anchor="middle" x="152" y="-432.3" font-family="Helvetica,sans-Serif" font-size="14.00">get_predlist</text>
</g>
<!-- predlist -->
<g id="node11" class="node"><title>predlist</title>
<path fill="#ffffcc" stroke="black" d="M199.5,-382C199.5,-382 160.5,-382 160.5,-382 154.5,-382 148.5,-376 148.5,-370 148.5,-370 148.5,-358 148.5,-358 148.5,-352 154.5,-346 160.5,-346 160.5,-346 199.5,-346 199.5,-346 205.5,-346 211.5,-352 211.5,-358 211.5,-358 211.5,-370 211.5,-370 211.5,-376 205.5,-382 199.5,-382"/>
<text text-anchor="middle" x="180" y="-360.3" font-family="Helvetica,sans-Serif" font-size="14.00">predlist</text>
</g>
<!-- get_predlist&#45;&gt;predlist -->
<g id="edge10" class="edge"><title>get_predlist&#45;&gt;predlist</title>
<path fill="none" stroke="black" d="M158.921,-417.697C162.075,-409.813 165.878,-400.304 169.381,-391.546"/>
<polygon fill="black" stroke="black" points="172.694,-392.689 173.158,-382.104 166.195,-390.089 172.694,-392.689"/>
</g>
<!-- getCarscores -->
<g id="node4" class="node"><title>getCarscores</title>
<polygon fill="#ccffcc" stroke="black" points="349.5,-454 246.5,-454 246.5,-418 349.5,-418 349.5,-454"/>
<text text-anchor="middle" x="298" y="-432.3" font-family="Helvetica,sans-Serif" font-size="14.00">getCarscores</text>
</g>
<!-- carscores -->
<g id="node12" class="node"><title>carscores</title>
<path fill="#ffffcc" stroke="black" d="M326,-382C326,-382 270,-382 270,-382 264,-382 258,-376 258,-370 258,-370 258,-358 258,-358 258,-352 264,-346 270,-346 270,-346 326,-346 326,-346 332,-346 338,-352 338,-358 338,-358 338,-370 338,-370 338,-376 332,-382 326,-382"/>
<text text-anchor="middle" x="298" y="-360.3" font-family="Helvetica,sans-Serif" font-size="14.00">carscores</text>
</g>
<!-- getCarscores&#45;&gt;carscores -->
<g id="edge12" class="edge"><title>getCarscores&#45;&gt;carscores</title>
<path fill="none" stroke="black" d="M298,-417.697C298,-409.983 298,-400.712 298,-392.112"/>
<polygon fill="black" stroke="black" points="301.5,-392.104 298,-382.104 294.5,-392.104 301.5,-392.104"/>
</g>
<!-- optimizeModels -->
<g id="node5" class="node"><title>optimizeModels</title>
<polygon fill="#ccffcc" stroke="black" points="356,-158 240,-158 240,-122 356,-122 356,-158"/>
<text text-anchor="middle" x="298" y="-136.3" font-family="Helvetica,sans-Serif" font-size="14.00">optimizeModels</text>
</g>
<!-- final.models -->
<g id="node7" class="node"><title>final.models</title>
<path fill="#ffffcc" stroke="black" d="M332.5,-86C332.5,-86 263.5,-86 263.5,-86 257.5,-86 251.5,-80 251.5,-74 251.5,-74 251.5,-62 251.5,-62 251.5,-56 257.5,-50 263.5,-50 263.5,-50 332.5,-50 332.5,-50 338.5,-50 344.5,-56 344.5,-62 344.5,-62 344.5,-74 344.5,-74 344.5,-80 338.5,-86 332.5,-86"/>
<text text-anchor="middle" x="298" y="-64.3" font-family="Helvetica,sans-Serif" font-size="14.00">final.models</text>
</g>
<!-- optimizeModels&#45;&gt;final.models -->
<g id="edge19" class="edge"><title>optimizeModels&#45;&gt;final.models</title>
<path fill="none" stroke="black" d="M298,-121.697C298,-113.983 298,-104.712 298,-96.1124"/>
<polygon fill="black" stroke="black" points="301.5,-96.1043 298,-86.1043 294.5,-96.1044 301.5,-96.1043"/>
</g>
<!-- calculateModels -->
<g id="node6" class="node"><title>calculateModels</title>
<polygon fill="#ccffcc" stroke="black" points="357.5,-306 238.5,-306 238.5,-270 357.5,-270 357.5,-306"/>
<polygon fill="none" stroke="black" points="361.5,-310 234.5,-310 234.5,-266 361.5,-266 361.5,-310"/>
<text text-anchor="middle" x="298" y="-284.3" font-family="Helvetica,sans-Serif" font-size="14.00">calculateModels</text>
</g>
<!-- linear.models -->
<g id="node14" class="node"><title>linear.models</title>
<path fill="#ffffcc" stroke="black" d="M336.5,-230C336.5,-230 259.5,-230 259.5,-230 253.5,-230 247.5,-224 247.5,-218 247.5,-218 247.5,-206 247.5,-206 247.5,-200 253.5,-194 259.5,-194 259.5,-194 336.5,-194 336.5,-194 342.5,-194 348.5,-200 348.5,-206 348.5,-206 348.5,-218 348.5,-218 348.5,-224 342.5,-230 336.5,-230"/>
<text text-anchor="middle" x="298" y="-208.3" font-family="Helvetica,sans-Serif" font-size="14.00">linear.models</text>
</g>
<!-- calculateModels&#45;&gt;linear.models -->
<g id="edge15" class="edge"><title>calculateModels&#45;&gt;linear.models</title>
<path fill="none" stroke="black" d="M298,-265.993C298,-258.061 298,-248.915 298,-240.478"/>
<polygon fill="black" stroke="black" points="301.5,-240.315 298,-230.315 294.5,-240.315 301.5,-240.315"/>
</g>
<!-- final.models_output_port -->
<g id="node21" class="node"><title>final.models_output_port</title>
<ellipse fill="#ffffff" stroke="black" cx="298" cy="-7" rx="7" ry="7"/>
</g>
<!-- final.models&#45;&gt;final.models_output_port -->
<g id="edge23" class="edge"><title>final.models&#45;&gt;final.models_output_port</title>
<path fill="none" stroke="black" d="M298,-49.9348C298,-41.8859 298,-32.3254 298,-24.3671"/>
<polygon fill="black" stroke="black" points="301.5,-24.2164 298,-14.2164 294.5,-24.2165 301.5,-24.2164"/>
</g>
<!-- calibration.years -->
<g id="node8" class="node"><title>calibration.years</title>
<path fill="#ffffcc" stroke="black" d="M503.5,-670C503.5,-670 408.5,-670 408.5,-670 402.5,-670 396.5,-664 396.5,-658 396.5,-658 396.5,-646 396.5,-646 396.5,-640 402.5,-634 408.5,-634 408.5,-634 503.5,-634 503.5,-634 509.5,-634 515.5,-640 515.5,-646 515.5,-646 515.5,-658 515.5,-658 515.5,-664 509.5,-670 503.5,-670"/>
<text text-anchor="middle" x="456" y="-648.3" font-family="Helvetica,sans-Serif" font-size="14.00">calibration.years</text>
</g>
<!-- calibration.years&#45;&gt;get_predictor_matrix -->
<g id="edge4" class="edge"><title>calibration.years&#45;&gt;get_predictor_matrix</title>
<path fill="none" stroke="black" d="M445.618,-633.697C440.735,-625.559 434.813,-615.689 429.421,-606.701"/>
<polygon fill="black" stroke="black" points="432.409,-604.879 424.263,-598.104 426.406,-608.48 432.409,-604.879"/>
</g>
<!-- reconstruction.matrix&#45;&gt;get_predlist -->
<g id="edge11" class="edge"><title>reconstruction.matrix&#45;&gt;get_predlist</title>
<path fill="none" stroke="black" d="M129.416,-489.697C132.794,-481.813 136.87,-472.304 140.623,-463.546"/>
<polygon fill="black" stroke="black" points="143.947,-464.675 144.67,-454.104 137.513,-461.917 143.947,-464.675"/>
</g>
<!-- predictor.matrix&#45;&gt;getCarscores -->
<g id="edge14" class="edge"><title>predictor.matrix&#45;&gt;getCarscores</title>
<path fill="none" stroke="black" d="M385.623,-489.876C370.456,-480.724 351.595,-469.342 335.261,-459.485"/>
<polygon fill="black" stroke="black" points="336.856,-456.36 326.486,-454.19 333.239,-462.353 336.856,-456.36"/>
</g>
<!-- predlist&#45;&gt;calculateModels -->
<g id="edge16" class="edge"><title>predlist&#45;&gt;calculateModels</title>
<path fill="none" stroke="black" d="M207.368,-345.837C221.729,-336.831 239.641,-325.598 255.739,-315.503"/>
<polygon fill="black" stroke="black" points="257.85,-318.31 264.462,-310.032 254.131,-312.38 257.85,-318.31"/>
</g>
<!-- carscores&#45;&gt;calculateModels -->
<g id="edge17" class="edge"><title>carscores&#45;&gt;calculateModels</title>
<path fill="none" stroke="black" d="M298,-345.837C298,-338.165 298,-328.878 298,-320.053"/>
<polygon fill="black" stroke="black" points="301.5,-320.032 298,-310.032 294.5,-320.032 301.5,-320.032"/>
</g>
<!-- max.preds&#45;&gt;calculateModels -->
<g id="edge18" class="edge"><title>max.preds&#45;&gt;calculateModels</title>
<path fill="none" stroke="black" d="M434.033,-417.966C407.994,-393.28 359.444,-347.252 327.941,-317.386"/>
<polygon fill="black" stroke="black" points="329.989,-314.504 320.323,-310.164 325.173,-319.584 329.989,-314.504"/>
</g>
<!-- linear.models&#45;&gt;optimizeModels -->
<g id="edge20" class="edge"><title>linear.models&#45;&gt;optimizeModels</title>
<path fill="none" stroke="black" d="M298,-193.697C298,-185.983 298,-176.712 298,-168.112"/>
<polygon fill="black" stroke="black" points="301.5,-168.104 298,-158.104 294.5,-168.104 301.5,-168.104"/>
</g>
<!-- min.width -->
<g id="node15" class="node"><title>min.width</title>
<path fill="#fcfcfc" stroke="black" d="M249.5,-670C249.5,-670 198.5,-670 198.5,-670 192.5,-670 186.5,-664 186.5,-658 186.5,-658 186.5,-646 186.5,-646 186.5,-640 192.5,-634 198.5,-634 198.5,-634 249.5,-634 249.5,-634 255.5,-634 261.5,-640 261.5,-646 261.5,-646 261.5,-658 261.5,-658 261.5,-664 255.5,-670 249.5,-670"/>
<text text-anchor="middle" x="224" y="-648.3" font-family="Helvetica,sans-Serif" font-size="14.00">min.width</text>
</g>
<!-- min.width&#45;&gt;get_predictor_matrix -->
<g id="edge5" class="edge"><title>min.width&#45;&gt;get_predictor_matrix</title>
<path fill="none" stroke="black" d="M261.538,-637.17C289.176,-626.988 327.209,-612.976 358.373,-601.494"/>
<polygon fill="black" stroke="black" points="359.632,-604.76 367.805,-598.019 357.212,-598.192 359.632,-604.76"/>
</g>
<!-- min.width&#45;&gt;get_reconstruction_matrix -->
<g id="edge9" class="edge"><title>min.width&#45;&gt;get_reconstruction_matrix</title>
<path fill="none" stroke="black" d="M214.36,-633.697C209.873,-625.644 204.441,-615.894 199.476,-606.982"/>
<polygon fill="black" stroke="black" points="202.454,-605.137 194.53,-598.104 196.339,-608.544 202.454,-605.137"/>
</g>
<!-- chronologies -->
<g id="node16" class="node"><title>chronologies</title>
<path fill="#fcfcfc" stroke="black" d="M366,-670C366,-670 292,-670 292,-670 286,-670 280,-664 280,-658 280,-658 280,-646 280,-646 280,-640 286,-634 292,-634 292,-634 366,-634 366,-634 372,-634 378,-640 378,-646 378,-646 378,-658 378,-658 378,-664 372,-670 366,-670"/>
<text text-anchor="middle" x="329" y="-648.3" font-family="Helvetica,sans-Serif" font-size="14.00">chronologies</text>
</g>
<!-- chronologies&#45;&gt;get_predictor_matrix -->
<g id="edge3" class="edge"><title>chronologies&#45;&gt;get_predictor_matrix</title>
<path fill="none" stroke="black" d="M350.011,-633.697C360.716,-624.881 373.89,-614.032 385.496,-604.474"/>
<polygon fill="black" stroke="black" points="387.736,-607.163 393.23,-598.104 383.286,-601.76 387.736,-607.163"/>
</g>
<!-- chronologies&#45;&gt;get_reconstruction_matrix -->
<g id="edge7" class="edge"><title>chronologies&#45;&gt;get_reconstruction_matrix</title>
<path fill="none" stroke="black" d="M293.774,-633.876C274.423,-624.469 250.227,-612.708 229.573,-602.667"/>
<polygon fill="black" stroke="black" points="230.886,-599.414 220.362,-598.19 227.825,-605.71 230.886,-599.414"/>
</g>
<!-- reconstruction.years -->
<g id="node17" class="node"><title>reconstruction.years</title>
<path fill="#fcfcfc" stroke="black" d="M156,-670C156,-670 36,-670 36,-670 30,-670 24,-664 24,-658 24,-658 24,-646 24,-646 24,-640 30,-634 36,-634 36,-634 156,-634 156,-634 162,-634 168,-640 168,-646 168,-646 168,-658 168,-658 168,-664 162,-670 156,-670"/>
<text text-anchor="middle" x="96" y="-648.3" font-family="Helvetica,sans-Serif" font-size="14.00">reconstruction.years</text>
</g>
<!-- reconstruction.years&#45;&gt;get_reconstruction_matrix -->
<g id="edge8" class="edge"><title>reconstruction.years&#45;&gt;get_reconstruction_matrix</title>
<path fill="none" stroke="black" d="M118,-633.697C129.209,-624.881 143.002,-614.032 155.154,-604.474"/>
<polygon fill="black" stroke="black" points="157.557,-607.038 163.253,-598.104 153.229,-601.535 157.557,-607.038"/>
</g>
<!-- predictand.matrix -->
<g id="node18" class="node"><title>predictand.matrix</title>
<path fill="#fcfcfc" stroke="black" d="M326.5,-526C326.5,-526 225.5,-526 225.5,-526 219.5,-526 213.5,-520 213.5,-514 213.5,-514 213.5,-502 213.5,-502 213.5,-496 219.5,-490 225.5,-490 225.5,-490 326.5,-490 326.5,-490 332.5,-490 338.5,-496 338.5,-502 338.5,-502 338.5,-514 338.5,-514 338.5,-520 332.5,-526 326.5,-526"/>
<text text-anchor="middle" x="276" y="-504.3" font-family="Helvetica,sans-Serif" font-size="14.00">predictand.matrix</text>
</g>
<!-- predictand.matrix&#45;&gt;getCarscores -->
<g id="edge13" class="edge"><title>predictand.matrix&#45;&gt;getCarscores</title>
<path fill="none" stroke="black" d="M281.438,-489.697C283.889,-481.898 286.84,-472.509 289.568,-463.829"/>
<polygon fill="black" stroke="black" points="292.965,-464.694 292.624,-454.104 286.287,-462.595 292.965,-464.694"/>
</g>
<!-- calibration.years_input_port -->
<g id="node19" class="node"><title>calibration.years_input_port</title>
<ellipse fill="#ffffff" stroke="black" cx="456" cy="-713" rx="7" ry="7"/>
</g>
<!-- calibration.years_input_port&#45;&gt;calibration.years -->
<g id="edge21" class="edge"><title>calibration.years_input_port&#45;&gt;calibration.years</title>
<path fill="none" stroke="black" d="M456,-705.686C456,-699.486 456,-689.595 456,-680.048"/>
<polygon fill="black" stroke="black" points="459.5,-680.016 456,-670.016 452.5,-680.016 459.5,-680.016"/>
</g>
<!-- min.width_input_port -->
<g id="node20" class="node"><title>min.width_input_port</title>
<ellipse fill="#ffffff" stroke="black" cx="224" cy="-713" rx="7" ry="7"/>
</g>
<!-- min.width_input_port&#45;&gt;min.width -->
<g id="edge22" class="edge"><title>min.width_input_port&#45;&gt;min.width</title>
<path fill="none" stroke="black" d="M224,-705.686C224,-699.486 224,-689.595 224,-680.048"/>
<polygon fill="black" stroke="black" points="227.5,-680.016 224,-670.016 220.5,-680.016 227.5,-680.016"/>
</g>
</g>
</svg>
