<?xml version="1.0" encoding="UTF-8" standalone="no"?>
<!DOCTYPE svg PUBLIC "-//W3C//DTD SVG 1.1//EN"
 "http://www.w3.org/Graphics/SVG/1.1/DTD/svg11.dtd">
<!-- Generated by graphviz version 2.38.0 (20140413.2041)
 -->
<!-- Title: Workflow Pages: 1 -->
<svg width="2262pt" height="698pt"
 viewBox="0.00 0.00 2262.18 698.00" xmlns="http://www.w3.org/2000/svg" xmlns:xlink="http://www.w3.org/1999/xlink">
<g id="graph0" class="graph" transform="scale(1 1) rotate(0) translate(4 694)">
<title>Workflow</title>
<polygon fill="white" stroke="none" points="-4,4 -4,-694 2258.18,-694 2258.18,4 -4,4"/>
<g id="clust1" class="cluster"><title>cluster_workflow_box_outer</title>
<polygon fill="none" stroke="black" stroke-width="2" points="52.176,-62 52.176,-628 2246.18,-628 2246.18,-62 52.176,-62"/>
</g>
<g id="clust2" class="cluster"><title>cluster_workflow_box_inner</title>
<polygon fill="none" stroke="black" stroke-width="0" points="60.176,-70 60.176,-620 2238.18,-620 2238.18,-70 60.176,-70"/>
</g>
<g id="clust3" class="cluster"><title>cluster_input_ports_group_outer</title>
<polygon fill="none" stroke="black" stroke-width="0" points="1133.18,-636 1133.18,-682 1435.18,-682 1435.18,-636 1133.18,-636"/>
</g>
<g id="clust4" class="cluster"><title>cluster_input_ports_group_inner</title>
<polygon fill="none" stroke="black" stroke-width="0" points="1141.18,-644 1141.18,-674 1427.18,-674 1427.18,-644 1141.18,-644"/>
</g>
<g id="clust5" class="cluster"><title>cluster_output_ports_group_outer</title>
<polygon fill="none" stroke="black" stroke-width="0" points="639.176,-8 639.176,-54 909.176,-54 909.176,-8 639.176,-8"/>
</g>
<g id="clust6" class="cluster"><title>cluster_output_ports_group_inner</title>
<polygon fill="none" stroke="black" stroke-width="0" points="647.176,-16 647.176,-46 901.176,-46 901.176,-16 647.176,-16"/>
</g>
<!-- get_client_data -->
<g id="node1" class="node"><title>get_client_data</title>
<polygon fill="#ccffcc" stroke="black" points="594.676,-493.5 594.676,-539.5 1255.68,-539.5 1255.68,-493.5 594.676,-493.5"/>
<text text-anchor="middle" x="925.176" y="-524.3" font-family="Helvetica,sans-Serif" font-size="14.00">get_client_data</text>
<polyline fill="none" stroke="black" points="594.676,-516.5 1255.68,-516.5 "/>
<text text-anchor="middle" x="925.176" y="-501.3" font-family="Helvetica,sans-Serif" font-size="14.00">get the data from the user and generate the client side metadata for storing the information of each run.</text>
</g>
<!-- coordinates -->
<g id="node15" class="node"><title>coordinates</title>
<path fill="#ffffcc" stroke="black" d="M744.676,-451.5C744.676,-451.5 677.676,-451.5 677.676,-451.5 671.676,-451.5 665.676,-445.5 665.676,-439.5 665.676,-439.5 665.676,-427.5 665.676,-427.5 665.676,-421.5 671.676,-415.5 677.676,-415.5 677.676,-415.5 744.676,-415.5 744.676,-415.5 750.676,-415.5 756.676,-421.5 756.676,-427.5 756.676,-427.5 756.676,-439.5 756.676,-439.5 756.676,-445.5 750.676,-451.5 744.676,-451.5"/>
<text text-anchor="middle" x="711.176" y="-429.8" font-family="Helvetica,sans-Serif" font-size="14.00">coordinates</text>
</g>
<!-- get_client_data&#45;&gt;coordinates -->
<g id="edge3" class="edge"><title>get_client_data&#45;&gt;coordinates</title>
<path fill="none" stroke="black" d="M866.982,-493.473C835.352,-481.501 796.479,-466.788 765.475,-455.052"/>
<polygon fill="black" stroke="black" points="766.714,-451.779 756.122,-451.512 764.235,-458.326 766.714,-451.779"/>
</g>
<!-- session_id -->
<g id="node16" class="node"><title>session_id</title>
<path fill="#ffffcc" stroke="black" d="M859.176,-451.5C859.176,-451.5 797.176,-451.5 797.176,-451.5 791.176,-451.5 785.176,-445.5 785.176,-439.5 785.176,-439.5 785.176,-427.5 785.176,-427.5 785.176,-421.5 791.176,-415.5 797.176,-415.5 797.176,-415.5 859.176,-415.5 859.176,-415.5 865.176,-415.5 871.176,-421.5 871.176,-427.5 871.176,-427.5 871.176,-439.5 871.176,-439.5 871.176,-445.5 865.176,-451.5 859.176,-451.5"/>
<text text-anchor="middle" x="828.176" y="-429.8" font-family="Helvetica,sans-Serif" font-size="14.00">session_id</text>
</g>
<!-- get_client_data&#45;&gt;session_id -->
<g id="edge1" class="edge"><title>get_client_data&#45;&gt;session_id</title>
<path fill="none" stroke="black" d="M898.67,-493.366C885.664,-482.505 869.979,-469.408 856.711,-458.328"/>
<polygon fill="black" stroke="black" points="858.726,-455.451 848.807,-451.728 854.239,-460.824 858.726,-455.451"/>
</g>
<!-- run_id -->
<g id="node17" class="node"><title>run_id</title>
<path fill="#ffffcc" stroke="black" d="M938.176,-451.5C938.176,-451.5 906.176,-451.5 906.176,-451.5 900.176,-451.5 894.176,-445.5 894.176,-439.5 894.176,-439.5 894.176,-427.5 894.176,-427.5 894.176,-421.5 900.176,-415.5 906.176,-415.5 906.176,-415.5 938.176,-415.5 938.176,-415.5 944.176,-415.5 950.176,-421.5 950.176,-427.5 950.176,-427.5 950.176,-439.5 950.176,-439.5 950.176,-445.5 944.176,-451.5 938.176,-451.5"/>
<text text-anchor="middle" x="922.176" y="-429.8" font-family="Helvetica,sans-Serif" font-size="14.00">run_id</text>
</g>
<!-- get_client_data&#45;&gt;run_id -->
<g id="edge2" class="edge"><title>get_client_data&#45;&gt;run_id</title>
<path fill="none" stroke="black" d="M924.356,-493.366C923.996,-483.632 923.569,-472.102 923.189,-461.838"/>
<polygon fill="black" stroke="black" points="926.682,-461.591 922.814,-451.728 919.687,-461.85 926.682,-461.591"/>
</g>
<!-- prediction_years -->
<g id="node18" class="node"><title>prediction_years</title>
<path fill="#ffffcc" stroke="black" d="M1244.18,-368.5C1244.18,-368.5 1146.18,-368.5 1146.18,-368.5 1140.18,-368.5 1134.18,-362.5 1134.18,-356.5 1134.18,-356.5 1134.18,-344.5 1134.18,-344.5 1134.18,-338.5 1140.18,-332.5 1146.18,-332.5 1146.18,-332.5 1244.18,-332.5 1244.18,-332.5 1250.18,-332.5 1256.18,-338.5 1256.18,-344.5 1256.18,-344.5 1256.18,-356.5 1256.18,-356.5 1256.18,-362.5 1250.18,-368.5 1244.18,-368.5"/>
<text text-anchor="middle" x="1195.18" y="-346.8" font-family="Helvetica,sans-Serif" font-size="14.00">prediction_years</text>
</g>
<!-- get_client_data&#45;&gt;prediction_years -->
<g id="edge4" class="edge"><title>get_client_data&#45;&gt;prediction_years</title>
<path fill="none" stroke="black" d="M961.589,-493.382C1013.05,-462.123 1106.55,-405.334 1158.27,-373.914"/>
<polygon fill="black" stroke="black" points="1160.39,-376.723 1167.12,-368.54 1156.76,-370.74 1160.39,-376.723"/>
</g>
<!-- acccess_static_server_files -->
<g id="node2" class="node"><title>acccess_static_server_files</title>
<polygon fill="#ccffcc" stroke="black" points="68.176,-493.5 68.176,-539.5 576.176,-539.5 576.176,-493.5 68.176,-493.5"/>
<text text-anchor="middle" x="322.176" y="-524.3" font-family="Helvetica,sans-Serif" font-size="14.00">acccess_static_server_files</text>
<polyline fill="none" stroke="black" points="68.176,-516.5 576.176,-516.5 "/>
<text text-anchor="middle" x="322.176" y="-501.3" font-family="Helvetica,sans-Serif" font-size="14.00">the static files available and required for execution of PaleoCAR on the server.</text>
</g>
<!-- prism_data -->
<g id="node5" class="node"><title>prism_data</title>
<path fill="#ffffcc" stroke="black" d="M255.176,-410.5C255.176,-410.5 389.176,-410.5 389.176,-410.5 395.176,-410.5 401.176,-416.5 401.176,-422.5 401.176,-422.5 401.176,-444.5 401.176,-444.5 401.176,-450.5 395.176,-456.5 389.176,-456.5 389.176,-456.5 255.176,-456.5 255.176,-456.5 249.176,-456.5 243.176,-450.5 243.176,-444.5 243.176,-444.5 243.176,-422.5 243.176,-422.5 243.176,-416.5 249.176,-410.5 255.176,-410.5"/>
<text text-anchor="middle" x="322.176" y="-441.3" font-family="Helvetica,sans-Serif" font-size="14.00">prism_data</text>
<polyline fill="none" stroke="black" points="243.176,-433.5 401.176,-433.5 "/>
<text text-anchor="middle" x="322.176" y="-418.3" font-family="Helvetica,sans-Serif" font-size="14.00">file:/data/112W36N.nc</text>
</g>
<!-- acccess_static_server_files&#45;&gt;prism_data -->
<g id="edge7" class="edge"><title>acccess_static_server_files&#45;&gt;prism_data</title>
<path fill="none" stroke="black" d="M322.176,-493.366C322.176,-485.152 322.176,-475.658 322.176,-466.725"/>
<polygon fill="black" stroke="black" points="325.676,-466.607 322.176,-456.607 318.676,-466.607 325.676,-466.607"/>
</g>
<!-- itrdb -->
<g id="node6" class="node"><title>itrdb</title>
<path fill="#ffffcc" stroke="black" d="M162.676,-327.5C162.676,-327.5 269.676,-327.5 269.676,-327.5 275.676,-327.5 281.676,-333.5 281.676,-339.5 281.676,-339.5 281.676,-361.5 281.676,-361.5 281.676,-367.5 275.676,-373.5 269.676,-373.5 269.676,-373.5 162.676,-373.5 162.676,-373.5 156.676,-373.5 150.676,-367.5 150.676,-361.5 150.676,-361.5 150.676,-339.5 150.676,-339.5 150.676,-333.5 156.676,-327.5 162.676,-327.5"/>
<text text-anchor="middle" x="216.176" y="-358.3" font-family="Helvetica,sans-Serif" font-size="14.00">itrdb</text>
<polyline fill="none" stroke="black" points="150.676,-350.5 281.676,-350.5 "/>
<text text-anchor="middle" x="216.176" y="-335.3" font-family="Helvetica,sans-Serif" font-size="14.00">file:/data/itrdb.Rda</text>
</g>
<!-- acccess_static_server_files&#45;&gt;itrdb -->
<g id="edge8" class="edge"><title>acccess_static_server_files&#45;&gt;itrdb</title>
<path fill="none" stroke="black" d="M274.19,-493.379C259.17,-484.178 243.977,-472.072 234.176,-457 220.075,-435.314 215.987,-406.014 215.192,-383.794"/>
<polygon fill="black" stroke="black" points="218.688,-383.466 215.037,-373.52 211.689,-383.571 218.688,-383.466"/>
</g>
<!-- extract_prism_data -->
<g id="node3" class="node"><title>extract_prism_data</title>
<polygon fill="#ccffcc" stroke="black" points="300.176,-327.5 300.176,-373.5 1116.18,-373.5 1116.18,-327.5 300.176,-327.5"/>
<text text-anchor="middle" x="708.176" y="-358.3" font-family="Helvetica,sans-Serif" font-size="14.00">extract_prism_data</text>
<polyline fill="none" stroke="black" points="300.176,-350.5 1116.18,-350.5 "/>
<text text-anchor="middle" x="708.176" y="-335.3" font-family="Helvetica,sans-Serif" font-size="14.00">get the prism data file on the server with precipitation values and extract the data for the input coordinates and save as a csv file.</text>
</g>
<!-- prism_data_for_coordinates -->
<g id="node19" class="node"><title>prism_data_for_coordinates</title>
<path fill="#ffffcc" stroke="black" d="M840.176,-244.5C840.176,-244.5 1130.18,-244.5 1130.18,-244.5 1136.18,-244.5 1142.18,-250.5 1142.18,-256.5 1142.18,-256.5 1142.18,-278.5 1142.18,-278.5 1142.18,-284.5 1136.18,-290.5 1130.18,-290.5 1130.18,-290.5 840.176,-290.5 840.176,-290.5 834.176,-290.5 828.176,-284.5 828.176,-278.5 828.176,-278.5 828.176,-256.5 828.176,-256.5 828.176,-250.5 834.176,-244.5 840.176,-244.5"/>
<text text-anchor="middle" x="985.176" y="-275.3" font-family="Helvetica,sans-Serif" font-size="14.00">prism_data_for_coordinates</text>
<polyline fill="none" stroke="black" points="828.176,-267.5 1142.18,-267.5 "/>
<text text-anchor="middle" x="985.176" y="-252.3" font-family="Helvetica,sans-Serif" font-size="14.00">file:/.output/{session_id}/{run_id}/112W36N.csv</text>
</g>
<!-- extract_prism_data&#45;&gt;prism_data_for_coordinates -->
<g id="edge11" class="edge"><title>extract_prism_data&#45;&gt;prism_data_for_coordinates</title>
<path fill="none" stroke="black" d="M783.502,-327.473C819.532,-316.937 862.822,-304.279 900.042,-293.395"/>
<polygon fill="black" stroke="black" points="901.25,-296.688 909.865,-290.522 899.285,-289.97 901.25,-296.688"/>
</g>
<!-- exec_paleocar -->
<g id="node4" class="node"><title>exec_paleocar</title>
<polygon fill="#ccffcc" stroke="black" points="738.676,-161.5 738.676,-207.5 1745.68,-207.5 1745.68,-161.5 738.676,-161.5"/>
<text text-anchor="middle" x="1242.18" y="-192.3" font-family="Helvetica,sans-Serif" font-size="14.00">exec_paleocar</text>
<polyline fill="none" stroke="black" points="738.676,-184.5 1745.68,-184.5 "/>
<text text-anchor="middle" x="1242.18" y="-169.3" font-family="Helvetica,sans-Serif" font-size="14.00">execute paleocar for reconstruction of paleoclimate of the study region. Generate the timeseries graphs, and paleocar models of paleoclimatic reconstruction.</text>
</g>
<!-- prediction_graph -->
<g id="node7" class="node"><title>prediction_graph</title>
<path fill="#ffffcc" stroke="black" d="M801.676,-78.5C801.676,-78.5 1082.68,-78.5 1082.68,-78.5 1088.68,-78.5 1094.68,-84.5 1094.68,-90.5 1094.68,-90.5 1094.68,-112.5 1094.68,-112.5 1094.68,-118.5 1088.68,-124.5 1082.68,-124.5 1082.68,-124.5 801.676,-124.5 801.676,-124.5 795.676,-124.5 789.676,-118.5 789.676,-112.5 789.676,-112.5 789.676,-90.5 789.676,-90.5 789.676,-84.5 795.676,-78.5 801.676,-78.5"/>
<text text-anchor="middle" x="942.176" y="-109.3" font-family="Helvetica,sans-Serif" font-size="14.00">prediction_graph</text>
<polyline fill="none" stroke="black" points="789.676,-101.5 1094.68,-101.5 "/>
<text text-anchor="middle" x="942.176" y="-86.3" font-family="Helvetica,sans-Serif" font-size="14.00">file:/{session_id}/{run_id}/{label}.prediction.jpg</text>
</g>
<!-- exec_paleocar&#45;&gt;prediction_graph -->
<g id="edge17" class="edge"><title>exec_paleocar&#45;&gt;prediction_graph</title>
<path fill="none" stroke="black" d="M1160.6,-161.473C1121.32,-150.87 1074.09,-138.117 1033.61,-127.187"/>
<polygon fill="black" stroke="black" points="1034.31,-123.75 1023.74,-124.522 1032.48,-130.508 1034.31,-123.75"/>
</g>
<!-- prediction_model -->
<g id="node8" class="node"><title>prediction_model</title>
<path fill="#ffffcc" stroke="black" d="M1125.18,-78.5C1125.18,-78.5 1453.18,-78.5 1453.18,-78.5 1459.18,-78.5 1465.18,-84.5 1465.18,-90.5 1465.18,-90.5 1465.18,-112.5 1465.18,-112.5 1465.18,-118.5 1459.18,-124.5 1453.18,-124.5 1453.18,-124.5 1125.18,-124.5 1125.18,-124.5 1119.18,-124.5 1113.18,-118.5 1113.18,-112.5 1113.18,-112.5 1113.18,-90.5 1113.18,-90.5 1113.18,-84.5 1119.18,-78.5 1125.18,-78.5"/>
<text text-anchor="middle" x="1289.18" y="-109.3" font-family="Helvetica,sans-Serif" font-size="14.00">prediction_model</text>
<polyline fill="none" stroke="black" points="1113.18,-101.5 1465.18,-101.5 "/>
<text text-anchor="middle" x="1289.18" y="-86.3" font-family="Helvetica,sans-Serif" font-size="14.00">file:/.output/{session_id}/{run_id}/{label}.prediction.rds</text>
</g>
<!-- exec_paleocar&#45;&gt;prediction_model -->
<g id="edge16" class="edge"><title>exec_paleocar&#45;&gt;prediction_model</title>
<path fill="none" stroke="black" d="M1255.02,-161.366C1260.04,-152.705 1265.9,-142.622 1271.32,-133.274"/>
<polygon fill="black" stroke="black" points="1274.36,-135.013 1276.35,-124.607 1268.3,-131.5 1274.36,-135.013"/>
</g>
<!-- paleocar_log_file -->
<g id="node9" class="node"><title>paleocar_log_file</title>
<path fill="#ffffcc" stroke="black" d="M1495.68,-78.5C1495.68,-78.5 1842.68,-78.5 1842.68,-78.5 1848.68,-78.5 1854.68,-84.5 1854.68,-90.5 1854.68,-90.5 1854.68,-112.5 1854.68,-112.5 1854.68,-118.5 1848.68,-124.5 1842.68,-124.5 1842.68,-124.5 1495.68,-124.5 1495.68,-124.5 1489.68,-124.5 1483.68,-118.5 1483.68,-112.5 1483.68,-112.5 1483.68,-90.5 1483.68,-90.5 1483.68,-84.5 1489.68,-78.5 1495.68,-78.5"/>
<text text-anchor="middle" x="1669.18" y="-109.3" font-family="Helvetica,sans-Serif" font-size="14.00">paleocar_log_file</text>
<polyline fill="none" stroke="black" points="1483.68,-101.5 1854.68,-101.5 "/>
<text text-anchor="middle" x="1669.18" y="-86.3" font-family="Helvetica,sans-Serif" font-size="14.00">file:/.output/{session_id}/{run_id}/paleocar_model_log.txt</text>
</g>
<!-- exec_paleocar&#45;&gt;paleocar_log_file -->
<g id="edge21" class="edge"><title>exec_paleocar&#45;&gt;paleocar_log_file</title>
<path fill="none" stroke="black" d="M1358.29,-161.473C1415.49,-150.624 1484.55,-137.522 1543.04,-126.427"/>
<polygon fill="black" stroke="black" points="1543.91,-129.825 1553.08,-124.522 1542.61,-122.947 1543.91,-129.825"/>
</g>
<!-- uncertainty_model -->
<g id="node10" class="node"><title>uncertainty_model</title>
<path fill="#ffffcc" stroke="black" d="M1884.68,-78.5C1884.68,-78.5 2217.68,-78.5 2217.68,-78.5 2223.68,-78.5 2229.68,-84.5 2229.68,-90.5 2229.68,-90.5 2229.68,-112.5 2229.68,-112.5 2229.68,-118.5 2223.68,-124.5 2217.68,-124.5 2217.68,-124.5 1884.68,-124.5 1884.68,-124.5 1878.68,-124.5 1872.68,-118.5 1872.68,-112.5 1872.68,-112.5 1872.68,-90.5 1872.68,-90.5 1872.68,-84.5 1878.68,-78.5 1884.68,-78.5"/>
<text text-anchor="middle" x="2051.18" y="-109.3" font-family="Helvetica,sans-Serif" font-size="14.00">uncertainty_model</text>
<polyline fill="none" stroke="black" points="1872.68,-101.5 2229.68,-101.5 "/>
<text text-anchor="middle" x="2051.18" y="-86.3" font-family="Helvetica,sans-Serif" font-size="14.00">file:/.output/{session_id}/{run_id}/{label}.uncertainty.rds</text>
</g>
<!-- exec_paleocar&#45;&gt;uncertainty_model -->
<g id="edge18" class="edge"><title>exec_paleocar&#45;&gt;uncertainty_model</title>
<path fill="none" stroke="black" d="M1492.02,-161.495C1602.76,-151.367 1734.87,-138.776 1862.56,-125.163"/>
<polygon fill="black" stroke="black" points="1862.96,-128.64 1872.53,-124.097 1862.21,-121.68 1862.96,-128.64"/>
</g>
<!-- uncertainty_graph -->
<g id="node11" class="node"><title>uncertainty_graph</title>
<path fill="#ffffcc" stroke="black" d="M80.176,-78.5C80.176,-78.5 412.176,-78.5 412.176,-78.5 418.176,-78.5 424.176,-84.5 424.176,-90.5 424.176,-90.5 424.176,-112.5 424.176,-112.5 424.176,-118.5 418.176,-124.5 412.176,-124.5 412.176,-124.5 80.176,-124.5 80.176,-124.5 74.176,-124.5 68.176,-118.5 68.176,-112.5 68.176,-112.5 68.176,-90.5 68.176,-90.5 68.176,-84.5 74.176,-78.5 80.176,-78.5"/>
<text text-anchor="middle" x="246.176" y="-109.3" font-family="Helvetica,sans-Serif" font-size="14.00">uncertainty_graph</text>
<polyline fill="none" stroke="black" points="68.176,-101.5 424.176,-101.5 "/>
<text text-anchor="middle" x="246.176" y="-86.3" font-family="Helvetica,sans-Serif" font-size="14.00">file:/.output/{session_id}/{run_id}/{label}.uncertainty.jpg</text>
</g>
<!-- exec_paleocar&#45;&gt;uncertainty_graph -->
<g id="edge20" class="edge"><title>exec_paleocar&#45;&gt;uncertainty_graph</title>
<path fill="none" stroke="black" d="M887.201,-161.497C748.839,-151.985 588.711,-139.829 434.469,-125.105"/>
<polygon fill="black" stroke="black" points="434.606,-121.602 424.318,-124.131 433.938,-128.57 434.606,-121.602"/>
</g>
<!-- paleocar_model -->
<g id="node12" class="node"><title>paleocar_model</title>
<path fill="#ffffcc" stroke="black" d="M454.676,-78.5C454.676,-78.5 759.676,-78.5 759.676,-78.5 765.676,-78.5 771.676,-84.5 771.676,-90.5 771.676,-90.5 771.676,-112.5 771.676,-112.5 771.676,-118.5 765.676,-124.5 759.676,-124.5 759.676,-124.5 454.676,-124.5 454.676,-124.5 448.676,-124.5 442.676,-118.5 442.676,-112.5 442.676,-112.5 442.676,-90.5 442.676,-90.5 442.676,-84.5 448.676,-78.5 454.676,-78.5"/>
<text text-anchor="middle" x="607.176" y="-109.3" font-family="Helvetica,sans-Serif" font-size="14.00">paleocar_model</text>
<polyline fill="none" stroke="black" points="442.676,-101.5 771.676,-101.5 "/>
<text text-anchor="middle" x="607.176" y="-86.3" font-family="Helvetica,sans-Serif" font-size="14.00">file:/.output/{session_id}/{run_id}/{label}.model.rds</text>
</g>
<!-- exec_paleocar&#45;&gt;paleocar_model -->
<g id="edge19" class="edge"><title>exec_paleocar&#45;&gt;paleocar_model</title>
<path fill="none" stroke="black" d="M1067.2,-161.485C983.584,-150.93 881.801,-138.032 781.965,-125.228"/>
<polygon fill="black" stroke="black" points="782.363,-121.751 771.999,-123.949 781.472,-128.694 782.363,-121.751"/>
</g>
<!-- prism_data&#45;&gt;extract_prism_data -->
<g id="edge15" class="edge"><title>prism_data&#45;&gt;extract_prism_data</title>
<path fill="none" stroke="black" d="M401.22,-415.913C456.597,-404.292 531.475,-388.58 593.412,-375.583"/>
<polygon fill="black" stroke="black" points="594.169,-379 603.237,-373.521 592.731,-372.149 594.169,-379"/>
</g>
<!-- prism_data_output_port -->
<g id="node35" class="node"><title>prism_data_output_port</title>
<ellipse fill="#ffffff" stroke="black" cx="662.176" cy="-31" rx="7" ry="7"/>
</g>
<!-- prism_data&#45;&gt;prism_data_output_port -->
<g id="edge38" class="edge"><title>prism_data&#45;&gt;prism_data_output_port</title>
<path fill="none" stroke="black" d="M243.075,-426.018C148.314,-413.426 2.17604,-376.498 2.17604,-268.5 2.17604,-268.5 2.17604,-268.5 2.17604,-183.5 2.17604,-127.878 -10.7873,-97.326 32.176,-62 56.5078,-41.9935 546.26,-33.7126 644.94,-32.244"/>
<polygon fill="black" stroke="black" points="645.029,-35.7432 654.978,-32.0983 644.928,-28.7439 645.029,-35.7432"/>
</g>
<!-- itrdb&#45;&gt;exec_paleocar -->
<g id="edge24" class="edge"><title>itrdb&#45;&gt;exec_paleocar</title>
<path fill="none" stroke="black" d="M281.892,-329.236C285.021,-328.444 288.127,-327.694 291.176,-327 538.747,-270.679 827.853,-231.332 1021.74,-208.671"/>
<polygon fill="black" stroke="black" points="1022.24,-212.137 1031.76,-207.504 1021.43,-205.184 1022.24,-212.137"/>
</g>
<!-- itrdb_output_port -->
<g id="node36" class="node"><title>itrdb_output_port</title>
<ellipse fill="#ffffff" stroke="black" cx="694.176" cy="-31" rx="7" ry="7"/>
</g>
<!-- itrdb&#45;&gt;itrdb_output_port -->
<g id="edge39" class="edge"><title>itrdb&#45;&gt;itrdb_output_port</title>
<path fill="none" stroke="black" d="M187.393,-327.433C122.88,-275.493 -21.5289,-143.755 59.176,-62 71.2565,-49.7624 662.903,-61.902 678.176,-54 681.448,-52.3072 684.211,-49.6036 686.472,-46.6623"/>
<polygon fill="black" stroke="black" points="689.59,-48.2698 691.755,-37.8984 683.595,-44.6562 689.59,-48.2698"/>
</g>
<!-- prediction_graph_output_port -->
<g id="node37" class="node"><title>prediction_graph_output_port</title>
<ellipse fill="#ffffff" stroke="black" cx="790.176" cy="-31" rx="7" ry="7"/>
</g>
<!-- prediction_graph&#45;&gt;prediction_graph_output_port -->
<g id="edge40" class="edge"><title>prediction_graph&#45;&gt;prediction_graph_output_port</title>
<path fill="none" stroke="black" d="M851.955,-78.4002C835.825,-72.0785 819.829,-64.075 806.176,-54 803.378,-51.9354 800.866,-49.2387 798.707,-46.4442"/>
<polygon fill="black" stroke="black" points="801.486,-44.2976 793.093,-37.8321 795.622,-48.1206 801.486,-44.2976"/>
</g>
<!-- prediction_model_output_port -->
<g id="node38" class="node"><title>prediction_model_output_port</title>
<ellipse fill="#ffffff" stroke="black" cx="822.176" cy="-31" rx="7" ry="7"/>
</g>
<!-- prediction_model&#45;&gt;prediction_model_output_port -->
<g id="edge41" class="edge"><title>prediction_model&#45;&gt;prediction_model_output_port</title>
<path fill="none" stroke="black" d="M1198.89,-78.4115C1168.93,-71.968 1135.29,-65.6766 1104.18,-62 1074.81,-58.53 864.321,-67.8123 838.176,-54 834.919,-52.2792 832.161,-49.5647 829.901,-46.6217"/>
<polygon fill="black" stroke="black" points="832.78,-44.6191 824.611,-37.8728 826.79,-48.2411 832.78,-44.6191"/>
</g>
<!-- paleocar_log_file_output_port -->
<g id="node39" class="node"><title>paleocar_log_file_output_port</title>
<ellipse fill="#ffffff" stroke="black" cx="854.176" cy="-31" rx="7" ry="7"/>
</g>
<!-- paleocar_log_file&#45;&gt;paleocar_log_file_output_port -->
<g id="edge42" class="edge"><title>paleocar_log_file&#45;&gt;paleocar_log_file_output_port</title>
<path fill="none" stroke="black" d="M1575.48,-78.4183C1543.53,-71.8475 1507.47,-65.4777 1474.18,-62 1457.49,-60.2567 885.078,-61.7129 870.176,-54 866.905,-52.3067 864.141,-49.6029 861.88,-46.6616"/>
<polygon fill="black" stroke="black" points="864.758,-44.6555 856.598,-37.8979 858.763,-48.2692 864.758,-44.6555"/>
</g>
<!-- uncertainty_model_output_port -->
<g id="node40" class="node"><title>uncertainty_model_output_port</title>
<ellipse fill="#ffffff" stroke="black" cx="886.176" cy="-31" rx="7" ry="7"/>
</g>
<!-- uncertainty_model&#45;&gt;uncertainty_model_output_port -->
<g id="edge43" class="edge"><title>uncertainty_model&#45;&gt;uncertainty_model_output_port</title>
<path fill="none" stroke="black" d="M1959.9,-78.428C1929.62,-71.9855 1895.61,-65.6906 1864.18,-62 1667.42,-38.9026 1017.33,-32.9901 903.319,-32.1215"/>
<polygon fill="black" stroke="black" points="903.298,-28.6213 893.273,-32.0477 903.247,-35.6211 903.298,-28.6213"/>
</g>
<!-- uncertainty_graph_output_port -->
<g id="node41" class="node"><title>uncertainty_graph_output_port</title>
<ellipse fill="#ffffff" stroke="black" cx="726.176" cy="-31" rx="7" ry="7"/>
</g>
<!-- uncertainty_graph&#45;&gt;uncertainty_graph_output_port -->
<g id="edge44" class="edge"><title>uncertainty_graph&#45;&gt;uncertainty_graph_output_port</title>
<path fill="none" stroke="black" d="M336.969,-78.496C367.371,-72.0161 401.569,-65.6816 433.176,-62 448.468,-60.2188 696.559,-61.1834 710.176,-54 713.434,-52.2812 716.192,-49.5674 718.453,-46.6246"/>
<polygon fill="black" stroke="black" points="721.564,-48.2431 723.742,-37.8746 715.573,-44.6217 721.564,-48.2431"/>
</g>
<!-- paleocar_model_output_port -->
<g id="node42" class="node"><title>paleocar_model_output_port</title>
<ellipse fill="#ffffff" stroke="black" cx="758.176" cy="-31" rx="7" ry="7"/>
</g>
<!-- paleocar_model&#45;&gt;paleocar_model_output_port -->
<g id="edge45" class="edge"><title>paleocar_model&#45;&gt;paleocar_model_output_port</title>
<path fill="none" stroke="black" d="M696.382,-78.4568C712.513,-72.121 728.524,-64.0978 742.176,-54 744.972,-51.9323 747.482,-49.2342 749.641,-46.4394"/>
<polygon fill="black" stroke="black" points="752.726,-48.1169 755.257,-37.8289 746.863,-44.2929 752.726,-48.1169"/>
</g>
<!-- user_map_marker_pos -->
<g id="node13" class="node"><title>user_map_marker_pos</title>
<path fill="#ffffcc" stroke="black" d="M1013.18,-612C1013.18,-612 873.176,-612 873.176,-612 867.176,-612 861.176,-606 861.176,-600 861.176,-600 861.176,-588 861.176,-588 861.176,-582 867.176,-576 873.176,-576 873.176,-576 1013.18,-576 1013.18,-576 1019.18,-576 1025.18,-582 1025.18,-588 1025.18,-588 1025.18,-600 1025.18,-600 1025.18,-606 1019.18,-612 1013.18,-612"/>
<text text-anchor="middle" x="943.176" y="-590.3" font-family="Helvetica,sans-Serif" font-size="14.00">user_map_marker_pos</text>
</g>
<!-- user_map_marker_pos&#45;&gt;get_client_data -->
<g id="edge5" class="edge"><title>user_map_marker_pos&#45;&gt;get_client_data</title>
<path fill="none" stroke="black" d="M939.092,-575.868C937.238,-568.092 934.982,-558.632 932.832,-549.611"/>
<polygon fill="black" stroke="black" points="936.199,-548.642 930.475,-539.727 929.39,-550.266 936.199,-548.642"/>
</g>
<!-- user_prediction_years -->
<g id="node14" class="node"><title>user_prediction_years</title>
<path fill="#ffffcc" stroke="black" d="M1225.18,-612C1225.18,-612 1091.18,-612 1091.18,-612 1085.18,-612 1079.18,-606 1079.18,-600 1079.18,-600 1079.18,-588 1079.18,-588 1079.18,-582 1085.18,-576 1091.18,-576 1091.18,-576 1225.18,-576 1225.18,-576 1231.18,-576 1237.18,-582 1237.18,-588 1237.18,-588 1237.18,-600 1237.18,-600 1237.18,-606 1231.18,-612 1225.18,-612"/>
<text text-anchor="middle" x="1158.18" y="-590.3" font-family="Helvetica,sans-Serif" font-size="14.00">user_prediction_years</text>
</g>
<!-- user_prediction_years&#45;&gt;get_client_data -->
<g id="edge6" class="edge"><title>user_prediction_years&#45;&gt;get_client_data</title>
<path fill="none" stroke="black" d="M1105.6,-575.962C1075.42,-566.185 1036.96,-553.723 1003.31,-542.818"/>
<polygon fill="black" stroke="black" points="1004.09,-539.392 993.498,-539.639 1001.93,-546.051 1004.09,-539.392"/>
</g>
<!-- coordinates&#45;&gt;extract_prism_data -->
<g id="edge12" class="edge"><title>coordinates&#45;&gt;extract_prism_data</title>
<path fill="none" stroke="black" d="M710.54,-415.322C710.198,-406.102 709.766,-394.435 709.365,-383.606"/>
<polygon fill="black" stroke="black" points="712.862,-383.45 708.994,-373.587 705.867,-383.71 712.862,-383.45"/>
</g>
<!-- session_id&#45;&gt;extract_prism_data -->
<g id="edge13" class="edge"><title>session_id&#45;&gt;extract_prism_data</title>
<path fill="none" stroke="black" d="M802.727,-415.322C787.237,-404.866 767.085,-391.264 749.368,-379.305"/>
<polygon fill="black" stroke="black" points="751.144,-376.281 740.897,-373.587 747.228,-382.083 751.144,-376.281"/>
</g>
<!-- run_id&#45;&gt;extract_prism_data -->
<g id="edge14" class="edge"><title>run_id&#45;&gt;extract_prism_data</title>
<path fill="none" stroke="black" d="M894.021,-416.606C889.454,-414.264 884.728,-411.978 880.176,-410 851.716,-397.636 819.729,-386.136 791.128,-376.661"/>
<polygon fill="black" stroke="black" points="792.162,-373.316 781.569,-373.527 789.981,-379.968 792.162,-373.316"/>
</g>
<!-- prediction_years&#45;&gt;exec_paleocar -->
<g id="edge22" class="edge"><title>prediction_years&#45;&gt;exec_paleocar</title>
<path fill="none" stroke="black" d="M1184.96,-332.312C1173.6,-310.793 1158.52,-273.209 1172.18,-244 1177.57,-232.453 1186.5,-222.384 1196.2,-214.005"/>
<polygon fill="black" stroke="black" points="1198.49,-216.65 1204.09,-207.652 1194.1,-211.197 1198.49,-216.65"/>
</g>
<!-- prism_data_for_coordinates&#45;&gt;exec_paleocar -->
<g id="edge23" class="edge"><title>prism_data_for_coordinates&#45;&gt;exec_paleocar</title>
<path fill="none" stroke="black" d="M1055.06,-244.473C1088.35,-233.982 1128.31,-221.386 1162.75,-210.534"/>
<polygon fill="black" stroke="black" points="1163.82,-213.866 1172.3,-207.522 1161.71,-207.19 1163.82,-213.866"/>
</g>
<!-- historical_precip_data -->
<g id="node20" class="node"><title>historical_precip_data</title>
<path fill="#fcfcfc" stroke="black" d="M471.676,-612C471.676,-612 340.676,-612 340.676,-612 334.676,-612 328.676,-606 328.676,-600 328.676,-600 328.676,-588 328.676,-588 328.676,-582 334.676,-576 340.676,-576 340.676,-576 471.676,-576 471.676,-576 477.676,-576 483.676,-582 483.676,-588 483.676,-588 483.676,-600 483.676,-600 483.676,-606 477.676,-612 471.676,-612"/>
<text text-anchor="middle" x="406.176" y="-590.3" font-family="Helvetica,sans-Serif" font-size="14.00">historical_precip_data</text>
</g>
<!-- historical_precip_data&#45;&gt;acccess_static_server_files -->
<g id="edge9" class="edge"><title>historical_precip_data&#45;&gt;acccess_static_server_files</title>
<path fill="none" stroke="black" d="M387.115,-575.868C377.44,-567.172 365.422,-556.37 354.366,-546.432"/>
<polygon fill="black" stroke="black" points="356.682,-543.808 346.905,-539.727 352.003,-549.014 356.682,-543.808"/>
</g>
<!-- tree_ring_data -->
<g id="node21" class="node"><title>tree_ring_data</title>
<path fill="#fcfcfc" stroke="black" d="M747.176,-612C747.176,-612 663.176,-612 663.176,-612 657.176,-612 651.176,-606 651.176,-600 651.176,-600 651.176,-588 651.176,-588 651.176,-582 657.176,-576 663.176,-576 663.176,-576 747.176,-576 747.176,-576 753.176,-576 759.176,-582 759.176,-588 759.176,-588 759.176,-600 759.176,-600 759.176,-606 753.176,-612 747.176,-612"/>
<text text-anchor="middle" x="705.176" y="-590.3" font-family="Helvetica,sans-Serif" font-size="14.00">tree_ring_data</text>
</g>
<!-- tree_ring_data&#45;&gt;acccess_static_server_files -->
<g id="edge10" class="edge"><title>tree_ring_data&#45;&gt;acccess_static_server_files</title>
<path fill="none" stroke="black" d="M651.114,-582.343C597.558,-571.786 513.692,-555.253 444.048,-541.524"/>
<polygon fill="black" stroke="black" points="444.37,-538.02 433.881,-539.52 443.016,-544.888 444.37,-538.02"/>
</g>
<!-- calibration_years -->
<g id="node22" class="node"><title>calibration_years</title>
<path fill="#fcfcfc" stroke="black" d="M1291.68,-285.5C1291.68,-285.5 1192.68,-285.5 1192.68,-285.5 1186.68,-285.5 1180.68,-279.5 1180.68,-273.5 1180.68,-273.5 1180.68,-261.5 1180.68,-261.5 1180.68,-255.5 1186.68,-249.5 1192.68,-249.5 1192.68,-249.5 1291.68,-249.5 1291.68,-249.5 1297.68,-249.5 1303.68,-255.5 1303.68,-261.5 1303.68,-261.5 1303.68,-273.5 1303.68,-273.5 1303.68,-279.5 1297.68,-285.5 1291.68,-285.5"/>
<text text-anchor="middle" x="1242.18" y="-263.8" font-family="Helvetica,sans-Serif" font-size="14.00">calibration_years</text>
</g>
<!-- calibration_years&#45;&gt;exec_paleocar -->
<g id="edge25" class="edge"><title>calibration_years&#45;&gt;exec_paleocar</title>
<path fill="none" stroke="black" d="M1242.18,-249.322C1242.18,-240.102 1242.18,-228.435 1242.18,-217.606"/>
<polygon fill="black" stroke="black" points="1245.68,-217.587 1242.18,-207.587 1238.68,-217.587 1245.68,-217.587"/>
</g>
<!-- label -->
<g id="node23" class="node"><title>label</title>
<path fill="#fcfcfc" stroke="black" d="M1364.18,-285.5C1364.18,-285.5 1334.18,-285.5 1334.18,-285.5 1328.18,-285.5 1322.18,-279.5 1322.18,-273.5 1322.18,-273.5 1322.18,-261.5 1322.18,-261.5 1322.18,-255.5 1328.18,-249.5 1334.18,-249.5 1334.18,-249.5 1364.18,-249.5 1364.18,-249.5 1370.18,-249.5 1376.18,-255.5 1376.18,-261.5 1376.18,-261.5 1376.18,-273.5 1376.18,-273.5 1376.18,-279.5 1370.18,-285.5 1364.18,-285.5"/>
<text text-anchor="middle" x="1349.18" y="-263.8" font-family="Helvetica,sans-Serif" font-size="14.00">label</text>
</g>
<!-- label&#45;&gt;exec_paleocar -->
<g id="edge26" class="edge"><title>label&#45;&gt;exec_paleocar</title>
<path fill="none" stroke="black" d="M1326.48,-249.322C1312.8,-238.961 1295.03,-225.511 1279.34,-213.631"/>
<polygon fill="black" stroke="black" points="1281.44,-210.832 1271.35,-207.587 1277.21,-216.413 1281.44,-210.832"/>
</g>
<!-- min_width -->
<g id="node24" class="node"><title>min_width</title>
<path fill="#fcfcfc" stroke="black" d="M1548.18,-285.5C1548.18,-285.5 1492.18,-285.5 1492.18,-285.5 1486.18,-285.5 1480.18,-279.5 1480.18,-273.5 1480.18,-273.5 1480.18,-261.5 1480.18,-261.5 1480.18,-255.5 1486.18,-249.5 1492.18,-249.5 1492.18,-249.5 1548.18,-249.5 1548.18,-249.5 1554.18,-249.5 1560.18,-255.5 1560.18,-261.5 1560.18,-261.5 1560.18,-273.5 1560.18,-273.5 1560.18,-279.5 1554.18,-285.5 1548.18,-285.5"/>
<text text-anchor="middle" x="1520.18" y="-263.8" font-family="Helvetica,sans-Serif" font-size="14.00">min_width</text>
</g>
<!-- min_width&#45;&gt;exec_paleocar -->
<g id="edge27" class="edge"><title>min_width&#45;&gt;exec_paleocar</title>
<path fill="none" stroke="black" d="M1484.89,-249.388C1480.33,-247.445 1475.68,-245.593 1471.18,-244 1433.89,-230.8 1392.22,-219.246 1354.75,-209.971"/>
<polygon fill="black" stroke="black" points="1355.36,-206.517 1344.81,-207.54 1353.7,-213.316 1355.36,-206.517"/>
</g>
<!-- verbose -->
<g id="node25" class="node"><title>verbose</title>
<path fill="#fcfcfc" stroke="black" d="M1450.18,-285.5C1450.18,-285.5 1406.18,-285.5 1406.18,-285.5 1400.18,-285.5 1394.18,-279.5 1394.18,-273.5 1394.18,-273.5 1394.18,-261.5 1394.18,-261.5 1394.18,-255.5 1400.18,-249.5 1406.18,-249.5 1406.18,-249.5 1450.18,-249.5 1450.18,-249.5 1456.18,-249.5 1462.18,-255.5 1462.18,-261.5 1462.18,-261.5 1462.18,-273.5 1462.18,-273.5 1462.18,-279.5 1456.18,-285.5 1450.18,-285.5"/>
<text text-anchor="middle" x="1428.18" y="-263.8" font-family="Helvetica,sans-Serif" font-size="14.00">verbose</text>
</g>
<!-- verbose&#45;&gt;exec_paleocar -->
<g id="edge28" class="edge"><title>verbose&#45;&gt;exec_paleocar</title>
<path fill="none" stroke="black" d="M1396.41,-249.453C1392.65,-247.562 1388.84,-245.705 1385.18,-244 1360.7,-232.619 1333.36,-221.145 1309.2,-211.411"/>
<polygon fill="black" stroke="black" points="1310.35,-208.099 1299.77,-207.63 1307.75,-214.597 1310.35,-208.099"/>
</g>
<!-- user_map_marker_pos_input_port -->
<g id="node26" class="node"><title>user_map_marker_pos_input_port</title>
<ellipse fill="#ffffff" stroke="black" cx="1220.18" cy="-659" rx="7" ry="7"/>
</g>
<!-- user_map_marker_pos_input_port&#45;&gt;user_map_marker_pos -->
<g id="edge29" class="edge"><title>user_map_marker_pos_input_port&#45;&gt;user_map_marker_pos</title>
<path fill="none" stroke="black" d="M1217.72,-652.171C1215.17,-646.933 1210.64,-639.537 1204.18,-636 1178.01,-621.677 1099.64,-632.662 1070.18,-628 1050.06,-624.817 1028.51,-619.833 1008.97,-614.694"/>
<polygon fill="black" stroke="black" points="1009.83,-611.3 999.262,-612.084 1008.01,-618.06 1009.83,-611.3"/>
</g>
<!-- user_prediction_years_input_port -->
<g id="node27" class="node"><title>user_prediction_years_input_port</title>
<ellipse fill="#ffffff" stroke="black" cx="1252.18" cy="-659" rx="7" ry="7"/>
</g>
<!-- user_prediction_years_input_port&#45;&gt;user_prediction_years -->
<g id="edge30" class="edge"><title>user_prediction_years_input_port&#45;&gt;user_prediction_years</title>
<path fill="none" stroke="black" d="M1249.09,-652.382C1246.23,-647.571 1241.61,-640.695 1236.18,-636 1227.85,-628.798 1218.04,-622.406 1208.24,-616.936"/>
<polygon fill="black" stroke="black" points="1209.75,-613.779 1199.28,-612.176 1206.47,-619.96 1209.75,-613.779"/>
</g>
<!-- prism_data_for_coordinates_input_port -->
<g id="node28" class="node"><title>prism_data_for_coordinates_input_port</title>
<ellipse fill="#ffffff" stroke="black" cx="1284.18" cy="-659" rx="7" ry="7"/>
</g>
<!-- prism_data_for_coordinates_input_port&#45;&gt;prism_data_for_coordinates -->
<g id="edge31" class="edge"><title>prism_data_for_coordinates_input_port&#45;&gt;prism_data_for_coordinates</title>
<path fill="none" stroke="black" d="M1284.18,-651.837C1284.18,-632.219 1284.18,-569.456 1284.18,-517.5 1284.18,-517.5 1284.18,-517.5 1284.18,-432.5 1284.18,-384.857 1298.39,-361.154 1265.18,-327 1248.01,-309.353 1202.15,-296.601 1152.39,-287.598"/>
<polygon fill="black" stroke="black" points="1152.85,-284.125 1142.39,-285.848 1151.64,-291.02 1152.85,-284.125"/>
</g>
<!-- calibration_years_input_port -->
<g id="node29" class="node"><title>calibration_years_input_port</title>
<ellipse fill="#ffffff" stroke="black" cx="1316.18" cy="-659" rx="7" ry="7"/>
</g>
<!-- calibration_years_input_port&#45;&gt;calibration_years -->
<g id="edge32" class="edge"><title>calibration_years_input_port&#45;&gt;calibration_years</title>
<path fill="none" stroke="black" d="M1316.63,-651.841C1318.02,-632.235 1322.18,-569.503 1322.18,-517.5 1322.18,-517.5 1322.18,-517.5 1322.18,-432.5 1322.18,-384.413 1320.96,-369.346 1298.18,-327 1291.33,-314.273 1280.95,-302.334 1270.98,-292.603"/>
<polygon fill="black" stroke="black" points="1273.2,-289.885 1263.5,-285.615 1268.42,-295 1273.2,-289.885"/>
</g>
<!-- label_input_port -->
<g id="node30" class="node"><title>label_input_port</title>
<ellipse fill="#ffffff" stroke="black" cx="1348.18" cy="-659" rx="7" ry="7"/>
</g>
<!-- label_input_port&#45;&gt;label -->
<g id="edge33" class="edge"><title>label_input_port&#45;&gt;label</title>
<path fill="none" stroke="black" d="M1349.08,-651.853C1351.87,-632.282 1360.18,-569.645 1360.18,-517.5 1360.18,-517.5 1360.18,-517.5 1360.18,-432.5 1360.18,-384.301 1355.39,-328.311 1352.13,-295.794"/>
<polygon fill="black" stroke="black" points="1355.6,-295.3 1351.09,-285.711 1348.63,-296.017 1355.6,-295.3"/>
</g>
<!-- verbose_input_port -->
<g id="node31" class="node"><title>verbose_input_port</title>
<ellipse fill="#ffffff" stroke="black" cx="1380.18" cy="-659" rx="7" ry="7"/>
</g>
<!-- verbose_input_port&#45;&gt;verbose -->
<g id="edge34" class="edge"><title>verbose_input_port&#45;&gt;verbose</title>
<path fill="none" stroke="black" d="M1382.19,-652.194C1388.61,-633.145 1408.18,-570.726 1408.18,-517.5 1408.18,-517.5 1408.18,-517.5 1408.18,-432.5 1408.18,-384.052 1416.88,-328.142 1422.81,-295.707"/>
<polygon fill="black" stroke="black" points="1426.29,-296.126 1424.69,-285.652 1419.41,-294.836 1426.29,-296.126"/>
</g>
<!-- min_width_input_port -->
<g id="node32" class="node"><title>min_width_input_port</title>
<ellipse fill="#ffffff" stroke="black" cx="1412.18" cy="-659" rx="7" ry="7"/>
</g>
<!-- min_width_input_port&#45;&gt;min_width -->
<g id="edge35" class="edge"><title>min_width_input_port&#45;&gt;min_width</title>
<path fill="none" stroke="black" d="M1417,-653.689C1434.44,-637.607 1493.18,-578.879 1493.18,-517.5 1493.18,-517.5 1493.18,-517.5 1493.18,-432.5 1493.18,-383.761 1504.93,-327.944 1512.93,-295.606"/>
<polygon fill="black" stroke="black" points="1516.4,-296.138 1515.47,-285.584 1509.62,-294.414 1516.4,-296.138"/>
</g>
<!-- historical_precip_data_input_port -->
<g id="node33" class="node"><title>historical_precip_data_input_port</title>
<ellipse fill="#ffffff" stroke="black" cx="1156.18" cy="-659" rx="7" ry="7"/>
</g>
<!-- historical_precip_data_input_port&#45;&gt;historical_precip_data -->
<g id="edge36" class="edge"><title>historical_precip_data_input_port&#45;&gt;historical_precip_data</title>
<path fill="none" stroke="black" d="M1149.21,-657.805C1104.11,-656.502 848.993,-648.462 642.176,-628 593,-623.135 538.336,-615.625 494.011,-608.999"/>
<polygon fill="black" stroke="black" points="494.259,-605.497 483.849,-607.468 493.216,-612.418 494.259,-605.497"/>
</g>
<!-- tree_ring_data_input_port -->
<g id="node34" class="node"><title>tree_ring_data_input_port</title>
<ellipse fill="#ffffff" stroke="black" cx="1188.18" cy="-659" rx="7" ry="7"/>
</g>
<!-- tree_ring_data_input_port&#45;&gt;tree_ring_data -->
<g id="edge37" class="edge"><title>tree_ring_data_input_port&#45;&gt;tree_ring_data</title>
<path fill="none" stroke="black" d="M1185.75,-652.12C1183.21,-646.845 1178.7,-639.425 1172.18,-636 1156.43,-627.733 869.825,-630.18 852.176,-628 824.676,-624.603 794.763,-618.366 769.143,-612.222"/>
<polygon fill="black" stroke="black" points="769.728,-608.762 759.183,-609.787 768.066,-615.562 769.728,-608.762"/>
</g>
</g>
</svg>
