<?xml version="1.0" encoding="UTF-8" standalone="no"?>
<!DOCTYPE svg PUBLIC "-//W3C//DTD SVG 1.1//EN"
 "http://www.w3.org/Graphics/SVG/1.1/DTD/svg11.dtd">
<!-- Generated by graphviz version 2.38.0 (20140413.2041)
 -->
<!-- Title: Workflow Pages: 1 -->
<svg width="910pt" height="839pt"
 viewBox="0.00 0.00 910.00 839.00" xmlns="http://www.w3.org/2000/svg" xmlns:xlink="http://www.w3.org/1999/xlink">
<g id="graph0" class="graph" transform="scale(1 1) rotate(0) translate(4 835)">
<title>Workflow</title>
<polygon fill="white" stroke="none" points="-4,4 -4,-835 906,-835 906,4 -4,4"/>
<g id="clust1" class="cluster"><title>cluster_workflow_box_outer</title>
<polygon fill="none" stroke="black" stroke-width="2" points="8,-62 8,-769 894,-769 894,-62 8,-62"/>
</g>
<g id="clust2" class="cluster"><title>cluster_workflow_box_inner</title>
<polygon fill="none" stroke="black" stroke-width="0" points="16,-70 16,-761 886,-761 886,-70 16,-70"/>
</g>
<g id="clust5" class="cluster"><title>cluster_output_ports_group_outer</title>
<polygon fill="none" stroke="black" stroke-width="0" points="386,-8 386,-54 432,-54 432,-8 386,-8"/>
</g>
<g id="clust6" class="cluster"><title>cluster_output_ports_group_inner</title>
<polygon fill="none" stroke="black" stroke-width="0" points="394,-16 394,-46 424,-46 424,-16 394,-16"/>
</g>
<g id="clust3" class="cluster"><title>cluster_input_ports_group_outer</title>
<polygon fill="none" stroke="black" stroke-width="0" points="439,-777 439,-823 613,-823 613,-777 439,-777"/>
</g>
<g id="clust4" class="cluster"><title>cluster_input_ports_group_inner</title>
<polygon fill="none" stroke="black" stroke-width="0" points="447,-785 447,-815 605,-815 605,-785 447,-785"/>
</g>
<!-- get_predictor_matrix -->
<g id="node1" class="node"><title>get_predictor_matrix</title>
<polygon fill="#ccffcc" stroke="black" points="464.5,-623.5 464.5,-669.5 877.5,-669.5 877.5,-623.5 464.5,-623.5"/>
<text text-anchor="middle" x="671" y="-654.3" font-family="Helvetica,sans-Serif" font-size="14.00">get_predictor_matrix</text>
<polyline fill="none" stroke="black" points="464.5,-646.5 877.5,-646.5 "/>
<text text-anchor="middle" x="671" y="-631.3" font-family="Helvetica,sans-Serif" font-size="14.00">create a matrix of tree ring chronologies for the calibration year.</text>
</g>
<!-- predictor.matrix -->
<g id="node12" class="node"><title>predictor.matrix</title>
<path fill="#ffffcc" stroke="black" d="M534,-581.5C534,-581.5 444,-581.5 444,-581.5 438,-581.5 432,-575.5 432,-569.5 432,-569.5 432,-557.5 432,-557.5 432,-551.5 438,-545.5 444,-545.5 444,-545.5 534,-545.5 534,-545.5 540,-545.5 546,-551.5 546,-557.5 546,-557.5 546,-569.5 546,-569.5 546,-575.5 540,-581.5 534,-581.5"/>
<text text-anchor="middle" x="489" y="-559.8" font-family="Helvetica,sans-Serif" font-size="14.00">predictor.matrix</text>
</g>
<!-- get_predictor_matrix&#45;&gt;predictor.matrix -->
<g id="edge1" class="edge"><title>get_predictor_matrix&#45;&gt;predictor.matrix</title>
<path fill="none" stroke="black" d="M621.268,-623.366C594.928,-611.644 562.736,-597.316 536.706,-585.732"/>
<polygon fill="black" stroke="black" points="537.976,-582.466 527.417,-581.598 535.13,-588.861 537.976,-582.466"/>
</g>
<!-- max.preds -->
<g id="node15" class="node"><title>max.preds</title>
<path fill="#ffffcc" stroke="black" d="M438.5,-498.5C438.5,-498.5 379.5,-498.5 379.5,-498.5 373.5,-498.5 367.5,-492.5 367.5,-486.5 367.5,-486.5 367.5,-474.5 367.5,-474.5 367.5,-468.5 373.5,-462.5 379.5,-462.5 379.5,-462.5 438.5,-462.5 438.5,-462.5 444.5,-462.5 450.5,-468.5 450.5,-474.5 450.5,-474.5 450.5,-486.5 450.5,-486.5 450.5,-492.5 444.5,-498.5 438.5,-498.5"/>
<text text-anchor="middle" x="409" y="-476.8" font-family="Helvetica,sans-Serif" font-size="14.00">max.preds</text>
</g>
<!-- get_predictor_matrix&#45;&gt;max.preds -->
<g id="edge2" class="edge"><title>get_predictor_matrix&#45;&gt;max.preds</title>
<path fill="none" stroke="black" d="M515.846,-623.462C474.291,-614.462 436.988,-602.457 423,-587 403.971,-565.972 402.728,-532.233 404.783,-508.585"/>
<polygon fill="black" stroke="black" points="408.277,-508.839 405.908,-498.512 401.32,-508.062 408.277,-508.839"/>
</g>
<!-- get_reconstruction_matrix -->
<g id="node2" class="node"><title>get_reconstruction_matrix</title>
<polygon fill="#ccffcc" stroke="black" points="24,-623.5 24,-669.5 446,-669.5 446,-623.5 24,-623.5"/>
<text text-anchor="middle" x="235" y="-654.3" font-family="Helvetica,sans-Serif" font-size="14.00">get_reconstruction_matrix</text>
<polyline fill="none" stroke="black" points="24,-646.5 446,-646.5 "/>
<text text-anchor="middle" x="235" y="-631.3" font-family="Helvetica,sans-Serif" font-size="14.00">get reconstruction matrix for chronologies for the prediction year.</text>
</g>
<!-- reconstruction.matrix -->
<g id="node10" class="node"><title>reconstruction.matrix</title>
<path fill="#ffffcc" stroke="black" d="M298.5,-581.5C298.5,-581.5 175.5,-581.5 175.5,-581.5 169.5,-581.5 163.5,-575.5 163.5,-569.5 163.5,-569.5 163.5,-557.5 163.5,-557.5 163.5,-551.5 169.5,-545.5 175.5,-545.5 175.5,-545.5 298.5,-545.5 298.5,-545.5 304.5,-545.5 310.5,-551.5 310.5,-557.5 310.5,-557.5 310.5,-569.5 310.5,-569.5 310.5,-575.5 304.5,-581.5 298.5,-581.5"/>
<text text-anchor="middle" x="237" y="-559.8" font-family="Helvetica,sans-Serif" font-size="14.00">reconstruction.matrix</text>
</g>
<!-- get_reconstruction_matrix&#45;&gt;reconstruction.matrix -->
<g id="edge6" class="edge"><title>get_reconstruction_matrix&#45;&gt;reconstruction.matrix</title>
<path fill="none" stroke="black" d="M235.547,-623.366C235.787,-613.632 236.072,-602.102 236.325,-591.838"/>
<polygon fill="black" stroke="black" points="239.827,-591.811 236.575,-581.728 232.829,-591.638 239.827,-591.811"/>
</g>
<!-- get_predlist -->
<g id="node3" class="node"><title>get_predlist</title>
<polygon fill="#ccffcc" stroke="black" points="140,-457.5 140,-503.5 348,-503.5 348,-457.5 140,-457.5"/>
<text text-anchor="middle" x="244" y="-488.3" font-family="Helvetica,sans-Serif" font-size="14.00">get_predlist</text>
<polyline fill="none" stroke="black" points="140,-480.5 348,-480.5 "/>
<text text-anchor="middle" x="244" y="-465.3" font-family="Helvetica,sans-Serif" font-size="14.00">create list of prediction values.</text>
</g>
<!-- predlist -->
<g id="node13" class="node"><title>predlist</title>
<path fill="#ffffcc" stroke="black" d="M320.5,-421C320.5,-421 281.5,-421 281.5,-421 275.5,-421 269.5,-415 269.5,-409 269.5,-409 269.5,-397 269.5,-397 269.5,-391 275.5,-385 281.5,-385 281.5,-385 320.5,-385 320.5,-385 326.5,-385 332.5,-391 332.5,-397 332.5,-397 332.5,-409 332.5,-409 332.5,-415 326.5,-421 320.5,-421"/>
<text text-anchor="middle" x="301" y="-399.3" font-family="Helvetica,sans-Serif" font-size="14.00">predlist</text>
</g>
<!-- get_predlist&#45;&gt;predlist -->
<g id="edge10" class="edge"><title>get_predlist&#45;&gt;predlist</title>
<path fill="none" stroke="black" d="M260.794,-457.256C267.363,-448.554 274.938,-438.521 281.729,-429.526"/>
<polygon fill="black" stroke="black" points="284.709,-431.387 287.941,-421.298 279.122,-427.17 284.709,-431.387"/>
</g>
<!-- get_carscores -->
<g id="node4" class="node"><title>get_carscores</title>
<polygon fill="#ccffcc" stroke="black" points="468.5,-457.5 468.5,-503.5 813.5,-503.5 813.5,-457.5 468.5,-457.5"/>
<text text-anchor="middle" x="641" y="-488.3" font-family="Helvetica,sans-Serif" font-size="14.00">get_carscores</text>
<polyline fill="none" stroke="black" points="468.5,-480.5 813.5,-480.5 "/>
<text text-anchor="middle" x="641" y="-465.3" font-family="Helvetica,sans-Serif" font-size="14.00">get the carscores for reconstruction of paleoclimate.</text>
</g>
<!-- carscores -->
<g id="node14" class="node"><title>carscores</title>
<path fill="#ffffcc" stroke="black" d="M582,-421C582,-421 526,-421 526,-421 520,-421 514,-415 514,-409 514,-409 514,-397 514,-397 514,-391 520,-385 526,-385 526,-385 582,-385 582,-385 588,-385 594,-391 594,-397 594,-397 594,-409 594,-409 594,-415 588,-421 582,-421"/>
<text text-anchor="middle" x="554" y="-399.3" font-family="Helvetica,sans-Serif" font-size="14.00">carscores</text>
</g>
<!-- get_carscores&#45;&gt;carscores -->
<g id="edge12" class="edge"><title>get_carscores&#45;&gt;carscores</title>
<path fill="none" stroke="black" d="M615.368,-457.256C604.639,-447.945 592.155,-437.112 581.259,-427.656"/>
<polygon fill="black" stroke="black" points="583.5,-424.966 573.653,-421.055 578.912,-430.253 583.5,-424.966"/>
</g>
<!-- optimizeModels -->
<g id="node5" class="node"><title>optimizeModels</title>
<polygon fill="#ccffcc" stroke="black" points="467,-197 351,-197 351,-161 467,-161 467,-197"/>
<text text-anchor="middle" x="409" y="-175.3" font-family="Helvetica,sans-Serif" font-size="14.00">optimizeModels</text>
</g>
<!-- paleocar_models -->
<g id="node17" class="node"><title>paleocar_models</title>
<path fill="#ffffcc" stroke="black" d="M256.5,-78.5C256.5,-78.5 561.5,-78.5 561.5,-78.5 567.5,-78.5 573.5,-84.5 573.5,-90.5 573.5,-90.5 573.5,-112.5 573.5,-112.5 573.5,-118.5 567.5,-124.5 561.5,-124.5 561.5,-124.5 256.5,-124.5 256.5,-124.5 250.5,-124.5 244.5,-118.5 244.5,-112.5 244.5,-112.5 244.5,-90.5 244.5,-90.5 244.5,-84.5 250.5,-78.5 256.5,-78.5"/>
<text text-anchor="middle" x="409" y="-109.3" font-family="Helvetica,sans-Serif" font-size="14.00">paleocar_models</text>
<polyline fill="none" stroke="black" points="244.5,-101.5 573.5,-101.5 "/>
<text text-anchor="middle" x="409" y="-86.3" font-family="Helvetica,sans-Serif" font-size="14.00">file:/.output/{session_id}/{run_id}/{label}.model.rds</text>
</g>
<!-- optimizeModels&#45;&gt;paleocar_models -->
<g id="edge19" class="edge"><title>optimizeModels&#45;&gt;paleocar_models</title>
<path fill="none" stroke="black" d="M409,-160.868C409,-153.175 409,-143.835 409,-134.902"/>
<polygon fill="black" stroke="black" points="412.5,-134.727 409,-124.727 405.5,-134.727 412.5,-134.727"/>
</g>
<!-- calculate_Models -->
<g id="node6" class="node"><title>calculate_Models</title>
<polygon fill="#ccffcc" stroke="black" points="472.5,-345 345.5,-345 345.5,-309 472.5,-309 472.5,-345"/>
<polygon fill="none" stroke="black" points="476.5,-349 341.5,-349 341.5,-305 476.5,-305 476.5,-349"/>
<text text-anchor="middle" x="409" y="-323.3" font-family="Helvetica,sans-Serif" font-size="14.00">calculate_Models</text>
</g>
<!-- linear.models -->
<g id="node16" class="node"><title>linear.models</title>
<path fill="#ffffcc" stroke="black" d="M447.5,-269C447.5,-269 370.5,-269 370.5,-269 364.5,-269 358.5,-263 358.5,-257 358.5,-257 358.5,-245 358.5,-245 358.5,-239 364.5,-233 370.5,-233 370.5,-233 447.5,-233 447.5,-233 453.5,-233 459.5,-239 459.5,-245 459.5,-245 459.5,-257 459.5,-257 459.5,-263 453.5,-269 447.5,-269"/>
<text text-anchor="middle" x="409" y="-247.3" font-family="Helvetica,sans-Serif" font-size="14.00">linear.models</text>
</g>
<!-- calculate_Models&#45;&gt;linear.models -->
<g id="edge15" class="edge"><title>calculate_Models&#45;&gt;linear.models</title>
<path fill="none" stroke="black" d="M409,-304.993C409,-297.061 409,-287.915 409,-279.478"/>
<polygon fill="black" stroke="black" points="412.5,-279.315 409,-269.315 405.5,-279.315 412.5,-279.315"/>
</g>
<!-- itrdb -->
<g id="node7" class="node"><title>itrdb</title>
<path fill="#ffffcc" stroke="black" d="M472.5,-706.5C472.5,-706.5 579.5,-706.5 579.5,-706.5 585.5,-706.5 591.5,-712.5 591.5,-718.5 591.5,-718.5 591.5,-740.5 591.5,-740.5 591.5,-746.5 585.5,-752.5 579.5,-752.5 579.5,-752.5 472.5,-752.5 472.5,-752.5 466.5,-752.5 460.5,-746.5 460.5,-740.5 460.5,-740.5 460.5,-718.5 460.5,-718.5 460.5,-712.5 466.5,-706.5 472.5,-706.5"/>
<text text-anchor="middle" x="526" y="-737.3" font-family="Helvetica,sans-Serif" font-size="14.00">itrdb</text>
<polyline fill="none" stroke="black" points="460.5,-729.5 591.5,-729.5 "/>
<text text-anchor="middle" x="526" y="-714.3" font-family="Helvetica,sans-Serif" font-size="14.00">file:/data/itrdb.Rda</text>
</g>
<!-- itrdb&#45;&gt;get_predictor_matrix -->
<g id="edge3" class="edge"><title>itrdb&#45;&gt;get_predictor_matrix</title>
<path fill="none" stroke="black" d="M565.622,-706.366C583.204,-696.544 604.06,-684.894 622.559,-674.56"/>
<polygon fill="black" stroke="black" points="624.403,-677.539 631.426,-669.607 620.989,-671.428 624.403,-677.539"/>
</g>
<!-- itrdb&#45;&gt;get_reconstruction_matrix -->
<g id="edge7" class="edge"><title>itrdb&#45;&gt;get_reconstruction_matrix</title>
<path fill="none" stroke="black" d="M460.179,-708.644C457.078,-707.743 454.007,-706.858 451,-706 410.961,-694.574 366.589,-682.462 328.53,-672.241"/>
<polygon fill="black" stroke="black" points="329.051,-668.757 318.486,-669.548 327.238,-675.519 329.051,-668.757"/>
</g>
<!-- calibration_years -->
<g id="node8" class="node"><title>calibration_years</title>
<path fill="#ffffcc" stroke="black" d="M720.5,-747.5C720.5,-747.5 621.5,-747.5 621.5,-747.5 615.5,-747.5 609.5,-741.5 609.5,-735.5 609.5,-735.5 609.5,-723.5 609.5,-723.5 609.5,-717.5 615.5,-711.5 621.5,-711.5 621.5,-711.5 720.5,-711.5 720.5,-711.5 726.5,-711.5 732.5,-717.5 732.5,-723.5 732.5,-723.5 732.5,-735.5 732.5,-735.5 732.5,-741.5 726.5,-747.5 720.5,-747.5"/>
<text text-anchor="middle" x="671" y="-725.8" font-family="Helvetica,sans-Serif" font-size="14.00">calibration_years</text>
</g>
<!-- calibration_years&#45;&gt;get_predictor_matrix -->
<g id="edge4" class="edge"><title>calibration_years&#45;&gt;get_predictor_matrix</title>
<path fill="none" stroke="black" d="M671,-711.322C671,-702.102 671,-690.435 671,-679.606"/>
<polygon fill="black" stroke="black" points="674.5,-679.587 671,-669.587 667.5,-679.587 674.5,-679.587"/>
</g>
<!-- prediction_years -->
<g id="node9" class="node"><title>prediction_years</title>
<path fill="#ffffcc" stroke="black" d="M308,-747.5C308,-747.5 210,-747.5 210,-747.5 204,-747.5 198,-741.5 198,-735.5 198,-735.5 198,-723.5 198,-723.5 198,-717.5 204,-711.5 210,-711.5 210,-711.5 308,-711.5 308,-711.5 314,-711.5 320,-717.5 320,-723.5 320,-723.5 320,-735.5 320,-735.5 320,-741.5 314,-747.5 308,-747.5"/>
<text text-anchor="middle" x="259" y="-725.8" font-family="Helvetica,sans-Serif" font-size="14.00">prediction_years</text>
</g>
<!-- prediction_years&#45;&gt;get_reconstruction_matrix -->
<g id="edge8" class="edge"><title>prediction_years&#45;&gt;get_reconstruction_matrix</title>
<path fill="none" stroke="black" d="M253.91,-711.322C251.15,-702.007 247.65,-690.194 244.414,-679.271"/>
<polygon fill="black" stroke="black" points="247.741,-678.18 241.544,-669.587 241.029,-680.169 247.741,-678.18"/>
</g>
<!-- reconstruction.matrix&#45;&gt;get_predlist -->
<g id="edge11" class="edge"><title>reconstruction.matrix&#45;&gt;get_predlist</title>
<path fill="none" stroke="black" d="M238.485,-545.322C239.281,-536.102 240.29,-524.435 241.225,-513.606"/>
<polygon fill="black" stroke="black" points="244.717,-513.851 242.091,-503.587 237.743,-513.248 244.717,-513.851"/>
</g>
<!-- prism_data_for_coordinates -->
<g id="node11" class="node"><title>prism_data_for_coordinates</title>
<path fill="#ffffcc" stroke="black" d="M576,-540.5C576,-540.5 866,-540.5 866,-540.5 872,-540.5 878,-546.5 878,-552.5 878,-552.5 878,-574.5 878,-574.5 878,-580.5 872,-586.5 866,-586.5 866,-586.5 576,-586.5 576,-586.5 570,-586.5 564,-580.5 564,-574.5 564,-574.5 564,-552.5 564,-552.5 564,-546.5 570,-540.5 576,-540.5"/>
<text text-anchor="middle" x="721" y="-571.3" font-family="Helvetica,sans-Serif" font-size="14.00">prism_data_for_coordinates</text>
<polyline fill="none" stroke="black" points="564,-563.5 878,-563.5 "/>
<text text-anchor="middle" x="721" y="-548.3" font-family="Helvetica,sans-Serif" font-size="14.00">file:/.output/{session_id}/{run_id}/112W36N.csv</text>
</g>
<!-- prism_data_for_coordinates&#45;&gt;get_carscores -->
<g id="edge13" class="edge"><title>prism_data_for_coordinates&#45;&gt;get_carscores</title>
<path fill="none" stroke="black" d="M699.14,-540.366C690.144,-531.259 679.596,-520.579 669.972,-510.835"/>
<polygon fill="black" stroke="black" points="672.351,-508.262 662.834,-503.607 667.371,-513.181 672.351,-508.262"/>
</g>
<!-- predictor.matrix&#45;&gt;get_carscores -->
<g id="edge14" class="edge"><title>predictor.matrix&#45;&gt;get_carscores</title>
<path fill="none" stroke="black" d="M521.235,-545.322C541.392,-534.581 567.778,-520.52 590.652,-508.33"/>
<polygon fill="black" stroke="black" points="592.374,-511.379 599.553,-503.587 589.082,-505.201 592.374,-511.379"/>
</g>
<!-- predlist&#45;&gt;calculate_Models -->
<g id="edge16" class="edge"><title>predlist&#45;&gt;calculate_Models</title>
<path fill="none" stroke="black" d="M326.049,-384.837C339.071,-375.914 355.283,-364.806 369.911,-354.783"/>
<polygon fill="black" stroke="black" points="372.033,-357.572 378.304,-349.032 368.077,-351.797 372.033,-357.572"/>
</g>
<!-- carscores&#45;&gt;calculate_Models -->
<g id="edge17" class="edge"><title>carscores&#45;&gt;calculate_Models</title>
<path fill="none" stroke="black" d="M520.37,-384.837C502.232,-375.581 479.487,-363.973 459.288,-353.664"/>
<polygon fill="black" stroke="black" points="460.71,-350.46 450.212,-349.032 457.528,-356.695 460.71,-350.46"/>
</g>
<!-- max.preds&#45;&gt;calculate_Models -->
<g id="edge18" class="edge"><title>max.preds&#45;&gt;calculate_Models</title>
<path fill="none" stroke="black" d="M409,-462.416C409,-437.495 409,-390.748 409,-359.49"/>
<polygon fill="black" stroke="black" points="412.5,-359.14 409,-349.14 405.5,-359.14 412.5,-359.14"/>
</g>
<!-- linear.models&#45;&gt;optimizeModels -->
<g id="edge20" class="edge"><title>linear.models&#45;&gt;optimizeModels</title>
<path fill="none" stroke="black" d="M409,-232.697C409,-224.983 409,-215.712 409,-207.112"/>
<polygon fill="black" stroke="black" points="412.5,-207.104 409,-197.104 405.5,-207.104 412.5,-207.104"/>
</g>
<!-- paleocar_models_output_port -->
<g id="node24" class="node"><title>paleocar_models_output_port</title>
<ellipse fill="#ffffff" stroke="black" cx="409" cy="-31" rx="7" ry="7"/>
</g>
<!-- paleocar_models&#45;&gt;paleocar_models_output_port -->
<g id="edge26" class="edge"><title>paleocar_models&#45;&gt;paleocar_models_output_port</title>
<path fill="none" stroke="black" d="M409,-78.4491C409,-68.6592 409,-57.3397 409,-48.3261"/>
<polygon fill="black" stroke="black" points="412.5,-48.1278 409,-38.1279 405.5,-48.1279 412.5,-48.1278"/>
</g>
<!-- min_width -->
<g id="node18" class="node"><title>min_width</title>
<path fill="#fcfcfc" stroke="black" d="M430,-747.5C430,-747.5 374,-747.5 374,-747.5 368,-747.5 362,-741.5 362,-735.5 362,-735.5 362,-723.5 362,-723.5 362,-717.5 368,-711.5 374,-711.5 374,-711.5 430,-711.5 430,-711.5 436,-711.5 442,-717.5 442,-723.5 442,-723.5 442,-735.5 442,-735.5 442,-741.5 436,-747.5 430,-747.5"/>
<text text-anchor="middle" x="402" y="-725.8" font-family="Helvetica,sans-Serif" font-size="14.00">min_width</text>
</g>
<!-- min_width&#45;&gt;get_predictor_matrix -->
<g id="edge5" class="edge"><title>min_width&#45;&gt;get_predictor_matrix</title>
<path fill="none" stroke="black" d="M437.298,-711.431C441.86,-709.48 446.508,-707.615 451,-706 487.119,-693.012 527.496,-681.46 563.702,-672.122"/>
<polygon fill="black" stroke="black" points="564.971,-675.411 573.796,-669.548 563.241,-668.628 564.971,-675.411"/>
</g>
<!-- min_width&#45;&gt;get_reconstruction_matrix -->
<g id="edge9" class="edge"><title>min_width&#45;&gt;get_reconstruction_matrix</title>
<path fill="none" stroke="black" d="M366.584,-711.322C344.242,-700.486 314.934,-686.27 289.65,-674.007"/>
<polygon fill="black" stroke="black" points="291.062,-670.802 280.537,-669.587 288.007,-677.1 291.062,-670.802"/>
</g>
<!-- prediction_years_input_port -->
<g id="node19" class="node"><title>prediction_years_input_port</title>
<ellipse fill="#ffffff" stroke="black" cx="462" cy="-800" rx="7" ry="7"/>
</g>
<!-- prediction_years_input_port&#45;&gt;prediction_years -->
<g id="edge21" class="edge"><title>prediction_years_input_port&#45;&gt;prediction_years</title>
<path fill="none" stroke="black" d="M455.28,-797.449C438.07,-793.412 391.082,-781.987 353,-769 337.939,-763.864 321.816,-757.565 307.252,-751.562"/>
<polygon fill="black" stroke="black" points="308.51,-748.294 297.933,-747.674 305.815,-754.754 308.51,-748.294"/>
</g>
<!-- prism_data_for_coordinates_input_port -->
<g id="node20" class="node"><title>prism_data_for_coordinates_input_port</title>
<ellipse fill="#ffffff" stroke="black" cx="590" cy="-800" rx="7" ry="7"/>
</g>
<!-- prism_data_for_coordinates_input_port&#45;&gt;prism_data_for_coordinates -->
<g id="edge22" class="edge"><title>prism_data_for_coordinates_input_port&#45;&gt;prism_data_for_coordinates</title>
<path fill="none" stroke="black" d="M596.952,-798.807C635.833,-797.294 826.753,-784.085 887,-670 896.755,-651.529 899.069,-640.05 887,-623 877.497,-609.575 864.651,-599.209 850.288,-591.21"/>
<polygon fill="black" stroke="black" points="851.66,-587.98 841.166,-586.529 848.465,-594.208 851.66,-587.98"/>
</g>
<!-- itrdb_input_port -->
<g id="node21" class="node"><title>itrdb_input_port</title>
<ellipse fill="#ffffff" stroke="black" cx="526" cy="-800" rx="7" ry="7"/>
</g>
<!-- itrdb_input_port&#45;&gt;itrdb -->
<g id="edge23" class="edge"><title>itrdb_input_port&#45;&gt;itrdb</title>
<path fill="none" stroke="black" d="M526,-792.678C526,-785.781 526,-774.208 526,-762.904"/>
<polygon fill="black" stroke="black" points="529.5,-762.74 526,-752.74 522.5,-762.74 529.5,-762.74"/>
</g>
<!-- calibration_years_input_port -->
<g id="node22" class="node"><title>calibration_years_input_port</title>
<ellipse fill="#ffffff" stroke="black" cx="558" cy="-800" rx="7" ry="7"/>
</g>
<!-- calibration_years_input_port&#45;&gt;calibration_years -->
<g id="edge24" class="edge"><title>calibration_years_input_port&#45;&gt;calibration_years</title>
<path fill="none" stroke="black" d="M560.662,-793.498C563.357,-788.49 567.983,-781.251 574,-777 584.222,-769.779 589.45,-773.821 601,-769 612.087,-764.372 623.686,-758.467 634.181,-752.681"/>
<polygon fill="black" stroke="black" points="636.089,-755.623 643.079,-747.66 632.65,-749.526 636.089,-755.623"/>
</g>
<!-- min_width_input_port -->
<g id="node23" class="node"><title>min_width_input_port</title>
<ellipse fill="#ffffff" stroke="black" cx="494" cy="-800" rx="7" ry="7"/>
</g>
<!-- min_width_input_port&#45;&gt;min_width -->
<g id="edge25" class="edge"><title>min_width_input_port&#45;&gt;min_width</title>
<path fill="none" stroke="black" d="M491.338,-793.498C488.643,-788.49 484.017,-781.251 478,-777 467.778,-769.779 462.119,-774.746 451,-769 443.125,-764.93 435.271,-759.521 428.232,-754.048"/>
<polygon fill="black" stroke="black" points="430.356,-751.264 420.39,-747.669 425.939,-756.694 430.356,-751.264"/>
</g>
</g>
</svg>
