<?xml version="1.0" encoding="UTF-8" standalone="no"?>
<!DOCTYPE svg PUBLIC "-//W3C//DTD SVG 1.1//EN"
 "http://www.w3.org/Graphics/SVG/1.1/DTD/svg11.dtd">
<!-- Generated by graphviz version 2.38.0 (20140413.2041)
 -->
<!-- Title: Workflow Pages: 1 -->
<svg width="2005pt" height="356pt"
 viewBox="0.00 0.00 2005.00 356.00" xmlns="http://www.w3.org/2000/svg" xmlns:xlink="http://www.w3.org/1999/xlink">
<g id="graph0" class="graph" transform="scale(1 1) rotate(0) translate(4 352)">
<title>Workflow</title>
<polygon fill="white" stroke="none" points="-4,4 -4,-352 2001,-352 2001,4 -4,4"/>
<text text-anchor="middle" x="998.5" y="-329.6" font-family="Helvetica,sans-Serif" font-size="18.00">exec_paleocar</text>
<g id="clust1" class="cluster"><title>cluster_workflow_box_outer</title>
<polygon fill="none" stroke="black" stroke-width="2" points="62,-8 62,-312 1935,-312 1935,-8 62,-8"/>
</g>
<g id="clust2" class="cluster"><title>cluster_workflow_box_inner</title>
<polygon fill="none" stroke="black" stroke-width="0" points="70,-16 70,-304 1927,-304 1927,-16 70,-16"/>
</g>
<g id="clust5" class="cluster"><title>cluster_output_ports_group_outer</title>
<polygon fill="none" stroke="black" stroke-width="0" points="1943,-10 1943,-120 1989,-120 1989,-10 1943,-10"/>
</g>
<g id="clust6" class="cluster"><title>cluster_output_ports_group_inner</title>
<polygon fill="none" stroke="black" stroke-width="0" points="1951,-18 1951,-112 1981,-112 1981,-18 1951,-18"/>
</g>
<g id="clust3" class="cluster"><title>cluster_input_ports_group_outer</title>
<polygon fill="none" stroke="black" stroke-width="0" points="8,-14 8,-156 54,-156 54,-14 8,-14"/>
</g>
<g id="clust4" class="cluster"><title>cluster_input_ports_group_inner</title>
<polygon fill="none" stroke="black" stroke-width="0" points="16,-22 16,-148 46,-148 46,-22 16,-22"/>
</g>
<!-- gen_prism_data -->
<g id="node1" class="node"><title>gen_prism_data</title>
<polygon fill="#ccffcc" stroke="black" points="388,-188 269,-188 269,-152 388,-152 388,-188"/>
<text text-anchor="middle" x="328.5" y="-166.3" font-family="Helvetica,sans-Serif" font-size="14.00">gen_prism_data</text>
</g>
<!-- prism_data -->
<g id="node11" class="node"><title>prism_data</title>
<path fill="#ffffcc" stroke="black" d="M436,-249C436,-249 570,-249 570,-249 576,-249 582,-255 582,-261 582,-261 582,-283 582,-283 582,-289 576,-295 570,-295 570,-295 436,-295 436,-295 430,-295 424,-289 424,-283 424,-283 424,-261 424,-261 424,-255 430,-249 436,-249"/>
<text text-anchor="middle" x="503" y="-279.8" font-family="Helvetica,sans-Serif" font-size="14.00">prism_data</text>
<polyline fill="none" stroke="black" points="424,-272 582,-272 "/>
<text text-anchor="middle" x="503" y="-256.8" font-family="Helvetica,sans-Serif" font-size="14.00">file:data/{data_file}.csv</text>
</g>
<!-- gen_prism_data&#45;&gt;prism_data -->
<g id="edge1" class="edge"><title>gen_prism_data&#45;&gt;prism_data</title>
<path fill="none" stroke="black" d="M351.424,-188.266C369.973,-203.153 397.665,-224.08 424,-239 427.262,-240.848 430.649,-242.656 434.102,-244.412"/>
<polygon fill="black" stroke="black" points="432.838,-247.69 443.36,-248.936 435.911,-241.401 432.838,-247.69"/>
</g>
<!-- paleocar_model -->
<g id="node2" class="node"><title>paleocar_model</title>
<polygon fill="#ccffcc" stroke="black" points="1036,-179 917,-179 917,-143 1036,-143 1036,-179"/>
<text text-anchor="middle" x="976.5" y="-157.3" font-family="Helvetica,sans-Serif" font-size="14.00">paleocar_model</text>
</g>
<!-- paleocar_models -->
<g id="node6" class="node"><title>paleocar_models</title>
<path fill="#ffffcc" stroke="black" d="M1084,-58C1084,-58 1340,-58 1340,-58 1346,-58 1352,-64 1352,-70 1352,-70 1352,-92 1352,-92 1352,-98 1346,-104 1340,-104 1340,-104 1084,-104 1084,-104 1078,-104 1072,-98 1072,-92 1072,-92 1072,-70 1072,-70 1072,-64 1078,-58 1084,-58"/>
<text text-anchor="middle" x="1212" y="-88.8" font-family="Helvetica,sans-Serif" font-size="14.00">paleocar_models</text>
<polyline fill="none" stroke="black" points="1072,-81 1352,-81 "/>
<text text-anchor="middle" x="1212" y="-65.8" font-family="Helvetica,sans-Serif" font-size="14.00">file:{run_id}/{run_count}/{label}.models.rds</text>
</g>
<!-- paleocar_model&#45;&gt;paleocar_models -->
<g id="edge9" class="edge"><title>paleocar_model&#45;&gt;paleocar_models</title>
<path fill="none" stroke="black" d="M1030.19,-142.947C1060.93,-132.416 1100.25,-118.945 1134.36,-107.257"/>
<polygon fill="black" stroke="black" points="1135.51,-110.564 1143.84,-104.011 1133.24,-103.942 1135.51,-110.564"/>
</g>
<!-- paleocar_predict_model -->
<g id="node3" class="node"><title>paleocar_predict_model</title>
<polygon fill="#ccffcc" stroke="black" points="1571,-142 1400,-142 1400,-106 1571,-106 1571,-142"/>
<text text-anchor="middle" x="1485.5" y="-120.3" font-family="Helvetica,sans-Serif" font-size="14.00">paleocar_predict_model</text>
</g>
<!-- prediction_model -->
<g id="node7" class="node"><title>prediction_model</title>
<path fill="#ffffcc" stroke="black" d="M1633.5,-107C1633.5,-107 1904.5,-107 1904.5,-107 1910.5,-107 1916.5,-113 1916.5,-119 1916.5,-119 1916.5,-141 1916.5,-141 1916.5,-147 1910.5,-153 1904.5,-153 1904.5,-153 1633.5,-153 1633.5,-153 1627.5,-153 1621.5,-147 1621.5,-141 1621.5,-141 1621.5,-119 1621.5,-119 1621.5,-113 1627.5,-107 1633.5,-107"/>
<text text-anchor="middle" x="1769" y="-137.8" font-family="Helvetica,sans-Serif" font-size="14.00">prediction_model</text>
<polyline fill="none" stroke="black" points="1621.5,-130 1916.5,-130 "/>
<text text-anchor="middle" x="1769" y="-114.8" font-family="Helvetica,sans-Serif" font-size="14.00">file:{run_id}/{run_count}/{label}.prediction.rds</text>
</g>
<!-- paleocar_predict_model&#45;&gt;prediction_model -->
<g id="edge16" class="edge"><title>paleocar_predict_model&#45;&gt;prediction_model</title>
<path fill="none" stroke="black" d="M1571.34,-125.808C1584.11,-126.08 1597.61,-126.368 1611.31,-126.66"/>
<polygon fill="black" stroke="black" points="1611.24,-130.16 1621.32,-126.874 1611.39,-123.161 1611.24,-130.16"/>
</g>
<!-- uncertainty_paleocar_model -->
<g id="node4" class="node"><title>uncertainty_paleocar_model</title>
<polygon fill="#ccffcc" stroke="black" points="1583,-83 1388,-83 1388,-47 1583,-47 1583,-83"/>
<text text-anchor="middle" x="1485.5" y="-61.3" font-family="Helvetica,sans-Serif" font-size="14.00">uncertainty_paleocar_model</text>
</g>
<!-- uncertainty_model -->
<g id="node8" class="node"><title>uncertainty_model</title>
<path fill="#ffffcc" stroke="black" d="M1631,-42C1631,-42 1907,-42 1907,-42 1913,-42 1919,-48 1919,-54 1919,-54 1919,-76 1919,-76 1919,-82 1913,-88 1907,-88 1907,-88 1631,-88 1631,-88 1625,-88 1619,-82 1619,-76 1619,-76 1619,-54 1619,-54 1619,-48 1625,-42 1631,-42"/>
<text text-anchor="middle" x="1769" y="-72.8" font-family="Helvetica,sans-Serif" font-size="14.00">uncertainty_model</text>
<polyline fill="none" stroke="black" points="1619,-65 1919,-65 "/>
<text text-anchor="middle" x="1769" y="-49.8" font-family="Helvetica,sans-Serif" font-size="14.00">file:{run_id}/{run_count}/{label}.uncertainty.rds</text>
</g>
<!-- uncertainty_paleocar_model&#45;&gt;uncertainty_model -->
<g id="edge19" class="edge"><title>uncertainty_paleocar_model&#45;&gt;uncertainty_model</title>
<path fill="none" stroke="black" d="M1583.38,-65C1591.61,-65 1600.06,-65 1608.61,-65"/>
<polygon fill="black" stroke="black" points="1608.67,-68.5001 1618.67,-65 1608.67,-61.5001 1608.67,-68.5001"/>
</g>
<!-- get_itrdb_data -->
<g id="node5" class="node"><title>get_itrdb_data</title>
<polygon fill="#ccffcc" stroke="black" points="730,-230 622,-230 622,-194 730,-194 730,-230"/>
<polygon fill="none" stroke="black" points="734,-234 618,-234 618,-190 734,-190 734,-234"/>
<text text-anchor="middle" x="676" y="-208.3" font-family="Helvetica,sans-Serif" font-size="14.00">get_itrdb_data</text>
</g>
<!-- itrdb -->
<g id="node12" class="node"><title>itrdb</title>
<path fill="#ffffcc" stroke="black" d="M840.5,-276C840.5,-276 810.5,-276 810.5,-276 804.5,-276 798.5,-270 798.5,-264 798.5,-264 798.5,-252 798.5,-252 798.5,-246 804.5,-240 810.5,-240 810.5,-240 840.5,-240 840.5,-240 846.5,-240 852.5,-246 852.5,-252 852.5,-252 852.5,-264 852.5,-264 852.5,-270 846.5,-276 840.5,-276"/>
<text text-anchor="middle" x="825.5" y="-254.3" font-family="Helvetica,sans-Serif" font-size="14.00">itrdb</text>
</g>
<!-- get_itrdb_data&#45;&gt;itrdb -->
<g id="edge4" class="edge"><title>get_itrdb_data&#45;&gt;itrdb</title>
<path fill="none" stroke="black" d="M734.027,-229.785C752.422,-235.521 772.282,-241.715 788.695,-246.834"/>
<polygon fill="black" stroke="black" points="787.837,-250.232 798.426,-249.868 789.921,-243.55 787.837,-250.232"/>
</g>
<!-- paleocar_models&#45;&gt;paleocar_predict_model -->
<g id="edge17" class="edge"><title>paleocar_models&#45;&gt;paleocar_predict_model</title>
<path fill="none" stroke="black" d="M1352.33,-103.067C1364.94,-105.064 1377.51,-107.056 1389.61,-108.971"/>
<polygon fill="black" stroke="black" points="1389.22,-112.453 1399.65,-110.561 1390.32,-105.54 1389.22,-112.453"/>
</g>
<!-- paleocar_models&#45;&gt;uncertainty_paleocar_model -->
<g id="edge20" class="edge"><title>paleocar_models&#45;&gt;uncertainty_paleocar_model</title>
<path fill="none" stroke="black" d="M1352.33,-72.7891C1360.84,-72.2872 1369.34,-71.7865 1377.69,-71.2948"/>
<polygon fill="black" stroke="black" points="1378,-74.7823 1387.78,-70.7 1377.59,-67.7944 1378,-74.7823"/>
</g>
<!-- paleocar_models_output_port -->
<g id="node24" class="node"><title>paleocar_models_output_port</title>
<ellipse fill="#ffffff" stroke="black" cx="1966" cy="-33" rx="7" ry="7"/>
</g>
<!-- paleocar_models&#45;&gt;paleocar_models_output_port -->
<g id="edge26" class="edge"><title>paleocar_models&#45;&gt;paleocar_models_output_port</title>
<path fill="none" stroke="black" d="M1291.15,-57.9893C1321.16,-50.1618 1355.91,-42.3085 1388,-38 1608.58,-8.38707 1880.86,-26.4058 1948.98,-31.6868"/>
<polygon fill="black" stroke="black" points="1948.74,-35.1787 1958.99,-32.4872 1949.3,-28.201 1948.74,-35.1787"/>
</g>
<!-- prediction_model_output_port -->
<g id="node25" class="node"><title>prediction_model_output_port</title>
<ellipse fill="#ffffff" stroke="black" cx="1966" cy="-97" rx="7" ry="7"/>
</g>
<!-- prediction_model&#45;&gt;prediction_model_output_port -->
<g id="edge27" class="edge"><title>prediction_model&#45;&gt;prediction_model_output_port</title>
<path fill="none" stroke="black" d="M1905.96,-106.991C1923.02,-104.104 1938.21,-101.534 1948.91,-99.7234"/>
<polygon fill="black" stroke="black" points="1949.66,-103.145 1958.94,-98.0258 1948.49,-96.2435 1949.66,-103.145"/>
</g>
<!-- uncertainty_model_output_port -->
<g id="node26" class="node"><title>uncertainty_model_output_port</title>
<ellipse fill="#ffffff" stroke="black" cx="1966" cy="-65" rx="7" ry="7"/>
</g>
<!-- uncertainty_model&#45;&gt;uncertainty_model_output_port -->
<g id="edge28" class="edge"><title>uncertainty_model&#45;&gt;uncertainty_model_output_port</title>
<path fill="none" stroke="black" d="M1919.28,-65C1930.8,-65 1940.96,-65 1948.76,-65"/>
<polygon fill="black" stroke="black" points="1948.93,-68.5001 1958.93,-65 1948.93,-61.5001 1948.93,-68.5001"/>
</g>
<!-- coordinates -->
<g id="node9" class="node"><title>coordinates</title>
<path fill="#ffffcc" stroke="black" d="M189,-188C189,-188 122,-188 122,-188 116,-188 110,-182 110,-176 110,-176 110,-164 110,-164 110,-158 116,-152 122,-152 122,-152 189,-152 189,-152 195,-152 201,-158 201,-164 201,-164 201,-176 201,-176 201,-182 195,-188 189,-188"/>
<text text-anchor="middle" x="155.5" y="-166.3" font-family="Helvetica,sans-Serif" font-size="14.00">coordinates</text>
</g>
<!-- coordinates&#45;&gt;gen_prism_data -->
<g id="edge2" class="edge"><title>coordinates&#45;&gt;gen_prism_data</title>
<path fill="none" stroke="black" d="M201.428,-170C218.875,-170 239.256,-170 258.481,-170"/>
<polygon fill="black" stroke="black" points="258.711,-173.5 268.711,-170 258.711,-166.5 258.711,-173.5"/>
</g>
<!-- netcdf_file -->
<g id="node10" class="node"><title>netcdf_file</title>
<path fill="#ffffcc" stroke="black" d="M90,-87C90,-87 221,-87 221,-87 227,-87 233,-93 233,-99 233,-99 233,-121 233,-121 233,-127 227,-133 221,-133 221,-133 90,-133 90,-133 84,-133 78,-127 78,-121 78,-121 78,-99 78,-99 78,-93 84,-87 90,-87"/>
<text text-anchor="middle" x="155.5" y="-117.8" font-family="Helvetica,sans-Serif" font-size="14.00">netcdf_file</text>
<polyline fill="none" stroke="black" points="78,-110 233,-110 "/>
<text text-anchor="middle" x="155.5" y="-94.8" font-family="Helvetica,sans-Serif" font-size="14.00">file:/data/{data_file}.nc</text>
</g>
<!-- netcdf_file&#45;&gt;gen_prism_data -->
<g id="edge3" class="edge"><title>netcdf_file&#45;&gt;gen_prism_data</title>
<path fill="none" stroke="black" d="M222.124,-133.026C236.664,-138.128 252.016,-143.514 266.368,-148.55"/>
<polygon fill="black" stroke="black" points="265.527,-151.964 276.122,-151.973 267.845,-145.359 265.527,-151.964"/>
</g>
<!-- prism_data&#45;&gt;paleocar_model -->
<g id="edge11" class="edge"><title>prism_data&#45;&gt;paleocar_model</title>
<path fill="none" stroke="black" d="M580.705,-295.014C660.209,-314.369 785.925,-332.081 881,-285 921.491,-264.949 949.358,-218.321 963.847,-188.303"/>
<polygon fill="black" stroke="black" points="967.039,-189.739 968.08,-179.196 960.691,-186.789 967.039,-189.739"/>
</g>
<!-- prism_data&#45;&gt;get_itrdb_data -->
<g id="edge8" class="edge"><title>prism_data&#45;&gt;get_itrdb_data</title>
<path fill="none" stroke="black" d="M569.624,-248.974C582.308,-244.523 595.61,-239.856 608.327,-235.394"/>
<polygon fill="black" stroke="black" points="609.641,-238.642 617.918,-232.029 607.324,-232.037 609.641,-238.642"/>
</g>
<!-- itrdb&#45;&gt;paleocar_model -->
<g id="edge10" class="edge"><title>itrdb&#45;&gt;paleocar_model</title>
<path fill="none" stroke="black" d="M852.513,-246.277C861.704,-241.833 871.991,-236.508 881,-231 903.508,-217.239 927.369,-199.536 945.483,-185.377"/>
<polygon fill="black" stroke="black" points="947.695,-188.09 953.376,-179.147 943.358,-182.595 947.695,-188.09"/>
</g>
<!-- calibration.year -->
<g id="node13" class="node"><title>calibration.year</title>
<path fill="#ffffcc" stroke="black" d="M869,-222C869,-222 782,-222 782,-222 776,-222 770,-216 770,-210 770,-210 770,-198 770,-198 770,-192 776,-186 782,-186 782,-186 869,-186 869,-186 875,-186 881,-192 881,-198 881,-198 881,-210 881,-210 881,-216 875,-222 869,-222"/>
<text text-anchor="middle" x="825.5" y="-200.3" font-family="Helvetica,sans-Serif" font-size="14.00">calibration.year</text>
</g>
<!-- calibration.year&#45;&gt;paleocar_model -->
<g id="edge12" class="edge"><title>calibration.year&#45;&gt;paleocar_model</title>
<path fill="none" stroke="black" d="M881.136,-188.233C889.584,-185.794 898.4,-183.25 907.104,-180.738"/>
<polygon fill="black" stroke="black" points="908.221,-184.059 916.859,-177.923 906.28,-177.333 908.221,-184.059"/>
</g>
<!-- prediction.year -->
<g id="node14" class="node"><title>prediction.year</title>
<path fill="#ffffcc" stroke="black" d="M868.5,-60C868.5,-60 782.5,-60 782.5,-60 776.5,-60 770.5,-54 770.5,-48 770.5,-48 770.5,-36 770.5,-36 770.5,-30 776.5,-24 782.5,-24 782.5,-24 868.5,-24 868.5,-24 874.5,-24 880.5,-30 880.5,-36 880.5,-36 880.5,-48 880.5,-48 880.5,-54 874.5,-60 868.5,-60"/>
<text text-anchor="middle" x="825.5" y="-38.3" font-family="Helvetica,sans-Serif" font-size="14.00">prediction.year</text>
</g>
<!-- prediction.year&#45;&gt;paleocar_model -->
<g id="edge13" class="edge"><title>prediction.year&#45;&gt;paleocar_model</title>
<path fill="none" stroke="black" d="M869.147,-60.0489C873.383,-62.7245 877.43,-65.7063 881,-69 903.856,-90.0878 894.576,-107.453 917,-129 920.052,-131.933 923.425,-134.68 926.966,-137.236"/>
<polygon fill="black" stroke="black" points="925.187,-140.255 935.46,-142.848 929.046,-134.415 925.187,-140.255"/>
</g>
<!-- prediction.year&#45;&gt;paleocar_predict_model -->
<g id="edge18" class="edge"><title>prediction.year&#45;&gt;paleocar_predict_model</title>
<path fill="none" stroke="black" d="M875.043,-60.03C923.98,-77.2501 1002.07,-102.138 1072,-113 1179.99,-129.774 1305.75,-130.463 1389.76,-128.28"/>
<polygon fill="black" stroke="black" points="1389.9,-131.778 1399.8,-128.001 1389.7,-124.781 1389.9,-131.778"/>
</g>
<!-- prediction.year&#45;&gt;uncertainty_paleocar_model -->
<g id="edge21" class="edge"><title>prediction.year&#45;&gt;uncertainty_paleocar_model</title>
<path fill="none" stroke="black" d="M880.673,-40.5484C976.068,-38.4541 1180.2,-36.039 1352,-48 1360.31,-48.5789 1368.91,-49.3303 1377.53,-50.1943"/>
<polygon fill="black" stroke="black" points="1377.35,-53.6943 1387.66,-51.2567 1378.08,-46.7325 1377.35,-53.6943"/>
</g>
<!-- calibration.years -->
<g id="node15" class="node"><title>calibration.years</title>
<path fill="#fcfcfc" stroke="black" d="M550.5,-122C550.5,-122 455.5,-122 455.5,-122 449.5,-122 443.5,-116 443.5,-110 443.5,-110 443.5,-98 443.5,-98 443.5,-92 449.5,-86 455.5,-86 455.5,-86 550.5,-86 550.5,-86 556.5,-86 562.5,-92 562.5,-98 562.5,-98 562.5,-110 562.5,-110 562.5,-116 556.5,-122 550.5,-122"/>
<text text-anchor="middle" x="503" y="-100.3" font-family="Helvetica,sans-Serif" font-size="14.00">calibration.years</text>
</g>
<!-- calibration.years&#45;&gt;get_itrdb_data -->
<g id="edge5" class="edge"><title>calibration.years&#45;&gt;get_itrdb_data</title>
<path fill="none" stroke="black" d="M562.602,-121.509C569.316,-124.32 575.924,-127.481 582,-131 605.941,-144.864 629.407,-165.368 646.778,-182.277"/>
<polygon fill="black" stroke="black" points="644.748,-185.194 654.31,-189.756 649.68,-180.226 644.748,-185.194"/>
</g>
<!-- prediction.years -->
<g id="node16" class="node"><title>prediction.years</title>
<path fill="#fcfcfc" stroke="black" d="M549.5,-230C549.5,-230 456.5,-230 456.5,-230 450.5,-230 444.5,-224 444.5,-218 444.5,-218 444.5,-206 444.5,-206 444.5,-200 450.5,-194 456.5,-194 456.5,-194 549.5,-194 549.5,-194 555.5,-194 561.5,-200 561.5,-206 561.5,-206 561.5,-218 561.5,-218 561.5,-224 555.5,-230 549.5,-230"/>
<text text-anchor="middle" x="503" y="-208.3" font-family="Helvetica,sans-Serif" font-size="14.00">prediction.years</text>
</g>
<!-- prediction.years&#45;&gt;get_itrdb_data -->
<g id="edge6" class="edge"><title>prediction.years&#45;&gt;get_itrdb_data</title>
<path fill="none" stroke="black" d="M561.893,-212C576.536,-212 592.388,-212 607.461,-212"/>
<polygon fill="black" stroke="black" points="607.747,-215.5 617.747,-212 607.747,-208.5 607.747,-215.5"/>
</g>
<!-- tree.buffer -->
<g id="node17" class="node"><title>tree.buffer</title>
<path fill="#fcfcfc" stroke="black" d="M532.5,-176C532.5,-176 473.5,-176 473.5,-176 467.5,-176 461.5,-170 461.5,-164 461.5,-164 461.5,-152 461.5,-152 461.5,-146 467.5,-140 473.5,-140 473.5,-140 532.5,-140 532.5,-140 538.5,-140 544.5,-146 544.5,-152 544.5,-152 544.5,-164 544.5,-164 544.5,-170 538.5,-176 532.5,-176"/>
<text text-anchor="middle" x="503" y="-154.3" font-family="Helvetica,sans-Serif" font-size="14.00">tree.buffer</text>
</g>
<!-- tree.buffer&#45;&gt;get_itrdb_data -->
<g id="edge7" class="edge"><title>tree.buffer&#45;&gt;get_itrdb_data</title>
<path fill="none" stroke="black" d="M544.525,-170.797C563.538,-176.802 586.7,-184.116 608.202,-190.906"/>
<polygon fill="black" stroke="black" points="607.355,-194.309 617.944,-193.982 609.463,-187.634 607.355,-194.309"/>
</g>
<!-- min.width -->
<g id="node18" class="node"><title>min.width</title>
<path fill="#fcfcfc" stroke="black" d="M851,-168C851,-168 800,-168 800,-168 794,-168 788,-162 788,-156 788,-156 788,-144 788,-144 788,-138 794,-132 800,-132 800,-132 851,-132 851,-132 857,-132 863,-138 863,-144 863,-144 863,-156 863,-156 863,-162 857,-168 851,-168"/>
<text text-anchor="middle" x="825.5" y="-146.3" font-family="Helvetica,sans-Serif" font-size="14.00">min.width</text>
</g>
<!-- min.width&#45;&gt;paleocar_model -->
<g id="edge14" class="edge"><title>min.width&#45;&gt;paleocar_model</title>
<path fill="none" stroke="black" d="M863.331,-152.719C876.425,-153.686 891.625,-154.808 906.529,-155.908"/>
<polygon fill="black" stroke="black" points="906.539,-159.418 916.77,-156.664 907.055,-152.437 906.539,-159.418"/>
</g>
<!-- verbose -->
<g id="node19" class="node"><title>verbose</title>
<path fill="#fcfcfc" stroke="black" d="M847.5,-114C847.5,-114 803.5,-114 803.5,-114 797.5,-114 791.5,-108 791.5,-102 791.5,-102 791.5,-90 791.5,-90 791.5,-84 797.5,-78 803.5,-78 803.5,-78 847.5,-78 847.5,-78 853.5,-78 859.5,-84 859.5,-90 859.5,-90 859.5,-102 859.5,-102 859.5,-108 853.5,-114 847.5,-114"/>
<text text-anchor="middle" x="825.5" y="-92.3" font-family="Helvetica,sans-Serif" font-size="14.00">verbose</text>
</g>
<!-- verbose&#45;&gt;paleocar_model -->
<g id="edge15" class="edge"><title>verbose&#45;&gt;paleocar_model</title>
<path fill="none" stroke="black" d="M859.568,-110.426C878.687,-118.766 903.144,-129.435 924.662,-138.822"/>
<polygon fill="black" stroke="black" points="923.43,-142.103 933.995,-142.894 926.229,-135.687 923.43,-142.103"/>
</g>
<!-- coordinates_input_port -->
<g id="node20" class="node"><title>coordinates_input_port</title>
<ellipse fill="#ffffff" stroke="black" cx="31" cy="-133" rx="7" ry="7"/>
</g>
<!-- coordinates_input_port&#45;&gt;coordinates -->
<g id="edge22" class="edge"><title>coordinates_input_port&#45;&gt;coordinates</title>
<path fill="none" stroke="black" d="M37.9084,-134.785C49.3424,-138.238 75.5477,-146.153 100.223,-153.606"/>
<polygon fill="black" stroke="black" points="99.346,-156.997 109.931,-156.538 101.37,-150.296 99.346,-156.997"/>
</g>
<!-- netcdf_file_input_port -->
<g id="node21" class="node"><title>netcdf_file_input_port</title>
<ellipse fill="#ffffff" stroke="black" cx="31" cy="-101" rx="7" ry="7"/>
</g>
<!-- netcdf_file_input_port&#45;&gt;netcdf_file -->
<g id="edge23" class="edge"><title>netcdf_file_input_port&#45;&gt;netcdf_file</title>
<path fill="none" stroke="black" d="M38.2432,-101.459C44.591,-101.925 55.2279,-102.707 67.5621,-103.613"/>
<polygon fill="black" stroke="black" points="67.5387,-107.12 77.7683,-104.363 68.0516,-100.139 67.5387,-107.12"/>
</g>
<!-- calibration.year_input_port -->
<g id="node22" class="node"><title>calibration.year_input_port</title>
<ellipse fill="#ffffff" stroke="black" cx="31" cy="-69" rx="7" ry="7"/>
</g>
<!-- calibration.year_input_port&#45;&gt;calibration.year -->
<g id="edge24" class="edge"><title>calibration.year_input_port&#45;&gt;calibration.year</title>
<path fill="none" stroke="black" d="M38.0306,-68.6085C68.7544,-66.649 210.964,-58 327.5,-58 327.5,-58 327.5,-58 504,-58 633.513,-58 654.79,-117.836 770,-177 772.865,-178.471 775.821,-179.975 778.805,-181.483"/>
<polygon fill="black" stroke="black" points="777.275,-184.631 787.782,-185.99 780.416,-178.375 777.275,-184.631"/>
</g>
<!-- prediction.year_input_port -->
<g id="node23" class="node"><title>prediction.year_input_port</title>
<ellipse fill="#ffffff" stroke="black" cx="31" cy="-37" rx="7" ry="7"/>
</g>
<!-- prediction.year_input_port&#45;&gt;prediction.year -->
<g id="edge25" class="edge"><title>prediction.year_input_port&#45;&gt;prediction.year</title>
<path fill="none" stroke="black" d="M38.0263,-36.395C68.729,-33.3666 210.852,-20 327.5,-20 327.5,-20 327.5,-20 504,-20 593.073,-20 695.745,-28.5622 760.382,-35.0035"/>
<polygon fill="black" stroke="black" points="760.12,-38.4948 770.422,-36.0175 760.824,-31.5302 760.12,-38.4948"/>
</g>
</g>
</svg>
