<?xml version="1.0" encoding="UTF-8" standalone="no"?>
<!DOCTYPE svg PUBLIC "-//W3C//DTD SVG 1.1//EN"
 "http://www.w3.org/Graphics/SVG/1.1/DTD/svg11.dtd">
<!-- Generated by graphviz version 2.38.0 (20140413.2041)
 -->
<!-- Title: Workflow Pages: 1 -->
<svg width="670pt" height="828pt"
 viewBox="0.00 0.00 670.00 828.00" xmlns="http://www.w3.org/2000/svg" xmlns:xlink="http://www.w3.org/1999/xlink">
<g id="graph0" class="graph" transform="scale(1 1) rotate(0) translate(4 824)">
<title>Workflow</title>
<polygon fill="white" stroke="none" points="-4,4 -4,-824 666,-824 666,4 -4,4"/>
<g id="clust1" class="cluster"><title>cluster_workflow_box_outer</title>
<polygon fill="none" stroke="black" stroke-width="2" points="8,-62 8,-758 654,-758 654,-62 8,-62"/>
</g>
<g id="clust2" class="cluster"><title>cluster_workflow_box_inner</title>
<polygon fill="none" stroke="black" stroke-width="0" points="16,-70 16,-750 646,-750 646,-70 16,-70"/>
</g>
<g id="clust5" class="cluster"><title>cluster_output_ports_group_outer</title>
<polygon fill="none" stroke="black" stroke-width="0" points="433,-8 433,-54 543,-54 543,-8 433,-8"/>
</g>
<g id="clust6" class="cluster"><title>cluster_output_ports_group_inner</title>
<polygon fill="none" stroke="black" stroke-width="0" points="441,-16 441,-46 535,-46 535,-16 441,-16"/>
</g>
<g id="clust3" class="cluster"><title>cluster_input_ports_group_outer</title>
<polygon fill="none" stroke="black" stroke-width="0" points="476,-766 476,-812 618,-812 618,-766 476,-766"/>
</g>
<g id="clust4" class="cluster"><title>cluster_input_ports_group_inner</title>
<polygon fill="none" stroke="black" stroke-width="0" points="484,-774 484,-804 610,-804 610,-774 484,-774"/>
</g>
<!-- gen_prism_data -->
<g id="node1" class="node"><title>gen_prism_data</title>
<polygon fill="#ccffcc" stroke="black" points="428.5,-659 309.5,-659 309.5,-623 428.5,-623 428.5,-659"/>
<text text-anchor="middle" x="369" y="-637.3" font-family="Helvetica,sans-Serif" font-size="14.00">gen_prism_data</text>
</g>
<!-- prism_data -->
<g id="node11" class="node"><title>prism_data</title>
<path fill="#ffffcc" stroke="black" d="M36,-540.5C36,-540.5 170,-540.5 170,-540.5 176,-540.5 182,-546.5 182,-552.5 182,-552.5 182,-574.5 182,-574.5 182,-580.5 176,-586.5 170,-586.5 170,-586.5 36,-586.5 36,-586.5 30,-586.5 24,-580.5 24,-574.5 24,-574.5 24,-552.5 24,-552.5 24,-546.5 30,-540.5 36,-540.5"/>
<text text-anchor="middle" x="103" y="-571.3" font-family="Helvetica,sans-Serif" font-size="14.00">prism_data</text>
<polyline fill="none" stroke="black" points="24,-563.5 182,-563.5 "/>
<text text-anchor="middle" x="103" y="-548.3" font-family="Helvetica,sans-Serif" font-size="14.00">file:data/{data_file}.csv</text>
</g>
<!-- gen_prism_data&#45;&gt;prism_data -->
<g id="edge1" class="edge"><title>gen_prism_data&#45;&gt;prism_data</title>
<path fill="none" stroke="black" d="M309.304,-623.056C274.285,-613.117 229.405,-600.378 190.453,-589.322"/>
<polygon fill="black" stroke="black" points="191.263,-585.914 180.687,-586.55 189.351,-592.648 191.263,-585.914"/>
</g>
<!-- paleocar_model -->
<g id="node2" class="node"><title>paleocar_model</title>
<polygon fill="#ccffcc" stroke="black" points="305.5,-352 186.5,-352 186.5,-316 305.5,-316 305.5,-352"/>
<text text-anchor="middle" x="246" y="-330.3" font-family="Helvetica,sans-Serif" font-size="14.00">paleocar_model</text>
</g>
<!-- paleocar_models -->
<g id="node6" class="node"><title>paleocar_models</title>
<path fill="#ffffcc" stroke="black" d="M350,-233.5C350,-233.5 606,-233.5 606,-233.5 612,-233.5 618,-239.5 618,-245.5 618,-245.5 618,-267.5 618,-267.5 618,-273.5 612,-279.5 606,-279.5 606,-279.5 350,-279.5 350,-279.5 344,-279.5 338,-273.5 338,-267.5 338,-267.5 338,-245.5 338,-245.5 338,-239.5 344,-233.5 350,-233.5"/>
<text text-anchor="middle" x="478" y="-264.3" font-family="Helvetica,sans-Serif" font-size="14.00">paleocar_models</text>
<polyline fill="none" stroke="black" points="338,-256.5 618,-256.5 "/>
<text text-anchor="middle" x="478" y="-241.3" font-family="Helvetica,sans-Serif" font-size="14.00">file:{run_id}/{run_count}/{label}.models.rds</text>
</g>
<!-- paleocar_model&#45;&gt;paleocar_models -->
<g id="edge9" class="edge"><title>paleocar_model&#45;&gt;paleocar_models</title>
<path fill="none" stroke="black" d="M298.355,-315.962C328.399,-306.185 366.694,-293.723 400.201,-282.818"/>
<polygon fill="black" stroke="black" points="401.546,-286.061 409.972,-279.639 399.379,-279.405 401.546,-286.061"/>
</g>
<!-- paleocar_predict_model -->
<g id="node3" class="node"><title>paleocar_predict_model</title>
<polygon fill="#ccffcc" stroke="black" points="388.5,-197 217.5,-197 217.5,-161 388.5,-161 388.5,-197"/>
<text text-anchor="middle" x="303" y="-175.3" font-family="Helvetica,sans-Serif" font-size="14.00">paleocar_predict_model</text>
</g>
<!-- prediction_model -->
<g id="node7" class="node"><title>prediction_model</title>
<path fill="#ffffcc" stroke="black" d="M36.5,-78.5C36.5,-78.5 307.5,-78.5 307.5,-78.5 313.5,-78.5 319.5,-84.5 319.5,-90.5 319.5,-90.5 319.5,-112.5 319.5,-112.5 319.5,-118.5 313.5,-124.5 307.5,-124.5 307.5,-124.5 36.5,-124.5 36.5,-124.5 30.5,-124.5 24.5,-118.5 24.5,-112.5 24.5,-112.5 24.5,-90.5 24.5,-90.5 24.5,-84.5 30.5,-78.5 36.5,-78.5"/>
<text text-anchor="middle" x="172" y="-109.3" font-family="Helvetica,sans-Serif" font-size="14.00">prediction_model</text>
<polyline fill="none" stroke="black" points="24.5,-101.5 319.5,-101.5 "/>
<text text-anchor="middle" x="172" y="-86.3" font-family="Helvetica,sans-Serif" font-size="14.00">file:{run_id}/{run_count}/{label}.prediction.rds</text>
</g>
<!-- paleocar_predict_model&#45;&gt;prediction_model -->
<g id="edge16" class="edge"><title>paleocar_predict_model&#45;&gt;prediction_model</title>
<path fill="none" stroke="black" d="M273.274,-160.868C257.315,-151.67 237.269,-140.117 219.232,-129.721"/>
<polygon fill="black" stroke="black" points="220.977,-126.688 210.565,-124.727 217.482,-132.753 220.977,-126.688"/>
</g>
<!-- uncertainty_paleocar_model -->
<g id="node4" class="node"><title>uncertainty_paleocar_model</title>
<polygon fill="#ccffcc" stroke="black" points="601.5,-197 406.5,-197 406.5,-161 601.5,-161 601.5,-197"/>
<text text-anchor="middle" x="504" y="-175.3" font-family="Helvetica,sans-Serif" font-size="14.00">uncertainty_paleocar_model</text>
</g>
<!-- uncertainty_model -->
<g id="node8" class="node"><title>uncertainty_model</title>
<path fill="#ffffcc" stroke="black" d="M350,-78.5C350,-78.5 626,-78.5 626,-78.5 632,-78.5 638,-84.5 638,-90.5 638,-90.5 638,-112.5 638,-112.5 638,-118.5 632,-124.5 626,-124.5 626,-124.5 350,-124.5 350,-124.5 344,-124.5 338,-118.5 338,-112.5 338,-112.5 338,-90.5 338,-90.5 338,-84.5 344,-78.5 350,-78.5"/>
<text text-anchor="middle" x="488" y="-109.3" font-family="Helvetica,sans-Serif" font-size="14.00">uncertainty_model</text>
<polyline fill="none" stroke="black" points="338,-101.5 638,-101.5 "/>
<text text-anchor="middle" x="488" y="-86.3" font-family="Helvetica,sans-Serif" font-size="14.00">file:{run_id}/{run_count}/{label}.uncertainty.rds</text>
</g>
<!-- uncertainty_paleocar_model&#45;&gt;uncertainty_model -->
<g id="edge19" class="edge"><title>uncertainty_paleocar_model&#45;&gt;uncertainty_model</title>
<path fill="none" stroke="black" d="M500.369,-160.868C498.721,-153.092 496.717,-143.632 494.805,-134.611"/>
<polygon fill="black" stroke="black" points="498.207,-133.784 492.71,-124.727 491.36,-135.235 498.207,-133.784"/>
</g>
<!-- get_itrdb_data -->
<g id="node5" class="node"><title>get_itrdb_data</title>
<polygon fill="#ccffcc" stroke="black" points="314,-500 206,-500 206,-464 314,-464 314,-500"/>
<polygon fill="none" stroke="black" points="318,-504 202,-504 202,-460 318,-460 318,-504"/>
<text text-anchor="middle" x="260" y="-478.3" font-family="Helvetica,sans-Serif" font-size="14.00">get_itrdb_data</text>
</g>
<!-- itrdb -->
<g id="node12" class="node"><title>itrdb</title>
<path fill="#ffffcc" stroke="black" d="M267,-424C267,-424 237,-424 237,-424 231,-424 225,-418 225,-412 225,-412 225,-400 225,-400 225,-394 231,-388 237,-388 237,-388 267,-388 267,-388 273,-388 279,-394 279,-400 279,-400 279,-412 279,-412 279,-418 273,-424 267,-424"/>
<text text-anchor="middle" x="252" y="-402.3" font-family="Helvetica,sans-Serif" font-size="14.00">itrdb</text>
</g>
<!-- get_itrdb_data&#45;&gt;itrdb -->
<g id="edge4" class="edge"><title>get_itrdb_data&#45;&gt;itrdb</title>
<path fill="none" stroke="black" d="M257.729,-459.993C256.871,-452.061 255.883,-442.915 254.971,-434.478"/>
<polygon fill="black" stroke="black" points="258.426,-433.881 253.872,-424.315 251.467,-434.633 258.426,-433.881"/>
</g>
<!-- paleocar_models&#45;&gt;paleocar_predict_model -->
<g id="edge17" class="edge"><title>paleocar_models&#45;&gt;paleocar_predict_model</title>
<path fill="none" stroke="black" d="M426.912,-233.459C403.238,-223.245 375.234,-211.164 351.844,-201.073"/>
<polygon fill="black" stroke="black" points="353.03,-197.773 342.462,-197.025 350.257,-204.2 353.03,-197.773"/>
</g>
<!-- paleocar_models&#45;&gt;uncertainty_paleocar_model -->
<g id="edge20" class="edge"><title>paleocar_models&#45;&gt;uncertainty_paleocar_model</title>
<path fill="none" stroke="black" d="M485.66,-233.256C488.503,-225.002 491.757,-215.552 494.728,-206.925"/>
<polygon fill="black" stroke="black" points="498.096,-207.892 498.043,-197.298 491.478,-205.613 498.096,-207.892"/>
</g>
<!-- paleocar_models_output_port -->
<g id="node24" class="node"><title>paleocar_models_output_port</title>
<ellipse fill="#ffffff" stroke="black" cx="520" cy="-31" rx="7" ry="7"/>
</g>
<!-- paleocar_models&#45;&gt;paleocar_models_output_port -->
<g id="edge26" class="edge"><title>paleocar_models&#45;&gt;paleocar_models_output_port</title>
<path fill="none" stroke="black" d="M552.155,-233.499C572.999,-224.662 594.465,-212.74 611,-197 636.914,-172.333 638.78,-159.82 647,-125 653.433,-97.749 664.375,-83.9572 647,-62 633.475,-44.9075 568.533,-36.561 537.108,-33.4694"/>
<polygon fill="black" stroke="black" points="537.16,-29.9596 526.882,-32.5345 536.522,-36.9305 537.16,-29.9596"/>
</g>
<!-- prediction_model_output_port -->
<g id="node25" class="node"><title>prediction_model_output_port</title>
<ellipse fill="#ffffff" stroke="black" cx="456" cy="-31" rx="7" ry="7"/>
</g>
<!-- prediction_model&#45;&gt;prediction_model_output_port -->
<g id="edge27" class="edge"><title>prediction_model&#45;&gt;prediction_model_output_port</title>
<path fill="none" stroke="black" d="M261.222,-78.4811C283.36,-73.0562 307.035,-67.2872 329,-62 368.561,-52.4769 415.125,-41.5494 439.391,-35.8758"/>
<polygon fill="black" stroke="black" points="440.443,-39.2245 449.385,-33.5418 438.851,-32.4079 440.443,-39.2245"/>
</g>
<!-- uncertainty_model_output_port -->
<g id="node26" class="node"><title>uncertainty_model_output_port</title>
<ellipse fill="#ffffff" stroke="black" cx="488" cy="-31" rx="7" ry="7"/>
</g>
<!-- uncertainty_model&#45;&gt;uncertainty_model_output_port -->
<g id="edge28" class="edge"><title>uncertainty_model&#45;&gt;uncertainty_model_output_port</title>
<path fill="none" stroke="black" d="M488,-78.4491C488,-68.6592 488,-57.3397 488,-48.3261"/>
<polygon fill="black" stroke="black" points="491.5,-48.1278 488,-38.1279 484.5,-48.1279 491.5,-48.1278"/>
</g>
<!-- coordinates -->
<g id="node9" class="node"><title>coordinates</title>
<path fill="#ffffcc" stroke="black" d="M543.5,-736.5C543.5,-736.5 476.5,-736.5 476.5,-736.5 470.5,-736.5 464.5,-730.5 464.5,-724.5 464.5,-724.5 464.5,-712.5 464.5,-712.5 464.5,-706.5 470.5,-700.5 476.5,-700.5 476.5,-700.5 543.5,-700.5 543.5,-700.5 549.5,-700.5 555.5,-706.5 555.5,-712.5 555.5,-712.5 555.5,-724.5 555.5,-724.5 555.5,-730.5 549.5,-736.5 543.5,-736.5"/>
<text text-anchor="middle" x="510" y="-714.8" font-family="Helvetica,sans-Serif" font-size="14.00">coordinates</text>
</g>
<!-- coordinates&#45;&gt;gen_prism_data -->
<g id="edge2" class="edge"><title>coordinates&#45;&gt;gen_prism_data</title>
<path fill="none" stroke="black" d="M478.005,-700.368C457.814,-689.556 431.544,-675.49 409.853,-663.875"/>
<polygon fill="black" stroke="black" points="411.336,-660.699 400.868,-659.064 408.032,-666.87 411.336,-660.699"/>
</g>
<!-- netcdf_file -->
<g id="node10" class="node"><title>netcdf_file</title>
<path fill="#ffffcc" stroke="black" d="M303.5,-695.5C303.5,-695.5 434.5,-695.5 434.5,-695.5 440.5,-695.5 446.5,-701.5 446.5,-707.5 446.5,-707.5 446.5,-729.5 446.5,-729.5 446.5,-735.5 440.5,-741.5 434.5,-741.5 434.5,-741.5 303.5,-741.5 303.5,-741.5 297.5,-741.5 291.5,-735.5 291.5,-729.5 291.5,-729.5 291.5,-707.5 291.5,-707.5 291.5,-701.5 297.5,-695.5 303.5,-695.5"/>
<text text-anchor="middle" x="369" y="-726.3" font-family="Helvetica,sans-Serif" font-size="14.00">netcdf_file</text>
<polyline fill="none" stroke="black" points="291.5,-718.5 446.5,-718.5 "/>
<text text-anchor="middle" x="369" y="-703.3" font-family="Helvetica,sans-Serif" font-size="14.00">file:/data/{data_file}.nc</text>
</g>
<!-- netcdf_file&#45;&gt;gen_prism_data -->
<g id="edge3" class="edge"><title>netcdf_file&#45;&gt;gen_prism_data</title>
<path fill="none" stroke="black" d="M369,-695.256C369,-687.182 369,-677.962 369,-669.489"/>
<polygon fill="black" stroke="black" points="372.5,-669.298 369,-659.298 365.5,-669.298 372.5,-669.298"/>
</g>
<!-- prism_data&#45;&gt;paleocar_model -->
<g id="edge11" class="edge"><title>prism_data&#45;&gt;paleocar_model</title>
<path fill="none" stroke="black" d="M98.8724,-540.421C93.4883,-504.64 88.3467,-433.421 122,-388 135.356,-369.974 156.086,-358.017 176.8,-350.112"/>
<polygon fill="black" stroke="black" points="178.028,-353.39 186.289,-346.757 175.695,-346.79 178.028,-353.39"/>
</g>
<!-- prism_data&#45;&gt;get_itrdb_data -->
<g id="edge8" class="edge"><title>prism_data&#45;&gt;get_itrdb_data</title>
<path fill="none" stroke="black" d="M146.733,-540.355C166.168,-530.514 189.165,-518.869 209.343,-508.651"/>
<polygon fill="black" stroke="black" points="211.052,-511.709 218.392,-504.069 207.89,-505.464 211.052,-511.709"/>
</g>
<!-- itrdb&#45;&gt;paleocar_model -->
<g id="edge10" class="edge"><title>itrdb&#45;&gt;paleocar_model</title>
<path fill="none" stroke="black" d="M250.517,-387.697C249.856,-379.983 249.061,-370.712 248.324,-362.112"/>
<polygon fill="black" stroke="black" points="251.807,-361.769 247.466,-352.104 244.833,-362.367 251.807,-361.769"/>
</g>
<!-- calibration.year -->
<g id="node13" class="node"><title>calibration.year</title>
<path fill="#ffffcc" stroke="black" d="M396.5,-424C396.5,-424 309.5,-424 309.5,-424 303.5,-424 297.5,-418 297.5,-412 297.5,-412 297.5,-400 297.5,-400 297.5,-394 303.5,-388 309.5,-388 309.5,-388 396.5,-388 396.5,-388 402.5,-388 408.5,-394 408.5,-400 408.5,-400 408.5,-412 408.5,-412 408.5,-418 402.5,-424 396.5,-424"/>
<text text-anchor="middle" x="353" y="-402.3" font-family="Helvetica,sans-Serif" font-size="14.00">calibration.year</text>
</g>
<!-- calibration.year&#45;&gt;paleocar_model -->
<g id="edge12" class="edge"><title>calibration.year&#45;&gt;paleocar_model</title>
<path fill="none" stroke="black" d="M326.825,-387.876C312.964,-378.808 295.759,-367.552 280.789,-357.759"/>
<polygon fill="black" stroke="black" points="282.56,-354.735 272.276,-352.19 278.728,-360.593 282.56,-354.735"/>
</g>
<!-- prediction.year -->
<g id="node14" class="node"><title>prediction.year</title>
<path fill="#ffffcc" stroke="black" d="M618,-424C618,-424 532,-424 532,-424 526,-424 520,-418 520,-412 520,-412 520,-400 520,-400 520,-394 526,-388 532,-388 532,-388 618,-388 618,-388 624,-388 630,-394 630,-400 630,-400 630,-412 630,-412 630,-418 624,-424 618,-424"/>
<text text-anchor="middle" x="575" y="-402.3" font-family="Helvetica,sans-Serif" font-size="14.00">prediction.year</text>
</g>
<!-- prediction.year&#45;&gt;paleocar_model -->
<g id="edge13" class="edge"><title>prediction.year&#45;&gt;paleocar_model</title>
<path fill="none" stroke="black" d="M519.625,-391.505C514.351,-390.291 509.078,-389.104 504,-388 422.574,-370.294 401.506,-369.331 320,-352 318.549,-351.692 317.084,-351.377 315.606,-351.059"/>
<polygon fill="black" stroke="black" points="316.254,-347.618 305.737,-348.899 314.758,-354.456 316.254,-347.618"/>
</g>
<!-- prediction.year&#45;&gt;paleocar_predict_model -->
<g id="edge18" class="edge"><title>prediction.year&#45;&gt;paleocar_predict_model</title>
<path fill="none" stroke="black" d="M519.793,-391.352C463.502,-374.566 377.724,-340.56 329,-280 312.358,-259.316 306.268,-229.126 304.092,-207.334"/>
<polygon fill="black" stroke="black" points="307.561,-206.791 303.292,-197.094 300.582,-207.336 307.561,-206.791"/>
</g>
<!-- prediction.year&#45;&gt;uncertainty_paleocar_model -->
<g id="edge21" class="edge"><title>prediction.year&#45;&gt;uncertainty_paleocar_model</title>
<path fill="none" stroke="black" d="M589.104,-387.762C613.973,-355.142 660.009,-283.166 627,-233 617.95,-219.247 604.498,-209.047 589.769,-201.487"/>
<polygon fill="black" stroke="black" points="591.001,-198.198 580.462,-197.113 588.024,-204.534 591.001,-198.198"/>
</g>
<!-- calibration.years -->
<g id="node15" class="node"><title>calibration.years</title>
<path fill="#fcfcfc" stroke="black" d="M307.5,-581.5C307.5,-581.5 212.5,-581.5 212.5,-581.5 206.5,-581.5 200.5,-575.5 200.5,-569.5 200.5,-569.5 200.5,-557.5 200.5,-557.5 200.5,-551.5 206.5,-545.5 212.5,-545.5 212.5,-545.5 307.5,-545.5 307.5,-545.5 313.5,-545.5 319.5,-551.5 319.5,-557.5 319.5,-557.5 319.5,-569.5 319.5,-569.5 319.5,-575.5 313.5,-581.5 307.5,-581.5"/>
<text text-anchor="middle" x="260" y="-559.8" font-family="Helvetica,sans-Serif" font-size="14.00">calibration.years</text>
</g>
<!-- calibration.years&#45;&gt;get_itrdb_data -->
<g id="edge5" class="edge"><title>calibration.years&#45;&gt;get_itrdb_data</title>
<path fill="none" stroke="black" d="M260,-545.25C260,-536.208 260,-524.849 260,-514.319"/>
<polygon fill="black" stroke="black" points="263.5,-514.181 260,-504.181 256.5,-514.181 263.5,-514.181"/>
</g>
<!-- prediction.years -->
<g id="node16" class="node"><title>prediction.years</title>
<path fill="#fcfcfc" stroke="black" d="M543.5,-581.5C543.5,-581.5 450.5,-581.5 450.5,-581.5 444.5,-581.5 438.5,-575.5 438.5,-569.5 438.5,-569.5 438.5,-557.5 438.5,-557.5 438.5,-551.5 444.5,-545.5 450.5,-545.5 450.5,-545.5 543.5,-545.5 543.5,-545.5 549.5,-545.5 555.5,-551.5 555.5,-557.5 555.5,-557.5 555.5,-569.5 555.5,-569.5 555.5,-575.5 549.5,-581.5 543.5,-581.5"/>
<text text-anchor="middle" x="497" y="-559.8" font-family="Helvetica,sans-Serif" font-size="14.00">prediction.years</text>
</g>
<!-- prediction.years&#45;&gt;get_itrdb_data -->
<g id="edge6" class="edge"><title>prediction.years&#45;&gt;get_itrdb_data</title>
<path fill="none" stroke="black" d="M446.158,-545.445C411.698,-533.886 365.758,-518.476 328.138,-505.856"/>
<polygon fill="black" stroke="black" points="328.86,-502.407 318.266,-502.545 326.634,-509.044 328.86,-502.407"/>
</g>
<!-- tree.buffer -->
<g id="node17" class="node"><title>tree.buffer</title>
<path fill="#fcfcfc" stroke="black" d="M408.5,-581.5C408.5,-581.5 349.5,-581.5 349.5,-581.5 343.5,-581.5 337.5,-575.5 337.5,-569.5 337.5,-569.5 337.5,-557.5 337.5,-557.5 337.5,-551.5 343.5,-545.5 349.5,-545.5 349.5,-545.5 408.5,-545.5 408.5,-545.5 414.5,-545.5 420.5,-551.5 420.5,-557.5 420.5,-557.5 420.5,-569.5 420.5,-569.5 420.5,-575.5 414.5,-581.5 408.5,-581.5"/>
<text text-anchor="middle" x="379" y="-559.8" font-family="Helvetica,sans-Serif" font-size="14.00">tree.buffer</text>
</g>
<!-- tree.buffer&#45;&gt;get_itrdb_data -->
<g id="edge7" class="edge"><title>tree.buffer&#45;&gt;get_itrdb_data</title>
<path fill="none" stroke="black" d="M353.472,-545.445C337.977,-535.094 317.862,-521.655 300.262,-509.898"/>
<polygon fill="black" stroke="black" points="302.115,-506.926 291.856,-504.282 298.226,-512.747 302.115,-506.926"/>
</g>
<!-- min.width -->
<g id="node18" class="node"><title>min.width</title>
<path fill="#fcfcfc" stroke="black" d="M194.5,-424C194.5,-424 143.5,-424 143.5,-424 137.5,-424 131.5,-418 131.5,-412 131.5,-412 131.5,-400 131.5,-400 131.5,-394 137.5,-388 143.5,-388 143.5,-388 194.5,-388 194.5,-388 200.5,-388 206.5,-394 206.5,-400 206.5,-400 206.5,-412 206.5,-412 206.5,-418 200.5,-424 194.5,-424"/>
<text text-anchor="middle" x="169" y="-402.3" font-family="Helvetica,sans-Serif" font-size="14.00">min.width</text>
</g>
<!-- min.width&#45;&gt;paleocar_model -->
<g id="edge14" class="edge"><title>min.width&#45;&gt;paleocar_model</title>
<path fill="none" stroke="black" d="M188.034,-387.697C197.545,-379.05 209.207,-368.449 219.57,-359.027"/>
<polygon fill="black" stroke="black" points="222.14,-361.421 227.185,-352.104 217.431,-356.241 222.14,-361.421"/>
</g>
<!-- verbose -->
<g id="node19" class="node"><title>verbose</title>
<path fill="#fcfcfc" stroke="black" d="M483,-424C483,-424 439,-424 439,-424 433,-424 427,-418 427,-412 427,-412 427,-400 427,-400 427,-394 433,-388 439,-388 439,-388 483,-388 483,-388 489,-388 495,-394 495,-400 495,-400 495,-412 495,-412 495,-418 489,-424 483,-424"/>
<text text-anchor="middle" x="461" y="-402.3" font-family="Helvetica,sans-Serif" font-size="14.00">verbose</text>
</g>
<!-- verbose&#45;&gt;paleocar_model -->
<g id="edge15" class="edge"><title>verbose&#45;&gt;paleocar_model</title>
<path fill="none" stroke="black" d="M426.975,-391.591C423.616,-390.346 420.249,-389.13 417,-388 383.49,-376.349 345.866,-364.551 314.459,-355.053"/>
<polygon fill="black" stroke="black" points="315.078,-351.584 304.494,-352.053 313.061,-358.287 315.078,-351.584"/>
</g>
<!-- coordinates_input_port -->
<g id="node20" class="node"><title>coordinates_input_port</title>
<ellipse fill="#ffffff" stroke="black" cx="531" cy="-789" rx="7" ry="7"/>
</g>
<!-- coordinates_input_port&#45;&gt;coordinates -->
<g id="edge22" class="edge"><title>coordinates_input_port&#45;&gt;coordinates</title>
<path fill="none" stroke="black" d="M529.21,-782.16C526.775,-774.219 522.26,-759.492 518.219,-746.311"/>
<polygon fill="black" stroke="black" points="521.541,-745.204 515.264,-736.669 514.848,-747.256 521.541,-745.204"/>
</g>
<!-- netcdf_file_input_port -->
<g id="node21" class="node"><title>netcdf_file_input_port</title>
<ellipse fill="#ffffff" stroke="black" cx="499" cy="-789" rx="7" ry="7"/>
</g>
<!-- netcdf_file_input_port&#45;&gt;netcdf_file -->
<g id="edge23" class="edge"><title>netcdf_file_input_port&#45;&gt;netcdf_file</title>
<path fill="none" stroke="black" d="M493.076,-784.879C480.123,-778.053 448.177,-761.22 419.946,-746.345"/>
<polygon fill="black" stroke="black" points="421.418,-743.164 410.939,-741.599 418.155,-749.357 421.418,-743.164"/>
</g>
<!-- calibration.year_input_port -->
<g id="node22" class="node"><title>calibration.year_input_port</title>
<ellipse fill="#ffffff" stroke="black" cx="563" cy="-789" rx="7" ry="7"/>
</g>
<!-- calibration.year_input_port&#45;&gt;calibration.year -->
<g id="edge24" class="edge"><title>calibration.year_input_port&#45;&gt;calibration.year</title>
<path fill="none" stroke="black" d="M564.51,-781.925C569.325,-762.005 584,-696.801 584,-642 584,-642 584,-642 584,-562.5 584,-518.925 469.453,-459.611 401.683,-428.332"/>
<polygon fill="black" stroke="black" points="402.998,-425.085 392.448,-424.109 400.087,-431.451 402.998,-425.085"/>
</g>
<!-- prediction.year_input_port -->
<g id="node23" class="node"><title>prediction.year_input_port</title>
<ellipse fill="#ffffff" stroke="black" cx="595" cy="-789" rx="7" ry="7"/>
</g>
<!-- prediction.year_input_port&#45;&gt;prediction.year -->
<g id="edge25" class="edge"><title>prediction.year_input_port&#45;&gt;prediction.year</title>
<path fill="none" stroke="black" d="M596.856,-782.229C602.956,-762.731 622,-697.421 622,-642 622,-642 622,-642 622,-562.5 622,-515.42 602.015,-463.62 588.109,-433.274"/>
<polygon fill="black" stroke="black" points="591.267,-431.765 583.84,-424.209 584.934,-434.747 591.267,-431.765"/>
</g>
</g>
</svg>
