<?xml version="1.0" encoding="UTF-8" standalone="no"?>
<!DOCTYPE svg PUBLIC "-//W3C//DTD SVG 1.1//EN"
 "http://www.w3.org/Graphics/SVG/1.1/DTD/svg11.dtd">
<!-- Generated by graphviz version 2.38.0 (20140413.2041)
 -->
<!-- Title: Workflow Pages: 1 -->
<svg width="1892pt" height="348pt"
 viewBox="0.00 0.00 1892.00 348.00" xmlns="http://www.w3.org/2000/svg" xmlns:xlink="http://www.w3.org/1999/xlink">
<g id="graph0" class="graph" transform="scale(1 1) rotate(0) translate(4 344)">
<title>Workflow</title>
<polygon fill="white" stroke="none" points="-4,4 -4,-344 1888,-344 1888,4 -4,4"/>
<text text-anchor="middle" x="942" y="-321.6" font-family="Helvetica,sans-Serif" font-size="18.00">paleocar_models</text>
<g id="clust1" class="cluster"><title>cluster_workflow_box_outer</title>
<polygon fill="none" stroke="black" stroke-width="2" points="62,-8 62,-304 1822,-304 1822,-8 62,-8"/>
</g>
<g id="clust2" class="cluster"><title>cluster_workflow_box_inner</title>
<polygon fill="none" stroke="black" stroke-width="0" points="70,-16 70,-296 1814,-296 1814,-16 70,-16"/>
</g>
<g id="clust5" class="cluster"><title>cluster_output_ports_group_outer</title>
<polygon fill="none" stroke="black" stroke-width="0" points="1830,-120 1830,-166 1876,-166 1876,-120 1830,-120"/>
</g>
<g id="clust6" class="cluster"><title>cluster_output_ports_group_inner</title>
<polygon fill="none" stroke="black" stroke-width="0" points="1838,-128 1838,-158 1868,-158 1868,-128 1838,-128"/>
</g>
<g id="clust3" class="cluster"><title>cluster_input_ports_group_outer</title>
<polygon fill="none" stroke="black" stroke-width="0" points="8,-75 8,-249 54,-249 54,-75 8,-75"/>
</g>
<g id="clust4" class="cluster"><title>cluster_input_ports_group_inner</title>
<polygon fill="none" stroke="black" stroke-width="0" points="16,-83 16,-241 46,-241 46,-83 16,-83"/>
</g>
<!-- get_predictor_matrix -->
<g id="node1" class="node"><title>get_predictor_matrix</title>
<polygon fill="#ccffcc" stroke="black" points="393.5,-180 246.5,-180 246.5,-144 393.5,-144 393.5,-180"/>
<text text-anchor="middle" x="320" y="-158.3" font-family="Helvetica,sans-Serif" font-size="14.00">get_predictor_matrix</text>
</g>
<!-- predictor.matrix -->
<g id="node17" class="node"><title>predictor.matrix</title>
<path fill="#ffffcc" stroke="black" d="M564.5,-134C564.5,-134 474.5,-134 474.5,-134 468.5,-134 462.5,-128 462.5,-122 462.5,-122 462.5,-110 462.5,-110 462.5,-104 468.5,-98 474.5,-98 474.5,-98 564.5,-98 564.5,-98 570.5,-98 576.5,-104 576.5,-110 576.5,-110 576.5,-122 576.5,-122 576.5,-128 570.5,-134 564.5,-134"/>
<text text-anchor="middle" x="519.5" y="-112.3" font-family="Helvetica,sans-Serif" font-size="14.00">predictor.matrix</text>
</g>
<!-- get_predictor_matrix&#45;&gt;predictor.matrix -->
<g id="edge1" class="edge"><title>get_predictor_matrix&#45;&gt;predictor.matrix</title>
<path fill="none" stroke="black" d="M393.7,-145.067C412.906,-140.594 433.528,-135.791 452.365,-131.404"/>
<polygon fill="black" stroke="black" points="453.385,-134.76 462.331,-129.082 451.797,-127.942 453.385,-134.76"/>
</g>
<!-- max.preds -->
<g id="node20" class="node"><title>max.preds</title>
<path fill="#ffffcc" stroke="black" d="M710,-180C710,-180 651,-180 651,-180 645,-180 639,-174 639,-168 639,-168 639,-156 639,-156 639,-150 645,-144 651,-144 651,-144 710,-144 710,-144 716,-144 722,-150 722,-156 722,-156 722,-168 722,-168 722,-174 716,-180 710,-180"/>
<text text-anchor="middle" x="680.5" y="-158.3" font-family="Helvetica,sans-Serif" font-size="14.00">max.preds</text>
</g>
<!-- get_predictor_matrix&#45;&gt;max.preds -->
<g id="edge2" class="edge"><title>get_predictor_matrix&#45;&gt;max.preds</title>
<path fill="none" stroke="black" d="M393.548,-162C463.369,-162 567.149,-162 628.602,-162"/>
<polygon fill="black" stroke="black" points="628.828,-165.5 638.828,-162 628.828,-158.5 628.828,-165.5"/>
</g>
<!-- get_reconstruction_matrix -->
<g id="node2" class="node"><title>get_reconstruction_matrix</title>
<polygon fill="#ccffcc" stroke="black" points="410,-234 230,-234 230,-198 410,-198 410,-234"/>
<text text-anchor="middle" x="320" y="-212.3" font-family="Helvetica,sans-Serif" font-size="14.00">get_reconstruction_matrix</text>
</g>
<!-- reconstruction.matrix -->
<g id="node14" class="node"><title>reconstruction.matrix</title>
<path fill="#ffffcc" stroke="black" d="M581,-234C581,-234 458,-234 458,-234 452,-234 446,-228 446,-222 446,-222 446,-210 446,-210 446,-204 452,-198 458,-198 458,-198 581,-198 581,-198 587,-198 593,-204 593,-210 593,-210 593,-222 593,-222 593,-228 587,-234 581,-234"/>
<text text-anchor="middle" x="519.5" y="-212.3" font-family="Helvetica,sans-Serif" font-size="14.00">reconstruction.matrix</text>
</g>
<!-- get_reconstruction_matrix&#45;&gt;reconstruction.matrix -->
<g id="edge6" class="edge"><title>get_reconstruction_matrix&#45;&gt;reconstruction.matrix</title>
<path fill="none" stroke="black" d="M410.216,-216C418.719,-216 427.317,-216 435.755,-216"/>
<polygon fill="black" stroke="black" points="435.951,-219.5 445.951,-216 435.951,-212.5 435.951,-219.5"/>
</g>
<!-- get_predlist -->
<g id="node3" class="node"><title>get_predlist</title>
<polygon fill="#ccffcc" stroke="black" points="726.5,-234 634.5,-234 634.5,-198 726.5,-198 726.5,-234"/>
<text text-anchor="middle" x="680.5" y="-212.3" font-family="Helvetica,sans-Serif" font-size="14.00">get_predlist</text>
</g>
<!-- predlist -->
<g id="node18" class="node"><title>predlist</title>
<path fill="#ffffcc" stroke="black" d="M827.5,-217C827.5,-217 788.5,-217 788.5,-217 782.5,-217 776.5,-211 776.5,-205 776.5,-205 776.5,-193 776.5,-193 776.5,-187 782.5,-181 788.5,-181 788.5,-181 827.5,-181 827.5,-181 833.5,-181 839.5,-187 839.5,-193 839.5,-193 839.5,-205 839.5,-205 839.5,-211 833.5,-217 827.5,-217"/>
<text text-anchor="middle" x="808" y="-195.3" font-family="Helvetica,sans-Serif" font-size="14.00">predlist</text>
</g>
<!-- get_predlist&#45;&gt;predlist -->
<g id="edge10" class="edge"><title>get_predlist&#45;&gt;predlist</title>
<path fill="none" stroke="black" d="M726.808,-209.863C739.644,-208.124 753.537,-206.242 766.096,-204.541"/>
<polygon fill="black" stroke="black" points="766.84,-207.972 776.279,-203.161 765.9,-201.035 766.84,-207.972"/>
</g>
<!-- get_predictand_matrix -->
<g id="node4" class="node"><title>get_predictand_matrix</title>
<polygon fill="#ccffcc" stroke="black" points="399,-69 241,-69 241,-33 399,-33 399,-69"/>
<text text-anchor="middle" x="320" y="-47.3" font-family="Helvetica,sans-Serif" font-size="14.00">get_predictand_matrix</text>
</g>
<!-- predictand.matrix -->
<g id="node16" class="node"><title>predictand.matrix</title>
<path fill="#ffffcc" stroke="black" d="M570,-76C570,-76 469,-76 469,-76 463,-76 457,-70 457,-64 457,-64 457,-52 457,-52 457,-46 463,-40 469,-40 469,-40 570,-40 570,-40 576,-40 582,-46 582,-52 582,-52 582,-64 582,-64 582,-70 576,-76 570,-76"/>
<text text-anchor="middle" x="519.5" y="-54.3" font-family="Helvetica,sans-Serif" font-size="14.00">predictand.matrix</text>
</g>
<!-- get_predictand_matrix&#45;&gt;predictand.matrix -->
<g id="edge12" class="edge"><title>get_predictand_matrix&#45;&gt;predictand.matrix</title>
<path fill="none" stroke="black" d="M399.057,-53.7666C414.801,-54.3246 431.279,-54.9086 446.793,-55.4585"/>
<polygon fill="black" stroke="black" points="446.713,-58.9577 456.831,-55.8142 446.961,-51.9621 446.713,-58.9577"/>
</g>
<!-- getCarscores -->
<g id="node5" class="node"><title>getCarscores</title>
<polygon fill="#ccffcc" stroke="black" points="732,-126 629,-126 629,-90 732,-90 732,-126"/>
<text text-anchor="middle" x="680.5" y="-104.3" font-family="Helvetica,sans-Serif" font-size="14.00">getCarscores</text>
</g>
<!-- carscores -->
<g id="node19" class="node"><title>carscores</title>
<path fill="#ffffcc" stroke="black" d="M836,-134C836,-134 780,-134 780,-134 774,-134 768,-128 768,-122 768,-122 768,-110 768,-110 768,-104 774,-98 780,-98 780,-98 836,-98 836,-98 842,-98 848,-104 848,-110 848,-110 848,-122 848,-122 848,-128 842,-134 836,-134"/>
<text text-anchor="middle" x="808" y="-112.3" font-family="Helvetica,sans-Serif" font-size="14.00">carscores</text>
</g>
<!-- getCarscores&#45;&gt;carscores -->
<g id="edge14" class="edge"><title>getCarscores&#45;&gt;carscores</title>
<path fill="none" stroke="black" d="M732.184,-111.231C740.599,-111.767 749.316,-112.323 757.696,-112.857"/>
<polygon fill="black" stroke="black" points="757.507,-116.352 767.709,-113.495 757.952,-109.366 757.507,-116.352"/>
</g>
<!-- calculateModels -->
<g id="node6" class="node"><title>calculateModels</title>
<polygon fill="#ccffcc" stroke="black" points="1014.5,-188 895.5,-188 895.5,-152 1014.5,-152 1014.5,-188"/>
<text text-anchor="middle" x="955" y="-166.3" font-family="Helvetica,sans-Serif" font-size="14.00">calculateModels</text>
</g>
<!-- linear.models -->
<g id="node25" class="node"><title>linear.models</title>
<path fill="#ffffcc" stroke="black" d="M1151,-188C1151,-188 1074,-188 1074,-188 1068,-188 1062,-182 1062,-176 1062,-176 1062,-164 1062,-164 1062,-158 1068,-152 1074,-152 1074,-152 1151,-152 1151,-152 1157,-152 1163,-158 1163,-164 1163,-164 1163,-176 1163,-176 1163,-182 1157,-188 1151,-188"/>
<text text-anchor="middle" x="1112.5" y="-166.3" font-family="Helvetica,sans-Serif" font-size="14.00">linear.models</text>
</g>
<!-- calculateModels&#45;&gt;linear.models -->
<g id="edge17" class="edge"><title>calculateModels&#45;&gt;linear.models</title>
<path fill="none" stroke="black" d="M1014.79,-170C1026.88,-170 1039.63,-170 1051.76,-170"/>
<polygon fill="black" stroke="black" points="1051.77,-173.5 1061.77,-170 1051.77,-166.5 1051.77,-173.5"/>
</g>
<!-- defineLinearModels -->
<g id="node7" class="node"><title>defineLinearModels</title>
<polygon fill="#ccffcc" stroke="black" points="1026,-134 884,-134 884,-98 1026,-98 1026,-134"/>
<text text-anchor="middle" x="955" y="-112.3" font-family="Helvetica,sans-Serif" font-size="14.00">defineLinearModels</text>
</g>
<!-- models -->
<g id="node21" class="node"><title>models</title>
<path fill="#ffffcc" stroke="black" d="M1132.5,-80C1132.5,-80 1092.5,-80 1092.5,-80 1086.5,-80 1080.5,-74 1080.5,-68 1080.5,-68 1080.5,-56 1080.5,-56 1080.5,-50 1086.5,-44 1092.5,-44 1092.5,-44 1132.5,-44 1132.5,-44 1138.5,-44 1144.5,-50 1144.5,-56 1144.5,-56 1144.5,-68 1144.5,-68 1144.5,-74 1138.5,-80 1132.5,-80"/>
<text text-anchor="middle" x="1112.5" y="-58.3" font-family="Helvetica,sans-Serif" font-size="14.00">models</text>
</g>
<!-- defineLinearModels&#45;&gt;models -->
<g id="edge21" class="edge"><title>defineLinearModels&#45;&gt;models</title>
<path fill="none" stroke="black" d="M1008.21,-97.8686C1028.5,-90.8238 1051.39,-82.8729 1070.46,-76.2503"/>
<polygon fill="black" stroke="black" points="1071.76,-79.507 1080.05,-72.9201 1069.46,-72.8943 1071.76,-79.507"/>
</g>
<!-- matches -->
<g id="node22" class="node"><title>matches</title>
<path fill="#ffffcc" stroke="black" d="M1136,-134C1136,-134 1089,-134 1089,-134 1083,-134 1077,-128 1077,-122 1077,-122 1077,-110 1077,-110 1077,-104 1083,-98 1089,-98 1089,-98 1136,-98 1136,-98 1142,-98 1148,-104 1148,-110 1148,-110 1148,-122 1148,-122 1148,-128 1142,-134 1136,-134"/>
<text text-anchor="middle" x="1112.5" y="-112.3" font-family="Helvetica,sans-Serif" font-size="14.00">matches</text>
</g>
<!-- defineLinearModels&#45;&gt;matches -->
<g id="edge22" class="edge"><title>defineLinearModels&#45;&gt;matches</title>
<path fill="none" stroke="black" d="M1026.02,-116C1039.75,-116 1053.8,-116 1066.44,-116"/>
<polygon fill="black" stroke="black" points="1066.7,-119.5 1076.7,-116 1066.7,-112.5 1066.7,-119.5"/>
</g>
<!-- calculateLinearModels -->
<g id="node8" class="node"><title>calculateLinearModels</title>
<polygon fill="#ccffcc" stroke="black" points="1357,-107 1199,-107 1199,-71 1357,-71 1357,-107"/>
<text text-anchor="middle" x="1278" y="-85.3" font-family="Helvetica,sans-Serif" font-size="14.00">calculateLinearModels</text>
</g>
<!-- coefficients -->
<g id="node23" class="node"><title>coefficients</title>
<path fill="#ffffcc" stroke="black" d="M1475,-89C1475,-89 1409,-89 1409,-89 1403,-89 1397,-83 1397,-77 1397,-77 1397,-65 1397,-65 1397,-59 1403,-53 1409,-53 1409,-53 1475,-53 1475,-53 1481,-53 1487,-59 1487,-65 1487,-65 1487,-77 1487,-77 1487,-83 1481,-89 1475,-89"/>
<text text-anchor="middle" x="1442" y="-67.3" font-family="Helvetica,sans-Serif" font-size="14.00">coefficients</text>
</g>
<!-- calculateLinearModels&#45;&gt;coefficients -->
<g id="edge25" class="edge"><title>calculateLinearModels&#45;&gt;coefficients</title>
<path fill="none" stroke="black" d="M1357.15,-80.3163C1367.14,-79.2072 1377.18,-78.0916 1386.67,-77.0371"/>
<polygon fill="black" stroke="black" points="1387.17,-80.5031 1396.72,-75.9201 1386.39,-73.5459 1387.17,-80.5031"/>
</g>
<!-- model.errors -->
<g id="node24" class="node"><title>model.errors</title>
<path fill="#ffffcc" stroke="black" d="M1479,-143C1479,-143 1405,-143 1405,-143 1399,-143 1393,-137 1393,-131 1393,-131 1393,-119 1393,-119 1393,-113 1399,-107 1405,-107 1405,-107 1479,-107 1479,-107 1485,-107 1491,-113 1491,-119 1491,-119 1491,-131 1491,-131 1491,-137 1485,-143 1479,-143"/>
<text text-anchor="middle" x="1442" y="-121.3" font-family="Helvetica,sans-Serif" font-size="14.00">model.errors</text>
</g>
<!-- calculateLinearModels&#45;&gt;model.errors -->
<g id="edge26" class="edge"><title>calculateLinearModels&#45;&gt;model.errors</title>
<path fill="none" stroke="black" d="M1357.15,-106.367C1365.78,-108.285 1374.45,-110.212 1382.78,-112.061"/>
<polygon fill="black" stroke="black" points="1382.21,-115.52 1392.73,-114.273 1383.72,-108.687 1382.21,-115.52"/>
</g>
<!-- simplifyLinearModels -->
<g id="node9" class="node"><title>simplifyLinearModels</title>
<polygon fill="#ccffcc" stroke="black" points="1677,-134 1527,-134 1527,-98 1677,-98 1677,-134"/>
<text text-anchor="middle" x="1602" y="-112.3" font-family="Helvetica,sans-Serif" font-size="14.00">simplifyLinearModels</text>
</g>
<!-- final.models -->
<g id="node26" class="node"><title>final.models</title>
<path fill="#ffffcc" stroke="black" d="M1794,-161C1794,-161 1725,-161 1725,-161 1719,-161 1713,-155 1713,-149 1713,-149 1713,-137 1713,-137 1713,-131 1719,-125 1725,-125 1725,-125 1794,-125 1794,-125 1800,-125 1806,-131 1806,-137 1806,-137 1806,-149 1806,-149 1806,-155 1800,-161 1794,-161"/>
<text text-anchor="middle" x="1759.5" y="-139.3" font-family="Helvetica,sans-Serif" font-size="14.00">final.models</text>
</g>
<!-- simplifyLinearModels&#45;&gt;final.models -->
<g id="edge29" class="edge"><title>simplifyLinearModels&#45;&gt;final.models</title>
<path fill="none" stroke="black" d="M1677.11,-128.867C1685.78,-130.374 1694.52,-131.891 1702.88,-133.343"/>
<polygon fill="black" stroke="black" points="1702.42,-136.815 1712.87,-135.077 1703.62,-129.918 1702.42,-136.815"/>
</g>
<!-- optimizeModels -->
<g id="node10" class="node"><title>optimizeModels</title>
<polygon fill="#ccffcc" stroke="black" points="1660,-188 1544,-188 1544,-152 1660,-152 1660,-188"/>
<text text-anchor="middle" x="1602" y="-166.3" font-family="Helvetica,sans-Serif" font-size="14.00">optimizeModels</text>
</g>
<!-- optimizeModels&#45;&gt;final.models -->
<g id="edge32" class="edge"><title>optimizeModels&#45;&gt;final.models</title>
<path fill="none" stroke="black" d="M1660.02,-160.1C1673.97,-157.677 1688.88,-155.088 1702.77,-152.677"/>
<polygon fill="black" stroke="black" points="1703.42,-156.116 1712.67,-150.957 1702.22,-149.22 1703.42,-156.116"/>
</g>
<!-- itrdb -->
<g id="node11" class="node"><title>itrdb</title>
<path fill="#ffffcc" stroke="black" d="M151,-180C151,-180 121,-180 121,-180 115,-180 109,-174 109,-168 109,-168 109,-156 109,-156 109,-150 115,-144 121,-144 121,-144 151,-144 151,-144 157,-144 163,-150 163,-156 163,-156 163,-168 163,-168 163,-174 157,-180 151,-180"/>
<text text-anchor="middle" x="136" y="-158.3" font-family="Helvetica,sans-Serif" font-size="14.00">itrdb</text>
</g>
<!-- itrdb&#45;&gt;get_predictor_matrix -->
<g id="edge3" class="edge"><title>itrdb&#45;&gt;get_predictor_matrix</title>
<path fill="none" stroke="black" d="M163.076,-162C182.338,-162 209.696,-162 236.132,-162"/>
<polygon fill="black" stroke="black" points="236.2,-165.5 246.2,-162 236.2,-158.5 236.2,-165.5"/>
</g>
<!-- itrdb&#45;&gt;get_reconstruction_matrix -->
<g id="edge7" class="edge"><title>itrdb&#45;&gt;get_reconstruction_matrix</title>
<path fill="none" stroke="black" d="M163.076,-169.737C185.338,-176.342 218.416,-186.156 248.384,-195.048"/>
<polygon fill="black" stroke="black" points="247.405,-198.408 257.987,-197.897 249.396,-191.697 247.405,-198.408"/>
</g>
<!-- calibration_year -->
<g id="node12" class="node"><title>calibration_year</title>
<path fill="#ffffcc" stroke="black" d="M182,-126C182,-126 90,-126 90,-126 84,-126 78,-120 78,-114 78,-114 78,-102 78,-102 78,-96 84,-90 90,-90 90,-90 182,-90 182,-90 188,-90 194,-96 194,-102 194,-102 194,-114 194,-114 194,-120 188,-126 182,-126"/>
<text text-anchor="middle" x="136" y="-104.3" font-family="Helvetica,sans-Serif" font-size="14.00">calibration_year</text>
</g>
<!-- calibration_year&#45;&gt;get_predictor_matrix -->
<g id="edge4" class="edge"><title>calibration_year&#45;&gt;get_predictor_matrix</title>
<path fill="none" stroke="black" d="M194.087,-124.938C211.239,-130.027 230.266,-135.672 248.193,-140.991"/>
<polygon fill="black" stroke="black" points="247.437,-144.418 258.02,-143.907 249.429,-137.707 247.437,-144.418"/>
</g>
<!-- prediction_year -->
<g id="node13" class="node"><title>prediction_year</title>
<path fill="#ffffcc" stroke="black" d="M181,-288C181,-288 91,-288 91,-288 85,-288 79,-282 79,-276 79,-276 79,-264 79,-264 79,-258 85,-252 91,-252 91,-252 181,-252 181,-252 187,-252 193,-258 193,-264 193,-264 193,-276 193,-276 193,-282 187,-288 181,-288"/>
<text text-anchor="middle" x="136" y="-266.3" font-family="Helvetica,sans-Serif" font-size="14.00">prediction_year</text>
</g>
<!-- prediction_year&#45;&gt;get_reconstruction_matrix -->
<g id="edge8" class="edge"><title>prediction_year&#45;&gt;get_reconstruction_matrix</title>
<path fill="none" stroke="black" d="M193.091,-253.358C210.532,-248.183 229.99,-242.41 248.293,-236.979"/>
<polygon fill="black" stroke="black" points="249.441,-240.289 258.032,-234.089 247.449,-233.579 249.441,-240.289"/>
</g>
<!-- reconstruction.matrix&#45;&gt;get_predlist -->
<g id="edge11" class="edge"><title>reconstruction.matrix&#45;&gt;get_predlist</title>
<path fill="none" stroke="black" d="M593.021,-216C603.476,-216 614.094,-216 624.143,-216"/>
<polygon fill="black" stroke="black" points="624.379,-219.5 634.379,-216 624.379,-212.5 624.379,-219.5"/>
</g>
<!-- prism_data -->
<g id="node15" class="node"><title>prism_data</title>
<path fill="#ffffcc" stroke="black" d="M94.5,-25C94.5,-25 177.5,-25 177.5,-25 183.5,-25 189.5,-31 189.5,-37 189.5,-37 189.5,-59 189.5,-59 189.5,-65 183.5,-71 177.5,-71 177.5,-71 94.5,-71 94.5,-71 88.5,-71 82.5,-65 82.5,-59 82.5,-59 82.5,-37 82.5,-37 82.5,-31 88.5,-25 94.5,-25"/>
<text text-anchor="middle" x="136" y="-55.8" font-family="Helvetica,sans-Serif" font-size="14.00">prism_data</text>
<polyline fill="none" stroke="black" points="82.5,-48 189.5,-48 "/>
<text text-anchor="middle" x="136" y="-32.8" font-family="Helvetica,sans-Serif" font-size="14.00">112W36N.csv</text>
</g>
<!-- prism_data&#45;&gt;get_predictand_matrix -->
<g id="edge13" class="edge"><title>prism_data&#45;&gt;get_predictand_matrix</title>
<path fill="none" stroke="black" d="M189.642,-48.8677C202.483,-49.0794 216.571,-49.3116 230.577,-49.5425"/>
<polygon fill="black" stroke="black" points="230.687,-53.0447 240.743,-49.71 230.802,-46.0456 230.687,-53.0447"/>
</g>
<!-- predictand.matrix&#45;&gt;getCarscores -->
<g id="edge15" class="edge"><title>predictand.matrix&#45;&gt;getCarscores</title>
<path fill="none" stroke="black" d="M577.903,-76.0511C591.288,-80.2603 605.581,-84.755 619.092,-89.0038"/>
<polygon fill="black" stroke="black" points="618.179,-92.3854 628.768,-92.0465 620.278,-85.7078 618.179,-92.3854"/>
</g>
<!-- predictor.matrix&#45;&gt;getCarscores -->
<g id="edge16" class="edge"><title>predictor.matrix&#45;&gt;getCarscores</title>
<path fill="none" stroke="black" d="M576.557,-113.179C590.166,-112.495 604.78,-111.759 618.6,-111.064"/>
<polygon fill="black" stroke="black" points="619.173,-114.54 628.984,-110.542 618.821,-107.549 619.173,-114.54"/>
</g>
<!-- predlist&#45;&gt;calculateModels -->
<g id="edge18" class="edge"><title>predlist&#45;&gt;calculateModels</title>
<path fill="none" stroke="black" d="M839.751,-192.85C853.175,-190.165 869.497,-186.901 885.552,-183.69"/>
<polygon fill="black" stroke="black" points="886.367,-187.096 895.487,-181.703 884.994,-180.232 886.367,-187.096"/>
</g>
<!-- predlist&#45;&gt;defineLinearModels -->
<g id="edge23" class="edge"><title>predlist&#45;&gt;defineLinearModels</title>
<path fill="none" stroke="black" d="M829.92,-180.927C844.404,-169.047 864.514,-153.766 884,-143 886.998,-141.344 890.119,-139.743 893.306,-138.203"/>
<polygon fill="black" stroke="black" points="894.779,-141.378 902.413,-134.032 891.864,-135.014 894.779,-141.378"/>
</g>
<!-- carscores&#45;&gt;calculateModels -->
<g id="edge19" class="edge"><title>carscores&#45;&gt;calculateModels</title>
<path fill="none" stroke="black" d="M848.239,-130.613C862.825,-136.045 879.704,-142.331 895.635,-148.264"/>
<polygon fill="black" stroke="black" points="894.811,-151.692 905.404,-151.902 897.254,-145.132 894.811,-151.692"/>
</g>
<!-- carscores&#45;&gt;defineLinearModels -->
<g id="edge24" class="edge"><title>carscores&#45;&gt;defineLinearModels</title>
<path fill="none" stroke="black" d="M848.239,-116C856.283,-116 865.024,-116 873.919,-116"/>
<polygon fill="black" stroke="black" points="873.999,-119.5 883.999,-116 873.999,-112.5 873.999,-119.5"/>
</g>
<!-- max.preds&#45;&gt;calculateModels -->
<g id="edge20" class="edge"><title>max.preds&#45;&gt;calculateModels</title>
<path fill="none" stroke="black" d="M722.002,-163.189C765.021,-164.452 833.79,-166.471 885.308,-167.983"/>
<polygon fill="black" stroke="black" points="885.27,-171.484 895.368,-168.279 885.475,-164.487 885.27,-171.484"/>
</g>
<!-- models&#45;&gt;calculateLinearModels -->
<g id="edge27" class="edge"><title>models&#45;&gt;calculateLinearModels</title>
<path fill="none" stroke="black" d="M1144.64,-67.142C1157.45,-69.258 1173,-71.8257 1188.87,-74.4466"/>
<polygon fill="black" stroke="black" points="1188.34,-77.9057 1198.77,-76.0818 1189.48,-70.9992 1188.34,-77.9057"/>
</g>
<!-- matches&#45;&gt;calculateLinearModels -->
<g id="edge28" class="edge"><title>matches&#45;&gt;calculateLinearModels</title>
<path fill="none" stroke="black" d="M1148.17,-110.274C1160.28,-108.274 1174.48,-105.929 1188.95,-103.54"/>
<polygon fill="black" stroke="black" points="1189.69,-106.966 1198.98,-101.883 1188.55,-100.06 1189.69,-106.966"/>
</g>
<!-- coefficients&#45;&gt;simplifyLinearModels -->
<g id="edge30" class="edge"><title>coefficients&#45;&gt;simplifyLinearModels</title>
<path fill="none" stroke="black" d="M1487.01,-83.535C1499.77,-87.1694 1514.06,-91.2384 1528.09,-95.2341"/>
<polygon fill="black" stroke="black" points="1527.16,-98.6093 1537.74,-97.9824 1529.08,-91.877 1527.16,-98.6093"/>
</g>
<!-- model.errors&#45;&gt;simplifyLinearModels -->
<g id="edge31" class="edge"><title>model.errors&#45;&gt;simplifyLinearModels</title>
<path fill="none" stroke="black" d="M1491.26,-122.251C1499.35,-121.79 1507.95,-121.3 1516.63,-120.806"/>
<polygon fill="black" stroke="black" points="1517.06,-124.287 1526.84,-120.224 1516.66,-117.299 1517.06,-124.287"/>
</g>
<!-- linear.models&#45;&gt;optimizeModels -->
<g id="edge33" class="edge"><title>linear.models&#45;&gt;optimizeModels</title>
<path fill="none" stroke="black" d="M1163.38,-170C1251.39,-170 1434.29,-170 1533.49,-170"/>
<polygon fill="black" stroke="black" points="1533.7,-173.5 1543.7,-170 1533.7,-166.5 1533.7,-173.5"/>
</g>
<!-- final.models_output_port -->
<g id="node33" class="node"><title>final.models_output_port</title>
<ellipse fill="#ffffff" stroke="black" cx="1853" cy="-143" rx="7" ry="7"/>
</g>
<!-- final.models&#45;&gt;final.models_output_port -->
<g id="edge39" class="edge"><title>final.models&#45;&gt;final.models_output_port</title>
<path fill="none" stroke="black" d="M1806.25,-143C1816.94,-143 1827.63,-143 1835.98,-143"/>
<polygon fill="black" stroke="black" points="1836,-146.5 1846,-143 1836,-139.5 1836,-146.5"/>
</g>
<!-- min.width -->
<g id="node27" class="node"><title>min.width</title>
<path fill="#fcfcfc" stroke="black" d="M161.5,-234C161.5,-234 110.5,-234 110.5,-234 104.5,-234 98.5,-228 98.5,-222 98.5,-222 98.5,-210 98.5,-210 98.5,-204 104.5,-198 110.5,-198 110.5,-198 161.5,-198 161.5,-198 167.5,-198 173.5,-204 173.5,-210 173.5,-210 173.5,-222 173.5,-222 173.5,-228 167.5,-234 161.5,-234"/>
<text text-anchor="middle" x="136" y="-212.3" font-family="Helvetica,sans-Serif" font-size="14.00">min.width</text>
</g>
<!-- min.width&#45;&gt;get_predictor_matrix -->
<g id="edge5" class="edge"><title>min.width&#45;&gt;get_predictor_matrix</title>
<path fill="none" stroke="black" d="M173.83,-205.072C195.29,-198.705 223.069,-190.463 248.573,-182.896"/>
<polygon fill="black" stroke="black" points="249.627,-186.234 258.219,-180.034 247.636,-179.523 249.627,-186.234"/>
</g>
<!-- min.width&#45;&gt;get_reconstruction_matrix -->
<g id="edge9" class="edge"><title>min.width&#45;&gt;get_reconstruction_matrix</title>
<path fill="none" stroke="black" d="M173.83,-216C187.335,-216 203.342,-216 219.71,-216"/>
<polygon fill="black" stroke="black" points="219.929,-219.5 229.929,-216 219.929,-212.5 219.929,-219.5"/>
</g>
<!-- itrdb_input_port -->
<g id="node28" class="node"><title>itrdb_input_port</title>
<ellipse fill="#ffffff" stroke="black" cx="31" cy="-162" rx="7" ry="7"/>
</g>
<!-- itrdb_input_port&#45;&gt;itrdb -->
<g id="edge34" class="edge"><title>itrdb_input_port&#45;&gt;itrdb</title>
<path fill="none" stroke="black" d="M38.1347,-162C49.8743,-162 76.3346,-162 98.6377,-162"/>
<polygon fill="black" stroke="black" points="98.8465,-165.5 108.846,-162 98.8464,-158.5 98.8465,-165.5"/>
</g>
<!-- prism_data_input_port -->
<g id="node29" class="node"><title>prism_data_input_port</title>
<ellipse fill="#ffffff" stroke="black" cx="31" cy="-98" rx="7" ry="7"/>
</g>
<!-- prism_data_input_port&#45;&gt;prism_data -->
<g id="edge35" class="edge"><title>prism_data_input_port&#45;&gt;prism_data</title>
<path fill="none" stroke="black" d="M37.4474,-94.7143C43.3968,-91.173 53.247,-85.4468 62,-81 65.6967,-79.1219 69.5225,-77.2337 73.397,-75.3633"/>
<polygon fill="black" stroke="black" points="74.958,-78.4966 82.4886,-71.044 71.9541,-72.1739 74.958,-78.4966"/>
</g>
<!-- calibration_year_input_port -->
<g id="node30" class="node"><title>calibration_year_input_port</title>
<ellipse fill="#ffffff" stroke="black" cx="31" cy="-130" rx="7" ry="7"/>
</g>
<!-- calibration_year_input_port&#45;&gt;calibration_year -->
<g id="edge36" class="edge"><title>calibration_year_input_port&#45;&gt;calibration_year</title>
<path fill="none" stroke="black" d="M38.1347,-128.69C44.5934,-127.31 55.5078,-124.979 67.7342,-122.367"/>
<polygon fill="black" stroke="black" points="68.7124,-125.738 77.7607,-120.226 67.2502,-118.892 68.7124,-125.738"/>
</g>
<!-- prediction_year_input_port -->
<g id="node31" class="node"><title>prediction_year_input_port</title>
<ellipse fill="#ffffff" stroke="black" cx="31" cy="-226" rx="7" ry="7"/>
</g>
<!-- prediction_year_input_port&#45;&gt;prediction_year -->
<g id="edge37" class="edge"><title>prediction_year_input_port&#45;&gt;prediction_year</title>
<path fill="none" stroke="black" d="M37.3889,-229.406C43.2884,-233.05 53.0962,-238.864 62,-243 65.7913,-244.761 69.7324,-246.491 73.7318,-248.172"/>
<polygon fill="black" stroke="black" points="72.5443,-251.467 83.126,-251.994 75.1826,-244.983 72.5443,-251.467"/>
</g>
<!-- min.width_input_port -->
<g id="node32" class="node"><title>min.width_input_port</title>
<ellipse fill="#ffffff" stroke="black" cx="31" cy="-194" rx="7" ry="7"/>
</g>
<!-- min.width_input_port&#45;&gt;min.width -->
<g id="edge38" class="edge"><title>min.width_input_port&#45;&gt;min.width</title>
<path fill="none" stroke="black" d="M38.1347,-195.31C48.1379,-197.447 68.8293,-201.866 88.5295,-206.074"/>
<polygon fill="black" stroke="black" points="87.8628,-209.511 98.3734,-208.177 89.3251,-202.665 87.8628,-209.511"/>
</g>
</g>
</svg>
