<?xml version="1.0" encoding="UTF-8" standalone="no"?>
<!DOCTYPE svg PUBLIC "-//W3C//DTD SVG 1.1//EN"
 "http://www.w3.org/Graphics/SVG/1.1/DTD/svg11.dtd">
<!-- Generated by graphviz version 2.38.0 (20140413.2041)
 -->
<!-- Title: Workflow Pages: 1 -->
<svg width="1611pt" height="358pt"
 viewBox="0.00 0.00 1611.00 358.00" xmlns="http://www.w3.org/2000/svg" xmlns:xlink="http://www.w3.org/1999/xlink">
<g id="graph0" class="graph" transform="scale(1 1) rotate(0) translate(4 354)">
<title>Workflow</title>
<polygon fill="white" stroke="none" points="-4,4 -4,-354 1607,-354 1607,4 -4,4"/>
<text text-anchor="middle" x="801.5" y="-331.6" font-family="Helvetica,sans-Serif" font-size="18.00">exec_paleocar</text>
<g id="clust1" class="cluster"><title>cluster_workflow_box_outer</title>
<polygon fill="none" stroke="black" stroke-width="2" points="62,-10 62,-314 1541,-314 1541,-10 62,-10"/>
</g>
<g id="clust2" class="cluster"><title>cluster_workflow_box_inner</title>
<polygon fill="none" stroke="black" stroke-width="0" points="70,-18 70,-306 1533,-306 1533,-18 70,-18"/>
</g>
<g id="clust3" class="cluster"><title>cluster_input_ports_group_outer</title>
<polygon fill="none" stroke="black" stroke-width="0" points="8,-11 8,-153 54,-153 54,-11 8,-11"/>
</g>
<g id="clust4" class="cluster"><title>cluster_input_ports_group_inner</title>
<polygon fill="none" stroke="black" stroke-width="0" points="16,-19 16,-145 46,-145 46,-19 16,-19"/>
</g>
<g id="clust5" class="cluster"><title>cluster_output_ports_group_outer</title>
<polygon fill="none" stroke="black" stroke-width="0" points="1549,-8 1549,-118 1595,-118 1595,-8 1549,-8"/>
</g>
<g id="clust6" class="cluster"><title>cluster_output_ports_group_inner</title>
<polygon fill="none" stroke="black" stroke-width="0" points="1557,-16 1557,-110 1587,-110 1587,-16 1557,-16"/>
</g>
<!-- gen_prism_data -->
<g id="node1" class="node"><title>gen_prism_data</title>
<polygon fill="#ccffcc" stroke="black" points="334,-190 215,-190 215,-154 334,-154 334,-190"/>
<text text-anchor="middle" x="274.5" y="-168.3" font-family="Helvetica,sans-Serif" font-size="14.00">gen_prism_data</text>
</g>
<!-- prism_data -->
<g id="node11" class="node"><title>prism_data</title>
<path fill="#ffffcc" stroke="black" d="M388,-251C388,-251 471,-251 471,-251 477,-251 483,-257 483,-263 483,-263 483,-285 483,-285 483,-291 477,-297 471,-297 471,-297 388,-297 388,-297 382,-297 376,-291 376,-285 376,-285 376,-263 376,-263 376,-257 382,-251 388,-251"/>
<text text-anchor="middle" x="429.5" y="-281.8" font-family="Helvetica,sans-Serif" font-size="14.00">prism_data</text>
<polyline fill="none" stroke="black" points="376,-274 483,-274 "/>
<text text-anchor="middle" x="429.5" y="-258.8" font-family="Helvetica,sans-Serif" font-size="14.00">112W36N.csv</text>
</g>
<!-- gen_prism_data&#45;&gt;prism_data -->
<g id="edge1" class="edge"><title>gen_prism_data&#45;&gt;prism_data</title>
<path fill="none" stroke="black" d="M298.652,-190.081C317.461,-204.481 344.894,-224.832 370,-241 372.436,-242.569 374.949,-244.143 377.503,-245.709"/>
<polygon fill="black" stroke="black" points="375.909,-248.833 386.286,-250.97 379.506,-242.828 375.909,-248.833"/>
</g>
<!-- paleocar_models -->
<g id="node2" class="node"><title>paleocar_models</title>
<polygon fill="#ccffcc" stroke="black" points="951,-172 824,-172 824,-136 951,-136 951,-172"/>
<text text-anchor="middle" x="887.5" y="-150.3" font-family="Helvetica,sans-Serif" font-size="14.00">paleocar_models</text>
</g>
<!-- paleocar_model.rds -->
<g id="node6" class="node"><title>paleocar_model.rds</title>
<path fill="#ffffcc" stroke="black" d="M1118,-98C1118,-98 999,-98 999,-98 993,-98 987,-92 987,-86 987,-86 987,-74 987,-74 987,-68 993,-62 999,-62 999,-62 1118,-62 1118,-62 1124,-62 1130,-68 1130,-74 1130,-74 1130,-86 1130,-86 1130,-92 1124,-98 1118,-98"/>
<text text-anchor="middle" x="1058.5" y="-76.3" font-family="Helvetica,sans-Serif" font-size="14.00">paleocar_model.rds</text>
</g>
<!-- paleocar_models&#45;&gt;paleocar_model.rds -->
<g id="edge9" class="edge"><title>paleocar_models&#45;&gt;paleocar_model.rds</title>
<path fill="none" stroke="black" d="M929.842,-135.898C953.151,-125.691 982.448,-112.863 1007.1,-102.071"/>
<polygon fill="black" stroke="black" points="1008.54,-105.261 1016.29,-98.0436 1005.73,-98.8486 1008.54,-105.261"/>
</g>
<!-- paleocar_predict_model -->
<g id="node3" class="node"><title>paleocar_predict_model</title>
<polygon fill="#ccffcc" stroke="black" points="1349,-135 1178,-135 1178,-99 1349,-99 1349,-135"/>
<text text-anchor="middle" x="1263.5" y="-113.3" font-family="Helvetica,sans-Serif" font-size="14.00">paleocar_predict_model</text>
</g>
<!-- prediction_graph -->
<g id="node7" class="node"><title>prediction_graph</title>
<path fill="#ffffcc" stroke="black" d="M1510.5,-135C1510.5,-135 1411.5,-135 1411.5,-135 1405.5,-135 1399.5,-129 1399.5,-123 1399.5,-123 1399.5,-111 1399.5,-111 1399.5,-105 1405.5,-99 1411.5,-99 1411.5,-99 1510.5,-99 1510.5,-99 1516.5,-99 1522.5,-105 1522.5,-111 1522.5,-111 1522.5,-123 1522.5,-123 1522.5,-129 1516.5,-135 1510.5,-135"/>
<text text-anchor="middle" x="1461" y="-113.3" font-family="Helvetica,sans-Serif" font-size="14.00">prediction_graph</text>
</g>
<!-- paleocar_predict_model&#45;&gt;prediction_graph -->
<g id="edge16" class="edge"><title>paleocar_predict_model&#45;&gt;prediction_graph</title>
<path fill="none" stroke="black" d="M1349.11,-117C1362.47,-117 1376.15,-117 1389.15,-117"/>
<polygon fill="black" stroke="black" points="1389.41,-120.5 1399.41,-117 1389.41,-113.5 1389.41,-120.5"/>
</g>
<!-- uncertainty_paleocar_model -->
<g id="node4" class="node"><title>uncertainty_paleocar_model</title>
<polygon fill="#ccffcc" stroke="black" points="1361,-81 1166,-81 1166,-45 1361,-45 1361,-81"/>
<text text-anchor="middle" x="1263.5" y="-59.3" font-family="Helvetica,sans-Serif" font-size="14.00">uncertainty_paleocar_model</text>
</g>
<!-- uncertainty_graph -->
<g id="node8" class="node"><title>uncertainty_graph</title>
<path fill="#ffffcc" stroke="black" d="M1513,-81C1513,-81 1409,-81 1409,-81 1403,-81 1397,-75 1397,-69 1397,-69 1397,-57 1397,-57 1397,-51 1403,-45 1409,-45 1409,-45 1513,-45 1513,-45 1519,-45 1525,-51 1525,-57 1525,-57 1525,-69 1525,-69 1525,-75 1519,-81 1513,-81"/>
<text text-anchor="middle" x="1461" y="-59.3" font-family="Helvetica,sans-Serif" font-size="14.00">uncertainty_graph</text>
</g>
<!-- uncertainty_paleocar_model&#45;&gt;uncertainty_graph -->
<g id="edge19" class="edge"><title>uncertainty_paleocar_model&#45;&gt;uncertainty_graph</title>
<path fill="none" stroke="black" d="M1361.1,-63C1369.72,-63 1378.35,-63 1386.72,-63"/>
<polygon fill="black" stroke="black" points="1386.79,-66.5001 1396.79,-63 1386.79,-59.5001 1386.79,-66.5001"/>
</g>
<!-- get_itrdb_data -->
<g id="node5" class="node"><title>get_itrdb_data</title>
<polygon fill="#ccffcc" stroke="black" points="637,-232 529,-232 529,-196 637,-196 637,-232"/>
<polygon fill="none" stroke="black" points="641,-236 525,-236 525,-192 641,-192 641,-236"/>
<text text-anchor="middle" x="583" y="-210.3" font-family="Helvetica,sans-Serif" font-size="14.00">get_itrdb_data</text>
</g>
<!-- itrdb -->
<g id="node12" class="node"><title>itrdb</title>
<path fill="#ffffcc" stroke="black" d="M747.5,-278C747.5,-278 717.5,-278 717.5,-278 711.5,-278 705.5,-272 705.5,-266 705.5,-266 705.5,-254 705.5,-254 705.5,-248 711.5,-242 717.5,-242 717.5,-242 747.5,-242 747.5,-242 753.5,-242 759.5,-248 759.5,-254 759.5,-254 759.5,-266 759.5,-266 759.5,-272 753.5,-278 747.5,-278"/>
<text text-anchor="middle" x="732.5" y="-256.3" font-family="Helvetica,sans-Serif" font-size="14.00">itrdb</text>
</g>
<!-- get_itrdb_data&#45;&gt;itrdb -->
<g id="edge4" class="edge"><title>get_itrdb_data&#45;&gt;itrdb</title>
<path fill="none" stroke="black" d="M641.027,-231.785C659.422,-237.521 679.282,-243.715 695.695,-248.834"/>
<polygon fill="black" stroke="black" points="694.837,-252.232 705.426,-251.868 696.921,-245.55 694.837,-252.232"/>
</g>
<!-- paleocar_model.rds&#45;&gt;paleocar_predict_model -->
<g id="edge17" class="edge"><title>paleocar_model.rds&#45;&gt;paleocar_predict_model</title>
<path fill="none" stroke="black" d="M1130.21,-92.8889C1142.31,-95.094 1155.06,-97.4167 1167.66,-99.7143"/>
<polygon fill="black" stroke="black" points="1167.26,-103.199 1177.73,-101.549 1168.52,-96.3123 1167.26,-103.199"/>
</g>
<!-- paleocar_model.rds&#45;&gt;uncertainty_paleocar_model -->
<g id="edge20" class="edge"><title>paleocar_model.rds&#45;&gt;uncertainty_paleocar_model</title>
<path fill="none" stroke="black" d="M1130.21,-74.0781C1138.52,-73.3825 1147.13,-72.6614 1155.79,-71.9361"/>
<polygon fill="black" stroke="black" points="1156.3,-75.4064 1165.97,-71.084 1155.71,-68.4308 1156.3,-75.4064"/>
</g>
<!-- paleocar_model.rds_output_port -->
<g id="node24" class="node"><title>paleocar_model.rds_output_port</title>
<ellipse fill="#ffffff" stroke="black" cx="1572" cy="-31" rx="7" ry="7"/>
</g>
<!-- paleocar_model.rds&#45;&gt;paleocar_model.rds_output_port -->
<g id="edge26" class="edge"><title>paleocar_model.rds&#45;&gt;paleocar_model.rds_output_port</title>
<path fill="none" stroke="black" d="M1093.94,-61.8544C1114.29,-52.1392 1140.91,-41.1392 1166,-36 1314.26,-5.62701 1499.49,-22.79 1554.73,-29.0283"/>
<polygon fill="black" stroke="black" points="1554.62,-32.5396 1564.96,-30.2309 1555.44,-25.5874 1554.62,-32.5396"/>
</g>
<!-- prediction_graph_output_port -->
<g id="node25" class="node"><title>prediction_graph_output_port</title>
<ellipse fill="#ffffff" stroke="black" cx="1572" cy="-95" rx="7" ry="7"/>
</g>
<!-- prediction_graph&#45;&gt;prediction_graph_output_port -->
<g id="edge27" class="edge"><title>prediction_graph&#45;&gt;prediction_graph_output_port</title>
<path fill="none" stroke="black" d="M1522.56,-104.778C1534.55,-102.357 1546.15,-100.016 1554.99,-98.2323"/>
<polygon fill="black" stroke="black" points="1555.71,-101.657 1564.82,-96.2478 1554.32,-94.7956 1555.71,-101.657"/>
</g>
<!-- uncertainty_graph_output_port -->
<g id="node26" class="node"><title>uncertainty_graph_output_port</title>
<ellipse fill="#ffffff" stroke="black" cx="1572" cy="-63" rx="7" ry="7"/>
</g>
<!-- uncertainty_graph&#45;&gt;uncertainty_graph_output_port -->
<g id="edge28" class="edge"><title>uncertainty_graph&#45;&gt;uncertainty_graph_output_port</title>
<path fill="none" stroke="black" d="M1525.09,-63C1536.1,-63 1546.63,-63 1554.82,-63"/>
<polygon fill="black" stroke="black" points="1554.93,-66.5001 1564.93,-63 1554.93,-59.5001 1554.93,-66.5001"/>
</g>
<!-- coordinates -->
<g id="node9" class="node"><title>coordinates</title>
<path fill="#ffffcc" stroke="black" d="M162,-190C162,-190 95,-190 95,-190 89,-190 83,-184 83,-178 83,-178 83,-166 83,-166 83,-160 89,-154 95,-154 95,-154 162,-154 162,-154 168,-154 174,-160 174,-166 174,-166 174,-178 174,-178 174,-184 168,-190 162,-190"/>
<text text-anchor="middle" x="128.5" y="-168.3" font-family="Helvetica,sans-Serif" font-size="14.00">coordinates</text>
</g>
<!-- coordinates&#45;&gt;gen_prism_data -->
<g id="edge2" class="edge"><title>coordinates&#45;&gt;gen_prism_data</title>
<path fill="none" stroke="black" d="M174.273,-172C183.933,-172 194.359,-172 204.698,-172"/>
<polygon fill="black" stroke="black" points="204.975,-175.5 214.975,-172 204.975,-168.5 204.975,-175.5"/>
</g>
<!-- netcdf_file -->
<g id="node10" class="node"><title>netcdf_file</title>
<path fill="#ffffcc" stroke="black" d="M90,-89C90,-89 167,-89 167,-89 173,-89 179,-95 179,-101 179,-101 179,-123 179,-123 179,-129 173,-135 167,-135 167,-135 90,-135 90,-135 84,-135 78,-129 78,-123 78,-123 78,-101 78,-101 78,-95 84,-89 90,-89"/>
<text text-anchor="middle" x="128.5" y="-119.8" font-family="Helvetica,sans-Serif" font-size="14.00">netcdf_file</text>
<polyline fill="none" stroke="black" points="78,-112 179,-112 "/>
<text text-anchor="middle" x="128.5" y="-96.8" font-family="Helvetica,sans-Serif" font-size="14.00">112W36N.nc</text>
</g>
<!-- netcdf_file&#45;&gt;gen_prism_data -->
<g id="edge3" class="edge"><title>netcdf_file&#45;&gt;gen_prism_data</title>
<path fill="none" stroke="black" d="M179.057,-132.649C192.541,-138.267 207.193,-144.372 220.843,-150.06"/>
<polygon fill="black" stroke="black" points="219.529,-153.304 230.106,-153.919 222.221,-146.842 219.529,-153.304"/>
</g>
<!-- prism_data&#45;&gt;paleocar_models -->
<g id="edge11" class="edge"><title>prism_data&#45;&gt;paleocar_models</title>
<path fill="none" stroke="black" d="M483.266,-290.994C556.131,-311.24 689.686,-336.529 788,-287 831.72,-264.975 860.874,-213.357 875.486,-181.292"/>
<polygon fill="black" stroke="black" points="878.74,-182.586 879.554,-172.022 872.33,-179.773 878.74,-182.586"/>
</g>
<!-- prism_data&#45;&gt;get_itrdb_data -->
<g id="edge8" class="edge"><title>prism_data&#45;&gt;get_itrdb_data</title>
<path fill="none" stroke="black" d="M483.062,-253.183C494.012,-248.847 505.677,-244.227 517.014,-239.737"/>
<polygon fill="black" stroke="black" points="518.429,-242.941 526.437,-236.005 515.851,-236.433 518.429,-242.941"/>
</g>
<!-- itrdb&#45;&gt;paleocar_models -->
<g id="edge10" class="edge"><title>itrdb&#45;&gt;paleocar_models</title>
<path fill="none" stroke="black" d="M759.633,-248.469C768.835,-244.043 779.099,-238.68 788,-233 813.224,-216.904 839.554,-195.513 858.638,-179.049"/>
<polygon fill="black" stroke="black" points="861.112,-181.535 866.349,-172.325 856.512,-176.259 861.112,-181.535"/>
</g>
<!-- calibration.year -->
<g id="node13" class="node"><title>calibration.year</title>
<path fill="#ffffcc" stroke="black" d="M776,-224C776,-224 689,-224 689,-224 683,-224 677,-218 677,-212 677,-212 677,-200 677,-200 677,-194 683,-188 689,-188 689,-188 776,-188 776,-188 782,-188 788,-194 788,-200 788,-200 788,-212 788,-212 788,-218 782,-224 776,-224"/>
<text text-anchor="middle" x="732.5" y="-202.3" font-family="Helvetica,sans-Serif" font-size="14.00">calibration.year</text>
</g>
<!-- calibration.year&#45;&gt;paleocar_models -->
<g id="edge12" class="edge"><title>calibration.year&#45;&gt;paleocar_models</title>
<path fill="none" stroke="black" d="M786.583,-187.959C798.569,-183.885 811.404,-179.523 823.745,-175.328"/>
<polygon fill="black" stroke="black" points="825.169,-178.541 833.511,-172.009 822.917,-171.913 825.169,-178.541"/>
</g>
<!-- prediction.year -->
<g id="node14" class="node"><title>prediction.year</title>
<path fill="#ffffcc" stroke="black" d="M775.5,-62C775.5,-62 689.5,-62 689.5,-62 683.5,-62 677.5,-56 677.5,-50 677.5,-50 677.5,-38 677.5,-38 677.5,-32 683.5,-26 689.5,-26 689.5,-26 775.5,-26 775.5,-26 781.5,-26 787.5,-32 787.5,-38 787.5,-38 787.5,-50 787.5,-50 787.5,-56 781.5,-62 775.5,-62"/>
<text text-anchor="middle" x="732.5" y="-40.3" font-family="Helvetica,sans-Serif" font-size="14.00">prediction.year</text>
</g>
<!-- prediction.year&#45;&gt;paleocar_models -->
<g id="edge13" class="edge"><title>prediction.year&#45;&gt;paleocar_models</title>
<path fill="none" stroke="black" d="M775.625,-62.1501C780.007,-64.8198 784.23,-67.7724 788,-71 809.076,-89.044 803.044,-103.817 824,-122 827.608,-125.131 831.576,-128.053 835.709,-130.757"/>
<polygon fill="black" stroke="black" points="833.996,-133.811 844.363,-135.998 837.622,-127.823 833.996,-133.811"/>
</g>
<!-- prediction.year&#45;&gt;paleocar_predict_model -->
<g id="edge18" class="edge"><title>prediction.year&#45;&gt;paleocar_predict_model</title>
<path fill="none" stroke="black" d="M787.746,-60.9573C838.642,-76.0329 917.171,-97.1643 987,-107 1046.66,-115.404 1114.27,-117.961 1167.58,-118.389"/>
<polygon fill="black" stroke="black" points="1167.68,-121.889 1177.7,-118.446 1167.72,-114.889 1167.68,-121.889"/>
</g>
<!-- prediction.year&#45;&gt;uncertainty_paleocar_model -->
<g id="edge21" class="edge"><title>prediction.year&#45;&gt;uncertainty_paleocar_model</title>
<path fill="none" stroke="black" d="M787.725,-44.3279C864.116,-44.9955 1007.76,-47.0039 1130,-53 1138.36,-53.4102 1147.02,-53.9052 1155.71,-54.4525"/>
<polygon fill="black" stroke="black" points="1155.72,-57.9603 1165.93,-55.1172 1156.18,-50.975 1155.72,-57.9603"/>
</g>
<!-- calibration.years -->
<g id="node15" class="node"><title>calibration.years</title>
<path fill="#fcfcfc" stroke="black" d="M477,-124C477,-124 382,-124 382,-124 376,-124 370,-118 370,-112 370,-112 370,-100 370,-100 370,-94 376,-88 382,-88 382,-88 477,-88 477,-88 483,-88 489,-94 489,-100 489,-100 489,-112 489,-112 489,-118 483,-124 477,-124"/>
<text text-anchor="middle" x="429.5" y="-102.3" font-family="Helvetica,sans-Serif" font-size="14.00">calibration.years</text>
</g>
<!-- calibration.years&#45;&gt;get_itrdb_data -->
<g id="edge5" class="edge"><title>calibration.years&#45;&gt;get_itrdb_data</title>
<path fill="none" stroke="black" d="M473.437,-124.089C478.804,-126.849 484.117,-129.839 489,-133 511.913,-147.832 535.067,-167.977 552.54,-184.466"/>
<polygon fill="black" stroke="black" points="550.505,-187.363 560.148,-191.753 555.347,-182.308 550.505,-187.363"/>
</g>
<!-- prediction.years -->
<g id="node16" class="node"><title>prediction.years</title>
<path fill="#fcfcfc" stroke="black" d="M476,-232C476,-232 383,-232 383,-232 377,-232 371,-226 371,-220 371,-220 371,-208 371,-208 371,-202 377,-196 383,-196 383,-196 476,-196 476,-196 482,-196 488,-202 488,-208 488,-208 488,-220 488,-220 488,-226 482,-232 476,-232"/>
<text text-anchor="middle" x="429.5" y="-210.3" font-family="Helvetica,sans-Serif" font-size="14.00">prediction.years</text>
</g>
<!-- prediction.years&#45;&gt;get_itrdb_data -->
<g id="edge6" class="edge"><title>prediction.years&#45;&gt;get_itrdb_data</title>
<path fill="none" stroke="black" d="M488.208,-214C496.863,-214 505.851,-214 514.684,-214"/>
<polygon fill="black" stroke="black" points="514.954,-217.5 524.954,-214 514.954,-210.5 514.954,-217.5"/>
</g>
<!-- tree.buffer -->
<g id="node17" class="node"><title>tree.buffer</title>
<path fill="#fcfcfc" stroke="black" d="M459,-178C459,-178 400,-178 400,-178 394,-178 388,-172 388,-166 388,-166 388,-154 388,-154 388,-148 394,-142 400,-142 400,-142 459,-142 459,-142 465,-142 471,-148 471,-154 471,-154 471,-166 471,-166 471,-172 465,-178 459,-178"/>
<text text-anchor="middle" x="429.5" y="-156.3" font-family="Helvetica,sans-Serif" font-size="14.00">tree.buffer</text>
</g>
<!-- tree.buffer&#45;&gt;get_itrdb_data -->
<g id="edge7" class="edge"><title>tree.buffer&#45;&gt;get_itrdb_data</title>
<path fill="none" stroke="black" d="M471.099,-174.471C484.616,-179.289 500.052,-184.791 515.024,-190.128"/>
<polygon fill="black" stroke="black" points="514.177,-193.541 524.772,-193.602 516.527,-186.947 514.177,-193.541"/>
</g>
<!-- min.width -->
<g id="node18" class="node"><title>min.width</title>
<path fill="#fcfcfc" stroke="black" d="M758,-170C758,-170 707,-170 707,-170 701,-170 695,-164 695,-158 695,-158 695,-146 695,-146 695,-140 701,-134 707,-134 707,-134 758,-134 758,-134 764,-134 770,-140 770,-146 770,-146 770,-158 770,-158 770,-164 764,-170 758,-170"/>
<text text-anchor="middle" x="732.5" y="-148.3" font-family="Helvetica,sans-Serif" font-size="14.00">min.width</text>
</g>
<!-- min.width&#45;&gt;paleocar_models -->
<g id="edge14" class="edge"><title>min.width&#45;&gt;paleocar_models</title>
<path fill="none" stroke="black" d="M770.147,-152.479C783.22,-152.65 798.448,-152.849 813.494,-153.046"/>
<polygon fill="black" stroke="black" points="813.809,-156.55 823.853,-153.181 813.9,-149.551 813.809,-156.55"/>
</g>
<!-- verbose -->
<g id="node19" class="node"><title>verbose</title>
<path fill="#fcfcfc" stroke="black" d="M754.5,-116C754.5,-116 710.5,-116 710.5,-116 704.5,-116 698.5,-110 698.5,-104 698.5,-104 698.5,-92 698.5,-92 698.5,-86 704.5,-80 710.5,-80 710.5,-80 754.5,-80 754.5,-80 760.5,-80 766.5,-86 766.5,-92 766.5,-92 766.5,-104 766.5,-104 766.5,-110 760.5,-116 754.5,-116"/>
<text text-anchor="middle" x="732.5" y="-94.3" font-family="Helvetica,sans-Serif" font-size="14.00">verbose</text>
</g>
<!-- verbose&#45;&gt;paleocar_models -->
<g id="edge15" class="edge"><title>verbose&#45;&gt;paleocar_models</title>
<path fill="none" stroke="black" d="M766.699,-110.151C784.453,-116.649 806.846,-124.846 827.455,-132.389"/>
<polygon fill="black" stroke="black" points="826.492,-135.763 837.086,-135.914 828.898,-129.19 826.492,-135.763"/>
</g>
<!-- coordinates_input_port -->
<g id="node20" class="node"><title>coordinates_input_port</title>
<ellipse fill="#ffffff" stroke="black" cx="31" cy="-130" rx="7" ry="7"/>
</g>
<!-- coordinates_input_port&#45;&gt;coordinates -->
<g id="edge22" class="edge"><title>coordinates_input_port&#45;&gt;coordinates</title>
<path fill="none" stroke="black" d="M37.5045,-132.635C43.5027,-135.49 53.3944,-140.154 62,-144 66.3575,-145.947 70.8898,-147.944 75.4452,-149.931"/>
<polygon fill="black" stroke="black" points="74.2123,-153.211 84.7795,-153.976 76.9958,-146.788 74.2123,-153.211"/>
</g>
<!-- netcdf_file_input_port -->
<g id="node21" class="node"><title>netcdf_file_input_port</title>
<ellipse fill="#ffffff" stroke="black" cx="31" cy="-98" rx="7" ry="7"/>
</g>
<!-- netcdf_file_input_port&#45;&gt;netcdf_file -->
<g id="edge23" class="edge"><title>netcdf_file_input_port&#45;&gt;netcdf_file</title>
<path fill="none" stroke="black" d="M37.974,-98.8758C44.4826,-99.8299 55.6151,-101.462 67.8619,-103.257"/>
<polygon fill="black" stroke="black" points="67.4534,-106.735 77.8553,-104.722 68.4688,-99.8087 67.4534,-106.735"/>
</g>
<!-- calibration.year_input_port -->
<g id="node22" class="node"><title>calibration.year_input_port</title>
<ellipse fill="#ffffff" stroke="black" cx="31" cy="-66" rx="7" ry="7"/>
</g>
<!-- calibration.year_input_port&#45;&gt;calibration.year -->
<g id="edge24" class="edge"><title>calibration.year_input_port&#45;&gt;calibration.year</title>
<path fill="none" stroke="black" d="M38.342,-65.7266C66.1365,-64.5528 179.974,-60 273.5,-60 273.5,-60 273.5,-60 430.5,-60 495.093,-60 593.765,-136.256 677,-179 679.865,-180.471 682.821,-181.975 685.805,-183.483"/>
<polygon fill="black" stroke="black" points="684.275,-186.631 694.782,-187.99 687.416,-180.375 684.275,-186.631"/>
</g>
<!-- prediction.year_input_port -->
<g id="node23" class="node"><title>prediction.year_input_port</title>
<ellipse fill="#ffffff" stroke="black" cx="31" cy="-34" rx="7" ry="7"/>
</g>
<!-- prediction.year_input_port&#45;&gt;prediction.year -->
<g id="edge25" class="edge"><title>prediction.year_input_port&#45;&gt;prediction.year</title>
<path fill="none" stroke="black" d="M38.3377,-33.4532C66.1142,-31.1057 179.887,-22 273.5,-22 273.5,-22 273.5,-22 430.5,-22 512.35,-22 606.387,-30.1917 667.261,-36.5779"/>
<polygon fill="black" stroke="black" points="667.17,-40.0879 677.484,-37.6662 667.911,-33.1272 667.17,-40.0879"/>
</g>
</g>
</svg>
