<?xml version="1.0" encoding="UTF-8" standalone="no"?>
<!DOCTYPE svg PUBLIC "-//W3C//DTD SVG 1.1//EN"
 "http://www.w3.org/Graphics/SVG/1.1/DTD/svg11.dtd">
<!-- Generated by graphviz version 2.38.0 (20140413.2041)
 -->
<!-- Title: Workflow Pages: 1 -->
<svg width="1082pt" height="775pt"
 viewBox="0.00 0.00 1082.00 775.00" xmlns="http://www.w3.org/2000/svg" xmlns:xlink="http://www.w3.org/1999/xlink">
<g id="graph0" class="graph" transform="scale(1 1) rotate(0) translate(4 771)">
<title>Workflow</title>
<polygon fill="white" stroke="none" points="-4,4 -4,-771 1078,-771 1078,4 -4,4"/>
<g id="clust1" class="cluster"><title>cluster_workflow_box_outer</title>
<polygon fill="none" stroke="black" stroke-width="2" points="8,-34 8,-733 1066,-733 1066,-34 8,-34"/>
</g>
<g id="clust2" class="cluster"><title>cluster_workflow_box_inner</title>
<polygon fill="none" stroke="black" stroke-width="0" points="16,-42 16,-725 1058,-725 1058,-42 16,-42"/>
</g>
<!-- get_predictor_matrix -->
<g id="node1" class="node"><title>get_predictor_matrix</title>
<polygon fill="#ccffcc" stroke="black" points="360,-587.5 360,-633.5 680,-633.5 680,-587.5 360,-587.5"/>
<text text-anchor="middle" x="520" y="-618.3" font-family="Helvetica,sans-Serif" font-size="14.00">get_predictor_matrix</text>
<polyline fill="none" stroke="black" points="360,-610.5 680,-610.5 "/>
<text text-anchor="middle" x="520" y="-595.3" font-family="Helvetica,sans-Serif" font-size="14.00">Get chronologies matrix for the calibration years.</text>
</g>
<!-- predictor.matrix -->
<g id="node11" class="node"><title>predictor.matrix</title>
<path fill="#ffffcc" stroke="black" d="M560,-551C560,-551 470,-551 470,-551 464,-551 458,-545 458,-539 458,-539 458,-527 458,-527 458,-521 464,-515 470,-515 470,-515 560,-515 560,-515 566,-515 572,-521 572,-527 572,-527 572,-539 572,-539 572,-545 566,-551 560,-551"/>
<text text-anchor="middle" x="515" y="-529.3" font-family="Helvetica,sans-Serif" font-size="14.00">predictor.matrix</text>
</g>
<!-- get_predictor_matrix&#45;&gt;predictor.matrix -->
<g id="edge1" class="edge"><title>get_predictor_matrix&#45;&gt;predictor.matrix</title>
<path fill="none" stroke="black" d="M518.527,-587.256C517.992,-579.182 517.382,-569.962 516.82,-561.489"/>
<polygon fill="black" stroke="black" points="520.299,-561.044 516.146,-551.298 513.314,-561.507 520.299,-561.044"/>
</g>
<!-- get_max_preds -->
<g id="node2" class="node"><title>get_max_preds</title>
<polygon fill="#ccffcc" stroke="black" points="381.5,-432.5 381.5,-478.5 648.5,-478.5 648.5,-432.5 381.5,-432.5"/>
<text text-anchor="middle" x="515" y="-463.3" font-family="Helvetica,sans-Serif" font-size="14.00">get_max_preds</text>
<polyline fill="none" stroke="black" points="381.5,-455.5 648.5,-455.5 "/>
<text text-anchor="middle" x="515" y="-440.3" font-family="Helvetica,sans-Serif" font-size="14.00">Get the maximum number of predictors.</text>
</g>
<!-- max.preds -->
<g id="node18" class="node"><title>max.preds</title>
<path fill="#ffffcc" stroke="black" d="M544.5,-396C544.5,-396 485.5,-396 485.5,-396 479.5,-396 473.5,-390 473.5,-384 473.5,-384 473.5,-372 473.5,-372 473.5,-366 479.5,-360 485.5,-360 485.5,-360 544.5,-360 544.5,-360 550.5,-360 556.5,-366 556.5,-372 556.5,-372 556.5,-384 556.5,-384 556.5,-390 550.5,-396 544.5,-396"/>
<text text-anchor="middle" x="515" y="-374.3" font-family="Helvetica,sans-Serif" font-size="14.00">max.preds</text>
</g>
<!-- get_max_preds&#45;&gt;max.preds -->
<g id="edge5" class="edge"><title>get_max_preds&#45;&gt;max.preds</title>
<path fill="none" stroke="black" d="M515,-432.256C515,-424.182 515,-414.962 515,-406.489"/>
<polygon fill="black" stroke="black" points="518.5,-406.298 515,-396.298 511.5,-406.298 518.5,-406.298"/>
</g>
<!-- get_reconstruction_matrix -->
<g id="node3" class="node"><title>get_reconstruction_matrix</title>
<polygon fill="#ccffcc" stroke="black" points="698.5,-587.5 698.5,-633.5 1017.5,-633.5 1017.5,-587.5 698.5,-587.5"/>
<text text-anchor="middle" x="858" y="-618.3" font-family="Helvetica,sans-Serif" font-size="14.00">get_reconstruction_matrix</text>
<polyline fill="none" stroke="black" points="698.5,-610.5 1017.5,-610.5 "/>
<text text-anchor="middle" x="858" y="-595.3" font-family="Helvetica,sans-Serif" font-size="14.00">Get chronologies matrix for the prediction years.</text>
</g>
<!-- reconstruction.matrix -->
<g id="node14" class="node"><title>reconstruction.matrix</title>
<path fill="#ffffcc" stroke="black" d="M919.5,-551C919.5,-551 796.5,-551 796.5,-551 790.5,-551 784.5,-545 784.5,-539 784.5,-539 784.5,-527 784.5,-527 784.5,-521 790.5,-515 796.5,-515 796.5,-515 919.5,-515 919.5,-515 925.5,-515 931.5,-521 931.5,-527 931.5,-527 931.5,-539 931.5,-539 931.5,-545 925.5,-551 919.5,-551"/>
<text text-anchor="middle" x="858" y="-529.3" font-family="Helvetica,sans-Serif" font-size="14.00">reconstruction.matrix</text>
</g>
<!-- get_reconstruction_matrix&#45;&gt;reconstruction.matrix -->
<g id="edge7" class="edge"><title>get_reconstruction_matrix&#45;&gt;reconstruction.matrix</title>
<path fill="none" stroke="black" d="M858,-587.256C858,-579.182 858,-569.962 858,-561.489"/>
<polygon fill="black" stroke="black" points="861.5,-561.298 858,-551.298 854.5,-561.298 861.5,-561.298"/>
</g>
<!-- gen_predictand_matrix -->
<g id="node4" class="node"><title>gen_predictand_matrix</title>
<polygon fill="#ccffcc" stroke="black" points="28,-587.5 28,-633.5 342,-633.5 342,-587.5 28,-587.5"/>
<text text-anchor="middle" x="185" y="-618.3" font-family="Helvetica,sans-Serif" font-size="14.00">gen_predictand_matrix</text>
<polyline fill="none" stroke="black" points="28,-610.5 342,-610.5 "/>
<text text-anchor="middle" x="185" y="-595.3" font-family="Helvetica,sans-Serif" font-size="14.00">Generate a matrix from the input prism data file.</text>
</g>
<!-- predictand.matrix -->
<g id="node15" class="node"><title>predictand.matrix</title>
<path fill="#ffffcc" stroke="black" d="M239.5,-551C239.5,-551 138.5,-551 138.5,-551 132.5,-551 126.5,-545 126.5,-539 126.5,-539 126.5,-527 126.5,-527 126.5,-521 132.5,-515 138.5,-515 138.5,-515 239.5,-515 239.5,-515 245.5,-515 251.5,-521 251.5,-527 251.5,-527 251.5,-539 251.5,-539 251.5,-545 245.5,-551 239.5,-551"/>
<text text-anchor="middle" x="189" y="-529.3" font-family="Helvetica,sans-Serif" font-size="14.00">predictand.matrix</text>
</g>
<!-- gen_predictand_matrix&#45;&gt;predictand.matrix -->
<g id="edge11" class="edge"><title>gen_predictand_matrix&#45;&gt;predictand.matrix</title>
<path fill="none" stroke="black" d="M186.178,-587.256C186.606,-579.182 187.095,-569.962 187.544,-561.489"/>
<polygon fill="black" stroke="black" points="191.05,-561.469 188.084,-551.298 184.059,-561.098 191.05,-561.469"/>
</g>
<!-- get_predlist -->
<g id="node5" class="node"><title>get_predlist</title>
<polygon fill="#ccffcc" stroke="black" points="666.5,-432.5 666.5,-478.5 1049.5,-478.5 1049.5,-432.5 666.5,-432.5"/>
<text text-anchor="middle" x="858" y="-463.3" font-family="Helvetica,sans-Serif" font-size="14.00">get_predlist</text>
<polyline fill="none" stroke="black" points="666.5,-455.5 1049.5,-455.5 "/>
<text text-anchor="middle" x="858" y="-440.3" font-family="Helvetica,sans-Serif" font-size="14.00">Get list of stepwise predictors from a reconstruction matrix</text>
</g>
<!-- predlist -->
<g id="node16" class="node"><title>predlist</title>
<path fill="#ffffcc" stroke="black" d="M751.5,-396C751.5,-396 712.5,-396 712.5,-396 706.5,-396 700.5,-390 700.5,-384 700.5,-384 700.5,-372 700.5,-372 700.5,-366 706.5,-360 712.5,-360 712.5,-360 751.5,-360 751.5,-360 757.5,-360 763.5,-366 763.5,-372 763.5,-372 763.5,-384 763.5,-384 763.5,-390 757.5,-396 751.5,-396"/>
<text text-anchor="middle" x="732" y="-374.3" font-family="Helvetica,sans-Serif" font-size="14.00">predlist</text>
</g>
<!-- get_predlist&#45;&gt;predlist -->
<g id="edge13" class="edge"><title>get_predlist&#45;&gt;predlist</title>
<path fill="none" stroke="black" d="M821.217,-432.459C804.914,-422.691 785.761,-411.214 769.389,-401.403"/>
<polygon fill="black" stroke="black" points="770.992,-398.284 760.615,-396.146 767.394,-404.288 770.992,-398.284"/>
</g>
<!-- getCarscores -->
<g id="node6" class="node"><title>getCarscores</title>
<polygon fill="#ccffcc" stroke="black" points="24.5,-432.5 24.5,-478.5 363.5,-478.5 363.5,-432.5 24.5,-432.5"/>
<text text-anchor="middle" x="194" y="-463.3" font-family="Helvetica,sans-Serif" font-size="14.00">getCarscores</text>
<polyline fill="none" stroke="black" points="24.5,-455.5 363.5,-455.5 "/>
<text text-anchor="middle" x="194" y="-440.3" font-family="Helvetica,sans-Serif" font-size="14.00">Compute CAR scores over a matrix of predictands.</text>
</g>
<!-- carscores -->
<g id="node17" class="node"><title>carscores</title>
<path fill="#ffffcc" stroke="black" d="M332,-396C332,-396 276,-396 276,-396 270,-396 264,-390 264,-384 264,-384 264,-372 264,-372 264,-366 270,-360 276,-360 276,-360 332,-360 332,-360 338,-360 344,-366 344,-372 344,-372 344,-384 344,-384 344,-390 338,-396 332,-396"/>
<text text-anchor="middle" x="304" y="-374.3" font-family="Helvetica,sans-Serif" font-size="14.00">carscores</text>
</g>
<!-- getCarscores&#45;&gt;carscores -->
<g id="edge15" class="edge"><title>getCarscores&#45;&gt;carscores</title>
<path fill="none" stroke="black" d="M226.112,-432.459C240.081,-422.872 256.448,-411.638 270.563,-401.95"/>
<polygon fill="black" stroke="black" points="272.755,-404.691 279.019,-396.146 268.793,-398.919 272.755,-404.691"/>
</g>
<!-- calculateModels -->
<g id="node7" class="node"><title>calculateModels</title>
<polygon fill="#ccffcc" stroke="black" points="382,-277.5 382,-323.5 648,-323.5 648,-277.5 382,-277.5"/>
<text text-anchor="middle" x="515" y="-308.3" font-family="Helvetica,sans-Serif" font-size="14.00">calculateModels</text>
<polyline fill="none" stroke="black" points="382,-300.5 648,-300.5 "/>
<text text-anchor="middle" x="515" y="-285.3" font-family="Helvetica,sans-Serif" font-size="14.00">Prepare data and calculate CAR scores</text>
</g>
<!-- linear.models -->
<g id="node19" class="node"><title>linear.models</title>
<path fill="#ffffcc" stroke="black" d="M553.5,-241C553.5,-241 476.5,-241 476.5,-241 470.5,-241 464.5,-235 464.5,-229 464.5,-229 464.5,-217 464.5,-217 464.5,-211 470.5,-205 476.5,-205 476.5,-205 553.5,-205 553.5,-205 559.5,-205 565.5,-211 565.5,-217 565.5,-217 565.5,-229 565.5,-229 565.5,-235 559.5,-241 553.5,-241"/>
<text text-anchor="middle" x="515" y="-219.3" font-family="Helvetica,sans-Serif" font-size="14.00">linear.models</text>
</g>
<!-- calculateModels&#45;&gt;linear.models -->
<g id="edge18" class="edge"><title>calculateModels&#45;&gt;linear.models</title>
<path fill="none" stroke="black" d="M515,-277.256C515,-269.182 515,-259.962 515,-251.489"/>
<polygon fill="black" stroke="black" points="518.5,-251.298 515,-241.298 511.5,-251.298 518.5,-251.298"/>
</g>
<!-- optimizeModels -->
<g id="node8" class="node"><title>optimizeModels</title>
<polygon fill="#ccffcc" stroke="black" points="573,-169 457,-169 457,-133 573,-133 573,-169"/>
<text text-anchor="middle" x="515" y="-147.3" font-family="Helvetica,sans-Serif" font-size="14.00">optimizeModels</text>
</g>
<!-- models -->
<g id="node9" class="node"><title>models</title>
<path fill="#ffffcc" stroke="black" d="M359.5,-50.5C359.5,-50.5 670.5,-50.5 670.5,-50.5 676.5,-50.5 682.5,-56.5 682.5,-62.5 682.5,-62.5 682.5,-84.5 682.5,-84.5 682.5,-90.5 676.5,-96.5 670.5,-96.5 670.5,-96.5 359.5,-96.5 359.5,-96.5 353.5,-96.5 347.5,-90.5 347.5,-84.5 347.5,-84.5 347.5,-62.5 347.5,-62.5 347.5,-56.5 353.5,-50.5 359.5,-50.5"/>
<text text-anchor="middle" x="515" y="-81.3" font-family="Helvetica,sans-Serif" font-size="14.00">models</text>
<polyline fill="none" stroke="black" points="347.5,-73.5 682.5,-73.5 "/>
<text text-anchor="middle" x="515" y="-58.3" font-family="Helvetica,sans-Serif" font-size="14.00">file:/.output/{session_id}/{run_id}/{label}.model.Rds</text>
</g>
<!-- optimizeModels&#45;&gt;models -->
<g id="edge22" class="edge"><title>optimizeModels&#45;&gt;models</title>
<path fill="none" stroke="black" d="M515,-132.868C515,-125.175 515,-115.835 515,-106.902"/>
<polygon fill="black" stroke="black" points="518.5,-106.727 515,-96.7266 511.5,-106.727 518.5,-106.727"/>
</g>
<!-- models_output_port -->
<g id="node27" class="node"><title>models_output_port</title>
<ellipse fill="#ffffff" stroke="black" cx="515" cy="-7" rx="7" ry="7"/>
</g>
<!-- models&#45;&gt;models_output_port -->
<g id="edge29" class="edge"><title>models&#45;&gt;models_output_port</title>
<path fill="none" stroke="black" d="M515,-50.3028C515,-41.6846 515,-32.0022 515,-24.0776"/>
<polygon fill="black" stroke="black" points="518.5,-24.0535 515,-14.0535 511.5,-24.0535 518.5,-24.0535"/>
</g>
<!-- itrdb -->
<g id="node10" class="node"><title>itrdb</title>
<path fill="#ffffcc" stroke="black" d="M649,-711.5C649,-711.5 619,-711.5 619,-711.5 613,-711.5 607,-705.5 607,-699.5 607,-699.5 607,-687.5 607,-687.5 607,-681.5 613,-675.5 619,-675.5 619,-675.5 649,-675.5 649,-675.5 655,-675.5 661,-681.5 661,-687.5 661,-687.5 661,-699.5 661,-699.5 661,-705.5 655,-711.5 649,-711.5"/>
<text text-anchor="middle" x="634" y="-689.8" font-family="Helvetica,sans-Serif" font-size="14.00">itrdb</text>
</g>
<!-- itrdb&#45;&gt;get_predictor_matrix -->
<g id="edge2" class="edge"><title>itrdb&#45;&gt;get_predictor_matrix</title>
<path fill="none" stroke="black" d="M609.824,-675.322C595.241,-664.961 576.312,-651.511 559.592,-639.631"/>
<polygon fill="black" stroke="black" points="561.264,-636.526 551.085,-633.587 557.21,-642.232 561.264,-636.526"/>
</g>
<!-- itrdb&#45;&gt;get_reconstruction_matrix -->
<g id="edge8" class="edge"><title>itrdb&#45;&gt;get_reconstruction_matrix</title>
<path fill="none" stroke="black" d="M661.06,-680.831C669.63,-677.242 679.171,-673.355 688,-670 718.146,-658.546 751.65,-646.808 780.89,-636.882"/>
<polygon fill="black" stroke="black" points="782.28,-640.107 790.632,-633.588 780.038,-633.476 782.28,-640.107"/>
</g>
<!-- predictor.matrix&#45;&gt;get_max_preds -->
<g id="edge6" class="edge"><title>predictor.matrix&#45;&gt;get_max_preds</title>
<path fill="none" stroke="black" d="M515,-514.868C515,-507.175 515,-497.835 515,-488.902"/>
<polygon fill="black" stroke="black" points="518.5,-488.727 515,-478.727 511.5,-488.727 518.5,-488.727"/>
</g>
<!-- predictor.matrix&#45;&gt;getCarscores -->
<g id="edge17" class="edge"><title>predictor.matrix&#45;&gt;getCarscores</title>
<path fill="none" stroke="black" d="M457.982,-518.589C413.545,-508.138 350.66,-493.347 297.413,-480.823"/>
<polygon fill="black" stroke="black" points="298.125,-477.395 287.59,-478.513 296.523,-484.209 298.125,-477.395"/>
</g>
<!-- prediction.years -->
<g id="node12" class="node"><title>prediction.years</title>
<path fill="#ffffcc" stroke="black" d="M904.5,-711.5C904.5,-711.5 811.5,-711.5 811.5,-711.5 805.5,-711.5 799.5,-705.5 799.5,-699.5 799.5,-699.5 799.5,-687.5 799.5,-687.5 799.5,-681.5 805.5,-675.5 811.5,-675.5 811.5,-675.5 904.5,-675.5 904.5,-675.5 910.5,-675.5 916.5,-681.5 916.5,-687.5 916.5,-687.5 916.5,-699.5 916.5,-699.5 916.5,-705.5 910.5,-711.5 904.5,-711.5"/>
<text text-anchor="middle" x="858" y="-689.8" font-family="Helvetica,sans-Serif" font-size="14.00">prediction.years</text>
</g>
<!-- prediction.years&#45;&gt;get_reconstruction_matrix -->
<g id="edge9" class="edge"><title>prediction.years&#45;&gt;get_reconstruction_matrix</title>
<path fill="none" stroke="black" d="M858,-675.322C858,-666.102 858,-654.435 858,-643.606"/>
<polygon fill="black" stroke="black" points="861.5,-643.587 858,-633.587 854.5,-643.587 861.5,-643.587"/>
</g>
<!-- prism_data -->
<g id="node13" class="node"><title>prism_data</title>
<path fill="#ffffcc" stroke="black" d="M52.5,-670.5C52.5,-670.5 317.5,-670.5 317.5,-670.5 323.5,-670.5 329.5,-676.5 329.5,-682.5 329.5,-682.5 329.5,-704.5 329.5,-704.5 329.5,-710.5 323.5,-716.5 317.5,-716.5 317.5,-716.5 52.5,-716.5 52.5,-716.5 46.5,-716.5 40.5,-710.5 40.5,-704.5 40.5,-704.5 40.5,-682.5 40.5,-682.5 40.5,-676.5 46.5,-670.5 52.5,-670.5"/>
<text text-anchor="middle" x="185" y="-701.3" font-family="Helvetica,sans-Serif" font-size="14.00">prism_data</text>
<polyline fill="none" stroke="black" points="40.5,-693.5 329.5,-693.5 "/>
<text text-anchor="middle" x="185" y="-678.3" font-family="Helvetica,sans-Serif" font-size="14.00">/.output/{session_id}/{run_id}/{data_file}.csv</text>
</g>
<!-- prism_data&#45;&gt;gen_predictand_matrix -->
<g id="edge12" class="edge"><title>prism_data&#45;&gt;gen_predictand_matrix</title>
<path fill="none" stroke="black" d="M185,-670.366C185,-662.152 185,-652.658 185,-643.725"/>
<polygon fill="black" stroke="black" points="188.5,-643.607 185,-633.607 181.5,-643.607 188.5,-643.607"/>
</g>
<!-- reconstruction.matrix&#45;&gt;get_predlist -->
<g id="edge14" class="edge"><title>reconstruction.matrix&#45;&gt;get_predlist</title>
<path fill="none" stroke="black" d="M858,-514.868C858,-507.175 858,-497.835 858,-488.902"/>
<polygon fill="black" stroke="black" points="861.5,-488.727 858,-478.727 854.5,-488.727 861.5,-488.727"/>
</g>
<!-- predictand.matrix&#45;&gt;getCarscores -->
<g id="edge16" class="edge"><title>predictand.matrix&#45;&gt;getCarscores</title>
<path fill="none" stroke="black" d="M190.135,-514.868C190.644,-507.175 191.263,-497.835 191.854,-488.902"/>
<polygon fill="black" stroke="black" points="195.359,-488.936 192.528,-478.727 188.375,-488.473 195.359,-488.936"/>
</g>
<!-- predlist&#45;&gt;calculateModels -->
<g id="edge19" class="edge"><title>predlist&#45;&gt;calculateModels</title>
<path fill="none" stroke="black" d="M700.446,-366.022C671.08,-355.804 626.219,-340.196 587.976,-326.89"/>
<polygon fill="black" stroke="black" points="589.004,-323.542 578.409,-323.562 586.704,-330.153 589.004,-323.542"/>
</g>
<!-- carscores&#45;&gt;calculateModels -->
<g id="edge20" class="edge"><title>carscores&#45;&gt;calculateModels</title>
<path fill="none" stroke="black" d="M344.184,-362.621C372.262,-352.575 410.515,-338.887 443.704,-327.011"/>
<polygon fill="black" stroke="black" points="445.133,-330.217 453.37,-323.553 442.775,-323.626 445.133,-330.217"/>
</g>
<!-- max.preds&#45;&gt;calculateModels -->
<g id="edge21" class="edge"><title>max.preds&#45;&gt;calculateModels</title>
<path fill="none" stroke="black" d="M515,-359.868C515,-352.175 515,-342.835 515,-333.902"/>
<polygon fill="black" stroke="black" points="518.5,-333.727 515,-323.727 511.5,-333.727 518.5,-333.727"/>
</g>
<!-- linear.models&#45;&gt;optimizeModels -->
<g id="edge23" class="edge"><title>linear.models&#45;&gt;optimizeModels</title>
<path fill="none" stroke="black" d="M515,-204.697C515,-196.983 515,-187.712 515,-179.112"/>
<polygon fill="black" stroke="black" points="518.5,-179.104 515,-169.104 511.5,-179.104 518.5,-179.104"/>
</g>
<!-- calibration.years -->
<g id="node20" class="node"><title>calibration.years</title>
<path fill="#fcfcfc" stroke="black" d="M567.5,-711.5C567.5,-711.5 472.5,-711.5 472.5,-711.5 466.5,-711.5 460.5,-705.5 460.5,-699.5 460.5,-699.5 460.5,-687.5 460.5,-687.5 460.5,-681.5 466.5,-675.5 472.5,-675.5 472.5,-675.5 567.5,-675.5 567.5,-675.5 573.5,-675.5 579.5,-681.5 579.5,-687.5 579.5,-687.5 579.5,-699.5 579.5,-699.5 579.5,-705.5 573.5,-711.5 567.5,-711.5"/>
<text text-anchor="middle" x="520" y="-689.8" font-family="Helvetica,sans-Serif" font-size="14.00">calibration.years</text>
</g>
<!-- calibration.years&#45;&gt;get_predictor_matrix -->
<g id="edge3" class="edge"><title>calibration.years&#45;&gt;get_predictor_matrix</title>
<path fill="none" stroke="black" d="M520,-675.322C520,-666.102 520,-654.435 520,-643.606"/>
<polygon fill="black" stroke="black" points="523.5,-643.587 520,-633.587 516.5,-643.587 523.5,-643.587"/>
</g>
<!-- min.width -->
<g id="node21" class="node"><title>min.width</title>
<path fill="#fcfcfc" stroke="black" d="M760.5,-711.5C760.5,-711.5 709.5,-711.5 709.5,-711.5 703.5,-711.5 697.5,-705.5 697.5,-699.5 697.5,-699.5 697.5,-687.5 697.5,-687.5 697.5,-681.5 703.5,-675.5 709.5,-675.5 709.5,-675.5 760.5,-675.5 760.5,-675.5 766.5,-675.5 772.5,-681.5 772.5,-687.5 772.5,-687.5 772.5,-699.5 772.5,-699.5 772.5,-705.5 766.5,-711.5 760.5,-711.5"/>
<text text-anchor="middle" x="735" y="-689.8" font-family="Helvetica,sans-Serif" font-size="14.00">min.width</text>
</g>
<!-- min.width&#45;&gt;get_predictor_matrix -->
<g id="edge4" class="edge"><title>min.width&#45;&gt;get_predictor_matrix</title>
<path fill="none" stroke="black" d="M697.057,-678.205C666.957,-666.865 624.107,-650.722 588.1,-637.156"/>
<polygon fill="black" stroke="black" points="589.217,-633.837 578.625,-633.587 586.749,-640.388 589.217,-633.837"/>
</g>
<!-- min.width&#45;&gt;get_reconstruction_matrix -->
<g id="edge10" class="edge"><title>min.width&#45;&gt;get_reconstruction_matrix</title>
<path fill="none" stroke="black" d="M761.085,-675.322C776.963,-664.866 797.618,-651.264 815.778,-639.305"/>
<polygon fill="black" stroke="black" points="818.034,-642.01 824.461,-633.587 814.184,-636.164 818.034,-642.01"/>
</g>
<!-- prism_data_input_port -->
<g id="node22" class="node"><title>prism_data_input_port</title>
<ellipse fill="#ffffff" stroke="black" cx="185" cy="-760" rx="7" ry="7"/>
</g>
<!-- prism_data_input_port&#45;&gt;prism_data -->
<g id="edge24" class="edge"><title>prism_data_input_port&#45;&gt;prism_data</title>
<path fill="none" stroke="black" d="M185,-752.58C185,-746.384 185,-736.516 185,-726.66"/>
<polygon fill="black" stroke="black" points="188.5,-726.548 185,-716.548 181.5,-726.548 188.5,-726.548"/>
</g>
<!-- calibration.years_input_port -->
<g id="node23" class="node"><title>calibration.years_input_port</title>
<ellipse fill="#ffffff" stroke="black" cx="520" cy="-760" rx="7" ry="7"/>
</g>
<!-- calibration.years_input_port&#45;&gt;calibration.years -->
<g id="edge25" class="edge"><title>calibration.years_input_port&#45;&gt;calibration.years</title>
<path fill="none" stroke="black" d="M520,-752.58C520,-745.358 520,-733.151 520,-721.786"/>
<polygon fill="black" stroke="black" points="523.5,-721.753 520,-711.753 516.5,-721.753 523.5,-721.753"/>
</g>
<!-- prediction.years_input_port -->
<g id="node24" class="node"><title>prediction.years_input_port</title>
<ellipse fill="#ffffff" stroke="black" cx="858" cy="-760" rx="7" ry="7"/>
</g>
<!-- prediction.years_input_port&#45;&gt;prediction.years -->
<g id="edge26" class="edge"><title>prediction.years_input_port&#45;&gt;prediction.years</title>
<path fill="none" stroke="black" d="M858,-752.58C858,-745.358 858,-733.151 858,-721.786"/>
<polygon fill="black" stroke="black" points="861.5,-721.753 858,-711.753 854.5,-721.753 861.5,-721.753"/>
</g>
<!-- itrdb_input_port -->
<g id="node25" class="node"><title>itrdb_input_port</title>
<ellipse fill="#ffffff" stroke="black" cx="634" cy="-760" rx="7" ry="7"/>
</g>
<!-- itrdb_input_port&#45;&gt;itrdb -->
<g id="edge27" class="edge"><title>itrdb_input_port&#45;&gt;itrdb</title>
<path fill="none" stroke="black" d="M634,-752.58C634,-745.358 634,-733.151 634,-721.786"/>
<polygon fill="black" stroke="black" points="637.5,-721.753 634,-711.753 630.5,-721.753 637.5,-721.753"/>
</g>
<!-- min.width_input_port -->
<g id="node26" class="node"><title>min.width_input_port</title>
<ellipse fill="#ffffff" stroke="black" cx="735" cy="-760" rx="7" ry="7"/>
</g>
<!-- min.width_input_port&#45;&gt;min.width -->
<g id="edge28" class="edge"><title>min.width_input_port&#45;&gt;min.width</title>
<path fill="none" stroke="black" d="M735,-752.58C735,-745.358 735,-733.151 735,-721.786"/>
<polygon fill="black" stroke="black" points="738.5,-721.753 735,-711.753 731.5,-721.753 738.5,-721.753"/>
</g>
</g>
</svg>
