<?xml version="1.0" encoding="UTF-8" standalone="no"?>
<!DOCTYPE svg PUBLIC "-//W3C//DTD SVG 1.1//EN"
 "http://www.w3.org/Graphics/SVG/1.1/DTD/svg11.dtd">
<!-- Generated by graphviz version 2.38.0 (20140413.2041)
 -->
<!-- Title: Workflow Pages: 1 -->
<svg width="1304pt" height="402pt"
 viewBox="0.00 0.00 1304.00 402.00" xmlns="http://www.w3.org/2000/svg" xmlns:xlink="http://www.w3.org/1999/xlink">
<g id="graph0" class="graph" transform="scale(1 1) rotate(0) translate(4 398)">
<title>Workflow</title>
<polygon fill="white" stroke="none" points="-4,4 -4,-398 1300,-398 1300,4 -4,4"/>
<text text-anchor="middle" x="648" y="-375.6" font-family="Helvetica,sans-Serif" font-size="18.00">exec_paleocar</text>
<g id="clust1" class="cluster"><title>cluster_workflow_box_outer</title>
<polygon fill="none" stroke="black" stroke-width="2" points="62,-8 62,-358 1234,-358 1234,-8 62,-8"/>
</g>
<g id="clust2" class="cluster"><title>cluster_workflow_box_inner</title>
<polygon fill="none" stroke="black" stroke-width="0" points="70,-16 70,-350 1226,-350 1226,-16 70,-16"/>
</g>
<g id="clust3" class="cluster"><title>cluster_input_ports_group_outer</title>
<polygon fill="none" stroke="black" stroke-width="0" points="8,-47 8,-221 54,-221 54,-47 8,-47"/>
</g>
<g id="clust4" class="cluster"><title>cluster_input_ports_group_inner</title>
<polygon fill="none" stroke="black" stroke-width="0" points="16,-55 16,-213 46,-213 46,-55 16,-55"/>
</g>
<g id="clust5" class="cluster"><title>cluster_output_ports_group_outer</title>
<polygon fill="none" stroke="black" stroke-width="0" points="1242,-27 1242,-137 1288,-137 1288,-27 1242,-27"/>
</g>
<g id="clust6" class="cluster"><title>cluster_output_ports_group_inner</title>
<polygon fill="none" stroke="black" stroke-width="0" points="1250,-35 1250,-129 1280,-129 1280,-35 1250,-35"/>
</g>
<!-- gen_prism_data -->
<g id="node1" class="node"><title>gen_prism_data</title>
<polygon fill="#ccffcc" stroke="black" points="334,-228 215,-228 215,-192 334,-192 334,-228"/>
<text text-anchor="middle" x="274.5" y="-206.3" font-family="Helvetica,sans-Serif" font-size="14.00">gen_prism_data</text>
</g>
<!-- prism_data -->
<g id="node11" class="node"><title>prism_data</title>
<path fill="#ffffcc" stroke="black" d="M384,-187C384,-187 467,-187 467,-187 473,-187 479,-193 479,-199 479,-199 479,-221 479,-221 479,-227 473,-233 467,-233 467,-233 384,-233 384,-233 378,-233 372,-227 372,-221 372,-221 372,-199 372,-199 372,-193 378,-187 384,-187"/>
<text text-anchor="middle" x="425.5" y="-217.8" font-family="Helvetica,sans-Serif" font-size="14.00">prism_data</text>
<polyline fill="none" stroke="black" points="372,-210 479,-210 "/>
<text text-anchor="middle" x="425.5" y="-194.8" font-family="Helvetica,sans-Serif" font-size="14.00">112W36N.csv</text>
</g>
<!-- gen_prism_data&#45;&gt;prism_data -->
<g id="edge1" class="edge"><title>gen_prism_data&#45;&gt;prism_data</title>
<path fill="none" stroke="black" d="M334.389,-210C343.372,-210 352.673,-210 361.735,-210"/>
<polygon fill="black" stroke="black" points="361.837,-213.5 371.837,-210 361.837,-206.5 361.837,-213.5"/>
</g>
<!-- paleocar_models -->
<g id="node2" class="node"><title>paleocar_models</title>
<polygon fill="#ccffcc" stroke="black" points="644,-168 517,-168 517,-132 644,-132 644,-168"/>
<text text-anchor="middle" x="580.5" y="-146.3" font-family="Helvetica,sans-Serif" font-size="14.00">paleocar_models</text>
</g>
<!-- paleocar_model.rds -->
<g id="node5" class="node"><title>paleocar_model.rds</title>
<path fill="#ffffcc" stroke="black" d="M811,-125C811,-125 692,-125 692,-125 686,-125 680,-119 680,-113 680,-113 680,-101 680,-101 680,-95 686,-89 692,-89 692,-89 811,-89 811,-89 817,-89 823,-95 823,-101 823,-101 823,-113 823,-113 823,-119 817,-125 811,-125"/>
<text text-anchor="middle" x="751.5" y="-103.3" font-family="Helvetica,sans-Serif" font-size="14.00">paleocar_model.rds</text>
</g>
<!-- paleocar_models&#45;&gt;paleocar_model.rds -->
<g id="edge4" class="edge"><title>paleocar_models&#45;&gt;paleocar_model.rds</title>
<path fill="none" stroke="black" d="M644.429,-133.988C652.816,-131.854 661.507,-129.643 670.139,-127.447"/>
<polygon fill="black" stroke="black" points="671.014,-130.836 679.842,-124.978 669.288,-124.052 671.014,-130.836"/>
</g>
<!-- paleocar_predict_model -->
<g id="node3" class="node"><title>paleocar_predict_model</title>
<polygon fill="#ccffcc" stroke="black" points="1042,-100 871,-100 871,-64 1042,-64 1042,-100"/>
<text text-anchor="middle" x="956.5" y="-78.3" font-family="Helvetica,sans-Serif" font-size="14.00">paleocar_predict_model</text>
</g>
<!-- prediction_graph -->
<g id="node6" class="node"><title>prediction_graph</title>
<path fill="#ffffcc" stroke="black" d="M1203.5,-100C1203.5,-100 1104.5,-100 1104.5,-100 1098.5,-100 1092.5,-94 1092.5,-88 1092.5,-88 1092.5,-76 1092.5,-76 1092.5,-70 1098.5,-64 1104.5,-64 1104.5,-64 1203.5,-64 1203.5,-64 1209.5,-64 1215.5,-70 1215.5,-76 1215.5,-76 1215.5,-88 1215.5,-88 1215.5,-94 1209.5,-100 1203.5,-100"/>
<text text-anchor="middle" x="1154" y="-78.3" font-family="Helvetica,sans-Serif" font-size="14.00">prediction_graph</text>
</g>
<!-- paleocar_predict_model&#45;&gt;prediction_graph -->
<g id="edge11" class="edge"><title>paleocar_predict_model&#45;&gt;prediction_graph</title>
<path fill="none" stroke="black" d="M1042.11,-82C1055.47,-82 1069.15,-82 1082.15,-82"/>
<polygon fill="black" stroke="black" points="1082.41,-85.5001 1092.41,-82 1082.41,-78.5001 1082.41,-85.5001"/>
</g>
<!-- uncertainty_paleocar_model -->
<g id="node4" class="node"><title>uncertainty_paleocar_model</title>
<polygon fill="#ccffcc" stroke="black" points="1054,-154 859,-154 859,-118 1054,-118 1054,-154"/>
<text text-anchor="middle" x="956.5" y="-132.3" font-family="Helvetica,sans-Serif" font-size="14.00">uncertainty_paleocar_model</text>
</g>
<!-- uncertainty_graph -->
<g id="node7" class="node"><title>uncertainty_graph</title>
<path fill="#ffffcc" stroke="black" d="M1206,-154C1206,-154 1102,-154 1102,-154 1096,-154 1090,-148 1090,-142 1090,-142 1090,-130 1090,-130 1090,-124 1096,-118 1102,-118 1102,-118 1206,-118 1206,-118 1212,-118 1218,-124 1218,-130 1218,-130 1218,-142 1218,-142 1218,-148 1212,-154 1206,-154"/>
<text text-anchor="middle" x="1154" y="-132.3" font-family="Helvetica,sans-Serif" font-size="14.00">uncertainty_graph</text>
</g>
<!-- uncertainty_paleocar_model&#45;&gt;uncertainty_graph -->
<g id="edge14" class="edge"><title>uncertainty_paleocar_model&#45;&gt;uncertainty_graph</title>
<path fill="none" stroke="black" d="M1054.1,-136C1062.72,-136 1071.35,-136 1079.72,-136"/>
<polygon fill="black" stroke="black" points="1079.79,-139.5 1089.79,-136 1079.79,-132.5 1079.79,-139.5"/>
</g>
<!-- paleocar_model.rds&#45;&gt;paleocar_predict_model -->
<g id="edge12" class="edge"><title>paleocar_model.rds&#45;&gt;paleocar_predict_model</title>
<path fill="none" stroke="black" d="M823.215,-98.2913C835.313,-96.8013 848.056,-95.232 860.662,-93.6795"/>
<polygon fill="black" stroke="black" points="861.23,-97.1361 870.727,-92.44 860.374,-90.1886 861.23,-97.1361"/>
</g>
<!-- paleocar_model.rds&#45;&gt;uncertainty_paleocar_model -->
<g id="edge15" class="edge"><title>paleocar_model.rds&#45;&gt;uncertainty_paleocar_model</title>
<path fill="none" stroke="black" d="M823.215,-117.102C831.521,-118.289 840.131,-119.519 848.793,-120.756"/>
<polygon fill="black" stroke="black" points="848.574,-124.26 858.968,-122.21 849.564,-117.331 848.574,-124.26"/>
</g>
<!-- paleocar_model.rds_output_port -->
<g id="node21" class="node"><title>paleocar_model.rds_output_port</title>
<ellipse fill="#ffffff" stroke="black" cx="1265" cy="-50" rx="7" ry="7"/>
</g>
<!-- paleocar_model.rds&#45;&gt;paleocar_model.rds_output_port -->
<g id="edge21" class="edge"><title>paleocar_model.rds&#45;&gt;paleocar_model.rds_output_port</title>
<path fill="none" stroke="black" d="M781.021,-88.7473C801.75,-76.5866 830.974,-61.6591 859,-55 1006.55,-19.9413 1192.94,-40.4062 1248,-47.7234"/>
<polygon fill="black" stroke="black" points="1247.55,-51.194 1257.93,-49.0946 1248.51,-44.2597 1247.55,-51.194"/>
</g>
<!-- prediction_graph_output_port -->
<g id="node22" class="node"><title>prediction_graph_output_port</title>
<ellipse fill="#ffffff" stroke="black" cx="1265" cy="-82" rx="7" ry="7"/>
</g>
<!-- prediction_graph&#45;&gt;prediction_graph_output_port -->
<g id="edge22" class="edge"><title>prediction_graph&#45;&gt;prediction_graph_output_port</title>
<path fill="none" stroke="black" d="M1215.56,-82C1227.41,-82 1238.89,-82 1247.69,-82"/>
<polygon fill="black" stroke="black" points="1247.82,-85.5001 1257.82,-82 1247.82,-78.5001 1247.82,-85.5001"/>
</g>
<!-- uncertainty_graph_output_port -->
<g id="node23" class="node"><title>uncertainty_graph_output_port</title>
<ellipse fill="#ffffff" stroke="black" cx="1265" cy="-114" rx="7" ry="7"/>
</g>
<!-- uncertainty_graph&#45;&gt;uncertainty_graph_output_port -->
<g id="edge23" class="edge"><title>uncertainty_graph&#45;&gt;uncertainty_graph_output_port</title>
<path fill="none" stroke="black" d="M1218.09,-123.266C1229.23,-121.019 1239.87,-118.87 1248.1,-117.209"/>
<polygon fill="black" stroke="black" points="1248.82,-120.635 1257.93,-115.225 1247.43,-113.773 1248.82,-120.635"/>
</g>
<!-- coordinates -->
<g id="node8" class="node"><title>coordinates</title>
<path fill="#ffffcc" stroke="black" d="M162,-264C162,-264 95,-264 95,-264 89,-264 83,-258 83,-252 83,-252 83,-240 83,-240 83,-234 89,-228 95,-228 95,-228 162,-228 162,-228 168,-228 174,-234 174,-240 174,-240 174,-252 174,-252 174,-258 168,-264 162,-264"/>
<text text-anchor="middle" x="128.5" y="-242.3" font-family="Helvetica,sans-Serif" font-size="14.00">coordinates</text>
</g>
<!-- coordinates&#45;&gt;gen_prism_data -->
<g id="edge2" class="edge"><title>coordinates&#45;&gt;gen_prism_data</title>
<path fill="none" stroke="black" d="M174.273,-234.807C184.033,-232.367 194.577,-229.731 205.021,-227.12"/>
<polygon fill="black" stroke="black" points="206.123,-230.452 214.975,-224.631 204.425,-223.661 206.123,-230.452"/>
</g>
<!-- netcdf_file -->
<g id="node9" class="node"><title>netcdf_file</title>
<path fill="#ffffcc" stroke="black" d="M90,-163C90,-163 167,-163 167,-163 173,-163 179,-169 179,-175 179,-175 179,-197 179,-197 179,-203 173,-209 167,-209 167,-209 90,-209 90,-209 84,-209 78,-203 78,-197 78,-197 78,-175 78,-175 78,-169 84,-163 90,-163"/>
<text text-anchor="middle" x="128.5" y="-193.8" font-family="Helvetica,sans-Serif" font-size="14.00">netcdf_file</text>
<polyline fill="none" stroke="black" points="78,-186 179,-186 "/>
<text text-anchor="middle" x="128.5" y="-170.8" font-family="Helvetica,sans-Serif" font-size="14.00">112W36N.nc</text>
</g>
<!-- netcdf_file&#45;&gt;gen_prism_data -->
<g id="edge3" class="edge"><title>netcdf_file&#45;&gt;gen_prism_data</title>
<path fill="none" stroke="black" d="M179.057,-194.259C187.36,-195.643 196.106,-197.101 204.788,-198.548"/>
<polygon fill="black" stroke="black" points="204.481,-202.045 214.92,-200.237 205.631,-195.14 204.481,-202.045"/>
</g>
<!-- itrdb -->
<g id="node10" class="node"><title>itrdb</title>
<path fill="#ffffcc" stroke="black" d="M440.5,-168C440.5,-168 410.5,-168 410.5,-168 404.5,-168 398.5,-162 398.5,-156 398.5,-156 398.5,-144 398.5,-144 398.5,-138 404.5,-132 410.5,-132 410.5,-132 440.5,-132 440.5,-132 446.5,-132 452.5,-138 452.5,-144 452.5,-144 452.5,-156 452.5,-156 452.5,-162 446.5,-168 440.5,-168"/>
<text text-anchor="middle" x="425.5" y="-146.3" font-family="Helvetica,sans-Serif" font-size="14.00">itrdb</text>
</g>
<!-- itrdb&#45;&gt;paleocar_models -->
<g id="edge5" class="edge"><title>itrdb&#45;&gt;paleocar_models</title>
<path fill="none" stroke="black" d="M452.802,-150C467.79,-150 487.38,-150 506.66,-150"/>
<polygon fill="black" stroke="black" points="506.688,-153.5 516.688,-150 506.688,-146.5 506.688,-153.5"/>
</g>
<!-- prism_data&#45;&gt;paleocar_models -->
<g id="edge6" class="edge"><title>prism_data&#45;&gt;paleocar_models</title>
<path fill="none" stroke="black" d="M479.154,-189.351C493.619,-183.679 509.348,-177.51 523.97,-171.777"/>
<polygon fill="black" stroke="black" points="525.362,-174.99 533.394,-168.081 522.806,-168.473 525.362,-174.99"/>
</g>
<!-- calibration.year -->
<g id="node12" class="node"><title>calibration.year</title>
<path fill="#ffffcc" stroke="black" d="M469,-114C469,-114 382,-114 382,-114 376,-114 370,-108 370,-102 370,-102 370,-90 370,-90 370,-84 376,-78 382,-78 382,-78 469,-78 469,-78 475,-78 481,-84 481,-90 481,-90 481,-102 481,-102 481,-108 475,-114 469,-114"/>
<text text-anchor="middle" x="425.5" y="-92.3" font-family="Helvetica,sans-Serif" font-size="14.00">calibration.year</text>
</g>
<!-- calibration.year&#45;&gt;paleocar_models -->
<g id="edge7" class="edge"><title>calibration.year&#45;&gt;paleocar_models</title>
<path fill="none" stroke="black" d="M477.872,-114.131C490.936,-118.742 505.099,-123.741 518.587,-128.501"/>
<polygon fill="black" stroke="black" points="517.668,-131.889 528.263,-131.916 519.998,-125.288 517.668,-131.889"/>
</g>
<!-- prediction.year -->
<g id="node13" class="node"><title>prediction.year</title>
<path fill="#ffffcc" stroke="black" d="M468.5,-60C468.5,-60 382.5,-60 382.5,-60 376.5,-60 370.5,-54 370.5,-48 370.5,-48 370.5,-36 370.5,-36 370.5,-30 376.5,-24 382.5,-24 382.5,-24 468.5,-24 468.5,-24 474.5,-24 480.5,-30 480.5,-36 480.5,-36 480.5,-48 480.5,-48 480.5,-54 474.5,-60 468.5,-60"/>
<text text-anchor="middle" x="425.5" y="-38.3" font-family="Helvetica,sans-Serif" font-size="14.00">prediction.year</text>
</g>
<!-- prediction.year&#45;&gt;paleocar_models -->
<g id="edge8" class="edge"><title>prediction.year&#45;&gt;paleocar_models</title>
<path fill="none" stroke="black" d="M465.805,-60.1187C471.019,-62.9118 476.212,-65.9034 481,-69 506.817,-85.697 533.609,-108.114 552.721,-125.132"/>
<polygon fill="black" stroke="black" points="550.387,-127.74 560.161,-131.83 555.071,-122.538 550.387,-127.74"/>
</g>
<!-- prediction.year&#45;&gt;paleocar_predict_model -->
<g id="edge13" class="edge"><title>prediction.year&#45;&gt;paleocar_predict_model</title>
<path fill="none" stroke="black" d="M480.626,-46.0927C570.001,-52.8507 749.559,-66.4279 860.461,-74.8137"/>
<polygon fill="black" stroke="black" points="860.407,-78.3195 870.642,-75.5835 860.935,-71.3394 860.407,-78.3195"/>
</g>
<!-- min.width -->
<g id="node14" class="node"><title>min.width</title>
<path fill="#fcfcfc" stroke="black" d="M451,-342C451,-342 400,-342 400,-342 394,-342 388,-336 388,-330 388,-330 388,-318 388,-318 388,-312 394,-306 400,-306 400,-306 451,-306 451,-306 457,-306 463,-312 463,-318 463,-318 463,-330 463,-330 463,-336 457,-342 451,-342"/>
<text text-anchor="middle" x="425.5" y="-320.3" font-family="Helvetica,sans-Serif" font-size="14.00">min.width</text>
</g>
<!-- min.width&#45;&gt;paleocar_models -->
<g id="edge9" class="edge"><title>min.width&#45;&gt;paleocar_models</title>
<path fill="none" stroke="black" d="M463.059,-309.21C469.415,-305.739 475.682,-301.666 481,-297 520.133,-262.663 550.62,-209.368 566.759,-177.262"/>
<polygon fill="black" stroke="black" points="570.031,-178.542 571.301,-168.023 563.749,-175.453 570.031,-178.542"/>
</g>
<!-- verbose -->
<g id="node15" class="node"><title>verbose</title>
<path fill="#fcfcfc" stroke="black" d="M447.5,-288C447.5,-288 403.5,-288 403.5,-288 397.5,-288 391.5,-282 391.5,-276 391.5,-276 391.5,-264 391.5,-264 391.5,-258 397.5,-252 403.5,-252 403.5,-252 447.5,-252 447.5,-252 453.5,-252 459.5,-258 459.5,-264 459.5,-264 459.5,-276 459.5,-276 459.5,-282 453.5,-288 447.5,-288"/>
<text text-anchor="middle" x="425.5" y="-266.3" font-family="Helvetica,sans-Serif" font-size="14.00">verbose</text>
</g>
<!-- verbose&#45;&gt;paleocar_models -->
<g id="edge10" class="edge"><title>verbose&#45;&gt;paleocar_models</title>
<path fill="none" stroke="black" d="M459.675,-255.528C466.936,-251.829 474.415,-247.586 481,-243 509.283,-223.303 537.463,-195.681 556.39,-175.662"/>
<polygon fill="black" stroke="black" points="559.155,-177.829 563.416,-168.128 554.036,-173.054 559.155,-177.829"/>
</g>
<!-- coordinates_input_port -->
<g id="node16" class="node"><title>coordinates_input_port</title>
<ellipse fill="#ffffff" stroke="black" cx="31" cy="-198" rx="7" ry="7"/>
</g>
<!-- coordinates_input_port&#45;&gt;coordinates -->
<g id="edge16" class="edge"><title>coordinates_input_port&#45;&gt;coordinates</title>
<path fill="none" stroke="black" d="M36.8765,-201.92C42.639,-206.43 52.6312,-213.871 62,-219 65.702,-221.027 69.5883,-222.995 73.543,-224.884"/>
<polygon fill="black" stroke="black" points="72.2908,-228.16 82.8402,-229.139 75.204,-221.795 72.2908,-228.16"/>
</g>
<!-- netcdf_file_input_port -->
<g id="node17" class="node"><title>netcdf_file_input_port</title>
<ellipse fill="#ffffff" stroke="black" cx="31" cy="-166" rx="7" ry="7"/>
</g>
<!-- netcdf_file_input_port&#45;&gt;netcdf_file -->
<g id="edge17" class="edge"><title>netcdf_file_input_port&#45;&gt;netcdf_file</title>
<path fill="none" stroke="black" d="M37.974,-167.251C44.4826,-168.614 55.6151,-170.946 67.8619,-173.51"/>
<polygon fill="black" stroke="black" points="67.3502,-176.979 77.8553,-175.603 68.7851,-170.128 67.3502,-176.979"/>
</g>
<!-- itrdb_input_port -->
<g id="node18" class="node"><title>itrdb_input_port</title>
<ellipse fill="#ffffff" stroke="black" cx="31" cy="-134" rx="7" ry="7"/>
</g>
<!-- itrdb_input_port&#45;&gt;itrdb -->
<g id="edge18" class="edge"><title>itrdb_input_port&#45;&gt;itrdb</title>
<path fill="none" stroke="black" d="M38.1652,-134.251C77.9956,-135.875 300.09,-144.929 388.339,-148.526"/>
<polygon fill="black" stroke="black" points="388.283,-152.026 398.417,-148.937 388.568,-145.032 388.283,-152.026"/>
</g>
<!-- calibration.year_input_port -->
<g id="node19" class="node"><title>calibration.year_input_port</title>
<ellipse fill="#ffffff" stroke="black" cx="31" cy="-102" rx="7" ry="7"/>
</g>
<!-- calibration.year_input_port&#45;&gt;calibration.year -->
<g id="edge19" class="edge"><title>calibration.year_input_port&#45;&gt;calibration.year</title>
<path fill="none" stroke="black" d="M38.1652,-101.906C74.184,-101.355 259.252,-98.5261 359.604,-96.992"/>
<polygon fill="black" stroke="black" points="359.689,-100.491 369.634,-96.8387 359.582,-93.4921 359.689,-100.491"/>
</g>
<!-- prediction.year_input_port -->
<g id="node20" class="node"><title>prediction.year_input_port</title>
<ellipse fill="#ffffff" stroke="black" cx="31" cy="-70" rx="7" ry="7"/>
</g>
<!-- prediction.year_input_port&#45;&gt;prediction.year -->
<g id="edge20" class="edge"><title>prediction.year_input_port&#45;&gt;prediction.year</title>
<path fill="none" stroke="black" d="M38.1652,-69.5602C74.2783,-66.984 260.222,-53.7192 360.39,-46.5734"/>
<polygon fill="black" stroke="black" points="360.672,-50.0623 370.398,-45.8595 360.174,-43.0801 360.672,-50.0623"/>
</g>
</g>
</svg>
