<?xml version="1.0" encoding="UTF-8" standalone="no"?>
<!DOCTYPE svg PUBLIC "-//W3C//DTD SVG 1.1//EN"
 "http://www.w3.org/Graphics/SVG/1.1/DTD/svg11.dtd">
<!-- Generated by graphviz version 2.38.0 (20140413.2041)
 -->
<!-- Title: Workflow Pages: 1 -->
<svg width="698pt" height="772pt"
 viewBox="0.00 0.00 698.00 772.00" xmlns="http://www.w3.org/2000/svg" xmlns:xlink="http://www.w3.org/1999/xlink">
<g id="graph0" class="graph" transform="scale(1 1) rotate(0) translate(4 768)">
<title>Workflow</title>
<polygon fill="white" stroke="none" points="-4,4 -4,-768 694,-768 694,4 -4,4"/>
<g id="clust1" class="cluster"><title>cluster_workflow_box_outer</title>
<polygon fill="none" stroke="black" stroke-width="2" points="22,-34 22,-730 668,-730 668,-34 22,-34"/>
</g>
<g id="clust2" class="cluster"><title>cluster_workflow_box_inner</title>
<polygon fill="none" stroke="black" stroke-width="0" points="30,-42 30,-722 660,-722 660,-42 30,-42"/>
</g>
<!-- gen_prism_data -->
<g id="node1" class="node"><title>gen_prism_data</title>
<polygon fill="#ccffcc" stroke="black" points="566.5,-631 447.5,-631 447.5,-595 566.5,-595 566.5,-631"/>
<text text-anchor="middle" x="507" y="-609.3" font-family="Helvetica,sans-Serif" font-size="14.00">gen_prism_data</text>
</g>
<!-- prism_data -->
<g id="node11" class="node"><title>prism_data</title>
<path fill="#ffffcc" stroke="black" d="M440,-512.5C440,-512.5 574,-512.5 574,-512.5 580,-512.5 586,-518.5 586,-524.5 586,-524.5 586,-546.5 586,-546.5 586,-552.5 580,-558.5 574,-558.5 574,-558.5 440,-558.5 440,-558.5 434,-558.5 428,-552.5 428,-546.5 428,-546.5 428,-524.5 428,-524.5 428,-518.5 434,-512.5 440,-512.5"/>
<text text-anchor="middle" x="507" y="-543.3" font-family="Helvetica,sans-Serif" font-size="14.00">prism_data</text>
<polyline fill="none" stroke="black" points="428,-535.5 586,-535.5 "/>
<text text-anchor="middle" x="507" y="-520.3" font-family="Helvetica,sans-Serif" font-size="14.00">file:data/{data_file}.csv</text>
</g>
<!-- gen_prism_data&#45;&gt;prism_data -->
<g id="edge1" class="edge"><title>gen_prism_data&#45;&gt;prism_data</title>
<path fill="none" stroke="black" d="M507,-594.868C507,-587.175 507,-577.835 507,-568.902"/>
<polygon fill="black" stroke="black" points="510.5,-568.727 507,-558.727 503.5,-568.727 510.5,-568.727"/>
</g>
<!-- paleocar_model -->
<g id="node2" class="node"><title>paleocar_model</title>
<polygon fill="#ccffcc" stroke="black" points="322.5,-324 203.5,-324 203.5,-288 322.5,-288 322.5,-324"/>
<text text-anchor="middle" x="263" y="-302.3" font-family="Helvetica,sans-Serif" font-size="14.00">paleocar_model</text>
</g>
<!-- paleocar_models -->
<g id="node6" class="node"><title>paleocar_models</title>
<path fill="#ffffcc" stroke="black" d="M364,-205.5C364,-205.5 620,-205.5 620,-205.5 626,-205.5 632,-211.5 632,-217.5 632,-217.5 632,-239.5 632,-239.5 632,-245.5 626,-251.5 620,-251.5 620,-251.5 364,-251.5 364,-251.5 358,-251.5 352,-245.5 352,-239.5 352,-239.5 352,-217.5 352,-217.5 352,-211.5 358,-205.5 364,-205.5"/>
<text text-anchor="middle" x="492" y="-236.3" font-family="Helvetica,sans-Serif" font-size="14.00">paleocar_models</text>
<polyline fill="none" stroke="black" points="352,-228.5 632,-228.5 "/>
<text text-anchor="middle" x="492" y="-213.3" font-family="Helvetica,sans-Serif" font-size="14.00">file:{run_id}/{run_count}/{label}.models.rds</text>
</g>
<!-- paleocar_model&#45;&gt;paleocar_models -->
<g id="edge9" class="edge"><title>paleocar_model&#45;&gt;paleocar_models</title>
<path fill="none" stroke="black" d="M314.678,-287.962C344.334,-278.185 382.133,-265.723 415.207,-254.818"/>
<polygon fill="black" stroke="black" points="416.45,-258.094 424.851,-251.639 414.258,-251.446 416.45,-258.094"/>
</g>
<!-- paleocar_predict_model -->
<g id="node3" class="node"><title>paleocar_predict_model</title>
<polygon fill="#ccffcc" stroke="black" points="604.5,-169 433.5,-169 433.5,-133 604.5,-133 604.5,-169"/>
<text text-anchor="middle" x="519" y="-147.3" font-family="Helvetica,sans-Serif" font-size="14.00">paleocar_predict_model</text>
</g>
<!-- prediction_model -->
<g id="node7" class="node"><title>prediction_model</title>
<path fill="#ffffcc" stroke="black" d="M368.5,-50.5C368.5,-50.5 639.5,-50.5 639.5,-50.5 645.5,-50.5 651.5,-56.5 651.5,-62.5 651.5,-62.5 651.5,-84.5 651.5,-84.5 651.5,-90.5 645.5,-96.5 639.5,-96.5 639.5,-96.5 368.5,-96.5 368.5,-96.5 362.5,-96.5 356.5,-90.5 356.5,-84.5 356.5,-84.5 356.5,-62.5 356.5,-62.5 356.5,-56.5 362.5,-50.5 368.5,-50.5"/>
<text text-anchor="middle" x="504" y="-81.3" font-family="Helvetica,sans-Serif" font-size="14.00">prediction_model</text>
<polyline fill="none" stroke="black" points="356.5,-73.5 651.5,-73.5 "/>
<text text-anchor="middle" x="504" y="-58.3" font-family="Helvetica,sans-Serif" font-size="14.00">file:{run_id}/{run_count}/{label}.prediction.rds</text>
</g>
<!-- paleocar_predict_model&#45;&gt;prediction_model -->
<g id="edge16" class="edge"><title>paleocar_predict_model&#45;&gt;prediction_model</title>
<path fill="none" stroke="black" d="M515.596,-132.868C514.051,-125.092 512.172,-115.632 510.38,-106.611"/>
<polygon fill="black" stroke="black" points="513.798,-105.853 508.416,-96.7266 506.932,-107.217 513.798,-105.853"/>
</g>
<!-- uncertainty_paleocar_model -->
<g id="node4" class="node"><title>uncertainty_paleocar_model</title>
<polygon fill="#ccffcc" stroke="black" points="415.5,-169 220.5,-169 220.5,-133 415.5,-133 415.5,-169"/>
<text text-anchor="middle" x="318" y="-147.3" font-family="Helvetica,sans-Serif" font-size="14.00">uncertainty_paleocar_model</text>
</g>
<!-- uncertainty_model -->
<g id="node8" class="node"><title>uncertainty_model</title>
<path fill="#ffffcc" stroke="black" d="M50,-50.5C50,-50.5 326,-50.5 326,-50.5 332,-50.5 338,-56.5 338,-62.5 338,-62.5 338,-84.5 338,-84.5 338,-90.5 332,-96.5 326,-96.5 326,-96.5 50,-96.5 50,-96.5 44,-96.5 38,-90.5 38,-84.5 38,-84.5 38,-62.5 38,-62.5 38,-56.5 44,-50.5 50,-50.5"/>
<text text-anchor="middle" x="188" y="-81.3" font-family="Helvetica,sans-Serif" font-size="14.00">uncertainty_model</text>
<polyline fill="none" stroke="black" points="38,-73.5 338,-73.5 "/>
<text text-anchor="middle" x="188" y="-58.3" font-family="Helvetica,sans-Serif" font-size="14.00">file:{run_id}/{run_count}/{label}.uncertainty.rds</text>
</g>
<!-- uncertainty_paleocar_model&#45;&gt;uncertainty_model -->
<g id="edge19" class="edge"><title>uncertainty_paleocar_model&#45;&gt;uncertainty_model</title>
<path fill="none" stroke="black" d="M288.501,-132.868C272.808,-123.754 253.132,-112.327 235.36,-102.005"/>
<polygon fill="black" stroke="black" points="236.676,-98.7222 226.271,-96.7266 233.161,-104.775 236.676,-98.7222"/>
</g>
<!-- get_itrdb_data -->
<g id="node5" class="node"><title>get_itrdb_data</title>
<polygon fill="#ccffcc" stroke="black" points="404,-472 296,-472 296,-436 404,-436 404,-472"/>
<polygon fill="none" stroke="black" points="408,-476 292,-476 292,-432 408,-432 408,-476"/>
<text text-anchor="middle" x="350" y="-450.3" font-family="Helvetica,sans-Serif" font-size="14.00">get_itrdb_data</text>
</g>
<!-- itrdb -->
<g id="node12" class="node"><title>itrdb</title>
<path fill="#ffffcc" stroke="black" d="M389,-396C389,-396 359,-396 359,-396 353,-396 347,-390 347,-384 347,-384 347,-372 347,-372 347,-366 353,-360 359,-360 359,-360 389,-360 389,-360 395,-360 401,-366 401,-372 401,-372 401,-384 401,-384 401,-390 395,-396 389,-396"/>
<text text-anchor="middle" x="374" y="-374.3" font-family="Helvetica,sans-Serif" font-size="14.00">itrdb</text>
</g>
<!-- get_itrdb_data&#45;&gt;itrdb -->
<g id="edge4" class="edge"><title>get_itrdb_data&#45;&gt;itrdb</title>
<path fill="none" stroke="black" d="M356.813,-431.993C359.443,-423.885 362.484,-414.508 365.27,-405.916"/>
<polygon fill="black" stroke="black" points="368.629,-406.907 368.384,-396.315 361.97,-404.747 368.629,-406.907"/>
</g>
<!-- paleocar_models&#45;&gt;paleocar_predict_model -->
<g id="edge17" class="edge"><title>paleocar_models&#45;&gt;paleocar_predict_model</title>
<path fill="none" stroke="black" d="M499.955,-205.256C502.906,-197.002 506.286,-187.552 509.371,-178.925"/>
<polygon fill="black" stroke="black" points="512.742,-179.892 512.814,-169.298 506.151,-177.535 512.742,-179.892"/>
</g>
<!-- paleocar_models&#45;&gt;uncertainty_paleocar_model -->
<g id="edge20" class="edge"><title>paleocar_models&#45;&gt;uncertainty_paleocar_model</title>
<path fill="none" stroke="black" d="M441.204,-205.459C417.665,-195.245 389.822,-183.164 366.565,-173.073"/>
<polygon fill="black" stroke="black" points="367.803,-169.795 357.236,-169.025 365.017,-176.216 367.803,-169.795"/>
</g>
<!-- paleocar_models_output_port -->
<g id="node24" class="node"><title>paleocar_models_output_port</title>
<ellipse fill="#ffffff" stroke="black" cx="683" cy="-151" rx="7" ry="7"/>
</g>
<!-- paleocar_models&#45;&gt;paleocar_models_output_port -->
<g id="edge26" class="edge"><title>paleocar_models&#45;&gt;paleocar_models_output_port</title>
<path fill="none" stroke="black" d="M578.942,-205.413C607.134,-196.324 637.857,-184.278 664,-169 666.474,-167.554 668.913,-165.752 671.175,-163.866"/>
<polygon fill="black" stroke="black" points="673.844,-166.161 678.728,-156.759 669.047,-161.063 673.844,-166.161"/>
</g>
<!-- prediction_model_output_port -->
<g id="node25" class="node"><title>prediction_model_output_port</title>
<ellipse fill="#ffffff" stroke="black" cx="504" cy="-7" rx="7" ry="7"/>
</g>
<!-- prediction_model&#45;&gt;prediction_model_output_port -->
<g id="edge27" class="edge"><title>prediction_model&#45;&gt;prediction_model_output_port</title>
<path fill="none" stroke="black" d="M504,-50.3028C504,-41.6846 504,-32.0022 504,-24.0776"/>
<polygon fill="black" stroke="black" points="507.5,-24.0535 504,-14.0535 500.5,-24.0535 507.5,-24.0535"/>
</g>
<!-- uncertainty_model_output_port -->
<g id="node26" class="node"><title>uncertainty_model_output_port</title>
<ellipse fill="#ffffff" stroke="black" cx="188" cy="-7" rx="7" ry="7"/>
</g>
<!-- uncertainty_model&#45;&gt;uncertainty_model_output_port -->
<g id="edge28" class="edge"><title>uncertainty_model&#45;&gt;uncertainty_model_output_port</title>
<path fill="none" stroke="black" d="M188,-50.3028C188,-41.6846 188,-32.0022 188,-24.0776"/>
<polygon fill="black" stroke="black" points="191.5,-24.0535 188,-14.0535 184.5,-24.0535 191.5,-24.0535"/>
</g>
<!-- coordinates -->
<g id="node9" class="node"><title>coordinates</title>
<path fill="#ffffcc" stroke="black" d="M440.5,-708.5C440.5,-708.5 373.5,-708.5 373.5,-708.5 367.5,-708.5 361.5,-702.5 361.5,-696.5 361.5,-696.5 361.5,-684.5 361.5,-684.5 361.5,-678.5 367.5,-672.5 373.5,-672.5 373.5,-672.5 440.5,-672.5 440.5,-672.5 446.5,-672.5 452.5,-678.5 452.5,-684.5 452.5,-684.5 452.5,-696.5 452.5,-696.5 452.5,-702.5 446.5,-708.5 440.5,-708.5"/>
<text text-anchor="middle" x="407" y="-686.8" font-family="Helvetica,sans-Serif" font-size="14.00">coordinates</text>
</g>
<!-- coordinates&#45;&gt;gen_prism_data -->
<g id="edge2" class="edge"><title>coordinates&#45;&gt;gen_prism_data</title>
<path fill="none" stroke="black" d="M429.692,-672.368C443.5,-661.942 461.317,-648.491 476.366,-637.129"/>
<polygon fill="black" stroke="black" points="478.526,-639.883 484.398,-631.064 474.308,-634.297 478.526,-639.883"/>
</g>
<!-- netcdf_file -->
<g id="node10" class="node"><title>netcdf_file</title>
<path fill="#ffffcc" stroke="black" d="M482.5,-667.5C482.5,-667.5 613.5,-667.5 613.5,-667.5 619.5,-667.5 625.5,-673.5 625.5,-679.5 625.5,-679.5 625.5,-701.5 625.5,-701.5 625.5,-707.5 619.5,-713.5 613.5,-713.5 613.5,-713.5 482.5,-713.5 482.5,-713.5 476.5,-713.5 470.5,-707.5 470.5,-701.5 470.5,-701.5 470.5,-679.5 470.5,-679.5 470.5,-673.5 476.5,-667.5 482.5,-667.5"/>
<text text-anchor="middle" x="548" y="-698.3" font-family="Helvetica,sans-Serif" font-size="14.00">netcdf_file</text>
<polyline fill="none" stroke="black" points="470.5,-690.5 625.5,-690.5 "/>
<text text-anchor="middle" x="548" y="-675.3" font-family="Helvetica,sans-Serif" font-size="14.00">file:/data/{data_file}.nc</text>
</g>
<!-- netcdf_file&#45;&gt;gen_prism_data -->
<g id="edge3" class="edge"><title>netcdf_file&#45;&gt;gen_prism_data</title>
<path fill="none" stroke="black" d="M535.92,-667.256C531.341,-658.823 526.083,-649.14 521.317,-640.364"/>
<polygon fill="black" stroke="black" points="524.241,-638.415 516.393,-631.298 518.09,-641.756 524.241,-638.415"/>
</g>
<!-- prism_data&#45;&gt;paleocar_model -->
<g id="edge11" class="edge"><title>prism_data&#45;&gt;paleocar_model</title>
<path fill="none" stroke="black" d="M500.419,-512.454C488.374,-475.746 459.375,-401.991 410,-360 397.545,-349.408 364.232,-337.041 332.463,-326.919"/>
<polygon fill="black" stroke="black" points="333.267,-323.503 322.678,-323.854 331.174,-330.183 333.267,-323.503"/>
</g>
<!-- prism_data&#45;&gt;get_itrdb_data -->
<g id="edge8" class="edge"><title>prism_data&#45;&gt;get_itrdb_data</title>
<path fill="none" stroke="black" d="M463.267,-512.355C443.832,-502.514 420.835,-490.869 400.657,-480.651"/>
<polygon fill="black" stroke="black" points="402.11,-477.464 391.608,-476.069 398.948,-483.709 402.11,-477.464"/>
</g>
<!-- itrdb&#45;&gt;paleocar_model -->
<g id="edge10" class="edge"><title>itrdb&#45;&gt;paleocar_model</title>
<path fill="none" stroke="black" d="M346.846,-359.876C332.467,-350.808 314.619,-339.552 299.09,-329.759"/>
<polygon fill="black" stroke="black" points="300.584,-326.564 290.258,-324.19 296.85,-332.484 300.584,-326.564"/>
</g>
<!-- calibration.year -->
<g id="node13" class="node"><title>calibration.year</title>
<path fill="#ffffcc" stroke="black" d="M316.5,-396C316.5,-396 229.5,-396 229.5,-396 223.5,-396 217.5,-390 217.5,-384 217.5,-384 217.5,-372 217.5,-372 217.5,-366 223.5,-360 229.5,-360 229.5,-360 316.5,-360 316.5,-360 322.5,-360 328.5,-366 328.5,-372 328.5,-372 328.5,-384 328.5,-384 328.5,-390 322.5,-396 316.5,-396"/>
<text text-anchor="middle" x="273" y="-374.3" font-family="Helvetica,sans-Serif" font-size="14.00">calibration.year</text>
</g>
<!-- calibration.year&#45;&gt;paleocar_model -->
<g id="edge12" class="edge"><title>calibration.year&#45;&gt;paleocar_model</title>
<path fill="none" stroke="black" d="M270.528,-359.697C269.426,-351.983 268.102,-342.712 266.873,-334.112"/>
<polygon fill="black" stroke="black" points="270.323,-333.509 265.443,-324.104 263.393,-334.499 270.323,-333.509"/>
</g>
<!-- prediction.year -->
<g id="node14" class="node"><title>prediction.year</title>
<path fill="#ffffcc" stroke="black" d="M632,-396C632,-396 546,-396 546,-396 540,-396 534,-390 534,-384 534,-384 534,-372 534,-372 534,-366 540,-360 546,-360 546,-360 632,-360 632,-360 638,-360 644,-366 644,-372 644,-372 644,-384 644,-384 644,-390 638,-396 632,-396"/>
<text text-anchor="middle" x="589" y="-374.3" font-family="Helvetica,sans-Serif" font-size="14.00">prediction.year</text>
</g>
<!-- prediction.year&#45;&gt;paleocar_model -->
<g id="edge13" class="edge"><title>prediction.year&#45;&gt;paleocar_model</title>
<path fill="none" stroke="black" d="M533.879,-365.713C482.783,-355.178 404.678,-338.889 337,-324 335.552,-323.681 334.088,-323.358 332.612,-323.031"/>
<polygon fill="black" stroke="black" points="333.276,-319.593 322.753,-320.827 331.749,-326.424 333.276,-319.593"/>
</g>
<!-- prediction.year&#45;&gt;paleocar_predict_model -->
<g id="edge18" class="edge"><title>prediction.year&#45;&gt;paleocar_predict_model</title>
<path fill="none" stroke="black" d="M603.09,-359.771C627.936,-327.166 673.934,-255.215 641,-205 631.98,-191.248 618.537,-181.045 603.829,-173.482"/>
<polygon fill="black" stroke="black" points="605.075,-170.199 594.537,-169.105 602.093,-176.532 605.075,-170.199"/>
</g>
<!-- prediction.year&#45;&gt;uncertainty_paleocar_model -->
<g id="edge21" class="edge"><title>prediction.year&#45;&gt;uncertainty_paleocar_model</title>
<path fill="none" stroke="black" d="M533.939,-363.521C477.558,-346.838 391.514,-312.881 343,-252 326.495,-231.287 320.718,-201.102 318.781,-179.319"/>
<polygon fill="black" stroke="black" points="322.256,-178.827 318.095,-169.084 315.272,-179.295 322.256,-178.827"/>
</g>
<!-- calibration.years -->
<g id="node15" class="node"><title>calibration.years</title>
<path fill="#fcfcfc" stroke="black" d="M397.5,-553.5C397.5,-553.5 302.5,-553.5 302.5,-553.5 296.5,-553.5 290.5,-547.5 290.5,-541.5 290.5,-541.5 290.5,-529.5 290.5,-529.5 290.5,-523.5 296.5,-517.5 302.5,-517.5 302.5,-517.5 397.5,-517.5 397.5,-517.5 403.5,-517.5 409.5,-523.5 409.5,-529.5 409.5,-529.5 409.5,-541.5 409.5,-541.5 409.5,-547.5 403.5,-553.5 397.5,-553.5"/>
<text text-anchor="middle" x="350" y="-531.8" font-family="Helvetica,sans-Serif" font-size="14.00">calibration.years</text>
</g>
<!-- calibration.years&#45;&gt;get_itrdb_data -->
<g id="edge5" class="edge"><title>calibration.years&#45;&gt;get_itrdb_data</title>
<path fill="none" stroke="black" d="M350,-517.25C350,-508.208 350,-496.849 350,-486.319"/>
<polygon fill="black" stroke="black" points="353.5,-486.181 350,-476.181 346.5,-486.181 353.5,-486.181"/>
</g>
<!-- prediction.years -->
<g id="node16" class="node"><title>prediction.years</title>
<path fill="#fcfcfc" stroke="black" d="M260.5,-553.5C260.5,-553.5 167.5,-553.5 167.5,-553.5 161.5,-553.5 155.5,-547.5 155.5,-541.5 155.5,-541.5 155.5,-529.5 155.5,-529.5 155.5,-523.5 161.5,-517.5 167.5,-517.5 167.5,-517.5 260.5,-517.5 260.5,-517.5 266.5,-517.5 272.5,-523.5 272.5,-529.5 272.5,-529.5 272.5,-541.5 272.5,-541.5 272.5,-547.5 266.5,-553.5 260.5,-553.5"/>
<text text-anchor="middle" x="214" y="-531.8" font-family="Helvetica,sans-Serif" font-size="14.00">prediction.years</text>
</g>
<!-- prediction.years&#45;&gt;get_itrdb_data -->
<g id="edge6" class="edge"><title>prediction.years&#45;&gt;get_itrdb_data</title>
<path fill="none" stroke="black" d="M243.175,-517.445C261.124,-506.953 284.501,-493.288 304.808,-481.418"/>
<polygon fill="black" stroke="black" points="306.727,-484.35 313.594,-476.282 303.194,-478.307 306.727,-484.35"/>
</g>
<!-- tree.buffer -->
<g id="node17" class="node"><title>tree.buffer</title>
<path fill="#fcfcfc" stroke="black" d="M125.5,-553.5C125.5,-553.5 66.5,-553.5 66.5,-553.5 60.5,-553.5 54.5,-547.5 54.5,-541.5 54.5,-541.5 54.5,-529.5 54.5,-529.5 54.5,-523.5 60.5,-517.5 66.5,-517.5 66.5,-517.5 125.5,-517.5 125.5,-517.5 131.5,-517.5 137.5,-523.5 137.5,-529.5 137.5,-529.5 137.5,-541.5 137.5,-541.5 137.5,-547.5 131.5,-553.5 125.5,-553.5"/>
<text text-anchor="middle" x="96" y="-531.8" font-family="Helvetica,sans-Serif" font-size="14.00">tree.buffer</text>
</g>
<!-- tree.buffer&#45;&gt;get_itrdb_data -->
<g id="edge7" class="edge"><title>tree.buffer&#45;&gt;get_itrdb_data</title>
<path fill="none" stroke="black" d="M132.331,-517.39C136.891,-515.468 141.525,-513.622 146,-512 190.462,-495.888 241.733,-481.58 281.753,-471.328"/>
<polygon fill="black" stroke="black" points="282.842,-474.663 291.674,-468.811 281.12,-467.878 282.842,-474.663"/>
</g>
<!-- min.width -->
<g id="node18" class="node"><title>min.width</title>
<path fill="#fcfcfc" stroke="black" d="M187.5,-396C187.5,-396 136.5,-396 136.5,-396 130.5,-396 124.5,-390 124.5,-384 124.5,-384 124.5,-372 124.5,-372 124.5,-366 130.5,-360 136.5,-360 136.5,-360 187.5,-360 187.5,-360 193.5,-360 199.5,-366 199.5,-372 199.5,-372 199.5,-384 199.5,-384 199.5,-390 193.5,-396 187.5,-396"/>
<text text-anchor="middle" x="162" y="-374.3" font-family="Helvetica,sans-Serif" font-size="14.00">min.width</text>
</g>
<!-- min.width&#45;&gt;paleocar_model -->
<g id="edge14" class="edge"><title>min.width&#45;&gt;paleocar_model</title>
<path fill="none" stroke="black" d="M186.707,-359.876C199.669,-350.893 215.728,-339.763 229.765,-330.034"/>
<polygon fill="black" stroke="black" points="231.972,-332.763 238.198,-324.19 227.985,-327.009 231.972,-332.763"/>
</g>
<!-- verbose -->
<g id="node19" class="node"><title>verbose</title>
<path fill="#fcfcfc" stroke="black" d="M94,-396C94,-396 50,-396 50,-396 44,-396 38,-390 38,-384 38,-384 38,-372 38,-372 38,-366 44,-360 50,-360 50,-360 94,-360 94,-360 100,-360 106,-366 106,-372 106,-372 106,-384 106,-384 106,-390 100,-396 94,-396"/>
<text text-anchor="middle" x="72" y="-374.3" font-family="Helvetica,sans-Serif" font-size="14.00">verbose</text>
</g>
<!-- verbose&#45;&gt;paleocar_model -->
<g id="edge15" class="edge"><title>verbose&#45;&gt;paleocar_model</title>
<path fill="none" stroke="black" d="M106.229,-363.351C109.191,-362.206 112.145,-361.075 115,-360 144.344,-348.949 177.159,-337.142 204.418,-327.484"/>
<polygon fill="black" stroke="black" points="205.932,-330.661 214.193,-324.028 203.599,-324.061 205.932,-330.661"/>
</g>
<!-- coordinates_input_port -->
<g id="node20" class="node"><title>coordinates_input_port</title>
<ellipse fill="#ffffff" stroke="black" cx="407" cy="-757" rx="7" ry="7"/>
</g>
<!-- coordinates_input_port&#45;&gt;coordinates -->
<g id="edge22" class="edge"><title>coordinates_input_port&#45;&gt;coordinates</title>
<path fill="none" stroke="black" d="M407,-749.58C407,-742.358 407,-730.151 407,-718.786"/>
<polygon fill="black" stroke="black" points="410.5,-718.753 407,-708.753 403.5,-718.753 410.5,-718.753"/>
</g>
<!-- netcdf_file_input_port -->
<g id="node21" class="node"><title>netcdf_file_input_port</title>
<ellipse fill="#ffffff" stroke="black" cx="548" cy="-757" rx="7" ry="7"/>
</g>
<!-- netcdf_file_input_port&#45;&gt;netcdf_file -->
<g id="edge23" class="edge"><title>netcdf_file_input_port&#45;&gt;netcdf_file</title>
<path fill="none" stroke="black" d="M548,-749.58C548,-743.384 548,-733.516 548,-723.66"/>
<polygon fill="black" stroke="black" points="551.5,-723.548 548,-713.548 544.5,-723.548 551.5,-723.548"/>
</g>
<!-- calibration.year_input_port -->
<g id="node22" class="node"><title>calibration.year_input_port</title>
<ellipse fill="#ffffff" stroke="black" cx="7" cy="-454" rx="7" ry="7"/>
</g>
<!-- calibration.year_input_port&#45;&gt;calibration.year -->
<g id="edge24" class="edge"><title>calibration.year_input_port&#45;&gt;calibration.year</title>
<path fill="none" stroke="black" d="M10.3775,-447.621C13.7306,-442.751 19.3262,-435.78 26,-432 95.0154,-392.912 125.295,-412.775 207.385,-395.958"/>
<polygon fill="black" stroke="black" points="208.358,-399.328 217.385,-393.782 206.87,-392.488 208.358,-399.328"/>
</g>
<!-- prediction.year_input_port -->
<g id="node23" class="node"><title>prediction.year_input_port</title>
<ellipse fill="#ffffff" stroke="black" cx="683" cy="-454" rx="7" ry="7"/>
</g>
<!-- prediction.year_input_port&#45;&gt;prediction.year -->
<g id="edge25" class="edge"><title>prediction.year_input_port&#45;&gt;prediction.year</title>
<path fill="none" stroke="black" d="M678.909,-447.873C675.242,-443.431 669.592,-436.957 664,-432 651.882,-421.259 637.575,-410.698 624.723,-401.866"/>
<polygon fill="black" stroke="black" points="626.349,-398.74 616.102,-396.046 622.432,-404.542 626.349,-398.74"/>
</g>
</g>
</svg>
