<?xml version="1.0" encoding="UTF-8" standalone="no"?>
<!DOCTYPE svg PUBLIC "-//W3C//DTD SVG 1.1//EN"
 "http://www.w3.org/Graphics/SVG/1.1/DTD/svg11.dtd">
<!-- Generated by graphviz version 2.38.0 (20140413.2041)
 -->
<!-- Title: Workflow Pages: 1 -->
<svg width="1082pt" height="842pt"
 viewBox="0.00 0.00 1082.00 842.00" xmlns="http://www.w3.org/2000/svg" xmlns:xlink="http://www.w3.org/1999/xlink">
<g id="graph0" class="graph" transform="scale(1 1) rotate(0) translate(4 838)">
<title>Workflow</title>
<polygon fill="white" stroke="none" points="-4,4 -4,-838 1078,-838 1078,4 -4,4"/>
<g id="clust1" class="cluster"><title>cluster_workflow_box_outer</title>
<polygon fill="none" stroke="black" stroke-width="2" points="8,-62 8,-772 1066,-772 1066,-62 8,-62"/>
</g>
<g id="clust2" class="cluster"><title>cluster_workflow_box_inner</title>
<polygon fill="none" stroke="black" stroke-width="0" points="16,-70 16,-764 1058,-764 1058,-70 16,-70"/>
</g>
<g id="clust5" class="cluster"><title>cluster_output_ports_group_outer</title>
<polygon fill="none" stroke="black" stroke-width="0" points="536,-8 536,-54 582,-54 582,-8 536,-8"/>
</g>
<g id="clust6" class="cluster"><title>cluster_output_ports_group_inner</title>
<polygon fill="none" stroke="black" stroke-width="0" points="544,-16 544,-46 574,-46 574,-16 544,-16"/>
</g>
<g id="clust3" class="cluster"><title>cluster_input_ports_group_outer</title>
<polygon fill="none" stroke="black" stroke-width="0" points="352,-780 352,-826 526,-826 526,-780 352,-780"/>
</g>
<g id="clust4" class="cluster"><title>cluster_input_ports_group_inner</title>
<polygon fill="none" stroke="black" stroke-width="0" points="360,-788 360,-818 518,-818 518,-788 360,-788"/>
</g>
<!-- get_predictor_matrix -->
<g id="node1" class="node"><title>get_predictor_matrix</title>
<polygon fill="#ccffcc" stroke="black" points="394,-626.5 394,-672.5 714,-672.5 714,-626.5 394,-626.5"/>
<text text-anchor="middle" x="554" y="-657.3" font-family="Helvetica,sans-Serif" font-size="14.00">get_predictor_matrix</text>
<polyline fill="none" stroke="black" points="394,-649.5 714,-649.5 "/>
<text text-anchor="middle" x="554" y="-634.3" font-family="Helvetica,sans-Serif" font-size="14.00">Get chronologies matrix for the calibration years.</text>
</g>
<!-- predictor.matrix -->
<g id="node11" class="node"><title>predictor.matrix</title>
<path fill="#ffffcc" stroke="black" d="M604,-590C604,-590 514,-590 514,-590 508,-590 502,-584 502,-578 502,-578 502,-566 502,-566 502,-560 508,-554 514,-554 514,-554 604,-554 604,-554 610,-554 616,-560 616,-566 616,-566 616,-578 616,-578 616,-584 610,-590 604,-590"/>
<text text-anchor="middle" x="559" y="-568.3" font-family="Helvetica,sans-Serif" font-size="14.00">predictor.matrix</text>
</g>
<!-- get_predictor_matrix&#45;&gt;predictor.matrix -->
<g id="edge1" class="edge"><title>get_predictor_matrix&#45;&gt;predictor.matrix</title>
<path fill="none" stroke="black" d="M555.473,-626.256C556.008,-618.182 556.618,-608.962 557.18,-600.489"/>
<polygon fill="black" stroke="black" points="560.686,-600.507 557.854,-590.298 553.701,-600.044 560.686,-600.507"/>
</g>
<!-- get_max_preds -->
<g id="node2" class="node"><title>get_max_preds</title>
<polygon fill="#ccffcc" stroke="black" points="425.5,-471.5 425.5,-517.5 692.5,-517.5 692.5,-471.5 425.5,-471.5"/>
<text text-anchor="middle" x="559" y="-502.3" font-family="Helvetica,sans-Serif" font-size="14.00">get_max_preds</text>
<polyline fill="none" stroke="black" points="425.5,-494.5 692.5,-494.5 "/>
<text text-anchor="middle" x="559" y="-479.3" font-family="Helvetica,sans-Serif" font-size="14.00">Get the maximum number of predictors.</text>
</g>
<!-- max.preds -->
<g id="node18" class="node"><title>max.preds</title>
<path fill="#ffffcc" stroke="black" d="M588.5,-435C588.5,-435 529.5,-435 529.5,-435 523.5,-435 517.5,-429 517.5,-423 517.5,-423 517.5,-411 517.5,-411 517.5,-405 523.5,-399 529.5,-399 529.5,-399 588.5,-399 588.5,-399 594.5,-399 600.5,-405 600.5,-411 600.5,-411 600.5,-423 600.5,-423 600.5,-429 594.5,-435 588.5,-435"/>
<text text-anchor="middle" x="559" y="-413.3" font-family="Helvetica,sans-Serif" font-size="14.00">max.preds</text>
</g>
<!-- get_max_preds&#45;&gt;max.preds -->
<g id="edge5" class="edge"><title>get_max_preds&#45;&gt;max.preds</title>
<path fill="none" stroke="black" d="M559,-471.256C559,-463.182 559,-453.962 559,-445.489"/>
<polygon fill="black" stroke="black" points="562.5,-445.298 559,-435.298 555.5,-445.298 562.5,-445.298"/>
</g>
<!-- get_reconstruction_matrix -->
<g id="node3" class="node"><title>get_reconstruction_matrix</title>
<polygon fill="#ccffcc" stroke="black" points="56.5,-626.5 56.5,-672.5 375.5,-672.5 375.5,-626.5 56.5,-626.5"/>
<text text-anchor="middle" x="216" y="-657.3" font-family="Helvetica,sans-Serif" font-size="14.00">get_reconstruction_matrix</text>
<polyline fill="none" stroke="black" points="56.5,-649.5 375.5,-649.5 "/>
<text text-anchor="middle" x="216" y="-634.3" font-family="Helvetica,sans-Serif" font-size="14.00">Get chronologies matrix for the prediction years.</text>
</g>
<!-- reconstruction.matrix -->
<g id="node14" class="node"><title>reconstruction.matrix</title>
<path fill="#ffffcc" stroke="black" d="M277.5,-590C277.5,-590 154.5,-590 154.5,-590 148.5,-590 142.5,-584 142.5,-578 142.5,-578 142.5,-566 142.5,-566 142.5,-560 148.5,-554 154.5,-554 154.5,-554 277.5,-554 277.5,-554 283.5,-554 289.5,-560 289.5,-566 289.5,-566 289.5,-578 289.5,-578 289.5,-584 283.5,-590 277.5,-590"/>
<text text-anchor="middle" x="216" y="-568.3" font-family="Helvetica,sans-Serif" font-size="14.00">reconstruction.matrix</text>
</g>
<!-- get_reconstruction_matrix&#45;&gt;reconstruction.matrix -->
<g id="edge7" class="edge"><title>get_reconstruction_matrix&#45;&gt;reconstruction.matrix</title>
<path fill="none" stroke="black" d="M216,-626.256C216,-618.182 216,-608.962 216,-600.489"/>
<polygon fill="black" stroke="black" points="219.5,-600.298 216,-590.298 212.5,-600.298 219.5,-600.298"/>
</g>
<!-- gen_predictand_matrix -->
<g id="node4" class="node"><title>gen_predictand_matrix</title>
<polygon fill="#ccffcc" stroke="black" points="732,-626.5 732,-672.5 1046,-672.5 1046,-626.5 732,-626.5"/>
<text text-anchor="middle" x="889" y="-657.3" font-family="Helvetica,sans-Serif" font-size="14.00">gen_predictand_matrix</text>
<polyline fill="none" stroke="black" points="732,-649.5 1046,-649.5 "/>
<text text-anchor="middle" x="889" y="-634.3" font-family="Helvetica,sans-Serif" font-size="14.00">Generate a matrix from the input prism data file.</text>
</g>
<!-- predictand.matrix -->
<g id="node15" class="node"><title>predictand.matrix</title>
<path fill="#ffffcc" stroke="black" d="M934.5,-590C934.5,-590 833.5,-590 833.5,-590 827.5,-590 821.5,-584 821.5,-578 821.5,-578 821.5,-566 821.5,-566 821.5,-560 827.5,-554 833.5,-554 833.5,-554 934.5,-554 934.5,-554 940.5,-554 946.5,-560 946.5,-566 946.5,-566 946.5,-578 946.5,-578 946.5,-584 940.5,-590 934.5,-590"/>
<text text-anchor="middle" x="884" y="-568.3" font-family="Helvetica,sans-Serif" font-size="14.00">predictand.matrix</text>
</g>
<!-- gen_predictand_matrix&#45;&gt;predictand.matrix -->
<g id="edge11" class="edge"><title>gen_predictand_matrix&#45;&gt;predictand.matrix</title>
<path fill="none" stroke="black" d="M887.527,-626.256C886.992,-618.182 886.382,-608.962 885.82,-600.489"/>
<polygon fill="black" stroke="black" points="889.299,-600.044 885.146,-590.298 882.314,-600.507 889.299,-600.044"/>
</g>
<!-- get_predlist -->
<g id="node5" class="node"><title>get_predlist</title>
<polygon fill="#ccffcc" stroke="black" points="24.5,-471.5 24.5,-517.5 407.5,-517.5 407.5,-471.5 24.5,-471.5"/>
<text text-anchor="middle" x="216" y="-502.3" font-family="Helvetica,sans-Serif" font-size="14.00">get_predlist</text>
<polyline fill="none" stroke="black" points="24.5,-494.5 407.5,-494.5 "/>
<text text-anchor="middle" x="216" y="-479.3" font-family="Helvetica,sans-Serif" font-size="14.00">Get list of stepwise predictors from a reconstruction matrix</text>
</g>
<!-- predlist -->
<g id="node16" class="node"><title>predlist</title>
<path fill="#ffffcc" stroke="black" d="M361.5,-435C361.5,-435 322.5,-435 322.5,-435 316.5,-435 310.5,-429 310.5,-423 310.5,-423 310.5,-411 310.5,-411 310.5,-405 316.5,-399 322.5,-399 322.5,-399 361.5,-399 361.5,-399 367.5,-399 373.5,-405 373.5,-411 373.5,-411 373.5,-423 373.5,-423 373.5,-429 367.5,-435 361.5,-435"/>
<text text-anchor="middle" x="342" y="-413.3" font-family="Helvetica,sans-Serif" font-size="14.00">predlist</text>
</g>
<!-- get_predlist&#45;&gt;predlist -->
<g id="edge13" class="edge"><title>get_predlist&#45;&gt;predlist</title>
<path fill="none" stroke="black" d="M252.783,-471.459C269.086,-461.691 288.239,-450.214 304.611,-440.403"/>
<polygon fill="black" stroke="black" points="306.606,-443.288 313.385,-435.146 303.008,-437.284 306.606,-443.288"/>
</g>
<!-- getCarscores -->
<g id="node6" class="node"><title>getCarscores</title>
<polygon fill="#ccffcc" stroke="black" points="710.5,-471.5 710.5,-517.5 1049.5,-517.5 1049.5,-471.5 710.5,-471.5"/>
<text text-anchor="middle" x="880" y="-502.3" font-family="Helvetica,sans-Serif" font-size="14.00">getCarscores</text>
<polyline fill="none" stroke="black" points="710.5,-494.5 1049.5,-494.5 "/>
<text text-anchor="middle" x="880" y="-479.3" font-family="Helvetica,sans-Serif" font-size="14.00">Compute CAR scores over a matrix of predictands.</text>
</g>
<!-- carscores -->
<g id="node17" class="node"><title>carscores</title>
<path fill="#ffffcc" stroke="black" d="M797,-435C797,-435 741,-435 741,-435 735,-435 729,-429 729,-423 729,-423 729,-411 729,-411 729,-405 735,-399 741,-399 741,-399 797,-399 797,-399 803,-399 809,-405 809,-411 809,-411 809,-423 809,-423 809,-429 803,-435 797,-435"/>
<text text-anchor="middle" x="769" y="-413.3" font-family="Helvetica,sans-Serif" font-size="14.00">carscores</text>
</g>
<!-- getCarscores&#45;&gt;carscores -->
<g id="edge15" class="edge"><title>getCarscores&#45;&gt;carscores</title>
<path fill="none" stroke="black" d="M847.596,-471.459C833.5,-461.872 816.985,-450.638 802.741,-440.95"/>
<polygon fill="black" stroke="black" points="804.445,-437.876 794.208,-435.146 800.508,-443.664 804.445,-437.876"/>
</g>
<!-- calculateModels -->
<g id="node7" class="node"><title>calculateModels</title>
<polygon fill="#ccffcc" stroke="black" points="381,-316.5 381,-362.5 737,-362.5 737,-316.5 381,-316.5"/>
<text text-anchor="middle" x="559" y="-347.3" font-family="Helvetica,sans-Serif" font-size="14.00">calculateModels</text>
<polyline fill="none" stroke="black" points="381,-339.5 737,-339.5 "/>
<text text-anchor="middle" x="559" y="-324.3" font-family="Helvetica,sans-Serif" font-size="14.00">Prepare data for modelling and calculate CAR scores.</text>
</g>
<!-- linear.models -->
<g id="node19" class="node"><title>linear.models</title>
<path fill="#ffffcc" stroke="black" d="M597.5,-280C597.5,-280 520.5,-280 520.5,-280 514.5,-280 508.5,-274 508.5,-268 508.5,-268 508.5,-256 508.5,-256 508.5,-250 514.5,-244 520.5,-244 520.5,-244 597.5,-244 597.5,-244 603.5,-244 609.5,-250 609.5,-256 609.5,-256 609.5,-268 609.5,-268 609.5,-274 603.5,-280 597.5,-280"/>
<text text-anchor="middle" x="559" y="-258.3" font-family="Helvetica,sans-Serif" font-size="14.00">linear.models</text>
</g>
<!-- calculateModels&#45;&gt;linear.models -->
<g id="edge18" class="edge"><title>calculateModels&#45;&gt;linear.models</title>
<path fill="none" stroke="black" d="M559,-316.256C559,-308.182 559,-298.962 559,-290.489"/>
<polygon fill="black" stroke="black" points="562.5,-290.298 559,-280.298 555.5,-290.298 562.5,-290.298"/>
</g>
<!-- optimizeModels -->
<g id="node8" class="node"><title>optimizeModels</title>
<polygon fill="#ccffcc" stroke="black" points="409.5,-161.5 409.5,-207.5 708.5,-207.5 708.5,-161.5 409.5,-161.5"/>
<text text-anchor="middle" x="559" y="-192.3" font-family="Helvetica,sans-Serif" font-size="14.00">optimizeModels</text>
<polyline fill="none" stroke="black" points="409.5,-184.5 708.5,-184.5 "/>
<text text-anchor="middle" x="559" y="-169.3" font-family="Helvetica,sans-Serif" font-size="14.00">optimize models for speed and memory use.</text>
</g>
<!-- models -->
<g id="node9" class="node"><title>models</title>
<path fill="#ffffcc" stroke="black" d="M403.5,-78.5C403.5,-78.5 714.5,-78.5 714.5,-78.5 720.5,-78.5 726.5,-84.5 726.5,-90.5 726.5,-90.5 726.5,-112.5 726.5,-112.5 726.5,-118.5 720.5,-124.5 714.5,-124.5 714.5,-124.5 403.5,-124.5 403.5,-124.5 397.5,-124.5 391.5,-118.5 391.5,-112.5 391.5,-112.5 391.5,-90.5 391.5,-90.5 391.5,-84.5 397.5,-78.5 403.5,-78.5"/>
<text text-anchor="middle" x="559" y="-109.3" font-family="Helvetica,sans-Serif" font-size="14.00">models</text>
<polyline fill="none" stroke="black" points="391.5,-101.5 726.5,-101.5 "/>
<text text-anchor="middle" x="559" y="-86.3" font-family="Helvetica,sans-Serif" font-size="14.00">file:/.output/{session_id}/{run_id}/{label}.model.Rds</text>
</g>
<!-- optimizeModels&#45;&gt;models -->
<g id="edge22" class="edge"><title>optimizeModels&#45;&gt;models</title>
<path fill="none" stroke="black" d="M559,-161.366C559,-153.152 559,-143.658 559,-134.725"/>
<polygon fill="black" stroke="black" points="562.5,-134.607 559,-124.607 555.5,-134.607 562.5,-134.607"/>
</g>
<!-- models_output_port -->
<g id="node27" class="node"><title>models_output_port</title>
<ellipse fill="#ffffff" stroke="black" cx="559" cy="-31" rx="7" ry="7"/>
</g>
<!-- models&#45;&gt;models_output_port -->
<g id="edge29" class="edge"><title>models&#45;&gt;models_output_port</title>
<path fill="none" stroke="black" d="M559,-78.4491C559,-68.6592 559,-57.3397 559,-48.3261"/>
<polygon fill="black" stroke="black" points="562.5,-48.1278 559,-38.1279 555.5,-48.1279 562.5,-48.1278"/>
</g>
<!-- itrdb -->
<g id="node10" class="node"><title>itrdb</title>
<path fill="#ffffcc" stroke="black" d="M371,-750.5C371,-750.5 341,-750.5 341,-750.5 335,-750.5 329,-744.5 329,-738.5 329,-738.5 329,-726.5 329,-726.5 329,-720.5 335,-714.5 341,-714.5 341,-714.5 371,-714.5 371,-714.5 377,-714.5 383,-720.5 383,-726.5 383,-726.5 383,-738.5 383,-738.5 383,-744.5 377,-750.5 371,-750.5"/>
<text text-anchor="middle" x="356" y="-728.8" font-family="Helvetica,sans-Serif" font-size="14.00">itrdb</text>
</g>
<!-- itrdb&#45;&gt;get_predictor_matrix -->
<g id="edge2" class="edge"><title>itrdb&#45;&gt;get_predictor_matrix</title>
<path fill="none" stroke="black" d="M381.979,-714.37C385.293,-712.452 388.686,-710.611 392,-709 417.747,-696.481 446.895,-685.144 473.298,-675.855"/>
<polygon fill="black" stroke="black" points="474.59,-679.112 482.89,-672.527 472.296,-672.498 474.59,-679.112"/>
</g>
<!-- itrdb&#45;&gt;get_reconstruction_matrix -->
<g id="edge8" class="edge"><title>itrdb&#45;&gt;get_reconstruction_matrix</title>
<path fill="none" stroke="black" d="M328.674,-715.69C310,-704.886 284.775,-690.291 262.926,-677.65"/>
<polygon fill="black" stroke="black" points="264.522,-674.53 254.113,-672.551 261.016,-680.589 264.522,-674.53"/>
</g>
<!-- predictor.matrix&#45;&gt;get_max_preds -->
<g id="edge6" class="edge"><title>predictor.matrix&#45;&gt;get_max_preds</title>
<path fill="none" stroke="black" d="M559,-553.868C559,-546.175 559,-536.835 559,-527.902"/>
<polygon fill="black" stroke="black" points="562.5,-527.727 559,-517.727 555.5,-527.727 562.5,-527.727"/>
</g>
<!-- predictor.matrix&#45;&gt;getCarscores -->
<g id="edge17" class="edge"><title>predictor.matrix&#45;&gt;getCarscores</title>
<path fill="none" stroke="black" d="M616.018,-557.589C660.455,-547.138 723.34,-532.347 776.587,-519.823"/>
<polygon fill="black" stroke="black" points="777.477,-523.209 786.41,-517.513 775.875,-516.395 777.477,-523.209"/>
</g>
<!-- prediction.years -->
<g id="node12" class="node"><title>prediction.years</title>
<path fill="#ffffcc" stroke="black" d="M280.5,-750.5C280.5,-750.5 187.5,-750.5 187.5,-750.5 181.5,-750.5 175.5,-744.5 175.5,-738.5 175.5,-738.5 175.5,-726.5 175.5,-726.5 175.5,-720.5 181.5,-714.5 187.5,-714.5 187.5,-714.5 280.5,-714.5 280.5,-714.5 286.5,-714.5 292.5,-720.5 292.5,-726.5 292.5,-726.5 292.5,-738.5 292.5,-738.5 292.5,-744.5 286.5,-750.5 280.5,-750.5"/>
<text text-anchor="middle" x="234" y="-728.8" font-family="Helvetica,sans-Serif" font-size="14.00">prediction.years</text>
</g>
<!-- prediction.years&#45;&gt;get_reconstruction_matrix -->
<g id="edge9" class="edge"><title>prediction.years&#45;&gt;get_reconstruction_matrix</title>
<path fill="none" stroke="black" d="M230.183,-714.322C228.134,-705.102 225.541,-693.435 223.135,-682.606"/>
<polygon fill="black" stroke="black" points="226.494,-681.589 220.908,-672.587 219.661,-683.108 226.494,-681.589"/>
</g>
<!-- prism_data -->
<g id="node13" class="node"><title>prism_data</title>
<path fill="#ffffcc" stroke="black" d="M699.5,-709.5C699.5,-709.5 964.5,-709.5 964.5,-709.5 970.5,-709.5 976.5,-715.5 976.5,-721.5 976.5,-721.5 976.5,-743.5 976.5,-743.5 976.5,-749.5 970.5,-755.5 964.5,-755.5 964.5,-755.5 699.5,-755.5 699.5,-755.5 693.5,-755.5 687.5,-749.5 687.5,-743.5 687.5,-743.5 687.5,-721.5 687.5,-721.5 687.5,-715.5 693.5,-709.5 699.5,-709.5"/>
<text text-anchor="middle" x="832" y="-740.3" font-family="Helvetica,sans-Serif" font-size="14.00">prism_data</text>
<polyline fill="none" stroke="black" points="687.5,-732.5 976.5,-732.5 "/>
<text text-anchor="middle" x="832" y="-717.3" font-family="Helvetica,sans-Serif" font-size="14.00">/.output/{session_id}/{run_id}/{data_file}.csv</text>
</g>
<!-- prism_data&#45;&gt;gen_predictand_matrix -->
<g id="edge12" class="edge"><title>prism_data&#45;&gt;gen_predictand_matrix</title>
<path fill="none" stroke="black" d="M847.576,-709.366C853.733,-700.616 860.912,-690.414 867.548,-680.985"/>
<polygon fill="black" stroke="black" points="870.551,-682.799 873.443,-672.607 864.826,-678.771 870.551,-682.799"/>
</g>
<!-- reconstruction.matrix&#45;&gt;get_predlist -->
<g id="edge14" class="edge"><title>reconstruction.matrix&#45;&gt;get_predlist</title>
<path fill="none" stroke="black" d="M216,-553.868C216,-546.175 216,-536.835 216,-527.902"/>
<polygon fill="black" stroke="black" points="219.5,-527.727 216,-517.727 212.5,-527.727 219.5,-527.727"/>
</g>
<!-- predictand.matrix&#45;&gt;getCarscores -->
<g id="edge16" class="edge"><title>predictand.matrix&#45;&gt;getCarscores</title>
<path fill="none" stroke="black" d="M883.092,-553.868C882.685,-546.175 882.19,-536.835 881.717,-527.902"/>
<polygon fill="black" stroke="black" points="885.202,-527.527 881.178,-517.727 878.212,-527.898 885.202,-527.527"/>
</g>
<!-- predlist&#45;&gt;calculateModels -->
<g id="edge19" class="edge"><title>predlist&#45;&gt;calculateModels</title>
<path fill="none" stroke="black" d="M373.554,-405.022C402.92,-394.804 447.781,-379.196 486.024,-365.89"/>
<polygon fill="black" stroke="black" points="487.296,-369.153 495.591,-362.562 484.996,-362.542 487.296,-369.153"/>
</g>
<!-- carscores&#45;&gt;calculateModels -->
<g id="edge20" class="edge"><title>carscores&#45;&gt;calculateModels</title>
<path fill="none" stroke="black" d="M728.51,-401.443C700.631,-391.42 662.846,-377.835 630.024,-366.035"/>
<polygon fill="black" stroke="black" points="631.059,-362.688 620.464,-362.598 628.69,-369.275 631.059,-362.688"/>
</g>
<!-- max.preds&#45;&gt;calculateModels -->
<g id="edge21" class="edge"><title>max.preds&#45;&gt;calculateModels</title>
<path fill="none" stroke="black" d="M559,-398.868C559,-391.175 559,-381.835 559,-372.902"/>
<polygon fill="black" stroke="black" points="562.5,-372.727 559,-362.727 555.5,-372.727 562.5,-372.727"/>
</g>
<!-- linear.models&#45;&gt;optimizeModels -->
<g id="edge23" class="edge"><title>linear.models&#45;&gt;optimizeModels</title>
<path fill="none" stroke="black" d="M559,-243.868C559,-236.175 559,-226.835 559,-217.902"/>
<polygon fill="black" stroke="black" points="562.5,-217.727 559,-207.727 555.5,-217.727 562.5,-217.727"/>
</g>
<!-- calibration.years -->
<g id="node20" class="node"><title>calibration.years</title>
<path fill="#fcfcfc" stroke="black" d="M601.5,-750.5C601.5,-750.5 506.5,-750.5 506.5,-750.5 500.5,-750.5 494.5,-744.5 494.5,-738.5 494.5,-738.5 494.5,-726.5 494.5,-726.5 494.5,-720.5 500.5,-714.5 506.5,-714.5 506.5,-714.5 601.5,-714.5 601.5,-714.5 607.5,-714.5 613.5,-720.5 613.5,-726.5 613.5,-726.5 613.5,-738.5 613.5,-738.5 613.5,-744.5 607.5,-750.5 601.5,-750.5"/>
<text text-anchor="middle" x="554" y="-728.8" font-family="Helvetica,sans-Serif" font-size="14.00">calibration.years</text>
</g>
<!-- calibration.years&#45;&gt;get_predictor_matrix -->
<g id="edge3" class="edge"><title>calibration.years&#45;&gt;get_predictor_matrix</title>
<path fill="none" stroke="black" d="M554,-714.322C554,-705.102 554,-693.435 554,-682.606"/>
<polygon fill="black" stroke="black" points="557.5,-682.587 554,-672.587 550.5,-682.587 557.5,-682.587"/>
</g>
<!-- min.width -->
<g id="node21" class="node"><title>min.width</title>
<path fill="#fcfcfc" stroke="black" d="M464.5,-750.5C464.5,-750.5 413.5,-750.5 413.5,-750.5 407.5,-750.5 401.5,-744.5 401.5,-738.5 401.5,-738.5 401.5,-726.5 401.5,-726.5 401.5,-720.5 407.5,-714.5 413.5,-714.5 413.5,-714.5 464.5,-714.5 464.5,-714.5 470.5,-714.5 476.5,-720.5 476.5,-726.5 476.5,-726.5 476.5,-738.5 476.5,-738.5 476.5,-744.5 470.5,-750.5 464.5,-750.5"/>
<text text-anchor="middle" x="439" y="-728.8" font-family="Helvetica,sans-Serif" font-size="14.00">min.width</text>
</g>
<!-- min.width&#45;&gt;get_predictor_matrix -->
<g id="edge4" class="edge"><title>min.width&#45;&gt;get_predictor_matrix</title>
<path fill="none" stroke="black" d="M463.389,-714.322C478.099,-703.961 497.194,-690.511 514.061,-678.631"/>
<polygon fill="black" stroke="black" points="516.482,-681.207 522.642,-672.587 512.451,-675.484 516.482,-681.207"/>
</g>
<!-- min.width&#45;&gt;get_reconstruction_matrix -->
<g id="edge10" class="edge"><title>min.width&#45;&gt;get_reconstruction_matrix</title>
<path fill="none" stroke="black" d="M404.569,-714.412C400.369,-712.508 396.11,-710.659 392,-709 362.089,-696.925 328.638,-685.343 298.996,-675.716"/>
<polygon fill="black" stroke="black" points="299.692,-672.263 289.1,-672.528 297.546,-678.926 299.692,-672.263"/>
</g>
<!-- prism_data_input_port -->
<g id="node22" class="node"><title>prism_data_input_port</title>
<ellipse fill="#ffffff" stroke="black" cx="503" cy="-803" rx="7" ry="7"/>
</g>
<!-- prism_data_input_port&#45;&gt;prism_data -->
<g id="edge24" class="edge"><title>prism_data_input_port&#45;&gt;prism_data</title>
<path fill="none" stroke="black" d="M509.872,-800.569C536.473,-795.031 635.241,-774.466 716.476,-757.553"/>
<polygon fill="black" stroke="black" points="717.213,-760.975 726.29,-755.51 715.786,-754.121 717.213,-760.975"/>
</g>
<!-- calibration.years_input_port -->
<g id="node23" class="node"><title>calibration.years_input_port</title>
<ellipse fill="#ffffff" stroke="black" cx="471" cy="-803" rx="7" ry="7"/>
</g>
<!-- calibration.years_input_port&#45;&gt;calibration.years -->
<g id="edge25" class="edge"><title>calibration.years_input_port&#45;&gt;calibration.years</title>
<path fill="none" stroke="black" d="M474.236,-796.543C477.19,-791.834 481.868,-785.02 487,-780 495.857,-771.337 506.486,-763.163 516.642,-756.157"/>
<polygon fill="black" stroke="black" points="518.644,-759.029 525.012,-750.561 514.754,-753.209 518.644,-759.029"/>
</g>
<!-- prediction.years_input_port -->
<g id="node24" class="node"><title>prediction.years_input_port</title>
<ellipse fill="#ffffff" stroke="black" cx="375" cy="-803" rx="7" ry="7"/>
</g>
<!-- prediction.years_input_port&#45;&gt;prediction.years -->
<g id="edge26" class="edge"><title>prediction.years_input_port&#45;&gt;prediction.years</title>
<path fill="none" stroke="black" d="M368.941,-799.057C353.475,-791.543 311.419,-771.111 278.328,-755.035"/>
<polygon fill="black" stroke="black" points="279.786,-751.852 269.262,-750.631 276.727,-758.149 279.786,-751.852"/>
</g>
<!-- itrdb_input_port -->
<g id="node25" class="node"><title>itrdb_input_port</title>
<ellipse fill="#ffffff" stroke="black" cx="407" cy="-803" rx="7" ry="7"/>
</g>
<!-- itrdb_input_port&#45;&gt;itrdb -->
<g id="edge27" class="edge"><title>itrdb_input_port&#45;&gt;itrdb</title>
<path fill="none" stroke="black" d="M403.338,-796.915C400.11,-792.445 395.27,-785.771 391,-780 385.929,-773.147 380.399,-765.76 375.263,-758.935"/>
<polygon fill="black" stroke="black" points="377.848,-756.551 369.032,-750.674 372.26,-760.766 377.848,-756.551"/>
</g>
<!-- min.width_input_port -->
<g id="node26" class="node"><title>min.width_input_port</title>
<ellipse fill="#ffffff" stroke="black" cx="439" cy="-803" rx="7" ry="7"/>
</g>
<!-- min.width_input_port&#45;&gt;min.width -->
<g id="edge28" class="edge"><title>min.width_input_port&#45;&gt;min.width</title>
<path fill="none" stroke="black" d="M439,-795.678C439,-787.761 439,-773.681 439,-760.92"/>
<polygon fill="black" stroke="black" points="442.5,-760.675 439,-750.675 435.5,-760.675 442.5,-760.675"/>
</g>
</g>
</svg>
