<?xml version="1.0" encoding="UTF-8" standalone="no"?>
<!DOCTYPE svg PUBLIC "-//W3C//DTD SVG 1.1//EN"
 "http://www.w3.org/Graphics/SVG/1.1/DTD/svg11.dtd">
<!-- Generated by graphviz version 2.38.0 (20140413.2041)
 -->
<!-- Title: Workflow Pages: 1 -->
<svg width="1240pt" height="402pt"
 viewBox="0.00 0.00 1240.00 402.00" xmlns="http://www.w3.org/2000/svg" xmlns:xlink="http://www.w3.org/1999/xlink">
<g id="graph0" class="graph" transform="scale(1 1) rotate(0) translate(4 398)">
<title>Workflow</title>
<polygon fill="white" stroke="none" points="-4,4 -4,-398 1236,-398 1236,4 -4,4"/>
<text text-anchor="middle" x="616" y="-375.6" font-family="Helvetica,sans-Serif" font-size="18.00">exec_paleocar</text>
<g id="clust1" class="cluster"><title>cluster_workflow_box_outer</title>
<polygon fill="none" stroke="black" stroke-width="2" points="62,-8 62,-358 1170,-358 1170,-8 62,-8"/>
</g>
<g id="clust2" class="cluster"><title>cluster_workflow_box_inner</title>
<polygon fill="none" stroke="black" stroke-width="0" points="70,-16 70,-350 1162,-350 1162,-16 70,-16"/>
</g>
<g id="clust5" class="cluster"><title>cluster_output_ports_group_outer</title>
<polygon fill="none" stroke="black" stroke-width="0" points="1178,-28 1178,-106 1224,-106 1224,-28 1178,-28"/>
</g>
<g id="clust6" class="cluster"><title>cluster_output_ports_group_inner</title>
<polygon fill="none" stroke="black" stroke-width="0" points="1186,-36 1186,-98 1216,-98 1216,-36 1186,-36"/>
</g>
<g id="clust3" class="cluster"><title>cluster_input_ports_group_outer</title>
<polygon fill="none" stroke="black" stroke-width="0" points="8,-47 8,-221 54,-221 54,-47 8,-47"/>
</g>
<g id="clust4" class="cluster"><title>cluster_input_ports_group_inner</title>
<polygon fill="none" stroke="black" stroke-width="0" points="16,-55 16,-213 46,-213 46,-55 16,-55"/>
</g>
<!-- gen_prism_data -->
<g id="node1" class="node"><title>gen_prism_data</title>
<polygon fill="#ccffcc" stroke="black" points="334,-228 215,-228 215,-192 334,-192 334,-228"/>
<text text-anchor="middle" x="274.5" y="-206.3" font-family="Helvetica,sans-Serif" font-size="14.00">gen_prism_data</text>
</g>
<!-- prism_data -->
<g id="node10" class="node"><title>prism_data</title>
<path fill="#ffffcc" stroke="black" d="M384,-187C384,-187 467,-187 467,-187 473,-187 479,-193 479,-199 479,-199 479,-221 479,-221 479,-227 473,-233 467,-233 467,-233 384,-233 384,-233 378,-233 372,-227 372,-221 372,-221 372,-199 372,-199 372,-193 378,-187 384,-187"/>
<text text-anchor="middle" x="425.5" y="-217.8" font-family="Helvetica,sans-Serif" font-size="14.00">prism_data</text>
<polyline fill="none" stroke="black" points="372,-210 479,-210 "/>
<text text-anchor="middle" x="425.5" y="-194.8" font-family="Helvetica,sans-Serif" font-size="14.00">112W36N.csv</text>
</g>
<!-- gen_prism_data&#45;&gt;prism_data -->
<g id="edge1" class="edge"><title>gen_prism_data&#45;&gt;prism_data</title>
<path fill="none" stroke="black" d="M334.389,-210C343.372,-210 352.673,-210 361.735,-210"/>
<polygon fill="black" stroke="black" points="361.837,-213.5 371.837,-210 361.837,-206.5 361.837,-213.5"/>
</g>
<!-- paleocar_models -->
<g id="node2" class="node"><title>paleocar_models</title>
<polygon fill="#ccffcc" stroke="black" points="644,-168 517,-168 517,-132 644,-132 644,-168"/>
<text text-anchor="middle" x="580.5" y="-146.3" font-family="Helvetica,sans-Serif" font-size="14.00">paleocar_models</text>
</g>
<!-- paleocar_model.rds -->
<g id="node5" class="node"><title>paleocar_model.rds</title>
<path fill="#ffffcc" stroke="black" d="M811,-105C811,-105 692,-105 692,-105 686,-105 680,-99 680,-93 680,-93 680,-81 680,-81 680,-75 686,-69 692,-69 692,-69 811,-69 811,-69 817,-69 823,-75 823,-81 823,-81 823,-93 823,-93 823,-99 817,-105 811,-105"/>
<text text-anchor="middle" x="751.5" y="-83.3" font-family="Helvetica,sans-Serif" font-size="14.00">paleocar_model.rds</text>
</g>
<!-- paleocar_models&#45;&gt;paleocar_model.rds -->
<g id="edge4" class="edge"><title>paleocar_models&#45;&gt;paleocar_model.rds</title>
<path fill="none" stroke="black" d="M629.929,-131.947C649.464,-124.664 672.165,-116.202 692.566,-108.597"/>
<polygon fill="black" stroke="black" points="693.917,-111.829 702.064,-105.056 691.472,-105.269 693.917,-111.829"/>
</g>
<!-- paleocar_predict_model -->
<g id="node3" class="node"><title>paleocar_predict_model</title>
<polygon fill="#ccffcc" stroke="black" points="1042,-77 871,-77 871,-41 1042,-41 1042,-77"/>
<text text-anchor="middle" x="956.5" y="-55.3" font-family="Helvetica,sans-Serif" font-size="14.00">paleocar_predict_model</text>
</g>
<!-- image1 -->
<g id="node15" class="node"><title>image1</title>
<path fill="#fcfcfc" stroke="black" d="M1142,-77C1142,-77 1102,-77 1102,-77 1096,-77 1090,-71 1090,-65 1090,-65 1090,-53 1090,-53 1090,-47 1096,-41 1102,-41 1102,-41 1142,-41 1142,-41 1148,-41 1154,-47 1154,-53 1154,-53 1154,-65 1154,-65 1154,-71 1148,-77 1142,-77"/>
<text text-anchor="middle" x="1122" y="-55.3" font-family="Helvetica,sans-Serif" font-size="14.00">image1</text>
</g>
<!-- paleocar_predict_model&#45;&gt;image1 -->
<g id="edge11" class="edge"><title>paleocar_predict_model&#45;&gt;image1</title>
<path fill="none" stroke="black" d="M1042.12,-59C1055.13,-59 1068.04,-59 1079.53,-59"/>
<polygon fill="black" stroke="black" points="1079.65,-62.5001 1089.65,-59 1079.65,-55.5001 1079.65,-62.5001"/>
</g>
<!-- uncertainty_paleocar_model -->
<g id="node4" class="node"><title>uncertainty_paleocar_model</title>
<polygon fill="#ccffcc" stroke="black" points="1054,-131 859,-131 859,-95 1054,-95 1054,-131"/>
<text text-anchor="middle" x="956.5" y="-109.3" font-family="Helvetica,sans-Serif" font-size="14.00">uncertainty_paleocar_model</text>
</g>
<!-- image2 -->
<g id="node6" class="node"><title>image2</title>
<path fill="#ffffcc" stroke="black" d="M1142,-131C1142,-131 1102,-131 1102,-131 1096,-131 1090,-125 1090,-119 1090,-119 1090,-107 1090,-107 1090,-101 1096,-95 1102,-95 1102,-95 1142,-95 1142,-95 1148,-95 1154,-101 1154,-107 1154,-107 1154,-119 1154,-119 1154,-125 1148,-131 1142,-131"/>
<text text-anchor="middle" x="1122" y="-109.3" font-family="Helvetica,sans-Serif" font-size="14.00">image2</text>
</g>
<!-- uncertainty_paleocar_model&#45;&gt;image2 -->
<g id="edge14" class="edge"><title>uncertainty_paleocar_model&#45;&gt;image2</title>
<path fill="none" stroke="black" d="M1054.03,-113C1062.97,-113 1071.67,-113 1079.67,-113"/>
<polygon fill="black" stroke="black" points="1079.76,-116.5 1089.76,-113 1079.76,-109.5 1079.76,-116.5"/>
</g>
<!-- paleocar_model.rds&#45;&gt;paleocar_predict_model -->
<g id="edge12" class="edge"><title>paleocar_model.rds&#45;&gt;paleocar_predict_model</title>
<path fill="none" stroke="black" d="M823.215,-77.2463C835.313,-75.5775 848.056,-73.8198 860.662,-72.0811"/>
<polygon fill="black" stroke="black" points="861.299,-75.5264 870.727,-70.6928 860.343,-68.5921 861.299,-75.5264"/>
</g>
<!-- paleocar_model.rds&#45;&gt;uncertainty_paleocar_model -->
<g id="edge15" class="edge"><title>paleocar_model.rds&#45;&gt;uncertainty_paleocar_model</title>
<path fill="none" stroke="black" d="M823.215,-96.057C831.521,-97.1209 840.131,-98.2237 848.793,-99.333"/>
<polygon fill="black" stroke="black" points="848.604,-102.837 858.968,-100.636 849.494,-95.8942 848.604,-102.837"/>
</g>
<!-- paleocar_model.rds_output_port -->
<g id="node21" class="node"><title>paleocar_model.rds_output_port</title>
<ellipse fill="#ffffff" stroke="black" cx="1201" cy="-51" rx="7" ry="7"/>
</g>
<!-- paleocar_model.rds&#45;&gt;paleocar_model.rds_output_port -->
<g id="edge21" class="edge"><title>paleocar_model.rds&#45;&gt;paleocar_model.rds_output_port</title>
<path fill="none" stroke="black" d="M778.667,-68.9644C799.406,-55.8229 829.679,-39.1242 859,-32 993.314,0.634652 1037.25,6.50189 1170,-32 1176.06,-33.7581 1182.07,-37.1485 1187.1,-40.5846"/>
<polygon fill="black" stroke="black" points="1185.25,-43.5698 1195.33,-46.8309 1189.48,-37.9953 1185.25,-43.5698"/>
</g>
<!-- image2_output_port -->
<g id="node22" class="node"><title>image2_output_port</title>
<ellipse fill="#ffffff" stroke="black" cx="1201" cy="-83" rx="7" ry="7"/>
</g>
<!-- image2&#45;&gt;image2_output_port -->
<g id="edge22" class="edge"><title>image2&#45;&gt;image2_output_port</title>
<path fill="none" stroke="black" d="M1154.32,-100.798C1164.86,-96.6917 1176.14,-92.2955 1184.86,-88.8996"/>
<polygon fill="black" stroke="black" points="1186.23,-92.122 1194.28,-85.2304 1183.69,-85.5995 1186.23,-92.122"/>
</g>
<!-- coordinates -->
<g id="node7" class="node"><title>coordinates</title>
<path fill="#ffffcc" stroke="black" d="M162,-264C162,-264 95,-264 95,-264 89,-264 83,-258 83,-252 83,-252 83,-240 83,-240 83,-234 89,-228 95,-228 95,-228 162,-228 162,-228 168,-228 174,-234 174,-240 174,-240 174,-252 174,-252 174,-258 168,-264 162,-264"/>
<text text-anchor="middle" x="128.5" y="-242.3" font-family="Helvetica,sans-Serif" font-size="14.00">coordinates</text>
</g>
<!-- coordinates&#45;&gt;gen_prism_data -->
<g id="edge2" class="edge"><title>coordinates&#45;&gt;gen_prism_data</title>
<path fill="none" stroke="black" d="M174.273,-234.807C184.033,-232.367 194.577,-229.731 205.021,-227.12"/>
<polygon fill="black" stroke="black" points="206.123,-230.452 214.975,-224.631 204.425,-223.661 206.123,-230.452"/>
</g>
<!-- netcdf_file -->
<g id="node8" class="node"><title>netcdf_file</title>
<path fill="#ffffcc" stroke="black" d="M90,-163C90,-163 167,-163 167,-163 173,-163 179,-169 179,-175 179,-175 179,-197 179,-197 179,-203 173,-209 167,-209 167,-209 90,-209 90,-209 84,-209 78,-203 78,-197 78,-197 78,-175 78,-175 78,-169 84,-163 90,-163"/>
<text text-anchor="middle" x="128.5" y="-193.8" font-family="Helvetica,sans-Serif" font-size="14.00">netcdf_file</text>
<polyline fill="none" stroke="black" points="78,-186 179,-186 "/>
<text text-anchor="middle" x="128.5" y="-170.8" font-family="Helvetica,sans-Serif" font-size="14.00">112W36N.nc</text>
</g>
<!-- netcdf_file&#45;&gt;gen_prism_data -->
<g id="edge3" class="edge"><title>netcdf_file&#45;&gt;gen_prism_data</title>
<path fill="none" stroke="black" d="M179.057,-194.259C187.36,-195.643 196.106,-197.101 204.788,-198.548"/>
<polygon fill="black" stroke="black" points="204.481,-202.045 214.92,-200.237 205.631,-195.14 204.481,-202.045"/>
</g>
<!-- itrdb -->
<g id="node9" class="node"><title>itrdb</title>
<path fill="#ffffcc" stroke="black" d="M440.5,-168C440.5,-168 410.5,-168 410.5,-168 404.5,-168 398.5,-162 398.5,-156 398.5,-156 398.5,-144 398.5,-144 398.5,-138 404.5,-132 410.5,-132 410.5,-132 440.5,-132 440.5,-132 446.5,-132 452.5,-138 452.5,-144 452.5,-144 452.5,-156 452.5,-156 452.5,-162 446.5,-168 440.5,-168"/>
<text text-anchor="middle" x="425.5" y="-146.3" font-family="Helvetica,sans-Serif" font-size="14.00">itrdb</text>
</g>
<!-- itrdb&#45;&gt;paleocar_models -->
<g id="edge5" class="edge"><title>itrdb&#45;&gt;paleocar_models</title>
<path fill="none" stroke="black" d="M452.802,-150C467.79,-150 487.38,-150 506.66,-150"/>
<polygon fill="black" stroke="black" points="506.688,-153.5 516.688,-150 506.688,-146.5 506.688,-153.5"/>
</g>
<!-- prism_data&#45;&gt;paleocar_models -->
<g id="edge6" class="edge"><title>prism_data&#45;&gt;paleocar_models</title>
<path fill="none" stroke="black" d="M479.154,-189.351C493.619,-183.679 509.348,-177.51 523.97,-171.777"/>
<polygon fill="black" stroke="black" points="525.362,-174.99 533.394,-168.081 522.806,-168.473 525.362,-174.99"/>
</g>
<!-- calibration.year -->
<g id="node11" class="node"><title>calibration.year</title>
<path fill="#ffffcc" stroke="black" d="M469,-114C469,-114 382,-114 382,-114 376,-114 370,-108 370,-102 370,-102 370,-90 370,-90 370,-84 376,-78 382,-78 382,-78 469,-78 469,-78 475,-78 481,-84 481,-90 481,-90 481,-102 481,-102 481,-108 475,-114 469,-114"/>
<text text-anchor="middle" x="425.5" y="-92.3" font-family="Helvetica,sans-Serif" font-size="14.00">calibration.year</text>
</g>
<!-- calibration.year&#45;&gt;paleocar_models -->
<g id="edge7" class="edge"><title>calibration.year&#45;&gt;paleocar_models</title>
<path fill="none" stroke="black" d="M477.872,-114.131C490.936,-118.742 505.099,-123.741 518.587,-128.501"/>
<polygon fill="black" stroke="black" points="517.668,-131.889 528.263,-131.916 519.998,-125.288 517.668,-131.889"/>
</g>
<!-- prediction.year -->
<g id="node12" class="node"><title>prediction.year</title>
<path fill="#ffffcc" stroke="black" d="M468.5,-60C468.5,-60 382.5,-60 382.5,-60 376.5,-60 370.5,-54 370.5,-48 370.5,-48 370.5,-36 370.5,-36 370.5,-30 376.5,-24 382.5,-24 382.5,-24 468.5,-24 468.5,-24 474.5,-24 480.5,-30 480.5,-36 480.5,-36 480.5,-48 480.5,-48 480.5,-54 474.5,-60 468.5,-60"/>
<text text-anchor="middle" x="425.5" y="-38.3" font-family="Helvetica,sans-Serif" font-size="14.00">prediction.year</text>
</g>
<!-- prediction.year&#45;&gt;paleocar_models -->
<g id="edge8" class="edge"><title>prediction.year&#45;&gt;paleocar_models</title>
<path fill="none" stroke="black" d="M465.805,-60.1187C471.019,-62.9118 476.212,-65.9034 481,-69 506.817,-85.697 533.609,-108.114 552.721,-125.132"/>
<polygon fill="black" stroke="black" points="550.387,-127.74 560.161,-131.83 555.071,-122.538 550.387,-127.74"/>
</g>
<!-- prediction.year&#45;&gt;paleocar_predict_model -->
<g id="edge13" class="edge"><title>prediction.year&#45;&gt;paleocar_predict_model</title>
<path fill="none" stroke="black" d="M480.626,-43.7394C570.001,-46.6116 749.559,-52.3819 860.461,-55.9458"/>
<polygon fill="black" stroke="black" points="860.535,-59.4499 870.642,-56.273 860.76,-52.4535 860.535,-59.4499"/>
</g>
<!-- min.width -->
<g id="node13" class="node"><title>min.width</title>
<path fill="#fcfcfc" stroke="black" d="M451,-342C451,-342 400,-342 400,-342 394,-342 388,-336 388,-330 388,-330 388,-318 388,-318 388,-312 394,-306 400,-306 400,-306 451,-306 451,-306 457,-306 463,-312 463,-318 463,-318 463,-330 463,-330 463,-336 457,-342 451,-342"/>
<text text-anchor="middle" x="425.5" y="-320.3" font-family="Helvetica,sans-Serif" font-size="14.00">min.width</text>
</g>
<!-- min.width&#45;&gt;paleocar_models -->
<g id="edge9" class="edge"><title>min.width&#45;&gt;paleocar_models</title>
<path fill="none" stroke="black" d="M463.059,-309.21C469.415,-305.739 475.682,-301.666 481,-297 520.133,-262.663 550.62,-209.368 566.759,-177.262"/>
<polygon fill="black" stroke="black" points="570.031,-178.542 571.301,-168.023 563.749,-175.453 570.031,-178.542"/>
</g>
<!-- verbose -->
<g id="node14" class="node"><title>verbose</title>
<path fill="#fcfcfc" stroke="black" d="M447.5,-288C447.5,-288 403.5,-288 403.5,-288 397.5,-288 391.5,-282 391.5,-276 391.5,-276 391.5,-264 391.5,-264 391.5,-258 397.5,-252 403.5,-252 403.5,-252 447.5,-252 447.5,-252 453.5,-252 459.5,-258 459.5,-264 459.5,-264 459.5,-276 459.5,-276 459.5,-282 453.5,-288 447.5,-288"/>
<text text-anchor="middle" x="425.5" y="-266.3" font-family="Helvetica,sans-Serif" font-size="14.00">verbose</text>
</g>
<!-- verbose&#45;&gt;paleocar_models -->
<g id="edge10" class="edge"><title>verbose&#45;&gt;paleocar_models</title>
<path fill="none" stroke="black" d="M459.675,-255.528C466.936,-251.829 474.415,-247.586 481,-243 509.283,-223.303 537.463,-195.681 556.39,-175.662"/>
<polygon fill="black" stroke="black" points="559.155,-177.829 563.416,-168.128 554.036,-173.054 559.155,-177.829"/>
</g>
<!-- coordinates_input_port -->
<g id="node16" class="node"><title>coordinates_input_port</title>
<ellipse fill="#ffffff" stroke="black" cx="31" cy="-198" rx="7" ry="7"/>
</g>
<!-- coordinates_input_port&#45;&gt;coordinates -->
<g id="edge16" class="edge"><title>coordinates_input_port&#45;&gt;coordinates</title>
<path fill="none" stroke="black" d="M36.8765,-201.92C42.639,-206.43 52.6312,-213.871 62,-219 65.702,-221.027 69.5883,-222.995 73.543,-224.884"/>
<polygon fill="black" stroke="black" points="72.2908,-228.16 82.8402,-229.139 75.204,-221.795 72.2908,-228.16"/>
</g>
<!-- netcdf_file_input_port -->
<g id="node17" class="node"><title>netcdf_file_input_port</title>
<ellipse fill="#ffffff" stroke="black" cx="31" cy="-166" rx="7" ry="7"/>
</g>
<!-- netcdf_file_input_port&#45;&gt;netcdf_file -->
<g id="edge17" class="edge"><title>netcdf_file_input_port&#45;&gt;netcdf_file</title>
<path fill="none" stroke="black" d="M37.974,-167.251C44.4826,-168.614 55.6151,-170.946 67.8619,-173.51"/>
<polygon fill="black" stroke="black" points="67.3502,-176.979 77.8553,-175.603 68.7851,-170.128 67.3502,-176.979"/>
</g>
<!-- itrdb_input_port -->
<g id="node18" class="node"><title>itrdb_input_port</title>
<ellipse fill="#ffffff" stroke="black" cx="31" cy="-134" rx="7" ry="7"/>
</g>
<!-- itrdb_input_port&#45;&gt;itrdb -->
<g id="edge18" class="edge"><title>itrdb_input_port&#45;&gt;itrdb</title>
<path fill="none" stroke="black" d="M38.1652,-134.251C77.9956,-135.875 300.09,-144.929 388.339,-148.526"/>
<polygon fill="black" stroke="black" points="388.283,-152.026 398.417,-148.937 388.568,-145.032 388.283,-152.026"/>
</g>
<!-- calibration.year_input_port -->
<g id="node19" class="node"><title>calibration.year_input_port</title>
<ellipse fill="#ffffff" stroke="black" cx="31" cy="-102" rx="7" ry="7"/>
</g>
<!-- calibration.year_input_port&#45;&gt;calibration.year -->
<g id="edge19" class="edge"><title>calibration.year_input_port&#45;&gt;calibration.year</title>
<path fill="none" stroke="black" d="M38.1652,-101.906C74.184,-101.355 259.252,-98.5261 359.604,-96.992"/>
<polygon fill="black" stroke="black" points="359.689,-100.491 369.634,-96.8387 359.582,-93.4921 359.689,-100.491"/>
</g>
<!-- prediction.year_input_port -->
<g id="node20" class="node"><title>prediction.year_input_port</title>
<ellipse fill="#ffffff" stroke="black" cx="31" cy="-70" rx="7" ry="7"/>
</g>
<!-- prediction.year_input_port&#45;&gt;prediction.year -->
<g id="edge20" class="edge"><title>prediction.year_input_port&#45;&gt;prediction.year</title>
<path fill="none" stroke="black" d="M38.1652,-69.5602C74.2783,-66.984 260.222,-53.7192 360.39,-46.5734"/>
<polygon fill="black" stroke="black" points="360.672,-50.0623 370.398,-45.8595 360.174,-43.0801 360.672,-50.0623"/>
</g>
</g>
</svg>
