<?xml version="1.0" encoding="UTF-8" standalone="no"?>
<!DOCTYPE svg PUBLIC "-//W3C//DTD SVG 1.1//EN"
 "http://www.w3.org/Graphics/SVG/1.1/DTD/svg11.dtd">
<!-- Generated by graphviz version 2.38.0 (20140413.2041)
 -->
<!-- Title: Workflow Pages: 1 -->
<svg width="1038pt" height="348pt"
 viewBox="0.00 0.00 1038.00 348.00" xmlns="http://www.w3.org/2000/svg" xmlns:xlink="http://www.w3.org/1999/xlink">
<g id="graph0" class="graph" transform="scale(1 1) rotate(0) translate(4 344)">
<title>Workflow</title>
<polygon fill="white" stroke="none" points="-4,4 -4,-344 1034,-344 1034,4 -4,4"/>
<text text-anchor="middle" x="515" y="-321.6" font-family="Helvetica,sans-Serif" font-size="18.00">predict_paleocar_models</text>
<g id="clust1" class="cluster"><title>cluster_workflow_box_outer</title>
<polygon fill="none" stroke="black" stroke-width="2" points="62,-8 62,-304 968,-304 968,-8 62,-8"/>
</g>
<g id="clust2" class="cluster"><title>cluster_workflow_box_inner</title>
<polygon fill="none" stroke="black" stroke-width="0" points="70,-16 70,-296 960,-296 960,-16 70,-16"/>
</g>
<g id="clust3" class="cluster"><title>cluster_input_ports_group_outer</title>
<polygon fill="none" stroke="black" stroke-width="0" points="8,-63 8,-237 54,-237 54,-63 8,-63"/>
</g>
<g id="clust4" class="cluster"><title>cluster_input_ports_group_inner</title>
<polygon fill="none" stroke="black" stroke-width="0" points="16,-71 16,-229 46,-229 46,-71 16,-71"/>
</g>
<g id="clust5" class="cluster"><title>cluster_output_ports_group_outer</title>
<polygon fill="none" stroke="black" stroke-width="0" points="976,-127 976,-173 1022,-173 1022,-127 976,-127"/>
</g>
<g id="clust6" class="cluster"><title>cluster_output_ports_group_inner</title>
<polygon fill="none" stroke="black" stroke-width="0" points="984,-135 984,-165 1014,-165 1014,-135 984,-135"/>
</g>
<!-- predict_paleocar_models -->
<g id="node1" class="node"><title>predict_paleocar_models</title>
<polygon fill="#ccffcc" stroke="black" points="573,-168 394,-168 394,-132 573,-132 573,-168"/>
<text text-anchor="middle" x="483.5" y="-146.3" font-family="Helvetica,sans-Serif" font-size="14.00">predict_paleocar_models</text>
</g>
<!-- predictions_model -->
<g id="node2" class="node"><title>predictions_model</title>
<path fill="#ffffcc" stroke="black" d="M621,-127C621,-127 940,-127 940,-127 946,-127 952,-133 952,-139 952,-139 952,-161 952,-161 952,-167 946,-173 940,-173 940,-173 621,-173 621,-173 615,-173 609,-167 609,-161 609,-161 609,-139 609,-139 609,-133 615,-127 621,-127"/>
<text text-anchor="middle" x="780.5" y="-157.8" font-family="Helvetica,sans-Serif" font-size="14.00">predictions_model</text>
<polyline fill="none" stroke="black" points="609,-150 952,-150 "/>
<text text-anchor="middle" x="780.5" y="-134.8" font-family="Helvetica,sans-Serif" font-size="14.00">file:{run_id}/{run_count}/{label}.prediction_model.rds</text>
</g>
<!-- predict_paleocar_models&#45;&gt;predictions_model -->
<g id="edge1" class="edge"><title>predict_paleocar_models&#45;&gt;predictions_model</title>
<path fill="none" stroke="black" d="M573.01,-150C581.244,-150 589.771,-150 598.463,-150"/>
<polygon fill="black" stroke="black" points="598.733,-153.5 608.733,-150 598.733,-146.5 598.733,-153.5"/>
</g>
<!-- predictions_model_output_port -->
<g id="node13" class="node"><title>predictions_model_output_port</title>
<ellipse fill="#ffffff" stroke="black" cx="999" cy="-150" rx="7" ry="7"/>
</g>
<!-- predictions_model&#45;&gt;predictions_model_output_port -->
<g id="edge12" class="edge"><title>predictions_model&#45;&gt;predictions_model_output_port</title>
<path fill="none" stroke="black" d="M952.086,-150C963.779,-150 974.001,-150 981.812,-150"/>
<polygon fill="black" stroke="black" points="981.969,-153.5 991.969,-150 981.969,-146.5 981.969,-153.5"/>
</g>
<!-- models -->
<g id="node3" class="node"><title>models</title>
<path fill="#ffffcc" stroke="black" d="M90,-241C90,-241 346,-241 346,-241 352,-241 358,-247 358,-253 358,-253 358,-275 358,-275 358,-281 352,-287 346,-287 346,-287 90,-287 90,-287 84,-287 78,-281 78,-275 78,-275 78,-253 78,-253 78,-247 84,-241 90,-241"/>
<text text-anchor="middle" x="218" y="-271.8" font-family="Helvetica,sans-Serif" font-size="14.00">models</text>
<polyline fill="none" stroke="black" points="78,-264 358,-264 "/>
<text text-anchor="middle" x="218" y="-248.8" font-family="Helvetica,sans-Serif" font-size="14.00">file:{run_id}/{run_count}/{label}.models.rds</text>
</g>
<!-- models&#45;&gt;predict_paleocar_models -->
<g id="edge2" class="edge"><title>models&#45;&gt;predict_paleocar_models</title>
<path fill="none" stroke="black" d="M331.243,-240.925C340.424,-237.963 349.451,-234.664 358,-231 392.346,-216.278 427.702,-192.268 451.918,-174.203"/>
<polygon fill="black" stroke="black" points="454.139,-176.912 460,-168.086 449.914,-171.331 454.139,-176.912"/>
</g>
<!-- prediction.years -->
<g id="node4" class="node"><title>prediction.years</title>
<path fill="#ffffcc" stroke="black" d="M264.5,-222C264.5,-222 171.5,-222 171.5,-222 165.5,-222 159.5,-216 159.5,-210 159.5,-210 159.5,-198 159.5,-198 159.5,-192 165.5,-186 171.5,-186 171.5,-186 264.5,-186 264.5,-186 270.5,-186 276.5,-192 276.5,-198 276.5,-198 276.5,-210 276.5,-210 276.5,-216 270.5,-222 264.5,-222"/>
<text text-anchor="middle" x="218" y="-200.3" font-family="Helvetica,sans-Serif" font-size="14.00">prediction.years</text>
</g>
<!-- prediction.years&#45;&gt;predict_paleocar_models -->
<g id="edge3" class="edge"><title>prediction.years&#45;&gt;predict_paleocar_models</title>
<path fill="none" stroke="black" d="M276.54,-193.114C301.589,-188.299 331.272,-182.494 358,-177 368.533,-174.835 379.555,-172.519 390.501,-170.187"/>
<polygon fill="black" stroke="black" points="391.469,-173.559 400.516,-168.044 390.005,-166.714 391.469,-173.559"/>
</g>
<!-- meanVar -->
<g id="node5" class="node"><title>meanVar</title>
<path fill="#fcfcfc" stroke="black" d="M243,-168C243,-168 193,-168 193,-168 187,-168 181,-162 181,-156 181,-156 181,-144 181,-144 181,-138 187,-132 193,-132 193,-132 243,-132 243,-132 249,-132 255,-138 255,-144 255,-144 255,-156 255,-156 255,-162 249,-168 243,-168"/>
<text text-anchor="middle" x="218" y="-146.3" font-family="Helvetica,sans-Serif" font-size="14.00">meanVar</text>
</g>
<!-- meanVar&#45;&gt;predict_paleocar_models -->
<g id="edge4" class="edge"><title>meanVar&#45;&gt;predict_paleocar_models</title>
<path fill="none" stroke="black" d="M255.086,-150C288.173,-150 338.725,-150 383.772,-150"/>
<polygon fill="black" stroke="black" points="383.888,-153.5 393.888,-150 383.888,-146.5 383.888,-153.5"/>
</g>
<!-- floor -->
<g id="node6" class="node"><title>floor</title>
<path fill="#fcfcfc" stroke="black" d="M233,-114C233,-114 203,-114 203,-114 197,-114 191,-108 191,-102 191,-102 191,-90 191,-90 191,-84 197,-78 203,-78 203,-78 233,-78 233,-78 239,-78 245,-84 245,-90 245,-90 245,-102 245,-102 245,-108 239,-114 233,-114"/>
<text text-anchor="middle" x="218" y="-92.3" font-family="Helvetica,sans-Serif" font-size="14.00">floor</text>
</g>
<!-- floor&#45;&gt;predict_paleocar_models -->
<g id="edge5" class="edge"><title>floor&#45;&gt;predict_paleocar_models</title>
<path fill="none" stroke="black" d="M245.165,-100.907C273.13,-106.193 318.75,-114.933 358,-123 368.533,-125.165 379.555,-127.481 390.501,-129.813"/>
<polygon fill="black" stroke="black" points="390.005,-133.286 400.516,-131.956 391.469,-126.441 390.005,-133.286"/>
</g>
<!-- ceiling -->
<g id="node7" class="node"><title>ceiling</title>
<path fill="#fcfcfc" stroke="black" d="M234.5,-60C234.5,-60 201.5,-60 201.5,-60 195.5,-60 189.5,-54 189.5,-48 189.5,-48 189.5,-36 189.5,-36 189.5,-30 195.5,-24 201.5,-24 201.5,-24 234.5,-24 234.5,-24 240.5,-24 246.5,-30 246.5,-36 246.5,-36 246.5,-48 246.5,-48 246.5,-54 240.5,-60 234.5,-60"/>
<text text-anchor="middle" x="218" y="-38.3" font-family="Helvetica,sans-Serif" font-size="14.00">ceiling</text>
</g>
<!-- ceiling&#45;&gt;predict_paleocar_models -->
<g id="edge6" class="edge"><title>ceiling&#45;&gt;predict_paleocar_models</title>
<path fill="none" stroke="black" d="M246.527,-44.2081C275.225,-47.2224 321.081,-54.0684 358,-69 392.856,-83.0972 428.395,-107.413 452.531,-125.733"/>
<polygon fill="black" stroke="black" points="450.518,-128.6 460.573,-131.937 454.793,-123.058 450.518,-128.6"/>
</g>
<!-- models_input_port -->
<g id="node8" class="node"><title>models_input_port</title>
<ellipse fill="#ffffff" stroke="black" cx="31" cy="-214" rx="7" ry="7"/>
</g>
<!-- models_input_port&#45;&gt;models -->
<g id="edge7" class="edge"><title>models_input_port&#45;&gt;models</title>
<path fill="none" stroke="black" d="M37.2822,-217.659C43.0905,-221.52 52.8208,-227.517 62,-231 68.6318,-233.516 75.4999,-235.861 82.4894,-238.042"/>
<polygon fill="black" stroke="black" points="81.5012,-241.399 92.085,-240.916 83.5098,-234.694 81.5012,-241.399"/>
</g>
<!-- prediction.years_input_port -->
<g id="node9" class="node"><title>prediction.years_input_port</title>
<ellipse fill="#ffffff" stroke="black" cx="31" cy="-182" rx="7" ry="7"/>
</g>
<!-- prediction.years_input_port&#45;&gt;prediction.years -->
<g id="edge8" class="edge"><title>prediction.years_input_port&#45;&gt;prediction.years</title>
<path fill="none" stroke="black" d="M38.1553,-182.732C55.452,-184.789 106.035,-190.804 149.01,-195.915"/>
<polygon fill="black" stroke="black" points="148.835,-199.418 159.178,-197.124 149.662,-192.467 148.835,-199.418"/>
</g>
<!-- meanVar_input_port -->
<g id="node10" class="node"><title>meanVar_input_port</title>
<ellipse fill="#ffffff" stroke="black" cx="31" cy="-150" rx="7" ry="7"/>
</g>
<!-- meanVar_input_port&#45;&gt;meanVar -->
<g id="edge9" class="edge"><title>meanVar_input_port&#45;&gt;meanVar</title>
<path fill="none" stroke="black" d="M38.1553,-150C58.4977,-150 124.88,-150 170.781,-150"/>
<polygon fill="black" stroke="black" points="170.815,-153.5 180.815,-150 170.815,-146.5 170.815,-153.5"/>
</g>
<!-- floor_input_port -->
<g id="node11" class="node"><title>floor_input_port</title>
<ellipse fill="#ffffff" stroke="black" cx="31" cy="-118" rx="7" ry="7"/>
</g>
<!-- floor_input_port&#45;&gt;floor -->
<g id="edge10" class="edge"><title>floor_input_port&#45;&gt;floor</title>
<path fill="none" stroke="black" d="M38.1553,-117.268C60.0254,-114.667 135.111,-105.738 180.748,-100.311"/>
<polygon fill="black" stroke="black" points="181.321,-103.768 190.837,-99.1112 180.494,-96.8167 181.321,-103.768"/>
</g>
<!-- ceiling_input_port -->
<g id="node12" class="node"><title>ceiling_input_port</title>
<ellipse fill="#ffffff" stroke="black" cx="31" cy="-86" rx="7" ry="7"/>
</g>
<!-- ceiling_input_port&#45;&gt;ceiling -->
<g id="edge11" class="edge"><title>ceiling_input_port&#45;&gt;ceiling</title>
<path fill="none" stroke="black" d="M37.2577,-82.2743C43.0449,-78.3567 52.7575,-72.3111 62,-69 100.582,-55.178 147.182,-48.2833 179.148,-44.9438"/>
<polygon fill="black" stroke="black" points="179.783,-48.3985 189.395,-43.9427 179.102,-41.4317 179.783,-48.3985"/>
</g>
</g>
</svg>
