<?xml version="1.0" encoding="UTF-8" standalone="no"?>
<!DOCTYPE svg PUBLIC "-//W3C//DTD SVG 1.1//EN"
 "http://www.w3.org/Graphics/SVG/1.1/DTD/svg11.dtd">
<!-- Generated by graphviz version 2.38.0 (20140413.2041)
 -->
<!-- Title: Workflow Pages: 1 -->
<svg width="799pt" height="377pt"
 viewBox="0.00 0.00 799.00 377.00" xmlns="http://www.w3.org/2000/svg" xmlns:xlink="http://www.w3.org/1999/xlink">
<g id="graph0" class="graph" transform="scale(1 1) rotate(0) translate(4 373)">
<title>Workflow</title>
<polygon fill="white" stroke="none" points="-4,4 -4,-373 795,-373 795,4 -4,4"/>
<g id="clust1" class="cluster"><title>cluster_workflow_box_outer</title>
<polygon fill="none" stroke="black" stroke-width="2" points="8,-62 8,-307 783,-307 783,-62 8,-62"/>
</g>
<g id="clust2" class="cluster"><title>cluster_workflow_box_inner</title>
<polygon fill="none" stroke="black" stroke-width="0" points="16,-70 16,-299 775,-299 775,-70 16,-70"/>
</g>
<g id="clust3" class="cluster"><title>cluster_input_ports_group_outer</title>
<polygon fill="none" stroke="black" stroke-width="0" points="137,-315 137,-361 311,-361 311,-315 137,-315"/>
</g>
<g id="clust4" class="cluster"><title>cluster_input_ports_group_inner</title>
<polygon fill="none" stroke="black" stroke-width="0" points="145,-323 145,-353 303,-353 303,-323 145,-323"/>
</g>
<g id="clust5" class="cluster"><title>cluster_output_ports_group_outer</title>
<polygon fill="none" stroke="black" stroke-width="0" points="345,-8 345,-54 423,-54 423,-8 345,-8"/>
</g>
<g id="clust6" class="cluster"><title>cluster_output_ports_group_inner</title>
<polygon fill="none" stroke="black" stroke-width="0" points="353,-16 353,-46 415,-46 415,-16 353,-16"/>
</g>
<!-- exrtact_prediction_model -->
<g id="node1" class="node"><title>exrtact_prediction_model</title>
<polygon fill="#ccffcc" stroke="black" points="24,-161.5 24,-207.5 686,-207.5 686,-161.5 24,-161.5"/>
<text text-anchor="middle" x="355" y="-192.3" font-family="Helvetica,sans-Serif" font-size="14.00">exrtact_prediction_model</text>
<polyline fill="none" stroke="black" points="24,-184.5 686,-184.5 "/>
<text text-anchor="middle" x="355" y="-169.3" font-family="Helvetica,sans-Serif" font-size="14.00">extract the rasterbrick reconstruction from a PaleoCAR batch model for the specified prediction period.</text>
</g>
<!-- timeseries_plot_prediction -->
<g id="node2" class="node"><title>timeseries_plot_prediction</title>
<path fill="#ffffcc" stroke="black" d="M68,-78.5C68,-78.5 352,-78.5 352,-78.5 358,-78.5 364,-84.5 364,-90.5 364,-90.5 364,-112.5 364,-112.5 364,-118.5 358,-124.5 352,-124.5 352,-124.5 68,-124.5 68,-124.5 62,-124.5 56,-118.5 56,-112.5 56,-112.5 56,-90.5 56,-90.5 56,-84.5 62,-78.5 68,-78.5"/>
<text text-anchor="middle" x="210" y="-109.3" font-family="Helvetica,sans-Serif" font-size="14.00">timeseries_plot_prediction</text>
<polyline fill="none" stroke="black" points="56,-101.5 364,-101.5 "/>
<text text-anchor="middle" x="210" y="-86.3" font-family="Helvetica,sans-Serif" font-size="14.00">file:/.output/{session_id}/{run_id}/prediction.jpg</text>
</g>
<!-- exrtact_prediction_model&#45;&gt;timeseries_plot_prediction -->
<g id="edge1" class="edge"><title>exrtact_prediction_model&#45;&gt;timeseries_plot_prediction</title>
<path fill="none" stroke="black" d="M315.378,-161.366C297.796,-151.544 276.94,-139.894 258.441,-129.56"/>
<polygon fill="black" stroke="black" points="260.011,-126.428 249.574,-124.607 256.597,-132.539 260.011,-126.428"/>
</g>
<!-- predictions_model -->
<g id="node3" class="node"><title>predictions_model</title>
<path fill="#ffffcc" stroke="black" d="M394,-78.5C394,-78.5 722,-78.5 722,-78.5 728,-78.5 734,-84.5 734,-90.5 734,-90.5 734,-112.5 734,-112.5 734,-118.5 728,-124.5 722,-124.5 722,-124.5 394,-124.5 394,-124.5 388,-124.5 382,-118.5 382,-112.5 382,-112.5 382,-90.5 382,-90.5 382,-84.5 388,-78.5 394,-78.5"/>
<text text-anchor="middle" x="558" y="-109.3" font-family="Helvetica,sans-Serif" font-size="14.00">predictions_model</text>
<polyline fill="none" stroke="black" points="382,-101.5 734,-101.5 "/>
<text text-anchor="middle" x="558" y="-86.3" font-family="Helvetica,sans-Serif" font-size="14.00">file:/.output/{session_id}/{run_id}/{label}.prediction.rds</text>
</g>
<!-- exrtact_prediction_model&#45;&gt;predictions_model -->
<g id="edge2" class="edge"><title>exrtact_prediction_model&#45;&gt;predictions_model</title>
<path fill="none" stroke="black" d="M410.203,-161.473C435.933,-151.206 466.716,-138.924 493.512,-128.232"/>
<polygon fill="black" stroke="black" points="494.818,-131.479 502.808,-124.522 492.223,-124.978 494.818,-131.479"/>
</g>
<!-- timeseries_plot_prediction_output_port -->
<g id="node14" class="node"><title>timeseries_plot_prediction_output_port</title>
<ellipse fill="#ffffff" stroke="black" cx="368" cy="-31" rx="7" ry="7"/>
</g>
<!-- timeseries_plot_prediction&#45;&gt;timeseries_plot_prediction_output_port -->
<g id="edge13" class="edge"><title>timeseries_plot_prediction&#45;&gt;timeseries_plot_prediction_output_port</title>
<path fill="none" stroke="black" d="M260.862,-78.4491C292.512,-64.7273 331.094,-48.0006 352.246,-38.8302"/>
<polygon fill="black" stroke="black" points="353.806,-41.9684 361.589,-34.7795 351.022,-35.546 353.806,-41.9684"/>
</g>
<!-- predictions_model_output_port -->
<g id="node15" class="node"><title>predictions_model_output_port</title>
<ellipse fill="#ffffff" stroke="black" cx="400" cy="-31" rx="7" ry="7"/>
</g>
<!-- predictions_model&#45;&gt;predictions_model_output_port -->
<g id="edge14" class="edge"><title>predictions_model&#45;&gt;predictions_model_output_port</title>
<path fill="none" stroke="black" d="M507.138,-78.4491C475.488,-64.7273 436.906,-48.0006 415.754,-38.8302"/>
<polygon fill="black" stroke="black" points="416.978,-35.546 406.411,-34.7795 414.194,-41.9684 416.978,-35.546"/>
</g>
<!-- models -->
<g id="node4" class="node"><title>models</title>
<path fill="#ffffcc" stroke="black" d="M441.5,-244.5C441.5,-244.5 754.5,-244.5 754.5,-244.5 760.5,-244.5 766.5,-250.5 766.5,-256.5 766.5,-256.5 766.5,-278.5 766.5,-278.5 766.5,-284.5 760.5,-290.5 754.5,-290.5 754.5,-290.5 441.5,-290.5 441.5,-290.5 435.5,-290.5 429.5,-284.5 429.5,-278.5 429.5,-278.5 429.5,-256.5 429.5,-256.5 429.5,-250.5 435.5,-244.5 441.5,-244.5"/>
<text text-anchor="middle" x="598" y="-275.3" font-family="Helvetica,sans-Serif" font-size="14.00">models</text>
<polyline fill="none" stroke="black" points="429.5,-267.5 766.5,-267.5 "/>
<text text-anchor="middle" x="598" y="-252.3" font-family="Helvetica,sans-Serif" font-size="14.00">file:/.output/{session_id}/{run_id}/{label}.models.rds</text>
</g>
<!-- models&#45;&gt;exrtact_prediction_model -->
<g id="edge5" class="edge"><title>models&#45;&gt;exrtact_prediction_model</title>
<path fill="none" stroke="black" d="M531.92,-244.473C500.716,-234.072 463.304,-221.601 430.937,-210.812"/>
<polygon fill="black" stroke="black" points="431.66,-207.364 421.067,-207.522 429.447,-214.005 431.66,-207.364"/>
</g>
<!-- prediction.years -->
<g id="node5" class="node"><title>prediction.years</title>
<path fill="#ffffcc" stroke="black" d="M399.5,-285.5C399.5,-285.5 306.5,-285.5 306.5,-285.5 300.5,-285.5 294.5,-279.5 294.5,-273.5 294.5,-273.5 294.5,-261.5 294.5,-261.5 294.5,-255.5 300.5,-249.5 306.5,-249.5 306.5,-249.5 399.5,-249.5 399.5,-249.5 405.5,-249.5 411.5,-255.5 411.5,-261.5 411.5,-261.5 411.5,-273.5 411.5,-273.5 411.5,-279.5 405.5,-285.5 399.5,-285.5"/>
<text text-anchor="middle" x="353" y="-263.8" font-family="Helvetica,sans-Serif" font-size="14.00">prediction.years</text>
</g>
<!-- prediction.years&#45;&gt;exrtact_prediction_model -->
<g id="edge7" class="edge"><title>prediction.years&#45;&gt;exrtact_prediction_model</title>
<path fill="none" stroke="black" d="M353.424,-249.322C353.652,-240.102 353.94,-228.435 354.207,-217.606"/>
<polygon fill="black" stroke="black" points="357.707,-217.67 354.455,-207.587 350.709,-217.497 357.707,-217.67"/>
</g>
<!-- meanvariance -->
<g id="node6" class="node"><title>meanvariance</title>
<path fill="#fcfcfc" stroke="black" d="M264,-285.5C264,-285.5 184,-285.5 184,-285.5 178,-285.5 172,-279.5 172,-273.5 172,-273.5 172,-261.5 172,-261.5 172,-255.5 178,-249.5 184,-249.5 184,-249.5 264,-249.5 264,-249.5 270,-249.5 276,-255.5 276,-261.5 276,-261.5 276,-273.5 276,-273.5 276,-279.5 270,-285.5 264,-285.5"/>
<text text-anchor="middle" x="224" y="-263.8" font-family="Helvetica,sans-Serif" font-size="14.00">meanvariance</text>
</g>
<!-- meanvariance&#45;&gt;exrtact_prediction_model -->
<g id="edge3" class="edge"><title>meanvariance&#45;&gt;exrtact_prediction_model</title>
<path fill="none" stroke="black" d="M251.782,-249.322C268.846,-238.771 291.091,-225.016 310.559,-212.979"/>
<polygon fill="black" stroke="black" points="312.615,-215.823 319.279,-207.587 308.933,-209.869 312.615,-215.823"/>
</g>
<!-- floor -->
<g id="node7" class="node"><title>floor</title>
<path fill="#fcfcfc" stroke="black" d="M142,-285.5C142,-285.5 112,-285.5 112,-285.5 106,-285.5 100,-279.5 100,-273.5 100,-273.5 100,-261.5 100,-261.5 100,-255.5 106,-249.5 112,-249.5 112,-249.5 142,-249.5 142,-249.5 148,-249.5 154,-255.5 154,-261.5 154,-261.5 154,-273.5 154,-273.5 154,-279.5 148,-285.5 142,-285.5"/>
<text text-anchor="middle" x="127" y="-263.8" font-family="Helvetica,sans-Serif" font-size="14.00">floor</text>
</g>
<!-- floor&#45;&gt;exrtact_prediction_model -->
<g id="edge4" class="edge"><title>floor&#45;&gt;exrtact_prediction_model</title>
<path fill="none" stroke="black" d="M152.502,-249.433C155.955,-247.459 159.512,-245.588 163,-244 192.19,-230.712 225.209,-219.418 255.53,-210.4"/>
<polygon fill="black" stroke="black" points="256.655,-213.718 265.272,-207.553 254.691,-206.999 256.655,-213.718"/>
</g>
<!-- ceiling -->
<g id="node8" class="node"><title>ceiling</title>
<path fill="#fcfcfc" stroke="black" d="M69.5,-285.5C69.5,-285.5 36.5,-285.5 36.5,-285.5 30.5,-285.5 24.5,-279.5 24.5,-273.5 24.5,-273.5 24.5,-261.5 24.5,-261.5 24.5,-255.5 30.5,-249.5 36.5,-249.5 36.5,-249.5 69.5,-249.5 69.5,-249.5 75.5,-249.5 81.5,-255.5 81.5,-261.5 81.5,-261.5 81.5,-273.5 81.5,-273.5 81.5,-279.5 75.5,-285.5 69.5,-285.5"/>
<text text-anchor="middle" x="53" y="-263.8" font-family="Helvetica,sans-Serif" font-size="14.00">ceiling</text>
</g>
<!-- ceiling&#45;&gt;exrtact_prediction_model -->
<g id="edge6" class="edge"><title>ceiling&#45;&gt;exrtact_prediction_model</title>
<path fill="none" stroke="black" d="M79.4489,-249.423C83.2328,-247.402 87.1496,-245.522 91,-244 127.471,-229.588 168.251,-218.352 206.644,-209.755"/>
<polygon fill="black" stroke="black" points="207.855,-213.073 216.874,-207.513 206.357,-206.235 207.855,-213.073"/>
</g>
<!-- meanvariance_input_port -->
<g id="node9" class="node"><title>meanvariance_input_port</title>
<ellipse fill="#ffffff" stroke="black" cx="224" cy="-338" rx="7" ry="7"/>
</g>
<!-- meanvariance_input_port&#45;&gt;meanvariance -->
<g id="edge8" class="edge"><title>meanvariance_input_port&#45;&gt;meanvariance</title>
<path fill="none" stroke="black" d="M224,-330.678C224,-322.761 224,-308.681 224,-295.92"/>
<polygon fill="black" stroke="black" points="227.5,-295.675 224,-285.675 220.5,-295.675 227.5,-295.675"/>
</g>
<!-- floor_input_port -->
<g id="node10" class="node"><title>floor_input_port</title>
<ellipse fill="#ffffff" stroke="black" cx="192" cy="-338" rx="7" ry="7"/>
</g>
<!-- floor_input_port&#45;&gt;floor -->
<g id="edge9" class="edge"><title>floor_input_port&#45;&gt;floor</title>
<path fill="none" stroke="black" d="M188.832,-331.472C185.921,-326.718 181.268,-319.876 176,-315 171.021,-310.391 168.252,-311.294 163,-307 157.886,-302.819 152.793,-297.935 148.117,-293.076"/>
<polygon fill="black" stroke="black" points="150.528,-290.529 141.167,-285.567 145.391,-295.284 150.528,-290.529"/>
</g>
<!-- models_input_port -->
<g id="node11" class="node"><title>models_input_port</title>
<ellipse fill="#ffffff" stroke="black" cx="288" cy="-338" rx="7" ry="7"/>
</g>
<!-- models_input_port&#45;&gt;models -->
<g id="edge10" class="edge"><title>models_input_port&#45;&gt;models</title>
<path fill="none" stroke="black" d="M294.763,-335.506C320.142,-329.898 412.142,-309.569 488.216,-292.759"/>
<polygon fill="black" stroke="black" points="489.349,-296.093 498.359,-290.517 487.839,-289.258 489.349,-296.093"/>
</g>
<!-- ceiling_input_port -->
<g id="node12" class="node"><title>ceiling_input_port</title>
<ellipse fill="#ffffff" stroke="black" cx="160" cy="-338" rx="7" ry="7"/>
</g>
<!-- ceiling_input_port&#45;&gt;ceiling -->
<g id="edge11" class="edge"><title>ceiling_input_port&#45;&gt;ceiling</title>
<path fill="none" stroke="black" d="M153.496,-335.095C140.749,-331.17 111.9,-321.33 91,-307 85.1714,-303.004 79.486,-298.03 74.3633,-292.999"/>
<polygon fill="black" stroke="black" points="76.7736,-290.457 67.3094,-285.695 71.7382,-295.319 76.7736,-290.457"/>
</g>
<!-- prediction.years_input_port -->
<g id="node13" class="node"><title>prediction.years_input_port</title>
<ellipse fill="#ffffff" stroke="black" cx="256" cy="-338" rx="7" ry="7"/>
</g>
<!-- prediction.years_input_port&#45;&gt;prediction.years -->
<g id="edge12" class="edge"><title>prediction.years_input_port&#45;&gt;prediction.years</title>
<path fill="none" stroke="black" d="M259.132,-331.432C262.019,-326.652 266.658,-319.796 272,-315 273.923,-313.274 294.015,-301.737 313.705,-290.587"/>
<polygon fill="black" stroke="black" points="315.673,-293.496 322.657,-285.529 312.229,-287.402 315.673,-293.496"/>
</g>
</g>
</svg>
