<?xml version="1.0" encoding="UTF-8" standalone="no"?>
<!DOCTYPE svg PUBLIC "-//W3C//DTD SVG 1.1//EN"
 "http://www.w3.org/Graphics/SVG/1.1/DTD/svg11.dtd">
<!-- Generated by graphviz version 2.38.0 (20140413.2041)
 -->
<!-- Title: Workflow Pages: 1 -->
<svg width="798pt" height="321pt"
 viewBox="0.00 0.00 798.00 321.00" xmlns="http://www.w3.org/2000/svg" xmlns:xlink="http://www.w3.org/1999/xlink">
<g id="graph0" class="graph" transform="scale(1 1) rotate(0) translate(4 317)">
<title>Workflow</title>
<polygon fill="white" stroke="none" points="-4,4 -4,-317 794,-317 794,4 -4,4"/>
<g id="clust1" class="cluster"><title>cluster_workflow_box_outer</title>
<polygon fill="none" stroke="black" stroke-width="2" points="8,-34 8,-279 782,-279 782,-34 8,-34"/>
</g>
<g id="clust2" class="cluster"><title>cluster_workflow_box_inner</title>
<polygon fill="none" stroke="black" stroke-width="0" points="16,-42 16,-271 774,-271 774,-42 16,-42"/>
</g>
<!-- predict_paleocar_models -->
<g id="node1" class="node"><title>predict_paleocar_models</title>
<polygon fill="#ccffcc" stroke="black" points="178,-133.5 178,-179.5 596,-179.5 596,-133.5 178,-133.5"/>
<text text-anchor="middle" x="387" y="-164.3" font-family="Helvetica,sans-Serif" font-size="14.00">predict_paleocar_models</text>
<polyline fill="none" stroke="black" points="178,-156.5 596,-156.5 "/>
<text text-anchor="middle" x="387" y="-141.3" font-family="Helvetica,sans-Serif" font-size="14.00">generates climate predictions over a specified prediction period</text>
</g>
<!-- timeseries_plot_prediction -->
<g id="node2" class="node"><title>timeseries_plot_prediction</title>
<path fill="#ffffcc" stroke="black" d="M68,-50.5C68,-50.5 352,-50.5 352,-50.5 358,-50.5 364,-56.5 364,-62.5 364,-62.5 364,-84.5 364,-84.5 364,-90.5 358,-96.5 352,-96.5 352,-96.5 68,-96.5 68,-96.5 62,-96.5 56,-90.5 56,-84.5 56,-84.5 56,-62.5 56,-62.5 56,-56.5 62,-50.5 68,-50.5"/>
<text text-anchor="middle" x="210" y="-81.3" font-family="Helvetica,sans-Serif" font-size="14.00">timeseries_plot_prediction</text>
<polyline fill="none" stroke="black" points="56,-73.5 364,-73.5 "/>
<text text-anchor="middle" x="210" y="-58.3" font-family="Helvetica,sans-Serif" font-size="14.00">file:/.output/{session_id}/{run_id}/prediction.jpg</text>
</g>
<!-- predict_paleocar_models&#45;&gt;timeseries_plot_prediction -->
<g id="edge1" class="edge"><title>predict_paleocar_models&#45;&gt;timeseries_plot_prediction</title>
<path fill="none" stroke="black" d="M338.634,-133.366C316.683,-123.321 290.554,-111.363 267.597,-100.858"/>
<polygon fill="black" stroke="black" points="268.857,-97.5856 258.308,-96.6068 265.944,-103.951 268.857,-97.5856"/>
</g>
<!-- predictions_model -->
<g id="node3" class="node"><title>predictions_model</title>
<path fill="#ffffcc" stroke="black" d="M394,-50.5C394,-50.5 722,-50.5 722,-50.5 728,-50.5 734,-56.5 734,-62.5 734,-62.5 734,-84.5 734,-84.5 734,-90.5 728,-96.5 722,-96.5 722,-96.5 394,-96.5 394,-96.5 388,-96.5 382,-90.5 382,-84.5 382,-84.5 382,-62.5 382,-62.5 382,-56.5 388,-50.5 394,-50.5"/>
<text text-anchor="middle" x="558" y="-81.3" font-family="Helvetica,sans-Serif" font-size="14.00">predictions_model</text>
<polyline fill="none" stroke="black" points="382,-73.5 734,-73.5 "/>
<text text-anchor="middle" x="558" y="-58.3" font-family="Helvetica,sans-Serif" font-size="14.00">file:/.output/{session_id}/{run_id}/{label}.prediction.rds</text>
</g>
<!-- predict_paleocar_models&#45;&gt;predictions_model -->
<g id="edge2" class="edge"><title>predict_paleocar_models&#45;&gt;predictions_model</title>
<path fill="none" stroke="black" d="M433.727,-133.366C454.839,-123.366 479.953,-111.47 502.06,-100.998"/>
<polygon fill="black" stroke="black" points="503.791,-104.051 511.33,-96.6068 500.794,-97.7247 503.791,-104.051"/>
</g>
<!-- timeseries_plot_prediction_output_port -->
<g id="node14" class="node"><title>timeseries_plot_prediction_output_port</title>
<ellipse fill="#ffffff" stroke="black" cx="210" cy="-7" rx="7" ry="7"/>
</g>
<!-- timeseries_plot_prediction&#45;&gt;timeseries_plot_prediction_output_port -->
<g id="edge13" class="edge"><title>timeseries_plot_prediction&#45;&gt;timeseries_plot_prediction_output_port</title>
<path fill="none" stroke="black" d="M210,-50.3028C210,-41.6846 210,-32.0022 210,-24.0776"/>
<polygon fill="black" stroke="black" points="213.5,-24.0535 210,-14.0535 206.5,-24.0535 213.5,-24.0535"/>
</g>
<!-- predictions_model_output_port -->
<g id="node15" class="node"><title>predictions_model_output_port</title>
<ellipse fill="#ffffff" stroke="black" cx="558" cy="-7" rx="7" ry="7"/>
</g>
<!-- predictions_model&#45;&gt;predictions_model_output_port -->
<g id="edge14" class="edge"><title>predictions_model&#45;&gt;predictions_model_output_port</title>
<path fill="none" stroke="black" d="M558,-50.3028C558,-41.6846 558,-32.0022 558,-24.0776"/>
<polygon fill="black" stroke="black" points="561.5,-24.0535 558,-14.0535 554.5,-24.0535 561.5,-24.0535"/>
</g>
<!-- models -->
<g id="node4" class="node"><title>models</title>
<path fill="#ffffcc" stroke="black" d="M230.5,-216.5C230.5,-216.5 543.5,-216.5 543.5,-216.5 549.5,-216.5 555.5,-222.5 555.5,-228.5 555.5,-228.5 555.5,-250.5 555.5,-250.5 555.5,-256.5 549.5,-262.5 543.5,-262.5 543.5,-262.5 230.5,-262.5 230.5,-262.5 224.5,-262.5 218.5,-256.5 218.5,-250.5 218.5,-250.5 218.5,-228.5 218.5,-228.5 218.5,-222.5 224.5,-216.5 230.5,-216.5"/>
<text text-anchor="middle" x="387" y="-247.3" font-family="Helvetica,sans-Serif" font-size="14.00">models</text>
<polyline fill="none" stroke="black" points="218.5,-239.5 555.5,-239.5 "/>
<text text-anchor="middle" x="387" y="-224.3" font-family="Helvetica,sans-Serif" font-size="14.00">file:/.output/{session_id}/{run_id}/{label}.models.rds</text>
</g>
<!-- models&#45;&gt;predict_paleocar_models -->
<g id="edge5" class="edge"><title>models&#45;&gt;predict_paleocar_models</title>
<path fill="none" stroke="black" d="M387,-216.366C387,-208.152 387,-198.658 387,-189.725"/>
<polygon fill="black" stroke="black" points="390.5,-189.607 387,-179.607 383.5,-189.607 390.5,-189.607"/>
</g>
<!-- prediction.years -->
<g id="node5" class="node"><title>prediction.years</title>
<path fill="#ffffcc" stroke="black" d="M753.5,-257.5C753.5,-257.5 660.5,-257.5 660.5,-257.5 654.5,-257.5 648.5,-251.5 648.5,-245.5 648.5,-245.5 648.5,-233.5 648.5,-233.5 648.5,-227.5 654.5,-221.5 660.5,-221.5 660.5,-221.5 753.5,-221.5 753.5,-221.5 759.5,-221.5 765.5,-227.5 765.5,-233.5 765.5,-233.5 765.5,-245.5 765.5,-245.5 765.5,-251.5 759.5,-257.5 753.5,-257.5"/>
<text text-anchor="middle" x="707" y="-235.8" font-family="Helvetica,sans-Serif" font-size="14.00">prediction.years</text>
</g>
<!-- prediction.years&#45;&gt;predict_paleocar_models -->
<g id="edge7" class="edge"><title>prediction.years&#45;&gt;predict_paleocar_models</title>
<path fill="none" stroke="black" d="M658.137,-221.483C652.057,-219.545 645.904,-217.67 640,-216 595.427,-203.395 545.879,-191.484 502.529,-181.741"/>
<polygon fill="black" stroke="black" points="503.04,-178.269 492.517,-179.505 501.513,-185.101 503.04,-178.269"/>
</g>
<!-- meanvariance -->
<g id="node6" class="node"><title>meanvariance</title>
<path fill="#fcfcfc" stroke="black" d="M116,-257.5C116,-257.5 36,-257.5 36,-257.5 30,-257.5 24,-251.5 24,-245.5 24,-245.5 24,-233.5 24,-233.5 24,-227.5 30,-221.5 36,-221.5 36,-221.5 116,-221.5 116,-221.5 122,-221.5 128,-227.5 128,-233.5 128,-233.5 128,-245.5 128,-245.5 128,-251.5 122,-257.5 116,-257.5"/>
<text text-anchor="middle" x="76" y="-235.8" font-family="Helvetica,sans-Serif" font-size="14.00">meanvariance</text>
</g>
<!-- meanvariance&#45;&gt;predict_paleocar_models -->
<g id="edge3" class="edge"><title>meanvariance&#45;&gt;predict_paleocar_models</title>
<path fill="none" stroke="black" d="M120.427,-221.392C125.973,-219.47 131.594,-217.623 137,-216 179.975,-203.1 227.806,-191.3 270.03,-181.73"/>
<polygon fill="black" stroke="black" points="270.802,-185.144 279.79,-179.534 269.265,-178.314 270.802,-185.144"/>
</g>
<!-- floor -->
<g id="node7" class="node"><title>floor</title>
<path fill="#fcfcfc" stroke="black" d="M188,-257.5C188,-257.5 158,-257.5 158,-257.5 152,-257.5 146,-251.5 146,-245.5 146,-245.5 146,-233.5 146,-233.5 146,-227.5 152,-221.5 158,-221.5 158,-221.5 188,-221.5 188,-221.5 194,-221.5 200,-227.5 200,-233.5 200,-233.5 200,-245.5 200,-245.5 200,-251.5 194,-257.5 188,-257.5"/>
<text text-anchor="middle" x="173" y="-235.8" font-family="Helvetica,sans-Serif" font-size="14.00">floor</text>
</g>
<!-- floor&#45;&gt;predict_paleocar_models -->
<g id="edge4" class="edge"><title>floor&#45;&gt;predict_paleocar_models</title>
<path fill="none" stroke="black" d="M198.934,-221.276C202.256,-219.374 205.663,-217.563 209,-216 236.657,-203.045 267.969,-191.724 296.535,-182.581"/>
<polygon fill="black" stroke="black" points="297.622,-185.908 306.108,-179.565 295.519,-179.232 297.622,-185.908"/>
</g>
<!-- ceiling -->
<g id="node8" class="node"><title>ceiling</title>
<path fill="#fcfcfc" stroke="black" d="M618.5,-257.5C618.5,-257.5 585.5,-257.5 585.5,-257.5 579.5,-257.5 573.5,-251.5 573.5,-245.5 573.5,-245.5 573.5,-233.5 573.5,-233.5 573.5,-227.5 579.5,-221.5 585.5,-221.5 585.5,-221.5 618.5,-221.5 618.5,-221.5 624.5,-221.5 630.5,-227.5 630.5,-233.5 630.5,-233.5 630.5,-245.5 630.5,-245.5 630.5,-251.5 624.5,-257.5 618.5,-257.5"/>
<text text-anchor="middle" x="602" y="-235.8" font-family="Helvetica,sans-Serif" font-size="14.00">ceiling</text>
</g>
<!-- ceiling&#45;&gt;predict_paleocar_models -->
<g id="edge6" class="edge"><title>ceiling&#45;&gt;predict_paleocar_models</title>
<path fill="none" stroke="black" d="M575.314,-221.297C571.905,-219.391 568.414,-217.574 565,-216 537.132,-203.153 505.632,-191.831 476.96,-182.654"/>
<polygon fill="black" stroke="black" points="477.945,-179.294 467.355,-179.625 475.839,-185.97 477.945,-179.294"/>
</g>
<!-- meanvariance_input_port -->
<g id="node9" class="node"><title>meanvariance_input_port</title>
<ellipse fill="#ffffff" stroke="black" cx="76" cy="-306" rx="7" ry="7"/>
</g>
<!-- meanvariance_input_port&#45;&gt;meanvariance -->
<g id="edge8" class="edge"><title>meanvariance_input_port&#45;&gt;meanvariance</title>
<path fill="none" stroke="black" d="M76,-298.58C76,-291.358 76,-279.151 76,-267.786"/>
<polygon fill="black" stroke="black" points="79.5001,-267.753 76,-257.753 72.5001,-267.753 79.5001,-267.753"/>
</g>
<!-- floor_input_port -->
<g id="node10" class="node"><title>floor_input_port</title>
<ellipse fill="#ffffff" stroke="black" cx="173" cy="-306" rx="7" ry="7"/>
</g>
<!-- floor_input_port&#45;&gt;floor -->
<g id="edge9" class="edge"><title>floor_input_port&#45;&gt;floor</title>
<path fill="none" stroke="black" d="M173,-298.58C173,-291.358 173,-279.151 173,-267.786"/>
<polygon fill="black" stroke="black" points="176.5,-267.753 173,-257.753 169.5,-267.753 176.5,-267.753"/>
</g>
<!-- models_input_port -->
<g id="node11" class="node"><title>models_input_port</title>
<ellipse fill="#ffffff" stroke="black" cx="387" cy="-306" rx="7" ry="7"/>
</g>
<!-- models_input_port&#45;&gt;models -->
<g id="edge10" class="edge"><title>models_input_port&#45;&gt;models</title>
<path fill="none" stroke="black" d="M387,-298.58C387,-292.384 387,-282.516 387,-272.66"/>
<polygon fill="black" stroke="black" points="390.5,-272.548 387,-262.548 383.5,-272.548 390.5,-272.548"/>
</g>
<!-- ceiling_input_port -->
<g id="node12" class="node"><title>ceiling_input_port</title>
<ellipse fill="#ffffff" stroke="black" cx="602" cy="-306" rx="7" ry="7"/>
</g>
<!-- ceiling_input_port&#45;&gt;ceiling -->
<g id="edge11" class="edge"><title>ceiling_input_port&#45;&gt;ceiling</title>
<path fill="none" stroke="black" d="M602,-298.58C602,-291.358 602,-279.151 602,-267.786"/>
<polygon fill="black" stroke="black" points="605.5,-267.753 602,-257.753 598.5,-267.753 605.5,-267.753"/>
</g>
<!-- prediction.years_input_port -->
<g id="node13" class="node"><title>prediction.years_input_port</title>
<ellipse fill="#ffffff" stroke="black" cx="707" cy="-306" rx="7" ry="7"/>
</g>
<!-- prediction.years_input_port&#45;&gt;prediction.years -->
<g id="edge12" class="edge"><title>prediction.years_input_port&#45;&gt;prediction.years</title>
<path fill="none" stroke="black" d="M707,-298.58C707,-291.358 707,-279.151 707,-267.786"/>
<polygon fill="black" stroke="black" points="710.5,-267.753 707,-257.753 703.5,-267.753 710.5,-267.753"/>
</g>
</g>
</svg>
