<?xml version="1.0" encoding="UTF-8" standalone="no"?>
<!DOCTYPE svg PUBLIC "-//W3C//DTD SVG 1.1//EN"
 "http://www.w3.org/Graphics/SVG/1.1/DTD/svg11.dtd">
<!-- Generated by graphviz version 2.38.0 (20140413.2041)
 -->
<!-- Title: Workflow Pages: 1 -->
<svg width="618pt" height="336pt"
 viewBox="0.00 0.00 618.00 336.00" xmlns="http://www.w3.org/2000/svg" xmlns:xlink="http://www.w3.org/1999/xlink">
<g id="graph0" class="graph" transform="scale(1 1) rotate(0) translate(4 332)">
<title>Workflow</title>
<polygon fill="white" stroke="none" points="-4,4 -4,-332 614,-332 614,4 -4,4"/>
<text text-anchor="middle" x="305" y="-309.6" font-family="Helvetica,sans-Serif" font-size="18.00">predict_paleocar_models</text>
<g id="clust1" class="cluster"><title>cluster_workflow_box_outer</title>
<polygon fill="none" stroke="black" stroke-width="2" points="62,-8 62,-292 548,-292 548,-8 62,-8"/>
</g>
<g id="clust2" class="cluster"><title>cluster_workflow_box_inner</title>
<polygon fill="none" stroke="black" stroke-width="0" points="70,-16 70,-284 540,-284 540,-16 70,-16"/>
</g>
<g id="clust3" class="cluster"><title>cluster_input_ports_group_outer</title>
<polygon fill="none" stroke="black" stroke-width="0" points="8,-63 8,-237 54,-237 54,-63 8,-63"/>
</g>
<g id="clust4" class="cluster"><title>cluster_input_ports_group_inner</title>
<polygon fill="none" stroke="black" stroke-width="0" points="16,-71 16,-229 46,-229 46,-71 16,-71"/>
</g>
<g id="clust5" class="cluster"><title>cluster_output_ports_group_outer</title>
<polygon fill="none" stroke="black" stroke-width="0" points="556,-127 556,-173 602,-173 602,-127 556,-127"/>
</g>
<g id="clust6" class="cluster"><title>cluster_output_ports_group_inner</title>
<polygon fill="none" stroke="black" stroke-width="0" points="564,-135 564,-165 594,-165 594,-135 564,-135"/>
</g>
<!-- predict_paleocar_models -->
<g id="node1" class="node"><title>predict_paleocar_models</title>
<polygon fill="#ccffcc" stroke="black" points="410,-168 231,-168 231,-132 410,-132 410,-168"/>
<text text-anchor="middle" x="320.5" y="-146.3" font-family="Helvetica,sans-Serif" font-size="14.00">predict_paleocar_models</text>
</g>
<!-- predictions -->
<g id="node2" class="node"><title>predictions</title>
<path fill="#ffffcc" stroke="black" d="M520,-168C520,-168 458,-168 458,-168 452,-168 446,-162 446,-156 446,-156 446,-144 446,-144 446,-138 452,-132 458,-132 458,-132 520,-132 520,-132 526,-132 532,-138 532,-144 532,-144 532,-156 532,-156 532,-162 526,-168 520,-168"/>
<text text-anchor="middle" x="489" y="-146.3" font-family="Helvetica,sans-Serif" font-size="14.00">predictions</text>
</g>
<!-- predict_paleocar_models&#45;&gt;predictions -->
<g id="edge1" class="edge"><title>predict_paleocar_models&#45;&gt;predictions</title>
<path fill="none" stroke="black" d="M410.112,-150C418.849,-150 427.507,-150 435.699,-150"/>
<polygon fill="black" stroke="black" points="435.797,-153.5 445.797,-150 435.797,-146.5 435.797,-153.5"/>
</g>
<!-- predictions_output_port -->
<g id="node13" class="node"><title>predictions_output_port</title>
<ellipse fill="#ffffff" stroke="black" cx="579" cy="-150" rx="7" ry="7"/>
</g>
<!-- predictions&#45;&gt;predictions_output_port -->
<g id="edge12" class="edge"><title>predictions&#45;&gt;predictions_output_port</title>
<path fill="none" stroke="black" d="M532.196,-150C542.749,-150 553.441,-150 561.838,-150"/>
<polygon fill="black" stroke="black" points="561.925,-153.5 571.925,-150 561.925,-146.5 561.925,-153.5"/>
</g>
<!-- models -->
<g id="node3" class="node"><title>models</title>
<path fill="#ffffcc" stroke="black" d="M156.5,-276C156.5,-276 116.5,-276 116.5,-276 110.5,-276 104.5,-270 104.5,-264 104.5,-264 104.5,-252 104.5,-252 104.5,-246 110.5,-240 116.5,-240 116.5,-240 156.5,-240 156.5,-240 162.5,-240 168.5,-246 168.5,-252 168.5,-252 168.5,-264 168.5,-264 168.5,-270 162.5,-276 156.5,-276"/>
<text text-anchor="middle" x="136.5" y="-254.3" font-family="Helvetica,sans-Serif" font-size="14.00">models</text>
</g>
<!-- models&#45;&gt;predict_paleocar_models -->
<g id="edge2" class="edge"><title>models&#45;&gt;predict_paleocar_models</title>
<path fill="none" stroke="black" d="M168.63,-244.336C177.29,-240.279 186.616,-235.666 195,-231 226.643,-213.387 261.037,-190.721 285.641,-173.847"/>
<polygon fill="black" stroke="black" points="287.671,-176.698 293.914,-168.138 283.696,-170.937 287.671,-176.698"/>
</g>
<!-- prediction.years -->
<g id="node4" class="node"><title>prediction.years</title>
<path fill="#ffffcc" stroke="black" d="M183,-222C183,-222 90,-222 90,-222 84,-222 78,-216 78,-210 78,-210 78,-198 78,-198 78,-192 84,-186 90,-186 90,-186 183,-186 183,-186 189,-186 195,-192 195,-198 195,-198 195,-210 195,-210 195,-216 189,-222 183,-222"/>
<text text-anchor="middle" x="136.5" y="-200.3" font-family="Helvetica,sans-Serif" font-size="14.00">prediction.years</text>
</g>
<!-- prediction.years&#45;&gt;predict_paleocar_models -->
<g id="edge3" class="edge"><title>prediction.years&#45;&gt;predict_paleocar_models</title>
<path fill="none" stroke="black" d="M195.086,-186.914C212.133,-181.856 230.996,-176.259 248.772,-170.985"/>
<polygon fill="black" stroke="black" points="249.926,-174.294 258.517,-168.094 247.934,-167.583 249.926,-174.294"/>
</g>
<!-- meanVar -->
<g id="node5" class="node"><title>meanVar</title>
<path fill="#fcfcfc" stroke="black" d="M161.5,-168C161.5,-168 111.5,-168 111.5,-168 105.5,-168 99.5,-162 99.5,-156 99.5,-156 99.5,-144 99.5,-144 99.5,-138 105.5,-132 111.5,-132 111.5,-132 161.5,-132 161.5,-132 167.5,-132 173.5,-138 173.5,-144 173.5,-144 173.5,-156 173.5,-156 173.5,-162 167.5,-168 161.5,-168"/>
<text text-anchor="middle" x="136.5" y="-146.3" font-family="Helvetica,sans-Serif" font-size="14.00">meanVar</text>
</g>
<!-- meanVar&#45;&gt;predict_paleocar_models -->
<g id="edge4" class="edge"><title>meanVar&#45;&gt;predict_paleocar_models</title>
<path fill="none" stroke="black" d="M173.893,-150C187.552,-150 203.816,-150 220.441,-150"/>
<polygon fill="black" stroke="black" points="220.819,-153.5 230.819,-150 220.819,-146.5 220.819,-153.5"/>
</g>
<!-- floor -->
<g id="node6" class="node"><title>floor</title>
<path fill="#fcfcfc" stroke="black" d="M151.5,-114C151.5,-114 121.5,-114 121.5,-114 115.5,-114 109.5,-108 109.5,-102 109.5,-102 109.5,-90 109.5,-90 109.5,-84 115.5,-78 121.5,-78 121.5,-78 151.5,-78 151.5,-78 157.5,-78 163.5,-84 163.5,-90 163.5,-90 163.5,-102 163.5,-102 163.5,-108 157.5,-114 151.5,-114"/>
<text text-anchor="middle" x="136.5" y="-92.3" font-family="Helvetica,sans-Serif" font-size="14.00">floor</text>
</g>
<!-- floor&#45;&gt;predict_paleocar_models -->
<g id="edge5" class="edge"><title>floor&#45;&gt;predict_paleocar_models</title>
<path fill="none" stroke="black" d="M163.576,-103.737C185.838,-110.342 218.916,-120.156 248.884,-129.048"/>
<polygon fill="black" stroke="black" points="247.905,-132.408 258.487,-131.897 249.896,-125.697 247.905,-132.408"/>
</g>
<!-- ceiling -->
<g id="node7" class="node"><title>ceiling</title>
<path fill="#fcfcfc" stroke="black" d="M153,-60C153,-60 120,-60 120,-60 114,-60 108,-54 108,-48 108,-48 108,-36 108,-36 108,-30 114,-24 120,-24 120,-24 153,-24 153,-24 159,-24 165,-30 165,-36 165,-36 165,-48 165,-48 165,-54 159,-60 153,-60"/>
<text text-anchor="middle" x="136.5" y="-38.3" font-family="Helvetica,sans-Serif" font-size="14.00">ceiling</text>
</g>
<!-- ceiling&#45;&gt;predict_paleocar_models -->
<g id="edge6" class="edge"><title>ceiling&#45;&gt;predict_paleocar_models</title>
<path fill="none" stroke="black" d="M165.089,-54.0179C174.7,-58.4491 185.46,-63.69 195,-69 226.643,-86.6129 261.037,-109.279 285.641,-126.153"/>
<polygon fill="black" stroke="black" points="283.696,-129.063 293.914,-131.862 287.671,-123.302 283.696,-129.063"/>
</g>
<!-- models_input_port -->
<g id="node8" class="node"><title>models_input_port</title>
<ellipse fill="#ffffff" stroke="black" cx="31" cy="-214" rx="7" ry="7"/>
</g>
<!-- models_input_port&#45;&gt;models -->
<g id="edge7" class="edge"><title>models_input_port&#45;&gt;models</title>
<path fill="none" stroke="black" d="M37.3872,-217.41C43.2851,-221.057 53.0916,-226.873 62,-231 72.3884,-235.812 83.8964,-240.38 94.663,-244.344"/>
<polygon fill="black" stroke="black" points="93.6944,-247.715 104.289,-247.804 96.0623,-241.128 93.6944,-247.715"/>
</g>
<!-- prediction.years_input_port -->
<g id="node9" class="node"><title>prediction.years_input_port</title>
<ellipse fill="#ffffff" stroke="black" cx="31" cy="-182" rx="7" ry="7"/>
</g>
<!-- prediction.years_input_port&#45;&gt;prediction.years -->
<g id="edge8" class="edge"><title>prediction.years_input_port&#45;&gt;prediction.years</title>
<path fill="none" stroke="black" d="M38.1644,-183.31C44.6545,-184.69 55.6219,-187.021 67.9076,-189.633"/>
<polygon fill="black" stroke="black" points="67.4737,-193.118 77.9829,-191.774 68.9291,-186.271 67.4737,-193.118"/>
</g>
<!-- meanVar_input_port -->
<g id="node10" class="node"><title>meanVar_input_port</title>
<ellipse fill="#ffffff" stroke="black" cx="31" cy="-150" rx="7" ry="7"/>
</g>
<!-- meanVar_input_port&#45;&gt;meanVar -->
<g id="edge9" class="edge"><title>meanVar_input_port&#45;&gt;meanVar</title>
<path fill="none" stroke="black" d="M38.1644,-150C48.2445,-150 69.1249,-150 88.9706,-150"/>
<polygon fill="black" stroke="black" points="89.1917,-153.5 99.1917,-150 89.1916,-146.5 89.1917,-153.5"/>
</g>
<!-- floor_input_port -->
<g id="node11" class="node"><title>floor_input_port</title>
<ellipse fill="#ffffff" stroke="black" cx="31" cy="-118" rx="7" ry="7"/>
</g>
<!-- floor_input_port&#45;&gt;floor -->
<g id="edge10" class="edge"><title>floor_input_port&#45;&gt;floor</title>
<path fill="none" stroke="black" d="M38.1644,-116.69C50.0145,-114.171 76.7908,-108.479 99.2652,-103.702"/>
<polygon fill="black" stroke="black" points="100.166,-107.089 109.219,-101.586 98.7103,-100.242 100.166,-107.089"/>
</g>
<!-- ceiling_input_port -->
<g id="node12" class="node"><title>ceiling_input_port</title>
<ellipse fill="#ffffff" stroke="black" cx="31" cy="-86" rx="7" ry="7"/>
</g>
<!-- ceiling_input_port&#45;&gt;ceiling -->
<g id="edge11" class="edge"><title>ceiling_input_port&#45;&gt;ceiling</title>
<path fill="none" stroke="black" d="M37.3872,-82.5902C43.2851,-78.9428 53.0916,-73.1266 62,-69 73.5641,-63.6432 86.5155,-58.5889 98.2873,-54.3339"/>
<polygon fill="black" stroke="black" points="99.5787,-57.5897 107.842,-50.9586 97.2469,-50.9895 99.5787,-57.5897"/>
</g>
</g>
</svg>
