<?xml version="1.0" encoding="UTF-8" standalone="no"?>
<!DOCTYPE svg PUBLIC "-//W3C//DTD SVG 1.1//EN"
 "http://www.w3.org/Graphics/SVG/1.1/DTD/svg11.dtd">
<!-- Generated by graphviz version 2.38.0 (20140413.2041)
 -->
<!-- Title: Workflow Pages: 1 -->
<svg width="804pt" height="377pt"
 viewBox="0.00 0.00 804.00 377.00" xmlns="http://www.w3.org/2000/svg" xmlns:xlink="http://www.w3.org/1999/xlink">
<g id="graph0" class="graph" transform="scale(1 1) rotate(0) translate(4 373)">
<title>Workflow</title>
<polygon fill="white" stroke="none" points="-4,4 -4,-373 800,-373 800,4 -4,4"/>
<g id="clust1" class="cluster"><title>cluster_workflow_box_outer</title>
<polygon fill="none" stroke="black" stroke-width="2" points="8,-62 8,-307 788,-307 788,-62 8,-62"/>
</g>
<g id="clust2" class="cluster"><title>cluster_workflow_box_inner</title>
<polygon fill="none" stroke="black" stroke-width="0" points="16,-70 16,-299 780,-299 780,-70 16,-70"/>
</g>
<g id="clust3" class="cluster"><title>cluster_input_ports_group_outer</title>
<polygon fill="none" stroke="black" stroke-width="0" points="137,-315 137,-361 311,-361 311,-315 137,-315"/>
</g>
<g id="clust4" class="cluster"><title>cluster_input_ports_group_inner</title>
<polygon fill="none" stroke="black" stroke-width="0" points="145,-323 145,-353 303,-353 303,-323 145,-323"/>
</g>
<g id="clust5" class="cluster"><title>cluster_output_ports_group_outer</title>
<polygon fill="none" stroke="black" stroke-width="0" points="348,-8 348,-54 426,-54 426,-8 348,-8"/>
</g>
<g id="clust6" class="cluster"><title>cluster_output_ports_group_inner</title>
<polygon fill="none" stroke="black" stroke-width="0" points="356,-16 356,-46 418,-46 418,-16 356,-16"/>
</g>
<!-- exrtact_prediction_model -->
<g id="node1" class="node"><title>exrtact_prediction_model</title>
<polygon fill="#ccffcc" stroke="black" points="24,-161.5 24,-207.5 686,-207.5 686,-161.5 24,-161.5"/>
<text text-anchor="middle" x="355" y="-192.3" font-family="Helvetica,sans-Serif" font-size="14.00">exrtact_prediction_model</text>
<polyline fill="none" stroke="black" points="24,-184.5 686,-184.5 "/>
<text text-anchor="middle" x="355" y="-169.3" font-family="Helvetica,sans-Serif" font-size="14.00">extract the rasterbrick reconstruction from a PaleoCAR batch model for the specified prediction period.</text>
</g>
<!-- timeseries_plot_prediction -->
<g id="node2" class="node"><title>timeseries_plot_prediction</title>
<path fill="#ffffcc" stroke="black" d="M71,-78.5C71,-78.5 355,-78.5 355,-78.5 361,-78.5 367,-84.5 367,-90.5 367,-90.5 367,-112.5 367,-112.5 367,-118.5 361,-124.5 355,-124.5 355,-124.5 71,-124.5 71,-124.5 65,-124.5 59,-118.5 59,-112.5 59,-112.5 59,-90.5 59,-90.5 59,-84.5 65,-78.5 71,-78.5"/>
<text text-anchor="middle" x="213" y="-109.3" font-family="Helvetica,sans-Serif" font-size="14.00">timeseries_plot_prediction</text>
<polyline fill="none" stroke="black" points="59,-101.5 367,-101.5 "/>
<text text-anchor="middle" x="213" y="-86.3" font-family="Helvetica,sans-Serif" font-size="14.00">file:/.output/{session_id}/{run_id}/prediction.jpg</text>
</g>
<!-- exrtact_prediction_model&#45;&gt;timeseries_plot_prediction -->
<g id="edge1" class="edge"><title>exrtact_prediction_model&#45;&gt;timeseries_plot_prediction</title>
<path fill="none" stroke="black" d="M316.198,-161.366C299.136,-151.634 278.926,-140.106 260.934,-129.842"/>
<polygon fill="black" stroke="black" points="262.176,-126.522 251.755,-124.607 258.707,-132.602 262.176,-126.522"/>
</g>
<!-- predictions_model -->
<g id="node3" class="node"><title>predictions_model</title>
<path fill="#ffffcc" stroke="black" d="M397,-78.5C397,-78.5 725,-78.5 725,-78.5 731,-78.5 737,-84.5 737,-90.5 737,-90.5 737,-112.5 737,-112.5 737,-118.5 731,-124.5 725,-124.5 725,-124.5 397,-124.5 397,-124.5 391,-124.5 385,-118.5 385,-112.5 385,-112.5 385,-90.5 385,-90.5 385,-84.5 391,-78.5 397,-78.5"/>
<text text-anchor="middle" x="561" y="-109.3" font-family="Helvetica,sans-Serif" font-size="14.00">predictions_model</text>
<polyline fill="none" stroke="black" points="385,-101.5 737,-101.5 "/>
<text text-anchor="middle" x="561" y="-86.3" font-family="Helvetica,sans-Serif" font-size="14.00">file:/.output/{session_id}/{run_id}/{label}.prediction.rds</text>
</g>
<!-- exrtact_prediction_model&#45;&gt;predictions_model -->
<g id="edge2" class="edge"><title>exrtact_prediction_model&#45;&gt;predictions_model</title>
<path fill="none" stroke="black" d="M411.018,-161.473C437.129,-151.206 468.367,-138.924 495.559,-128.232"/>
<polygon fill="black" stroke="black" points="496.967,-131.439 504.993,-124.522 494.406,-124.924 496.967,-131.439"/>
</g>
<!-- timeseries_plot_prediction_output_port -->
<g id="node14" class="node"><title>timeseries_plot_prediction_output_port</title>
<ellipse fill="#ffffff" stroke="black" cx="371" cy="-31" rx="7" ry="7"/>
</g>
<!-- timeseries_plot_prediction&#45;&gt;timeseries_plot_prediction_output_port -->
<g id="edge13" class="edge"><title>timeseries_plot_prediction&#45;&gt;timeseries_plot_prediction_output_port</title>
<path fill="none" stroke="black" d="M263.862,-78.4491C295.512,-64.7273 334.094,-48.0006 355.246,-38.8302"/>
<polygon fill="black" stroke="black" points="356.806,-41.9684 364.589,-34.7795 354.022,-35.546 356.806,-41.9684"/>
</g>
<!-- predictions_model_output_port -->
<g id="node15" class="node"><title>predictions_model_output_port</title>
<ellipse fill="#ffffff" stroke="black" cx="403" cy="-31" rx="7" ry="7"/>
</g>
<!-- predictions_model&#45;&gt;predictions_model_output_port -->
<g id="edge14" class="edge"><title>predictions_model&#45;&gt;predictions_model_output_port</title>
<path fill="none" stroke="black" d="M510.138,-78.4491C478.488,-64.7273 439.906,-48.0006 418.754,-38.8302"/>
<polygon fill="black" stroke="black" points="419.978,-35.546 409.411,-34.7795 417.194,-41.9684 419.978,-35.546"/>
</g>
<!-- models -->
<g id="node4" class="node"><title>models</title>
<path fill="#ffffcc" stroke="black" d="M446.5,-244.5C446.5,-244.5 759.5,-244.5 759.5,-244.5 765.5,-244.5 771.5,-250.5 771.5,-256.5 771.5,-256.5 771.5,-278.5 771.5,-278.5 771.5,-284.5 765.5,-290.5 759.5,-290.5 759.5,-290.5 446.5,-290.5 446.5,-290.5 440.5,-290.5 434.5,-284.5 434.5,-278.5 434.5,-278.5 434.5,-256.5 434.5,-256.5 434.5,-250.5 440.5,-244.5 446.5,-244.5"/>
<text text-anchor="middle" x="603" y="-275.3" font-family="Helvetica,sans-Serif" font-size="14.00">models</text>
<polyline fill="none" stroke="black" points="434.5,-267.5 771.5,-267.5 "/>
<text text-anchor="middle" x="603" y="-252.3" font-family="Helvetica,sans-Serif" font-size="14.00">file:/.output/{session_id}/{run_id}/{label}.models.rds</text>
</g>
<!-- models&#45;&gt;exrtact_prediction_model -->
<g id="edge5" class="edge"><title>models&#45;&gt;exrtact_prediction_model</title>
<path fill="none" stroke="black" d="M535.56,-244.473C503.577,-234.027 465.203,-221.494 432.073,-210.673"/>
<polygon fill="black" stroke="black" points="433.019,-207.3 422.426,-207.522 430.845,-213.954 433.019,-207.3"/>
</g>
<!-- prediction_years -->
<g id="node5" class="node"><title>prediction_years</title>
<path fill="#ffffcc" stroke="black" d="M404,-285.5C404,-285.5 306,-285.5 306,-285.5 300,-285.5 294,-279.5 294,-273.5 294,-273.5 294,-261.5 294,-261.5 294,-255.5 300,-249.5 306,-249.5 306,-249.5 404,-249.5 404,-249.5 410,-249.5 416,-255.5 416,-261.5 416,-261.5 416,-273.5 416,-273.5 416,-279.5 410,-285.5 404,-285.5"/>
<text text-anchor="middle" x="355" y="-263.8" font-family="Helvetica,sans-Serif" font-size="14.00">prediction_years</text>
</g>
<!-- prediction_years&#45;&gt;exrtact_prediction_model -->
<g id="edge7" class="edge"><title>prediction_years&#45;&gt;exrtact_prediction_model</title>
<path fill="none" stroke="black" d="M355,-249.322C355,-240.102 355,-228.435 355,-217.606"/>
<polygon fill="black" stroke="black" points="358.5,-217.587 355,-207.587 351.5,-217.587 358.5,-217.587"/>
</g>
<!-- meanvariance -->
<g id="node6" class="node"><title>meanvariance</title>
<path fill="#fcfcfc" stroke="black" d="M264,-285.5C264,-285.5 184,-285.5 184,-285.5 178,-285.5 172,-279.5 172,-273.5 172,-273.5 172,-261.5 172,-261.5 172,-255.5 178,-249.5 184,-249.5 184,-249.5 264,-249.5 264,-249.5 270,-249.5 276,-255.5 276,-261.5 276,-261.5 276,-273.5 276,-273.5 276,-279.5 270,-285.5 264,-285.5"/>
<text text-anchor="middle" x="224" y="-263.8" font-family="Helvetica,sans-Serif" font-size="14.00">meanvariance</text>
</g>
<!-- meanvariance&#45;&gt;exrtact_prediction_model -->
<g id="edge3" class="edge"><title>meanvariance&#45;&gt;exrtact_prediction_model</title>
<path fill="none" stroke="black" d="M251.782,-249.322C268.846,-238.771 291.091,-225.016 310.559,-212.979"/>
<polygon fill="black" stroke="black" points="312.615,-215.823 319.279,-207.587 308.933,-209.869 312.615,-215.823"/>
</g>
<!-- floor -->
<g id="node7" class="node"><title>floor</title>
<path fill="#fcfcfc" stroke="black" d="M142,-285.5C142,-285.5 112,-285.5 112,-285.5 106,-285.5 100,-279.5 100,-273.5 100,-273.5 100,-261.5 100,-261.5 100,-255.5 106,-249.5 112,-249.5 112,-249.5 142,-249.5 142,-249.5 148,-249.5 154,-255.5 154,-261.5 154,-261.5 154,-273.5 154,-273.5 154,-279.5 148,-285.5 142,-285.5"/>
<text text-anchor="middle" x="127" y="-263.8" font-family="Helvetica,sans-Serif" font-size="14.00">floor</text>
</g>
<!-- floor&#45;&gt;exrtact_prediction_model -->
<g id="edge4" class="edge"><title>floor&#45;&gt;exrtact_prediction_model</title>
<path fill="none" stroke="black" d="M152.502,-249.433C155.955,-247.459 159.512,-245.588 163,-244 192.19,-230.712 225.209,-219.418 255.53,-210.4"/>
<polygon fill="black" stroke="black" points="256.655,-213.718 265.272,-207.553 254.691,-206.999 256.655,-213.718"/>
</g>
<!-- ceiling -->
<g id="node8" class="node"><title>ceiling</title>
<path fill="#fcfcfc" stroke="black" d="M69.5,-285.5C69.5,-285.5 36.5,-285.5 36.5,-285.5 30.5,-285.5 24.5,-279.5 24.5,-273.5 24.5,-273.5 24.5,-261.5 24.5,-261.5 24.5,-255.5 30.5,-249.5 36.5,-249.5 36.5,-249.5 69.5,-249.5 69.5,-249.5 75.5,-249.5 81.5,-255.5 81.5,-261.5 81.5,-261.5 81.5,-273.5 81.5,-273.5 81.5,-279.5 75.5,-285.5 69.5,-285.5"/>
<text text-anchor="middle" x="53" y="-263.8" font-family="Helvetica,sans-Serif" font-size="14.00">ceiling</text>
</g>
<!-- ceiling&#45;&gt;exrtact_prediction_model -->
<g id="edge6" class="edge"><title>ceiling&#45;&gt;exrtact_prediction_model</title>
<path fill="none" stroke="black" d="M79.4489,-249.423C83.2328,-247.402 87.1496,-245.522 91,-244 127.471,-229.588 168.251,-218.352 206.644,-209.755"/>
<polygon fill="black" stroke="black" points="207.855,-213.073 216.874,-207.513 206.357,-206.235 207.855,-213.073"/>
</g>
<!-- meanvariance_input_port -->
<g id="node9" class="node"><title>meanvariance_input_port</title>
<ellipse fill="#ffffff" stroke="black" cx="224" cy="-338" rx="7" ry="7"/>
</g>
<!-- meanvariance_input_port&#45;&gt;meanvariance -->
<g id="edge8" class="edge"><title>meanvariance_input_port&#45;&gt;meanvariance</title>
<path fill="none" stroke="black" d="M224,-330.678C224,-322.761 224,-308.681 224,-295.92"/>
<polygon fill="black" stroke="black" points="227.5,-295.675 224,-285.675 220.5,-295.675 227.5,-295.675"/>
</g>
<!-- floor_input_port -->
<g id="node10" class="node"><title>floor_input_port</title>
<ellipse fill="#ffffff" stroke="black" cx="192" cy="-338" rx="7" ry="7"/>
</g>
<!-- floor_input_port&#45;&gt;floor -->
<g id="edge9" class="edge"><title>floor_input_port&#45;&gt;floor</title>
<path fill="none" stroke="black" d="M188.832,-331.472C185.921,-326.718 181.268,-319.876 176,-315 171.021,-310.391 168.252,-311.294 163,-307 157.886,-302.819 152.793,-297.935 148.117,-293.076"/>
<polygon fill="black" stroke="black" points="150.528,-290.529 141.167,-285.567 145.391,-295.284 150.528,-290.529"/>
</g>
<!-- models_input_port -->
<g id="node11" class="node"><title>models_input_port</title>
<ellipse fill="#ffffff" stroke="black" cx="288" cy="-338" rx="7" ry="7"/>
</g>
<!-- models_input_port&#45;&gt;models -->
<g id="edge10" class="edge"><title>models_input_port&#45;&gt;models</title>
<path fill="none" stroke="black" d="M294.579,-335.569C319.997,-330.042 414.23,-309.55 491.918,-292.656"/>
<polygon fill="black" stroke="black" points="492.76,-296.055 501.788,-290.51 491.273,-289.215 492.76,-296.055"/>
</g>
<!-- ceiling_input_port -->
<g id="node12" class="node"><title>ceiling_input_port</title>
<ellipse fill="#ffffff" stroke="black" cx="160" cy="-338" rx="7" ry="7"/>
</g>
<!-- ceiling_input_port&#45;&gt;ceiling -->
<g id="edge11" class="edge"><title>ceiling_input_port&#45;&gt;ceiling</title>
<path fill="none" stroke="black" d="M153.496,-335.095C140.749,-331.17 111.9,-321.33 91,-307 85.1714,-303.004 79.486,-298.03 74.3633,-292.999"/>
<polygon fill="black" stroke="black" points="76.7736,-290.457 67.3094,-285.695 71.7382,-295.319 76.7736,-290.457"/>
</g>
<!-- prediction_years_input_port -->
<g id="node13" class="node"><title>prediction_years_input_port</title>
<ellipse fill="#ffffff" stroke="black" cx="256" cy="-338" rx="7" ry="7"/>
</g>
<!-- prediction_years_input_port&#45;&gt;prediction_years -->
<g id="edge12" class="edge"><title>prediction_years_input_port&#45;&gt;prediction_years</title>
<path fill="none" stroke="black" d="M259.119,-331.418C261.999,-326.629 266.633,-319.768 272,-315 273.977,-313.244 294.742,-301.611 315.006,-290.42"/>
<polygon fill="black" stroke="black" points="316.838,-293.407 323.906,-285.515 313.459,-287.277 316.838,-293.407"/>
</g>
</g>
</svg>
