<?xml version="1.0" encoding="UTF-8" standalone="no"?>
<!DOCTYPE svg PUBLIC "-//W3C//DTD SVG 1.1//EN"
 "http://www.w3.org/Graphics/SVG/1.1/DTD/svg11.dtd">
<!-- Generated by graphviz version 2.38.0 (20140413.2041)
 -->
<!-- Title: Workflow Pages: 1 -->
<svg width="394pt" height="355pt"
 viewBox="0.00 0.00 394.00 355.00" xmlns="http://www.w3.org/2000/svg" xmlns:xlink="http://www.w3.org/1999/xlink">
<g id="graph0" class="graph" transform="scale(1 1) rotate(0) translate(4 351)">
<title>Workflow</title>
<polygon fill="white" stroke="none" points="-4,4 -4,-351 390,-351 390,4 -4,4"/>
<g id="clust1" class="cluster"><title>cluster_workflow_box_outer</title>
<polygon fill="none" stroke="black" stroke-width="2" points="8,-62 8,-285 378,-285 378,-62 8,-62"/>
</g>
<g id="clust2" class="cluster"><title>cluster_workflow_box_inner</title>
<polygon fill="none" stroke="black" stroke-width="0" points="16,-70 16,-277 370,-277 370,-70 16,-70"/>
</g>
<g id="clust3" class="cluster"><title>cluster_input_ports_group_outer</title>
<polygon fill="none" stroke="black" stroke-width="0" points="152,-293 152,-339 230,-339 230,-293 152,-293"/>
</g>
<g id="clust4" class="cluster"><title>cluster_input_ports_group_inner</title>
<polygon fill="none" stroke="black" stroke-width="0" points="160,-301 160,-331 222,-331 222,-301 160,-301"/>
</g>
<g id="clust5" class="cluster"><title>cluster_output_ports_group_outer</title>
<polygon fill="none" stroke="black" stroke-width="0" points="168,-8 168,-54 214,-54 214,-8 168,-8"/>
</g>
<g id="clust6" class="cluster"><title>cluster_output_ports_group_inner</title>
<polygon fill="none" stroke="black" stroke-width="0" points="176,-16 176,-46 206,-46 206,-16 176,-16"/>
</g>
<!-- gen_boundary_region -->
<g id="node1" class="node"><title>gen_boundary_region</title>
<polygon fill="#ccffcc" stroke="black" points="268.5,-186 113.5,-186 113.5,-150 268.5,-150 268.5,-186"/>
<text text-anchor="middle" x="191" y="-164.3" font-family="Helvetica,sans-Serif" font-size="14.00">gen_boundary_region</text>
</g>
<!-- boundary_coordinates -->
<g id="node2" class="node"><title>boundary_coordinates</title>
<path fill="#ffffcc" stroke="black" d="M258,-114C258,-114 124,-114 124,-114 118,-114 112,-108 112,-102 112,-102 112,-90 112,-90 112,-84 118,-78 124,-78 124,-78 258,-78 258,-78 264,-78 270,-84 270,-90 270,-90 270,-102 270,-102 270,-108 264,-114 258,-114"/>
<text text-anchor="middle" x="191" y="-92.3" font-family="Helvetica,sans-Serif" font-size="14.00">boundary_coordinates</text>
</g>
<!-- gen_boundary_region&#45;&gt;boundary_coordinates -->
<g id="edge1" class="edge"><title>gen_boundary_region&#45;&gt;boundary_coordinates</title>
<path fill="none" stroke="black" d="M191,-149.697C191,-141.983 191,-132.712 191,-124.112"/>
<polygon fill="black" stroke="black" points="194.5,-124.104 191,-114.104 187.5,-124.104 194.5,-124.104"/>
</g>
<!-- boundary_coordinates_output_port -->
<g id="node7" class="node"><title>boundary_coordinates_output_port</title>
<ellipse fill="#ffffff" stroke="black" cx="191" cy="-31" rx="7" ry="7"/>
</g>
<!-- boundary_coordinates&#45;&gt;boundary_coordinates_output_port -->
<g id="edge6" class="edge"><title>boundary_coordinates&#45;&gt;boundary_coordinates_output_port</title>
<path fill="none" stroke="black" d="M191,-77.785C191,-68.6656 191,-57.5197 191,-48.5085"/>
<polygon fill="black" stroke="black" points="194.5,-48.242 191,-38.242 187.5,-48.2421 194.5,-48.242"/>
</g>
<!-- user_map_marker_pos -->
<g id="node3" class="node"><title>user_map_marker_pos</title>
<path fill="#ffffcc" stroke="black" d="M350,-263.5C350,-263.5 210,-263.5 210,-263.5 204,-263.5 198,-257.5 198,-251.5 198,-251.5 198,-239.5 198,-239.5 198,-233.5 204,-227.5 210,-227.5 210,-227.5 350,-227.5 350,-227.5 356,-227.5 362,-233.5 362,-239.5 362,-239.5 362,-251.5 362,-251.5 362,-257.5 356,-263.5 350,-263.5"/>
<text text-anchor="middle" x="280" y="-241.8" font-family="Helvetica,sans-Serif" font-size="14.00">user_map_marker_pos</text>
</g>
<!-- user_map_marker_pos&#45;&gt;gen_boundary_region -->
<g id="edge2" class="edge"><title>user_map_marker_pos&#45;&gt;gen_boundary_region</title>
<path fill="none" stroke="black" d="M259.805,-227.368C247.743,-217.136 232.244,-203.988 219.011,-192.762"/>
<polygon fill="black" stroke="black" points="221.005,-189.864 211.116,-186.064 216.477,-195.202 221.005,-189.864"/>
</g>
<!-- prism_data -->
<g id="node4" class="node"><title>prism_data</title>
<path fill="#fcfcfc" stroke="black" d="M36.5,-222.5C36.5,-222.5 167.5,-222.5 167.5,-222.5 173.5,-222.5 179.5,-228.5 179.5,-234.5 179.5,-234.5 179.5,-256.5 179.5,-256.5 179.5,-262.5 173.5,-268.5 167.5,-268.5 167.5,-268.5 36.5,-268.5 36.5,-268.5 30.5,-268.5 24.5,-262.5 24.5,-256.5 24.5,-256.5 24.5,-234.5 24.5,-234.5 24.5,-228.5 30.5,-222.5 36.5,-222.5"/>
<text text-anchor="middle" x="102" y="-253.3" font-family="Helvetica,sans-Serif" font-size="14.00">prism_data</text>
<polyline fill="none" stroke="black" points="24.5,-245.5 179.5,-245.5 "/>
<text text-anchor="middle" x="102" y="-230.3" font-family="Helvetica,sans-Serif" font-size="14.00">file:/data/{data_file}.nc</text>
</g>
<!-- prism_data&#45;&gt;gen_boundary_region -->
<g id="edge3" class="edge"><title>prism_data&#45;&gt;gen_boundary_region</title>
<path fill="none" stroke="black" d="M128.222,-222.256C139.197,-212.945 151.968,-202.112 163.114,-192.656"/>
<polygon fill="black" stroke="black" points="165.533,-195.194 170.895,-186.055 161.005,-189.856 165.533,-195.194"/>
</g>
<!-- user_map_marker_pos_input_port -->
<g id="node5" class="node"><title>user_map_marker_pos_input_port</title>
<ellipse fill="#ffffff" stroke="black" cx="207" cy="-316" rx="7" ry="7"/>
</g>
<!-- user_map_marker_pos_input_port&#45;&gt;user_map_marker_pos -->
<g id="edge4" class="edge"><title>user_map_marker_pos_input_port&#45;&gt;user_map_marker_pos</title>
<path fill="none" stroke="black" d="M211.79,-310.506C220.349,-302.474 238.833,-285.129 254.403,-270.519"/>
<polygon fill="black" stroke="black" points="256.858,-273.015 261.756,-263.62 252.068,-267.91 256.858,-273.015"/>
</g>
<!-- prism_data_input_port -->
<g id="node6" class="node"><title>prism_data_input_port</title>
<ellipse fill="#ffffff" stroke="black" cx="175" cy="-316" rx="7" ry="7"/>
</g>
<!-- prism_data_input_port&#45;&gt;prism_data -->
<g id="edge5" class="edge"><title>prism_data_input_port&#45;&gt;prism_data</title>
<path fill="none" stroke="black" d="M170.21,-310.506C162.593,-303.358 147.116,-288.835 132.828,-275.427"/>
<polygon fill="black" stroke="black" points="135.199,-272.853 125.512,-268.563 130.409,-277.958 135.199,-272.853"/>
</g>
</g>
</svg>
