<?xml version="1.0" encoding="UTF-8" standalone="no"?>
<!DOCTYPE svg PUBLIC "-//W3C//DTD SVG 1.1//EN"
 "http://www.w3.org/Graphics/SVG/1.1/DTD/svg11.dtd">
<!-- Generated by graphviz version 2.38.0 (20140413.2041)
 -->
<!-- Title: Workflow Pages: 1 -->
<svg width="688pt" height="174pt"
 viewBox="0.00 0.00 688.00 174.00" xmlns="http://www.w3.org/2000/svg" xmlns:xlink="http://www.w3.org/1999/xlink">
<g id="graph0" class="graph" transform="scale(1 1) rotate(0) translate(4 170)">
<title>Workflow</title>
<polygon fill="white" stroke="none" points="-4,4 -4,-170 684,-170 684,4 -4,4"/>
<text text-anchor="middle" x="340" y="-147.6" font-family="Helvetica,sans-Serif" font-size="18.00">uncertainty_paleocar_models</text>
<g id="clust1" class="cluster"><title>cluster_workflow_box_outer</title>
<polygon fill="none" stroke="black" stroke-width="2" points="62,-8 62,-130 618,-130 618,-8 62,-8"/>
</g>
<g id="clust2" class="cluster"><title>cluster_workflow_box_inner</title>
<polygon fill="none" stroke="black" stroke-width="0" points="70,-16 70,-122 610,-122 610,-16 70,-16"/>
</g>
<g id="clust3" class="cluster"><title>cluster_input_ports_group_outer</title>
<polygon fill="none" stroke="black" stroke-width="0" points="8,-30 8,-108 54,-108 54,-30 8,-30"/>
</g>
<g id="clust4" class="cluster"><title>cluster_input_ports_group_inner</title>
<polygon fill="none" stroke="black" stroke-width="0" points="16,-38 16,-100 46,-100 46,-38 16,-38"/>
</g>
<g id="clust5" class="cluster"><title>cluster_output_ports_group_outer</title>
<polygon fill="none" stroke="black" stroke-width="0" points="626,-46 626,-92 672,-92 672,-46 626,-46"/>
</g>
<g id="clust6" class="cluster"><title>cluster_output_ports_group_inner</title>
<polygon fill="none" stroke="black" stroke-width="0" points="634,-54 634,-84 664,-84 664,-54 634,-54"/>
</g>
<!-- uncertainty_paleocar_models -->
<g id="node1" class="node"><title>uncertainty_paleocar_models</title>
<polygon fill="#ccffcc" stroke="black" points="434,-87 231,-87 231,-51 434,-51 434,-87"/>
<text text-anchor="middle" x="332.5" y="-65.3" font-family="Helvetica,sans-Serif" font-size="14.00">uncertainty_paleocar_models</text>
</g>
<!-- uncertainty_model -->
<g id="node2" class="node"><title>uncertainty_model</title>
<path fill="#ffffcc" stroke="black" d="M590,-87C590,-87 482,-87 482,-87 476,-87 470,-81 470,-75 470,-75 470,-63 470,-63 470,-57 476,-51 482,-51 482,-51 590,-51 590,-51 596,-51 602,-57 602,-63 602,-63 602,-75 602,-75 602,-81 596,-87 590,-87"/>
<text text-anchor="middle" x="536" y="-65.3" font-family="Helvetica,sans-Serif" font-size="14.00">uncertainty_model</text>
</g>
<!-- uncertainty_paleocar_models&#45;&gt;uncertainty_model -->
<g id="edge1" class="edge"><title>uncertainty_paleocar_models&#45;&gt;uncertainty_model</title>
<path fill="none" stroke="black" d="M434.25,-69C442.854,-69 451.457,-69 459.81,-69"/>
<polygon fill="black" stroke="black" points="459.857,-72.5001 469.857,-69 459.857,-65.5001 459.857,-72.5001"/>
</g>
<!-- uncertainty_model_output_port -->
<g id="node7" class="node"><title>uncertainty_model_output_port</title>
<ellipse fill="#ffffff" stroke="black" cx="649" cy="-69" rx="7" ry="7"/>
</g>
<!-- uncertainty_model&#45;&gt;uncertainty_model_output_port -->
<g id="edge6" class="edge"><title>uncertainty_model&#45;&gt;uncertainty_model_output_port</title>
<path fill="none" stroke="black" d="M602.211,-69C613.245,-69 623.75,-69 631.909,-69"/>
<polygon fill="black" stroke="black" points="631.971,-72.5001 641.971,-69 631.971,-65.5001 631.971,-72.5001"/>
</g>
<!-- models -->
<g id="node3" class="node"><title>models</title>
<path fill="#ffffcc" stroke="black" d="M156.5,-114C156.5,-114 116.5,-114 116.5,-114 110.5,-114 104.5,-108 104.5,-102 104.5,-102 104.5,-90 104.5,-90 104.5,-84 110.5,-78 116.5,-78 116.5,-78 156.5,-78 156.5,-78 162.5,-78 168.5,-84 168.5,-90 168.5,-90 168.5,-102 168.5,-102 168.5,-108 162.5,-114 156.5,-114"/>
<text text-anchor="middle" x="136.5" y="-92.3" font-family="Helvetica,sans-Serif" font-size="14.00">models</text>
</g>
<!-- models&#45;&gt;uncertainty_paleocar_models -->
<g id="edge2" class="edge"><title>models&#45;&gt;uncertainty_paleocar_models</title>
<path fill="none" stroke="black" d="M168.669,-91.662C183.263,-89.6309 201.62,-87.076 220.705,-84.4199"/>
<polygon fill="black" stroke="black" points="221.313,-87.8691 230.735,-83.0239 220.348,-80.9359 221.313,-87.8691"/>
</g>
<!-- prediction.years -->
<g id="node4" class="node"><title>prediction.years</title>
<path fill="#ffffcc" stroke="black" d="M183,-60C183,-60 90,-60 90,-60 84,-60 78,-54 78,-48 78,-48 78,-36 78,-36 78,-30 84,-24 90,-24 90,-24 183,-24 183,-24 189,-24 195,-30 195,-36 195,-36 195,-48 195,-48 195,-54 189,-60 183,-60"/>
<text text-anchor="middle" x="136.5" y="-38.3" font-family="Helvetica,sans-Serif" font-size="14.00">prediction.years</text>
</g>
<!-- prediction.years&#45;&gt;uncertainty_paleocar_models -->
<g id="edge3" class="edge"><title>prediction.years&#45;&gt;uncertainty_paleocar_models</title>
<path fill="none" stroke="black" d="M195.181,-50.0278C203.377,-51.1685 212.024,-52.372 220.825,-53.5967"/>
<polygon fill="black" stroke="black" points="220.423,-57.0744 230.81,-54.9864 221.388,-50.1413 220.423,-57.0744"/>
</g>
<!-- models_input_port -->
<g id="node5" class="node"><title>models_input_port</title>
<ellipse fill="#ffffff" stroke="black" cx="31" cy="-85" rx="7" ry="7"/>
</g>
<!-- models_input_port&#45;&gt;models -->
<g id="edge4" class="edge"><title>models_input_port&#45;&gt;models</title>
<path fill="none" stroke="black" d="M38.1644,-85.6552C49.0849,-86.8158 72.6819,-89.3237 93.9063,-91.5794"/>
<polygon fill="black" stroke="black" points="93.7551,-95.083 104.069,-92.6595 94.4949,-88.1222 93.7551,-95.083"/>
</g>
<!-- prediction.years_input_port -->
<g id="node6" class="node"><title>prediction.years_input_port</title>
<ellipse fill="#ffffff" stroke="black" cx="31" cy="-53" rx="7" ry="7"/>
</g>
<!-- prediction.years_input_port&#45;&gt;prediction.years -->
<g id="edge5" class="edge"><title>prediction.years_input_port&#45;&gt;prediction.years</title>
<path fill="none" stroke="black" d="M38.1644,-52.3448C44.6545,-51.6551 55.6219,-50.4895 67.9076,-49.1837"/>
<polygon fill="black" stroke="black" points="68.4088,-52.6503 77.9829,-48.1129 67.6689,-45.6895 68.4088,-52.6503"/>
</g>
</g>
</svg>
