<?xml version="1.0" encoding="UTF-8" standalone="no"?>
<!DOCTYPE svg PUBLIC "-//W3C//DTD SVG 1.1//EN"
 "http://www.w3.org/Graphics/SVG/1.1/DTD/svg11.dtd">
<!-- Generated by graphviz version 2.38.0 (20140413.2041)
 -->
<!-- Title: Workflow Pages: 1 -->
<svg width="746pt" height="321pt"
 viewBox="0.00 0.00 746.00 321.00" xmlns="http://www.w3.org/2000/svg" xmlns:xlink="http://www.w3.org/1999/xlink">
<g id="graph0" class="graph" transform="scale(1 1) rotate(0) translate(4 317)">
<title>Workflow</title>
<polygon fill="white" stroke="none" points="-4,4 -4,-317 742,-317 742,4 -4,4"/>
<g id="clust1" class="cluster"><title>cluster_workflow_box_outer</title>
<polygon fill="none" stroke="black" stroke-width="2" points="8,-34 8,-279 730,-279 730,-34 8,-34"/>
</g>
<g id="clust2" class="cluster"><title>cluster_workflow_box_inner</title>
<polygon fill="none" stroke="black" stroke-width="0" points="16,-42 16,-271 722,-271 722,-42 16,-42"/>
</g>
<!-- uncertainty_paleocar_models -->
<g id="node1" class="node"><title>uncertainty_paleocar_models</title>
<polygon fill="#ccffcc" stroke="black" points="288.5,-133.5 288.5,-179.5 547.5,-179.5 547.5,-133.5 288.5,-133.5"/>
<text text-anchor="middle" x="418" y="-164.3" font-family="Helvetica,sans-Serif" font-size="14.00">uncertainty_paleocar_models</text>
<polyline fill="none" stroke="black" points="288.5,-156.5 547.5,-156.5 "/>
<text text-anchor="middle" x="418" y="-141.3" font-family="Helvetica,sans-Serif" font-size="14.00">Get reconstruction LOOCV uncertainty</text>
</g>
<!-- timeseries_plot_uncertainty -->
<g id="node2" class="node"><title>timeseries_plot_uncertainty</title>
<path fill="#ffffcc" stroke="black" d="M36,-50.5C36,-50.5 326,-50.5 326,-50.5 332,-50.5 338,-56.5 338,-62.5 338,-62.5 338,-84.5 338,-84.5 338,-90.5 332,-96.5 326,-96.5 326,-96.5 36,-96.5 36,-96.5 30,-96.5 24,-90.5 24,-84.5 24,-84.5 24,-62.5 24,-62.5 24,-56.5 30,-50.5 36,-50.5"/>
<text text-anchor="middle" x="181" y="-81.3" font-family="Helvetica,sans-Serif" font-size="14.00">timeseries_plot_uncertainty</text>
<polyline fill="none" stroke="black" points="24,-73.5 338,-73.5 "/>
<text text-anchor="middle" x="181" y="-58.3" font-family="Helvetica,sans-Serif" font-size="14.00">file:/.output/{session_id}/{run_id}/uncertainty.jpg</text>
</g>
<!-- uncertainty_paleocar_models&#45;&gt;timeseries_plot_uncertainty -->
<g id="edge1" class="edge"><title>uncertainty_paleocar_models&#45;&gt;timeseries_plot_uncertainty</title>
<path fill="none" stroke="black" d="M353.552,-133.473C323.118,-123.072 286.63,-110.601 255.062,-99.8124"/>
<polygon fill="black" stroke="black" points="256.03,-96.4444 245.435,-96.5222 253.766,-103.068 256.03,-96.4444"/>
</g>
<!-- uncertainty_model -->
<g id="node3" class="node"><title>uncertainty_model</title>
<path fill="#ffffcc" stroke="black" d="M368.5,-50.5C368.5,-50.5 701.5,-50.5 701.5,-50.5 707.5,-50.5 713.5,-56.5 713.5,-62.5 713.5,-62.5 713.5,-84.5 713.5,-84.5 713.5,-90.5 707.5,-96.5 701.5,-96.5 701.5,-96.5 368.5,-96.5 368.5,-96.5 362.5,-96.5 356.5,-90.5 356.5,-84.5 356.5,-84.5 356.5,-62.5 356.5,-62.5 356.5,-56.5 362.5,-50.5 368.5,-50.5"/>
<text text-anchor="middle" x="535" y="-81.3" font-family="Helvetica,sans-Serif" font-size="14.00">uncertainty_model</text>
<polyline fill="none" stroke="black" points="356.5,-73.5 713.5,-73.5 "/>
<text text-anchor="middle" x="535" y="-58.3" font-family="Helvetica,sans-Serif" font-size="14.00">file:/.output/{session_id}/{run_id}/{label}.uncertainty.rds</text>
</g>
<!-- uncertainty_paleocar_models&#45;&gt;uncertainty_model -->
<g id="edge2" class="edge"><title>uncertainty_paleocar_models&#45;&gt;uncertainty_model</title>
<path fill="none" stroke="black" d="M449.971,-133.366C463.771,-123.812 480.07,-112.528 494.688,-102.409"/>
<polygon fill="black" stroke="black" points="496.838,-105.177 503.068,-96.6068 492.854,-99.4213 496.838,-105.177"/>
</g>
<!-- timeseries_plot_uncertainty_output_port -->
<g id="node8" class="node"><title>timeseries_plot_uncertainty_output_port</title>
<ellipse fill="#ffffff" stroke="black" cx="181" cy="-7" rx="7" ry="7"/>
</g>
<!-- timeseries_plot_uncertainty&#45;&gt;timeseries_plot_uncertainty_output_port -->
<g id="edge7" class="edge"><title>timeseries_plot_uncertainty&#45;&gt;timeseries_plot_uncertainty_output_port</title>
<path fill="none" stroke="black" d="M181,-50.3028C181,-41.6846 181,-32.0022 181,-24.0776"/>
<polygon fill="black" stroke="black" points="184.5,-24.0535 181,-14.0535 177.5,-24.0535 184.5,-24.0535"/>
</g>
<!-- uncertainty_model_output_port -->
<g id="node9" class="node"><title>uncertainty_model_output_port</title>
<ellipse fill="#ffffff" stroke="black" cx="535" cy="-7" rx="7" ry="7"/>
</g>
<!-- uncertainty_model&#45;&gt;uncertainty_model_output_port -->
<g id="edge8" class="edge"><title>uncertainty_model&#45;&gt;uncertainty_model_output_port</title>
<path fill="none" stroke="black" d="M535,-50.3028C535,-41.6846 535,-32.0022 535,-24.0776"/>
<polygon fill="black" stroke="black" points="538.5,-24.0535 535,-14.0535 531.5,-24.0535 538.5,-24.0535"/>
</g>
<!-- models -->
<g id="node4" class="node"><title>models</title>
<path fill="#ffffcc" stroke="black" d="M144.5,-216.5C144.5,-216.5 457.5,-216.5 457.5,-216.5 463.5,-216.5 469.5,-222.5 469.5,-228.5 469.5,-228.5 469.5,-250.5 469.5,-250.5 469.5,-256.5 463.5,-262.5 457.5,-262.5 457.5,-262.5 144.5,-262.5 144.5,-262.5 138.5,-262.5 132.5,-256.5 132.5,-250.5 132.5,-250.5 132.5,-228.5 132.5,-228.5 132.5,-222.5 138.5,-216.5 144.5,-216.5"/>
<text text-anchor="middle" x="301" y="-247.3" font-family="Helvetica,sans-Serif" font-size="14.00">models</text>
<polyline fill="none" stroke="black" points="132.5,-239.5 469.5,-239.5 "/>
<text text-anchor="middle" x="301" y="-224.3" font-family="Helvetica,sans-Serif" font-size="14.00">file:/.output/{session_id}/{run_id}/{label}.models.rds</text>
</g>
<!-- models&#45;&gt;uncertainty_paleocar_models -->
<g id="edge3" class="edge"><title>models&#45;&gt;uncertainty_paleocar_models</title>
<path fill="none" stroke="black" d="M332.971,-216.366C346.771,-206.812 363.07,-195.528 377.688,-185.409"/>
<polygon fill="black" stroke="black" points="379.838,-188.177 386.068,-179.607 375.854,-182.421 379.838,-188.177"/>
</g>
<!-- prediction.years -->
<g id="node5" class="node"><title>prediction.years</title>
<path fill="#ffffcc" stroke="black" d="M592.5,-257.5C592.5,-257.5 499.5,-257.5 499.5,-257.5 493.5,-257.5 487.5,-251.5 487.5,-245.5 487.5,-245.5 487.5,-233.5 487.5,-233.5 487.5,-227.5 493.5,-221.5 499.5,-221.5 499.5,-221.5 592.5,-221.5 592.5,-221.5 598.5,-221.5 604.5,-227.5 604.5,-233.5 604.5,-233.5 604.5,-245.5 604.5,-245.5 604.5,-251.5 598.5,-257.5 592.5,-257.5"/>
<text text-anchor="middle" x="546" y="-235.8" font-family="Helvetica,sans-Serif" font-size="14.00">prediction.years</text>
</g>
<!-- prediction.years&#45;&gt;uncertainty_paleocar_models -->
<g id="edge4" class="edge"><title>prediction.years&#45;&gt;uncertainty_paleocar_models</title>
<path fill="none" stroke="black" d="M518.854,-221.322C502.181,-210.771 480.445,-197.016 461.423,-184.979"/>
<polygon fill="black" stroke="black" points="463.224,-181.977 452.903,-179.587 459.481,-187.892 463.224,-181.977"/>
</g>
<!-- models_input_port -->
<g id="node6" class="node"><title>models_input_port</title>
<ellipse fill="#ffffff" stroke="black" cx="301" cy="-306" rx="7" ry="7"/>
</g>
<!-- models_input_port&#45;&gt;models -->
<g id="edge5" class="edge"><title>models_input_port&#45;&gt;models</title>
<path fill="none" stroke="black" d="M301,-298.58C301,-292.384 301,-282.516 301,-272.66"/>
<polygon fill="black" stroke="black" points="304.5,-272.548 301,-262.548 297.5,-272.548 304.5,-272.548"/>
</g>
<!-- prediction.years_input_port -->
<g id="node7" class="node"><title>prediction.years_input_port</title>
<ellipse fill="#ffffff" stroke="black" cx="546" cy="-306" rx="7" ry="7"/>
</g>
<!-- prediction.years_input_port&#45;&gt;prediction.years -->
<g id="edge6" class="edge"><title>prediction.years_input_port&#45;&gt;prediction.years</title>
<path fill="none" stroke="black" d="M546,-298.58C546,-291.358 546,-279.151 546,-267.786"/>
<polygon fill="black" stroke="black" points="549.5,-267.753 546,-257.753 542.5,-267.753 549.5,-267.753"/>
</g>
</g>
</svg>
