<?xml version="1.0" encoding="UTF-8" standalone="no"?>
<!DOCTYPE svg PUBLIC "-//W3C//DTD SVG 1.1//EN"
 "http://www.w3.org/Graphics/SVG/1.1/DTD/svg11.dtd">
<!-- Generated by graphviz version 2.38.0 (20140413.2041)
 -->
<!-- Title: Workflow Pages: 1 -->
<svg width="746pt" height="377pt"
 viewBox="0.00 0.00 746.00 377.00" xmlns="http://www.w3.org/2000/svg" xmlns:xlink="http://www.w3.org/1999/xlink">
<g id="graph0" class="graph" transform="scale(1 1) rotate(0) translate(4 373)">
<title>Workflow</title>
<polygon fill="white" stroke="none" points="-4,4 -4,-373 742,-373 742,4 -4,4"/>
<g id="clust1" class="cluster"><title>cluster_workflow_box_outer</title>
<polygon fill="none" stroke="black" stroke-width="2" points="8,-62 8,-307 730,-307 730,-62 8,-62"/>
</g>
<g id="clust2" class="cluster"><title>cluster_workflow_box_inner</title>
<polygon fill="none" stroke="black" stroke-width="0" points="16,-70 16,-299 722,-299 722,-70 16,-70"/>
</g>
<g id="clust3" class="cluster"><title>cluster_input_ports_group_outer</title>
<polygon fill="none" stroke="black" stroke-width="0" points="312,-315 312,-361 390,-361 390,-315 312,-315"/>
</g>
<g id="clust4" class="cluster"><title>cluster_input_ports_group_inner</title>
<polygon fill="none" stroke="black" stroke-width="0" points="320,-323 320,-353 382,-353 382,-323 320,-323"/>
</g>
<g id="clust5" class="cluster"><title>cluster_output_ports_group_outer</title>
<polygon fill="none" stroke="black" stroke-width="0" points="319,-8 319,-54 397,-54 397,-8 319,-8"/>
</g>
<g id="clust6" class="cluster"><title>cluster_output_ports_group_inner</title>
<polygon fill="none" stroke="black" stroke-width="0" points="327,-16 327,-46 389,-46 389,-16 327,-16"/>
</g>
<!-- extract_uncertainty_model -->
<g id="node1" class="node"><title>extract_uncertainty_model</title>
<polygon fill="#ccffcc" stroke="black" points="59,-161.5 59,-207.5 679,-207.5 679,-161.5 59,-161.5"/>
<text text-anchor="middle" x="369" y="-192.3" font-family="Helvetica,sans-Serif" font-size="14.00">extract_uncertainty_model</text>
<polyline fill="none" stroke="black" points="59,-184.5 679,-184.5 "/>
<text text-anchor="middle" x="369" y="-169.3" font-family="Helvetica,sans-Serif" font-size="14.00">extract the LOOCV uncertainty information from the set of Paleocar models for specified period.</text>
</g>
<!-- timeseries_plot_uncertainty -->
<g id="node2" class="node"><title>timeseries_plot_uncertainty</title>
<path fill="#ffffcc" stroke="black" d="M36,-78.5C36,-78.5 326,-78.5 326,-78.5 332,-78.5 338,-84.5 338,-90.5 338,-90.5 338,-112.5 338,-112.5 338,-118.5 332,-124.5 326,-124.5 326,-124.5 36,-124.5 36,-124.5 30,-124.5 24,-118.5 24,-112.5 24,-112.5 24,-90.5 24,-90.5 24,-84.5 30,-78.5 36,-78.5"/>
<text text-anchor="middle" x="181" y="-109.3" font-family="Helvetica,sans-Serif" font-size="14.00">timeseries_plot_uncertainty</text>
<polyline fill="none" stroke="black" points="24,-101.5 338,-101.5 "/>
<text text-anchor="middle" x="181" y="-86.3" font-family="Helvetica,sans-Serif" font-size="14.00">file:/.output/{session_id}/{run_id}/uncertainty.jpg</text>
</g>
<!-- extract_uncertainty_model&#45;&gt;timeseries_plot_uncertainty -->
<g id="edge1" class="edge"><title>extract_uncertainty_model&#45;&gt;timeseries_plot_uncertainty</title>
<path fill="none" stroke="black" d="M317.628,-161.366C294.106,-151.232 266.066,-139.151 241.527,-128.578"/>
<polygon fill="black" stroke="black" points="242.879,-125.349 232.31,-124.607 240.109,-131.778 242.879,-125.349"/>
</g>
<!-- uncertainty_model -->
<g id="node3" class="node"><title>uncertainty_model</title>
<path fill="#ffffcc" stroke="black" d="M368.5,-78.5C368.5,-78.5 701.5,-78.5 701.5,-78.5 707.5,-78.5 713.5,-84.5 713.5,-90.5 713.5,-90.5 713.5,-112.5 713.5,-112.5 713.5,-118.5 707.5,-124.5 701.5,-124.5 701.5,-124.5 368.5,-124.5 368.5,-124.5 362.5,-124.5 356.5,-118.5 356.5,-112.5 356.5,-112.5 356.5,-90.5 356.5,-90.5 356.5,-84.5 362.5,-78.5 368.5,-78.5"/>
<text text-anchor="middle" x="535" y="-109.3" font-family="Helvetica,sans-Serif" font-size="14.00">uncertainty_model</text>
<polyline fill="none" stroke="black" points="356.5,-101.5 713.5,-101.5 "/>
<text text-anchor="middle" x="535" y="-86.3" font-family="Helvetica,sans-Serif" font-size="14.00">file:/.output/{session_id}/{run_id}/{label}.uncertainty.rds</text>
</g>
<!-- extract_uncertainty_model&#45;&gt;uncertainty_model -->
<g id="edge2" class="edge"><title>extract_uncertainty_model&#45;&gt;uncertainty_model</title>
<path fill="none" stroke="black" d="M414.36,-161.366C434.855,-151.366 459.235,-139.47 480.696,-128.998"/>
<polygon fill="black" stroke="black" points="482.242,-132.138 489.695,-124.607 479.173,-125.847 482.242,-132.138"/>
</g>
<!-- timeseries_plot_uncertainty_output_port -->
<g id="node8" class="node"><title>timeseries_plot_uncertainty_output_port</title>
<ellipse fill="#ffffff" stroke="black" cx="342" cy="-31" rx="7" ry="7"/>
</g>
<!-- timeseries_plot_uncertainty&#45;&gt;timeseries_plot_uncertainty_output_port -->
<g id="edge7" class="edge"><title>timeseries_plot_uncertainty&#45;&gt;timeseries_plot_uncertainty_output_port</title>
<path fill="none" stroke="black" d="M232.828,-78.4491C265.392,-64.5941 305.157,-47.6755 326.569,-38.5653"/>
<polygon fill="black" stroke="black" points="328.127,-41.7063 335.958,-34.5706 325.386,-35.2651 328.127,-41.7063"/>
</g>
<!-- uncertainty_model_output_port -->
<g id="node9" class="node"><title>uncertainty_model_output_port</title>
<ellipse fill="#ffffff" stroke="black" cx="374" cy="-31" rx="7" ry="7"/>
</g>
<!-- uncertainty_model&#45;&gt;uncertainty_model_output_port -->
<g id="edge8" class="edge"><title>uncertainty_model&#45;&gt;uncertainty_model_output_port</title>
<path fill="none" stroke="black" d="M483.172,-78.4491C450.608,-64.5941 410.843,-47.6755 389.431,-38.5653"/>
<polygon fill="black" stroke="black" points="390.614,-35.2651 380.042,-34.5706 387.873,-41.7063 390.614,-35.2651"/>
</g>
<!-- models -->
<g id="node4" class="node"><title>models</title>
<path fill="#ffffcc" stroke="black" d="M317.5,-244.5C317.5,-244.5 630.5,-244.5 630.5,-244.5 636.5,-244.5 642.5,-250.5 642.5,-256.5 642.5,-256.5 642.5,-278.5 642.5,-278.5 642.5,-284.5 636.5,-290.5 630.5,-290.5 630.5,-290.5 317.5,-290.5 317.5,-290.5 311.5,-290.5 305.5,-284.5 305.5,-278.5 305.5,-278.5 305.5,-256.5 305.5,-256.5 305.5,-250.5 311.5,-244.5 317.5,-244.5"/>
<text text-anchor="middle" x="474" y="-275.3" font-family="Helvetica,sans-Serif" font-size="14.00">models</text>
<polyline fill="none" stroke="black" points="305.5,-267.5 642.5,-267.5 "/>
<text text-anchor="middle" x="474" y="-252.3" font-family="Helvetica,sans-Serif" font-size="14.00">file:/.output/{session_id}/{run_id}/{label}.models.rds</text>
</g>
<!-- models&#45;&gt;extract_uncertainty_model -->
<g id="edge3" class="edge"><title>models&#45;&gt;extract_uncertainty_model</title>
<path fill="none" stroke="black" d="M445.308,-244.366C433.155,-234.991 418.842,-223.949 405.915,-213.977"/>
<polygon fill="black" stroke="black" points="407.713,-210.944 397.657,-207.607 403.437,-216.486 407.713,-210.944"/>
</g>
<!-- prediction.years -->
<g id="node5" class="node"><title>prediction.years</title>
<path fill="#ffffcc" stroke="black" d="M275.5,-285.5C275.5,-285.5 182.5,-285.5 182.5,-285.5 176.5,-285.5 170.5,-279.5 170.5,-273.5 170.5,-273.5 170.5,-261.5 170.5,-261.5 170.5,-255.5 176.5,-249.5 182.5,-249.5 182.5,-249.5 275.5,-249.5 275.5,-249.5 281.5,-249.5 287.5,-255.5 287.5,-261.5 287.5,-261.5 287.5,-273.5 287.5,-273.5 287.5,-279.5 281.5,-285.5 275.5,-285.5"/>
<text text-anchor="middle" x="229" y="-263.8" font-family="Helvetica,sans-Serif" font-size="14.00">prediction.years</text>
</g>
<!-- prediction.years&#45;&gt;extract_uncertainty_model -->
<g id="edge4" class="edge"><title>prediction.years&#45;&gt;extract_uncertainty_model</title>
<path fill="none" stroke="black" d="M258.69,-249.322C277.091,-238.676 301.129,-224.768 322.067,-212.654"/>
<polygon fill="black" stroke="black" points="323.922,-215.624 330.825,-207.587 320.417,-209.565 323.922,-215.624"/>
</g>
<!-- models_input_port -->
<g id="node6" class="node"><title>models_input_port</title>
<ellipse fill="#ffffff" stroke="black" cx="367" cy="-338" rx="7" ry="7"/>
</g>
<!-- models_input_port&#45;&gt;models -->
<g id="edge5" class="edge"><title>models_input_port&#45;&gt;models</title>
<path fill="none" stroke="black" d="M372.453,-333.509C383.291,-326.571 408.443,-310.469 431.002,-296.027"/>
<polygon fill="black" stroke="black" points="432.95,-298.935 439.485,-290.596 429.176,-293.04 432.95,-298.935"/>
</g>
<!-- prediction.years_input_port -->
<g id="node7" class="node"><title>prediction.years_input_port</title>
<ellipse fill="#ffffff" stroke="black" cx="335" cy="-338" rx="7" ry="7"/>
</g>
<!-- prediction.years_input_port&#45;&gt;prediction.years -->
<g id="edge6" class="edge"><title>prediction.years_input_port&#45;&gt;prediction.years</title>
<path fill="none" stroke="black" d="M329.598,-333.509C317.649,-325.787 288.138,-306.716 264.15,-291.215"/>
<polygon fill="black" stroke="black" points="265.904,-288.181 255.605,-285.693 262.104,-294.06 265.904,-288.181"/>
</g>
</g>
</svg>
