<?xml version="1.0" encoding="UTF-8" standalone="no"?>
<!DOCTYPE svg PUBLIC "-//W3C//DTD SVG 1.1//EN"
 "http://www.w3.org/Graphics/SVG/1.1/DTD/svg11.dtd">
<!-- Generated by graphviz version 2.38.0 (20140413.2041)
 -->
<!-- Title: Workflow Pages: 1 -->
<svg width="1509pt" height="797pt"
 viewBox="0.00 0.00 1509.00 797.00" xmlns="http://www.w3.org/2000/svg" xmlns:xlink="http://www.w3.org/1999/xlink">
<g id="graph0" class="graph" transform="scale(1 1) rotate(0) translate(4 793)">
<title>Workflow</title>
<polygon fill="white" stroke="none" points="-4,4 -4,-793 1505,-793 1505,4 -4,4"/>
<g id="clust1" class="cluster"><title>cluster_workflow_box_outer</title>
<polygon fill="none" stroke="black" stroke-width="2" points="22,-34 22,-755 1479,-755 1479,-34 22,-34"/>
</g>
<g id="clust2" class="cluster"><title>cluster_workflow_box_inner</title>
<polygon fill="none" stroke="black" stroke-width="0" points="30,-42 30,-747 1471,-747 1471,-42 30,-42"/>
</g>
<!-- get_user_input -->
<g id="node1" class="node"><title>get_user_input</title>
<polygon fill="#ccffcc" stroke="black" points="667,-620.5 667,-666.5 1153,-666.5 1153,-620.5 667,-620.5"/>
<text text-anchor="middle" x="910" y="-651.3" font-family="Helvetica,sans-Serif" font-size="14.00">get_user_input</text>
<polyline fill="none" stroke="black" points="667,-643.5 1153,-643.5 "/>
<text text-anchor="middle" x="910" y="-628.3" font-family="Helvetica,sans-Serif" font-size="14.00">Get coordinates and years for predicting the model from the web app user.</text>
</g>
<!-- coordinates -->
<g id="node12" class="node"><title>coordinates</title>
<path fill="#ffffcc" stroke="black" d="M1048.5,-578.5C1048.5,-578.5 981.5,-578.5 981.5,-578.5 975.5,-578.5 969.5,-572.5 969.5,-566.5 969.5,-566.5 969.5,-554.5 969.5,-554.5 969.5,-548.5 975.5,-542.5 981.5,-542.5 981.5,-542.5 1048.5,-542.5 1048.5,-542.5 1054.5,-542.5 1060.5,-548.5 1060.5,-554.5 1060.5,-554.5 1060.5,-566.5 1060.5,-566.5 1060.5,-572.5 1054.5,-578.5 1048.5,-578.5"/>
<text text-anchor="middle" x="1015" y="-556.8" font-family="Helvetica,sans-Serif" font-size="14.00">coordinates</text>
</g>
<!-- get_user_input&#45;&gt;coordinates -->
<g id="edge1" class="edge"><title>get_user_input&#45;&gt;coordinates</title>
<path fill="none" stroke="black" d="M938.692,-620.366C952.904,-609.403 970.069,-596.161 984.518,-585.015"/>
<polygon fill="black" stroke="black" points="986.888,-587.607 992.668,-578.728 982.612,-582.064 986.888,-587.607"/>
</g>
<!-- prediction.year -->
<g id="node14" class="node"><title>prediction.year</title>
<path fill="#ffffcc" stroke="black" d="M794,-412.5C794,-412.5 708,-412.5 708,-412.5 702,-412.5 696,-406.5 696,-400.5 696,-400.5 696,-388.5 696,-388.5 696,-382.5 702,-376.5 708,-376.5 708,-376.5 794,-376.5 794,-376.5 800,-376.5 806,-382.5 806,-388.5 806,-388.5 806,-400.5 806,-400.5 806,-406.5 800,-412.5 794,-412.5"/>
<text text-anchor="middle" x="751" y="-390.8" font-family="Helvetica,sans-Serif" font-size="14.00">prediction.year</text>
</g>
<!-- get_user_input&#45;&gt;prediction.year -->
<g id="edge2" class="edge"><title>get_user_input&#45;&gt;prediction.year</title>
<path fill="none" stroke="black" d="M895.609,-620.145C866.093,-574.293 798.854,-469.839 767.574,-421.247"/>
<polygon fill="black" stroke="black" points="770.35,-419.093 761.994,-412.579 764.464,-422.882 770.35,-419.093"/>
</g>
<!-- get_prism_data -->
<g id="node2" class="node"><title>get_prism_data</title>
<polygon fill="#ccffcc" stroke="black" points="880.5,-454.5 880.5,-500.5 1377.5,-500.5 1377.5,-454.5 880.5,-454.5"/>
<text text-anchor="middle" x="1129" y="-485.3" font-family="Helvetica,sans-Serif" font-size="14.00">get_prism_data</text>
<polyline fill="none" stroke="black" points="880.5,-477.5 1377.5,-477.5 "/>
<text text-anchor="middle" x="1129" y="-462.3" font-family="Helvetica,sans-Serif" font-size="14.00">Load netcdf file with ppt data and extract the values for the input coordinates.</text>
</g>
<!-- prism_data -->
<g id="node13" class="node"><title>prism_data</title>
<path fill="#ffffcc" stroke="black" d="M985.5,-371.5C985.5,-371.5 1272.5,-371.5 1272.5,-371.5 1278.5,-371.5 1284.5,-377.5 1284.5,-383.5 1284.5,-383.5 1284.5,-405.5 1284.5,-405.5 1284.5,-411.5 1278.5,-417.5 1272.5,-417.5 1272.5,-417.5 985.5,-417.5 985.5,-417.5 979.5,-417.5 973.5,-411.5 973.5,-405.5 973.5,-405.5 973.5,-383.5 973.5,-383.5 973.5,-377.5 979.5,-371.5 985.5,-371.5"/>
<text text-anchor="middle" x="1129" y="-402.3" font-family="Helvetica,sans-Serif" font-size="14.00">prism_data</text>
<polyline fill="none" stroke="black" points="973.5,-394.5 1284.5,-394.5 "/>
<text text-anchor="middle" x="1129" y="-379.3" font-family="Helvetica,sans-Serif" font-size="14.00">file:/.output/{session_id}/{run_id}/{data_file}.csv</text>
</g>
<!-- get_prism_data&#45;&gt;prism_data -->
<g id="edge4" class="edge"><title>get_prism_data&#45;&gt;prism_data</title>
<path fill="none" stroke="black" d="M1129,-454.366C1129,-446.152 1129,-436.658 1129,-427.725"/>
<polygon fill="black" stroke="black" points="1132.5,-427.607 1129,-417.607 1125.5,-427.607 1132.5,-427.607"/>
</g>
<!-- paleocar_model -->
<g id="node3" class="node"><title>paleocar_model</title>
<polygon fill="#ccffcc" stroke="black" points="776.5,-288.5 776.5,-334.5 1097.5,-334.5 1097.5,-288.5 776.5,-288.5"/>
<text text-anchor="middle" x="937" y="-319.3" font-family="Helvetica,sans-Serif" font-size="14.00">paleocar_model</text>
<polyline fill="none" stroke="black" points="776.5,-311.5 1097.5,-311.5 "/>
<text text-anchor="middle" x="937" y="-296.3" font-family="Helvetica,sans-Serif" font-size="14.00">create paleocar model for predicting the climate.</text>
</g>
<!-- paleocar_models -->
<g id="node6" class="node"><title>paleocar_models</title>
<path fill="#ffffcc" stroke="black" d="M782.5,-205.5C782.5,-205.5 1091.5,-205.5 1091.5,-205.5 1097.5,-205.5 1103.5,-211.5 1103.5,-217.5 1103.5,-217.5 1103.5,-239.5 1103.5,-239.5 1103.5,-245.5 1097.5,-251.5 1091.5,-251.5 1091.5,-251.5 782.5,-251.5 782.5,-251.5 776.5,-251.5 770.5,-245.5 770.5,-239.5 770.5,-239.5 770.5,-217.5 770.5,-217.5 770.5,-211.5 776.5,-205.5 782.5,-205.5"/>
<text text-anchor="middle" x="937" y="-236.3" font-family="Helvetica,sans-Serif" font-size="14.00">paleocar_models</text>
<polyline fill="none" stroke="black" points="770.5,-228.5 1103.5,-228.5 "/>
<text text-anchor="middle" x="937" y="-213.3" font-family="Helvetica,sans-Serif" font-size="14.00">file:/.output/{session_id}{run_id}/{label}.models.rds</text>
</g>
<!-- paleocar_model&#45;&gt;paleocar_models -->
<g id="edge7" class="edge"><title>paleocar_model&#45;&gt;paleocar_models</title>
<path fill="none" stroke="black" d="M937,-288.366C937,-280.152 937,-270.658 937,-261.725"/>
<polygon fill="black" stroke="black" points="940.5,-261.607 937,-251.607 933.5,-261.607 940.5,-261.607"/>
</g>
<!-- paleocar_predict_model -->
<g id="node4" class="node"><title>paleocar_predict_model</title>
<polygon fill="#ccffcc" stroke="black" points="691.5,-169 520.5,-169 520.5,-133 691.5,-133 691.5,-169"/>
<text text-anchor="middle" x="606" y="-147.3" font-family="Helvetica,sans-Serif" font-size="14.00">paleocar_predict_model</text>
</g>
<!-- prediction_model -->
<g id="node7" class="node"><title>prediction_model</title>
<path fill="#ffffcc" stroke="black" d="M50,-50.5C50,-50.5 378,-50.5 378,-50.5 384,-50.5 390,-56.5 390,-62.5 390,-62.5 390,-84.5 390,-84.5 390,-90.5 384,-96.5 378,-96.5 378,-96.5 50,-96.5 50,-96.5 44,-96.5 38,-90.5 38,-84.5 38,-84.5 38,-62.5 38,-62.5 38,-56.5 44,-50.5 50,-50.5"/>
<text text-anchor="middle" x="214" y="-81.3" font-family="Helvetica,sans-Serif" font-size="14.00">prediction_model</text>
<polyline fill="none" stroke="black" points="38,-73.5 390,-73.5 "/>
<text text-anchor="middle" x="214" y="-58.3" font-family="Helvetica,sans-Serif" font-size="14.00">file:/.output/{session_id}/{run_id}/{label}.prediction.rds</text>
</g>
<!-- paleocar_predict_model&#45;&gt;prediction_model -->
<g id="edge12" class="edge"><title>paleocar_predict_model&#45;&gt;prediction_model</title>
<path fill="none" stroke="black" d="M520.458,-133.525C467.219,-123.271 397.836,-109.907 338.554,-98.4894"/>
<polygon fill="black" stroke="black" points="338.854,-94.9829 328.373,-96.5284 337.53,-101.857 338.854,-94.9829"/>
</g>
<!-- prediction_plot -->
<g id="node9" class="node"><title>prediction_plot</title>
<path fill="#ffffcc" stroke="black" d="M420.5,-50.5C420.5,-50.5 701.5,-50.5 701.5,-50.5 707.5,-50.5 713.5,-56.5 713.5,-62.5 713.5,-62.5 713.5,-84.5 713.5,-84.5 713.5,-90.5 707.5,-96.5 701.5,-96.5 701.5,-96.5 420.5,-96.5 420.5,-96.5 414.5,-96.5 408.5,-90.5 408.5,-84.5 408.5,-84.5 408.5,-62.5 408.5,-62.5 408.5,-56.5 414.5,-50.5 420.5,-50.5"/>
<text text-anchor="middle" x="561" y="-81.3" font-family="Helvetica,sans-Serif" font-size="14.00">prediction_plot</text>
<polyline fill="none" stroke="black" points="408.5,-73.5 713.5,-73.5 "/>
<text text-anchor="middle" x="561" y="-58.3" font-family="Helvetica,sans-Serif" font-size="14.00">file:/{session_id}/{run_id}/{label}.prediction.jpg</text>
</g>
<!-- paleocar_predict_model&#45;&gt;prediction_plot -->
<g id="edge13" class="edge"><title>paleocar_predict_model&#45;&gt;prediction_plot</title>
<path fill="none" stroke="black" d="M595.789,-132.868C590.955,-124.757 585.029,-114.815 579.447,-105.45"/>
<polygon fill="black" stroke="black" points="582.374,-103.525 574.248,-96.7266 576.361,-107.109 582.374,-103.525"/>
</g>
<!-- uncertainty_paleocar_model -->
<g id="node5" class="node"><title>uncertainty_paleocar_model</title>
<polygon fill="#ccffcc" stroke="black" points="1016.5,-169 821.5,-169 821.5,-133 1016.5,-133 1016.5,-169"/>
<text text-anchor="middle" x="919" y="-147.3" font-family="Helvetica,sans-Serif" font-size="14.00">uncertainty_paleocar_model</text>
</g>
<!-- uncertainty_model -->
<g id="node8" class="node"><title>uncertainty_model</title>
<path fill="#ffffcc" stroke="black" d="M743.5,-50.5C743.5,-50.5 1076.5,-50.5 1076.5,-50.5 1082.5,-50.5 1088.5,-56.5 1088.5,-62.5 1088.5,-62.5 1088.5,-84.5 1088.5,-84.5 1088.5,-90.5 1082.5,-96.5 1076.5,-96.5 1076.5,-96.5 743.5,-96.5 743.5,-96.5 737.5,-96.5 731.5,-90.5 731.5,-84.5 731.5,-84.5 731.5,-62.5 731.5,-62.5 731.5,-56.5 737.5,-50.5 743.5,-50.5"/>
<text text-anchor="middle" x="910" y="-81.3" font-family="Helvetica,sans-Serif" font-size="14.00">uncertainty_model</text>
<polyline fill="none" stroke="black" points="731.5,-73.5 1088.5,-73.5 "/>
<text text-anchor="middle" x="910" y="-58.3" font-family="Helvetica,sans-Serif" font-size="14.00">file:/.output/{session_id}/{run_id}/{label}.uncertainty.rds</text>
</g>
<!-- uncertainty_paleocar_model&#45;&gt;uncertainty_model -->
<g id="edge16" class="edge"><title>uncertainty_paleocar_model&#45;&gt;uncertainty_model</title>
<path fill="none" stroke="black" d="M916.958,-132.868C916.041,-125.175 914.927,-115.835 913.863,-106.902"/>
<polygon fill="black" stroke="black" points="917.309,-106.242 912.65,-96.7266 910.358,-107.071 917.309,-106.242"/>
</g>
<!-- uncertainty_plot -->
<g id="node10" class="node"><title>uncertainty_plot</title>
<path fill="#ffffcc" stroke="black" d="M1119,-50.5C1119,-50.5 1451,-50.5 1451,-50.5 1457,-50.5 1463,-56.5 1463,-62.5 1463,-62.5 1463,-84.5 1463,-84.5 1463,-90.5 1457,-96.5 1451,-96.5 1451,-96.5 1119,-96.5 1119,-96.5 1113,-96.5 1107,-90.5 1107,-84.5 1107,-84.5 1107,-62.5 1107,-62.5 1107,-56.5 1113,-50.5 1119,-50.5"/>
<text text-anchor="middle" x="1285" y="-81.3" font-family="Helvetica,sans-Serif" font-size="14.00">uncertainty_plot</text>
<polyline fill="none" stroke="black" points="1107,-73.5 1463,-73.5 "/>
<text text-anchor="middle" x="1285" y="-58.3" font-family="Helvetica,sans-Serif" font-size="14.00">file:/.output/{session_id}/{run_id}/{label}.uncertainty.jpg</text>
</g>
<!-- uncertainty_paleocar_model&#45;&gt;uncertainty_plot -->
<g id="edge17" class="edge"><title>uncertainty_paleocar_model&#45;&gt;uncertainty_plot</title>
<path fill="none" stroke="black" d="M1001.59,-132.962C1050.72,-122.829 1113.82,-109.811 1168.01,-98.6329"/>
<polygon fill="black" stroke="black" points="1168.93,-102.016 1178.02,-96.5682 1167.52,-95.1607 1168.93,-102.016"/>
</g>
<!-- paleocar_models&#45;&gt;paleocar_predict_model -->
<g id="edge14" class="edge"><title>paleocar_models&#45;&gt;paleocar_predict_model</title>
<path fill="none" stroke="black" d="M840.371,-205.459C792.906,-194.633 736.241,-181.707 690.519,-171.278"/>
<polygon fill="black" stroke="black" points="691.167,-167.837 680.639,-169.025 689.61,-174.661 691.167,-167.837"/>
</g>
<!-- paleocar_models&#45;&gt;uncertainty_paleocar_model -->
<g id="edge18" class="edge"><title>paleocar_models&#45;&gt;uncertainty_paleocar_model</title>
<path fill="none" stroke="black" d="M931.697,-205.256C929.75,-197.092 927.525,-187.757 925.486,-179.207"/>
<polygon fill="black" stroke="black" points="928.848,-178.213 923.124,-169.298 922.039,-179.837 928.848,-178.213"/>
</g>
<!-- paleocar_models_output_port -->
<g id="node22" class="node"><title>paleocar_models_output_port</title>
<ellipse fill="#ffffff" stroke="black" cx="1494" cy="-151" rx="7" ry="7"/>
</g>
<!-- paleocar_models&#45;&gt;paleocar_models_output_port -->
<g id="edge24" class="edge"><title>paleocar_models&#45;&gt;paleocar_models_output_port</title>
<path fill="none" stroke="black" d="M1103.56,-220.504C1236.41,-212.882 1410.53,-197.723 1475,-169 1477.62,-167.834 1480.13,-166.17 1482.41,-164.335"/>
<polygon fill="black" stroke="black" points="1485.14,-166.566 1489.9,-157.101 1480.28,-161.531 1485.14,-166.566"/>
</g>
<!-- prediction_model_output_port -->
<g id="node23" class="node"><title>prediction_model_output_port</title>
<ellipse fill="#ffffff" stroke="black" cx="214" cy="-7" rx="7" ry="7"/>
</g>
<!-- prediction_model&#45;&gt;prediction_model_output_port -->
<g id="edge25" class="edge"><title>prediction_model&#45;&gt;prediction_model_output_port</title>
<path fill="none" stroke="black" d="M214,-50.3028C214,-41.6846 214,-32.0022 214,-24.0776"/>
<polygon fill="black" stroke="black" points="217.5,-24.0535 214,-14.0535 210.5,-24.0535 217.5,-24.0535"/>
</g>
<!-- uncertainty_model_output_port -->
<g id="node24" class="node"><title>uncertainty_model_output_port</title>
<ellipse fill="#ffffff" stroke="black" cx="910" cy="-7" rx="7" ry="7"/>
</g>
<!-- uncertainty_model&#45;&gt;uncertainty_model_output_port -->
<g id="edge26" class="edge"><title>uncertainty_model&#45;&gt;uncertainty_model_output_port</title>
<path fill="none" stroke="black" d="M910,-50.3028C910,-41.6846 910,-32.0022 910,-24.0776"/>
<polygon fill="black" stroke="black" points="913.5,-24.0535 910,-14.0535 906.5,-24.0535 913.5,-24.0535"/>
</g>
<!-- prediction_plot_output_port -->
<g id="node25" class="node"><title>prediction_plot_output_port</title>
<ellipse fill="#ffffff" stroke="black" cx="561" cy="-7" rx="7" ry="7"/>
</g>
<!-- prediction_plot&#45;&gt;prediction_plot_output_port -->
<g id="edge27" class="edge"><title>prediction_plot&#45;&gt;prediction_plot_output_port</title>
<path fill="none" stroke="black" d="M561,-50.3028C561,-41.6846 561,-32.0022 561,-24.0776"/>
<polygon fill="black" stroke="black" points="564.5,-24.0535 561,-14.0535 557.5,-24.0535 564.5,-24.0535"/>
</g>
<!-- uncertainty_plot_output_port -->
<g id="node26" class="node"><title>uncertainty_plot_output_port</title>
<ellipse fill="#ffffff" stroke="black" cx="1285" cy="-7" rx="7" ry="7"/>
</g>
<!-- uncertainty_plot&#45;&gt;uncertainty_plot_output_port -->
<g id="edge28" class="edge"><title>uncertainty_plot&#45;&gt;uncertainty_plot_output_port</title>
<path fill="none" stroke="black" d="M1285,-50.3028C1285,-41.6846 1285,-32.0022 1285,-24.0776"/>
<polygon fill="black" stroke="black" points="1288.5,-24.0535 1285,-14.0535 1281.5,-24.0535 1288.5,-24.0535"/>
</g>
<!-- user_input -->
<g id="node11" class="node"><title>user_input</title>
<path fill="#ffffcc" stroke="black" d="M939.5,-739C939.5,-739 880.5,-739 880.5,-739 874.5,-739 868.5,-733 868.5,-727 868.5,-727 868.5,-715 868.5,-715 868.5,-709 874.5,-703 880.5,-703 880.5,-703 939.5,-703 939.5,-703 945.5,-703 951.5,-709 951.5,-715 951.5,-715 951.5,-727 951.5,-727 951.5,-733 945.5,-739 939.5,-739"/>
<text text-anchor="middle" x="910" y="-717.3" font-family="Helvetica,sans-Serif" font-size="14.00">user_input</text>
</g>
<!-- user_input&#45;&gt;get_user_input -->
<g id="edge3" class="edge"><title>user_input&#45;&gt;get_user_input</title>
<path fill="none" stroke="black" d="M910,-702.868C910,-695.175 910,-685.835 910,-676.902"/>
<polygon fill="black" stroke="black" points="913.5,-676.727 910,-666.727 906.5,-676.727 913.5,-676.727"/>
</g>
<!-- coordinates&#45;&gt;get_prism_data -->
<g id="edge5" class="edge"><title>coordinates&#45;&gt;get_prism_data</title>
<path fill="none" stroke="black" d="M1039.18,-542.322C1053.76,-531.961 1072.69,-518.511 1089.41,-506.631"/>
<polygon fill="black" stroke="black" points="1091.79,-509.232 1097.91,-500.587 1087.74,-503.526 1091.79,-509.232"/>
</g>
<!-- prism_data&#45;&gt;paleocar_model -->
<g id="edge9" class="edge"><title>prism_data&#45;&gt;paleocar_model</title>
<path fill="none" stroke="black" d="M1076.79,-371.473C1052.66,-361.296 1023.85,-349.138 998.659,-338.512"/>
<polygon fill="black" stroke="black" points="999.775,-335.185 989.201,-334.522 997.054,-341.634 999.775,-335.185"/>
</g>
<!-- prediction.year&#45;&gt;paleocar_model -->
<g id="edge11" class="edge"><title>prediction.year&#45;&gt;paleocar_model</title>
<path fill="none" stroke="black" d="M790.446,-376.322C815.547,-365.391 848.545,-351.021 876.873,-338.684"/>
<polygon fill="black" stroke="black" points="878.511,-341.788 886.282,-334.587 875.716,-335.371 878.511,-341.788"/>
</g>
<!-- prediction.year&#45;&gt;paleocar_predict_model -->
<g id="edge15" class="edge"><title>prediction.year&#45;&gt;paleocar_predict_model</title>
<path fill="none" stroke="black" d="M740.572,-376.132C715.438,-334.271 651.399,-227.613 621.641,-178.05"/>
<polygon fill="black" stroke="black" points="624.482,-175.982 616.334,-169.211 618.48,-179.586 624.482,-175.982"/>
</g>
<!-- prediction.year&#45;&gt;uncertainty_paleocar_model -->
<g id="edge19" class="edge"><title>prediction.year&#45;&gt;uncertainty_paleocar_model</title>
<path fill="none" stroke="black" d="M746.241,-376.259C737.43,-340.291 722.827,-256.342 762,-205 774.597,-188.49 792.573,-177.077 811.894,-169.199"/>
<polygon fill="black" stroke="black" points="813.334,-172.397 821.469,-165.608 810.876,-165.842 813.334,-172.397"/>
</g>
<!-- netcdf_file -->
<g id="node15" class="node"><title>netcdf_file</title>
<path fill="#fcfcfc" stroke="black" d="M1176.5,-537.5C1176.5,-537.5 1307.5,-537.5 1307.5,-537.5 1313.5,-537.5 1319.5,-543.5 1319.5,-549.5 1319.5,-549.5 1319.5,-571.5 1319.5,-571.5 1319.5,-577.5 1313.5,-583.5 1307.5,-583.5 1307.5,-583.5 1176.5,-583.5 1176.5,-583.5 1170.5,-583.5 1164.5,-577.5 1164.5,-571.5 1164.5,-571.5 1164.5,-549.5 1164.5,-549.5 1164.5,-543.5 1170.5,-537.5 1176.5,-537.5"/>
<text text-anchor="middle" x="1242" y="-568.3" font-family="Helvetica,sans-Serif" font-size="14.00">netcdf_file</text>
<polyline fill="none" stroke="black" points="1164.5,-560.5 1319.5,-560.5 "/>
<text text-anchor="middle" x="1242" y="-545.3" font-family="Helvetica,sans-Serif" font-size="14.00">file:/data/{data_file}.nc</text>
</g>
<!-- netcdf_file&#45;&gt;get_prism_data -->
<g id="edge6" class="edge"><title>netcdf_file&#45;&gt;get_prism_data</title>
<path fill="none" stroke="black" d="M1211.12,-537.366C1197.92,-527.902 1182.35,-516.739 1168.33,-506.693"/>
<polygon fill="black" stroke="black" points="1170.01,-503.588 1159.84,-500.607 1165.93,-509.278 1170.01,-503.588"/>
</g>
<!-- itrdb -->
<g id="node16" class="node"><title>itrdb</title>
<path fill="#fcfcfc" stroke="black" d="M836.5,-371.5C836.5,-371.5 943.5,-371.5 943.5,-371.5 949.5,-371.5 955.5,-377.5 955.5,-383.5 955.5,-383.5 955.5,-405.5 955.5,-405.5 955.5,-411.5 949.5,-417.5 943.5,-417.5 943.5,-417.5 836.5,-417.5 836.5,-417.5 830.5,-417.5 824.5,-411.5 824.5,-405.5 824.5,-405.5 824.5,-383.5 824.5,-383.5 824.5,-377.5 830.5,-371.5 836.5,-371.5"/>
<text text-anchor="middle" x="890" y="-402.3" font-family="Helvetica,sans-Serif" font-size="14.00">itrdb</text>
<polyline fill="none" stroke="black" points="824.5,-394.5 955.5,-394.5 "/>
<text text-anchor="middle" x="890" y="-379.3" font-family="Helvetica,sans-Serif" font-size="14.00">file:/data/itrdb.Rda</text>
</g>
<!-- itrdb&#45;&gt;paleocar_model -->
<g id="edge8" class="edge"><title>itrdb&#45;&gt;paleocar_model</title>
<path fill="none" stroke="black" d="M902.843,-371.366C907.869,-362.705 913.719,-352.622 919.143,-343.274"/>
<polygon fill="black" stroke="black" points="922.181,-345.013 924.173,-334.607 916.126,-341.5 922.181,-345.013"/>
</g>
<!-- calibration_year -->
<g id="node17" class="node"><title>calibration_year</title>
<path fill="#fcfcfc" stroke="black" d="M1442,-412.5C1442,-412.5 1350,-412.5 1350,-412.5 1344,-412.5 1338,-406.5 1338,-400.5 1338,-400.5 1338,-388.5 1338,-388.5 1338,-382.5 1344,-376.5 1350,-376.5 1350,-376.5 1442,-376.5 1442,-376.5 1448,-376.5 1454,-382.5 1454,-388.5 1454,-388.5 1454,-400.5 1454,-400.5 1454,-406.5 1448,-412.5 1442,-412.5"/>
<text text-anchor="middle" x="1396" y="-390.8" font-family="Helvetica,sans-Serif" font-size="14.00">calibration_year</text>
</g>
<!-- calibration_year&#45;&gt;paleocar_model -->
<g id="edge10" class="edge"><title>calibration_year&#45;&gt;paleocar_model</title>
<path fill="none" stroke="black" d="M1337.86,-380.099C1323.55,-376.96 1308.25,-373.736 1294,-371 1228.28,-358.377 1155.43,-346.128 1092.76,-336.128"/>
<polygon fill="black" stroke="black" points="1093.22,-332.656 1082.79,-334.542 1092.12,-339.57 1093.22,-332.656"/>
</g>
<!-- user_input_input_port -->
<g id="node18" class="node"><title>user_input_input_port</title>
<ellipse fill="#ffffff" stroke="black" cx="910" cy="-782" rx="7" ry="7"/>
</g>
<!-- user_input_input_port&#45;&gt;user_input -->
<g id="edge20" class="edge"><title>user_input_input_port&#45;&gt;user_input</title>
<path fill="none" stroke="black" d="M910,-774.686C910,-768.486 910,-758.595 910,-749.048"/>
<polygon fill="black" stroke="black" points="913.5,-749.016 910,-739.016 906.5,-749.016 913.5,-749.016"/>
</g>
<!-- netcdf_file_input_port -->
<g id="node19" class="node"><title>netcdf_file_input_port</title>
<ellipse fill="#ffffff" stroke="black" cx="1494" cy="-643.5" rx="7" ry="7"/>
</g>
<!-- netcdf_file_input_port&#45;&gt;netcdf_file -->
<g id="edge21" class="edge"><title>netcdf_file_input_port&#45;&gt;netcdf_file</title>
<path fill="none" stroke="black" d="M1490.92,-637.207C1487.63,-632.036 1481.94,-624.33 1475,-620 1431.32,-592.75 1375.59,-578.178 1329.58,-570.393"/>
<polygon fill="black" stroke="black" points="1330.05,-566.923 1319.62,-568.786 1328.94,-573.834 1330.05,-566.923"/>
</g>
<!-- itrdb_input_port -->
<g id="node20" class="node"><title>itrdb_input_port</title>
<ellipse fill="#ffffff" stroke="black" cx="7" cy="-477.5" rx="7" ry="7"/>
</g>
<!-- itrdb_input_port&#45;&gt;itrdb -->
<g id="edge22" class="edge"><title>itrdb_input_port&#45;&gt;itrdb</title>
<path fill="none" stroke="black" d="M9.91566,-470.905C13.074,-465.499 18.6612,-457.614 26,-454 102.347,-416.405 691.218,-431.712 814.238,-417.595"/>
<polygon fill="black" stroke="black" points="814.946,-421.03 824.368,-416.184 813.98,-414.097 814.946,-421.03"/>
</g>
<!-- calibration_year_input_port -->
<g id="node21" class="node"><title>calibration_year_input_port</title>
<ellipse fill="#ffffff" stroke="black" cx="1494" cy="-477.5" rx="7" ry="7"/>
</g>
<!-- calibration_year_input_port&#45;&gt;calibration_year -->
<g id="edge23" class="edge"><title>calibration_year_input_port&#45;&gt;calibration_year</title>
<path fill="none" stroke="black" d="M1490.23,-471.38C1486.6,-466.618 1480.82,-459.457 1475,-454 1461.39,-441.236 1445,-428.707 1430.69,-418.538"/>
<polygon fill="black" stroke="black" points="1432.29,-415.387 1422.08,-412.531 1428.28,-421.126 1432.29,-415.387"/>
</g>
</g>
</svg>
