<?xml version="1.0" encoding="UTF-8" standalone="no"?>
<!DOCTYPE svg PUBLIC "-//W3C//DTD SVG 1.1//EN"
 "http://www.w3.org/Graphics/SVG/1.1/DTD/svg11.dtd">
<!-- Generated by graphviz version 2.38.0 (20140413.2041)
 -->
<!-- Title: Workflow Pages: 1 -->
<svg width="1530pt" height="864pt"
 viewBox="0.00 0.00 1530.42 864.00" xmlns="http://www.w3.org/2000/svg" xmlns:xlink="http://www.w3.org/1999/xlink">
<g id="graph0" class="graph" transform="scale(1 1) rotate(0) translate(4 860)">
<title>Workflow</title>
<polygon fill="white" stroke="none" points="-4,4 -4,-860 1526.42,-860 1526.42,4 -4,4"/>
<g id="clust1" class="cluster"><title>cluster_workflow_box_outer</title>
<polygon fill="none" stroke="black" stroke-width="2" points="8,-62 8,-794 1465,-794 1465,-62 8,-62"/>
</g>
<g id="clust2" class="cluster"><title>cluster_workflow_box_inner</title>
<polygon fill="none" stroke="black" stroke-width="0" points="16,-70 16,-786 1457,-786 1457,-70 16,-70"/>
</g>
<g id="clust3" class="cluster"><title>cluster_input_ports_group_outer</title>
<polygon fill="none" stroke="black" stroke-width="0" points="1081,-802 1081,-848 1287,-848 1287,-802 1081,-802"/>
</g>
<g id="clust4" class="cluster"><title>cluster_input_ports_group_inner</title>
<polygon fill="none" stroke="black" stroke-width="0" points="1089,-810 1089,-840 1279,-840 1279,-810 1089,-810"/>
</g>
<g id="clust5" class="cluster"><title>cluster_output_ports_group_outer</title>
<polygon fill="none" stroke="black" stroke-width="0" points="980,-8 980,-54 1186,-54 1186,-8 980,-8"/>
</g>
<g id="clust6" class="cluster"><title>cluster_output_ports_group_inner</title>
<polygon fill="none" stroke="black" stroke-width="0" points="988,-16 988,-46 1178,-46 1178,-16 988,-16"/>
</g>
<!-- get_user_input -->
<g id="node1" class="node"><title>get_user_input</title>
<polygon fill="#ccffcc" stroke="black" points="569,-659.5 569,-705.5 1055,-705.5 1055,-659.5 569,-659.5"/>
<text text-anchor="middle" x="812" y="-690.3" font-family="Helvetica,sans-Serif" font-size="14.00">get_user_input</text>
<polyline fill="none" stroke="black" points="569,-682.5 1055,-682.5 "/>
<text text-anchor="middle" x="812" y="-667.3" font-family="Helvetica,sans-Serif" font-size="14.00">Get coordinates and years for predicting the model from the web app user.</text>
</g>
<!-- coordinates -->
<g id="node14" class="node"><title>coordinates</title>
<path fill="#ffffcc" stroke="black" d="M841.5,-617.5C841.5,-617.5 774.5,-617.5 774.5,-617.5 768.5,-617.5 762.5,-611.5 762.5,-605.5 762.5,-605.5 762.5,-593.5 762.5,-593.5 762.5,-587.5 768.5,-581.5 774.5,-581.5 774.5,-581.5 841.5,-581.5 841.5,-581.5 847.5,-581.5 853.5,-587.5 853.5,-593.5 853.5,-593.5 853.5,-605.5 853.5,-605.5 853.5,-611.5 847.5,-617.5 841.5,-617.5"/>
<text text-anchor="middle" x="808" y="-595.8" font-family="Helvetica,sans-Serif" font-size="14.00">coordinates</text>
</g>
<!-- get_user_input&#45;&gt;coordinates -->
<g id="edge1" class="edge"><title>get_user_input&#45;&gt;coordinates</title>
<path fill="none" stroke="black" d="M810.907,-659.366C810.426,-649.632 809.857,-638.102 809.35,-627.838"/>
<polygon fill="black" stroke="black" points="812.84,-627.543 808.851,-617.728 805.848,-627.888 812.84,-627.543"/>
</g>
<!-- prediction_years -->
<g id="node15" class="node"><title>prediction_years</title>
<path fill="#ffffcc" stroke="black" d="M603,-451.5C603,-451.5 505,-451.5 505,-451.5 499,-451.5 493,-445.5 493,-439.5 493,-439.5 493,-427.5 493,-427.5 493,-421.5 499,-415.5 505,-415.5 505,-415.5 603,-415.5 603,-415.5 609,-415.5 615,-421.5 615,-427.5 615,-427.5 615,-439.5 615,-439.5 615,-445.5 609,-451.5 603,-451.5"/>
<text text-anchor="middle" x="554" y="-429.8" font-family="Helvetica,sans-Serif" font-size="14.00">prediction_years</text>
</g>
<!-- get_user_input&#45;&gt;prediction_years -->
<g id="edge2" class="edge"><title>get_user_input&#45;&gt;prediction_years</title>
<path fill="none" stroke="black" d="M625.195,-659.442C550.494,-640.417 471.521,-605.17 426,-540 414.038,-522.875 414.709,-510.574 426,-493 439.058,-472.675 461.123,-459.324 483.291,-450.591"/>
<polygon fill="black" stroke="black" points="484.581,-453.846 492.771,-447.124 482.177,-447.271 484.581,-453.846"/>
</g>
<!-- extract_prism_data -->
<g id="node2" class="node"><title>extract_prism_data</title>
<polygon fill="#ccffcc" stroke="black" points="435,-493.5 435,-539.5 1177,-539.5 1177,-493.5 435,-493.5"/>
<text text-anchor="middle" x="806" y="-524.3" font-family="Helvetica,sans-Serif" font-size="14.00">extract_prism_data</text>
<polyline fill="none" stroke="black" points="435,-516.5 1177,-516.5 "/>
<text text-anchor="middle" x="806" y="-501.3" font-family="Helvetica,sans-Serif" font-size="14.00">Load the prism data file with precipitation values and extract the data for the input coordinates and save as a csv file.</text>
</g>
<!-- prism_data_for_coordinates -->
<g id="node16" class="node"><title>prism_data_for_coordinates</title>
<path fill="#ffffcc" stroke="black" d="M662.5,-410.5C662.5,-410.5 949.5,-410.5 949.5,-410.5 955.5,-410.5 961.5,-416.5 961.5,-422.5 961.5,-422.5 961.5,-444.5 961.5,-444.5 961.5,-450.5 955.5,-456.5 949.5,-456.5 949.5,-456.5 662.5,-456.5 662.5,-456.5 656.5,-456.5 650.5,-450.5 650.5,-444.5 650.5,-444.5 650.5,-422.5 650.5,-422.5 650.5,-416.5 656.5,-410.5 662.5,-410.5"/>
<text text-anchor="middle" x="806" y="-441.3" font-family="Helvetica,sans-Serif" font-size="14.00">prism_data_for_coordinates</text>
<polyline fill="none" stroke="black" points="650.5,-433.5 961.5,-433.5 "/>
<text text-anchor="middle" x="806" y="-418.3" font-family="Helvetica,sans-Serif" font-size="14.00">file:/.output/{session_id}/{run_id}/{data_file}.csv</text>
</g>
<!-- extract_prism_data&#45;&gt;prism_data_for_coordinates -->
<g id="edge5" class="edge"><title>extract_prism_data&#45;&gt;prism_data_for_coordinates</title>
<path fill="none" stroke="black" d="M806,-493.366C806,-485.152 806,-475.658 806,-466.725"/>
<polygon fill="black" stroke="black" points="809.5,-466.607 806,-456.607 802.5,-466.607 809.5,-466.607"/>
</g>
<!-- gen_paleocar_model -->
<g id="node3" class="node"><title>gen_paleocar_model</title>
<polygon fill="#ccffcc" stroke="black" points="812.5,-327.5 812.5,-373.5 1277.5,-373.5 1277.5,-327.5 812.5,-327.5"/>
<text text-anchor="middle" x="1045" y="-358.3" font-family="Helvetica,sans-Serif" font-size="14.00">gen_paleocar_model</text>
<polyline fill="none" stroke="black" points="812.5,-350.5 1277.5,-350.5 "/>
<text text-anchor="middle" x="1045" y="-335.3" font-family="Helvetica,sans-Serif" font-size="14.00">generate paleocar models for predicting the climate for the given years.</text>
</g>
<!-- paleocar_models -->
<g id="node6" class="node"><title>paleocar_models</title>
<path fill="#ffffcc" stroke="black" d="M741.5,-244.5C741.5,-244.5 1050.5,-244.5 1050.5,-244.5 1056.5,-244.5 1062.5,-250.5 1062.5,-256.5 1062.5,-256.5 1062.5,-278.5 1062.5,-278.5 1062.5,-284.5 1056.5,-290.5 1050.5,-290.5 1050.5,-290.5 741.5,-290.5 741.5,-290.5 735.5,-290.5 729.5,-284.5 729.5,-278.5 729.5,-278.5 729.5,-256.5 729.5,-256.5 729.5,-250.5 735.5,-244.5 741.5,-244.5"/>
<text text-anchor="middle" x="896" y="-275.3" font-family="Helvetica,sans-Serif" font-size="14.00">paleocar_models</text>
<polyline fill="none" stroke="black" points="729.5,-267.5 1062.5,-267.5 "/>
<text text-anchor="middle" x="896" y="-252.3" font-family="Helvetica,sans-Serif" font-size="14.00">file:/.output/{session_id}{run_id}/{label}.models.rds</text>
</g>
<!-- gen_paleocar_model&#45;&gt;paleocar_models -->
<g id="edge8" class="edge"><title>gen_paleocar_model&#45;&gt;paleocar_models</title>
<path fill="none" stroke="black" d="M1004.29,-327.366C986.135,-317.5 964.592,-305.788 945.518,-295.419"/>
<polygon fill="black" stroke="black" points="947.123,-292.308 936.666,-290.607 943.78,-298.458 947.123,-292.308"/>
</g>
<!-- paleocar_model_log_file -->
<g id="node11" class="node"><title>paleocar_model_log_file</title>
<path fill="#ffffcc" stroke="black" d="M1093,-244.5C1093,-244.5 1437,-244.5 1437,-244.5 1443,-244.5 1449,-250.5 1449,-256.5 1449,-256.5 1449,-278.5 1449,-278.5 1449,-284.5 1443,-290.5 1437,-290.5 1437,-290.5 1093,-290.5 1093,-290.5 1087,-290.5 1081,-284.5 1081,-278.5 1081,-278.5 1081,-256.5 1081,-256.5 1081,-250.5 1087,-244.5 1093,-244.5"/>
<text text-anchor="middle" x="1265" y="-275.3" font-family="Helvetica,sans-Serif" font-size="14.00">paleocar_model_log_file</text>
<polyline fill="none" stroke="black" points="1081,-267.5 1449,-267.5 "/>
<text text-anchor="middle" x="1265" y="-252.3" font-family="Helvetica,sans-Serif" font-size="14.00">file:/.output/{session_id}{run_id}/paleocar_model_log.txt</text>
</g>
<!-- gen_paleocar_model&#45;&gt;paleocar_model_log_file -->
<g id="edge9" class="edge"><title>gen_paleocar_model&#45;&gt;paleocar_model_log_file</title>
<path fill="none" stroke="black" d="M1104.83,-327.473C1132.83,-317.162 1166.36,-304.816 1195.49,-294.092"/>
<polygon fill="black" stroke="black" points="1197.01,-297.262 1205.19,-290.522 1194.59,-290.693 1197.01,-297.262"/>
</g>
<!-- extract_prediction_model -->
<g id="node4" class="node"><title>extract_prediction_model</title>
<polygon fill="#ccffcc" stroke="black" points="120,-161.5 120,-207.5 782,-207.5 782,-161.5 120,-161.5"/>
<text text-anchor="middle" x="451" y="-192.3" font-family="Helvetica,sans-Serif" font-size="14.00">extract_prediction_model</text>
<polyline fill="none" stroke="black" points="120,-184.5 782,-184.5 "/>
<text text-anchor="middle" x="451" y="-169.3" font-family="Helvetica,sans-Serif" font-size="14.00">extract the rasterbrick reconstruction from a PaleoCAR batch model for the specified prediction period.</text>
</g>
<!-- prediction_model -->
<g id="node7" class="node"><title>prediction_model</title>
<path fill="#ffffcc" stroke="black" d="M36,-78.5C36,-78.5 364,-78.5 364,-78.5 370,-78.5 376,-84.5 376,-90.5 376,-90.5 376,-112.5 376,-112.5 376,-118.5 370,-124.5 364,-124.5 364,-124.5 36,-124.5 36,-124.5 30,-124.5 24,-118.5 24,-112.5 24,-112.5 24,-90.5 24,-90.5 24,-84.5 30,-78.5 36,-78.5"/>
<text text-anchor="middle" x="200" y="-109.3" font-family="Helvetica,sans-Serif" font-size="14.00">prediction_model</text>
<polyline fill="none" stroke="black" points="24,-101.5 376,-101.5 "/>
<text text-anchor="middle" x="200" y="-86.3" font-family="Helvetica,sans-Serif" font-size="14.00">file:/.output/{session_id}/{run_id}/{label}.prediction.rds</text>
</g>
<!-- extract_prediction_model&#45;&gt;prediction_model -->
<g id="edge15" class="edge"><title>extract_prediction_model&#45;&gt;prediction_model</title>
<path fill="none" stroke="black" d="M382.745,-161.473C350.374,-151.027 311.536,-138.494 278.005,-127.673"/>
<polygon fill="black" stroke="black" points="278.833,-124.263 268.242,-124.522 276.684,-130.924 278.833,-124.263"/>
</g>
<!-- prediction_plot -->
<g id="node9" class="node"><title>prediction_plot</title>
<path fill="#ffffcc" stroke="black" d="M406.5,-78.5C406.5,-78.5 687.5,-78.5 687.5,-78.5 693.5,-78.5 699.5,-84.5 699.5,-90.5 699.5,-90.5 699.5,-112.5 699.5,-112.5 699.5,-118.5 693.5,-124.5 687.5,-124.5 687.5,-124.5 406.5,-124.5 406.5,-124.5 400.5,-124.5 394.5,-118.5 394.5,-112.5 394.5,-112.5 394.5,-90.5 394.5,-90.5 394.5,-84.5 400.5,-78.5 406.5,-78.5"/>
<text text-anchor="middle" x="547" y="-109.3" font-family="Helvetica,sans-Serif" font-size="14.00">prediction_plot</text>
<polyline fill="none" stroke="black" points="394.5,-101.5 699.5,-101.5 "/>
<text text-anchor="middle" x="547" y="-86.3" font-family="Helvetica,sans-Serif" font-size="14.00">file:/{session_id}/{run_id}/{label}.prediction.jpg</text>
</g>
<!-- extract_prediction_model&#45;&gt;prediction_plot -->
<g id="edge16" class="edge"><title>extract_prediction_model&#45;&gt;prediction_plot</title>
<path fill="none" stroke="black" d="M477.232,-161.366C488.238,-152.08 501.181,-141.16 512.911,-131.262"/>
<polygon fill="black" stroke="black" points="515.413,-133.731 520.799,-124.607 510.899,-128.381 515.413,-133.731"/>
</g>
<!-- extract_uncertainty_model -->
<g id="node5" class="node"><title>extract_uncertainty_model</title>
<polygon fill="#ccffcc" stroke="black" points="800,-161.5 800,-207.5 1420,-207.5 1420,-161.5 800,-161.5"/>
<text text-anchor="middle" x="1110" y="-192.3" font-family="Helvetica,sans-Serif" font-size="14.00">extract_uncertainty_model</text>
<polyline fill="none" stroke="black" points="800,-184.5 1420,-184.5 "/>
<text text-anchor="middle" x="1110" y="-169.3" font-family="Helvetica,sans-Serif" font-size="14.00">extract the LOOCV uncertainty information from the set of Paleocar models for specified period.</text>
</g>
<!-- uncertainty_model -->
<g id="node8" class="node"><title>uncertainty_model</title>
<path fill="#ffffcc" stroke="black" d="M729.5,-78.5C729.5,-78.5 1062.5,-78.5 1062.5,-78.5 1068.5,-78.5 1074.5,-84.5 1074.5,-90.5 1074.5,-90.5 1074.5,-112.5 1074.5,-112.5 1074.5,-118.5 1068.5,-124.5 1062.5,-124.5 1062.5,-124.5 729.5,-124.5 729.5,-124.5 723.5,-124.5 717.5,-118.5 717.5,-112.5 717.5,-112.5 717.5,-90.5 717.5,-90.5 717.5,-84.5 723.5,-78.5 729.5,-78.5"/>
<text text-anchor="middle" x="896" y="-109.3" font-family="Helvetica,sans-Serif" font-size="14.00">uncertainty_model</text>
<polyline fill="none" stroke="black" points="717.5,-101.5 1074.5,-101.5 "/>
<text text-anchor="middle" x="896" y="-86.3" font-family="Helvetica,sans-Serif" font-size="14.00">file:/.output/{session_id}/{run_id}/{label}.uncertainty.rds</text>
</g>
<!-- extract_uncertainty_model&#45;&gt;uncertainty_model -->
<g id="edge19" class="edge"><title>extract_uncertainty_model&#45;&gt;uncertainty_model</title>
<path fill="none" stroke="black" d="M1051.81,-161.473C1024.56,-151.162 991.947,-138.816 963.613,-128.092"/>
<polygon fill="black" stroke="black" points="964.774,-124.789 954.182,-124.522 962.296,-131.336 964.774,-124.789"/>
</g>
<!-- uncertainty_plot -->
<g id="node10" class="node"><title>uncertainty_plot</title>
<path fill="#ffffcc" stroke="black" d="M1105,-78.5C1105,-78.5 1437,-78.5 1437,-78.5 1443,-78.5 1449,-84.5 1449,-90.5 1449,-90.5 1449,-112.5 1449,-112.5 1449,-118.5 1443,-124.5 1437,-124.5 1437,-124.5 1105,-124.5 1105,-124.5 1099,-124.5 1093,-118.5 1093,-112.5 1093,-112.5 1093,-90.5 1093,-90.5 1093,-84.5 1099,-78.5 1105,-78.5"/>
<text text-anchor="middle" x="1271" y="-109.3" font-family="Helvetica,sans-Serif" font-size="14.00">uncertainty_plot</text>
<polyline fill="none" stroke="black" points="1093,-101.5 1449,-101.5 "/>
<text text-anchor="middle" x="1271" y="-86.3" font-family="Helvetica,sans-Serif" font-size="14.00">file:/.output/{session_id}/{run_id}/{label}.uncertainty.jpg</text>
</g>
<!-- extract_uncertainty_model&#45;&gt;uncertainty_plot -->
<g id="edge20" class="edge"><title>extract_uncertainty_model&#45;&gt;uncertainty_plot</title>
<path fill="none" stroke="black" d="M1153.99,-161.366C1173.78,-151.41 1197.31,-139.576 1218.05,-129.138"/>
<polygon fill="black" stroke="black" points="1219.7,-132.228 1227.06,-124.607 1216.55,-125.975 1219.7,-132.228"/>
</g>
<!-- paleocar_models&#45;&gt;extract_prediction_model -->
<g id="edge17" class="edge"><title>paleocar_models&#45;&gt;extract_prediction_model</title>
<path fill="none" stroke="black" d="M774.99,-244.473C715.259,-233.601 643.11,-220.468 582.073,-209.358"/>
<polygon fill="black" stroke="black" points="582.451,-205.87 571.986,-207.522 581.198,-212.757 582.451,-205.87"/>
</g>
<!-- paleocar_models&#45;&gt;extract_uncertainty_model -->
<g id="edge21" class="edge"><title>paleocar_models&#45;&gt;extract_uncertainty_model</title>
<path fill="none" stroke="black" d="M954.194,-244.473C981.437,-234.162 1014.05,-221.816 1042.39,-211.092"/>
<polygon fill="black" stroke="black" points="1043.7,-214.336 1051.82,-207.522 1041.23,-207.789 1043.7,-214.336"/>
</g>
<!-- paleocar_models_output_port -->
<g id="node27" class="node"><title>paleocar_models_output_port</title>
<ellipse fill="#ffffff" stroke="black" cx="1131" cy="-31" rx="7" ry="7"/>
</g>
<!-- paleocar_models&#45;&gt;paleocar_models_output_port -->
<g id="edge29" class="edge"><title>paleocar_models&#45;&gt;paleocar_models_output_port</title>
<path fill="none" stroke="black" d="M1062.74,-245.07C1065.85,-244.707 1068.94,-244.35 1072,-244 1151.22,-234.944 1366.38,-257.363 1429,-208 1480.95,-167.043 1504.17,-109.377 1458,-62 1445.94,-49.6226 1162.3,-62.0403 1147,-54 1143.74,-52.2863 1140.98,-49.5746 1138.72,-46.632"/>
<polygon fill="black" stroke="black" points="1141.6,-44.6285 1133.43,-37.8793 1135.61,-48.2484 1141.6,-44.6285"/>
</g>
<!-- prediction_model_output_port -->
<g id="node28" class="node"><title>prediction_model_output_port</title>
<ellipse fill="#ffffff" stroke="black" cx="1003" cy="-31" rx="7" ry="7"/>
</g>
<!-- prediction_model&#45;&gt;prediction_model_output_port -->
<g id="edge30" class="edge"><title>prediction_model&#45;&gt;prediction_model_output_port</title>
<path fill="none" stroke="black" d="M291.739,-78.447C321.342,-72.1281 354.41,-65.9011 385,-62 621.695,-31.815 912.93,-31.426 985.842,-31.8514"/>
<polygon fill="black" stroke="black" points="985.917,-35.3519 995.943,-31.925 985.968,-28.3521 985.917,-35.3519"/>
</g>
<!-- uncertainty_model_output_port -->
<g id="node29" class="node"><title>uncertainty_model_output_port</title>
<ellipse fill="#ffffff" stroke="black" cx="1067" cy="-31" rx="7" ry="7"/>
</g>
<!-- uncertainty_model&#45;&gt;uncertainty_model_output_port -->
<g id="edge31" class="edge"><title>uncertainty_model&#45;&gt;uncertainty_model_output_port</title>
<path fill="none" stroke="black" d="M1003.24,-78.368C1020.11,-72.1241 1036.68,-64.1557 1051,-54 1054.01,-51.8694 1056.66,-48.9948 1058.91,-46.0274"/>
<polygon fill="black" stroke="black" points="1061.92,-47.8139 1064.33,-37.4976 1056.01,-44.0573 1061.92,-47.8139"/>
</g>
<!-- prediction_plot_output_port -->
<g id="node30" class="node"><title>prediction_plot_output_port</title>
<ellipse fill="#ffffff" stroke="black" cx="1035" cy="-31" rx="7" ry="7"/>
</g>
<!-- prediction_plot&#45;&gt;prediction_plot_output_port -->
<g id="edge32" class="edge"><title>prediction_plot&#45;&gt;prediction_plot_output_port</title>
<path fill="none" stroke="black" d="M624.592,-78.4814C650.857,-71.9581 680.501,-65.6013 708,-62 725.137,-59.7557 1003.7,-62.0403 1019,-54 1022.26,-52.2863 1025.02,-49.5746 1027.28,-46.632"/>
<polygon fill="black" stroke="black" points="1030.39,-48.2484 1032.57,-37.8793 1024.4,-44.6285 1030.39,-48.2484"/>
</g>
<!-- uncertainty_plot_output_port -->
<g id="node31" class="node"><title>uncertainty_plot_output_port</title>
<ellipse fill="#ffffff" stroke="black" cx="1099" cy="-31" rx="7" ry="7"/>
</g>
<!-- uncertainty_plot&#45;&gt;uncertainty_plot_output_port -->
<g id="edge33" class="edge"><title>uncertainty_plot&#45;&gt;uncertainty_plot_output_port</title>
<path fill="none" stroke="black" d="M1163.07,-78.4493C1146.09,-72.1958 1129.42,-64.2031 1115,-54 1111.99,-51.8721 1109.33,-48.9985 1107.09,-46.0312"/>
<polygon fill="black" stroke="black" points="1109.98,-44.0611 1101.66,-37.5 1104.08,-47.8168 1109.98,-44.0611"/>
</g>
<!-- paleocar_model_log_file_output_port -->
<g id="node32" class="node"><title>paleocar_model_log_file_output_port</title>
<ellipse fill="#ffffff" stroke="black" cx="1163" cy="-31" rx="7" ry="7"/>
</g>
<!-- paleocar_model_log_file&#45;&gt;paleocar_model_log_file_output_port -->
<g id="edge34" class="edge"><title>paleocar_model_log_file&#45;&gt;paleocar_model_log_file_output_port</title>
<path fill="none" stroke="black" d="M1405.84,-244.466C1444.51,-235.393 1479.12,-223.343 1491,-208 1530.72,-156.689 1534.74,-109.927 1491,-62 1469.86,-38.8395 1244.15,-33.3435 1179.95,-32.2445"/>
<polygon fill="black" stroke="black" points="1179.98,-28.7447 1169.92,-32.0872 1179.87,-35.7438 1179.98,-28.7447"/>
</g>
<!-- user_map_marker_pos -->
<g id="node12" class="node"><title>user_map_marker_pos</title>
<path fill="#ffffcc" stroke="black" d="M1088,-778C1088,-778 948,-778 948,-778 942,-778 936,-772 936,-766 936,-766 936,-754 936,-754 936,-748 942,-742 948,-742 948,-742 1088,-742 1088,-742 1094,-742 1100,-748 1100,-754 1100,-754 1100,-766 1100,-766 1100,-772 1094,-778 1088,-778"/>
<text text-anchor="middle" x="1018" y="-756.3" font-family="Helvetica,sans-Serif" font-size="14.00">user_map_marker_pos</text>
</g>
<!-- user_map_marker_pos&#45;&gt;get_user_input -->
<g id="edge3" class="edge"><title>user_map_marker_pos&#45;&gt;get_user_input</title>
<path fill="none" stroke="black" d="M971.513,-741.962C945.064,-732.269 911.416,-719.936 881.847,-709.099"/>
<polygon fill="black" stroke="black" points="882.998,-705.794 872.405,-705.639 880.589,-712.366 882.998,-705.794"/>
</g>
<!-- user_prediction_years -->
<g id="node13" class="node"><title>user_prediction_years</title>
<path fill="#ffffcc" stroke="black" d="M888,-778C888,-778 754,-778 754,-778 748,-778 742,-772 742,-766 742,-766 742,-754 742,-754 742,-748 748,-742 754,-742 754,-742 888,-742 888,-742 894,-742 900,-748 900,-754 900,-754 900,-766 900,-766 900,-772 894,-778 888,-778"/>
<text text-anchor="middle" x="821" y="-756.3" font-family="Helvetica,sans-Serif" font-size="14.00">user_prediction_years</text>
</g>
<!-- user_prediction_years&#45;&gt;get_user_input -->
<g id="edge4" class="edge"><title>user_prediction_years&#45;&gt;get_user_input</title>
<path fill="none" stroke="black" d="M818.958,-741.868C818.041,-734.175 816.927,-724.835 815.863,-715.902"/>
<polygon fill="black" stroke="black" points="819.309,-715.242 814.65,-705.727 812.358,-716.071 819.309,-715.242"/>
</g>
<!-- coordinates&#45;&gt;extract_prism_data -->
<g id="edge6" class="edge"><title>coordinates&#45;&gt;extract_prism_data</title>
<path fill="none" stroke="black" d="M807.576,-581.322C807.348,-572.102 807.06,-560.435 806.793,-549.606"/>
<polygon fill="black" stroke="black" points="810.291,-549.497 806.545,-539.587 803.293,-549.67 810.291,-549.497"/>
</g>
<!-- prediction_years&#45;&gt;gen_paleocar_model -->
<g id="edge13" class="edge"><title>prediction_years&#45;&gt;gen_paleocar_model</title>
<path fill="none" stroke="black" d="M615.121,-415.798C623.774,-413.695 632.588,-411.692 641,-410 709.731,-396.179 785.668,-384.305 852.979,-374.936"/>
<polygon fill="black" stroke="black" points="853.849,-378.349 863.275,-373.513 852.89,-371.415 853.849,-378.349"/>
</g>
<!-- prediction_years&#45;&gt;extract_prediction_model -->
<g id="edge18" class="edge"><title>prediction_years&#45;&gt;extract_prediction_model</title>
<path fill="none" stroke="black" d="M546.757,-415.131C529.593,-373.97 486.236,-269.998 464.239,-217.247"/>
<polygon fill="black" stroke="black" points="467.343,-215.599 460.264,-207.716 460.883,-218.293 467.343,-215.599"/>
</g>
<!-- prediction_years&#45;&gt;extract_uncertainty_model -->
<g id="edge22" class="edge"><title>prediction_years&#45;&gt;extract_uncertainty_model</title>
<path fill="none" stroke="black" d="M563.361,-415.376C585.176,-377.305 643.415,-285.723 720,-244 746.874,-229.359 802.539,-217.81 863.609,-208.978"/>
<polygon fill="black" stroke="black" points="864.443,-212.395 873.854,-207.528 863.463,-205.464 864.443,-212.395"/>
</g>
<!-- prism_data_for_coordinates&#45;&gt;gen_paleocar_model -->
<g id="edge14" class="edge"><title>prism_data_for_coordinates&#45;&gt;gen_paleocar_model</title>
<path fill="none" stroke="black" d="M870.992,-410.473C901.683,-400.072 938.479,-387.601 970.313,-376.812"/>
<polygon fill="black" stroke="black" points="971.673,-380.047 980.021,-373.522 969.427,-373.417 971.673,-380.047"/>
</g>
<!-- prism_data -->
<g id="node17" class="node"><title>prism_data</title>
<path fill="#fcfcfc" stroke="black" d="M959.5,-576.5C959.5,-576.5 1090.5,-576.5 1090.5,-576.5 1096.5,-576.5 1102.5,-582.5 1102.5,-588.5 1102.5,-588.5 1102.5,-610.5 1102.5,-610.5 1102.5,-616.5 1096.5,-622.5 1090.5,-622.5 1090.5,-622.5 959.5,-622.5 959.5,-622.5 953.5,-622.5 947.5,-616.5 947.5,-610.5 947.5,-610.5 947.5,-588.5 947.5,-588.5 947.5,-582.5 953.5,-576.5 959.5,-576.5"/>
<text text-anchor="middle" x="1025" y="-607.3" font-family="Helvetica,sans-Serif" font-size="14.00">prism_data</text>
<polyline fill="none" stroke="black" points="947.5,-599.5 1102.5,-599.5 "/>
<text text-anchor="middle" x="1025" y="-584.3" font-family="Helvetica,sans-Serif" font-size="14.00">file:/data/{data_file}.nc</text>
</g>
<!-- prism_data&#45;&gt;extract_prism_data -->
<g id="edge7" class="edge"><title>prism_data&#45;&gt;extract_prism_data</title>
<path fill="none" stroke="black" d="M965.447,-576.473C937.566,-566.162 904.188,-553.816 875.193,-543.092"/>
<polygon fill="black" stroke="black" points="876.135,-539.709 865.542,-539.522 873.706,-546.274 876.135,-539.709"/>
</g>
<!-- label -->
<g id="node18" class="node"><title>label</title>
<path fill="#fcfcfc" stroke="black" d="M1305,-451.5C1305,-451.5 1275,-451.5 1275,-451.5 1269,-451.5 1263,-445.5 1263,-439.5 1263,-439.5 1263,-427.5 1263,-427.5 1263,-421.5 1269,-415.5 1275,-415.5 1275,-415.5 1305,-415.5 1305,-415.5 1311,-415.5 1317,-421.5 1317,-427.5 1317,-427.5 1317,-439.5 1317,-439.5 1317,-445.5 1311,-451.5 1305,-451.5"/>
<text text-anchor="middle" x="1290" y="-429.8" font-family="Helvetica,sans-Serif" font-size="14.00">label</text>
</g>
<!-- label&#45;&gt;gen_paleocar_model -->
<g id="edge10" class="edge"><title>label&#45;&gt;gen_paleocar_model</title>
<path fill="none" stroke="black" d="M1264.53,-415.357C1261.07,-413.395 1257.51,-411.548 1254,-410 1223.07,-396.347 1188.16,-385.078 1155.84,-376.199"/>
<polygon fill="black" stroke="black" points="1156.47,-372.744 1145.9,-373.521 1154.65,-379.503 1156.47,-372.744"/>
</g>
<!-- calibration_year -->
<g id="node19" class="node"><title>calibration_year</title>
<path fill="#fcfcfc" stroke="black" d="M1233,-451.5C1233,-451.5 1141,-451.5 1141,-451.5 1135,-451.5 1129,-445.5 1129,-439.5 1129,-439.5 1129,-427.5 1129,-427.5 1129,-421.5 1135,-415.5 1141,-415.5 1141,-415.5 1233,-415.5 1233,-415.5 1239,-415.5 1245,-421.5 1245,-427.5 1245,-427.5 1245,-439.5 1245,-439.5 1245,-445.5 1239,-451.5 1233,-451.5"/>
<text text-anchor="middle" x="1187" y="-429.8" font-family="Helvetica,sans-Serif" font-size="14.00">calibration_year</text>
</g>
<!-- calibration_year&#45;&gt;gen_paleocar_model -->
<g id="edge11" class="edge"><title>calibration_year&#45;&gt;gen_paleocar_model</title>
<path fill="none" stroke="black" d="M1156.89,-415.322C1138.22,-404.676 1113.84,-390.768 1092.6,-378.654"/>
<polygon fill="black" stroke="black" points="1094.14,-375.501 1083.72,-373.587 1090.67,-381.582 1094.14,-375.501"/>
</g>
<!-- itrdb -->
<g id="node20" class="node"><title>itrdb</title>
<path fill="#fcfcfc" stroke="black" d="M991.5,-410.5C991.5,-410.5 1098.5,-410.5 1098.5,-410.5 1104.5,-410.5 1110.5,-416.5 1110.5,-422.5 1110.5,-422.5 1110.5,-444.5 1110.5,-444.5 1110.5,-450.5 1104.5,-456.5 1098.5,-456.5 1098.5,-456.5 991.5,-456.5 991.5,-456.5 985.5,-456.5 979.5,-450.5 979.5,-444.5 979.5,-444.5 979.5,-422.5 979.5,-422.5 979.5,-416.5 985.5,-410.5 991.5,-410.5"/>
<text text-anchor="middle" x="1045" y="-441.3" font-family="Helvetica,sans-Serif" font-size="14.00">itrdb</text>
<polyline fill="none" stroke="black" points="979.5,-433.5 1110.5,-433.5 "/>
<text text-anchor="middle" x="1045" y="-418.3" font-family="Helvetica,sans-Serif" font-size="14.00">file:/data/itrdb.Rda</text>
</g>
<!-- itrdb&#45;&gt;gen_paleocar_model -->
<g id="edge12" class="edge"><title>itrdb&#45;&gt;gen_paleocar_model</title>
<path fill="none" stroke="black" d="M1045,-410.366C1045,-402.152 1045,-392.658 1045,-383.725"/>
<polygon fill="black" stroke="black" points="1048.5,-383.607 1045,-373.607 1041.5,-383.607 1048.5,-383.607"/>
</g>
<!-- user_map_marker_pos_input_port -->
<g id="node21" class="node"><title>user_map_marker_pos_input_port</title>
<ellipse fill="#ffffff" stroke="black" cx="1136" cy="-825" rx="7" ry="7"/>
</g>
<!-- user_map_marker_pos_input_port&#45;&gt;user_map_marker_pos -->
<g id="edge23" class="edge"><title>user_map_marker_pos_input_port&#45;&gt;user_map_marker_pos</title>
<path fill="none" stroke="black" d="M1133.03,-818.243C1130.24,-813.342 1125.66,-806.413 1120,-802 1109.8,-794.053 1097.86,-787.441 1085.81,-782.013"/>
<polygon fill="black" stroke="black" points="1087.18,-778.79 1076.61,-778.092 1084.43,-785.23 1087.18,-778.79"/>
</g>
<!-- user_prediction_years_input_port -->
<g id="node22" class="node"><title>user_prediction_years_input_port</title>
<ellipse fill="#ffffff" stroke="black" cx="1104" cy="-825" rx="7" ry="7"/>
</g>
<!-- user_prediction_years_input_port&#45;&gt;user_prediction_years -->
<g id="edge24" class="edge"><title>user_prediction_years_input_port&#45;&gt;user_prediction_years</title>
<path fill="none" stroke="black" d="M1097.18,-823.179C1073.47,-820.253 992.474,-809.666 927,-794 911.777,-790.358 895.545,-785.705 880.476,-781.05"/>
<polygon fill="black" stroke="black" points="881.354,-777.657 870.764,-778.001 879.257,-784.336 881.354,-777.657"/>
</g>
<!-- prism_data_input_port -->
<g id="node23" class="node"><title>prism_data_input_port</title>
<ellipse fill="#ffffff" stroke="black" cx="1168" cy="-825" rx="7" ry="7"/>
</g>
<!-- prism_data_input_port&#45;&gt;prism_data -->
<g id="edge25" class="edge"><title>prism_data_input_port&#45;&gt;prism_data</title>
<path fill="none" stroke="black" d="M1164.64,-818.556C1151.77,-797.738 1104.34,-721.223 1064,-659 1058.12,-649.936 1051.65,-640.147 1045.69,-631.218"/>
<polygon fill="black" stroke="black" points="1048.42,-629 1039.95,-622.635 1042.6,-632.893 1048.42,-629"/>
</g>
<!-- itrdb_input_port -->
<g id="node24" class="node"><title>itrdb_input_port</title>
<ellipse fill="#ffffff" stroke="black" cx="1200" cy="-825" rx="7" ry="7"/>
</g>
<!-- itrdb_input_port&#45;&gt;itrdb -->
<g id="edge26" class="edge"><title>itrdb_input_port&#45;&gt;itrdb</title>
<path fill="none" stroke="black" d="M1200.38,-817.84C1201.54,-798.23 1205,-735.489 1205,-683.5 1205,-683.5 1205,-683.5 1205,-598.5 1205,-550.857 1215.88,-530.11 1186,-493 1176.74,-481.501 1148.84,-468.931 1120.27,-458.401"/>
<polygon fill="black" stroke="black" points="1121.18,-455.007 1110.58,-454.912 1118.81,-461.593 1121.18,-455.007"/>
</g>
<!-- calibration_year_input_port -->
<g id="node25" class="node"><title>calibration_year_input_port</title>
<ellipse fill="#ffffff" stroke="black" cx="1232" cy="-825" rx="7" ry="7"/>
</g>
<!-- calibration_year_input_port&#45;&gt;calibration_year -->
<g id="edge27" class="edge"><title>calibration_year_input_port&#45;&gt;calibration_year</title>
<path fill="none" stroke="black" d="M1232.83,-817.851C1235.38,-798.272 1243,-735.615 1243,-683.5 1243,-683.5 1243,-683.5 1243,-598.5 1243,-550.413 1236.03,-537.968 1219,-493 1214.8,-481.925 1208.85,-470.359 1203.22,-460.463"/>
<polygon fill="black" stroke="black" points="1206.07,-458.403 1197.98,-451.558 1200.03,-461.952 1206.07,-458.403"/>
</g>
<!-- label_input_port -->
<g id="node26" class="node"><title>label_input_port</title>
<ellipse fill="#ffffff" stroke="black" cx="1264" cy="-825" rx="7" ry="7"/>
</g>
<!-- label_input_port&#45;&gt;label -->
<g id="edge28" class="edge"><title>label_input_port&#45;&gt;label</title>
<path fill="none" stroke="black" d="M1265.58,-818.162C1270.63,-799.017 1286,-736.336 1286,-683.5 1286,-683.5 1286,-683.5 1286,-598.5 1286,-550.394 1287.74,-494.375 1288.93,-461.826"/>
<polygon fill="black" stroke="black" points="1292.43,-461.857 1289.3,-451.733 1285.43,-461.595 1292.43,-461.857"/>
</g>
</g>
</svg>
