<?xml version="1.0" encoding="UTF-8" standalone="no"?>
<!DOCTYPE svg PUBLIC "-//W3C//DTD SVG 1.1//EN"
 "http://www.w3.org/Graphics/SVG/1.1/DTD/svg11.dtd">
<!-- Generated by graphviz version 2.38.0 (20140413.2041)
 -->
<!-- Title: Workflow Pages: 1 -->
<svg width="1530pt" height="864pt"
 viewBox="0.00 0.00 1530.42 864.00" xmlns="http://www.w3.org/2000/svg" xmlns:xlink="http://www.w3.org/1999/xlink">
<g id="graph0" class="graph" transform="scale(1 1) rotate(0) translate(4 860)">
<title>Workflow</title>
<polygon fill="white" stroke="none" points="-4,4 -4,-860 1526.42,-860 1526.42,4 -4,4"/>
<g id="clust1" class="cluster"><title>cluster_workflow_box_outer</title>
<polygon fill="none" stroke="black" stroke-width="2" points="8,-62 8,-794 1465,-794 1465,-62 8,-62"/>
</g>
<g id="clust2" class="cluster"><title>cluster_workflow_box_inner</title>
<polygon fill="none" stroke="black" stroke-width="0" points="16,-70 16,-786 1457,-786 1457,-70 16,-70"/>
</g>
<g id="clust3" class="cluster"><title>cluster_input_ports_group_outer</title>
<polygon fill="none" stroke="black" stroke-width="0" points="1088,-802 1088,-848 1262,-848 1262,-802 1088,-802"/>
</g>
<g id="clust4" class="cluster"><title>cluster_input_ports_group_inner</title>
<polygon fill="none" stroke="black" stroke-width="0" points="1096,-810 1096,-840 1254,-840 1254,-810 1096,-810"/>
</g>
<g id="clust5" class="cluster"><title>cluster_output_ports_group_outer</title>
<polygon fill="none" stroke="black" stroke-width="0" points="980,-8 980,-54 1186,-54 1186,-8 980,-8"/>
</g>
<g id="clust6" class="cluster"><title>cluster_output_ports_group_inner</title>
<polygon fill="none" stroke="black" stroke-width="0" points="988,-16 988,-46 1178,-46 1178,-16 988,-16"/>
</g>
<!-- get_user_input -->
<g id="node1" class="node"><title>get_user_input</title>
<polygon fill="#ccffcc" stroke="black" points="647,-659.5 647,-705.5 1133,-705.5 1133,-659.5 647,-659.5"/>
<text text-anchor="middle" x="890" y="-690.3" font-family="Helvetica,sans-Serif" font-size="14.00">get_user_input</text>
<polyline fill="none" stroke="black" points="647,-682.5 1133,-682.5 "/>
<text text-anchor="middle" x="890" y="-667.3" font-family="Helvetica,sans-Serif" font-size="14.00">Get coordinates and years for predicting the model from the web app user.</text>
</g>
<!-- coordinates -->
<g id="node14" class="node"><title>coordinates</title>
<path fill="#ffffcc" stroke="black" d="M923.5,-617.5C923.5,-617.5 856.5,-617.5 856.5,-617.5 850.5,-617.5 844.5,-611.5 844.5,-605.5 844.5,-605.5 844.5,-593.5 844.5,-593.5 844.5,-587.5 850.5,-581.5 856.5,-581.5 856.5,-581.5 923.5,-581.5 923.5,-581.5 929.5,-581.5 935.5,-587.5 935.5,-593.5 935.5,-593.5 935.5,-605.5 935.5,-605.5 935.5,-611.5 929.5,-617.5 923.5,-617.5"/>
<text text-anchor="middle" x="890" y="-595.8" font-family="Helvetica,sans-Serif" font-size="14.00">coordinates</text>
</g>
<!-- get_user_input&#45;&gt;coordinates -->
<g id="edge1" class="edge"><title>get_user_input&#45;&gt;coordinates</title>
<path fill="none" stroke="black" d="M890,-659.366C890,-649.632 890,-638.102 890,-627.838"/>
<polygon fill="black" stroke="black" points="893.5,-627.728 890,-617.728 886.5,-627.728 893.5,-627.728"/>
</g>
<!-- prediction.year -->
<g id="node15" class="node"><title>prediction.year</title>
<path fill="#ffffcc" stroke="black" d="M624,-451.5C624,-451.5 538,-451.5 538,-451.5 532,-451.5 526,-445.5 526,-439.5 526,-439.5 526,-427.5 526,-427.5 526,-421.5 532,-415.5 538,-415.5 538,-415.5 624,-415.5 624,-415.5 630,-415.5 636,-421.5 636,-427.5 636,-427.5 636,-439.5 636,-439.5 636,-445.5 630,-451.5 624,-451.5"/>
<text text-anchor="middle" x="581" y="-429.8" font-family="Helvetica,sans-Serif" font-size="14.00">prediction.year</text>
</g>
<!-- get_user_input&#45;&gt;prediction.year -->
<g id="edge2" class="edge"><title>get_user_input&#45;&gt;prediction.year</title>
<path fill="none" stroke="black" d="M708.745,-659.4C634.393,-640.401 555.286,-605.187 510,-540 498.082,-522.845 501.087,-511.892 510,-493 516.7,-478.799 528.725,-466.878 540.997,-457.579"/>
<polygon fill="black" stroke="black" points="543.341,-460.208 549.47,-451.565 539.289,-454.499 543.341,-460.208"/>
</g>
<!-- extract_prism_data -->
<g id="node2" class="node"><title>extract_prism_data</title>
<polygon fill="#ccffcc" stroke="black" points="519,-493.5 519,-539.5 1261,-539.5 1261,-493.5 519,-493.5"/>
<text text-anchor="middle" x="890" y="-524.3" font-family="Helvetica,sans-Serif" font-size="14.00">extract_prism_data</text>
<polyline fill="none" stroke="black" points="519,-516.5 1261,-516.5 "/>
<text text-anchor="middle" x="890" y="-501.3" font-family="Helvetica,sans-Serif" font-size="14.00">Load the prism data file with precipitation values and extract the data for the input coordinates and save as a csv file.</text>
</g>
<!-- prism_data_for_coordinates -->
<g id="node16" class="node"><title>prism_data_for_coordinates</title>
<path fill="#ffffcc" stroke="black" d="M753.5,-410.5C753.5,-410.5 1040.5,-410.5 1040.5,-410.5 1046.5,-410.5 1052.5,-416.5 1052.5,-422.5 1052.5,-422.5 1052.5,-444.5 1052.5,-444.5 1052.5,-450.5 1046.5,-456.5 1040.5,-456.5 1040.5,-456.5 753.5,-456.5 753.5,-456.5 747.5,-456.5 741.5,-450.5 741.5,-444.5 741.5,-444.5 741.5,-422.5 741.5,-422.5 741.5,-416.5 747.5,-410.5 753.5,-410.5"/>
<text text-anchor="middle" x="897" y="-441.3" font-family="Helvetica,sans-Serif" font-size="14.00">prism_data_for_coordinates</text>
<polyline fill="none" stroke="black" points="741.5,-433.5 1052.5,-433.5 "/>
<text text-anchor="middle" x="897" y="-418.3" font-family="Helvetica,sans-Serif" font-size="14.00">file:/.output/{session_id}/{run_id}/{data_file}.csv</text>
</g>
<!-- extract_prism_data&#45;&gt;prism_data_for_coordinates -->
<g id="edge5" class="edge"><title>extract_prism_data&#45;&gt;prism_data_for_coordinates</title>
<path fill="none" stroke="black" d="M891.913,-493.366C892.623,-485.152 893.443,-475.658 894.215,-466.725"/>
<polygon fill="black" stroke="black" points="897.715,-466.871 895.09,-456.607 890.741,-466.268 897.715,-466.871"/>
</g>
<!-- gen_paleocar_model -->
<g id="node3" class="node"><title>gen_paleocar_model</title>
<polygon fill="#ccffcc" stroke="black" points="733.5,-327.5 733.5,-373.5 1198.5,-373.5 1198.5,-327.5 733.5,-327.5"/>
<text text-anchor="middle" x="966" y="-358.3" font-family="Helvetica,sans-Serif" font-size="14.00">gen_paleocar_model</text>
<polyline fill="none" stroke="black" points="733.5,-350.5 1198.5,-350.5 "/>
<text text-anchor="middle" x="966" y="-335.3" font-family="Helvetica,sans-Serif" font-size="14.00">generate paleocar models for predicting the climate for the given years.</text>
</g>
<!-- paleocar_models -->
<g id="node6" class="node"><title>paleocar_models</title>
<path fill="#ffffcc" stroke="black" d="M741.5,-244.5C741.5,-244.5 1050.5,-244.5 1050.5,-244.5 1056.5,-244.5 1062.5,-250.5 1062.5,-256.5 1062.5,-256.5 1062.5,-278.5 1062.5,-278.5 1062.5,-284.5 1056.5,-290.5 1050.5,-290.5 1050.5,-290.5 741.5,-290.5 741.5,-290.5 735.5,-290.5 729.5,-284.5 729.5,-278.5 729.5,-278.5 729.5,-256.5 729.5,-256.5 729.5,-250.5 735.5,-244.5 741.5,-244.5"/>
<text text-anchor="middle" x="896" y="-275.3" font-family="Helvetica,sans-Serif" font-size="14.00">paleocar_models</text>
<polyline fill="none" stroke="black" points="729.5,-267.5 1062.5,-267.5 "/>
<text text-anchor="middle" x="896" y="-252.3" font-family="Helvetica,sans-Serif" font-size="14.00">file:/.output/{session_id}{run_id}/{label}.models.rds</text>
</g>
<!-- gen_paleocar_model&#45;&gt;paleocar_models -->
<g id="edge8" class="edge"><title>gen_paleocar_model&#45;&gt;paleocar_models</title>
<path fill="none" stroke="black" d="M946.872,-327.366C939.156,-318.437 930.133,-307.997 921.847,-298.409"/>
<polygon fill="black" stroke="black" points="924.291,-295.884 915.105,-290.607 918.995,-300.462 924.291,-295.884"/>
</g>
<!-- paleocar_model_log_file -->
<g id="node11" class="node"><title>paleocar_model_log_file</title>
<path fill="#ffffcc" stroke="black" d="M1093,-244.5C1093,-244.5 1437,-244.5 1437,-244.5 1443,-244.5 1449,-250.5 1449,-256.5 1449,-256.5 1449,-278.5 1449,-278.5 1449,-284.5 1443,-290.5 1437,-290.5 1437,-290.5 1093,-290.5 1093,-290.5 1087,-290.5 1081,-284.5 1081,-278.5 1081,-278.5 1081,-256.5 1081,-256.5 1081,-250.5 1087,-244.5 1093,-244.5"/>
<text text-anchor="middle" x="1265" y="-275.3" font-family="Helvetica,sans-Serif" font-size="14.00">paleocar_model_log_file</text>
<polyline fill="none" stroke="black" points="1081,-267.5 1449,-267.5 "/>
<text text-anchor="middle" x="1265" y="-252.3" font-family="Helvetica,sans-Serif" font-size="14.00">file:/.output/{session_id}{run_id}/paleocar_model_log.txt</text>
</g>
<!-- gen_paleocar_model&#45;&gt;paleocar_model_log_file -->
<g id="edge9" class="edge"><title>gen_paleocar_model&#45;&gt;paleocar_model_log_file</title>
<path fill="none" stroke="black" d="M1047.31,-327.473C1086.45,-316.87 1133.53,-304.117 1173.87,-293.187"/>
<polygon fill="black" stroke="black" points="1174.97,-296.515 1183.71,-290.522 1173.14,-289.759 1174.97,-296.515"/>
</g>
<!-- exrtact_prediction_model -->
<g id="node4" class="node"><title>exrtact_prediction_model</title>
<polygon fill="#ccffcc" stroke="black" points="123,-161.5 123,-207.5 785,-207.5 785,-161.5 123,-161.5"/>
<text text-anchor="middle" x="454" y="-192.3" font-family="Helvetica,sans-Serif" font-size="14.00">exrtact_prediction_model</text>
<polyline fill="none" stroke="black" points="123,-184.5 785,-184.5 "/>
<text text-anchor="middle" x="454" y="-169.3" font-family="Helvetica,sans-Serif" font-size="14.00">extract the rasterbrick reconstruction from a PaleoCAR batch model for the specified prediction period.</text>
</g>
<!-- prediction_model -->
<g id="node7" class="node"><title>prediction_model</title>
<path fill="#ffffcc" stroke="black" d="M36,-78.5C36,-78.5 364,-78.5 364,-78.5 370,-78.5 376,-84.5 376,-90.5 376,-90.5 376,-112.5 376,-112.5 376,-118.5 370,-124.5 364,-124.5 364,-124.5 36,-124.5 36,-124.5 30,-124.5 24,-118.5 24,-112.5 24,-112.5 24,-90.5 24,-90.5 24,-84.5 30,-78.5 36,-78.5"/>
<text text-anchor="middle" x="200" y="-109.3" font-family="Helvetica,sans-Serif" font-size="14.00">prediction_model</text>
<polyline fill="none" stroke="black" points="24,-101.5 376,-101.5 "/>
<text text-anchor="middle" x="200" y="-86.3" font-family="Helvetica,sans-Serif" font-size="14.00">file:/.output/{session_id}/{run_id}/{label}.prediction.rds</text>
</g>
<!-- exrtact_prediction_model&#45;&gt;prediction_model -->
<g id="edge14" class="edge"><title>exrtact_prediction_model&#45;&gt;prediction_model</title>
<path fill="none" stroke="black" d="M384.929,-161.473C352.171,-151.027 312.87,-138.494 278.937,-127.673"/>
<polygon fill="black" stroke="black" points="279.648,-124.226 269.057,-124.522 277.521,-130.895 279.648,-124.226"/>
</g>
<!-- prediction_plot -->
<g id="node9" class="node"><title>prediction_plot</title>
<path fill="#ffffcc" stroke="black" d="M406.5,-78.5C406.5,-78.5 687.5,-78.5 687.5,-78.5 693.5,-78.5 699.5,-84.5 699.5,-90.5 699.5,-90.5 699.5,-112.5 699.5,-112.5 699.5,-118.5 693.5,-124.5 687.5,-124.5 687.5,-124.5 406.5,-124.5 406.5,-124.5 400.5,-124.5 394.5,-118.5 394.5,-112.5 394.5,-112.5 394.5,-90.5 394.5,-90.5 394.5,-84.5 400.5,-78.5 406.5,-78.5"/>
<text text-anchor="middle" x="547" y="-109.3" font-family="Helvetica,sans-Serif" font-size="14.00">prediction_plot</text>
<polyline fill="none" stroke="black" points="394.5,-101.5 699.5,-101.5 "/>
<text text-anchor="middle" x="547" y="-86.3" font-family="Helvetica,sans-Serif" font-size="14.00">file:/{session_id}/{run_id}/{label}.prediction.jpg</text>
</g>
<!-- exrtact_prediction_model&#45;&gt;prediction_plot -->
<g id="edge15" class="edge"><title>exrtact_prediction_model&#45;&gt;prediction_plot</title>
<path fill="none" stroke="black" d="M479.413,-161.366C490.075,-152.08 502.613,-141.16 513.976,-131.262"/>
<polygon fill="black" stroke="black" points="516.376,-133.814 521.618,-124.607 511.778,-128.535 516.376,-133.814"/>
</g>
<!-- extract_uncertainty_model -->
<g id="node5" class="node"><title>extract_uncertainty_model</title>
<polygon fill="#ccffcc" stroke="black" points="803,-161.5 803,-207.5 1423,-207.5 1423,-161.5 803,-161.5"/>
<text text-anchor="middle" x="1113" y="-192.3" font-family="Helvetica,sans-Serif" font-size="14.00">extract_uncertainty_model</text>
<polyline fill="none" stroke="black" points="803,-184.5 1423,-184.5 "/>
<text text-anchor="middle" x="1113" y="-169.3" font-family="Helvetica,sans-Serif" font-size="14.00">extract the LOOCV uncertainty information from the set of Paleocar models for specified period.</text>
</g>
<!-- uncertainty_model -->
<g id="node8" class="node"><title>uncertainty_model</title>
<path fill="#ffffcc" stroke="black" d="M729.5,-78.5C729.5,-78.5 1062.5,-78.5 1062.5,-78.5 1068.5,-78.5 1074.5,-84.5 1074.5,-90.5 1074.5,-90.5 1074.5,-112.5 1074.5,-112.5 1074.5,-118.5 1068.5,-124.5 1062.5,-124.5 1062.5,-124.5 729.5,-124.5 729.5,-124.5 723.5,-124.5 717.5,-118.5 717.5,-112.5 717.5,-112.5 717.5,-90.5 717.5,-90.5 717.5,-84.5 723.5,-78.5 729.5,-78.5"/>
<text text-anchor="middle" x="896" y="-109.3" font-family="Helvetica,sans-Serif" font-size="14.00">uncertainty_model</text>
<polyline fill="none" stroke="black" points="717.5,-101.5 1074.5,-101.5 "/>
<text text-anchor="middle" x="896" y="-86.3" font-family="Helvetica,sans-Serif" font-size="14.00">file:/.output/{session_id}/{run_id}/{label}.uncertainty.rds</text>
</g>
<!-- extract_uncertainty_model&#45;&gt;uncertainty_model -->
<g id="edge18" class="edge"><title>extract_uncertainty_model&#45;&gt;uncertainty_model</title>
<path fill="none" stroke="black" d="M1053.99,-161.473C1026.36,-151.162 993.292,-138.816 964.561,-128.092"/>
<polygon fill="black" stroke="black" points="965.59,-124.74 954.998,-124.522 963.142,-131.298 965.59,-124.74"/>
</g>
<!-- uncertainty_plot -->
<g id="node10" class="node"><title>uncertainty_plot</title>
<path fill="#ffffcc" stroke="black" d="M1105,-78.5C1105,-78.5 1437,-78.5 1437,-78.5 1443,-78.5 1449,-84.5 1449,-90.5 1449,-90.5 1449,-112.5 1449,-112.5 1449,-118.5 1443,-124.5 1437,-124.5 1437,-124.5 1105,-124.5 1105,-124.5 1099,-124.5 1093,-118.5 1093,-112.5 1093,-112.5 1093,-90.5 1093,-90.5 1093,-84.5 1099,-78.5 1105,-78.5"/>
<text text-anchor="middle" x="1271" y="-109.3" font-family="Helvetica,sans-Serif" font-size="14.00">uncertainty_plot</text>
<polyline fill="none" stroke="black" points="1093,-101.5 1449,-101.5 "/>
<text text-anchor="middle" x="1271" y="-86.3" font-family="Helvetica,sans-Serif" font-size="14.00">file:/.output/{session_id}/{run_id}/{label}.uncertainty.jpg</text>
</g>
<!-- extract_uncertainty_model&#45;&gt;uncertainty_plot -->
<g id="edge19" class="edge"><title>extract_uncertainty_model&#45;&gt;uncertainty_plot</title>
<path fill="none" stroke="black" d="M1156.17,-161.366C1175.51,-151.455 1198.47,-139.682 1218.76,-129.279"/>
<polygon fill="black" stroke="black" points="1220.58,-132.283 1227.88,-124.607 1217.38,-126.054 1220.58,-132.283"/>
</g>
<!-- paleocar_models&#45;&gt;exrtact_prediction_model -->
<g id="edge16" class="edge"><title>paleocar_models&#45;&gt;exrtact_prediction_model</title>
<path fill="none" stroke="black" d="M775.805,-244.473C716.478,-233.601 644.815,-220.468 584.189,-209.358"/>
<polygon fill="black" stroke="black" points="584.638,-205.882 574.171,-207.522 583.376,-212.768 584.638,-205.882"/>
</g>
<!-- paleocar_models&#45;&gt;extract_uncertainty_model -->
<g id="edge20" class="edge"><title>paleocar_models&#45;&gt;extract_uncertainty_model</title>
<path fill="none" stroke="black" d="M955.01,-244.473C982.635,-234.162 1015.71,-221.816 1044.44,-211.092"/>
<polygon fill="black" stroke="black" points="1045.86,-214.298 1054,-207.522 1043.41,-207.74 1045.86,-214.298"/>
</g>
<!-- paleocar_models_output_port -->
<g id="node25" class="node"><title>paleocar_models_output_port</title>
<ellipse fill="#ffffff" stroke="black" cx="1131" cy="-31" rx="7" ry="7"/>
</g>
<!-- paleocar_models&#45;&gt;paleocar_models_output_port -->
<g id="edge27" class="edge"><title>paleocar_models&#45;&gt;paleocar_models_output_port</title>
<path fill="none" stroke="black" d="M1062.74,-245.066C1065.85,-244.704 1068.94,-244.349 1072,-244 1151.88,-234.901 1369.66,-258.77 1432,-208 1483.11,-166.38 1504,-109.201 1458,-62 1445.94,-49.6226 1162.3,-62.0403 1147,-54 1143.74,-52.2863 1140.98,-49.5746 1138.72,-46.632"/>
<polygon fill="black" stroke="black" points="1141.6,-44.6285 1133.43,-37.8793 1135.61,-48.2484 1141.6,-44.6285"/>
</g>
<!-- prediction_model_output_port -->
<g id="node26" class="node"><title>prediction_model_output_port</title>
<ellipse fill="#ffffff" stroke="black" cx="1003" cy="-31" rx="7" ry="7"/>
</g>
<!-- prediction_model&#45;&gt;prediction_model_output_port -->
<g id="edge28" class="edge"><title>prediction_model&#45;&gt;prediction_model_output_port</title>
<path fill="none" stroke="black" d="M291.739,-78.447C321.342,-72.1281 354.41,-65.9011 385,-62 621.695,-31.815 912.93,-31.426 985.842,-31.8514"/>
<polygon fill="black" stroke="black" points="985.917,-35.3519 995.943,-31.925 985.968,-28.3521 985.917,-35.3519"/>
</g>
<!-- uncertainty_model_output_port -->
<g id="node27" class="node"><title>uncertainty_model_output_port</title>
<ellipse fill="#ffffff" stroke="black" cx="1067" cy="-31" rx="7" ry="7"/>
</g>
<!-- uncertainty_model&#45;&gt;uncertainty_model_output_port -->
<g id="edge29" class="edge"><title>uncertainty_model&#45;&gt;uncertainty_model_output_port</title>
<path fill="none" stroke="black" d="M1003.24,-78.368C1020.11,-72.1241 1036.68,-64.1557 1051,-54 1054.01,-51.8694 1056.66,-48.9948 1058.91,-46.0274"/>
<polygon fill="black" stroke="black" points="1061.92,-47.8139 1064.33,-37.4976 1056.01,-44.0573 1061.92,-47.8139"/>
</g>
<!-- prediction_plot_output_port -->
<g id="node28" class="node"><title>prediction_plot_output_port</title>
<ellipse fill="#ffffff" stroke="black" cx="1035" cy="-31" rx="7" ry="7"/>
</g>
<!-- prediction_plot&#45;&gt;prediction_plot_output_port -->
<g id="edge30" class="edge"><title>prediction_plot&#45;&gt;prediction_plot_output_port</title>
<path fill="none" stroke="black" d="M624.592,-78.4814C650.857,-71.9581 680.501,-65.6013 708,-62 725.137,-59.7557 1003.7,-62.0403 1019,-54 1022.26,-52.2863 1025.02,-49.5746 1027.28,-46.632"/>
<polygon fill="black" stroke="black" points="1030.39,-48.2484 1032.57,-37.8793 1024.4,-44.6285 1030.39,-48.2484"/>
</g>
<!-- uncertainty_plot_output_port -->
<g id="node29" class="node"><title>uncertainty_plot_output_port</title>
<ellipse fill="#ffffff" stroke="black" cx="1099" cy="-31" rx="7" ry="7"/>
</g>
<!-- uncertainty_plot&#45;&gt;uncertainty_plot_output_port -->
<g id="edge31" class="edge"><title>uncertainty_plot&#45;&gt;uncertainty_plot_output_port</title>
<path fill="none" stroke="black" d="M1163.07,-78.4493C1146.09,-72.1958 1129.42,-64.2031 1115,-54 1111.99,-51.8721 1109.33,-48.9985 1107.09,-46.0312"/>
<polygon fill="black" stroke="black" points="1109.98,-44.0611 1101.66,-37.5 1104.08,-47.8168 1109.98,-44.0611"/>
</g>
<!-- paleocar_model_log_file_output_port -->
<g id="node30" class="node"><title>paleocar_model_log_file_output_port</title>
<ellipse fill="#ffffff" stroke="black" cx="1163" cy="-31" rx="7" ry="7"/>
</g>
<!-- paleocar_model_log_file&#45;&gt;paleocar_model_log_file_output_port -->
<g id="edge32" class="edge"><title>paleocar_model_log_file&#45;&gt;paleocar_model_log_file_output_port</title>
<path fill="none" stroke="black" d="M1405.84,-244.466C1444.51,-235.393 1479.12,-223.343 1491,-208 1530.72,-156.689 1534.74,-109.927 1491,-62 1469.86,-38.8395 1244.15,-33.3435 1179.95,-32.2445"/>
<polygon fill="black" stroke="black" points="1179.98,-28.7447 1169.92,-32.0872 1179.87,-35.7438 1179.98,-28.7447"/>
</g>
<!-- user_map_marker_pos -->
<g id="node12" class="node"><title>user_map_marker_pos</title>
<path fill="#ffffcc" stroke="black" d="M1135,-778C1135,-778 995,-778 995,-778 989,-778 983,-772 983,-766 983,-766 983,-754 983,-754 983,-748 989,-742 995,-742 995,-742 1135,-742 1135,-742 1141,-742 1147,-748 1147,-754 1147,-754 1147,-766 1147,-766 1147,-772 1141,-778 1135,-778"/>
<text text-anchor="middle" x="1065" y="-756.3" font-family="Helvetica,sans-Serif" font-size="14.00">user_map_marker_pos</text>
</g>
<!-- user_map_marker_pos&#45;&gt;get_user_input -->
<g id="edge3" class="edge"><title>user_map_marker_pos&#45;&gt;get_user_input</title>
<path fill="none" stroke="black" d="M1025.29,-741.868C1003.2,-732.339 975.256,-720.282 950.504,-709.603"/>
<polygon fill="black" stroke="black" points="951.761,-706.334 941.193,-705.586 948.988,-712.761 951.761,-706.334"/>
</g>
<!-- user_prediction_year -->
<g id="node13" class="node"><title>user_prediction_year</title>
<path fill="#ffffcc" stroke="black" d="M953,-778C953,-778 827,-778 827,-778 821,-778 815,-772 815,-766 815,-766 815,-754 815,-754 815,-748 821,-742 827,-742 827,-742 953,-742 953,-742 959,-742 965,-748 965,-754 965,-754 965,-766 965,-766 965,-772 959,-778 953,-778"/>
<text text-anchor="middle" x="890" y="-756.3" font-family="Helvetica,sans-Serif" font-size="14.00">user_prediction_year</text>
</g>
<!-- user_prediction_year&#45;&gt;get_user_input -->
<g id="edge4" class="edge"><title>user_prediction_year&#45;&gt;get_user_input</title>
<path fill="none" stroke="black" d="M890,-741.868C890,-734.175 890,-724.835 890,-715.902"/>
<polygon fill="black" stroke="black" points="893.5,-715.727 890,-705.727 886.5,-715.727 893.5,-715.727"/>
</g>
<!-- coordinates&#45;&gt;extract_prism_data -->
<g id="edge6" class="edge"><title>coordinates&#45;&gt;extract_prism_data</title>
<path fill="none" stroke="black" d="M890,-581.322C890,-572.102 890,-560.435 890,-549.606"/>
<polygon fill="black" stroke="black" points="893.5,-549.587 890,-539.587 886.5,-549.587 893.5,-549.587"/>
</g>
<!-- prediction.year&#45;&gt;gen_paleocar_model -->
<g id="edge12" class="edge"><title>prediction.year&#45;&gt;gen_paleocar_model</title>
<path fill="none" stroke="black" d="M636.161,-420.895C692.062,-409.134 780.204,-390.59 851.313,-375.629"/>
<polygon fill="black" stroke="black" points="852.163,-379.027 861.228,-373.543 850.722,-372.177 852.163,-379.027"/>
</g>
<!-- prediction.year&#45;&gt;exrtact_prediction_model -->
<g id="edge17" class="edge"><title>prediction.year&#45;&gt;exrtact_prediction_model</title>
<path fill="none" stroke="black" d="M572.07,-415.131C550.862,-373.885 497.224,-269.566 470.154,-216.918"/>
<polygon fill="black" stroke="black" points="473.108,-215.009 465.423,-207.716 466.883,-218.21 473.108,-215.009"/>
</g>
<!-- prediction.year&#45;&gt;extract_uncertainty_model -->
<g id="edge21" class="edge"><title>prediction.year&#45;&gt;extract_uncertainty_model</title>
<path fill="none" stroke="black" d="M588.041,-415.404C604.674,-377.392 650.316,-285.921 720,-244 744.865,-229.041 795.833,-217.596 853.062,-208.971"/>
<polygon fill="black" stroke="black" points="853.668,-212.42 863.053,-207.503 852.65,-205.494 853.668,-212.42"/>
</g>
<!-- prism_data_for_coordinates&#45;&gt;gen_paleocar_model -->
<g id="edge13" class="edge"><title>prism_data_for_coordinates&#45;&gt;gen_paleocar_model</title>
<path fill="none" stroke="black" d="M915.855,-410.366C923.461,-401.437 932.354,-390.997 940.522,-381.409"/>
<polygon fill="black" stroke="black" points="943.348,-383.489 947.168,-373.607 938.019,-378.95 943.348,-383.489"/>
</g>
<!-- prism_data -->
<g id="node17" class="node"><title>prism_data</title>
<path fill="#fcfcfc" stroke="black" d="M1037.5,-576.5C1037.5,-576.5 1168.5,-576.5 1168.5,-576.5 1174.5,-576.5 1180.5,-582.5 1180.5,-588.5 1180.5,-588.5 1180.5,-610.5 1180.5,-610.5 1180.5,-616.5 1174.5,-622.5 1168.5,-622.5 1168.5,-622.5 1037.5,-622.5 1037.5,-622.5 1031.5,-622.5 1025.5,-616.5 1025.5,-610.5 1025.5,-610.5 1025.5,-588.5 1025.5,-588.5 1025.5,-582.5 1031.5,-576.5 1037.5,-576.5"/>
<text text-anchor="middle" x="1103" y="-607.3" font-family="Helvetica,sans-Serif" font-size="14.00">prism_data</text>
<polyline fill="none" stroke="black" points="1025.5,-599.5 1180.5,-599.5 "/>
<text text-anchor="middle" x="1103" y="-584.3" font-family="Helvetica,sans-Serif" font-size="14.00">file:/data/{data_file}.nc</text>
</g>
<!-- prism_data&#45;&gt;extract_prism_data -->
<g id="edge7" class="edge"><title>prism_data&#45;&gt;extract_prism_data</title>
<path fill="none" stroke="black" d="M1045.08,-576.473C1017.96,-566.162 985.498,-553.816 957.297,-543.092"/>
<polygon fill="black" stroke="black" points="958.501,-539.805 947.91,-539.522 956.013,-546.348 958.501,-539.805"/>
</g>
<!-- calibration_year -->
<g id="node18" class="node"><title>calibration_year</title>
<path fill="#fcfcfc" stroke="black" d="M1366,-451.5C1366,-451.5 1274,-451.5 1274,-451.5 1268,-451.5 1262,-445.5 1262,-439.5 1262,-439.5 1262,-427.5 1262,-427.5 1262,-421.5 1268,-415.5 1274,-415.5 1274,-415.5 1366,-415.5 1366,-415.5 1372,-415.5 1378,-421.5 1378,-427.5 1378,-427.5 1378,-439.5 1378,-439.5 1378,-445.5 1372,-451.5 1366,-451.5"/>
<text text-anchor="middle" x="1320" y="-429.8" font-family="Helvetica,sans-Serif" font-size="14.00">calibration_year</text>
</g>
<!-- calibration_year&#45;&gt;gen_paleocar_model -->
<g id="edge10" class="edge"><title>calibration_year&#45;&gt;gen_paleocar_model</title>
<path fill="none" stroke="black" d="M1261.87,-416.118C1253.87,-413.989 1245.74,-411.894 1238,-410 1188.17,-397.816 1132.88,-385.674 1085.23,-375.635"/>
<polygon fill="black" stroke="black" points="1085.69,-372.155 1075.18,-373.526 1084.25,-379.006 1085.69,-372.155"/>
</g>
<!-- itrdb -->
<g id="node19" class="node"><title>itrdb</title>
<path fill="#fcfcfc" stroke="black" d="M1110.5,-410.5C1110.5,-410.5 1217.5,-410.5 1217.5,-410.5 1223.5,-410.5 1229.5,-416.5 1229.5,-422.5 1229.5,-422.5 1229.5,-444.5 1229.5,-444.5 1229.5,-450.5 1223.5,-456.5 1217.5,-456.5 1217.5,-456.5 1110.5,-456.5 1110.5,-456.5 1104.5,-456.5 1098.5,-450.5 1098.5,-444.5 1098.5,-444.5 1098.5,-422.5 1098.5,-422.5 1098.5,-416.5 1104.5,-410.5 1110.5,-410.5"/>
<text text-anchor="middle" x="1164" y="-441.3" font-family="Helvetica,sans-Serif" font-size="14.00">itrdb</text>
<polyline fill="none" stroke="black" points="1098.5,-433.5 1229.5,-433.5 "/>
<text text-anchor="middle" x="1164" y="-418.3" font-family="Helvetica,sans-Serif" font-size="14.00">file:/data/itrdb.Rda</text>
</g>
<!-- itrdb&#45;&gt;gen_paleocar_model -->
<g id="edge11" class="edge"><title>itrdb&#45;&gt;gen_paleocar_model</title>
<path fill="none" stroke="black" d="M1110.16,-410.473C1085.17,-400.251 1055.3,-388.031 1029.24,-377.372"/>
<polygon fill="black" stroke="black" points="1030.41,-374.069 1019.83,-373.522 1027.76,-380.548 1030.41,-374.069"/>
</g>
<!-- user_map_marker_pos_input_port -->
<g id="node20" class="node"><title>user_map_marker_pos_input_port</title>
<ellipse fill="#ffffff" stroke="black" cx="1143" cy="-825" rx="7" ry="7"/>
</g>
<!-- user_map_marker_pos_input_port&#45;&gt;user_map_marker_pos -->
<g id="edge22" class="edge"><title>user_map_marker_pos_input_port&#45;&gt;user_map_marker_pos</title>
<path fill="none" stroke="black" d="M1139.79,-818.514C1136.86,-813.787 1132.19,-806.962 1127,-802 1120.15,-795.45 1112.13,-789.284 1104.17,-783.82"/>
<polygon fill="black" stroke="black" points="1105.9,-780.765 1095.62,-778.183 1102.04,-786.609 1105.9,-780.765"/>
</g>
<!-- user_prediction_year_input_port -->
<g id="node21" class="node"><title>user_prediction_year_input_port</title>
<ellipse fill="#ffffff" stroke="black" cx="1111" cy="-825" rx="7" ry="7"/>
</g>
<!-- user_prediction_year_input_port&#45;&gt;user_prediction_year -->
<g id="edge23" class="edge"><title>user_prediction_year_input_port&#45;&gt;user_prediction_year</title>
<path fill="none" stroke="black" d="M1104.06,-822.882C1083.77,-819.529 1022.92,-808.864 974,-794 962.522,-790.513 950.396,-786.16 939.037,-781.771"/>
<polygon fill="black" stroke="black" points="940.293,-778.504 929.706,-778.094 937.726,-785.016 940.293,-778.504"/>
</g>
<!-- prism_data_input_port -->
<g id="node22" class="node"><title>prism_data_input_port</title>
<ellipse fill="#ffffff" stroke="black" cx="1175" cy="-825" rx="7" ry="7"/>
</g>
<!-- prism_data_input_port&#45;&gt;prism_data -->
<g id="edge24" class="edge"><title>prism_data_input_port&#45;&gt;prism_data</title>
<path fill="none" stroke="black" d="M1174.62,-817.756C1173.1,-795.401 1166.26,-717.567 1142,-659 1138.01,-649.358 1132.33,-639.631 1126.54,-630.952"/>
<polygon fill="black" stroke="black" points="1129.36,-628.871 1120.77,-622.663 1123.61,-632.87 1129.36,-628.871"/>
</g>
<!-- itrdb_input_port -->
<g id="node23" class="node"><title>itrdb_input_port</title>
<ellipse fill="#ffffff" stroke="black" cx="1207" cy="-825" rx="7" ry="7"/>
</g>
<!-- itrdb_input_port&#45;&gt;itrdb -->
<g id="edge25" class="edge"><title>itrdb_input_port&#45;&gt;itrdb</title>
<path fill="none" stroke="black" d="M1210.52,-818.704C1226.22,-795.024 1289,-699.316 1289,-683.5 1289,-683.5 1289,-683.5 1289,-598.5 1289,-550.857 1297.77,-531.711 1270,-493 1260.8,-480.181 1247.89,-469.85 1234.22,-461.65"/>
<polygon fill="black" stroke="black" points="1235.6,-458.41 1225.17,-456.565 1232.17,-464.513 1235.6,-458.41"/>
</g>
<!-- calibration_year_input_port -->
<g id="node24" class="node"><title>calibration_year_input_port</title>
<ellipse fill="#ffffff" stroke="black" cx="1239" cy="-825" rx="7" ry="7"/>
</g>
<!-- calibration_year_input_port&#45;&gt;calibration_year -->
<g id="edge26" class="edge"><title>calibration_year_input_port&#45;&gt;calibration_year</title>
<path fill="none" stroke="black" d="M1243.98,-819.994C1262.6,-804.542 1327,-746.532 1327,-683.5 1327,-683.5 1327,-683.5 1327,-598.5 1327,-550.365 1323.95,-494.355 1321.88,-461.816"/>
<polygon fill="black" stroke="black" points="1325.36,-461.476 1321.22,-451.726 1318.38,-461.933 1325.36,-461.476"/>
</g>
</g>
</svg>
