<?xml version="1.0" encoding="UTF-8" standalone="no"?>
<!DOCTYPE svg PUBLIC "-//W3C//DTD SVG 1.1//EN"
 "http://www.w3.org/Graphics/SVG/1.1/DTD/svg11.dtd">
<!-- Generated by graphviz version 2.38.0 (20140413.2041)
 -->
<!-- Title: Workflow Pages: 1 -->
<svg width="1530pt" height="864pt"
 viewBox="0.00 0.00 1530.42 864.00" xmlns="http://www.w3.org/2000/svg" xmlns:xlink="http://www.w3.org/1999/xlink">
<g id="graph0" class="graph" transform="scale(1 1) rotate(0) translate(4 860)">
<title>Workflow</title>
<polygon fill="white" stroke="none" points="-4,4 -4,-860 1526.42,-860 1526.42,4 -4,4"/>
<g id="clust1" class="cluster"><title>cluster_workflow_box_outer</title>
<polygon fill="none" stroke="black" stroke-width="2" points="8,-62 8,-794 1465,-794 1465,-62 8,-62"/>
</g>
<g id="clust2" class="cluster"><title>cluster_workflow_box_inner</title>
<polygon fill="none" stroke="black" stroke-width="0" points="16,-70 16,-786 1457,-786 1457,-70 16,-70"/>
</g>
<g id="clust3" class="cluster"><title>cluster_input_ports_group_outer</title>
<polygon fill="none" stroke="black" stroke-width="0" points="994,-802 994,-848 1168,-848 1168,-802 994,-802"/>
</g>
<g id="clust4" class="cluster"><title>cluster_input_ports_group_inner</title>
<polygon fill="none" stroke="black" stroke-width="0" points="1002,-810 1002,-840 1160,-840 1160,-810 1002,-810"/>
</g>
<g id="clust5" class="cluster"><title>cluster_output_ports_group_outer</title>
<polygon fill="none" stroke="black" stroke-width="0" points="980,-8 980,-54 1186,-54 1186,-8 980,-8"/>
</g>
<g id="clust6" class="cluster"><title>cluster_output_ports_group_inner</title>
<polygon fill="none" stroke="black" stroke-width="0" points="988,-16 988,-46 1178,-46 1178,-16 988,-16"/>
</g>
<!-- get_user_input -->
<g id="node1" class="node"><title>get_user_input</title>
<polygon fill="#ccffcc" stroke="black" points="553,-659.5 553,-705.5 1039,-705.5 1039,-659.5 553,-659.5"/>
<text text-anchor="middle" x="796" y="-690.3" font-family="Helvetica,sans-Serif" font-size="14.00">get_user_input</text>
<polyline fill="none" stroke="black" points="553,-682.5 1039,-682.5 "/>
<text text-anchor="middle" x="796" y="-667.3" font-family="Helvetica,sans-Serif" font-size="14.00">Get coordinates and years for predicting the model from the web app user.</text>
</g>
<!-- coordinates -->
<g id="node14" class="node"><title>coordinates</title>
<path fill="#ffffcc" stroke="black" d="M829.5,-617.5C829.5,-617.5 762.5,-617.5 762.5,-617.5 756.5,-617.5 750.5,-611.5 750.5,-605.5 750.5,-605.5 750.5,-593.5 750.5,-593.5 750.5,-587.5 756.5,-581.5 762.5,-581.5 762.5,-581.5 829.5,-581.5 829.5,-581.5 835.5,-581.5 841.5,-587.5 841.5,-593.5 841.5,-593.5 841.5,-605.5 841.5,-605.5 841.5,-611.5 835.5,-617.5 829.5,-617.5"/>
<text text-anchor="middle" x="796" y="-595.8" font-family="Helvetica,sans-Serif" font-size="14.00">coordinates</text>
</g>
<!-- get_user_input&#45;&gt;coordinates -->
<g id="edge1" class="edge"><title>get_user_input&#45;&gt;coordinates</title>
<path fill="none" stroke="black" d="M796,-659.366C796,-649.632 796,-638.102 796,-627.838"/>
<polygon fill="black" stroke="black" points="799.5,-627.728 796,-617.728 792.5,-627.728 799.5,-627.728"/>
</g>
<!-- prediction.year -->
<g id="node16" class="node"><title>prediction.year</title>
<path fill="#ffffcc" stroke="black" d="M449,-285.5C449,-285.5 363,-285.5 363,-285.5 357,-285.5 351,-279.5 351,-273.5 351,-273.5 351,-261.5 351,-261.5 351,-255.5 357,-249.5 363,-249.5 363,-249.5 449,-249.5 449,-249.5 455,-249.5 461,-255.5 461,-261.5 461,-261.5 461,-273.5 461,-273.5 461,-279.5 455,-285.5 449,-285.5"/>
<text text-anchor="middle" x="406" y="-263.8" font-family="Helvetica,sans-Serif" font-size="14.00">prediction.year</text>
</g>
<!-- get_user_input&#45;&gt;prediction.year -->
<g id="edge2" class="edge"><title>get_user_input&#45;&gt;prediction.year</title>
<path fill="none" stroke="black" d="M553.72,-659.45C474.291,-637.734 406,-596.185 406,-517.5 406,-517.5 406,-517.5 406,-432.5 406,-384.409 406,-328.385 406,-295.831"/>
<polygon fill="black" stroke="black" points="409.5,-295.736 406,-285.736 402.5,-295.736 409.5,-295.736"/>
</g>
<!-- extract_prism_data -->
<g id="node2" class="node"><title>extract_prism_data</title>
<polygon fill="#ccffcc" stroke="black" points="425,-493.5 425,-539.5 1167,-539.5 1167,-493.5 425,-493.5"/>
<text text-anchor="middle" x="796" y="-524.3" font-family="Helvetica,sans-Serif" font-size="14.00">extract_prism_data</text>
<polyline fill="none" stroke="black" points="425,-516.5 1167,-516.5 "/>
<text text-anchor="middle" x="796" y="-501.3" font-family="Helvetica,sans-Serif" font-size="14.00">Load the prism data file with precipitation values and extract the data for the input coordinates and save as a csv file.</text>
</g>
<!-- prism_data_for_coordinates -->
<g id="node15" class="node"><title>prism_data_for_coordinates</title>
<path fill="#ffffcc" stroke="black" d="M683.5,-410.5C683.5,-410.5 970.5,-410.5 970.5,-410.5 976.5,-410.5 982.5,-416.5 982.5,-422.5 982.5,-422.5 982.5,-444.5 982.5,-444.5 982.5,-450.5 976.5,-456.5 970.5,-456.5 970.5,-456.5 683.5,-456.5 683.5,-456.5 677.5,-456.5 671.5,-450.5 671.5,-444.5 671.5,-444.5 671.5,-422.5 671.5,-422.5 671.5,-416.5 677.5,-410.5 683.5,-410.5"/>
<text text-anchor="middle" x="827" y="-441.3" font-family="Helvetica,sans-Serif" font-size="14.00">prism_data_for_coordinates</text>
<polyline fill="none" stroke="black" points="671.5,-433.5 982.5,-433.5 "/>
<text text-anchor="middle" x="827" y="-418.3" font-family="Helvetica,sans-Serif" font-size="14.00">file:/.output/{session_id}/{run_id}/{data_file}.csv</text>
</g>
<!-- extract_prism_data&#45;&gt;prism_data_for_coordinates -->
<g id="edge5" class="edge"><title>extract_prism_data&#45;&gt;prism_data_for_coordinates</title>
<path fill="none" stroke="black" d="M804.471,-493.366C807.683,-484.973 811.406,-475.245 814.89,-466.143"/>
<polygon fill="black" stroke="black" points="818.234,-467.197 818.539,-456.607 811.696,-464.695 818.234,-467.197"/>
</g>
<!-- gen_paleocar_model -->
<g id="node3" class="node"><title>gen_paleocar_model</title>
<polygon fill="#ccffcc" stroke="black" points="929.5,-327.5 929.5,-373.5 1394.5,-373.5 1394.5,-327.5 929.5,-327.5"/>
<text text-anchor="middle" x="1162" y="-358.3" font-family="Helvetica,sans-Serif" font-size="14.00">gen_paleocar_model</text>
<polyline fill="none" stroke="black" points="929.5,-350.5 1394.5,-350.5 "/>
<text text-anchor="middle" x="1162" y="-335.3" font-family="Helvetica,sans-Serif" font-size="14.00">generate paleocar models for predicting the climate for the given years.</text>
</g>
<!-- paleocar_models -->
<g id="node6" class="node"><title>paleocar_models</title>
<path fill="#ffffcc" stroke="black" d="M741.5,-244.5C741.5,-244.5 1050.5,-244.5 1050.5,-244.5 1056.5,-244.5 1062.5,-250.5 1062.5,-256.5 1062.5,-256.5 1062.5,-278.5 1062.5,-278.5 1062.5,-284.5 1056.5,-290.5 1050.5,-290.5 1050.5,-290.5 741.5,-290.5 741.5,-290.5 735.5,-290.5 729.5,-284.5 729.5,-278.5 729.5,-278.5 729.5,-256.5 729.5,-256.5 729.5,-250.5 735.5,-244.5 741.5,-244.5"/>
<text text-anchor="middle" x="896" y="-275.3" font-family="Helvetica,sans-Serif" font-size="14.00">paleocar_models</text>
<polyline fill="none" stroke="black" points="729.5,-267.5 1062.5,-267.5 "/>
<text text-anchor="middle" x="896" y="-252.3" font-family="Helvetica,sans-Serif" font-size="14.00">file:/.output/{session_id}{run_id}/{label}.models.rds</text>
</g>
<!-- gen_paleocar_model&#45;&gt;paleocar_models -->
<g id="edge8" class="edge"><title>gen_paleocar_model&#45;&gt;paleocar_models</title>
<path fill="none" stroke="black" d="M1089.67,-327.473C1055.21,-316.982 1013.85,-304.386 978.21,-293.534"/>
<polygon fill="black" stroke="black" points="978.906,-290.087 968.32,-290.522 976.867,-296.784 978.906,-290.087"/>
</g>
<!-- paleocar_model_log_file -->
<g id="node11" class="node"><title>paleocar_model_log_file</title>
<path fill="#ffffcc" stroke="black" d="M1093,-244.5C1093,-244.5 1437,-244.5 1437,-244.5 1443,-244.5 1449,-250.5 1449,-256.5 1449,-256.5 1449,-278.5 1449,-278.5 1449,-284.5 1443,-290.5 1437,-290.5 1437,-290.5 1093,-290.5 1093,-290.5 1087,-290.5 1081,-284.5 1081,-278.5 1081,-278.5 1081,-256.5 1081,-256.5 1081,-250.5 1087,-244.5 1093,-244.5"/>
<text text-anchor="middle" x="1265" y="-275.3" font-family="Helvetica,sans-Serif" font-size="14.00">paleocar_model_log_file</text>
<polyline fill="none" stroke="black" points="1081,-267.5 1449,-267.5 "/>
<text text-anchor="middle" x="1265" y="-252.3" font-family="Helvetica,sans-Serif" font-size="14.00">file:/.output/{session_id}{run_id}/paleocar_model_log.txt</text>
</g>
<!-- gen_paleocar_model&#45;&gt;paleocar_model_log_file -->
<g id="edge9" class="edge"><title>gen_paleocar_model&#45;&gt;paleocar_model_log_file</title>
<path fill="none" stroke="black" d="M1190.15,-327.366C1202.07,-317.991 1216.11,-306.949 1228.79,-296.977"/>
<polygon fill="black" stroke="black" points="1231.19,-299.54 1236.89,-290.607 1226.86,-294.037 1231.19,-299.54"/>
</g>
<!-- exrtact_prediction_model -->
<g id="node4" class="node"><title>exrtact_prediction_model</title>
<polygon fill="#ccffcc" stroke="black" points="41,-161.5 41,-207.5 703,-207.5 703,-161.5 41,-161.5"/>
<text text-anchor="middle" x="372" y="-192.3" font-family="Helvetica,sans-Serif" font-size="14.00">exrtact_prediction_model</text>
<polyline fill="none" stroke="black" points="41,-184.5 703,-184.5 "/>
<text text-anchor="middle" x="372" y="-169.3" font-family="Helvetica,sans-Serif" font-size="14.00">extract the rasterbrick reconstruction from a PaleoCAR batch model for the specified prediction period.</text>
</g>
<!-- prediction_model -->
<g id="node7" class="node"><title>prediction_model</title>
<path fill="#ffffcc" stroke="black" d="M36,-78.5C36,-78.5 364,-78.5 364,-78.5 370,-78.5 376,-84.5 376,-90.5 376,-90.5 376,-112.5 376,-112.5 376,-118.5 370,-124.5 364,-124.5 364,-124.5 36,-124.5 36,-124.5 30,-124.5 24,-118.5 24,-112.5 24,-112.5 24,-90.5 24,-90.5 24,-84.5 30,-78.5 36,-78.5"/>
<text text-anchor="middle" x="200" y="-109.3" font-family="Helvetica,sans-Serif" font-size="14.00">prediction_model</text>
<polyline fill="none" stroke="black" points="24,-101.5 376,-101.5 "/>
<text text-anchor="middle" x="200" y="-86.3" font-family="Helvetica,sans-Serif" font-size="14.00">file:/.output/{session_id}/{run_id}/{label}.prediction.rds</text>
</g>
<!-- exrtact_prediction_model&#45;&gt;prediction_model -->
<g id="edge14" class="edge"><title>exrtact_prediction_model&#45;&gt;prediction_model</title>
<path fill="none" stroke="black" d="M325,-161.366C303.764,-151.366 278.504,-139.47 256.267,-128.998"/>
<polygon fill="black" stroke="black" points="257.481,-125.701 246.943,-124.607 254.499,-132.034 257.481,-125.701"/>
</g>
<!-- prediction_plot -->
<g id="node9" class="node"><title>prediction_plot</title>
<path fill="#ffffcc" stroke="black" d="M406.5,-78.5C406.5,-78.5 687.5,-78.5 687.5,-78.5 693.5,-78.5 699.5,-84.5 699.5,-90.5 699.5,-90.5 699.5,-112.5 699.5,-112.5 699.5,-118.5 693.5,-124.5 687.5,-124.5 687.5,-124.5 406.5,-124.5 406.5,-124.5 400.5,-124.5 394.5,-118.5 394.5,-112.5 394.5,-112.5 394.5,-90.5 394.5,-90.5 394.5,-84.5 400.5,-78.5 406.5,-78.5"/>
<text text-anchor="middle" x="547" y="-109.3" font-family="Helvetica,sans-Serif" font-size="14.00">prediction_plot</text>
<polyline fill="none" stroke="black" points="394.5,-101.5 699.5,-101.5 "/>
<text text-anchor="middle" x="547" y="-86.3" font-family="Helvetica,sans-Serif" font-size="14.00">file:/{session_id}/{run_id}/{label}.prediction.jpg</text>
</g>
<!-- exrtact_prediction_model&#45;&gt;prediction_plot -->
<g id="edge15" class="edge"><title>exrtact_prediction_model&#45;&gt;prediction_plot</title>
<path fill="none" stroke="black" d="M419.82,-161.366C441.522,-151.321 467.357,-139.363 490.054,-128.858"/>
<polygon fill="black" stroke="black" points="491.633,-131.984 499.238,-124.607 488.693,-125.631 491.633,-131.984"/>
</g>
<!-- extract_uncertainty_model -->
<g id="node5" class="node"><title>extract_uncertainty_model</title>
<polygon fill="#ccffcc" stroke="black" points="721,-161.5 721,-207.5 1341,-207.5 1341,-161.5 721,-161.5"/>
<text text-anchor="middle" x="1031" y="-192.3" font-family="Helvetica,sans-Serif" font-size="14.00">extract_uncertainty_model</text>
<polyline fill="none" stroke="black" points="721,-184.5 1341,-184.5 "/>
<text text-anchor="middle" x="1031" y="-169.3" font-family="Helvetica,sans-Serif" font-size="14.00">extract the LOOCV uncertainty information from the set of Paleocar models for specified period.</text>
</g>
<!-- uncertainty_model -->
<g id="node8" class="node"><title>uncertainty_model</title>
<path fill="#ffffcc" stroke="black" d="M729.5,-78.5C729.5,-78.5 1062.5,-78.5 1062.5,-78.5 1068.5,-78.5 1074.5,-84.5 1074.5,-90.5 1074.5,-90.5 1074.5,-112.5 1074.5,-112.5 1074.5,-118.5 1068.5,-124.5 1062.5,-124.5 1062.5,-124.5 729.5,-124.5 729.5,-124.5 723.5,-124.5 717.5,-118.5 717.5,-112.5 717.5,-112.5 717.5,-90.5 717.5,-90.5 717.5,-84.5 723.5,-78.5 729.5,-78.5"/>
<text text-anchor="middle" x="896" y="-109.3" font-family="Helvetica,sans-Serif" font-size="14.00">uncertainty_model</text>
<polyline fill="none" stroke="black" points="717.5,-101.5 1074.5,-101.5 "/>
<text text-anchor="middle" x="896" y="-86.3" font-family="Helvetica,sans-Serif" font-size="14.00">file:/.output/{session_id}/{run_id}/{label}.uncertainty.rds</text>
</g>
<!-- extract_uncertainty_model&#45;&gt;uncertainty_model -->
<g id="edge18" class="edge"><title>extract_uncertainty_model&#45;&gt;uncertainty_model</title>
<path fill="none" stroke="black" d="M994.111,-161.366C977.89,-151.634 958.676,-140.106 941.571,-129.842"/>
<polygon fill="black" stroke="black" points="943.22,-126.751 932.845,-124.607 939.619,-132.753 943.22,-126.751"/>
</g>
<!-- uncertainty_plot -->
<g id="node10" class="node"><title>uncertainty_plot</title>
<path fill="#ffffcc" stroke="black" d="M1105,-78.5C1105,-78.5 1437,-78.5 1437,-78.5 1443,-78.5 1449,-84.5 1449,-90.5 1449,-90.5 1449,-112.5 1449,-112.5 1449,-118.5 1443,-124.5 1437,-124.5 1437,-124.5 1105,-124.5 1105,-124.5 1099,-124.5 1093,-118.5 1093,-112.5 1093,-112.5 1093,-90.5 1093,-90.5 1093,-84.5 1099,-78.5 1105,-78.5"/>
<text text-anchor="middle" x="1271" y="-109.3" font-family="Helvetica,sans-Serif" font-size="14.00">uncertainty_plot</text>
<polyline fill="none" stroke="black" points="1093,-101.5 1449,-101.5 "/>
<text text-anchor="middle" x="1271" y="-86.3" font-family="Helvetica,sans-Serif" font-size="14.00">file:/.output/{session_id}/{run_id}/{label}.uncertainty.jpg</text>
</g>
<!-- extract_uncertainty_model&#45;&gt;uncertainty_plot -->
<g id="edge19" class="edge"><title>extract_uncertainty_model&#45;&gt;uncertainty_plot</title>
<path fill="none" stroke="black" d="M1096.26,-161.473C1127.08,-151.072 1164.03,-138.601 1196,-127.812"/>
<polygon fill="black" stroke="black" points="1197.39,-131.036 1205.75,-124.522 1195.15,-124.404 1197.39,-131.036"/>
</g>
<!-- paleocar_models&#45;&gt;exrtact_prediction_model -->
<g id="edge16" class="edge"><title>paleocar_models&#45;&gt;exrtact_prediction_model</title>
<path fill="none" stroke="black" d="M753.507,-244.473C682.593,-233.511 596.813,-220.252 524.566,-209.084"/>
<polygon fill="black" stroke="black" points="524.882,-205.591 514.465,-207.522 523.813,-212.509 524.882,-205.591"/>
</g>
<!-- paleocar_models&#45;&gt;extract_uncertainty_model -->
<g id="edge20" class="edge"><title>paleocar_models&#45;&gt;extract_uncertainty_model</title>
<path fill="none" stroke="black" d="M932.889,-244.366C949.11,-234.634 968.324,-223.106 985.429,-212.842"/>
<polygon fill="black" stroke="black" points="987.381,-215.753 994.155,-207.607 983.78,-209.751 987.381,-215.753"/>
</g>
<!-- paleocar_models_output_port -->
<g id="node26" class="node"><title>paleocar_models_output_port</title>
<ellipse fill="#ffffff" stroke="black" cx="1131" cy="-31" rx="7" ry="7"/>
</g>
<!-- paleocar_models&#45;&gt;paleocar_models_output_port -->
<g id="edge27" class="edge"><title>paleocar_models&#45;&gt;paleocar_models_output_port</title>
<path fill="none" stroke="black" d="M1062.68,-245.147C1191.86,-228.58 1349.13,-208.357 1350,-208 1405.95,-184.889 1431.25,-179.304 1458,-125 1470.37,-99.8829 1477.54,-82.0519 1458,-62 1445.94,-49.6226 1162.3,-62.0403 1147,-54 1143.74,-52.2863 1140.98,-49.5746 1138.72,-46.632"/>
<polygon fill="black" stroke="black" points="1141.6,-44.6285 1133.43,-37.8793 1135.61,-48.2484 1141.6,-44.6285"/>
</g>
<!-- prediction_model_output_port -->
<g id="node27" class="node"><title>prediction_model_output_port</title>
<ellipse fill="#ffffff" stroke="black" cx="1003" cy="-31" rx="7" ry="7"/>
</g>
<!-- prediction_model&#45;&gt;prediction_model_output_port -->
<g id="edge28" class="edge"><title>prediction_model&#45;&gt;prediction_model_output_port</title>
<path fill="none" stroke="black" d="M291.739,-78.447C321.342,-72.1281 354.41,-65.9011 385,-62 621.695,-31.815 912.93,-31.426 985.842,-31.8514"/>
<polygon fill="black" stroke="black" points="985.917,-35.3519 995.943,-31.925 985.968,-28.3521 985.917,-35.3519"/>
</g>
<!-- uncertainty_model_output_port -->
<g id="node28" class="node"><title>uncertainty_model_output_port</title>
<ellipse fill="#ffffff" stroke="black" cx="1067" cy="-31" rx="7" ry="7"/>
</g>
<!-- uncertainty_model&#45;&gt;uncertainty_model_output_port -->
<g id="edge29" class="edge"><title>uncertainty_model&#45;&gt;uncertainty_model_output_port</title>
<path fill="none" stroke="black" d="M1003.24,-78.368C1020.11,-72.1241 1036.68,-64.1557 1051,-54 1054.01,-51.8694 1056.66,-48.9948 1058.91,-46.0274"/>
<polygon fill="black" stroke="black" points="1061.92,-47.8139 1064.33,-37.4976 1056.01,-44.0573 1061.92,-47.8139"/>
</g>
<!-- prediction_plot_output_port -->
<g id="node29" class="node"><title>prediction_plot_output_port</title>
<ellipse fill="#ffffff" stroke="black" cx="1035" cy="-31" rx="7" ry="7"/>
</g>
<!-- prediction_plot&#45;&gt;prediction_plot_output_port -->
<g id="edge30" class="edge"><title>prediction_plot&#45;&gt;prediction_plot_output_port</title>
<path fill="none" stroke="black" d="M624.592,-78.4814C650.857,-71.9581 680.501,-65.6013 708,-62 725.137,-59.7557 1003.7,-62.0403 1019,-54 1022.26,-52.2863 1025.02,-49.5746 1027.28,-46.632"/>
<polygon fill="black" stroke="black" points="1030.39,-48.2484 1032.57,-37.8793 1024.4,-44.6285 1030.39,-48.2484"/>
</g>
<!-- uncertainty_plot_output_port -->
<g id="node30" class="node"><title>uncertainty_plot_output_port</title>
<ellipse fill="#ffffff" stroke="black" cx="1099" cy="-31" rx="7" ry="7"/>
</g>
<!-- uncertainty_plot&#45;&gt;uncertainty_plot_output_port -->
<g id="edge31" class="edge"><title>uncertainty_plot&#45;&gt;uncertainty_plot_output_port</title>
<path fill="none" stroke="black" d="M1163.07,-78.4493C1146.09,-72.1958 1129.42,-64.2031 1115,-54 1111.99,-51.8721 1109.33,-48.9985 1107.09,-46.0312"/>
<polygon fill="black" stroke="black" points="1109.98,-44.0611 1101.66,-37.5 1104.08,-47.8168 1109.98,-44.0611"/>
</g>
<!-- paleocar_model_log_file_output_port -->
<g id="node31" class="node"><title>paleocar_model_log_file_output_port</title>
<ellipse fill="#ffffff" stroke="black" cx="1163" cy="-31" rx="7" ry="7"/>
</g>
<!-- paleocar_model_log_file&#45;&gt;paleocar_model_log_file_output_port -->
<g id="edge32" class="edge"><title>paleocar_model_log_file&#45;&gt;paleocar_model_log_file_output_port</title>
<path fill="none" stroke="black" d="M1405.84,-244.466C1444.51,-235.393 1479.12,-223.343 1491,-208 1530.72,-156.689 1534.74,-109.927 1491,-62 1469.86,-38.8395 1244.15,-33.3435 1179.95,-32.2445"/>
<polygon fill="black" stroke="black" points="1179.98,-28.7447 1169.92,-32.0872 1179.87,-35.7438 1179.98,-28.7447"/>
</g>
<!-- user_map_marker_pos -->
<g id="node12" class="node"><title>user_map_marker_pos</title>
<path fill="#ffffcc" stroke="black" d="M1041,-778C1041,-778 901,-778 901,-778 895,-778 889,-772 889,-766 889,-766 889,-754 889,-754 889,-748 895,-742 901,-742 901,-742 1041,-742 1041,-742 1047,-742 1053,-748 1053,-754 1053,-754 1053,-766 1053,-766 1053,-772 1047,-778 1041,-778"/>
<text text-anchor="middle" x="971" y="-756.3" font-family="Helvetica,sans-Serif" font-size="14.00">user_map_marker_pos</text>
</g>
<!-- user_map_marker_pos&#45;&gt;get_user_input -->
<g id="edge3" class="edge"><title>user_map_marker_pos&#45;&gt;get_user_input</title>
<path fill="none" stroke="black" d="M931.29,-741.868C909.203,-732.339 881.256,-720.282 856.504,-709.603"/>
<polygon fill="black" stroke="black" points="857.761,-706.334 847.193,-705.586 854.988,-712.761 857.761,-706.334"/>
</g>
<!-- user_prediction_year -->
<g id="node13" class="node"><title>user_prediction_year</title>
<path fill="#ffffcc" stroke="black" d="M859,-778C859,-778 733,-778 733,-778 727,-778 721,-772 721,-766 721,-766 721,-754 721,-754 721,-748 727,-742 733,-742 733,-742 859,-742 859,-742 865,-742 871,-748 871,-754 871,-754 871,-766 871,-766 871,-772 865,-778 859,-778"/>
<text text-anchor="middle" x="796" y="-756.3" font-family="Helvetica,sans-Serif" font-size="14.00">user_prediction_year</text>
</g>
<!-- user_prediction_year&#45;&gt;get_user_input -->
<g id="edge4" class="edge"><title>user_prediction_year&#45;&gt;get_user_input</title>
<path fill="none" stroke="black" d="M796,-741.868C796,-734.175 796,-724.835 796,-715.902"/>
<polygon fill="black" stroke="black" points="799.5,-715.727 796,-705.727 792.5,-715.727 799.5,-715.727"/>
</g>
<!-- coordinates&#45;&gt;extract_prism_data -->
<g id="edge6" class="edge"><title>coordinates&#45;&gt;extract_prism_data</title>
<path fill="none" stroke="black" d="M796,-581.322C796,-572.102 796,-560.435 796,-549.606"/>
<polygon fill="black" stroke="black" points="799.5,-549.587 796,-539.587 792.5,-549.587 799.5,-549.587"/>
</g>
<!-- prism_data_for_coordinates&#45;&gt;gen_paleocar_model -->
<g id="edge13" class="edge"><title>prism_data_for_coordinates&#45;&gt;gen_paleocar_model</title>
<path fill="none" stroke="black" d="M918.098,-410.473C962.322,-399.78 1015.59,-386.901 1061.05,-375.91"/>
<polygon fill="black" stroke="black" points="1062.02,-379.274 1070.92,-373.522 1060.38,-372.471 1062.02,-379.274"/>
</g>
<!-- prediction.year&#45;&gt;exrtact_prediction_model -->
<g id="edge17" class="edge"><title>prediction.year&#45;&gt;exrtact_prediction_model</title>
<path fill="none" stroke="black" d="M398.789,-249.322C394.839,-239.912 389.82,-227.953 385.196,-216.937"/>
<polygon fill="black" stroke="black" points="388.369,-215.453 381.271,-207.587 381.914,-218.162 388.369,-215.453"/>
</g>
<!-- prediction.year&#45;&gt;extract_uncertainty_model -->
<g id="edge21" class="edge"><title>prediction.year&#45;&gt;extract_uncertainty_model</title>
<path fill="none" stroke="black" d="M461.19,-259.347C547.613,-248.147 718.664,-225.979 850.906,-208.84"/>
<polygon fill="black" stroke="black" points="851.693,-212.268 861.16,-207.511 850.793,-205.326 851.693,-212.268"/>
</g>
<!-- prism_data -->
<g id="node17" class="node"><title>prism_data</title>
<path fill="#fcfcfc" stroke="black" d="M943.5,-576.5C943.5,-576.5 1074.5,-576.5 1074.5,-576.5 1080.5,-576.5 1086.5,-582.5 1086.5,-588.5 1086.5,-588.5 1086.5,-610.5 1086.5,-610.5 1086.5,-616.5 1080.5,-622.5 1074.5,-622.5 1074.5,-622.5 943.5,-622.5 943.5,-622.5 937.5,-622.5 931.5,-616.5 931.5,-610.5 931.5,-610.5 931.5,-588.5 931.5,-588.5 931.5,-582.5 937.5,-576.5 943.5,-576.5"/>
<text text-anchor="middle" x="1009" y="-607.3" font-family="Helvetica,sans-Serif" font-size="14.00">prism_data</text>
<polyline fill="none" stroke="black" points="931.5,-599.5 1086.5,-599.5 "/>
<text text-anchor="middle" x="1009" y="-584.3" font-family="Helvetica,sans-Serif" font-size="14.00">file:/data/{data_file}.nc</text>
</g>
<!-- prism_data&#45;&gt;extract_prism_data -->
<g id="edge7" class="edge"><title>prism_data&#45;&gt;extract_prism_data</title>
<path fill="none" stroke="black" d="M951.078,-576.473C923.962,-566.162 891.498,-553.816 863.297,-543.092"/>
<polygon fill="black" stroke="black" points="864.501,-539.805 853.91,-539.522 862.013,-546.348 864.501,-539.805"/>
</g>
<!-- calibration_year -->
<g id="node18" class="node"><title>calibration_year</title>
<path fill="#fcfcfc" stroke="black" d="M1137,-451.5C1137,-451.5 1045,-451.5 1045,-451.5 1039,-451.5 1033,-445.5 1033,-439.5 1033,-439.5 1033,-427.5 1033,-427.5 1033,-421.5 1039,-415.5 1045,-415.5 1045,-415.5 1137,-415.5 1137,-415.5 1143,-415.5 1149,-421.5 1149,-427.5 1149,-427.5 1149,-439.5 1149,-439.5 1149,-445.5 1143,-451.5 1137,-451.5"/>
<text text-anchor="middle" x="1091" y="-429.8" font-family="Helvetica,sans-Serif" font-size="14.00">calibration_year</text>
</g>
<!-- calibration_year&#45;&gt;gen_paleocar_model -->
<g id="edge10" class="edge"><title>calibration_year&#45;&gt;gen_paleocar_model</title>
<path fill="none" stroke="black" d="M1106.06,-415.322C1114.72,-405.436 1125.85,-392.738 1135.9,-381.275"/>
<polygon fill="black" stroke="black" points="1138.68,-383.414 1142.64,-373.587 1133.42,-378.8 1138.68,-383.414"/>
</g>
<!-- itrdb -->
<g id="node19" class="node"><title>itrdb</title>
<path fill="#fcfcfc" stroke="black" d="M1179.5,-410.5C1179.5,-410.5 1286.5,-410.5 1286.5,-410.5 1292.5,-410.5 1298.5,-416.5 1298.5,-422.5 1298.5,-422.5 1298.5,-444.5 1298.5,-444.5 1298.5,-450.5 1292.5,-456.5 1286.5,-456.5 1286.5,-456.5 1179.5,-456.5 1179.5,-456.5 1173.5,-456.5 1167.5,-450.5 1167.5,-444.5 1167.5,-444.5 1167.5,-422.5 1167.5,-422.5 1167.5,-416.5 1173.5,-410.5 1179.5,-410.5"/>
<text text-anchor="middle" x="1233" y="-441.3" font-family="Helvetica,sans-Serif" font-size="14.00">itrdb</text>
<polyline fill="none" stroke="black" points="1167.5,-433.5 1298.5,-433.5 "/>
<text text-anchor="middle" x="1233" y="-418.3" font-family="Helvetica,sans-Serif" font-size="14.00">file:/data/itrdb.Rda</text>
</g>
<!-- itrdb&#45;&gt;gen_paleocar_model -->
<g id="edge11" class="edge"><title>itrdb&#45;&gt;gen_paleocar_model</title>
<path fill="none" stroke="black" d="M1213.6,-410.366C1205.77,-401.437 1196.62,-390.997 1188.22,-381.409"/>
<polygon fill="black" stroke="black" points="1190.6,-378.82 1181.38,-373.607 1185.34,-383.434 1190.6,-378.82"/>
</g>
<!-- prediction_year -->
<g id="node20" class="node"><title>prediction_year</title>
<path fill="#fcfcfc" stroke="black" d="M1419,-451.5C1419,-451.5 1329,-451.5 1329,-451.5 1323,-451.5 1317,-445.5 1317,-439.5 1317,-439.5 1317,-427.5 1317,-427.5 1317,-421.5 1323,-415.5 1329,-415.5 1329,-415.5 1419,-415.5 1419,-415.5 1425,-415.5 1431,-421.5 1431,-427.5 1431,-427.5 1431,-439.5 1431,-439.5 1431,-445.5 1425,-451.5 1419,-451.5"/>
<text text-anchor="middle" x="1374" y="-429.8" font-family="Helvetica,sans-Serif" font-size="14.00">prediction_year</text>
</g>
<!-- prediction_year&#45;&gt;gen_paleocar_model -->
<g id="edge12" class="edge"><title>prediction_year&#45;&gt;gen_paleocar_model</title>
<path fill="none" stroke="black" d="M1329.3,-415.421C1300.33,-404.353 1262.06,-389.729 1229.43,-377.262"/>
<polygon fill="black" stroke="black" points="1230.53,-373.939 1219.94,-373.639 1228.04,-380.478 1230.53,-373.939"/>
</g>
<!-- user_map_marker_pos_input_port -->
<g id="node21" class="node"><title>user_map_marker_pos_input_port</title>
<ellipse fill="#ffffff" stroke="black" cx="1049" cy="-825" rx="7" ry="7"/>
</g>
<!-- user_map_marker_pos_input_port&#45;&gt;user_map_marker_pos -->
<g id="edge22" class="edge"><title>user_map_marker_pos_input_port&#45;&gt;user_map_marker_pos</title>
<path fill="none" stroke="black" d="M1045.79,-818.514C1042.86,-813.787 1038.19,-806.962 1033,-802 1026.15,-795.45 1018.13,-789.284 1010.17,-783.82"/>
<polygon fill="black" stroke="black" points="1011.9,-780.765 1001.62,-778.183 1008.04,-786.609 1011.9,-780.765"/>
</g>
<!-- user_prediction_year_input_port -->
<g id="node22" class="node"><title>user_prediction_year_input_port</title>
<ellipse fill="#ffffff" stroke="black" cx="1017" cy="-825" rx="7" ry="7"/>
</g>
<!-- user_prediction_year_input_port&#45;&gt;user_prediction_year -->
<g id="edge23" class="edge"><title>user_prediction_year_input_port&#45;&gt;user_prediction_year</title>
<path fill="none" stroke="black" d="M1010.06,-822.882C989.771,-819.529 928.923,-808.864 880,-794 868.522,-790.513 856.396,-786.16 845.037,-781.771"/>
<polygon fill="black" stroke="black" points="846.293,-778.504 835.706,-778.094 843.726,-785.016 846.293,-778.504"/>
</g>
<!-- prism_data_input_port -->
<g id="node23" class="node"><title>prism_data_input_port</title>
<ellipse fill="#ffffff" stroke="black" cx="1081" cy="-825" rx="7" ry="7"/>
</g>
<!-- prism_data_input_port&#45;&gt;prism_data -->
<g id="edge24" class="edge"><title>prism_data_input_port&#45;&gt;prism_data</title>
<path fill="none" stroke="black" d="M1080.62,-817.756C1079.1,-795.401 1072.26,-717.567 1048,-659 1044.01,-649.358 1038.33,-639.631 1032.54,-630.952"/>
<polygon fill="black" stroke="black" points="1035.36,-628.871 1026.77,-622.663 1029.61,-632.87 1035.36,-628.871"/>
</g>
<!-- itrdb_input_port -->
<g id="node24" class="node"><title>itrdb_input_port</title>
<ellipse fill="#ffffff" stroke="black" cx="1145" cy="-825" rx="7" ry="7"/>
</g>
<!-- itrdb_input_port&#45;&gt;itrdb -->
<g id="edge25" class="edge"><title>itrdb_input_port&#45;&gt;itrdb</title>
<path fill="none" stroke="black" d="M1149.98,-819.994C1168.6,-804.542 1233,-746.532 1233,-683.5 1233,-683.5 1233,-683.5 1233,-598.5 1233,-552.839 1233,-500.026 1233,-466.942"/>
<polygon fill="black" stroke="black" points="1236.5,-466.517 1233,-456.517 1229.5,-466.517 1236.5,-466.517"/>
</g>
<!-- calibration_year_input_port -->
<g id="node25" class="node"><title>calibration_year_input_port</title>
<ellipse fill="#ffffff" stroke="black" cx="1113" cy="-825" rx="7" ry="7"/>
</g>
<!-- calibration_year_input_port&#45;&gt;calibration_year -->
<g id="edge26" class="edge"><title>calibration_year_input_port&#45;&gt;calibration_year</title>
<path fill="none" stroke="black" d="M1116.52,-818.704C1132.22,-795.024 1195,-699.316 1195,-683.5 1195,-683.5 1195,-683.5 1195,-598.5 1195,-550.857 1201.83,-533.031 1176,-493 1166.51,-478.291 1151.88,-466.288 1137.41,-457.068"/>
<polygon fill="black" stroke="black" points="1138.85,-453.847 1128.48,-451.687 1135.24,-459.844 1138.85,-453.847"/>
</g>
</g>
</svg>
