<?xml version="1.0" encoding="UTF-8" standalone="no"?>
<!DOCTYPE svg PUBLIC "-//W3C//DTD SVG 1.1//EN"
 "http://www.w3.org/Graphics/SVG/1.1/DTD/svg11.dtd">
<!-- Generated by graphviz version 2.38.0 (20140413.2041)
 -->
<!-- Title: Workflow Pages: 1 -->
<svg width="1576pt" height="709pt"
 viewBox="0.00 0.00 1576.42 709.00" xmlns="http://www.w3.org/2000/svg" xmlns:xlink="http://www.w3.org/1999/xlink">
<g id="graph0" class="graph" transform="scale(1 1) rotate(0) translate(4 705)">
<title>Workflow</title>
<polygon fill="white" stroke="none" points="-4,4 -4,-705 1572.42,-705 1572.42,4 -4,4"/>
<g id="clust1" class="cluster"><title>cluster_workflow_box_outer</title>
<polygon fill="none" stroke="black" stroke-width="2" points="8,-62 8,-639 1511,-639 1511,-62 8,-62"/>
</g>
<g id="clust2" class="cluster"><title>cluster_workflow_box_inner</title>
<polygon fill="none" stroke="black" stroke-width="0" points="16,-70 16,-631 1503,-631 1503,-70 16,-70"/>
</g>
<g id="clust5" class="cluster"><title>cluster_output_ports_group_outer</title>
<polygon fill="none" stroke="black" stroke-width="0" points="1026,-8 1026,-54 1232,-54 1232,-8 1026,-8"/>
</g>
<g id="clust6" class="cluster"><title>cluster_output_ports_group_inner</title>
<polygon fill="none" stroke="black" stroke-width="0" points="1034,-16 1034,-46 1224,-46 1224,-16 1034,-16"/>
</g>
<g id="clust3" class="cluster"><title>cluster_input_ports_group_outer</title>
<polygon fill="none" stroke="black" stroke-width="0" points="1189,-647 1189,-693 1395,-693 1395,-647 1189,-647"/>
</g>
<g id="clust4" class="cluster"><title>cluster_input_ports_group_inner</title>
<polygon fill="none" stroke="black" stroke-width="0" points="1197,-655 1197,-685 1387,-685 1387,-655 1197,-655"/>
</g>
<!-- extract_prism_data -->
<g id="node1" class="node"><title>extract_prism_data</title>
<polygon fill="#ccffcc" stroke="black" points="503,-493.5 503,-539.5 1245,-539.5 1245,-493.5 503,-493.5"/>
<text text-anchor="middle" x="874" y="-524.3" font-family="Helvetica,sans-Serif" font-size="14.00">extract_prism_data</text>
<polyline fill="none" stroke="black" points="503,-516.5 1245,-516.5 "/>
<text text-anchor="middle" x="874" y="-501.3" font-family="Helvetica,sans-Serif" font-size="14.00">Load the prism data file with precipitation values and extract the data for the input coordinates and save as a csv file.</text>
</g>
<!-- prism_data_for_coordinates -->
<g id="node7" class="node"><title>prism_data_for_coordinates</title>
<path fill="#ffffcc" stroke="black" d="M643,-410.5C643,-410.5 933,-410.5 933,-410.5 939,-410.5 945,-416.5 945,-422.5 945,-422.5 945,-444.5 945,-444.5 945,-450.5 939,-456.5 933,-456.5 933,-456.5 643,-456.5 643,-456.5 637,-456.5 631,-450.5 631,-444.5 631,-444.5 631,-422.5 631,-422.5 631,-416.5 637,-410.5 643,-410.5"/>
<text text-anchor="middle" x="788" y="-441.3" font-family="Helvetica,sans-Serif" font-size="14.00">prism_data_for_coordinates</text>
<polyline fill="none" stroke="black" points="631,-433.5 945,-433.5 "/>
<text text-anchor="middle" x="788" y="-418.3" font-family="Helvetica,sans-Serif" font-size="14.00">file:/.output/{session_id}/{run_id}/112W36N.csv</text>
</g>
<!-- extract_prism_data&#45;&gt;prism_data_for_coordinates -->
<g id="edge3" class="edge"><title>extract_prism_data&#45;&gt;prism_data_for_coordinates</title>
<path fill="none" stroke="black" d="M850.5,-493.366C840.735,-484.169 829.269,-473.369 818.841,-463.548"/>
<polygon fill="black" stroke="black" points="821.151,-460.915 811.471,-456.607 816.351,-466.011 821.151,-460.915"/>
</g>
<!-- session_id -->
<g id="node8" class="node"><title>session_id</title>
<path fill="#ffffcc" stroke="black" d="M1037,-451.5C1037,-451.5 975,-451.5 975,-451.5 969,-451.5 963,-445.5 963,-439.5 963,-439.5 963,-427.5 963,-427.5 963,-421.5 969,-415.5 975,-415.5 975,-415.5 1037,-415.5 1037,-415.5 1043,-415.5 1049,-421.5 1049,-427.5 1049,-427.5 1049,-439.5 1049,-439.5 1049,-445.5 1043,-451.5 1037,-451.5"/>
<text text-anchor="middle" x="1006" y="-429.8" font-family="Helvetica,sans-Serif" font-size="14.00">session_id</text>
</g>
<!-- extract_prism_data&#45;&gt;session_id -->
<g id="edge1" class="edge"><title>extract_prism_data&#45;&gt;session_id</title>
<path fill="none" stroke="black" d="M910.07,-493.366C928.437,-482.095 950.729,-468.416 969.199,-457.082"/>
<polygon fill="black" stroke="black" points="971.233,-459.941 977.925,-451.728 967.572,-453.975 971.233,-459.941"/>
</g>
<!-- run_id -->
<g id="node9" class="node"><title>run_id</title>
<path fill="#ffffcc" stroke="black" d="M1111,-451.5C1111,-451.5 1079,-451.5 1079,-451.5 1073,-451.5 1067,-445.5 1067,-439.5 1067,-439.5 1067,-427.5 1067,-427.5 1067,-421.5 1073,-415.5 1079,-415.5 1079,-415.5 1111,-415.5 1111,-415.5 1117,-415.5 1123,-421.5 1123,-427.5 1123,-427.5 1123,-439.5 1123,-439.5 1123,-445.5 1117,-451.5 1111,-451.5"/>
<text text-anchor="middle" x="1095" y="-429.8" font-family="Helvetica,sans-Serif" font-size="14.00">run_id</text>
</g>
<!-- extract_prism_data&#45;&gt;run_id -->
<g id="edge2" class="edge"><title>extract_prism_data&#45;&gt;run_id</title>
<path fill="none" stroke="black" d="M958.014,-493.392C989.954,-483.803 1026.27,-471.44 1058,-457 1058.56,-456.747 1059.11,-456.487 1059.67,-456.222"/>
<polygon fill="black" stroke="black" points="1061.48,-459.227 1068.74,-451.507 1058.25,-453.016 1061.48,-459.227"/>
</g>
<!-- gen_paleocar_model -->
<g id="node2" class="node"><title>gen_paleocar_model</title>
<polygon fill="#ccffcc" stroke="black" points="862.5,-327.5 862.5,-373.5 1327.5,-373.5 1327.5,-327.5 862.5,-327.5"/>
<text text-anchor="middle" x="1095" y="-358.3" font-family="Helvetica,sans-Serif" font-size="14.00">gen_paleocar_model</text>
<polyline fill="none" stroke="black" points="862.5,-350.5 1327.5,-350.5 "/>
<text text-anchor="middle" x="1095" y="-335.3" font-family="Helvetica,sans-Serif" font-size="14.00">generate paleocar models for predicting the climate for the given years.</text>
</g>
<!-- paleocar_models -->
<g id="node10" class="node"><title>paleocar_models</title>
<path fill="#ffffcc" stroke="black" d="M787.5,-244.5C787.5,-244.5 1096.5,-244.5 1096.5,-244.5 1102.5,-244.5 1108.5,-250.5 1108.5,-256.5 1108.5,-256.5 1108.5,-278.5 1108.5,-278.5 1108.5,-284.5 1102.5,-290.5 1096.5,-290.5 1096.5,-290.5 787.5,-290.5 787.5,-290.5 781.5,-290.5 775.5,-284.5 775.5,-278.5 775.5,-278.5 775.5,-256.5 775.5,-256.5 775.5,-250.5 781.5,-244.5 787.5,-244.5"/>
<text text-anchor="middle" x="942" y="-275.3" font-family="Helvetica,sans-Serif" font-size="14.00">paleocar_models</text>
<polyline fill="none" stroke="black" points="775.5,-267.5 1108.5,-267.5 "/>
<text text-anchor="middle" x="942" y="-252.3" font-family="Helvetica,sans-Serif" font-size="14.00">file:/.output/{session_id}{run_id}/{label}.models.rds</text>
</g>
<!-- gen_paleocar_model&#45;&gt;paleocar_models -->
<g id="edge6" class="edge"><title>gen_paleocar_model&#45;&gt;paleocar_models</title>
<path fill="none" stroke="black" d="M1053.19,-327.366C1034.56,-317.5 1012.43,-305.788 992.848,-295.419"/>
<polygon fill="black" stroke="black" points="994.233,-292.193 983.757,-290.607 990.958,-298.379 994.233,-292.193"/>
</g>
<!-- paleocar_model_log_file -->
<g id="node15" class="node"><title>paleocar_model_log_file</title>
<path fill="#ffffcc" stroke="black" d="M1139,-244.5C1139,-244.5 1483,-244.5 1483,-244.5 1489,-244.5 1495,-250.5 1495,-256.5 1495,-256.5 1495,-278.5 1495,-278.5 1495,-284.5 1489,-290.5 1483,-290.5 1483,-290.5 1139,-290.5 1139,-290.5 1133,-290.5 1127,-284.5 1127,-278.5 1127,-278.5 1127,-256.5 1127,-256.5 1127,-250.5 1133,-244.5 1139,-244.5"/>
<text text-anchor="middle" x="1311" y="-275.3" font-family="Helvetica,sans-Serif" font-size="14.00">paleocar_model_log_file</text>
<polyline fill="none" stroke="black" points="1127,-267.5 1495,-267.5 "/>
<text text-anchor="middle" x="1311" y="-252.3" font-family="Helvetica,sans-Serif" font-size="14.00">file:/.output/{session_id}{run_id}/paleocar_model_log.txt</text>
</g>
<!-- gen_paleocar_model&#45;&gt;paleocar_model_log_file -->
<g id="edge7" class="edge"><title>gen_paleocar_model&#45;&gt;paleocar_model_log_file</title>
<path fill="none" stroke="black" d="M1153.74,-327.473C1181.24,-317.162 1214.16,-304.816 1242.76,-294.092"/>
<polygon fill="black" stroke="black" points="1244.14,-297.311 1252.27,-290.522 1241.68,-290.756 1244.14,-297.311"/>
</g>
<!-- extract_prediction_model -->
<g id="node3" class="node"><title>extract_prediction_model</title>
<polygon fill="#ccffcc" stroke="black" points="156,-161.5 156,-207.5 818,-207.5 818,-161.5 156,-161.5"/>
<text text-anchor="middle" x="487" y="-192.3" font-family="Helvetica,sans-Serif" font-size="14.00">extract_prediction_model</text>
<polyline fill="none" stroke="black" points="156,-184.5 818,-184.5 "/>
<text text-anchor="middle" x="487" y="-169.3" font-family="Helvetica,sans-Serif" font-size="14.00">extract the rasterbrick reconstruction from a PaleoCAR batch model for the specified prediction period.</text>
</g>
<!-- prediction_model -->
<g id="node11" class="node"><title>prediction_model</title>
<path fill="#ffffcc" stroke="black" d="M36,-78.5C36,-78.5 364,-78.5 364,-78.5 370,-78.5 376,-84.5 376,-90.5 376,-90.5 376,-112.5 376,-112.5 376,-118.5 370,-124.5 364,-124.5 364,-124.5 36,-124.5 36,-124.5 30,-124.5 24,-118.5 24,-112.5 24,-112.5 24,-90.5 24,-90.5 24,-84.5 30,-78.5 36,-78.5"/>
<text text-anchor="middle" x="200" y="-109.3" font-family="Helvetica,sans-Serif" font-size="14.00">prediction_model</text>
<polyline fill="none" stroke="black" points="24,-101.5 376,-101.5 "/>
<text text-anchor="middle" x="200" y="-86.3" font-family="Helvetica,sans-Serif" font-size="14.00">file:/.output/{session_id}/{run_id}/{label}.prediction.rds</text>
</g>
<!-- extract_prediction_model&#45;&gt;prediction_model -->
<g id="edge15" class="edge"><title>extract_prediction_model&#45;&gt;prediction_model</title>
<path fill="none" stroke="black" d="M408.955,-161.473C371.465,-150.893 326.389,-138.171 287.715,-127.256"/>
<polygon fill="black" stroke="black" points="288.604,-123.87 278.029,-124.522 286.703,-130.607 288.604,-123.87"/>
</g>
<!-- prediction_plot -->
<g id="node13" class="node"><title>prediction_plot</title>
<path fill="#ffffcc" stroke="black" d="M406.5,-78.5C406.5,-78.5 733.5,-78.5 733.5,-78.5 739.5,-78.5 745.5,-84.5 745.5,-90.5 745.5,-90.5 745.5,-112.5 745.5,-112.5 745.5,-118.5 739.5,-124.5 733.5,-124.5 733.5,-124.5 406.5,-124.5 406.5,-124.5 400.5,-124.5 394.5,-118.5 394.5,-112.5 394.5,-112.5 394.5,-90.5 394.5,-90.5 394.5,-84.5 400.5,-78.5 406.5,-78.5"/>
<text text-anchor="middle" x="570" y="-109.3" font-family="Helvetica,sans-Serif" font-size="14.00">prediction_plot</text>
<polyline fill="none" stroke="black" points="394.5,-101.5 745.5,-101.5 "/>
<text text-anchor="middle" x="570" y="-86.3" font-family="Helvetica,sans-Serif" font-size="14.00">file:/.output/{session_id}/{run_id}/{label}.prediction.jpg</text>
</g>
<!-- extract_prediction_model&#45;&gt;prediction_plot -->
<g id="edge16" class="edge"><title>extract_prediction_model&#45;&gt;prediction_plot</title>
<path fill="none" stroke="black" d="M509.68,-161.366C519.013,-152.259 529.956,-141.579 539.941,-131.835"/>
<polygon fill="black" stroke="black" points="542.635,-134.096 547.347,-124.607 537.746,-129.086 542.635,-134.096"/>
</g>
<!-- extract_uncertainty_model -->
<g id="node4" class="node"><title>extract_uncertainty_model</title>
<polygon fill="#ccffcc" stroke="black" points="836,-161.5 836,-207.5 1456,-207.5 1456,-161.5 836,-161.5"/>
<text text-anchor="middle" x="1146" y="-192.3" font-family="Helvetica,sans-Serif" font-size="14.00">extract_uncertainty_model</text>
<polyline fill="none" stroke="black" points="836,-184.5 1456,-184.5 "/>
<text text-anchor="middle" x="1146" y="-169.3" font-family="Helvetica,sans-Serif" font-size="14.00">extract the LOOCV uncertainty information from the set of Paleocar models for specified period.</text>
</g>
<!-- uncertainty_model -->
<g id="node12" class="node"><title>uncertainty_model</title>
<path fill="#ffffcc" stroke="black" d="M775.5,-78.5C775.5,-78.5 1108.5,-78.5 1108.5,-78.5 1114.5,-78.5 1120.5,-84.5 1120.5,-90.5 1120.5,-90.5 1120.5,-112.5 1120.5,-112.5 1120.5,-118.5 1114.5,-124.5 1108.5,-124.5 1108.5,-124.5 775.5,-124.5 775.5,-124.5 769.5,-124.5 763.5,-118.5 763.5,-112.5 763.5,-112.5 763.5,-90.5 763.5,-90.5 763.5,-84.5 769.5,-78.5 775.5,-78.5"/>
<text text-anchor="middle" x="942" y="-109.3" font-family="Helvetica,sans-Serif" font-size="14.00">uncertainty_model</text>
<polyline fill="none" stroke="black" points="763.5,-101.5 1120.5,-101.5 "/>
<text text-anchor="middle" x="942" y="-86.3" font-family="Helvetica,sans-Serif" font-size="14.00">file:/.output/{session_id}/{run_id}/{label}.uncertainty.rds</text>
</g>
<!-- extract_uncertainty_model&#45;&gt;uncertainty_model -->
<g id="edge19" class="edge"><title>extract_uncertainty_model&#45;&gt;uncertainty_model</title>
<path fill="none" stroke="black" d="M1090.53,-161.473C1064.67,-151.206 1033.73,-138.924 1006.81,-128.232"/>
<polygon fill="black" stroke="black" points="1008.05,-124.96 997.463,-124.522 1005.47,-131.466 1008.05,-124.96"/>
</g>
<!-- uncertainty_plot -->
<g id="node14" class="node"><title>uncertainty_plot</title>
<path fill="#ffffcc" stroke="black" d="M1151,-78.5C1151,-78.5 1483,-78.5 1483,-78.5 1489,-78.5 1495,-84.5 1495,-90.5 1495,-90.5 1495,-112.5 1495,-112.5 1495,-118.5 1489,-124.5 1483,-124.5 1483,-124.5 1151,-124.5 1151,-124.5 1145,-124.5 1139,-118.5 1139,-112.5 1139,-112.5 1139,-90.5 1139,-90.5 1139,-84.5 1145,-78.5 1151,-78.5"/>
<text text-anchor="middle" x="1317" y="-109.3" font-family="Helvetica,sans-Serif" font-size="14.00">uncertainty_plot</text>
<polyline fill="none" stroke="black" points="1139,-101.5 1495,-101.5 "/>
<text text-anchor="middle" x="1317" y="-86.3" font-family="Helvetica,sans-Serif" font-size="14.00">file:/.output/{session_id}/{run_id}/{label}.uncertainty.jpg</text>
</g>
<!-- extract_uncertainty_model&#45;&gt;uncertainty_plot -->
<g id="edge20" class="edge"><title>extract_uncertainty_model&#45;&gt;uncertainty_plot</title>
<path fill="none" stroke="black" d="M1192.73,-161.366C1213.84,-151.366 1238.95,-139.47 1261.06,-128.998"/>
<polygon fill="black" stroke="black" points="1262.79,-132.051 1270.33,-124.607 1259.79,-125.725 1262.79,-132.051"/>
</g>
<!-- user_map_marker_pos -->
<g id="node5" class="node"><title>user_map_marker_pos</title>
<path fill="#ffffcc" stroke="black" d="M1178,-617.5C1178,-617.5 1038,-617.5 1038,-617.5 1032,-617.5 1026,-611.5 1026,-605.5 1026,-605.5 1026,-593.5 1026,-593.5 1026,-587.5 1032,-581.5 1038,-581.5 1038,-581.5 1178,-581.5 1178,-581.5 1184,-581.5 1190,-587.5 1190,-593.5 1190,-593.5 1190,-605.5 1190,-605.5 1190,-611.5 1184,-617.5 1178,-617.5"/>
<text text-anchor="middle" x="1108" y="-595.8" font-family="Helvetica,sans-Serif" font-size="14.00">user_map_marker_pos</text>
</g>
<!-- user_map_marker_pos&#45;&gt;extract_prism_data -->
<g id="edge4" class="edge"><title>user_map_marker_pos&#45;&gt;extract_prism_data</title>
<path fill="none" stroke="black" d="M1058.66,-581.421C1026.41,-570.258 983.713,-555.478 947.498,-542.942"/>
<polygon fill="black" stroke="black" points="948.552,-539.603 937.957,-539.639 946.262,-546.218 948.552,-539.603"/>
</g>
<!-- user_prediction_years -->
<g id="node6" class="node"><title>user_prediction_years</title>
<path fill="#ffffcc" stroke="black" d="M601,-451.5C601,-451.5 467,-451.5 467,-451.5 461,-451.5 455,-445.5 455,-439.5 455,-439.5 455,-427.5 455,-427.5 455,-421.5 461,-415.5 467,-415.5 467,-415.5 601,-415.5 601,-415.5 607,-415.5 613,-421.5 613,-427.5 613,-427.5 613,-439.5 613,-439.5 613,-445.5 607,-451.5 601,-451.5"/>
<text text-anchor="middle" x="534" y="-429.8" font-family="Helvetica,sans-Serif" font-size="14.00">user_prediction_years</text>
</g>
<!-- user_prediction_years&#45;&gt;gen_paleocar_model -->
<g id="edge11" class="edge"><title>user_prediction_years&#45;&gt;gen_paleocar_model</title>
<path fill="none" stroke="black" d="M596.754,-415.42C605.204,-413.425 613.788,-411.551 622,-410 698.645,-395.523 782.98,-383.775 858.95,-374.71"/>
<polygon fill="black" stroke="black" points="859.611,-378.156 869.13,-373.505 858.788,-371.205 859.611,-378.156"/>
</g>
<!-- user_prediction_years&#45;&gt;extract_prediction_model -->
<g id="edge18" class="edge"><title>user_prediction_years&#45;&gt;extract_prediction_model</title>
<path fill="none" stroke="black" d="M530.695,-415.131C522.879,-374.056 503.161,-270.43 493.104,-217.576"/>
<polygon fill="black" stroke="black" points="496.535,-216.886 491.227,-207.716 489.658,-218.194 496.535,-216.886"/>
</g>
<!-- user_prediction_years&#45;&gt;extract_uncertainty_model -->
<g id="edge22" class="edge"><title>user_prediction_years&#45;&gt;extract_uncertainty_model</title>
<path fill="none" stroke="black" d="M548.828,-415.428C582.89,-377.465 671.123,-286.089 766,-244 799.326,-229.216 835.729,-218.078 872.38,-209.702"/>
<polygon fill="black" stroke="black" points="873.204,-213.104 882.209,-207.522 871.688,-206.271 873.204,-213.104"/>
</g>
<!-- prism_data_for_coordinates&#45;&gt;gen_paleocar_model -->
<g id="edge12" class="edge"><title>prism_data_for_coordinates&#45;&gt;gen_paleocar_model</title>
<path fill="none" stroke="black" d="M871.484,-410.473C911.756,-399.848 960.212,-387.063 1001.7,-376.117"/>
<polygon fill="black" stroke="black" points="1002.76,-379.458 1011.53,-373.522 1000.97,-372.689 1002.76,-379.458"/>
</g>
<!-- session_id&#45;&gt;gen_paleocar_model -->
<g id="edge13" class="edge"><title>session_id&#45;&gt;gen_paleocar_model</title>
<path fill="none" stroke="black" d="M1024.87,-415.322C1035.95,-405.246 1050.23,-392.249 1063.01,-380.616"/>
<polygon fill="black" stroke="black" points="1065.69,-382.906 1070.73,-373.587 1060.98,-377.729 1065.69,-382.906"/>
</g>
<!-- run_id&#45;&gt;gen_paleocar_model -->
<g id="edge14" class="edge"><title>run_id&#45;&gt;gen_paleocar_model</title>
<path fill="none" stroke="black" d="M1095,-415.322C1095,-406.102 1095,-394.435 1095,-383.606"/>
<polygon fill="black" stroke="black" points="1098.5,-383.587 1095,-373.587 1091.5,-383.587 1098.5,-383.587"/>
</g>
<!-- paleocar_models&#45;&gt;extract_prediction_model -->
<g id="edge17" class="edge"><title>paleocar_models&#45;&gt;extract_prediction_model</title>
<path fill="none" stroke="black" d="M818.27,-244.473C757.072,-233.579 683.123,-220.414 620.632,-209.289"/>
<polygon fill="black" stroke="black" points="621.164,-205.829 610.705,-207.522 619.937,-212.721 621.164,-205.829"/>
</g>
<!-- paleocar_models&#45;&gt;extract_uncertainty_model -->
<g id="edge21" class="edge"><title>paleocar_models&#45;&gt;extract_uncertainty_model</title>
<path fill="none" stroke="black" d="M997.474,-244.473C1023.33,-234.206 1054.27,-221.924 1081.19,-211.232"/>
<polygon fill="black" stroke="black" points="1082.53,-214.466 1090.54,-207.522 1079.95,-207.96 1082.53,-214.466"/>
</g>
<!-- paleocar_models_output_port -->
<g id="node26" class="node"><title>paleocar_models_output_port</title>
<ellipse fill="#ffffff" stroke="black" cx="1177" cy="-31" rx="7" ry="7"/>
</g>
<!-- paleocar_models&#45;&gt;paleocar_models_output_port -->
<g id="edge29" class="edge"><title>paleocar_models&#45;&gt;paleocar_models_output_port</title>
<path fill="none" stroke="black" d="M1108.74,-245.082C1111.85,-244.715 1114.94,-244.354 1118,-244 1195.01,-235.084 1401.79,-252.884 1465,-208 1498.23,-184.403 1495.12,-164.779 1504,-125 1510.1,-97.6726 1523.54,-82.0519 1504,-62 1491.94,-49.6226 1208.3,-62.0403 1193,-54 1189.74,-52.2863 1186.98,-49.5746 1184.72,-46.632"/>
<polygon fill="black" stroke="black" points="1187.6,-44.6285 1179.43,-37.8793 1181.61,-48.2484 1187.6,-44.6285"/>
</g>
<!-- prediction_model_output_port -->
<g id="node27" class="node"><title>prediction_model_output_port</title>
<ellipse fill="#ffffff" stroke="black" cx="1049" cy="-31" rx="7" ry="7"/>
</g>
<!-- prediction_model&#45;&gt;prediction_model_output_port -->
<g id="edge30" class="edge"><title>prediction_model&#45;&gt;prediction_model_output_port</title>
<path fill="none" stroke="black" d="M291.259,-78.4863C320.981,-72.1293 354.241,-65.8702 385,-62 640.395,-29.8656 954.858,-30.9543 1031.54,-31.7663"/>
<polygon fill="black" stroke="black" points="1031.72,-35.2686 1041.76,-31.8891 1031.8,-28.2691 1031.72,-35.2686"/>
</g>
<!-- uncertainty_model_output_port -->
<g id="node28" class="node"><title>uncertainty_model_output_port</title>
<ellipse fill="#ffffff" stroke="black" cx="1113" cy="-31" rx="7" ry="7"/>
</g>
<!-- uncertainty_model&#45;&gt;uncertainty_model_output_port -->
<g id="edge31" class="edge"><title>uncertainty_model&#45;&gt;uncertainty_model_output_port</title>
<path fill="none" stroke="black" d="M1049.24,-78.368C1066.11,-72.1241 1082.68,-64.1557 1097,-54 1100.01,-51.8694 1102.66,-48.9948 1104.91,-46.0274"/>
<polygon fill="black" stroke="black" points="1107.92,-47.8139 1110.33,-37.4976 1102.01,-44.0573 1107.92,-47.8139"/>
</g>
<!-- prediction_plot_output_port -->
<g id="node29" class="node"><title>prediction_plot_output_port</title>
<ellipse fill="#ffffff" stroke="black" cx="1081" cy="-31" rx="7" ry="7"/>
</g>
<!-- prediction_plot&#45;&gt;prediction_plot_output_port -->
<g id="edge32" class="edge"><title>prediction_plot&#45;&gt;prediction_plot_output_port</title>
<path fill="none" stroke="black" d="M659.312,-78.4308C689.225,-71.9465 722.88,-65.6259 754,-62 771.167,-59.9998 1049.7,-62.0403 1065,-54 1068.26,-52.2863 1071.02,-49.5746 1073.28,-46.632"/>
<polygon fill="black" stroke="black" points="1076.39,-48.2484 1078.57,-37.8793 1070.4,-44.6285 1076.39,-48.2484"/>
</g>
<!-- uncertainty_plot_output_port -->
<g id="node30" class="node"><title>uncertainty_plot_output_port</title>
<ellipse fill="#ffffff" stroke="black" cx="1145" cy="-31" rx="7" ry="7"/>
</g>
<!-- uncertainty_plot&#45;&gt;uncertainty_plot_output_port -->
<g id="edge33" class="edge"><title>uncertainty_plot&#45;&gt;uncertainty_plot_output_port</title>
<path fill="none" stroke="black" d="M1209.07,-78.4493C1192.09,-72.1958 1175.42,-64.2031 1161,-54 1157.99,-51.8721 1155.33,-48.9985 1153.09,-46.0312"/>
<polygon fill="black" stroke="black" points="1155.98,-44.0611 1147.66,-37.5 1150.08,-47.8168 1155.98,-44.0611"/>
</g>
<!-- paleocar_model_log_file_output_port -->
<g id="node31" class="node"><title>paleocar_model_log_file_output_port</title>
<ellipse fill="#ffffff" stroke="black" cx="1209" cy="-31" rx="7" ry="7"/>
</g>
<!-- paleocar_model_log_file&#45;&gt;paleocar_model_log_file_output_port -->
<g id="edge34" class="edge"><title>paleocar_model_log_file&#45;&gt;paleocar_model_log_file_output_port</title>
<path fill="none" stroke="black" d="M1451.84,-244.466C1490.51,-235.393 1525.12,-223.343 1537,-208 1576.72,-156.689 1580.74,-109.927 1537,-62 1515.86,-38.8395 1290.15,-33.3435 1225.95,-32.2445"/>
<polygon fill="black" stroke="black" points="1225.98,-28.7447 1215.92,-32.0872 1225.87,-35.7438 1225.98,-28.7447"/>
</g>
<!-- prism_data -->
<g id="node16" class="node"><title>prism_data</title>
<path fill="#fcfcfc" stroke="black" d="M834,-576.5C834,-576.5 968,-576.5 968,-576.5 974,-576.5 980,-582.5 980,-588.5 980,-588.5 980,-610.5 980,-610.5 980,-616.5 974,-622.5 968,-622.5 968,-622.5 834,-622.5 834,-622.5 828,-622.5 822,-616.5 822,-610.5 822,-610.5 822,-588.5 822,-588.5 822,-582.5 828,-576.5 834,-576.5"/>
<text text-anchor="middle" x="901" y="-607.3" font-family="Helvetica,sans-Serif" font-size="14.00">prism_data</text>
<polyline fill="none" stroke="black" points="822,-599.5 980,-599.5 "/>
<text text-anchor="middle" x="901" y="-584.3" font-family="Helvetica,sans-Serif" font-size="14.00">file:/data/112W36N.nc</text>
</g>
<!-- prism_data&#45;&gt;extract_prism_data -->
<g id="edge5" class="edge"><title>prism_data&#45;&gt;extract_prism_data</title>
<path fill="none" stroke="black" d="M893.622,-576.366C890.824,-567.973 887.582,-558.245 884.548,-549.143"/>
<polygon fill="black" stroke="black" points="887.852,-547.987 881.369,-539.607 881.211,-550.201 887.852,-547.987"/>
</g>
<!-- label -->
<g id="node17" class="node"><title>label</title>
<path fill="#fcfcfc" stroke="black" d="M1467,-451.5C1467,-451.5 1437,-451.5 1437,-451.5 1431,-451.5 1425,-445.5 1425,-439.5 1425,-439.5 1425,-427.5 1425,-427.5 1425,-421.5 1431,-415.5 1437,-415.5 1437,-415.5 1467,-415.5 1467,-415.5 1473,-415.5 1479,-421.5 1479,-427.5 1479,-427.5 1479,-439.5 1479,-439.5 1479,-445.5 1473,-451.5 1467,-451.5"/>
<text text-anchor="middle" x="1452" y="-429.8" font-family="Helvetica,sans-Serif" font-size="14.00">label</text>
</g>
<!-- label&#45;&gt;gen_paleocar_model -->
<g id="edge8" class="edge"><title>label&#45;&gt;gen_paleocar_model</title>
<path fill="none" stroke="black" d="M1427.46,-415.488C1423.74,-413.405 1419.85,-411.49 1416,-410 1377.37,-395.04 1334.61,-383.854 1293.23,-375.505"/>
<polygon fill="black" stroke="black" points="1293.8,-372.049 1283.31,-373.551 1292.45,-378.918 1293.8,-372.049"/>
</g>
<!-- calibration_year -->
<g id="node18" class="node"><title>calibration_year</title>
<path fill="#fcfcfc" stroke="black" d="M1395,-451.5C1395,-451.5 1303,-451.5 1303,-451.5 1297,-451.5 1291,-445.5 1291,-439.5 1291,-439.5 1291,-427.5 1291,-427.5 1291,-421.5 1297,-415.5 1303,-415.5 1303,-415.5 1395,-415.5 1395,-415.5 1401,-415.5 1407,-421.5 1407,-427.5 1407,-427.5 1407,-439.5 1407,-439.5 1407,-445.5 1401,-451.5 1395,-451.5"/>
<text text-anchor="middle" x="1349" y="-429.8" font-family="Helvetica,sans-Serif" font-size="14.00">calibration_year</text>
</g>
<!-- calibration_year&#45;&gt;gen_paleocar_model -->
<g id="edge9" class="edge"><title>calibration_year&#45;&gt;gen_paleocar_model</title>
<path fill="none" stroke="black" d="M1297.79,-415.464C1292.13,-413.608 1286.44,-411.757 1281,-410 1246.7,-398.931 1208.75,-386.948 1176.12,-376.728"/>
<polygon fill="black" stroke="black" points="1176.77,-373.262 1166.18,-373.616 1174.68,-379.943 1176.77,-373.262"/>
</g>
<!-- itrdb -->
<g id="node19" class="node"><title>itrdb</title>
<path fill="#fcfcfc" stroke="black" d="M1153.5,-410.5C1153.5,-410.5 1260.5,-410.5 1260.5,-410.5 1266.5,-410.5 1272.5,-416.5 1272.5,-422.5 1272.5,-422.5 1272.5,-444.5 1272.5,-444.5 1272.5,-450.5 1266.5,-456.5 1260.5,-456.5 1260.5,-456.5 1153.5,-456.5 1153.5,-456.5 1147.5,-456.5 1141.5,-450.5 1141.5,-444.5 1141.5,-444.5 1141.5,-422.5 1141.5,-422.5 1141.5,-416.5 1147.5,-410.5 1153.5,-410.5"/>
<text text-anchor="middle" x="1207" y="-441.3" font-family="Helvetica,sans-Serif" font-size="14.00">itrdb</text>
<polyline fill="none" stroke="black" points="1141.5,-433.5 1272.5,-433.5 "/>
<text text-anchor="middle" x="1207" y="-418.3" font-family="Helvetica,sans-Serif" font-size="14.00">file:/data/itrdb.Rda</text>
</g>
<!-- itrdb&#45;&gt;gen_paleocar_model -->
<g id="edge10" class="edge"><title>itrdb&#45;&gt;gen_paleocar_model</title>
<path fill="none" stroke="black" d="M1176.4,-410.366C1163.31,-400.902 1147.87,-389.739 1133.98,-379.693"/>
<polygon fill="black" stroke="black" points="1135.72,-376.631 1125.57,-373.607 1131.62,-382.303 1135.72,-376.631"/>
</g>
<!-- user_map_marker_pos_input_port -->
<g id="node20" class="node"><title>user_map_marker_pos_input_port</title>
<ellipse fill="#ffffff" stroke="black" cx="1244" cy="-670" rx="7" ry="7"/>
</g>
<!-- user_map_marker_pos_input_port&#45;&gt;user_map_marker_pos -->
<g id="edge23" class="edge"><title>user_map_marker_pos_input_port&#45;&gt;user_map_marker_pos</title>
<path fill="none" stroke="black" d="M1241.04,-663.225C1238.26,-658.313 1233.69,-651.378 1228,-647 1214.16,-636.351 1197.58,-627.869 1181.24,-621.225"/>
<polygon fill="black" stroke="black" points="1182.25,-617.864 1171.66,-617.523 1179.72,-624.393 1182.25,-617.864"/>
</g>
<!-- user_prediction_years_input_port -->
<g id="node21" class="node"><title>user_prediction_years_input_port</title>
<ellipse fill="#ffffff" stroke="black" cx="1276" cy="-670" rx="7" ry="7"/>
</g>
<!-- user_prediction_years_input_port&#45;&gt;user_prediction_years -->
<g id="edge24" class="edge"><title>user_prediction_years_input_port&#45;&gt;user_prediction_years</title>
<path fill="none" stroke="black" d="M1277.58,-662.981C1283.81,-637.754 1303.94,-539.681 1254,-493 1202.62,-444.97 691.508,-467.762 622,-457 616.21,-456.103 610.246,-454.993 604.282,-453.75"/>
<polygon fill="black" stroke="black" points="604.794,-450.279 594.275,-451.547 603.289,-457.115 604.794,-450.279"/>
</g>
<!-- prism_data_input_port -->
<g id="node22" class="node"><title>prism_data_input_port</title>
<ellipse fill="#ffffff" stroke="black" cx="1212" cy="-670" rx="7" ry="7"/>
</g>
<!-- prism_data_input_port&#45;&gt;prism_data -->
<g id="edge25" class="edge"><title>prism_data_input_port&#45;&gt;prism_data</title>
<path fill="none" stroke="black" d="M1205.18,-668.37C1179.96,-665.95 1089.59,-656.499 1017,-639 1001.86,-635.349 985.856,-630.626 970.739,-625.745"/>
<polygon fill="black" stroke="black" points="971.543,-622.325 960.95,-622.525 969.355,-628.975 971.543,-622.325"/>
</g>
<!-- itrdb_input_port -->
<g id="node23" class="node"><title>itrdb_input_port</title>
<ellipse fill="#ffffff" stroke="black" cx="1308" cy="-670" rx="7" ry="7"/>
</g>
<!-- itrdb_input_port&#45;&gt;itrdb -->
<g id="edge26" class="edge"><title>itrdb_input_port&#45;&gt;itrdb</title>
<path fill="none" stroke="black" d="M1308.9,-663.005C1312.12,-639.417 1321.17,-551.443 1287,-493 1280.01,-481.048 1269.51,-470.829 1258.4,-462.436"/>
<polygon fill="black" stroke="black" points="1260.42,-459.579 1250.24,-456.648 1256.37,-465.288 1260.42,-459.579"/>
</g>
<!-- calibration_year_input_port -->
<g id="node24" class="node"><title>calibration_year_input_port</title>
<ellipse fill="#ffffff" stroke="black" cx="1340" cy="-670" rx="7" ry="7"/>
</g>
<!-- calibration_year_input_port&#45;&gt;calibration_year -->
<g id="edge27" class="edge"><title>calibration_year_input_port&#45;&gt;calibration_year</title>
<path fill="none" stroke="black" d="M1340.24,-662.728C1341.33,-634.244 1345.87,-516.13 1347.95,-461.919"/>
<polygon fill="black" stroke="black" points="1351.45,-461.802 1348.34,-451.675 1344.46,-461.533 1351.45,-461.802"/>
</g>
<!-- label_input_port -->
<g id="node25" class="node"><title>label_input_port</title>
<ellipse fill="#ffffff" stroke="black" cx="1372" cy="-670" rx="7" ry="7"/>
</g>
<!-- label_input_port&#45;&gt;label -->
<g id="edge28" class="edge"><title>label_input_port&#45;&gt;label</title>
<path fill="none" stroke="black" d="M1373.98,-663.203C1383.43,-635.507 1424.28,-515.76 1442.8,-461.457"/>
<polygon fill="black" stroke="black" points="1446.18,-462.409 1446.09,-451.815 1439.55,-460.149 1446.18,-462.409"/>
</g>
</g>
</svg>
