<?xml version="1.0" encoding="UTF-8" standalone="no"?>
<!DOCTYPE svg PUBLIC "-//W3C//DTD SVG 1.1//EN"
 "http://www.w3.org/Graphics/SVG/1.1/DTD/svg11.dtd">
<!-- Generated by graphviz version 2.38.0 (20140413.2041)
 -->
<!-- Title: Workflow Pages: 1 -->
<svg width="1530pt" height="543pt"
 viewBox="0.00 0.00 1530.42 543.00" xmlns="http://www.w3.org/2000/svg" xmlns:xlink="http://www.w3.org/1999/xlink">
<g id="graph0" class="graph" transform="scale(1 1) rotate(0) translate(4 539)">
<title>Workflow</title>
<polygon fill="white" stroke="none" points="-4,4 -4,-539 1526.42,-539 1526.42,4 -4,4"/>
<g id="clust1" class="cluster"><title>cluster_workflow_box_outer</title>
<polygon fill="none" stroke="black" stroke-width="2" points="8,-62 8,-473 1465,-473 1465,-62 8,-62"/>
</g>
<g id="clust2" class="cluster"><title>cluster_workflow_box_inner</title>
<polygon fill="none" stroke="black" stroke-width="0" points="16,-70 16,-465 1457,-465 1457,-70 16,-70"/>
</g>
<g id="clust3" class="cluster"><title>cluster_input_ports_group_outer</title>
<polygon fill="none" stroke="black" stroke-width="0" points="819,-481 819,-527 993,-527 993,-481 819,-481"/>
</g>
<g id="clust4" class="cluster"><title>cluster_input_ports_group_inner</title>
<polygon fill="none" stroke="black" stroke-width="0" points="827,-489 827,-519 985,-519 985,-489 827,-489"/>
</g>
<g id="clust5" class="cluster"><title>cluster_output_ports_group_outer</title>
<polygon fill="none" stroke="black" stroke-width="0" points="980,-8 980,-54 1186,-54 1186,-8 980,-8"/>
</g>
<g id="clust6" class="cluster"><title>cluster_output_ports_group_inner</title>
<polygon fill="none" stroke="black" stroke-width="0" points="988,-16 988,-46 1178,-46 1178,-16 988,-16"/>
</g>
<!-- gen_paleocar_model -->
<g id="node1" class="node"><title>gen_paleocar_model</title>
<polygon fill="#ccffcc" stroke="black" points="673.5,-327.5 673.5,-373.5 1138.5,-373.5 1138.5,-327.5 673.5,-327.5"/>
<text text-anchor="middle" x="906" y="-358.3" font-family="Helvetica,sans-Serif" font-size="14.00">gen_paleocar_model</text>
<polyline fill="none" stroke="black" points="673.5,-350.5 1138.5,-350.5 "/>
<text text-anchor="middle" x="906" y="-335.3" font-family="Helvetica,sans-Serif" font-size="14.00">generate paleocar models for predicting the climate for the given years.</text>
</g>
<!-- paleocar_models -->
<g id="node6" class="node"><title>paleocar_models</title>
<path fill="#ffffcc" stroke="black" d="M741.5,-244.5C741.5,-244.5 1050.5,-244.5 1050.5,-244.5 1056.5,-244.5 1062.5,-250.5 1062.5,-256.5 1062.5,-256.5 1062.5,-278.5 1062.5,-278.5 1062.5,-284.5 1056.5,-290.5 1050.5,-290.5 1050.5,-290.5 741.5,-290.5 741.5,-290.5 735.5,-290.5 729.5,-284.5 729.5,-278.5 729.5,-278.5 729.5,-256.5 729.5,-256.5 729.5,-250.5 735.5,-244.5 741.5,-244.5"/>
<text text-anchor="middle" x="896" y="-275.3" font-family="Helvetica,sans-Serif" font-size="14.00">paleocar_models</text>
<polyline fill="none" stroke="black" points="729.5,-267.5 1062.5,-267.5 "/>
<text text-anchor="middle" x="896" y="-252.3" font-family="Helvetica,sans-Serif" font-size="14.00">file:/.output/{session_id}{run_id}/{label}.models.rds</text>
</g>
<!-- gen_paleocar_model&#45;&gt;paleocar_models -->
<g id="edge1" class="edge"><title>gen_paleocar_model&#45;&gt;paleocar_models</title>
<path fill="none" stroke="black" d="M903.267,-327.366C902.253,-319.152 901.081,-309.658 899.978,-300.725"/>
<polygon fill="black" stroke="black" points="903.428,-300.103 898.729,-290.607 896.481,-300.96 903.428,-300.103"/>
</g>
<!-- paleocar_model_log_file -->
<g id="node11" class="node"><title>paleocar_model_log_file</title>
<path fill="#ffffcc" stroke="black" d="M1093,-244.5C1093,-244.5 1437,-244.5 1437,-244.5 1443,-244.5 1449,-250.5 1449,-256.5 1449,-256.5 1449,-278.5 1449,-278.5 1449,-284.5 1443,-290.5 1437,-290.5 1437,-290.5 1093,-290.5 1093,-290.5 1087,-290.5 1081,-284.5 1081,-278.5 1081,-278.5 1081,-256.5 1081,-256.5 1081,-250.5 1087,-244.5 1093,-244.5"/>
<text text-anchor="middle" x="1265" y="-275.3" font-family="Helvetica,sans-Serif" font-size="14.00">paleocar_model_log_file</text>
<polyline fill="none" stroke="black" points="1081,-267.5 1449,-267.5 "/>
<text text-anchor="middle" x="1265" y="-252.3" font-family="Helvetica,sans-Serif" font-size="14.00">file:/.output/{session_id}{run_id}/paleocar_model_log.txt</text>
</g>
<!-- gen_paleocar_model&#45;&gt;paleocar_model_log_file -->
<g id="edge2" class="edge"><title>gen_paleocar_model&#45;&gt;paleocar_model_log_file</title>
<path fill="none" stroke="black" d="M1003.62,-327.473C1051.21,-316.736 1108.58,-303.793 1157.43,-292.771"/>
<polygon fill="black" stroke="black" points="1158.41,-296.137 1167.4,-290.522 1156.87,-289.309 1158.41,-296.137"/>
</g>
<!-- extract_prediction_model -->
<g id="node2" class="node"><title>extract_prediction_model</title>
<polygon fill="#ccffcc" stroke="black" points="86,-161.5 86,-207.5 748,-207.5 748,-161.5 86,-161.5"/>
<text text-anchor="middle" x="417" y="-192.3" font-family="Helvetica,sans-Serif" font-size="14.00">extract_prediction_model</text>
<polyline fill="none" stroke="black" points="86,-184.5 748,-184.5 "/>
<text text-anchor="middle" x="417" y="-169.3" font-family="Helvetica,sans-Serif" font-size="14.00">extract the rasterbrick reconstruction from a PaleoCAR batch model for the specified prediction period.</text>
</g>
<!-- prediction_model -->
<g id="node7" class="node"><title>prediction_model</title>
<path fill="#ffffcc" stroke="black" d="M36,-78.5C36,-78.5 364,-78.5 364,-78.5 370,-78.5 376,-84.5 376,-90.5 376,-90.5 376,-112.5 376,-112.5 376,-118.5 370,-124.5 364,-124.5 364,-124.5 36,-124.5 36,-124.5 30,-124.5 24,-118.5 24,-112.5 24,-112.5 24,-90.5 24,-90.5 24,-84.5 30,-78.5 36,-78.5"/>
<text text-anchor="middle" x="200" y="-109.3" font-family="Helvetica,sans-Serif" font-size="14.00">prediction_model</text>
<polyline fill="none" stroke="black" points="24,-101.5 376,-101.5 "/>
<text text-anchor="middle" x="200" y="-86.3" font-family="Helvetica,sans-Serif" font-size="14.00">file:/.output/{session_id}/{run_id}/{label}.prediction.rds</text>
</g>
<!-- extract_prediction_model&#45;&gt;prediction_model -->
<g id="edge8" class="edge"><title>extract_prediction_model&#45;&gt;prediction_model</title>
<path fill="none" stroke="black" d="M357.99,-161.473C330.365,-151.162 297.292,-138.816 268.561,-128.092"/>
<polygon fill="black" stroke="black" points="269.59,-124.74 258.998,-124.522 267.142,-131.298 269.59,-124.74"/>
</g>
<!-- prediction_plot -->
<g id="node9" class="node"><title>prediction_plot</title>
<path fill="#ffffcc" stroke="black" d="M406.5,-78.5C406.5,-78.5 687.5,-78.5 687.5,-78.5 693.5,-78.5 699.5,-84.5 699.5,-90.5 699.5,-90.5 699.5,-112.5 699.5,-112.5 699.5,-118.5 693.5,-124.5 687.5,-124.5 687.5,-124.5 406.5,-124.5 406.5,-124.5 400.5,-124.5 394.5,-118.5 394.5,-112.5 394.5,-112.5 394.5,-90.5 394.5,-90.5 394.5,-84.5 400.5,-78.5 406.5,-78.5"/>
<text text-anchor="middle" x="547" y="-109.3" font-family="Helvetica,sans-Serif" font-size="14.00">prediction_plot</text>
<polyline fill="none" stroke="black" points="394.5,-101.5 699.5,-101.5 "/>
<text text-anchor="middle" x="547" y="-86.3" font-family="Helvetica,sans-Serif" font-size="14.00">file:/{session_id}/{run_id}/{label}.prediction.jpg</text>
</g>
<!-- extract_prediction_model&#45;&gt;prediction_plot -->
<g id="edge9" class="edge"><title>extract_prediction_model&#45;&gt;prediction_plot</title>
<path fill="none" stroke="black" d="M452.523,-161.366C468,-151.723 486.306,-140.317 502.663,-130.125"/>
<polygon fill="black" stroke="black" points="504.883,-132.866 511.52,-124.607 501.182,-126.925 504.883,-132.866"/>
</g>
<!-- extract_uncertainty_model -->
<g id="node3" class="node"><title>extract_uncertainty_model</title>
<polygon fill="#ccffcc" stroke="black" points="766,-161.5 766,-207.5 1386,-207.5 1386,-161.5 766,-161.5"/>
<text text-anchor="middle" x="1076" y="-192.3" font-family="Helvetica,sans-Serif" font-size="14.00">extract_uncertainty_model</text>
<polyline fill="none" stroke="black" points="766,-184.5 1386,-184.5 "/>
<text text-anchor="middle" x="1076" y="-169.3" font-family="Helvetica,sans-Serif" font-size="14.00">extract the LOOCV uncertainty information from the set of Paleocar models for specified period.</text>
</g>
<!-- uncertainty_model -->
<g id="node8" class="node"><title>uncertainty_model</title>
<path fill="#ffffcc" stroke="black" d="M729.5,-78.5C729.5,-78.5 1062.5,-78.5 1062.5,-78.5 1068.5,-78.5 1074.5,-84.5 1074.5,-90.5 1074.5,-90.5 1074.5,-112.5 1074.5,-112.5 1074.5,-118.5 1068.5,-124.5 1062.5,-124.5 1062.5,-124.5 729.5,-124.5 729.5,-124.5 723.5,-124.5 717.5,-118.5 717.5,-112.5 717.5,-112.5 717.5,-90.5 717.5,-90.5 717.5,-84.5 723.5,-78.5 729.5,-78.5"/>
<text text-anchor="middle" x="896" y="-109.3" font-family="Helvetica,sans-Serif" font-size="14.00">uncertainty_model</text>
<polyline fill="none" stroke="black" points="717.5,-101.5 1074.5,-101.5 "/>
<text text-anchor="middle" x="896" y="-86.3" font-family="Helvetica,sans-Serif" font-size="14.00">file:/.output/{session_id}/{run_id}/{label}.uncertainty.rds</text>
</g>
<!-- extract_uncertainty_model&#45;&gt;uncertainty_model -->
<g id="edge12" class="edge"><title>extract_uncertainty_model&#45;&gt;uncertainty_model</title>
<path fill="none" stroke="black" d="M1026.81,-161.366C1004.39,-151.277 977.683,-139.257 954.262,-128.718"/>
<polygon fill="black" stroke="black" points="955.682,-125.519 945.126,-124.607 952.809,-131.902 955.682,-125.519"/>
</g>
<!-- uncertainty_plot -->
<g id="node10" class="node"><title>uncertainty_plot</title>
<path fill="#ffffcc" stroke="black" d="M1105,-78.5C1105,-78.5 1437,-78.5 1437,-78.5 1443,-78.5 1449,-84.5 1449,-90.5 1449,-90.5 1449,-112.5 1449,-112.5 1449,-118.5 1443,-124.5 1437,-124.5 1437,-124.5 1105,-124.5 1105,-124.5 1099,-124.5 1093,-118.5 1093,-112.5 1093,-112.5 1093,-90.5 1093,-90.5 1093,-84.5 1099,-78.5 1105,-78.5"/>
<text text-anchor="middle" x="1271" y="-109.3" font-family="Helvetica,sans-Serif" font-size="14.00">uncertainty_plot</text>
<polyline fill="none" stroke="black" points="1093,-101.5 1449,-101.5 "/>
<text text-anchor="middle" x="1271" y="-86.3" font-family="Helvetica,sans-Serif" font-size="14.00">file:/.output/{session_id}/{run_id}/{label}.uncertainty.jpg</text>
</g>
<!-- extract_uncertainty_model&#45;&gt;uncertainty_plot -->
<g id="edge13" class="edge"><title>extract_uncertainty_model&#45;&gt;uncertainty_plot</title>
<path fill="none" stroke="black" d="M1129.03,-161.473C1153.64,-151.251 1183.06,-139.031 1208.72,-128.372"/>
<polygon fill="black" stroke="black" points="1210.09,-131.591 1217.98,-124.522 1207.41,-125.126 1210.09,-131.591"/>
</g>
<!-- user_prediction_years -->
<g id="node4" class="node"><title>user_prediction_years</title>
<path fill="#ffffcc" stroke="black" d="M1427,-451.5C1427,-451.5 1293,-451.5 1293,-451.5 1287,-451.5 1281,-445.5 1281,-439.5 1281,-439.5 1281,-427.5 1281,-427.5 1281,-421.5 1287,-415.5 1293,-415.5 1293,-415.5 1427,-415.5 1427,-415.5 1433,-415.5 1439,-421.5 1439,-427.5 1439,-427.5 1439,-439.5 1439,-439.5 1439,-445.5 1433,-451.5 1427,-451.5"/>
<text text-anchor="middle" x="1360" y="-429.8" font-family="Helvetica,sans-Serif" font-size="14.00">user_prediction_years</text>
</g>
<!-- user_prediction_years&#45;&gt;gen_paleocar_model -->
<g id="edge6" class="edge"><title>user_prediction_years&#45;&gt;gen_paleocar_model</title>
<path fill="none" stroke="black" d="M1295.5,-415.48C1287.28,-413.521 1278.96,-411.641 1271,-410 1206.56,-396.718 1135.2,-384.693 1072.8,-375.047"/>
<polygon fill="black" stroke="black" points="1073.27,-371.58 1062.86,-373.52 1072.21,-378.499 1073.27,-371.58"/>
</g>
<!-- prism_data_for_coordinates -->
<g id="node5" class="node"><title>prism_data_for_coordinates</title>
<path fill="#ffffcc" stroke="black" d="M963.5,-410.5C963.5,-410.5 1250.5,-410.5 1250.5,-410.5 1256.5,-410.5 1262.5,-416.5 1262.5,-422.5 1262.5,-422.5 1262.5,-444.5 1262.5,-444.5 1262.5,-450.5 1256.5,-456.5 1250.5,-456.5 1250.5,-456.5 963.5,-456.5 963.5,-456.5 957.5,-456.5 951.5,-450.5 951.5,-444.5 951.5,-444.5 951.5,-422.5 951.5,-422.5 951.5,-416.5 957.5,-410.5 963.5,-410.5"/>
<text text-anchor="middle" x="1107" y="-441.3" font-family="Helvetica,sans-Serif" font-size="14.00">prism_data_for_coordinates</text>
<polyline fill="none" stroke="black" points="951.5,-433.5 1262.5,-433.5 "/>
<text text-anchor="middle" x="1107" y="-418.3" font-family="Helvetica,sans-Serif" font-size="14.00">file:/.output/{session_id}/{run_id}/{data_file}.csv</text>
</g>
<!-- prism_data_for_coordinates&#45;&gt;gen_paleocar_model -->
<g id="edge7" class="edge"><title>prism_data_for_coordinates&#45;&gt;gen_paleocar_model</title>
<path fill="none" stroke="black" d="M1052.34,-410.473C1026.98,-400.251 996.65,-388.031 970.201,-377.372"/>
<polygon fill="black" stroke="black" points="971.231,-374.014 960.648,-373.522 968.615,-380.506 971.231,-374.014"/>
</g>
<!-- paleocar_models&#45;&gt;extract_prediction_model -->
<g id="edge10" class="edge"><title>paleocar_models&#45;&gt;extract_prediction_model</title>
<path fill="none" stroke="black" d="M765.744,-244.473C701.185,-233.556 623.147,-220.36 557.275,-209.221"/>
<polygon fill="black" stroke="black" points="557.674,-205.739 547.23,-207.522 556.507,-212.641 557.674,-205.739"/>
</g>
<!-- paleocar_models&#45;&gt;extract_uncertainty_model -->
<g id="edge14" class="edge"><title>paleocar_models&#45;&gt;extract_uncertainty_model</title>
<path fill="none" stroke="black" d="M945.186,-244.366C967.608,-234.277 994.317,-222.257 1017.74,-211.718"/>
<polygon fill="black" stroke="black" points="1019.19,-214.902 1026.87,-207.607 1016.32,-208.519 1019.19,-214.902"/>
</g>
<!-- paleocar_models_output_port -->
<g id="node21" class="node"><title>paleocar_models_output_port</title>
<ellipse fill="#ffffff" stroke="black" cx="1131" cy="-31" rx="7" ry="7"/>
</g>
<!-- paleocar_models&#45;&gt;paleocar_models_output_port -->
<g id="edge21" class="edge"><title>paleocar_models&#45;&gt;paleocar_models_output_port</title>
<path fill="none" stroke="black" d="M1062.74,-245.114C1065.85,-244.738 1068.94,-244.366 1072,-244 1250.25,-222.674 1400.74,-295.146 1458,-125 1466.93,-98.4625 1477.54,-82.0519 1458,-62 1445.94,-49.6226 1162.3,-62.0403 1147,-54 1143.74,-52.2863 1140.98,-49.5746 1138.72,-46.632"/>
<polygon fill="black" stroke="black" points="1141.6,-44.6285 1133.43,-37.8793 1135.61,-48.2484 1141.6,-44.6285"/>
</g>
<!-- prediction_model_output_port -->
<g id="node22" class="node"><title>prediction_model_output_port</title>
<ellipse fill="#ffffff" stroke="black" cx="1003" cy="-31" rx="7" ry="7"/>
</g>
<!-- prediction_model&#45;&gt;prediction_model_output_port -->
<g id="edge22" class="edge"><title>prediction_model&#45;&gt;prediction_model_output_port</title>
<path fill="none" stroke="black" d="M291.739,-78.447C321.342,-72.1281 354.41,-65.9011 385,-62 621.695,-31.815 912.93,-31.426 985.842,-31.8514"/>
<polygon fill="black" stroke="black" points="985.917,-35.3519 995.943,-31.925 985.968,-28.3521 985.917,-35.3519"/>
</g>
<!-- uncertainty_model_output_port -->
<g id="node23" class="node"><title>uncertainty_model_output_port</title>
<ellipse fill="#ffffff" stroke="black" cx="1067" cy="-31" rx="7" ry="7"/>
</g>
<!-- uncertainty_model&#45;&gt;uncertainty_model_output_port -->
<g id="edge23" class="edge"><title>uncertainty_model&#45;&gt;uncertainty_model_output_port</title>
<path fill="none" stroke="black" d="M1003.24,-78.368C1020.11,-72.1241 1036.68,-64.1557 1051,-54 1054.01,-51.8694 1056.66,-48.9948 1058.91,-46.0274"/>
<polygon fill="black" stroke="black" points="1061.92,-47.8139 1064.33,-37.4976 1056.01,-44.0573 1061.92,-47.8139"/>
</g>
<!-- prediction_plot_output_port -->
<g id="node24" class="node"><title>prediction_plot_output_port</title>
<ellipse fill="#ffffff" stroke="black" cx="1035" cy="-31" rx="7" ry="7"/>
</g>
<!-- prediction_plot&#45;&gt;prediction_plot_output_port -->
<g id="edge24" class="edge"><title>prediction_plot&#45;&gt;prediction_plot_output_port</title>
<path fill="none" stroke="black" d="M624.592,-78.4814C650.857,-71.9581 680.501,-65.6013 708,-62 725.137,-59.7557 1003.7,-62.0403 1019,-54 1022.26,-52.2863 1025.02,-49.5746 1027.28,-46.632"/>
<polygon fill="black" stroke="black" points="1030.39,-48.2484 1032.57,-37.8793 1024.4,-44.6285 1030.39,-48.2484"/>
</g>
<!-- uncertainty_plot_output_port -->
<g id="node25" class="node"><title>uncertainty_plot_output_port</title>
<ellipse fill="#ffffff" stroke="black" cx="1099" cy="-31" rx="7" ry="7"/>
</g>
<!-- uncertainty_plot&#45;&gt;uncertainty_plot_output_port -->
<g id="edge25" class="edge"><title>uncertainty_plot&#45;&gt;uncertainty_plot_output_port</title>
<path fill="none" stroke="black" d="M1163.07,-78.4493C1146.09,-72.1958 1129.42,-64.2031 1115,-54 1111.99,-51.8721 1109.33,-48.9985 1107.09,-46.0312"/>
<polygon fill="black" stroke="black" points="1109.98,-44.0611 1101.66,-37.5 1104.08,-47.8168 1109.98,-44.0611"/>
</g>
<!-- paleocar_model_log_file_output_port -->
<g id="node26" class="node"><title>paleocar_model_log_file_output_port</title>
<ellipse fill="#ffffff" stroke="black" cx="1163" cy="-31" rx="7" ry="7"/>
</g>
<!-- paleocar_model_log_file&#45;&gt;paleocar_model_log_file_output_port -->
<g id="edge26" class="edge"><title>paleocar_model_log_file&#45;&gt;paleocar_model_log_file_output_port</title>
<path fill="none" stroke="black" d="M1405.84,-244.466C1444.51,-235.393 1479.12,-223.343 1491,-208 1530.72,-156.689 1534.74,-109.927 1491,-62 1469.86,-38.8395 1244.15,-33.3435 1179.95,-32.2445"/>
<polygon fill="black" stroke="black" points="1179.98,-28.7447 1169.92,-32.0872 1179.87,-35.7438 1179.98,-28.7447"/>
</g>
<!-- label -->
<g id="node12" class="node"><title>label</title>
<path fill="#fcfcfc" stroke="black" d="M921,-451.5C921,-451.5 891,-451.5 891,-451.5 885,-451.5 879,-445.5 879,-439.5 879,-439.5 879,-427.5 879,-427.5 879,-421.5 885,-415.5 891,-415.5 891,-415.5 921,-415.5 921,-415.5 927,-415.5 933,-421.5 933,-427.5 933,-427.5 933,-439.5 933,-439.5 933,-445.5 927,-451.5 921,-451.5"/>
<text text-anchor="middle" x="906" y="-429.8" font-family="Helvetica,sans-Serif" font-size="14.00">label</text>
</g>
<!-- label&#45;&gt;gen_paleocar_model -->
<g id="edge3" class="edge"><title>label&#45;&gt;gen_paleocar_model</title>
<path fill="none" stroke="black" d="M906,-415.322C906,-406.102 906,-394.435 906,-383.606"/>
<polygon fill="black" stroke="black" points="909.5,-383.587 906,-373.587 902.5,-383.587 909.5,-383.587"/>
</g>
<!-- calibration_year -->
<g id="node13" class="node"><title>calibration_year</title>
<path fill="#fcfcfc" stroke="black" d="M849,-451.5C849,-451.5 757,-451.5 757,-451.5 751,-451.5 745,-445.5 745,-439.5 745,-439.5 745,-427.5 745,-427.5 745,-421.5 751,-415.5 757,-415.5 757,-415.5 849,-415.5 849,-415.5 855,-415.5 861,-421.5 861,-427.5 861,-427.5 861,-439.5 861,-439.5 861,-445.5 855,-451.5 849,-451.5"/>
<text text-anchor="middle" x="803" y="-429.8" font-family="Helvetica,sans-Serif" font-size="14.00">calibration_year</text>
</g>
<!-- calibration_year&#45;&gt;gen_paleocar_model -->
<g id="edge4" class="edge"><title>calibration_year&#45;&gt;gen_paleocar_model</title>
<path fill="none" stroke="black" d="M824.844,-415.322C837.898,-405.056 854.809,-391.757 869.812,-379.959"/>
<polygon fill="black" stroke="black" points="872.217,-382.52 877.914,-373.587 867.89,-377.017 872.217,-382.52"/>
</g>
<!-- itrdb -->
<g id="node14" class="node"><title>itrdb</title>
<path fill="#fcfcfc" stroke="black" d="M607.5,-410.5C607.5,-410.5 714.5,-410.5 714.5,-410.5 720.5,-410.5 726.5,-416.5 726.5,-422.5 726.5,-422.5 726.5,-444.5 726.5,-444.5 726.5,-450.5 720.5,-456.5 714.5,-456.5 714.5,-456.5 607.5,-456.5 607.5,-456.5 601.5,-456.5 595.5,-450.5 595.5,-444.5 595.5,-444.5 595.5,-422.5 595.5,-422.5 595.5,-416.5 601.5,-410.5 607.5,-410.5"/>
<text text-anchor="middle" x="661" y="-441.3" font-family="Helvetica,sans-Serif" font-size="14.00">itrdb</text>
<polyline fill="none" stroke="black" points="595.5,-433.5 726.5,-433.5 "/>
<text text-anchor="middle" x="661" y="-418.3" font-family="Helvetica,sans-Serif" font-size="14.00">file:/data/itrdb.Rda</text>
</g>
<!-- itrdb&#45;&gt;gen_paleocar_model -->
<g id="edge5" class="edge"><title>itrdb&#45;&gt;gen_paleocar_model</title>
<path fill="none" stroke="black" d="M726.656,-410.793C758.391,-400.301 796.667,-387.647 829.695,-376.727"/>
<polygon fill="black" stroke="black" points="830.915,-380.011 839.311,-373.548 828.717,-373.364 830.915,-380.011"/>
</g>
<!-- prediction_years -->
<g id="node15" class="node"><title>prediction_years</title>
<path fill="#fcfcfc" stroke="black" d="M613,-285.5C613,-285.5 515,-285.5 515,-285.5 509,-285.5 503,-279.5 503,-273.5 503,-273.5 503,-261.5 503,-261.5 503,-255.5 509,-249.5 515,-249.5 515,-249.5 613,-249.5 613,-249.5 619,-249.5 625,-255.5 625,-261.5 625,-261.5 625,-273.5 625,-273.5 625,-279.5 619,-285.5 613,-285.5"/>
<text text-anchor="middle" x="564" y="-263.8" font-family="Helvetica,sans-Serif" font-size="14.00">prediction_years</text>
</g>
<!-- prediction_years&#45;&gt;extract_prediction_model -->
<g id="edge11" class="edge"><title>prediction_years&#45;&gt;extract_prediction_model</title>
<path fill="none" stroke="black" d="M532.825,-249.322C513.418,-238.628 488.039,-224.644 465.985,-212.492"/>
<polygon fill="black" stroke="black" points="467.531,-209.347 457.083,-207.587 464.153,-215.478 467.531,-209.347"/>
</g>
<!-- prediction_years&#45;&gt;extract_uncertainty_model -->
<g id="edge15" class="edge"><title>prediction_years&#45;&gt;extract_uncertainty_model</title>
<path fill="none" stroke="black" d="M625.251,-256.81C699.296,-245.096 826.462,-224.978 926.884,-209.091"/>
<polygon fill="black" stroke="black" points="927.494,-212.538 936.824,-207.518 926.4,-205.624 927.494,-212.538"/>
</g>
<!-- user_prediction_years_input_port -->
<g id="node16" class="node"><title>user_prediction_years_input_port</title>
<ellipse fill="#ffffff" stroke="black" cx="970" cy="-504" rx="7" ry="7"/>
</g>
<!-- user_prediction_years_input_port&#45;&gt;user_prediction_years -->
<g id="edge16" class="edge"><title>user_prediction_years_input_port&#45;&gt;user_prediction_years</title>
<path fill="none" stroke="black" d="M977.141,-503.092C1010.78,-503.36 1156.62,-502.669 1271,-473 1286.77,-468.908 1303.34,-462.406 1317.85,-455.902"/>
<polygon fill="black" stroke="black" points="1319.45,-459.021 1327.06,-451.653 1316.51,-452.665 1319.45,-459.021"/>
</g>
<!-- prism_data_for_coordinates_input_port -->
<g id="node17" class="node"><title>prism_data_for_coordinates_input_port</title>
<ellipse fill="#ffffff" stroke="black" cx="938" cy="-504" rx="7" ry="7"/>
</g>
<!-- prism_data_for_coordinates_input_port&#45;&gt;prism_data_for_coordinates -->
<g id="edge17" class="edge"><title>prism_data_for_coordinates_input_port&#45;&gt;prism_data_for_coordinates</title>
<path fill="none" stroke="black" d="M940.669,-497.507C943.369,-492.507 947.997,-485.272 954,-481 965.578,-472.76 978.643,-465.956 992.137,-460.344"/>
<polygon fill="black" stroke="black" points="993.511,-463.564 1001.54,-456.645 990.948,-457.05 993.511,-463.564"/>
</g>
<!-- itrdb_input_port -->
<g id="node18" class="node"><title>itrdb_input_port</title>
<ellipse fill="#ffffff" stroke="black" cx="842" cy="-504" rx="7" ry="7"/>
</g>
<!-- itrdb_input_port&#45;&gt;itrdb -->
<g id="edge18" class="edge"><title>itrdb_input_port&#45;&gt;itrdb</title>
<path fill="none" stroke="black" d="M835.15,-501.558C818.06,-497.856 772.304,-487.292 736,-473 727.299,-469.575 718.269,-465.461 709.617,-461.216"/>
<polygon fill="black" stroke="black" points="710.917,-457.952 700.41,-456.585 707.771,-464.205 710.917,-457.952"/>
</g>
<!-- calibration_year_input_port -->
<g id="node19" class="node"><title>calibration_year_input_port</title>
<ellipse fill="#ffffff" stroke="black" cx="874" cy="-504" rx="7" ry="7"/>
</g>
<!-- calibration_year_input_port&#45;&gt;calibration_year -->
<g id="edge19" class="edge"><title>calibration_year_input_port&#45;&gt;calibration_year</title>
<path fill="none" stroke="black" d="M870.643,-497.661C867.612,-493.028 862.887,-486.258 858,-481 850.581,-473.018 841.84,-465.082 833.536,-458.086"/>
<polygon fill="black" stroke="black" points="835.712,-455.344 825.766,-451.695 831.265,-460.75 835.712,-455.344"/>
</g>
<!-- label_input_port -->
<g id="node20" class="node"><title>label_input_port</title>
<ellipse fill="#ffffff" stroke="black" cx="906" cy="-504" rx="7" ry="7"/>
</g>
<!-- label_input_port&#45;&gt;label -->
<g id="edge20" class="edge"><title>label_input_port&#45;&gt;label</title>
<path fill="none" stroke="black" d="M906,-496.678C906,-488.761 906,-474.681 906,-461.92"/>
<polygon fill="black" stroke="black" points="909.5,-461.675 906,-451.675 902.5,-461.675 909.5,-461.675"/>
</g>
</g>
</svg>
