<?xml version="1.0" encoding="UTF-8" standalone="no"?>
<!DOCTYPE svg PUBLIC "-//W3C//DTD SVG 1.1//EN"
 "http://www.w3.org/Graphics/SVG/1.1/DTD/svg11.dtd">
<!-- Generated by graphviz version 2.38.0 (20140413.2041)
 -->
<!-- Title: Workflow Pages: 1 -->
<svg width="1566pt" height="543pt"
 viewBox="0.00 0.00 1566.43 543.00" xmlns="http://www.w3.org/2000/svg" xmlns:xlink="http://www.w3.org/1999/xlink">
<g id="graph0" class="graph" transform="scale(1 1) rotate(0) translate(4 539)">
<title>Workflow</title>
<polygon fill="white" stroke="none" points="-4,4 -4,-539 1562.43,-539 1562.43,4 -4,4"/>
<g id="clust1" class="cluster"><title>cluster_workflow_box_outer</title>
<polygon fill="none" stroke="black" stroke-width="2" points="8,-62 8,-473 1501,-473 1501,-62 8,-62"/>
</g>
<g id="clust2" class="cluster"><title>cluster_workflow_box_inner</title>
<polygon fill="none" stroke="black" stroke-width="0" points="16,-70 16,-465 1493,-465 1493,-70 16,-70"/>
</g>
<g id="clust3" class="cluster"><title>cluster_input_ports_group_outer</title>
<polygon fill="none" stroke="black" stroke-width="0" points="821,-481 821,-527 1027,-527 1027,-481 821,-481"/>
</g>
<g id="clust4" class="cluster"><title>cluster_input_ports_group_inner</title>
<polygon fill="none" stroke="black" stroke-width="0" points="829,-489 829,-519 1019,-519 1019,-489 829,-489"/>
</g>
<g id="clust5" class="cluster"><title>cluster_output_ports_group_outer</title>
<polygon fill="none" stroke="black" stroke-width="0" points="1021,-8 1021,-54 1227,-54 1227,-8 1021,-8"/>
</g>
<g id="clust6" class="cluster"><title>cluster_output_ports_group_inner</title>
<polygon fill="none" stroke="black" stroke-width="0" points="1029,-16 1029,-46 1219,-46 1219,-16 1029,-16"/>
</g>
<!-- create_paleocar_model -->
<g id="node1" class="node"><title>create_paleocar_model</title>
<polygon fill="#ccffcc" stroke="black" points="720.5,-327.5 720.5,-373.5 1185.5,-373.5 1185.5,-327.5 720.5,-327.5"/>
<text text-anchor="middle" x="953" y="-358.3" font-family="Helvetica,sans-Serif" font-size="14.00">create_paleocar_model</text>
<polyline fill="none" stroke="black" points="720.5,-350.5 1185.5,-350.5 "/>
<text text-anchor="middle" x="953" y="-335.3" font-family="Helvetica,sans-Serif" font-size="14.00">generate paleocar models for predicting the climate for the given years.</text>
</g>
<!-- paleocar_models -->
<g id="node6" class="node"><title>paleocar_models</title>
<path fill="#ffffcc" stroke="black" d="M778.5,-244.5C778.5,-244.5 1083.5,-244.5 1083.5,-244.5 1089.5,-244.5 1095.5,-250.5 1095.5,-256.5 1095.5,-256.5 1095.5,-278.5 1095.5,-278.5 1095.5,-284.5 1089.5,-290.5 1083.5,-290.5 1083.5,-290.5 778.5,-290.5 778.5,-290.5 772.5,-290.5 766.5,-284.5 766.5,-278.5 766.5,-278.5 766.5,-256.5 766.5,-256.5 766.5,-250.5 772.5,-244.5 778.5,-244.5"/>
<text text-anchor="middle" x="931" y="-275.3" font-family="Helvetica,sans-Serif" font-size="14.00">paleocar_models</text>
<polyline fill="none" stroke="black" points="766.5,-267.5 1095.5,-267.5 "/>
<text text-anchor="middle" x="931" y="-252.3" font-family="Helvetica,sans-Serif" font-size="14.00">file:/.output/{session_id}/{run_id}/{label}.model.rds</text>
</g>
<!-- create_paleocar_model&#45;&gt;paleocar_models -->
<g id="edge1" class="edge"><title>create_paleocar_model&#45;&gt;paleocar_models</title>
<path fill="none" stroke="black" d="M946.988,-327.366C944.733,-319.062 942.123,-309.451 939.673,-300.434"/>
<polygon fill="black" stroke="black" points="943.003,-299.34 937.004,-290.607 936.248,-301.175 943.003,-299.34"/>
</g>
<!-- paleocar_log_file -->
<g id="node9" class="node"><title>paleocar_log_file</title>
<path fill="#ffffcc" stroke="black" d="M1125.5,-244.5C1125.5,-244.5 1472.5,-244.5 1472.5,-244.5 1478.5,-244.5 1484.5,-250.5 1484.5,-256.5 1484.5,-256.5 1484.5,-278.5 1484.5,-278.5 1484.5,-284.5 1478.5,-290.5 1472.5,-290.5 1472.5,-290.5 1125.5,-290.5 1125.5,-290.5 1119.5,-290.5 1113.5,-284.5 1113.5,-278.5 1113.5,-278.5 1113.5,-256.5 1113.5,-256.5 1113.5,-250.5 1119.5,-244.5 1125.5,-244.5"/>
<text text-anchor="middle" x="1299" y="-275.3" font-family="Helvetica,sans-Serif" font-size="14.00">paleocar_log_file</text>
<polyline fill="none" stroke="black" points="1113.5,-267.5 1484.5,-267.5 "/>
<text text-anchor="middle" x="1299" y="-252.3" font-family="Helvetica,sans-Serif" font-size="14.00">file:/.output/{session_id}/{run_id}/paleocar_model_log.txt</text>
</g>
<!-- create_paleocar_model&#45;&gt;paleocar_log_file -->
<g id="edge2" class="edge"><title>create_paleocar_model&#45;&gt;paleocar_log_file</title>
<path fill="none" stroke="black" d="M1047.09,-327.473C1092.86,-316.758 1148.01,-303.847 1195.03,-292.841"/>
<polygon fill="black" stroke="black" points="1195.99,-296.21 1204.93,-290.522 1194.4,-289.394 1195.99,-296.21"/>
</g>
<!-- extract_prediction_model -->
<g id="node2" class="node"><title>extract_prediction_model</title>
<polygon fill="#ccffcc" stroke="black" points="763.5,-161.5 763.5,-207.5 1228.5,-207.5 1228.5,-161.5 763.5,-161.5"/>
<text text-anchor="middle" x="996" y="-192.3" font-family="Helvetica,sans-Serif" font-size="14.00">extract_prediction_model</text>
<polyline fill="none" stroke="black" points="763.5,-184.5 1228.5,-184.5 "/>
<text text-anchor="middle" x="996" y="-169.3" font-family="Helvetica,sans-Serif" font-size="14.00">generate paleocar models for predicting the climate for the given years.</text>
</g>
<!-- prediction_graph -->
<g id="node7" class="node"><title>prediction_graph</title>
<path fill="#ffffcc" stroke="black" d="M775.5,-78.5C775.5,-78.5 1102.5,-78.5 1102.5,-78.5 1108.5,-78.5 1114.5,-84.5 1114.5,-90.5 1114.5,-90.5 1114.5,-112.5 1114.5,-112.5 1114.5,-118.5 1108.5,-124.5 1102.5,-124.5 1102.5,-124.5 775.5,-124.5 775.5,-124.5 769.5,-124.5 763.5,-118.5 763.5,-112.5 763.5,-112.5 763.5,-90.5 763.5,-90.5 763.5,-84.5 769.5,-78.5 775.5,-78.5"/>
<text text-anchor="middle" x="939" y="-109.3" font-family="Helvetica,sans-Serif" font-size="14.00">prediction_graph</text>
<polyline fill="none" stroke="black" points="763.5,-101.5 1114.5,-101.5 "/>
<text text-anchor="middle" x="939" y="-86.3" font-family="Helvetica,sans-Serif" font-size="14.00">file:/.output/{session_id}/{run_id}/{label}.prediction.jpg</text>
</g>
<!-- extract_prediction_model&#45;&gt;prediction_graph -->
<g id="edge9" class="edge"><title>extract_prediction_model&#45;&gt;prediction_graph</title>
<path fill="none" stroke="black" d="M980.424,-161.366C974.267,-152.616 967.088,-142.414 960.452,-132.985"/>
<polygon fill="black" stroke="black" points="963.174,-130.771 954.557,-124.607 957.449,-134.799 963.174,-130.771"/>
</g>
<!-- prediction_model -->
<g id="node8" class="node"><title>prediction_model</title>
<path fill="#ffffcc" stroke="black" d="M1145,-78.5C1145,-78.5 1473,-78.5 1473,-78.5 1479,-78.5 1485,-84.5 1485,-90.5 1485,-90.5 1485,-112.5 1485,-112.5 1485,-118.5 1479,-124.5 1473,-124.5 1473,-124.5 1145,-124.5 1145,-124.5 1139,-124.5 1133,-118.5 1133,-112.5 1133,-112.5 1133,-90.5 1133,-90.5 1133,-84.5 1139,-78.5 1145,-78.5"/>
<text text-anchor="middle" x="1309" y="-109.3" font-family="Helvetica,sans-Serif" font-size="14.00">prediction_model</text>
<polyline fill="none" stroke="black" points="1133,-101.5 1485,-101.5 "/>
<text text-anchor="middle" x="1309" y="-86.3" font-family="Helvetica,sans-Serif" font-size="14.00">file:/.output/{session_id}/{run_id}/{label}.prediction.rds</text>
</g>
<!-- extract_prediction_model&#45;&gt;prediction_model -->
<g id="edge10" class="edge"><title>extract_prediction_model&#45;&gt;prediction_model</title>
<path fill="none" stroke="black" d="M1081.12,-161.473C1122.26,-150.825 1171.79,-138.009 1214.14,-127.048"/>
<polygon fill="black" stroke="black" points="1215.1,-130.416 1223.9,-124.522 1213.34,-123.639 1215.1,-130.416"/>
</g>
<!-- extract_uncertainty_model -->
<g id="node3" class="node"><title>extract_uncertainty_model</title>
<polygon fill="#ccffcc" stroke="black" points="280.5,-161.5 280.5,-207.5 745.5,-207.5 745.5,-161.5 280.5,-161.5"/>
<text text-anchor="middle" x="513" y="-192.3" font-family="Helvetica,sans-Serif" font-size="14.00">extract_uncertainty_model</text>
<polyline fill="none" stroke="black" points="280.5,-184.5 745.5,-184.5 "/>
<text text-anchor="middle" x="513" y="-169.3" font-family="Helvetica,sans-Serif" font-size="14.00">generate paleocar models for predicting the climate for the given years.</text>
</g>
<!-- uncertainty_model -->
<g id="node10" class="node"><title>uncertainty_model</title>
<path fill="#ffffcc" stroke="black" d="M36,-78.5C36,-78.5 364,-78.5 364,-78.5 370,-78.5 376,-84.5 376,-90.5 376,-90.5 376,-112.5 376,-112.5 376,-118.5 370,-124.5 364,-124.5 364,-124.5 36,-124.5 36,-124.5 30,-124.5 24,-118.5 24,-112.5 24,-112.5 24,-90.5 24,-90.5 24,-84.5 30,-78.5 36,-78.5"/>
<text text-anchor="middle" x="200" y="-109.3" font-family="Helvetica,sans-Serif" font-size="14.00">uncertainty_model</text>
<polyline fill="none" stroke="black" points="24,-101.5 376,-101.5 "/>
<text text-anchor="middle" x="200" y="-86.3" font-family="Helvetica,sans-Serif" font-size="14.00">file:/.output/{session_id}/{run_id}/{label}.prediction.rds</text>
</g>
<!-- extract_uncertainty_model&#45;&gt;uncertainty_model -->
<g id="edge14" class="edge"><title>extract_uncertainty_model&#45;&gt;uncertainty_model</title>
<path fill="none" stroke="black" d="M427.885,-161.473C386.738,-150.825 337.214,-138.009 294.858,-127.048"/>
<polygon fill="black" stroke="black" points="295.656,-123.639 285.098,-124.522 293.902,-130.416 295.656,-123.639"/>
</g>
<!-- uncertainty_graph -->
<g id="node11" class="node"><title>uncertainty_graph</title>
<path fill="#ffffcc" stroke="black" d="M406.5,-78.5C406.5,-78.5 733.5,-78.5 733.5,-78.5 739.5,-78.5 745.5,-84.5 745.5,-90.5 745.5,-90.5 745.5,-112.5 745.5,-112.5 745.5,-118.5 739.5,-124.5 733.5,-124.5 733.5,-124.5 406.5,-124.5 406.5,-124.5 400.5,-124.5 394.5,-118.5 394.5,-112.5 394.5,-112.5 394.5,-90.5 394.5,-90.5 394.5,-84.5 400.5,-78.5 406.5,-78.5"/>
<text text-anchor="middle" x="570" y="-109.3" font-family="Helvetica,sans-Serif" font-size="14.00">uncertainty_graph</text>
<polyline fill="none" stroke="black" points="394.5,-101.5 745.5,-101.5 "/>
<text text-anchor="middle" x="570" y="-86.3" font-family="Helvetica,sans-Serif" font-size="14.00">file:/.output/{session_id}/{run_id}/{label}.prediction.jpg</text>
</g>
<!-- extract_uncertainty_model&#45;&gt;uncertainty_graph -->
<g id="edge13" class="edge"><title>extract_uncertainty_model&#45;&gt;uncertainty_graph</title>
<path fill="none" stroke="black" d="M528.576,-161.366C534.733,-152.616 541.912,-142.414 548.548,-132.985"/>
<polygon fill="black" stroke="black" points="551.551,-134.799 554.443,-124.607 545.826,-130.771 551.551,-134.799"/>
</g>
<!-- prediction_years -->
<g id="node4" class="node"><title>prediction_years</title>
<path fill="#ffffcc" stroke="black" d="M658,-451.5C658,-451.5 560,-451.5 560,-451.5 554,-451.5 548,-445.5 548,-439.5 548,-439.5 548,-427.5 548,-427.5 548,-421.5 554,-415.5 560,-415.5 560,-415.5 658,-415.5 658,-415.5 664,-415.5 670,-421.5 670,-427.5 670,-427.5 670,-439.5 670,-439.5 670,-445.5 664,-451.5 658,-451.5"/>
<text text-anchor="middle" x="609" y="-429.8" font-family="Helvetica,sans-Serif" font-size="14.00">prediction_years</text>
</g>
<!-- prediction_years&#45;&gt;create_paleocar_model -->
<g id="edge7" class="edge"><title>prediction_years&#45;&gt;create_paleocar_model</title>
<path fill="none" stroke="black" d="M660.053,-415.435C666.405,-413.506 672.833,-411.645 679,-410 727.046,-397.184 780.412,-385.275 827.189,-375.592"/>
<polygon fill="black" stroke="black" points="827.977,-379.004 837.066,-373.561 826.566,-372.147 827.977,-379.004"/>
</g>
<!-- prediction_years&#45;&gt;extract_prediction_model -->
<g id="edge11" class="edge"><title>prediction_years&#45;&gt;extract_prediction_model</title>
<path fill="none" stroke="black" d="M617.394,-415.299C636.579,-377.882 687.409,-288.863 757,-244 779.464,-229.518 805.223,-218.621 831.325,-210.421"/>
<polygon fill="black" stroke="black" points="832.387,-213.757 840.952,-207.521 830.367,-207.054 832.387,-213.757"/>
</g>
<!-- prediction_years&#45;&gt;extract_uncertainty_model -->
<g id="edge15" class="edge"><title>prediction_years&#45;&gt;extract_uncertainty_model</title>
<path fill="none" stroke="black" d="M602.249,-415.131C586.252,-373.97 545.841,-269.998 525.339,-217.247"/>
<polygon fill="black" stroke="black" points="528.52,-215.769 521.635,-207.716 521.995,-218.305 528.52,-215.769"/>
</g>
<!-- prism_data_for_coordinates -->
<g id="node5" class="node"><title>prism_data_for_coordinates</title>
<path fill="#ffffcc" stroke="black" d="M1161,-410.5C1161,-410.5 1451,-410.5 1451,-410.5 1457,-410.5 1463,-416.5 1463,-422.5 1463,-422.5 1463,-444.5 1463,-444.5 1463,-450.5 1457,-456.5 1451,-456.5 1451,-456.5 1161,-456.5 1161,-456.5 1155,-456.5 1149,-450.5 1149,-444.5 1149,-444.5 1149,-422.5 1149,-422.5 1149,-416.5 1155,-410.5 1161,-410.5"/>
<text text-anchor="middle" x="1306" y="-441.3" font-family="Helvetica,sans-Serif" font-size="14.00">prism_data_for_coordinates</text>
<polyline fill="none" stroke="black" points="1149,-433.5 1463,-433.5 "/>
<text text-anchor="middle" x="1306" y="-418.3" font-family="Helvetica,sans-Serif" font-size="14.00">file:/.output/{session_id}/{run_id}/112W36N.csv</text>
</g>
<!-- prism_data_for_coordinates&#45;&gt;create_paleocar_model -->
<g id="edge8" class="edge"><title>prism_data_for_coordinates&#45;&gt;create_paleocar_model</title>
<path fill="none" stroke="black" d="M1210.01,-410.473C1163.21,-399.736 1106.81,-386.793 1058.78,-375.771"/>
<polygon fill="black" stroke="black" points="1059.5,-372.347 1048.97,-373.522 1057.94,-379.17 1059.5,-372.347"/>
</g>
<!-- paleocar_models&#45;&gt;extract_prediction_model -->
<g id="edge12" class="edge"><title>paleocar_models&#45;&gt;extract_prediction_model</title>
<path fill="none" stroke="black" d="M948.762,-244.366C955.927,-235.437 964.305,-224.997 971.999,-215.409"/>
<polygon fill="black" stroke="black" points="974.731,-217.597 978.26,-207.607 969.271,-213.216 974.731,-217.597"/>
</g>
<!-- paleocar_models&#45;&gt;extract_uncertainty_model -->
<g id="edge16" class="edge"><title>paleocar_models&#45;&gt;extract_uncertainty_model</title>
<path fill="none" stroke="black" d="M817.332,-244.473C761.341,-233.624 693.733,-220.522 636.475,-209.427"/>
<polygon fill="black" stroke="black" points="637.129,-205.989 626.646,-207.522 635.797,-212.861 637.129,-205.989"/>
</g>
<!-- paleocar_models_output_port -->
<g id="node27" class="node"><title>paleocar_models_output_port</title>
<ellipse fill="#ffffff" stroke="black" cx="1172" cy="-31" rx="7" ry="7"/>
</g>
<!-- paleocar_models&#45;&gt;paleocar_models_output_port -->
<g id="edge28" class="edge"><title>paleocar_models&#45;&gt;paleocar_models_output_port</title>
<path fill="none" stroke="black" d="M1066.3,-244.491C1120.08,-234.764 1182.29,-222.28 1238,-208 1353.86,-178.303 1423.67,-221.743 1494,-125 1510.47,-102.353 1513.54,-82.056 1494,-62 1482.13,-49.819 1203.05,-61.9142 1188,-54 1184.74,-52.2856 1181.98,-49.5736 1179.72,-46.631"/>
<polygon fill="black" stroke="black" points="1182.6,-44.6276 1174.43,-37.8787 1176.61,-48.2477 1182.6,-44.6276"/>
</g>
<!-- prediction_graph_output_port -->
<g id="node22" class="node"><title>prediction_graph_output_port</title>
<ellipse fill="#ffffff" stroke="black" cx="1108" cy="-31" rx="7" ry="7"/>
</g>
<!-- prediction_graph&#45;&gt;prediction_graph_output_port -->
<g id="edge23" class="edge"><title>prediction_graph&#45;&gt;prediction_graph_output_port</title>
<path fill="none" stroke="black" d="M1044.46,-78.3547C1061.25,-72.1075 1077.75,-64.1414 1092,-54 1095,-51.864 1097.66,-48.9873 1099.9,-46.0195"/>
<polygon fill="black" stroke="black" points="1102.91,-47.8082 1105.33,-37.4927 1097.01,-44.0497 1102.91,-47.8082"/>
</g>
<!-- prediction_model_output_port -->
<g id="node23" class="node"><title>prediction_model_output_port</title>
<ellipse fill="#ffffff" stroke="black" cx="1140" cy="-31" rx="7" ry="7"/>
</g>
<!-- prediction_model&#45;&gt;prediction_model_output_port -->
<g id="edge24" class="edge"><title>prediction_model&#45;&gt;prediction_model_output_port</title>
<path fill="none" stroke="black" d="M1203.54,-78.3547C1186.75,-72.1075 1170.25,-64.1414 1156,-54 1153,-51.864 1150.34,-48.9873 1148.1,-46.0195"/>
<polygon fill="black" stroke="black" points="1150.99,-44.0497 1142.67,-37.4927 1145.09,-47.8082 1150.99,-44.0497"/>
</g>
<!-- paleocar_log_file_output_port -->
<g id="node24" class="node"><title>paleocar_log_file_output_port</title>
<ellipse fill="#ffffff" stroke="black" cx="1204" cy="-31" rx="7" ry="7"/>
</g>
<!-- paleocar_log_file&#45;&gt;paleocar_log_file_output_port -->
<g id="edge25" class="edge"><title>paleocar_log_file&#45;&gt;paleocar_log_file_output_port</title>
<path fill="none" stroke="black" d="M1441.69,-244.459C1480.45,-235.41 1515.07,-223.377 1527,-208 1566.78,-156.731 1570.71,-109.958 1527,-62 1506.28,-39.2713 1285.78,-33.4883 1221.5,-32.2802"/>
<polygon fill="black" stroke="black" points="1221.17,-28.7741 1211.11,-32.1004 1221.05,-35.7731 1221.17,-28.7741"/>
</g>
<!-- uncertainty_model_output_port -->
<g id="node25" class="node"><title>uncertainty_model_output_port</title>
<ellipse fill="#ffffff" stroke="black" cx="1044" cy="-31" rx="7" ry="7"/>
</g>
<!-- uncertainty_model&#45;&gt;uncertainty_model_output_port -->
<g id="edge26" class="edge"><title>uncertainty_model&#45;&gt;uncertainty_model_output_port</title>
<path fill="none" stroke="black" d="M291.26,-78.4925C320.982,-72.136 354.241,-65.8755 385,-62 638.47,-30.0637 950.566,-31.0053 1026.67,-31.7761"/>
<polygon fill="black" stroke="black" points="1026.77,-35.2774 1036.81,-31.8933 1026.86,-28.2779 1026.77,-35.2774"/>
</g>
<!-- uncertainty_graph_output_port -->
<g id="node26" class="node"><title>uncertainty_graph_output_port</title>
<ellipse fill="#ffffff" stroke="black" cx="1076" cy="-31" rx="7" ry="7"/>
</g>
<!-- uncertainty_graph&#45;&gt;uncertainty_graph_output_port -->
<g id="edge27" class="edge"><title>uncertainty_graph&#45;&gt;uncertainty_graph_output_port</title>
<path fill="none" stroke="black" d="M659.313,-78.4384C689.226,-71.9546 722.881,-65.6325 754,-62 770.891,-60.0284 1044.95,-61.9142 1060,-54 1063.26,-52.2856 1066.02,-49.5736 1068.28,-46.631"/>
<polygon fill="black" stroke="black" points="1071.39,-48.2477 1073.57,-37.8787 1065.4,-44.6276 1071.39,-48.2477"/>
</g>
<!-- label -->
<g id="node12" class="node"><title>label</title>
<path fill="#fcfcfc" stroke="black" d="M1119,-451.5C1119,-451.5 1089,-451.5 1089,-451.5 1083,-451.5 1077,-445.5 1077,-439.5 1077,-439.5 1077,-427.5 1077,-427.5 1077,-421.5 1083,-415.5 1089,-415.5 1089,-415.5 1119,-415.5 1119,-415.5 1125,-415.5 1131,-421.5 1131,-427.5 1131,-427.5 1131,-439.5 1131,-439.5 1131,-445.5 1125,-451.5 1119,-451.5"/>
<text text-anchor="middle" x="1104" y="-429.8" font-family="Helvetica,sans-Serif" font-size="14.00">label</text>
</g>
<!-- label&#45;&gt;create_paleocar_model -->
<g id="edge3" class="edge"><title>label&#45;&gt;create_paleocar_model</title>
<path fill="none" stroke="black" d="M1077.03,-415.287C1074,-413.464 1070.95,-411.669 1068,-410 1048.56,-399.007 1026.81,-387.703 1007.51,-377.998"/>
<polygon fill="black" stroke="black" points="1009.05,-374.855 998.545,-373.514 1005.92,-381.117 1009.05,-374.855"/>
</g>
<!-- calibration_years -->
<g id="node13" class="node"><title>calibration_years</title>
<path fill="#fcfcfc" stroke="black" d="M1046.5,-451.5C1046.5,-451.5 947.5,-451.5 947.5,-451.5 941.5,-451.5 935.5,-445.5 935.5,-439.5 935.5,-439.5 935.5,-427.5 935.5,-427.5 935.5,-421.5 941.5,-415.5 947.5,-415.5 947.5,-415.5 1046.5,-415.5 1046.5,-415.5 1052.5,-415.5 1058.5,-421.5 1058.5,-427.5 1058.5,-427.5 1058.5,-439.5 1058.5,-439.5 1058.5,-445.5 1052.5,-451.5 1046.5,-451.5"/>
<text text-anchor="middle" x="997" y="-429.8" font-family="Helvetica,sans-Serif" font-size="14.00">calibration_years</text>
</g>
<!-- calibration_years&#45;&gt;create_paleocar_model -->
<g id="edge4" class="edge"><title>calibration_years&#45;&gt;create_paleocar_model</title>
<path fill="none" stroke="black" d="M987.669,-415.322C982.505,-405.816 975.929,-393.711 969.896,-382.603"/>
<polygon fill="black" stroke="black" points="972.847,-380.703 964.998,-373.587 966.696,-384.045 972.847,-380.703"/>
</g>
<!-- itrdb -->
<g id="node14" class="node"><title>itrdb</title>
<path fill="#fcfcfc" stroke="black" d="M798.5,-410.5C798.5,-410.5 905.5,-410.5 905.5,-410.5 911.5,-410.5 917.5,-416.5 917.5,-422.5 917.5,-422.5 917.5,-444.5 917.5,-444.5 917.5,-450.5 911.5,-456.5 905.5,-456.5 905.5,-456.5 798.5,-456.5 798.5,-456.5 792.5,-456.5 786.5,-450.5 786.5,-444.5 786.5,-444.5 786.5,-422.5 786.5,-422.5 786.5,-416.5 792.5,-410.5 798.5,-410.5"/>
<text text-anchor="middle" x="852" y="-441.3" font-family="Helvetica,sans-Serif" font-size="14.00">itrdb</text>
<polyline fill="none" stroke="black" points="786.5,-433.5 917.5,-433.5 "/>
<text text-anchor="middle" x="852" y="-418.3" font-family="Helvetica,sans-Serif" font-size="14.00">file:/data/itrdb.Rda</text>
</g>
<!-- itrdb&#45;&gt;create_paleocar_model -->
<g id="edge5" class="edge"><title>itrdb&#45;&gt;create_paleocar_model</title>
<path fill="none" stroke="black" d="M879.599,-410.366C891.289,-400.991 905.057,-389.949 917.491,-379.977"/>
<polygon fill="black" stroke="black" points="919.823,-382.594 925.435,-373.607 915.444,-377.133 919.823,-382.594"/>
</g>
<!-- min_width -->
<g id="node15" class="node"><title>min_width</title>
<path fill="#fcfcfc" stroke="black" d="M756,-451.5C756,-451.5 700,-451.5 700,-451.5 694,-451.5 688,-445.5 688,-439.5 688,-439.5 688,-427.5 688,-427.5 688,-421.5 694,-415.5 700,-415.5 700,-415.5 756,-415.5 756,-415.5 762,-415.5 768,-421.5 768,-427.5 768,-427.5 768,-439.5 768,-439.5 768,-445.5 762,-451.5 756,-451.5"/>
<text text-anchor="middle" x="728" y="-429.8" font-family="Helvetica,sans-Serif" font-size="14.00">min_width</text>
</g>
<!-- min_width&#45;&gt;create_paleocar_model -->
<g id="edge6" class="edge"><title>min_width&#45;&gt;create_paleocar_model</title>
<path fill="none" stroke="black" d="M763.932,-415.458C768.304,-413.546 772.733,-411.683 777,-410 807.407,-398.007 841.374,-386.327 871.295,-376.597"/>
<polygon fill="black" stroke="black" points="872.418,-379.912 880.859,-373.509 870.267,-373.251 872.418,-379.912"/>
</g>
<!-- prediction_years_input_port -->
<g id="node16" class="node"><title>prediction_years_input_port</title>
<ellipse fill="#ffffff" stroke="black" cx="844" cy="-504" rx="7" ry="7"/>
</g>
<!-- prediction_years_input_port&#45;&gt;prediction_years -->
<g id="edge17" class="edge"><title>prediction_years_input_port&#45;&gt;prediction_years</title>
<path fill="none" stroke="black" d="M836.875,-502.527C813.566,-500.808 737.712,-493.858 679,-473 667.156,-468.792 654.925,-462.739 644.066,-456.674"/>
<polygon fill="black" stroke="black" points="645.716,-453.585 635.305,-451.617 642.216,-459.647 645.716,-453.585"/>
</g>
<!-- prism_data_for_coordinates_input_port -->
<g id="node17" class="node"><title>prism_data_for_coordinates_input_port</title>
<ellipse fill="#ffffff" stroke="black" cx="1004" cy="-504" rx="7" ry="7"/>
</g>
<!-- prism_data_for_coordinates_input_port&#45;&gt;prism_data_for_coordinates -->
<g id="edge18" class="edge"><title>prism_data_for_coordinates_input_port&#45;&gt;prism_data_for_coordinates</title>
<path fill="none" stroke="black" d="M1010.8,-501.528C1030.69,-497.214 1090.48,-484.205 1140,-473 1159.96,-468.484 1181.26,-463.597 1201.71,-458.869"/>
<polygon fill="black" stroke="black" points="1202.72,-462.228 1211.67,-456.564 1201.14,-455.409 1202.72,-462.228"/>
</g>
<!-- itrdb_input_port -->
<g id="node18" class="node"><title>itrdb_input_port</title>
<ellipse fill="#ffffff" stroke="black" cx="908" cy="-504" rx="7" ry="7"/>
</g>
<!-- itrdb_input_port&#45;&gt;itrdb -->
<g id="edge19" class="edge"><title>itrdb_input_port&#45;&gt;itrdb</title>
<path fill="none" stroke="black" d="M904.43,-497.844C901.261,-493.329 896.456,-486.629 892,-481 887.737,-475.615 883.083,-469.991 878.505,-464.591"/>
<polygon fill="black" stroke="black" points="881.073,-462.209 871.908,-456.894 875.758,-466.765 881.073,-462.209"/>
</g>
<!-- calibration_years_input_port -->
<g id="node19" class="node"><title>calibration_years_input_port</title>
<ellipse fill="#ffffff" stroke="black" cx="940" cy="-504" rx="7" ry="7"/>
</g>
<!-- calibration_years_input_port&#45;&gt;calibration_years -->
<g id="edge20" class="edge"><title>calibration_years_input_port&#45;&gt;calibration_years</title>
<path fill="none" stroke="black" d="M943.553,-497.831C946.711,-493.307 951.51,-486.601 956,-481 961.709,-473.878 968.136,-466.371 974.177,-459.516"/>
<polygon fill="black" stroke="black" points="976.987,-461.624 981.027,-451.83 971.761,-456.967 976.987,-461.624"/>
</g>
<!-- label_input_port -->
<g id="node20" class="node"><title>label_input_port</title>
<ellipse fill="#ffffff" stroke="black" cx="972" cy="-504" rx="7" ry="7"/>
</g>
<!-- label_input_port&#45;&gt;label -->
<g id="edge21" class="edge"><title>label_input_port&#45;&gt;label</title>
<path fill="none" stroke="black" d="M974.491,-497.23C977.066,-492.034 981.609,-484.666 988,-481 1018.99,-463.219 1035.97,-488.841 1068,-473 1074.5,-469.784 1080.43,-464.867 1085.52,-459.612"/>
<polygon fill="black" stroke="black" points="1088.38,-461.657 1092.33,-451.828 1083.11,-457.045 1088.38,-461.657"/>
</g>
<!-- min_width_input_port -->
<g id="node21" class="node"><title>min_width_input_port</title>
<ellipse fill="#ffffff" stroke="black" cx="876" cy="-504" rx="7" ry="7"/>
</g>
<!-- min_width_input_port&#45;&gt;min_width -->
<g id="edge22" class="edge"><title>min_width_input_port&#45;&gt;min_width</title>
<path fill="none" stroke="black" d="M873.511,-497.225C870.939,-492.025 866.397,-484.655 860,-481 827.821,-462.616 811.402,-486.782 777,-473 768.482,-469.588 760.23,-464.211 753.003,-458.545"/>
<polygon fill="black" stroke="black" points="754.946,-455.607 745.034,-451.863 750.447,-460.97 754.946,-455.607"/>
</g>
</g>
</svg>
