<?xml version="1.0" encoding="UTF-8" standalone="no"?>
<!DOCTYPE svg PUBLIC "-//W3C//DTD SVG 1.1//EN"
 "http://www.w3.org/Graphics/SVG/1.1/DTD/svg11.dtd">
<!-- Generated by graphviz version 2.38.0 (20140413.2041)
 -->
<!-- Title: Workflow Pages: 1 -->
<svg width="262pt" height="660pt"
 viewBox="0.00 0.00 262.00 660.00" xmlns="http://www.w3.org/2000/svg" xmlns:xlink="http://www.w3.org/1999/xlink">
<g id="graph0" class="graph" transform="scale(1 1) rotate(0) translate(4 656)">
<title>Workflow</title>
<polygon fill="white" stroke="none" points="-4,4 -4,-656 258,-656 258,4 -4,4"/>
<text text-anchor="middle" x="127" y="-633.6" font-family="Helvetica,sans-Serif" font-size="18.00">calculate_Models</text>
<g id="clust1" class="cluster"><title>cluster_workflow_box_outer</title>
<polygon fill="none" stroke="black" stroke-width="2" points="8,-62 8,-562 246,-562 246,-62 8,-62"/>
</g>
<g id="clust2" class="cluster"><title>cluster_workflow_box_inner</title>
<polygon fill="none" stroke="black" stroke-width="0" points="16,-70 16,-554 238,-554 238,-70 16,-70"/>
</g>
<g id="clust5" class="cluster"><title>cluster_output_ports_group_outer</title>
<polygon fill="none" stroke="black" stroke-width="0" points="104,-8 104,-54 150,-54 150,-8 104,-8"/>
</g>
<g id="clust6" class="cluster"><title>cluster_output_ports_group_inner</title>
<polygon fill="none" stroke="black" stroke-width="0" points="112,-16 112,-46 142,-46 142,-16 112,-16"/>
</g>
<g id="clust3" class="cluster"><title>cluster_input_ports_group_outer</title>
<polygon fill="none" stroke="black" stroke-width="0" points="85,-570 85,-616 163,-616 163,-570 85,-570"/>
</g>
<g id="clust4" class="cluster"><title>cluster_input_ports_group_inner</title>
<polygon fill="none" stroke="black" stroke-width="0" points="93,-578 93,-608 155,-608 155,-578 93,-578"/>
</g>
<!-- defineLinearModels -->
<g id="node1" class="node"><title>defineLinearModels</title>
<polygon fill="#ccffcc" stroke="black" points="189,-474 47,-474 47,-438 189,-438 189,-474"/>
<text text-anchor="middle" x="118" y="-452.3" font-family="Helvetica,sans-Serif" font-size="14.00">defineLinearModels</text>
</g>
<!-- models -->
<g id="node7" class="node"><title>models</title>
<path fill="#ffffcc" stroke="black" d="M99,-402C99,-402 59,-402 59,-402 53,-402 47,-396 47,-390 47,-390 47,-378 47,-378 47,-372 53,-366 59,-366 59,-366 99,-366 99,-366 105,-366 111,-372 111,-378 111,-378 111,-390 111,-390 111,-396 105,-402 99,-402"/>
<text text-anchor="middle" x="79" y="-380.3" font-family="Helvetica,sans-Serif" font-size="14.00">models</text>
</g>
<!-- defineLinearModels&#45;&gt;models -->
<g id="edge1" class="edge"><title>defineLinearModels&#45;&gt;models</title>
<path fill="none" stroke="black" d="M108.36,-437.697C103.873,-429.644 98.4412,-419.894 93.4759,-410.982"/>
<polygon fill="black" stroke="black" points="96.4541,-409.137 88.5296,-402.104 90.3391,-412.544 96.4541,-409.137"/>
</g>
<!-- matches -->
<g id="node8" class="node"><title>matches</title>
<path fill="#ffffcc" stroke="black" d="M188.5,-402C188.5,-402 141.5,-402 141.5,-402 135.5,-402 129.5,-396 129.5,-390 129.5,-390 129.5,-378 129.5,-378 129.5,-372 135.5,-366 141.5,-366 141.5,-366 188.5,-366 188.5,-366 194.5,-366 200.5,-372 200.5,-378 200.5,-378 200.5,-390 200.5,-390 200.5,-396 194.5,-402 188.5,-402"/>
<text text-anchor="middle" x="165" y="-380.3" font-family="Helvetica,sans-Serif" font-size="14.00">matches</text>
</g>
<!-- defineLinearModels&#45;&gt;matches -->
<g id="edge2" class="edge"><title>defineLinearModels&#45;&gt;matches</title>
<path fill="none" stroke="black" d="M129.618,-437.697C135.139,-429.474 141.847,-419.483 147.932,-410.421"/>
<polygon fill="black" stroke="black" points="150.847,-412.358 153.516,-402.104 145.035,-408.456 150.847,-412.358"/>
</g>
<!-- calculateLinearModels -->
<g id="node2" class="node"><title>calculateLinearModels</title>
<polygon fill="#ccffcc" stroke="black" points="206,-330 48,-330 48,-294 206,-294 206,-330"/>
<text text-anchor="middle" x="127" y="-308.3" font-family="Helvetica,sans-Serif" font-size="14.00">calculateLinearModels</text>
</g>
<!-- coefficients -->
<g id="node9" class="node"><title>coefficients</title>
<path fill="#ffffcc" stroke="black" d="M102,-258C102,-258 36,-258 36,-258 30,-258 24,-252 24,-246 24,-246 24,-234 24,-234 24,-228 30,-222 36,-222 36,-222 102,-222 102,-222 108,-222 114,-228 114,-234 114,-234 114,-246 114,-246 114,-252 108,-258 102,-258"/>
<text text-anchor="middle" x="69" y="-236.3" font-family="Helvetica,sans-Serif" font-size="14.00">coefficients</text>
</g>
<!-- calculateLinearModels&#45;&gt;coefficients -->
<g id="edge5" class="edge"><title>calculateLinearModels&#45;&gt;coefficients</title>
<path fill="none" stroke="black" d="M112.663,-293.697C105.709,-285.305 97.2298,-275.07 89.5994,-265.861"/>
<polygon fill="black" stroke="black" points="92.2475,-263.571 83.1722,-258.104 86.8573,-268.038 92.2475,-263.571"/>
</g>
<!-- model.errors -->
<g id="node10" class="node"><title>model.errors</title>
<path fill="#ffffcc" stroke="black" d="M218,-258C218,-258 144,-258 144,-258 138,-258 132,-252 132,-246 132,-246 132,-234 132,-234 132,-228 138,-222 144,-222 144,-222 218,-222 218,-222 224,-222 230,-228 230,-234 230,-234 230,-246 230,-246 230,-252 224,-258 218,-258"/>
<text text-anchor="middle" x="181" y="-236.3" font-family="Helvetica,sans-Serif" font-size="14.00">model.errors</text>
</g>
<!-- calculateLinearModels&#45;&gt;model.errors -->
<g id="edge6" class="edge"><title>calculateLinearModels&#45;&gt;model.errors</title>
<path fill="none" stroke="black" d="M140.348,-293.697C146.757,-285.389 154.558,-275.277 161.606,-266.141"/>
<polygon fill="black" stroke="black" points="164.468,-268.16 167.805,-258.104 158.926,-263.884 164.468,-268.16"/>
</g>
<!-- simplifyLinearModels -->
<g id="node3" class="node"><title>simplifyLinearModels</title>
<polygon fill="#ccffcc" stroke="black" points="202,-186 52,-186 52,-150 202,-150 202,-186"/>
<text text-anchor="middle" x="127" y="-164.3" font-family="Helvetica,sans-Serif" font-size="14.00">simplifyLinearModels</text>
</g>
<!-- linear.models -->
<g id="node4" class="node"><title>linear.models</title>
<path fill="#ffffcc" stroke="black" d="M165.5,-114C165.5,-114 88.5,-114 88.5,-114 82.5,-114 76.5,-108 76.5,-102 76.5,-102 76.5,-90 76.5,-90 76.5,-84 82.5,-78 88.5,-78 88.5,-78 165.5,-78 165.5,-78 171.5,-78 177.5,-84 177.5,-90 177.5,-90 177.5,-102 177.5,-102 177.5,-108 171.5,-114 165.5,-114"/>
<text text-anchor="middle" x="127" y="-92.3" font-family="Helvetica,sans-Serif" font-size="14.00">linear.models</text>
</g>
<!-- simplifyLinearModels&#45;&gt;linear.models -->
<g id="edge9" class="edge"><title>simplifyLinearModels&#45;&gt;linear.models</title>
<path fill="none" stroke="black" d="M127,-149.697C127,-141.983 127,-132.712 127,-124.112"/>
<polygon fill="black" stroke="black" points="130.5,-124.104 127,-114.104 123.5,-124.104 130.5,-124.104"/>
</g>
<!-- linear.models_output_port -->
<g id="node13" class="node"><title>linear.models_output_port</title>
<ellipse fill="#ffffff" stroke="black" cx="127" cy="-31" rx="7" ry="7"/>
</g>
<!-- linear.models&#45;&gt;linear.models_output_port -->
<g id="edge14" class="edge"><title>linear.models&#45;&gt;linear.models_output_port</title>
<path fill="none" stroke="black" d="M127,-77.785C127,-68.6656 127,-57.5197 127,-48.5085"/>
<polygon fill="black" stroke="black" points="130.5,-48.242 127,-38.242 123.5,-48.2421 130.5,-48.242"/>
</g>
<!-- predlist -->
<g id="node5" class="node"><title>predlist</title>
<path fill="#ffffcc" stroke="black" d="M188.5,-546C188.5,-546 149.5,-546 149.5,-546 143.5,-546 137.5,-540 137.5,-534 137.5,-534 137.5,-522 137.5,-522 137.5,-516 143.5,-510 149.5,-510 149.5,-510 188.5,-510 188.5,-510 194.5,-510 200.5,-516 200.5,-522 200.5,-522 200.5,-534 200.5,-534 200.5,-540 194.5,-546 188.5,-546"/>
<text text-anchor="middle" x="169" y="-524.3" font-family="Helvetica,sans-Serif" font-size="14.00">predlist</text>
</g>
<!-- predlist&#45;&gt;defineLinearModels -->
<g id="edge3" class="edge"><title>predlist&#45;&gt;defineLinearModels</title>
<path fill="none" stroke="black" d="M156.393,-509.697C150.403,-501.474 143.124,-491.483 136.521,-482.421"/>
<polygon fill="black" stroke="black" points="139.179,-480.126 130.462,-474.104 133.522,-484.248 139.179,-480.126"/>
</g>
<!-- carscores -->
<g id="node6" class="node"><title>carscores</title>
<path fill="#ffffcc" stroke="black" d="M107,-546C107,-546 51,-546 51,-546 45,-546 39,-540 39,-534 39,-534 39,-522 39,-522 39,-516 45,-510 51,-510 51,-510 107,-510 107,-510 113,-510 119,-516 119,-522 119,-522 119,-534 119,-534 119,-540 113,-546 107,-546"/>
<text text-anchor="middle" x="79" y="-524.3" font-family="Helvetica,sans-Serif" font-size="14.00">carscores</text>
</g>
<!-- carscores&#45;&gt;defineLinearModels -->
<g id="edge4" class="edge"><title>carscores&#45;&gt;defineLinearModels</title>
<path fill="none" stroke="black" d="M88.6405,-509.697C93.1271,-501.644 98.5588,-491.894 103.524,-482.982"/>
<polygon fill="black" stroke="black" points="106.661,-484.544 108.47,-474.104 100.546,-481.137 106.661,-484.544"/>
</g>
<!-- models&#45;&gt;calculateLinearModels -->
<g id="edge7" class="edge"><title>models&#45;&gt;calculateLinearModels</title>
<path fill="none" stroke="black" d="M90.8652,-365.697C96.5035,-357.474 103.354,-347.483 109.569,-338.421"/>
<polygon fill="black" stroke="black" points="112.503,-340.331 115.271,-330.104 106.729,-336.372 112.503,-340.331"/>
</g>
<!-- matches&#45;&gt;calculateLinearModels -->
<g id="edge8" class="edge"><title>matches&#45;&gt;calculateLinearModels</title>
<path fill="none" stroke="black" d="M155.607,-365.697C151.235,-357.644 145.943,-347.894 141.105,-338.982"/>
<polygon fill="black" stroke="black" points="144.132,-337.223 136.285,-330.104 137.98,-340.563 144.132,-337.223"/>
</g>
<!-- coefficients&#45;&gt;simplifyLinearModels -->
<g id="edge10" class="edge"><title>coefficients&#45;&gt;simplifyLinearModels</title>
<path fill="none" stroke="black" d="M83.3371,-221.697C90.2905,-213.305 98.7702,-203.07 106.401,-193.861"/>
<polygon fill="black" stroke="black" points="109.143,-196.038 112.828,-186.104 103.753,-191.571 109.143,-196.038"/>
</g>
<!-- model.errors&#45;&gt;simplifyLinearModels -->
<g id="edge11" class="edge"><title>model.errors&#45;&gt;simplifyLinearModels</title>
<path fill="none" stroke="black" d="M167.652,-221.697C161.243,-213.389 153.442,-203.277 146.394,-194.141"/>
<polygon fill="black" stroke="black" points="149.074,-191.884 140.195,-186.104 143.532,-196.16 149.074,-191.884"/>
</g>
<!-- predlist_input_port -->
<g id="node11" class="node"><title>predlist_input_port</title>
<ellipse fill="#ffffff" stroke="black" cx="140" cy="-593" rx="7" ry="7"/>
</g>
<!-- predlist_input_port&#45;&gt;predlist -->
<g id="edge12" class="edge"><title>predlist_input_port&#45;&gt;predlist</title>
<path fill="none" stroke="black" d="M142.676,-586.186C145.919,-579.142 151.602,-566.795 156.86,-555.373"/>
<polygon fill="black" stroke="black" points="160.112,-556.679 161.114,-546.132 153.753,-553.752 160.112,-556.679"/>
</g>
<!-- carscores_input_port -->
<g id="node12" class="node"><title>carscores_input_port</title>
<ellipse fill="#ffffff" stroke="black" cx="108" cy="-593" rx="7" ry="7"/>
</g>
<!-- carscores_input_port&#45;&gt;carscores -->
<g id="edge13" class="edge"><title>carscores_input_port&#45;&gt;carscores</title>
<path fill="none" stroke="black" d="M105.324,-586.186C102.081,-579.142 96.3977,-566.795 91.1398,-555.373"/>
<polygon fill="black" stroke="black" points="94.2469,-553.752 86.8861,-546.132 87.8882,-556.679 94.2469,-553.752"/>
</g>
</g>
</svg>
