<?xml version="1.0" encoding="UTF-8" standalone="no"?>
<!DOCTYPE svg PUBLIC "-//W3C//DTD SVG 1.1//EN"
 "http://www.w3.org/Graphics/SVG/1.1/DTD/svg11.dtd">
<!-- Generated by graphviz version 2.38.0 (20140413.2041)
 -->
<!-- Title: Workflow Pages: 1 -->
<svg width="1930pt" height="405pt"
 viewBox="0.00 0.00 1930.00 405.00" xmlns="http://www.w3.org/2000/svg" xmlns:xlink="http://www.w3.org/1999/xlink">
<g id="graph0" class="graph" transform="scale(1 1) rotate(0) translate(4 401)">
<title>Workflow</title>
<polygon fill="white" stroke="none" points="-4,4 -4,-401 1926,-401 1926,4 -4,4"/>
<text text-anchor="middle" x="961" y="-378.6" font-family="Helvetica,sans-Serif" font-size="18.00">exec_paleocar</text>
<g id="clust1" class="cluster"><title>cluster_workflow_box_outer</title>
<polygon fill="none" stroke="black" stroke-width="2" points="8,-62 8,-307 1914,-307 1914,-62 8,-62"/>
</g>
<g id="clust2" class="cluster"><title>cluster_workflow_box_inner</title>
<polygon fill="none" stroke="black" stroke-width="0" points="16,-70 16,-299 1906,-299 1906,-70 16,-70"/>
</g>
<g id="clust3" class="cluster"><title>cluster_input_ports_group_outer</title>
<polygon fill="none" stroke="black" stroke-width="0" points="835,-315 835,-361 1073,-361 1073,-315 835,-315"/>
</g>
<g id="clust4" class="cluster"><title>cluster_input_ports_group_inner</title>
<polygon fill="none" stroke="black" stroke-width="0" points="843,-323 843,-353 1065,-353 1065,-323 843,-323"/>
</g>
<g id="clust5" class="cluster"><title>cluster_output_ports_group_outer</title>
<polygon fill="none" stroke="black" stroke-width="0" points="867,-8 867,-54 1041,-54 1041,-8 867,-8"/>
</g>
<g id="clust6" class="cluster"><title>cluster_output_ports_group_inner</title>
<polygon fill="none" stroke="black" stroke-width="0" points="875,-16 875,-46 1033,-46 1033,-16 875,-16"/>
</g>
<!-- gen_paleocar_model -->
<g id="node1" class="node"><title>gen_paleocar_model</title>
<polygon fill="#ccffcc" stroke="black" points="722,-161.5 722,-207.5 1186,-207.5 1186,-161.5 722,-161.5"/>
<text text-anchor="middle" x="954" y="-192.3" font-family="Helvetica,sans-Serif" font-size="14.00">gen_paleocar_model</text>
<polyline fill="none" stroke="black" points="722,-184.5 1186,-184.5 "/>
<text text-anchor="middle" x="954" y="-169.3" font-family="Helvetica,sans-Serif" font-size="14.00">execute paleocar for reconstruction of paleoclimate of the study region.</text>
</g>
<!-- prediction_model -->
<g id="node4" class="node"><title>prediction_model</title>
<path fill="#ffffcc" stroke="black" d="M36.5,-78.5C36.5,-78.5 371.5,-78.5 371.5,-78.5 377.5,-78.5 383.5,-84.5 383.5,-90.5 383.5,-90.5 383.5,-112.5 383.5,-112.5 383.5,-118.5 377.5,-124.5 371.5,-124.5 371.5,-124.5 36.5,-124.5 36.5,-124.5 30.5,-124.5 24.5,-118.5 24.5,-112.5 24.5,-112.5 24.5,-90.5 24.5,-90.5 24.5,-84.5 30.5,-78.5 36.5,-78.5"/>
<text text-anchor="middle" x="204" y="-109.3" font-family="Helvetica,sans-Serif" font-size="14.00">prediction_model</text>
<polyline fill="none" stroke="black" points="24.5,-101.5 383.5,-101.5 "/>
<text text-anchor="middle" x="204" y="-86.3" font-family="Helvetica,sans-Serif" font-size="14.00">file:.output/{session_id}/{run_id}/{label}_prediction.Rds</text>
</g>
<!-- gen_paleocar_model&#45;&gt;prediction_model -->
<g id="edge1" class="edge"><title>gen_paleocar_model&#45;&gt;prediction_model</title>
<path fill="none" stroke="black" d="M735.793,-161.493C634.771,-151.118 512.882,-138.339 393.613,-125.061"/>
<polygon fill="black" stroke="black" points="393.887,-121.57 383.561,-123.94 393.111,-128.527 393.887,-121.57"/>
</g>
<!-- prediction_plot -->
<g id="node5" class="node"><title>prediction_plot</title>
<path fill="#ffffcc" stroke="black" d="M414,-78.5C414,-78.5 742,-78.5 742,-78.5 748,-78.5 754,-84.5 754,-90.5 754,-90.5 754,-112.5 754,-112.5 754,-118.5 748,-124.5 742,-124.5 742,-124.5 414,-124.5 414,-124.5 408,-124.5 402,-118.5 402,-112.5 402,-112.5 402,-90.5 402,-90.5 402,-84.5 408,-78.5 414,-78.5"/>
<text text-anchor="middle" x="578" y="-109.3" font-family="Helvetica,sans-Serif" font-size="14.00">prediction_plot</text>
<polyline fill="none" stroke="black" points="402,-101.5 754,-101.5 "/>
<text text-anchor="middle" x="578" y="-86.3" font-family="Helvetica,sans-Serif" font-size="14.00">file:.ouptut/{session_id}/{run_id}/{label}_prediction.jpg</text>
</g>
<!-- gen_paleocar_model&#45;&gt;prediction_plot -->
<g id="edge2" class="edge"><title>gen_paleocar_model&#45;&gt;prediction_plot</title>
<path fill="none" stroke="black" d="M851.753,-161.473C801.7,-150.691 741.327,-137.685 690.027,-126.633"/>
<polygon fill="black" stroke="black" points="690.739,-123.207 680.227,-124.522 689.265,-130.05 690.739,-123.207"/>
</g>
<!-- uncertainty_model -->
<g id="node6" class="node"><title>uncertainty_model</title>
<path fill="#ffffcc" stroke="black" d="M784,-78.5C784,-78.5 1124,-78.5 1124,-78.5 1130,-78.5 1136,-84.5 1136,-90.5 1136,-90.5 1136,-112.5 1136,-112.5 1136,-118.5 1130,-124.5 1124,-124.5 1124,-124.5 784,-124.5 784,-124.5 778,-124.5 772,-118.5 772,-112.5 772,-112.5 772,-90.5 772,-90.5 772,-84.5 778,-78.5 784,-78.5"/>
<text text-anchor="middle" x="954" y="-109.3" font-family="Helvetica,sans-Serif" font-size="14.00">uncertainty_model</text>
<polyline fill="none" stroke="black" points="772,-101.5 1136,-101.5 "/>
<text text-anchor="middle" x="954" y="-86.3" font-family="Helvetica,sans-Serif" font-size="14.00">file:.output/{session_id}/{run_id}/{label}_uncertainty.Rds</text>
</g>
<!-- gen_paleocar_model&#45;&gt;uncertainty_model -->
<g id="edge3" class="edge"><title>gen_paleocar_model&#45;&gt;uncertainty_model</title>
<path fill="none" stroke="black" d="M954,-161.366C954,-153.152 954,-143.658 954,-134.725"/>
<polygon fill="black" stroke="black" points="957.5,-134.607 954,-124.607 950.5,-134.607 957.5,-134.607"/>
</g>
<!-- uncertainty_plot -->
<g id="node7" class="node"><title>uncertainty_plot</title>
<path fill="#ffffcc" stroke="black" d="M1166.5,-78.5C1166.5,-78.5 1499.5,-78.5 1499.5,-78.5 1505.5,-78.5 1511.5,-84.5 1511.5,-90.5 1511.5,-90.5 1511.5,-112.5 1511.5,-112.5 1511.5,-118.5 1505.5,-124.5 1499.5,-124.5 1499.5,-124.5 1166.5,-124.5 1166.5,-124.5 1160.5,-124.5 1154.5,-118.5 1154.5,-112.5 1154.5,-112.5 1154.5,-90.5 1154.5,-90.5 1154.5,-84.5 1160.5,-78.5 1166.5,-78.5"/>
<text text-anchor="middle" x="1333" y="-109.3" font-family="Helvetica,sans-Serif" font-size="14.00">uncertainty_plot</text>
<polyline fill="none" stroke="black" points="1154.5,-101.5 1511.5,-101.5 "/>
<text text-anchor="middle" x="1333" y="-86.3" font-family="Helvetica,sans-Serif" font-size="14.00">file:.output/{session_id}/{run_id}/{label}_uncertainty.jpg</text>
</g>
<!-- gen_paleocar_model&#45;&gt;uncertainty_plot -->
<g id="edge4" class="edge"><title>gen_paleocar_model&#45;&gt;uncertainty_plot</title>
<path fill="none" stroke="black" d="M1057.06,-161.473C1107.51,-150.691 1168.37,-137.685 1220.08,-126.633"/>
<polygon fill="black" stroke="black" points="1220.91,-130.035 1229.96,-124.522 1219.45,-123.19 1220.91,-130.035"/>
</g>
<!-- paleocar_log_file -->
<g id="node8" class="node"><title>paleocar_log_file</title>
<path fill="#ffffcc" stroke="black" d="M1542,-78.5C1542,-78.5 1886,-78.5 1886,-78.5 1892,-78.5 1898,-84.5 1898,-90.5 1898,-90.5 1898,-112.5 1898,-112.5 1898,-118.5 1892,-124.5 1886,-124.5 1886,-124.5 1542,-124.5 1542,-124.5 1536,-124.5 1530,-118.5 1530,-112.5 1530,-112.5 1530,-90.5 1530,-90.5 1530,-84.5 1536,-78.5 1542,-78.5"/>
<text text-anchor="middle" x="1714" y="-109.3" font-family="Helvetica,sans-Serif" font-size="14.00">paleocar_log_file</text>
<polyline fill="none" stroke="black" points="1530,-101.5 1898,-101.5 "/>
<text text-anchor="middle" x="1714" y="-86.3" font-family="Helvetica,sans-Serif" font-size="14.00">file:.output/{session_id}/{run_id}/paleocar_model_log.txt</text>
</g>
<!-- gen_paleocar_model&#45;&gt;paleocar_log_file -->
<g id="edge5" class="edge"><title>gen_paleocar_model&#45;&gt;paleocar_log_file</title>
<path fill="none" stroke="black" d="M1174.19,-161.466C1276.36,-151.073 1399.7,-138.285 1519.75,-125.131"/>
<polygon fill="black" stroke="black" points="1520.31,-128.591 1529.87,-124.021 1519.55,-121.633 1520.31,-128.591"/>
</g>
<!-- prediction_years -->
<g id="node2" class="node"><title>prediction_years</title>
<path fill="#ffffcc" stroke="black" d="M1618,-285.5C1618,-285.5 1520,-285.5 1520,-285.5 1514,-285.5 1508,-279.5 1508,-273.5 1508,-273.5 1508,-261.5 1508,-261.5 1508,-255.5 1514,-249.5 1520,-249.5 1520,-249.5 1618,-249.5 1618,-249.5 1624,-249.5 1630,-255.5 1630,-261.5 1630,-261.5 1630,-273.5 1630,-273.5 1630,-279.5 1624,-285.5 1618,-285.5"/>
<text text-anchor="middle" x="1569" y="-263.8" font-family="Helvetica,sans-Serif" font-size="14.00">prediction_years</text>
</g>
<!-- prediction_years&#45;&gt;gen_paleocar_model -->
<g id="edge6" class="edge"><title>prediction_years&#45;&gt;gen_paleocar_model</title>
<path fill="none" stroke="black" d="M1520.39,-249.474C1513.28,-247.394 1505.99,-245.483 1499,-244 1400.89,-223.194 1291.18,-209.604 1196.06,-200.815"/>
<polygon fill="black" stroke="black" points="1196.3,-197.322 1186.02,-199.9 1195.66,-204.293 1196.3,-197.322"/>
</g>
<!-- prism_data_for_coordinates -->
<g id="node3" class="node"><title>prism_data_for_coordinates</title>
<path fill="#ffffcc" stroke="black" d="M1192,-244.5C1192,-244.5 1478,-244.5 1478,-244.5 1484,-244.5 1490,-250.5 1490,-256.5 1490,-256.5 1490,-278.5 1490,-278.5 1490,-284.5 1484,-290.5 1478,-290.5 1478,-290.5 1192,-290.5 1192,-290.5 1186,-290.5 1180,-284.5 1180,-278.5 1180,-278.5 1180,-256.5 1180,-256.5 1180,-250.5 1186,-244.5 1192,-244.5"/>
<text text-anchor="middle" x="1335" y="-275.3" font-family="Helvetica,sans-Serif" font-size="14.00">prism_data_for_coordinates</text>
<polyline fill="none" stroke="black" points="1180,-267.5 1490,-267.5 "/>
<text text-anchor="middle" x="1335" y="-252.3" font-family="Helvetica,sans-Serif" font-size="14.00">file:.output/{session_id}/{run_id}/112W36N.csv</text>
</g>
<!-- prism_data_for_coordinates&#45;&gt;gen_paleocar_model -->
<g id="edge7" class="edge"><title>prism_data_for_coordinates&#45;&gt;gen_paleocar_model</title>
<path fill="none" stroke="black" d="M1231.39,-244.473C1180.68,-233.691 1119.5,-220.685 1067.52,-209.633"/>
<polygon fill="black" stroke="black" points="1068.1,-206.178 1057.59,-207.522 1066.64,-213.025 1068.1,-206.178"/>
</g>
<!-- prediction_model_output_port -->
<g id="node21" class="node"><title>prediction_model_output_port</title>
<ellipse fill="#ffffff" stroke="black" cx="890" cy="-31" rx="7" ry="7"/>
</g>
<!-- prediction_model&#45;&gt;prediction_model_output_port -->
<g id="edge20" class="edge"><title>prediction_model&#45;&gt;prediction_model_output_port</title>
<path fill="none" stroke="black" d="M298.74,-78.4847C328.737,-72.2464 362.123,-66.0563 393,-62 579.798,-37.4605 808.773,-32.9604 872.708,-32.1649"/>
<polygon fill="black" stroke="black" points="872.996,-35.662 882.957,-32.0528 872.92,-28.6624 872.996,-35.662"/>
</g>
<!-- prediction_plot_output_port -->
<g id="node22" class="node"><title>prediction_plot_output_port</title>
<ellipse fill="#ffffff" stroke="black" cx="922" cy="-31" rx="7" ry="7"/>
</g>
<!-- prediction_plot&#45;&gt;prediction_plot_output_port -->
<g id="edge21" class="edge"><title>prediction_plot&#45;&gt;prediction_plot_output_port</title>
<path fill="none" stroke="black" d="M670.229,-78.4819C699.712,-72.2044 732.587,-65.9926 763,-62 778.778,-59.9286 892.026,-61.6147 906,-54 909.235,-52.2373 911.984,-49.5064 914.242,-46.561"/>
<polygon fill="black" stroke="black" points="917.343,-48.198 919.545,-37.8344 911.361,-44.5632 917.343,-48.198"/>
</g>
<!-- uncertainty_model_output_port -->
<g id="node23" class="node"><title>uncertainty_model_output_port</title>
<ellipse fill="#ffffff" stroke="black" cx="954" cy="-31" rx="7" ry="7"/>
</g>
<!-- uncertainty_model&#45;&gt;uncertainty_model_output_port -->
<g id="edge22" class="edge"><title>uncertainty_model&#45;&gt;uncertainty_model_output_port</title>
<path fill="none" stroke="black" d="M954,-78.4491C954,-68.6592 954,-57.3397 954,-48.3261"/>
<polygon fill="black" stroke="black" points="957.5,-48.1278 954,-38.1279 950.5,-48.1279 957.5,-48.1278"/>
</g>
<!-- uncertainty_plot_output_port -->
<g id="node24" class="node"><title>uncertainty_plot_output_port</title>
<ellipse fill="#ffffff" stroke="black" cx="986" cy="-31" rx="7" ry="7"/>
</g>
<!-- uncertainty_plot&#45;&gt;uncertainty_plot_output_port -->
<g id="edge23" class="edge"><title>uncertainty_plot&#45;&gt;uncertainty_plot_output_port</title>
<path fill="none" stroke="black" d="M1239.26,-78.4975C1209.3,-72.2208 1175.89,-66.0055 1145,-62 1129.22,-59.9538 1015.97,-61.6147 1002,-54 998.765,-52.2373 996.016,-49.5064 993.758,-46.561"/>
<polygon fill="black" stroke="black" points="996.639,-44.5632 988.455,-37.8344 990.657,-48.198 996.639,-44.5632"/>
</g>
<!-- paleocar_log_file_output_port -->
<g id="node25" class="node"><title>paleocar_log_file_output_port</title>
<ellipse fill="#ffffff" stroke="black" cx="1018" cy="-31" rx="7" ry="7"/>
</g>
<!-- paleocar_log_file&#45;&gt;paleocar_log_file_output_port -->
<g id="edge24" class="edge"><title>paleocar_log_file&#45;&gt;paleocar_log_file_output_port</title>
<path fill="none" stroke="black" d="M1617.24,-78.4935C1586.6,-72.2556 1552.51,-66.0635 1521,-62 1331.9,-37.6166 1100.19,-33.0069 1035.5,-32.1752"/>
<polygon fill="black" stroke="black" points="1035.17,-28.6713 1025.13,-32.0572 1035.09,-35.6709 1035.17,-28.6713"/>
</g>
<!-- itrdb -->
<g id="node9" class="node"><title>itrdb</title>
<path fill="#fcfcfc" stroke="black" d="M1046,-244.5C1046,-244.5 1150,-244.5 1150,-244.5 1156,-244.5 1162,-250.5 1162,-256.5 1162,-256.5 1162,-278.5 1162,-278.5 1162,-284.5 1156,-290.5 1150,-290.5 1150,-290.5 1046,-290.5 1046,-290.5 1040,-290.5 1034,-284.5 1034,-278.5 1034,-278.5 1034,-256.5 1034,-256.5 1034,-250.5 1040,-244.5 1046,-244.5"/>
<text text-anchor="middle" x="1098" y="-275.3" font-family="Helvetica,sans-Serif" font-size="14.00">itrdb</text>
<polyline fill="none" stroke="black" points="1034,-267.5 1162,-267.5 "/>
<text text-anchor="middle" x="1098" y="-252.3" font-family="Helvetica,sans-Serif" font-size="14.00">file:data/itrdb.Rda</text>
</g>
<!-- itrdb&#45;&gt;gen_paleocar_model -->
<g id="edge8" class="edge"><title>itrdb&#45;&gt;gen_paleocar_model</title>
<path fill="none" stroke="black" d="M1058.65,-244.366C1041.19,-234.544 1020.48,-222.894 1002.11,-212.56"/>
<polygon fill="black" stroke="black" points="1003.73,-209.459 993.301,-207.607 1000.3,-215.56 1003.73,-209.459"/>
</g>
<!-- calibration_years -->
<g id="node10" class="node"><title>calibration_years</title>
<path fill="#fcfcfc" stroke="black" d="M1003.5,-285.5C1003.5,-285.5 904.5,-285.5 904.5,-285.5 898.5,-285.5 892.5,-279.5 892.5,-273.5 892.5,-273.5 892.5,-261.5 892.5,-261.5 892.5,-255.5 898.5,-249.5 904.5,-249.5 904.5,-249.5 1003.5,-249.5 1003.5,-249.5 1009.5,-249.5 1015.5,-255.5 1015.5,-261.5 1015.5,-261.5 1015.5,-273.5 1015.5,-273.5 1015.5,-279.5 1009.5,-285.5 1003.5,-285.5"/>
<text text-anchor="middle" x="954" y="-263.8" font-family="Helvetica,sans-Serif" font-size="14.00">calibration_years</text>
</g>
<!-- calibration_years&#45;&gt;gen_paleocar_model -->
<g id="edge9" class="edge"><title>calibration_years&#45;&gt;gen_paleocar_model</title>
<path fill="none" stroke="black" d="M954,-249.322C954,-240.102 954,-228.435 954,-217.606"/>
<polygon fill="black" stroke="black" points="957.5,-217.587 954,-207.587 950.5,-217.587 957.5,-217.587"/>
</g>
<!-- label -->
<g id="node11" class="node"><title>label</title>
<path fill="#fcfcfc" stroke="black" d="M862,-285.5C862,-285.5 832,-285.5 832,-285.5 826,-285.5 820,-279.5 820,-273.5 820,-273.5 820,-261.5 820,-261.5 820,-255.5 826,-249.5 832,-249.5 832,-249.5 862,-249.5 862,-249.5 868,-249.5 874,-255.5 874,-261.5 874,-261.5 874,-273.5 874,-273.5 874,-279.5 868,-285.5 862,-285.5"/>
<text text-anchor="middle" x="847" y="-263.8" font-family="Helvetica,sans-Serif" font-size="14.00">label</text>
</g>
<!-- label&#45;&gt;gen_paleocar_model -->
<g id="edge10" class="edge"><title>label&#45;&gt;gen_paleocar_model</title>
<path fill="none" stroke="black" d="M869.692,-249.322C883.379,-238.961 901.146,-225.511 916.839,-213.631"/>
<polygon fill="black" stroke="black" points="918.963,-216.413 924.824,-207.587 914.738,-210.832 918.963,-216.413"/>
</g>
<!-- min_width -->
<g id="node12" class="node"><title>min_width</title>
<path fill="#fcfcfc" stroke="black" d="M790,-285.5C790,-285.5 734,-285.5 734,-285.5 728,-285.5 722,-279.5 722,-273.5 722,-273.5 722,-261.5 722,-261.5 722,-255.5 728,-249.5 734,-249.5 734,-249.5 790,-249.5 790,-249.5 796,-249.5 802,-255.5 802,-261.5 802,-261.5 802,-273.5 802,-273.5 802,-279.5 796,-285.5 790,-285.5"/>
<text text-anchor="middle" x="762" y="-263.8" font-family="Helvetica,sans-Serif" font-size="14.00">min_width</text>
</g>
<!-- min_width&#45;&gt;gen_paleocar_model -->
<g id="edge11" class="edge"><title>min_width&#45;&gt;gen_paleocar_model</title>
<path fill="none" stroke="black" d="M798.581,-249.499C802.758,-247.618 806.964,-245.751 811,-244 836.308,-233.019 864.361,-221.419 888.869,-211.47"/>
<polygon fill="black" stroke="black" points="890.472,-214.597 898.427,-207.601 887.845,-208.109 890.472,-214.597"/>
</g>
<!-- verbose -->
<g id="node13" class="node"><title>verbose</title>
<path fill="#fcfcfc" stroke="black" d="M692,-285.5C692,-285.5 648,-285.5 648,-285.5 642,-285.5 636,-279.5 636,-273.5 636,-273.5 636,-261.5 636,-261.5 636,-255.5 642,-249.5 648,-249.5 648,-249.5 692,-249.5 692,-249.5 698,-249.5 704,-255.5 704,-261.5 704,-261.5 704,-273.5 704,-273.5 704,-279.5 698,-285.5 692,-285.5"/>
<text text-anchor="middle" x="670" y="-263.8" font-family="Helvetica,sans-Serif" font-size="14.00">verbose</text>
</g>
<!-- verbose&#45;&gt;gen_paleocar_model -->
<g id="edge12" class="edge"><title>verbose&#45;&gt;gen_paleocar_model</title>
<path fill="none" stroke="black" d="M700.587,-249.349C704.691,-247.389 708.9,-245.544 713,-244 749.711,-230.177 790.817,-218.784 828.539,-209.841"/>
<polygon fill="black" stroke="black" points="829.622,-213.183 838.565,-207.503 828.031,-206.366 829.622,-213.183"/>
</g>
<!-- prediction_years_input_port -->
<g id="node14" class="node"><title>prediction_years_input_port</title>
<ellipse fill="#ffffff" stroke="black" cx="1050" cy="-338" rx="7" ry="7"/>
</g>
<!-- prediction_years_input_port&#45;&gt;prediction_years -->
<g id="edge13" class="edge"><title>prediction_years_input_port&#45;&gt;prediction_years</title>
<path fill="none" stroke="black" d="M1057.11,-336.945C1107.48,-336.495 1411.09,-332.735 1499,-307 1511.48,-303.347 1524.21,-297.206 1535.33,-290.89"/>
<polygon fill="black" stroke="black" points="1537.43,-293.708 1544.25,-285.593 1533.86,-287.689 1537.43,-293.708"/>
</g>
<!-- prism_data_for_coordinates_input_port -->
<g id="node15" class="node"><title>prism_data_for_coordinates_input_port</title>
<ellipse fill="#ffffff" stroke="black" cx="1018" cy="-338" rx="7" ry="7"/>
</g>
<!-- prism_data_for_coordinates_input_port&#45;&gt;prism_data_for_coordinates -->
<g id="edge14" class="edge"><title>prism_data_for_coordinates_input_port&#45;&gt;prism_data_for_coordinates</title>
<path fill="none" stroke="black" d="M1020.46,-331.169C1023.01,-325.93 1027.54,-318.533 1034,-315 1060.76,-300.375 1140.82,-311.39 1171,-307 1194.68,-303.556 1219.97,-298.381 1243.43,-292.933"/>
<polygon fill="black" stroke="black" points="1244.43,-296.292 1253.36,-290.586 1242.82,-289.48 1244.43,-296.292"/>
</g>
<!-- itrdb_input_port -->
<g id="node16" class="node"><title>itrdb_input_port</title>
<ellipse fill="#ffffff" stroke="black" cx="986" cy="-338" rx="7" ry="7"/>
</g>
<!-- itrdb_input_port&#45;&gt;itrdb -->
<g id="edge15" class="edge"><title>itrdb_input_port&#45;&gt;itrdb</title>
<path fill="none" stroke="black" d="M988.922,-331.175C991.675,-326.231 996.235,-319.278 1002,-315 1010.69,-308.551 1015.07,-311.314 1025,-307 1033.12,-303.473 1041.56,-299.406 1049.71,-295.267"/>
<polygon fill="black" stroke="black" points="1051.48,-298.293 1058.75,-290.587 1048.26,-292.077 1051.48,-298.293"/>
</g>
<!-- calibration_years_input_port -->
<g id="node17" class="node"><title>calibration_years_input_port</title>
<ellipse fill="#ffffff" stroke="black" cx="954" cy="-338" rx="7" ry="7"/>
</g>
<!-- calibration_years_input_port&#45;&gt;calibration_years -->
<g id="edge16" class="edge"><title>calibration_years_input_port&#45;&gt;calibration_years</title>
<path fill="none" stroke="black" d="M954,-330.678C954,-322.761 954,-308.681 954,-295.92"/>
<polygon fill="black" stroke="black" points="957.5,-295.675 954,-285.675 950.5,-295.675 957.5,-295.675"/>
</g>
<!-- label_input_port -->
<g id="node18" class="node"><title>label_input_port</title>
<ellipse fill="#ffffff" stroke="black" cx="922" cy="-338" rx="7" ry="7"/>
</g>
<!-- label_input_port&#45;&gt;label -->
<g id="edge17" class="edge"><title>label_input_port&#45;&gt;label</title>
<path fill="none" stroke="black" d="M919.063,-331.195C916.3,-326.264 911.735,-319.318 906,-315 897.688,-308.742 892.72,-312.676 884,-307 878.049,-303.126 872.347,-298.124 867.278,-293.016"/>
<polygon fill="black" stroke="black" points="869.724,-290.507 860.348,-285.574 864.601,-295.278 869.724,-290.507"/>
</g>
<!-- min_width_input_port -->
<g id="node19" class="node"><title>min_width_input_port</title>
<ellipse fill="#ffffff" stroke="black" cx="890" cy="-338" rx="7" ry="7"/>
</g>
<!-- min_width_input_port&#45;&gt;min_width -->
<g id="edge18" class="edge"><title>min_width_input_port&#45;&gt;min_width</title>
<path fill="none" stroke="black" d="M887.486,-331.269C884.895,-326.1 880.341,-318.751 874,-315 849.707,-300.63 837.039,-317.891 811,-307 802.535,-303.46 794.301,-298.039 787.073,-292.373"/>
<polygon fill="black" stroke="black" points="789.015,-289.435 779.098,-285.707 784.526,-294.806 789.015,-289.435"/>
</g>
<!-- verbose_input_port -->
<g id="node20" class="node"><title>verbose_input_port</title>
<ellipse fill="#ffffff" stroke="black" cx="858" cy="-338" rx="7" ry="7"/>
</g>
<!-- verbose_input_port&#45;&gt;verbose -->
<g id="edge19" class="edge"><title>verbose_input_port&#45;&gt;verbose</title>
<path fill="none" stroke="black" d="M850.934,-336.821C829.166,-336.01 761.66,-331.542 713,-307 705.703,-303.32 698.691,-298.076 692.522,-292.64"/>
<polygon fill="black" stroke="black" points="694.884,-290.056 685.203,-285.753 690.088,-295.154 694.884,-290.056"/>
</g>
</g>
</svg>
