<?xml version="1.0" encoding="UTF-8" standalone="no"?>
<!DOCTYPE svg PUBLIC "-//W3C//DTD SVG 1.1//EN"
 "http://www.w3.org/Graphics/SVG/1.1/DTD/svg11.dtd">
<!-- Generated by graphviz version 2.38.0 (20140413.2041)
 -->
<!-- Title: Workflow Pages: 1 -->
<svg width="614pt" height="405pt"
 viewBox="0.00 0.00 614.00 405.00" xmlns="http://www.w3.org/2000/svg" xmlns:xlink="http://www.w3.org/1999/xlink">
<g id="graph0" class="graph" transform="scale(1 1) rotate(0) translate(4 401)">
<title>Workflow</title>
<polygon fill="white" stroke="none" points="-4,4 -4,-401 610,-401 610,4 -4,4"/>
<text text-anchor="middle" x="303" y="-378.6" font-family="Helvetica,sans-Serif" font-size="18.00">get_tree_ring_values</text>
<g id="clust1" class="cluster"><title>cluster_workflow_box_outer</title>
<polygon fill="none" stroke="black" stroke-width="2" points="8,-62 8,-307 598,-307 598,-62 8,-62"/>
</g>
<g id="clust2" class="cluster"><title>cluster_workflow_box_inner</title>
<polygon fill="none" stroke="black" stroke-width="0" points="16,-70 16,-299 590,-299 590,-70 16,-70"/>
</g>
<g id="clust3" class="cluster"><title>cluster_input_ports_group_outer</title>
<polygon fill="none" stroke="black" stroke-width="0" points="208,-315 208,-361 286,-361 286,-315 208,-315"/>
</g>
<g id="clust4" class="cluster"><title>cluster_input_ports_group_inner</title>
<polygon fill="none" stroke="black" stroke-width="0" points="216,-323 216,-353 278,-353 278,-323 216,-323"/>
</g>
<g id="clust5" class="cluster"><title>cluster_output_ports_group_outer</title>
<polygon fill="none" stroke="black" stroke-width="0" points="280,-8 280,-54 326,-54 326,-8 280,-8"/>
</g>
<g id="clust6" class="cluster"><title>cluster_output_ports_group_inner</title>
<polygon fill="none" stroke="black" stroke-width="0" points="288,-16 288,-46 318,-46 318,-16 288,-16"/>
</g>
<!-- get_tree_ring_values -->
<g id="node1" class="node"><title>get_tree_ring_values</title>
<polygon fill="#ccffcc" stroke="black" points="24.5,-161.5 24.5,-207.5 581.5,-207.5 581.5,-161.5 24.5,-161.5"/>
<text text-anchor="middle" x="303" y="-192.3" font-family="Helvetica,sans-Serif" font-size="14.00">get_tree_ring_values</text>
<polyline fill="none" stroke="black" points="24.5,-184.5 581.5,-184.5 "/>
<text text-anchor="middle" x="303" y="-169.3" font-family="Helvetica,sans-Serif" font-size="14.00">extract the values of the tree ring chronologies used for reconstruction for a given year</text>
</g>
<!-- tree_ring_values -->
<g id="node2" class="node"><title>tree_ring_values</title>
<path fill="#ffffcc" stroke="black" d="M87.5,-78.5C87.5,-78.5 518.5,-78.5 518.5,-78.5 524.5,-78.5 530.5,-84.5 530.5,-90.5 530.5,-90.5 530.5,-112.5 530.5,-112.5 530.5,-118.5 524.5,-124.5 518.5,-124.5 518.5,-124.5 87.5,-124.5 87.5,-124.5 81.5,-124.5 75.5,-118.5 75.5,-112.5 75.5,-112.5 75.5,-90.5 75.5,-90.5 75.5,-84.5 81.5,-78.5 87.5,-78.5"/>
<text text-anchor="middle" x="303" y="-109.3" font-family="Helvetica,sans-Serif" font-size="14.00">tree_ring_values</text>
<polyline fill="none" stroke="black" points="75.5,-101.5 530.5,-101.5 "/>
<text text-anchor="middle" x="303" y="-86.3" font-family="Helvetica,sans-Serif" font-size="14.00">file:.output/{session_id}/{run_id}/{user_input_year}_tree_ring_data.csv</text>
</g>
<!-- get_tree_ring_values&#45;&gt;tree_ring_values -->
<g id="edge1" class="edge"><title>get_tree_ring_values&#45;&gt;tree_ring_values</title>
<path fill="none" stroke="black" d="M303,-161.366C303,-153.152 303,-143.658 303,-134.725"/>
<polygon fill="black" stroke="black" points="306.5,-134.607 303,-124.607 299.5,-134.607 306.5,-134.607"/>
</g>
<!-- tree_ring_values_output_port -->
<g id="node7" class="node"><title>tree_ring_values_output_port</title>
<ellipse fill="#ffffff" stroke="black" cx="303" cy="-31" rx="7" ry="7"/>
</g>
<!-- tree_ring_values&#45;&gt;tree_ring_values_output_port -->
<g id="edge6" class="edge"><title>tree_ring_values&#45;&gt;tree_ring_values_output_port</title>
<path fill="none" stroke="black" d="M303,-78.4491C303,-68.6592 303,-57.3397 303,-48.3261"/>
<polygon fill="black" stroke="black" points="306.5,-48.1278 303,-38.1279 299.5,-48.1279 306.5,-48.1278"/>
</g>
<!-- paleocar_models -->
<g id="node3" class="node"><title>paleocar_models</title>
<path fill="#ffffcc" stroke="black" d="M213,-244.5C213,-244.5 529,-244.5 529,-244.5 535,-244.5 541,-250.5 541,-256.5 541,-256.5 541,-278.5 541,-278.5 541,-284.5 535,-290.5 529,-290.5 529,-290.5 213,-290.5 213,-290.5 207,-290.5 201,-284.5 201,-278.5 201,-278.5 201,-256.5 201,-256.5 201,-250.5 207,-244.5 213,-244.5"/>
<text text-anchor="middle" x="371" y="-275.3" font-family="Helvetica,sans-Serif" font-size="14.00">paleocar_models</text>
<polyline fill="none" stroke="black" points="201,-267.5 541,-267.5 "/>
<text text-anchor="middle" x="371" y="-252.3" font-family="Helvetica,sans-Serif" font-size="14.00">file:.output/{session_id}{run_id}/{label}_models.Rds</text>
</g>
<!-- paleocar_models&#45;&gt;get_tree_ring_values -->
<g id="edge2" class="edge"><title>paleocar_models&#45;&gt;get_tree_ring_values</title>
<path fill="none" stroke="black" d="M352.419,-244.366C344.923,-235.437 336.158,-224.997 328.109,-215.409"/>
<polygon fill="black" stroke="black" points="330.669,-213.015 321.559,-207.607 325.308,-217.516 330.669,-213.015"/>
</g>
<!-- user_input_year -->
<g id="node4" class="node"><title>user_input_year</title>
<path fill="#ffffcc" stroke="black" d="M171,-285.5C171,-285.5 77,-285.5 77,-285.5 71,-285.5 65,-279.5 65,-273.5 65,-273.5 65,-261.5 65,-261.5 65,-255.5 71,-249.5 77,-249.5 77,-249.5 171,-249.5 171,-249.5 177,-249.5 183,-255.5 183,-261.5 183,-261.5 183,-273.5 183,-273.5 183,-279.5 177,-285.5 171,-285.5"/>
<text text-anchor="middle" x="124" y="-263.8" font-family="Helvetica,sans-Serif" font-size="14.00">user_input_year</text>
</g>
<!-- user_input_year&#45;&gt;get_tree_ring_values -->
<g id="edge3" class="edge"><title>user_input_year&#45;&gt;get_tree_ring_values</title>
<path fill="none" stroke="black" d="M161.961,-249.322C186.013,-238.438 217.598,-224.146 244.78,-211.846"/>
<polygon fill="black" stroke="black" points="246.523,-214.898 254.191,-207.587 243.637,-208.521 246.523,-214.898"/>
</g>
<!-- paleocar_models_input_port -->
<g id="node5" class="node"><title>paleocar_models_input_port</title>
<ellipse fill="#ffffff" stroke="black" cx="263" cy="-338" rx="7" ry="7"/>
</g>
<!-- paleocar_models_input_port&#45;&gt;paleocar_models -->
<g id="edge4" class="edge"><title>paleocar_models_input_port&#45;&gt;paleocar_models</title>
<path fill="none" stroke="black" d="M268.504,-333.509C279.443,-326.571 304.83,-310.469 327.6,-296.027"/>
<polygon fill="black" stroke="black" points="329.593,-298.908 336.163,-290.596 325.843,-292.996 329.593,-298.908"/>
</g>
<!-- user_input_year_input_port -->
<g id="node6" class="node"><title>user_input_year_input_port</title>
<ellipse fill="#ffffff" stroke="black" cx="231" cy="-338" rx="7" ry="7"/>
</g>
<!-- user_input_year_input_port&#45;&gt;user_input_year -->
<g id="edge5" class="edge"><title>user_input_year_input_port&#45;&gt;user_input_year</title>
<path fill="none" stroke="black" d="M225.547,-333.509C213.485,-325.787 183.696,-306.716 159.482,-291.215"/>
<polygon fill="black" stroke="black" points="161.165,-288.137 150.856,-285.693 157.391,-294.032 161.165,-288.137"/>
</g>
</g>
</svg>
