<?xml version="1.0" encoding="UTF-8" standalone="no"?>
<!DOCTYPE svg PUBLIC "-//W3C//DTD SVG 1.1//EN"
 "http://www.w3.org/Graphics/SVG/1.1/DTD/svg11.dtd">
<!-- Generated by graphviz version 2.38.0 (20140413.2041)
 -->
<!-- Title: Workflow Pages: 1 -->
<svg width="512pt" height="405pt"
 viewBox="0.00 0.00 512.00 405.00" xmlns="http://www.w3.org/2000/svg" xmlns:xlink="http://www.w3.org/1999/xlink">
<g id="graph0" class="graph" transform="scale(1 1) rotate(0) translate(4 401)">
<title>Workflow</title>
<polygon fill="white" stroke="none" points="-4,4 -4,-401 508,-401 508,4 -4,4"/>
<text text-anchor="middle" x="252" y="-378.6" font-family="Helvetica,sans-Serif" font-size="18.00">get_species_of_trees</text>
<g id="clust1" class="cluster"><title>cluster_workflow_box_outer</title>
<polygon fill="none" stroke="black" stroke-width="2" points="8,-62 8,-307 496,-307 496,-62 8,-62"/>
</g>
<g id="clust2" class="cluster"><title>cluster_workflow_box_inner</title>
<polygon fill="none" stroke="black" stroke-width="0" points="16,-70 16,-299 488,-299 488,-70 16,-70"/>
</g>
<g id="clust3" class="cluster"><title>cluster_input_ports_group_outer</title>
<polygon fill="none" stroke="black" stroke-width="0" points="143,-315 143,-361 221,-361 221,-315 143,-315"/>
</g>
<g id="clust4" class="cluster"><title>cluster_input_ports_group_inner</title>
<polygon fill="none" stroke="black" stroke-width="0" points="151,-323 151,-353 213,-353 213,-323 151,-323"/>
</g>
<g id="clust5" class="cluster"><title>cluster_output_ports_group_outer</title>
<polygon fill="none" stroke="black" stroke-width="0" points="229,-8 229,-54 275,-54 275,-8 229,-8"/>
</g>
<g id="clust6" class="cluster"><title>cluster_output_ports_group_inner</title>
<polygon fill="none" stroke="black" stroke-width="0" points="237,-16 237,-46 267,-46 267,-16 237,-16"/>
</g>
<!-- get_species_of_trees -->
<g id="node1" class="node"><title>get_species_of_trees</title>
<polygon fill="#ccffcc" stroke="black" points="24.5,-161.5 24.5,-207.5 479.5,-207.5 479.5,-161.5 24.5,-161.5"/>
<text text-anchor="middle" x="252" y="-192.3" font-family="Helvetica,sans-Serif" font-size="14.00">get_species_of_trees</text>
<polyline fill="none" stroke="black" points="24.5,-184.5 479.5,-184.5 "/>
<text text-anchor="middle" x="252" y="-169.3" font-family="Helvetica,sans-Serif" font-size="14.00">extract the species of trees used for reconstruction for prediction year</text>
</g>
<!-- tree_species_used -->
<g id="node2" class="node"><title>tree_species_used</title>
<path fill="#ffffcc" stroke="black" d="M102,-78.5C102,-78.5 402,-78.5 402,-78.5 408,-78.5 414,-84.5 414,-90.5 414,-90.5 414,-112.5 414,-112.5 414,-118.5 408,-124.5 402,-124.5 402,-124.5 102,-124.5 102,-124.5 96,-124.5 90,-118.5 90,-112.5 90,-112.5 90,-90.5 90,-90.5 90,-84.5 96,-78.5 102,-78.5"/>
<text text-anchor="middle" x="252" y="-109.3" font-family="Helvetica,sans-Serif" font-size="14.00">tree_species_used</text>
<polyline fill="none" stroke="black" points="90,-101.5 414,-101.5 "/>
<text text-anchor="middle" x="252" y="-86.3" font-family="Helvetica,sans-Serif" font-size="14.00">file:.output/{session_id}{run_id}/tree_species.csv</text>
</g>
<!-- get_species_of_trees&#45;&gt;tree_species_used -->
<g id="edge1" class="edge"><title>get_species_of_trees&#45;&gt;tree_species_used</title>
<path fill="none" stroke="black" d="M252,-161.366C252,-153.152 252,-143.658 252,-134.725"/>
<polygon fill="black" stroke="black" points="255.5,-134.607 252,-124.607 248.5,-134.607 255.5,-134.607"/>
</g>
<!-- tree_species_used_output_port -->
<g id="node7" class="node"><title>tree_species_used_output_port</title>
<ellipse fill="#ffffff" stroke="black" cx="252" cy="-31" rx="7" ry="7"/>
</g>
<!-- tree_species_used&#45;&gt;tree_species_used_output_port -->
<g id="edge6" class="edge"><title>tree_species_used&#45;&gt;tree_species_used_output_port</title>
<path fill="none" stroke="black" d="M252,-78.4491C252,-68.6592 252,-57.3397 252,-48.3261"/>
<polygon fill="black" stroke="black" points="255.5,-48.1278 252,-38.1279 248.5,-48.1279 255.5,-48.1278"/>
</g>
<!-- paleocar_models -->
<g id="node3" class="node"><title>paleocar_models</title>
<path fill="#ffffcc" stroke="black" d="M133,-244.5C133,-244.5 443,-244.5 443,-244.5 449,-244.5 455,-250.5 455,-256.5 455,-256.5 455,-278.5 455,-278.5 455,-284.5 449,-290.5 443,-290.5 443,-290.5 133,-290.5 133,-290.5 127,-290.5 121,-284.5 121,-278.5 121,-278.5 121,-256.5 121,-256.5 121,-250.5 127,-244.5 133,-244.5"/>
<text text-anchor="middle" x="288" y="-275.3" font-family="Helvetica,sans-Serif" font-size="14.00">paleocar_models</text>
<polyline fill="none" stroke="black" points="121,-267.5 455,-267.5 "/>
<text text-anchor="middle" x="288" y="-252.3" font-family="Helvetica,sans-Serif" font-size="14.00">file:.output/{session_id}{run_id}/{label}_models.rds</text>
</g>
<!-- paleocar_models&#45;&gt;get_species_of_trees -->
<g id="edge2" class="edge"><title>paleocar_models&#45;&gt;get_species_of_trees</title>
<path fill="none" stroke="black" d="M278.163,-244.366C274.393,-235.884 270.017,-226.037 265.935,-216.853"/>
<polygon fill="black" stroke="black" points="269.085,-215.323 261.825,-207.607 262.688,-218.166 269.085,-215.323"/>
</g>
<!-- itrdb -->
<g id="node4" class="node"><title>itrdb</title>
<path fill="#ffffcc" stroke="black" d="M91,-285.5C91,-285.5 61,-285.5 61,-285.5 55,-285.5 49,-279.5 49,-273.5 49,-273.5 49,-261.5 49,-261.5 49,-255.5 55,-249.5 61,-249.5 61,-249.5 91,-249.5 91,-249.5 97,-249.5 103,-255.5 103,-261.5 103,-261.5 103,-273.5 103,-273.5 103,-279.5 97,-285.5 91,-285.5"/>
<text text-anchor="middle" x="76" y="-263.8" font-family="Helvetica,sans-Serif" font-size="14.00">itrdb</text>
</g>
<!-- itrdb&#45;&gt;get_species_of_trees -->
<g id="edge3" class="edge"><title>itrdb&#45;&gt;get_species_of_trees</title>
<path fill="none" stroke="black" d="M102.454,-249.294C105.628,-247.431 108.857,-245.625 112,-244 134.828,-232.197 160.589,-220.894 183.732,-211.424"/>
<polygon fill="black" stroke="black" points="185.179,-214.614 193.135,-207.617 182.552,-208.126 185.179,-214.614"/>
</g>
<!-- paleocar_models_input_port -->
<g id="node5" class="node"><title>paleocar_models_input_port</title>
<ellipse fill="#ffffff" stroke="black" cx="198" cy="-338" rx="7" ry="7"/>
</g>
<!-- paleocar_models_input_port&#45;&gt;paleocar_models -->
<g id="edge4" class="edge"><title>paleocar_models_input_port&#45;&gt;paleocar_models</title>
<path fill="none" stroke="black" d="M203.097,-333.121C212.255,-326.151 232.247,-310.934 250.532,-297.017"/>
<polygon fill="black" stroke="black" points="252.93,-299.59 258.768,-290.749 248.691,-294.02 252.93,-299.59"/>
</g>
<!-- itrdb_input_port -->
<g id="node6" class="node"><title>itrdb_input_port</title>
<ellipse fill="#ffffff" stroke="black" cx="166" cy="-338" rx="7" ry="7"/>
</g>
<!-- itrdb_input_port&#45;&gt;itrdb -->
<g id="edge5" class="edge"><title>itrdb_input_port&#45;&gt;itrdb</title>
<path fill="none" stroke="black" d="M159.957,-334.401C149.564,-329.772 127.891,-319.41 112,-307 106.794,-302.934 101.661,-298.1 96.9746,-293.254"/>
<polygon fill="black" stroke="black" points="99.3876,-290.708 90.0307,-285.738 94.246,-295.458 99.3876,-290.708"/>
</g>
</g>
</svg>
