<?xml version="1.0" encoding="UTF-8" standalone="no"?>
<!DOCTYPE svg PUBLIC "-//W3C//DTD SVG 1.1//EN"
 "http://www.w3.org/Graphics/SVG/1.1/DTD/svg11.dtd">
<!-- Generated by graphviz version 2.38.0 (20140413.2041)
 -->
<!-- Title: Workflow Pages: 1 -->
<svg width="1328pt" height="1202pt"
 viewBox="0.00 0.00 1328.00 1202.00" xmlns="http://www.w3.org/2000/svg" xmlns:xlink="http://www.w3.org/1999/xlink">
<g id="graph0" class="graph" transform="scale(1 1) rotate(0) translate(4 1198)">
<title>Workflow</title>
<polygon fill="white" stroke="none" points="-4,4 -4,-1198 1324,-1198 1324,4 -4,4"/>
<text text-anchor="middle" x="660" y="-1175.6" font-family="Helvetica,sans-Serif" font-size="18.00">get_itrdb_data</text>
<g id="clust1" class="cluster"><title>cluster_workflow_box_outer</title>
<polygon fill="none" stroke="black" stroke-width="2" points="8,-62 8,-1104 1308,-1104 1308,-62 8,-62"/>
</g>
<g id="clust2" class="cluster"><title>cluster_workflow_box_inner</title>
<polygon fill="none" stroke="black" stroke-width="0" points="16,-70 16,-1096 1300,-1096 1300,-70 16,-70"/>
</g>
<g id="clust5" class="cluster"><title>cluster_output_ports_group_outer</title>
<polygon fill="none" stroke="black" stroke-width="0" points="706,-8 706,-54 752,-54 752,-8 706,-8"/>
</g>
<g id="clust6" class="cluster"><title>cluster_output_ports_group_inner</title>
<polygon fill="none" stroke="black" stroke-width="0" points="714,-16 714,-46 744,-46 744,-16 714,-16"/>
</g>
<g id="clust3" class="cluster"><title>cluster_input_ports_group_outer</title>
<polygon fill="none" stroke="black" stroke-width="0" points="960,-1112 960,-1158 1070,-1158 1070,-1112 960,-1112"/>
</g>
<g id="clust4" class="cluster"><title>cluster_input_ports_group_inner</title>
<polygon fill="none" stroke="black" stroke-width="0" points="968,-1120 968,-1150 1062,-1150 1062,-1120 968,-1120"/>
</g>
<!-- create_shapefile_dir -->
<g id="node1" class="node"><title>create_shapefile_dir</title>
<polygon fill="#ccffcc" stroke="black" points="510,-969.5 510,-1015.5 962,-1015.5 962,-969.5 510,-969.5"/>
<text text-anchor="middle" x="736" y="-1000.3" font-family="Helvetica,sans-Serif" font-size="14.00">create_shapefile_dir</text>
<polyline fill="none" stroke="black" points="510,-992.5 962,-992.5 "/>
<text text-anchor="middle" x="736" y="-977.3" font-family="Helvetica,sans-Serif" font-size="14.00">create a direcorty for downloading the shapefiles for the study region.</text>
</g>
<!-- user_created_dir -->
<g id="node10" class="node"><title>user_created_dir</title>
<path fill="#ffffcc" stroke="black" d="M642.5,-886.5C642.5,-886.5 779.5,-886.5 779.5,-886.5 785.5,-886.5 791.5,-892.5 791.5,-898.5 791.5,-898.5 791.5,-920.5 791.5,-920.5 791.5,-926.5 785.5,-932.5 779.5,-932.5 779.5,-932.5 642.5,-932.5 642.5,-932.5 636.5,-932.5 630.5,-926.5 630.5,-920.5 630.5,-920.5 630.5,-898.5 630.5,-898.5 630.5,-892.5 636.5,-886.5 642.5,-886.5"/>
<text text-anchor="middle" x="711" y="-917.3" font-family="Helvetica,sans-Serif" font-size="14.00">user_created_dir</text>
<polyline fill="none" stroke="black" points="630.5,-909.5 791.5,-909.5 "/>
<text text-anchor="middle" x="711" y="-894.3" font-family="Helvetica,sans-Serif" font-size="14.00">file:data/{study_region}</text>
</g>
<!-- create_shapefile_dir&#45;&gt;user_created_dir -->
<g id="edge1" class="edge"><title>create_shapefile_dir&#45;&gt;user_created_dir</title>
<path fill="none" stroke="black" d="M729.169,-969.366C726.606,-961.062 723.639,-951.451 720.856,-942.434"/>
<polygon fill="black" stroke="black" points="724.117,-941.13 717.823,-932.607 717.428,-943.194 724.117,-941.13"/>
</g>
<!-- download_shapefile_archive -->
<g id="node2" class="node"><title>download_shapefile_archive</title>
<polygon fill="#ccffcc" stroke="black" points="594,-803.5 594,-849.5 1292,-849.5 1292,-803.5 594,-803.5"/>
<text text-anchor="middle" x="943" y="-834.3" font-family="Helvetica,sans-Serif" font-size="14.00">download_shapefile_archive</text>
<polyline fill="none" stroke="black" points="594,-826.5 1292,-826.5 "/>
<text text-anchor="middle" x="943" y="-811.3" font-family="Helvetica,sans-Serif" font-size="14.00">download the zip file of the region which contains the boundary, tracts, metadata.xml and nps_tracts.xml files.</text>
</g>
<!-- compressed_shapefile -->
<g id="node11" class="node"><title>compressed_shapefile</title>
<path fill="#ffffcc" stroke="black" d="M795,-720.5C795,-720.5 1091,-720.5 1091,-720.5 1097,-720.5 1103,-726.5 1103,-732.5 1103,-732.5 1103,-754.5 1103,-754.5 1103,-760.5 1097,-766.5 1091,-766.5 1091,-766.5 795,-766.5 795,-766.5 789,-766.5 783,-760.5 783,-754.5 783,-754.5 783,-732.5 783,-732.5 783,-726.5 789,-720.5 795,-720.5"/>
<text text-anchor="middle" x="943" y="-751.3" font-family="Helvetica,sans-Serif" font-size="14.00">compressed_shapefile</text>
<polyline fill="none" stroke="black" points="783,-743.5 1103,-743.5 "/>
<text text-anchor="middle" x="943" y="-728.3" font-family="Helvetica,sans-Serif" font-size="14.00">file:data/{study_region}/{study_region}_tracts.zip</text>
</g>
<!-- download_shapefile_archive&#45;&gt;compressed_shapefile -->
<g id="edge3" class="edge"><title>download_shapefile_archive&#45;&gt;compressed_shapefile</title>
<path fill="none" stroke="black" d="M943,-803.366C943,-795.152 943,-785.658 943,-776.725"/>
<polygon fill="black" stroke="black" points="946.5,-776.607 943,-766.607 939.5,-776.607 946.5,-776.607"/>
</g>
<!-- uncompress_shapefile -->
<g id="node3" class="node"><title>uncompress_shapefile</title>
<polygon fill="#ccffcc" stroke="black" points="741,-637.5 741,-683.5 1145,-683.5 1145,-637.5 741,-637.5"/>
<text text-anchor="middle" x="943" y="-668.3" font-family="Helvetica,sans-Serif" font-size="14.00">uncompress_shapefile</text>
<polyline fill="none" stroke="black" points="741,-660.5 1145,-660.5 "/>
<text text-anchor="middle" x="943" y="-645.3" font-family="Helvetica,sans-Serif" font-size="14.00">create a directory as the archive filename and extract the files.</text>
</g>
<!-- layer_boundary -->
<g id="node12" class="node"><title>layer_boundary</title>
<path fill="#ffffcc" stroke="black" d="M36.5,-554.5C36.5,-554.5 579.5,-554.5 579.5,-554.5 585.5,-554.5 591.5,-560.5 591.5,-566.5 591.5,-566.5 591.5,-588.5 591.5,-588.5 591.5,-594.5 585.5,-600.5 579.5,-600.5 579.5,-600.5 36.5,-600.5 36.5,-600.5 30.5,-600.5 24.5,-594.5 24.5,-588.5 24.5,-588.5 24.5,-566.5 24.5,-566.5 24.5,-560.5 30.5,-554.5 36.5,-554.5"/>
<text text-anchor="middle" x="308" y="-585.3" font-family="Helvetica,sans-Serif" font-size="14.00">layer_boundary</text>
<polyline fill="none" stroke="black" points="24.5,-577.5 591.5,-577.5 "/>
<text text-anchor="middle" x="308" y="-562.3" font-family="Helvetica,sans-Serif" font-size="14.00">file:data/{study_region}/{study_region}_tracts/{study_region}_boundary.{file_extensions}</text>
</g>
<!-- uncompress_shapefile&#45;&gt;layer_boundary -->
<g id="edge7" class="edge"><title>uncompress_shapefile&#45;&gt;layer_boundary</title>
<path fill="none" stroke="black" d="M770.322,-637.473C683.683,-626.422 578.733,-613.034 490.74,-601.81"/>
<polygon fill="black" stroke="black" points="491.006,-598.316 480.643,-600.522 490.12,-605.26 491.006,-598.316"/>
</g>
<!-- shapefiles_dir -->
<g id="node13" class="node"><title>shapefiles_dir</title>
<path fill="#ffffcc" stroke="black" d="M622,-554.5C622,-554.5 896,-554.5 896,-554.5 902,-554.5 908,-560.5 908,-566.5 908,-566.5 908,-588.5 908,-588.5 908,-594.5 902,-600.5 896,-600.5 896,-600.5 622,-600.5 622,-600.5 616,-600.5 610,-594.5 610,-588.5 610,-588.5 610,-566.5 610,-566.5 610,-560.5 616,-554.5 622,-554.5"/>
<text text-anchor="middle" x="759" y="-585.3" font-family="Helvetica,sans-Serif" font-size="14.00">shapefiles_dir</text>
<polyline fill="none" stroke="black" points="610,-577.5 908,-577.5 "/>
<text text-anchor="middle" x="759" y="-562.3" font-family="Helvetica,sans-Serif" font-size="14.00">file:data/{study_region}/{study_region}_tracts</text>
</g>
<!-- uncompress_shapefile&#45;&gt;shapefiles_dir -->
<g id="edge6" class="edge"><title>uncompress_shapefile&#45;&gt;shapefiles_dir</title>
<path fill="none" stroke="black" d="M892.721,-637.366C869.801,-627.277 842.498,-615.257 818.556,-604.718"/>
<polygon fill="black" stroke="black" points="819.781,-601.433 809.218,-600.607 816.96,-607.839 819.781,-601.433"/>
</g>
<!-- layer_tracts -->
<g id="node17" class="node"><title>layer_tracts</title>
<path fill="#fcfcfc" stroke="black" d="M1003.5,-595.5C1003.5,-595.5 938.5,-595.5 938.5,-595.5 932.5,-595.5 926.5,-589.5 926.5,-583.5 926.5,-583.5 926.5,-571.5 926.5,-571.5 926.5,-565.5 932.5,-559.5 938.5,-559.5 938.5,-559.5 1003.5,-559.5 1003.5,-559.5 1009.5,-559.5 1015.5,-565.5 1015.5,-571.5 1015.5,-571.5 1015.5,-583.5 1015.5,-583.5 1015.5,-589.5 1009.5,-595.5 1003.5,-595.5"/>
<text text-anchor="middle" x="971" y="-573.8" font-family="Helvetica,sans-Serif" font-size="14.00">layer_tracts</text>
</g>
<!-- uncompress_shapefile&#45;&gt;layer_tracts -->
<g id="edge8" class="edge"><title>uncompress_shapefile&#45;&gt;layer_tracts</title>
<path fill="none" stroke="black" d="M950.651,-637.366C954.087,-627.427 958.17,-615.616 961.773,-605.191"/>
<polygon fill="black" stroke="black" points="965.086,-606.322 965.045,-595.728 958.47,-604.035 965.086,-606.322"/>
</g>
<!-- metadata_xml_file -->
<g id="node18" class="node"><title>metadata_xml_file</title>
<path fill="#fcfcfc" stroke="black" d="M1154,-595.5C1154,-595.5 1046,-595.5 1046,-595.5 1040,-595.5 1034,-589.5 1034,-583.5 1034,-583.5 1034,-571.5 1034,-571.5 1034,-565.5 1040,-559.5 1046,-559.5 1046,-559.5 1154,-559.5 1154,-559.5 1160,-559.5 1166,-565.5 1166,-571.5 1166,-571.5 1166,-583.5 1166,-583.5 1166,-589.5 1160,-595.5 1154,-595.5"/>
<text text-anchor="middle" x="1100" y="-573.8" font-family="Helvetica,sans-Serif" font-size="14.00">metadata_xml_file</text>
</g>
<!-- uncompress_shapefile&#45;&gt;metadata_xml_file -->
<g id="edge9" class="edge"><title>uncompress_shapefile&#45;&gt;metadata_xml_file</title>
<path fill="none" stroke="black" d="M985.901,-637.366C1008.32,-625.798 1035.66,-611.693 1057.96,-600.19"/>
<polygon fill="black" stroke="black" points="1059.58,-603.293 1066.86,-595.598 1056.37,-597.072 1059.58,-603.293"/>
</g>
<!-- tracts_xml_file -->
<g id="node19" class="node"><title>tracts_xml_file</title>
<path fill="#fcfcfc" stroke="black" d="M1280,-595.5C1280,-595.5 1196,-595.5 1196,-595.5 1190,-595.5 1184,-589.5 1184,-583.5 1184,-583.5 1184,-571.5 1184,-571.5 1184,-565.5 1190,-559.5 1196,-559.5 1196,-559.5 1280,-559.5 1280,-559.5 1286,-559.5 1292,-565.5 1292,-571.5 1292,-571.5 1292,-583.5 1292,-583.5 1292,-589.5 1286,-595.5 1280,-595.5"/>
<text text-anchor="middle" x="1238" y="-573.8" font-family="Helvetica,sans-Serif" font-size="14.00">tracts_xml_file</text>
</g>
<!-- uncompress_shapefile&#45;&gt;tracts_xml_file -->
<g id="edge10" class="edge"><title>uncompress_shapefile&#45;&gt;tracts_xml_file</title>
<path fill="none" stroke="black" d="M1038.95,-637.497C1080.96,-627.3 1130.69,-614.466 1175,-601 1177.3,-600.302 1179.63,-599.57 1181.99,-598.814"/>
<polygon fill="black" stroke="black" points="1183.32,-602.059 1191.72,-595.597 1181.13,-595.413 1183.32,-602.059"/>
</g>
<!-- read_shapefile -->
<g id="node4" class="node"><title>read_shapefile</title>
<polygon fill="#ccffcc" stroke="black" points="533,-471.5 533,-517.5 985,-517.5 985,-471.5 533,-471.5"/>
<text text-anchor="middle" x="759" y="-502.3" font-family="Helvetica,sans-Serif" font-size="14.00">read_shapefile</text>
<polyline fill="none" stroke="black" points="533,-494.5 985,-494.5 "/>
<text text-anchor="middle" x="759" y="-479.3" font-family="Helvetica,sans-Serif" font-size="14.00">read the shapefile for the region and save it as a spatial vector object.</text>
</g>
<!-- dataframe -->
<g id="node14" class="node"><title>dataframe</title>
<path fill="#ffffcc" stroke="black" d="M962,-435C962,-435 906,-435 906,-435 900,-435 894,-429 894,-423 894,-423 894,-411 894,-411 894,-405 900,-399 906,-399 906,-399 962,-399 962,-399 968,-399 974,-405 974,-411 974,-411 974,-423 974,-423 974,-429 968,-435 962,-435"/>
<text text-anchor="middle" x="934" y="-413.3" font-family="Helvetica,sans-Serif" font-size="14.00">dataframe</text>
</g>
<!-- read_shapefile&#45;&gt;dataframe -->
<g id="edge13" class="edge"><title>read_shapefile&#45;&gt;dataframe</title>
<path fill="none" stroke="black" d="M810.088,-471.459C833.762,-461.245 861.766,-449.164 885.156,-439.073"/>
<polygon fill="black" stroke="black" points="886.743,-442.2 894.538,-435.025 883.97,-435.773 886.743,-442.2"/>
</g>
<!-- get_treepolygon -->
<g id="node5" class="node"><title>get_treepolygon</title>
<polygon fill="#ccffcc" stroke="black" points="668.5,-316.5 668.5,-362.5 1093.5,-362.5 1093.5,-316.5 668.5,-316.5"/>
<text text-anchor="middle" x="881" y="-347.3" font-family="Helvetica,sans-Serif" font-size="14.00">get_treepolygon</text>
<polyline fill="none" stroke="black" points="668.5,-339.5 1093.5,-339.5 "/>
<text text-anchor="middle" x="881" y="-324.3" font-family="Helvetica,sans-Serif" font-size="14.00">Get Tree&#45;ring data from the ITRDB for tree_buffer around GRCA</text>
</g>
<!-- treepolygon -->
<g id="node15" class="node"><title>treepolygon</title>
<path fill="#ffffcc" stroke="black" d="M1014,-280C1014,-280 946,-280 946,-280 940,-280 934,-274 934,-268 934,-268 934,-256 934,-256 934,-250 940,-244 946,-244 946,-244 1014,-244 1014,-244 1020,-244 1026,-250 1026,-256 1026,-256 1026,-268 1026,-268 1026,-274 1020,-280 1014,-280"/>
<text text-anchor="middle" x="980" y="-258.3" font-family="Helvetica,sans-Serif" font-size="14.00">treepolygon</text>
</g>
<!-- get_treepolygon&#45;&gt;treepolygon -->
<g id="edge16" class="edge"><title>get_treepolygon&#45;&gt;treepolygon</title>
<path fill="none" stroke="black" d="M909.901,-316.459C922.354,-306.962 936.925,-295.85 949.546,-286.225"/>
<polygon fill="black" stroke="black" points="951.688,-288.993 957.517,-280.146 947.443,-283.427 951.688,-288.993"/>
</g>
<!-- extract_tree_ring_data -->
<g id="node6" class="node"><title>extract_tree_ring_data</title>
<polygon fill="#ccffcc" stroke="black" points="485,-161.5 485,-207.5 973,-207.5 973,-161.5 485,-161.5"/>
<text text-anchor="middle" x="729" y="-192.3" font-family="Helvetica,sans-Serif" font-size="14.00">extract_tree_ring_data</text>
<polyline fill="none" stroke="black" points="485,-184.5 973,-184.5 "/>
<text text-anchor="middle" x="729" y="-169.3" font-family="Helvetica,sans-Serif" font-size="14.00">get all the tree ring chronologies and extract the values for the study region.</text>
</g>
<!-- itrdb -->
<g id="node7" class="node"><title>itrdb</title>
<path fill="#ffffcc" stroke="black" d="M669,-78.5C669,-78.5 789,-78.5 789,-78.5 795,-78.5 801,-84.5 801,-90.5 801,-90.5 801,-112.5 801,-112.5 801,-118.5 795,-124.5 789,-124.5 789,-124.5 669,-124.5 669,-124.5 663,-124.5 657,-118.5 657,-112.5 657,-112.5 657,-90.5 657,-90.5 657,-84.5 663,-78.5 669,-78.5"/>
<text text-anchor="middle" x="729" y="-109.3" font-family="Helvetica,sans-Serif" font-size="14.00">itrdb</text>
<polyline fill="none" stroke="black" points="657,-101.5 801,-101.5 "/>
<text text-anchor="middle" x="729" y="-86.3" font-family="Helvetica,sans-Serif" font-size="14.00">file:data/IRTDB.Rda</text>
</g>
<!-- extract_tree_ring_data&#45;&gt;itrdb -->
<g id="edge20" class="edge"><title>extract_tree_ring_data&#45;&gt;itrdb</title>
<path fill="none" stroke="black" d="M729,-161.366C729,-153.152 729,-143.658 729,-134.725"/>
<polygon fill="black" stroke="black" points="732.5,-134.607 729,-124.607 725.5,-134.607 732.5,-134.607"/>
</g>
<!-- itrdb_output_port -->
<g id="node32" class="node"><title>itrdb_output_port</title>
<ellipse fill="#ffffff" stroke="black" cx="729" cy="-31" rx="7" ry="7"/>
</g>
<!-- itrdb&#45;&gt;itrdb_output_port -->
<g id="edge33" class="edge"><title>itrdb&#45;&gt;itrdb_output_port</title>
<path fill="none" stroke="black" d="M729,-78.4491C729,-68.6592 729,-57.3397 729,-48.3261"/>
<polygon fill="black" stroke="black" points="732.5,-48.1278 729,-38.1279 725.5,-48.1279 732.5,-48.1278"/>
</g>
<!-- study_region -->
<g id="node8" class="node"><title>study_region</title>
<path fill="#ffffcc" stroke="black" d="M862,-1088C862,-1088 788,-1088 788,-1088 782,-1088 776,-1082 776,-1076 776,-1076 776,-1064 776,-1064 776,-1058 782,-1052 788,-1052 788,-1052 862,-1052 862,-1052 868,-1052 874,-1058 874,-1064 874,-1064 874,-1076 874,-1076 874,-1082 868,-1088 862,-1088"/>
<text text-anchor="middle" x="825" y="-1066.3" font-family="Helvetica,sans-Serif" font-size="14.00">study_region</text>
</g>
<!-- study_region&#45;&gt;create_shapefile_dir -->
<g id="edge2" class="edge"><title>study_region&#45;&gt;create_shapefile_dir</title>
<path fill="none" stroke="black" d="M804.805,-1051.87C794.554,-1043.17 781.821,-1032.37 770.106,-1022.43"/>
<polygon fill="black" stroke="black" points="772.091,-1019.53 762.201,-1015.73 767.563,-1024.86 772.091,-1019.53"/>
</g>
<!-- shapefile_archive -->
<g id="node9" class="node"><title>shapefile_archive</title>
<path fill="#ffffcc" stroke="black" d="M822,-886.5C822,-886.5 1208,-886.5 1208,-886.5 1214,-886.5 1220,-892.5 1220,-898.5 1220,-898.5 1220,-920.5 1220,-920.5 1220,-926.5 1214,-932.5 1208,-932.5 1208,-932.5 822,-932.5 822,-932.5 816,-932.5 810,-926.5 810,-920.5 810,-920.5 810,-898.5 810,-898.5 810,-892.5 816,-886.5 822,-886.5"/>
<text text-anchor="middle" x="1015" y="-917.3" font-family="Helvetica,sans-Serif" font-size="14.00">shapefile_archive</text>
<polyline fill="none" stroke="black" points="810,-909.5 1220,-909.5 "/>
<text text-anchor="middle" x="1015" y="-894.3" font-family="Helvetica,sans-Serif" font-size="14.00">http://nrdata.nps.gov/programs/Lands/{study_region}_tracts.zip</text>
</g>
<!-- shapefile_archive&#45;&gt;download_shapefile_archive -->
<g id="edge4" class="edge"><title>shapefile_archive&#45;&gt;download_shapefile_archive</title>
<path fill="none" stroke="black" d="M995.326,-886.366C987.309,-877.348 977.923,-866.788 969.33,-857.121"/>
<polygon fill="black" stroke="black" points="971.91,-854.756 962.651,-849.607 966.678,-859.406 971.91,-854.756"/>
</g>
<!-- user_created_dir&#45;&gt;download_shapefile_archive -->
<g id="edge5" class="edge"><title>user_created_dir&#45;&gt;download_shapefile_archive</title>
<path fill="none" stroke="black" d="M774.089,-886.473C803.752,-876.117 839.291,-863.709 870.1,-852.952"/>
<polygon fill="black" stroke="black" points="871.637,-856.123 879.924,-849.522 869.329,-849.514 871.637,-856.123"/>
</g>
<!-- user_created_dir&#45;&gt;uncompress_shapefile -->
<g id="edge12" class="edge"><title>user_created_dir&#45;&gt;uncompress_shapefile</title>
<path fill="none" stroke="black" d="M630.247,-887.265C612.391,-878.664 595.64,-866.671 585,-850 573.762,-832.392 573.579,-820.49 585,-803 625.746,-740.605 698.916,-705.719 768.534,-686.216"/>
<polygon fill="black" stroke="black" points="769.592,-689.556 778.33,-683.565 767.763,-682.799 769.592,-689.556"/>
</g>
<!-- compressed_shapefile&#45;&gt;uncompress_shapefile -->
<g id="edge11" class="edge"><title>compressed_shapefile&#45;&gt;uncompress_shapefile</title>
<path fill="none" stroke="black" d="M943,-720.366C943,-712.152 943,-702.658 943,-693.725"/>
<polygon fill="black" stroke="black" points="946.5,-693.607 943,-683.607 939.5,-693.607 946.5,-693.607"/>
</g>
<!-- layer_boundary&#45;&gt;read_shapefile -->
<g id="edge14" class="edge"><title>layer_boundary&#45;&gt;read_shapefile</title>
<path fill="none" stroke="black" d="M430.642,-554.473C491.178,-543.601 564.3,-530.468 626.16,-519.358"/>
<polygon fill="black" stroke="black" points="627.159,-522.735 636.382,-517.522 625.921,-515.845 627.159,-522.735"/>
</g>
<!-- shapefiles_dir&#45;&gt;read_shapefile -->
<g id="edge15" class="edge"><title>shapefiles_dir&#45;&gt;read_shapefile</title>
<path fill="none" stroke="black" d="M759,-554.366C759,-546.152 759,-536.658 759,-527.725"/>
<polygon fill="black" stroke="black" points="762.5,-527.607 759,-517.607 755.5,-527.607 762.5,-527.607"/>
</g>
<!-- dataframe&#45;&gt;get_treepolygon -->
<g id="edge18" class="edge"><title>dataframe&#45;&gt;get_treepolygon</title>
<path fill="none" stroke="black" d="M921.973,-398.868C916.221,-390.674 909.156,-380.61 902.523,-371.16"/>
<polygon fill="black" stroke="black" points="905.213,-368.9 896.603,-362.727 899.484,-372.922 905.213,-368.9"/>
</g>
<!-- treepolygon&#45;&gt;extract_tree_ring_data -->
<g id="edge21" class="edge"><title>treepolygon&#45;&gt;extract_tree_ring_data</title>
<path fill="none" stroke="black" d="M933.796,-246.683C930.821,-245.772 927.869,-244.871 925,-244 888.352,-232.867 847.792,-220.731 813.123,-210.413"/>
<polygon fill="black" stroke="black" points="814.091,-207.049 803.508,-207.553 812.096,-213.759 814.091,-207.049"/>
</g>
<!-- prediction_years -->
<g id="node16" class="node"><title>prediction_years</title>
<path fill="#ffffcc" stroke="black" d="M1217,-280C1217,-280 1119,-280 1119,-280 1113,-280 1107,-274 1107,-268 1107,-268 1107,-256 1107,-256 1107,-250 1113,-244 1119,-244 1119,-244 1217,-244 1217,-244 1223,-244 1229,-250 1229,-256 1229,-256 1229,-268 1229,-268 1229,-274 1223,-280 1217,-280"/>
<text text-anchor="middle" x="1168" y="-258.3" font-family="Helvetica,sans-Serif" font-size="14.00">prediction_years</text>
</g>
<!-- prediction_years&#45;&gt;extract_tree_ring_data -->
<g id="edge25" class="edge"><title>prediction_years&#45;&gt;extract_tree_ring_data</title>
<path fill="none" stroke="black" d="M1106.96,-250.502C1045.28,-239.894 947.855,-223.139 867.369,-209.297"/>
<polygon fill="black" stroke="black" points="867.587,-205.783 857.139,-207.538 866.401,-212.682 867.587,-205.783"/>
</g>
<!-- tree_buffer -->
<g id="node20" class="node"><title>tree_buffer</title>
<path fill="#fcfcfc" stroke="black" d="M863.5,-435C863.5,-435 800.5,-435 800.5,-435 794.5,-435 788.5,-429 788.5,-423 788.5,-423 788.5,-411 788.5,-411 788.5,-405 794.5,-399 800.5,-399 800.5,-399 863.5,-399 863.5,-399 869.5,-399 875.5,-405 875.5,-411 875.5,-411 875.5,-423 875.5,-423 875.5,-429 869.5,-435 863.5,-435"/>
<text text-anchor="middle" x="832" y="-413.3" font-family="Helvetica,sans-Serif" font-size="14.00">tree_buffer</text>
</g>
<!-- tree_buffer&#45;&gt;get_treepolygon -->
<g id="edge17" class="edge"><title>tree_buffer&#45;&gt;get_treepolygon</title>
<path fill="none" stroke="black" d="M843.119,-398.868C848.437,-390.674 854.969,-380.61 861.101,-371.16"/>
<polygon fill="black" stroke="black" points="864.067,-373.02 866.575,-362.727 858.195,-369.209 864.067,-373.02"/>
</g>
<!-- segments_approx_quarter_circle -->
<g id="node21" class="node"><title>segments_approx_quarter_circle</title>
<path fill="#fcfcfc" stroke="black" d="M758,-435C758,-435 556,-435 556,-435 550,-435 544,-429 544,-423 544,-423 544,-411 544,-411 544,-405 550,-399 556,-399 556,-399 758,-399 758,-399 764,-399 770,-405 770,-411 770,-411 770,-423 770,-423 770,-429 764,-435 758,-435"/>
<text text-anchor="middle" x="657" y="-413.3" font-family="Helvetica,sans-Serif" font-size="14.00">segments_approx_quarter_circle</text>
</g>
<!-- segments_approx_quarter_circle&#45;&gt;get_treepolygon -->
<g id="edge19" class="edge"><title>segments_approx_quarter_circle&#45;&gt;get_treepolygon</title>
<path fill="none" stroke="black" d="M707.549,-398.962C736.433,-389.227 773.215,-376.829 805.467,-365.959"/>
<polygon fill="black" stroke="black" points="806.959,-369.149 815.317,-362.639 804.723,-362.516 806.959,-369.149"/>
</g>
<!-- label -->
<g id="node22" class="node"><title>label</title>
<path fill="#fcfcfc" stroke="black" d="M904,-280C904,-280 874,-280 874,-280 868,-280 862,-274 862,-268 862,-268 862,-256 862,-256 862,-250 868,-244 874,-244 874,-244 904,-244 904,-244 910,-244 916,-250 916,-256 916,-256 916,-268 916,-268 916,-274 910,-280 904,-280"/>
<text text-anchor="middle" x="889" y="-258.3" font-family="Helvetica,sans-Serif" font-size="14.00">label</text>
</g>
<!-- label&#45;&gt;extract_tree_ring_data -->
<g id="edge22" class="edge"><title>label&#45;&gt;extract_tree_ring_data</title>
<path fill="none" stroke="black" d="M861.858,-248.192C840.803,-238.257 810.906,-224.149 784.803,-211.832"/>
<polygon fill="black" stroke="black" points="786.286,-208.662 775.749,-207.56 783.299,-214.993 786.286,-208.662"/>
</g>
<!-- raw.dir -->
<g id="node23" class="node"><title>raw.dir</title>
<path fill="#fcfcfc" stroke="black" d="M832,-280C832,-280 798,-280 798,-280 792,-280 786,-274 786,-268 786,-268 786,-256 786,-256 786,-250 792,-244 798,-244 798,-244 832,-244 832,-244 838,-244 844,-250 844,-256 844,-256 844,-268 844,-268 844,-274 838,-280 832,-280"/>
<text text-anchor="middle" x="815" y="-258.3" font-family="Helvetica,sans-Serif" font-size="14.00">raw.dir</text>
</g>
<!-- raw.dir&#45;&gt;extract_tree_ring_data -->
<g id="edge23" class="edge"><title>raw.dir&#45;&gt;extract_tree_ring_data</title>
<path fill="none" stroke="black" d="M795.485,-243.868C785.58,-235.172 773.276,-224.37 761.956,-214.432"/>
<polygon fill="black" stroke="black" points="764.142,-211.694 754.318,-207.727 759.524,-216.954 764.142,-211.694"/>
</g>
<!-- extract.dir -->
<g id="node24" class="node"><title>extract.dir</title>
<path fill="#fcfcfc" stroke="black" d="M756,-280C756,-280 702,-280 702,-280 696,-280 690,-274 690,-268 690,-268 690,-256 690,-256 690,-250 696,-244 702,-244 702,-244 756,-244 756,-244 762,-244 768,-250 768,-256 768,-256 768,-268 768,-268 768,-274 762,-280 756,-280"/>
<text text-anchor="middle" x="729" y="-258.3" font-family="Helvetica,sans-Serif" font-size="14.00">extract.dir</text>
</g>
<!-- extract.dir&#45;&gt;extract_tree_ring_data -->
<g id="edge24" class="edge"><title>extract.dir&#45;&gt;extract_tree_ring_data</title>
<path fill="none" stroke="black" d="M729,-243.868C729,-236.175 729,-226.835 729,-217.902"/>
<polygon fill="black" stroke="black" points="732.5,-217.727 729,-207.727 725.5,-217.727 732.5,-217.727"/>
</g>
<!-- calibration_years -->
<g id="node25" class="node"><title>calibration_years</title>
<path fill="#fcfcfc" stroke="black" d="M659.5,-280C659.5,-280 560.5,-280 560.5,-280 554.5,-280 548.5,-274 548.5,-268 548.5,-268 548.5,-256 548.5,-256 548.5,-250 554.5,-244 560.5,-244 560.5,-244 659.5,-244 659.5,-244 665.5,-244 671.5,-250 671.5,-256 671.5,-256 671.5,-268 671.5,-268 671.5,-274 665.5,-280 659.5,-280"/>
<text text-anchor="middle" x="610" y="-258.3" font-family="Helvetica,sans-Serif" font-size="14.00">calibration_years</text>
</g>
<!-- calibration_years&#45;&gt;extract_tree_ring_data -->
<g id="edge26" class="edge"><title>calibration_years&#45;&gt;extract_tree_ring_data</title>
<path fill="none" stroke="black" d="M637.003,-243.868C651.236,-234.837 669.049,-223.536 685.199,-213.29"/>
<polygon fill="black" stroke="black" points="687.398,-216.039 693.967,-207.727 683.648,-210.129 687.398,-216.039"/>
</g>
<!-- measurement_type -->
<g id="node26" class="node"><title>measurement_type</title>
<path fill="#fcfcfc" stroke="black" d="M518.5,-280C518.5,-280 403.5,-280 403.5,-280 397.5,-280 391.5,-274 391.5,-268 391.5,-268 391.5,-256 391.5,-256 391.5,-250 397.5,-244 403.5,-244 403.5,-244 518.5,-244 518.5,-244 524.5,-244 530.5,-250 530.5,-256 530.5,-256 530.5,-268 530.5,-268 530.5,-274 524.5,-280 518.5,-280"/>
<text text-anchor="middle" x="461" y="-258.3" font-family="Helvetica,sans-Serif" font-size="14.00">measurement_type</text>
</g>
<!-- measurement_type&#45;&gt;extract_tree_ring_data -->
<g id="edge27" class="edge"><title>measurement_type&#45;&gt;extract_tree_ring_data</title>
<path fill="none" stroke="black" d="M521.479,-243.962C556.703,-234.039 601.745,-221.35 640.858,-210.331"/>
<polygon fill="black" stroke="black" points="641.989,-213.649 650.665,-207.568 640.091,-206.911 641.989,-213.649"/>
</g>
<!-- chronology_type -->
<g id="node27" class="node"><title>chronology_type</title>
<path fill="#fcfcfc" stroke="black" d="M361,-280C361,-280 263,-280 263,-280 257,-280 251,-274 251,-268 251,-268 251,-256 251,-256 251,-250 257,-244 263,-244 263,-244 361,-244 361,-244 367,-244 373,-250 373,-256 373,-256 373,-268 373,-268 373,-274 367,-280 361,-280"/>
<text text-anchor="middle" x="312" y="-258.3" font-family="Helvetica,sans-Serif" font-size="14.00">chronology_type</text>
</g>
<!-- chronology_type&#45;&gt;extract_tree_ring_data -->
<g id="edge28" class="edge"><title>chronology_type&#45;&gt;extract_tree_ring_data</title>
<path fill="none" stroke="black" d="M373.026,-245.908C376.056,-245.244 379.06,-244.604 382,-244 444.64,-231.131 514.067,-219.005 574.26,-209.167"/>
<polygon fill="black" stroke="black" points="574.916,-212.606 584.224,-207.545 573.792,-205.697 574.916,-212.606"/>
</g>
<!-- force.redo -->
<g id="node28" class="node"><title>force.redo</title>
<path fill="#fcfcfc" stroke="black" d="M220.5,-280C220.5,-280 161.5,-280 161.5,-280 155.5,-280 149.5,-274 149.5,-268 149.5,-268 149.5,-256 149.5,-256 149.5,-250 155.5,-244 161.5,-244 161.5,-244 220.5,-244 220.5,-244 226.5,-244 232.5,-250 232.5,-256 232.5,-256 232.5,-268 232.5,-268 232.5,-274 226.5,-280 220.5,-280"/>
<text text-anchor="middle" x="191" y="-258.3" font-family="Helvetica,sans-Serif" font-size="14.00">force.redo</text>
</g>
<!-- force.redo&#45;&gt;extract_tree_ring_data -->
<g id="edge29" class="edge"><title>force.redo&#45;&gt;extract_tree_ring_data</title>
<path fill="none" stroke="black" d="M232.555,-246.387C235.73,-245.504 238.904,-244.695 242,-244 316.85,-227.211 399.323,-214.994 474.786,-206.21"/>
<polygon fill="black" stroke="black" points="475.372,-209.666 484.907,-205.048 474.573,-202.712 475.372,-209.666"/>
</g>
<!-- shapefile_archive_input_port -->
<g id="node29" class="node"><title>shapefile_archive_input_port</title>
<ellipse fill="#ffffff" stroke="black" cx="1015" cy="-1135" rx="7" ry="7"/>
</g>
<!-- shapefile_archive_input_port&#45;&gt;shapefile_archive -->
<g id="edge30" class="edge"><title>shapefile_archive_input_port&#45;&gt;shapefile_archive</title>
<path fill="none" stroke="black" d="M1015,-1127.55C1015,-1100.65 1015,-996.233 1015,-942.638"/>
<polygon fill="black" stroke="black" points="1018.5,-942.635 1015,-932.635 1011.5,-942.635 1018.5,-942.635"/>
</g>
<!-- study_region_input_port -->
<g id="node30" class="node"><title>study_region_input_port</title>
<ellipse fill="#ffffff" stroke="black" cx="983" cy="-1135" rx="7" ry="7"/>
</g>
<!-- study_region_input_port&#45;&gt;study_region -->
<g id="edge31" class="edge"><title>study_region_input_port&#45;&gt;study_region</title>
<path fill="none" stroke="black" d="M976.611,-1131.45C960.022,-1124.84 914.307,-1106.61 877.379,-1091.89"/>
<polygon fill="black" stroke="black" points="878.302,-1088.49 867.716,-1088.03 875.709,-1094.99 878.302,-1088.49"/>
</g>
<!-- prediction_years_input_port -->
<g id="node31" class="node"><title>prediction_years_input_port</title>
<ellipse fill="#ffffff" stroke="black" cx="1047" cy="-1135" rx="7" ry="7"/>
</g>
<!-- prediction_years_input_port&#45;&gt;prediction_years -->
<g id="edge32" class="edge"><title>prediction_years_input_port&#45;&gt;prediction_years</title>
<path fill="none" stroke="black" d="M1054.02,-1133.78C1096.75,-1132.01 1320,-1116.9 1320,-993.5 1320,-993.5 1320,-993.5 1320,-416 1320,-355.224 1258.89,-310.009 1214.17,-285.055"/>
<polygon fill="black" stroke="black" points="1215.64,-281.874 1205.18,-280.188 1212.31,-288.029 1215.64,-281.874"/>
</g>
</g>
</svg>
