<?xml version="1.0" encoding="UTF-8" standalone="no"?>
<!DOCTYPE svg PUBLIC "-//W3C//DTD SVG 1.1//EN"
 "http://www.w3.org/Graphics/SVG/1.1/DTD/svg11.dtd">
<!-- Generated by graphviz version 2.38.0 (20140413.2041)
 -->
<!-- Title: Workflow Pages: 1 -->
<svg width="614pt" height="394pt"
 viewBox="0.00 0.00 614.00 394.00" xmlns="http://www.w3.org/2000/svg" xmlns:xlink="http://www.w3.org/1999/xlink">
<g id="graph0" class="graph" transform="scale(1 1) rotate(0) translate(4 390)">
<title>Workflow</title>
<polygon fill="white" stroke="none" points="-4,4 -4,-390 610,-390 610,4 -4,4"/>
<text text-anchor="middle" x="303" y="-367.6" font-family="Helvetica,sans-Serif" font-size="18.00">get_tree_ring_chronologies</text>
<g id="clust1" class="cluster"><title>cluster_workflow_box_outer</title>
<polygon fill="none" stroke="black" stroke-width="2" points="8,-62 8,-296 598,-296 598,-62 8,-62"/>
</g>
<g id="clust2" class="cluster"><title>cluster_workflow_box_inner</title>
<polygon fill="none" stroke="black" stroke-width="0" points="16,-70 16,-288 590,-288 590,-70 16,-70"/>
</g>
<g id="clust3" class="cluster"><title>cluster_input_ports_group_outer</title>
<polygon fill="none" stroke="black" stroke-width="0" points="210,-304 210,-350 288,-350 288,-304 210,-304"/>
</g>
<g id="clust4" class="cluster"><title>cluster_input_ports_group_inner</title>
<polygon fill="none" stroke="black" stroke-width="0" points="218,-312 218,-342 280,-342 280,-312 218,-312"/>
</g>
<g id="clust5" class="cluster"><title>cluster_output_ports_group_outer</title>
<polygon fill="none" stroke="black" stroke-width="0" points="280,-8 280,-54 326,-54 326,-8 280,-8"/>
</g>
<g id="clust6" class="cluster"><title>cluster_output_ports_group_inner</title>
<polygon fill="none" stroke="black" stroke-width="0" points="288,-16 288,-46 318,-46 318,-16 288,-16"/>
</g>
<!-- get_tree_ring_chronologies -->
<g id="node1" class="node"><title>get_tree_ring_chronologies</title>
<polygon fill="#ccffcc" stroke="black" points="24.5,-150.5 24.5,-196.5 581.5,-196.5 581.5,-150.5 24.5,-150.5"/>
<text text-anchor="middle" x="303" y="-181.3" font-family="Helvetica,sans-Serif" font-size="14.00">get_tree_ring_chronologies</text>
<polyline fill="none" stroke="black" points="24.5,-173.5 581.5,-173.5 "/>
<text text-anchor="middle" x="303" y="-158.3" font-family="Helvetica,sans-Serif" font-size="14.00">extract the values of the tree ring chronologies used for reconstruction for a given year</text>
</g>
<!-- tree_ring_chronologies -->
<g id="node2" class="node"><title>tree_ring_chronologies</title>
<path fill="#ffffcc" stroke="black" d="M372.5,-114C372.5,-114 233.5,-114 233.5,-114 227.5,-114 221.5,-108 221.5,-102 221.5,-102 221.5,-90 221.5,-90 221.5,-84 227.5,-78 233.5,-78 233.5,-78 372.5,-78 372.5,-78 378.5,-78 384.5,-84 384.5,-90 384.5,-90 384.5,-102 384.5,-102 384.5,-108 378.5,-114 372.5,-114"/>
<text text-anchor="middle" x="303" y="-92.3" font-family="Helvetica,sans-Serif" font-size="14.00">tree_ring_chronologies</text>
</g>
<!-- get_tree_ring_chronologies&#45;&gt;tree_ring_chronologies -->
<g id="edge1" class="edge"><title>get_tree_ring_chronologies&#45;&gt;tree_ring_chronologies</title>
<path fill="none" stroke="black" d="M303,-150.256C303,-142.182 303,-132.962 303,-124.489"/>
<polygon fill="black" stroke="black" points="306.5,-124.298 303,-114.298 299.5,-124.298 306.5,-124.298"/>
</g>
<!-- tree_ring_chronologies_output_port -->
<g id="node7" class="node"><title>tree_ring_chronologies_output_port</title>
<ellipse fill="#ffffff" stroke="black" cx="303" cy="-31" rx="7" ry="7"/>
</g>
<!-- tree_ring_chronologies&#45;&gt;tree_ring_chronologies_output_port -->
<g id="edge6" class="edge"><title>tree_ring_chronologies&#45;&gt;tree_ring_chronologies_output_port</title>
<path fill="none" stroke="black" d="M303,-77.785C303,-68.6656 303,-57.5197 303,-48.5085"/>
<polygon fill="black" stroke="black" points="306.5,-48.242 303,-38.242 299.5,-48.2421 306.5,-48.242"/>
</g>
<!-- paleocar_models -->
<g id="node3" class="node"><title>paleocar_models</title>
<path fill="#ffffcc" stroke="black" d="M216,-233.5C216,-233.5 526,-233.5 526,-233.5 532,-233.5 538,-239.5 538,-245.5 538,-245.5 538,-267.5 538,-267.5 538,-273.5 532,-279.5 526,-279.5 526,-279.5 216,-279.5 216,-279.5 210,-279.5 204,-273.5 204,-267.5 204,-267.5 204,-245.5 204,-245.5 204,-239.5 210,-233.5 216,-233.5"/>
<text text-anchor="middle" x="371" y="-264.3" font-family="Helvetica,sans-Serif" font-size="14.00">paleocar_models</text>
<polyline fill="none" stroke="black" points="204,-256.5 538,-256.5 "/>
<text text-anchor="middle" x="371" y="-241.3" font-family="Helvetica,sans-Serif" font-size="14.00">file:.output/{session_id}{run_id}/{label}_models.rds</text>
</g>
<!-- paleocar_models&#45;&gt;get_tree_ring_chronologies -->
<g id="edge2" class="edge"><title>paleocar_models&#45;&gt;get_tree_ring_chronologies</title>
<path fill="none" stroke="black" d="M352.419,-233.366C344.923,-224.437 336.158,-213.997 328.109,-204.409"/>
<polygon fill="black" stroke="black" points="330.669,-202.015 321.559,-196.607 325.308,-206.516 330.669,-202.015"/>
</g>
<!-- user_input_year -->
<g id="node4" class="node"><title>user_input_year</title>
<path fill="#ffffcc" stroke="black" d="M174,-274.5C174,-274.5 80,-274.5 80,-274.5 74,-274.5 68,-268.5 68,-262.5 68,-262.5 68,-250.5 68,-250.5 68,-244.5 74,-238.5 80,-238.5 80,-238.5 174,-238.5 174,-238.5 180,-238.5 186,-244.5 186,-250.5 186,-250.5 186,-262.5 186,-262.5 186,-268.5 180,-274.5 174,-274.5"/>
<text text-anchor="middle" x="127" y="-252.8" font-family="Helvetica,sans-Serif" font-size="14.00">user_input_year</text>
</g>
<!-- user_input_year&#45;&gt;get_tree_ring_chronologies -->
<g id="edge3" class="edge"><title>user_input_year&#45;&gt;get_tree_ring_chronologies</title>
<path fill="none" stroke="black" d="M164.325,-238.322C187.974,-227.438 219.029,-213.146 245.755,-200.846"/>
<polygon fill="black" stroke="black" points="247.388,-203.947 255.009,-196.587 244.462,-197.588 247.388,-203.947"/>
</g>
<!-- paleocar_models_input_port -->
<g id="node5" class="node"><title>paleocar_models_input_port</title>
<ellipse fill="#ffffff" stroke="black" cx="265" cy="-327" rx="7" ry="7"/>
</g>
<!-- paleocar_models_input_port&#45;&gt;paleocar_models -->
<g id="edge4" class="edge"><title>paleocar_models_input_port&#45;&gt;paleocar_models</title>
<path fill="none" stroke="black" d="M270.402,-322.509C281.139,-315.571 306.056,-299.469 328.403,-285.027"/>
<polygon fill="black" stroke="black" points="330.309,-287.963 336.808,-279.596 326.509,-282.084 330.309,-287.963"/>
</g>
<!-- user_input_year_input_port -->
<g id="node6" class="node"><title>user_input_year_input_port</title>
<ellipse fill="#ffffff" stroke="black" cx="233" cy="-327" rx="7" ry="7"/>
</g>
<!-- user_input_year_input_port&#45;&gt;user_input_year -->
<g id="edge5" class="edge"><title>user_input_year_input_port&#45;&gt;user_input_year</title>
<path fill="none" stroke="black" d="M227.598,-322.509C215.649,-314.787 186.138,-295.716 162.15,-280.215"/>
<polygon fill="black" stroke="black" points="163.904,-277.181 153.605,-274.693 160.104,-283.06 163.904,-277.181"/>
</g>
</g>
</svg>
