<?xml version="1.0" encoding="UTF-8" standalone="no"?>
<!DOCTYPE svg PUBLIC "-//W3C//DTD SVG 1.1//EN"
 "http://www.w3.org/Graphics/SVG/1.1/DTD/svg11.dtd">
<!-- Generated by graphviz version 2.38.0 (20140413.2041)
 -->
<!-- Title: Workflow Pages: 1 -->
<svg width="2285pt" height="726pt"
 viewBox="0.00 0.00 2285.19 726.00" xmlns="http://www.w3.org/2000/svg" xmlns:xlink="http://www.w3.org/1999/xlink">
<g id="graph0" class="graph" transform="scale(1 1) rotate(0) translate(4 722)">
<title>Workflow</title>
<polygon fill="white" stroke="none" points="-4,4 -4,-722 2281.19,-722 2281.19,4 -4,4"/>
<text text-anchor="middle" x="1138.59" y="-699.6" font-family="Helvetica,sans-Serif" font-size="18.00">paleocar_web&#45;app_data_flow</text>
<g id="clust1" class="cluster"><title>cluster_workflow_box_outer</title>
<polygon fill="none" stroke="black" stroke-width="2" points="52.188,-62 52.188,-628 2269.19,-628 2269.19,-62 52.188,-62"/>
</g>
<g id="clust2" class="cluster"><title>cluster_workflow_box_inner</title>
<polygon fill="none" stroke="black" stroke-width="0" points="60.188,-70 60.188,-620 2261.19,-620 2261.19,-70 60.188,-70"/>
</g>
<g id="clust3" class="cluster"><title>cluster_input_ports_group_outer</title>
<polygon fill="none" stroke="black" stroke-width="0" points="1133.19,-636 1133.19,-682 1435.19,-682 1435.19,-636 1133.19,-636"/>
</g>
<g id="clust4" class="cluster"><title>cluster_input_ports_group_inner</title>
<polygon fill="none" stroke="black" stroke-width="0" points="1141.19,-644 1141.19,-674 1427.19,-674 1427.19,-644 1141.19,-644"/>
</g>
<g id="clust5" class="cluster"><title>cluster_output_ports_group_outer</title>
<polygon fill="none" stroke="black" stroke-width="0" points="669.188,-8 669.188,-54 939.188,-54 939.188,-8 669.188,-8"/>
</g>
<g id="clust6" class="cluster"><title>cluster_output_ports_group_inner</title>
<polygon fill="none" stroke="black" stroke-width="0" points="677.188,-16 677.188,-46 931.188,-46 931.188,-16 677.188,-16"/>
</g>
<!-- get_client_data -->
<g id="node1" class="node"><title>get_client_data</title>
<polygon fill="#ccffcc" stroke="black" points="594.688,-493.5 594.688,-539.5 1255.69,-539.5 1255.69,-493.5 594.688,-493.5"/>
<text text-anchor="middle" x="925.188" y="-524.3" font-family="Helvetica,sans-Serif" font-size="14.00">get_client_data</text>
<polyline fill="none" stroke="black" points="594.688,-516.5 1255.69,-516.5 "/>
<text text-anchor="middle" x="925.188" y="-501.3" font-family="Helvetica,sans-Serif" font-size="14.00">get the data from the user and generate the client side metadata for storing the information of each run.</text>
</g>
<!-- coordinates -->
<g id="node15" class="node"><title>coordinates</title>
<path fill="#ffffcc" stroke="black" d="M744.688,-451.5C744.688,-451.5 677.688,-451.5 677.688,-451.5 671.688,-451.5 665.688,-445.5 665.688,-439.5 665.688,-439.5 665.688,-427.5 665.688,-427.5 665.688,-421.5 671.688,-415.5 677.688,-415.5 677.688,-415.5 744.688,-415.5 744.688,-415.5 750.688,-415.5 756.688,-421.5 756.688,-427.5 756.688,-427.5 756.688,-439.5 756.688,-439.5 756.688,-445.5 750.688,-451.5 744.688,-451.5"/>
<text text-anchor="middle" x="711.188" y="-429.8" font-family="Helvetica,sans-Serif" font-size="14.00">coordinates</text>
</g>
<!-- get_client_data&#45;&gt;coordinates -->
<g id="edge3" class="edge"><title>get_client_data&#45;&gt;coordinates</title>
<path fill="none" stroke="black" d="M866.994,-493.473C835.364,-481.501 796.491,-466.788 765.487,-455.052"/>
<polygon fill="black" stroke="black" points="766.725,-451.779 756.134,-451.512 764.247,-458.326 766.725,-451.779"/>
</g>
<!-- session_id -->
<g id="node16" class="node"><title>session_id</title>
<path fill="#ffffcc" stroke="black" d="M859.188,-451.5C859.188,-451.5 797.188,-451.5 797.188,-451.5 791.188,-451.5 785.188,-445.5 785.188,-439.5 785.188,-439.5 785.188,-427.5 785.188,-427.5 785.188,-421.5 791.188,-415.5 797.188,-415.5 797.188,-415.5 859.188,-415.5 859.188,-415.5 865.188,-415.5 871.188,-421.5 871.188,-427.5 871.188,-427.5 871.188,-439.5 871.188,-439.5 871.188,-445.5 865.188,-451.5 859.188,-451.5"/>
<text text-anchor="middle" x="828.188" y="-429.8" font-family="Helvetica,sans-Serif" font-size="14.00">session_id</text>
</g>
<!-- get_client_data&#45;&gt;session_id -->
<g id="edge1" class="edge"><title>get_client_data&#45;&gt;session_id</title>
<path fill="none" stroke="black" d="M898.682,-493.366C885.676,-482.505 869.991,-469.408 856.723,-458.328"/>
<polygon fill="black" stroke="black" points="858.738,-455.451 848.819,-451.728 854.251,-460.824 858.738,-455.451"/>
</g>
<!-- run_id -->
<g id="node17" class="node"><title>run_id</title>
<path fill="#ffffcc" stroke="black" d="M938.188,-451.5C938.188,-451.5 906.188,-451.5 906.188,-451.5 900.188,-451.5 894.188,-445.5 894.188,-439.5 894.188,-439.5 894.188,-427.5 894.188,-427.5 894.188,-421.5 900.188,-415.5 906.188,-415.5 906.188,-415.5 938.188,-415.5 938.188,-415.5 944.188,-415.5 950.188,-421.5 950.188,-427.5 950.188,-427.5 950.188,-439.5 950.188,-439.5 950.188,-445.5 944.188,-451.5 938.188,-451.5"/>
<text text-anchor="middle" x="922.188" y="-429.8" font-family="Helvetica,sans-Serif" font-size="14.00">run_id</text>
</g>
<!-- get_client_data&#45;&gt;run_id -->
<g id="edge2" class="edge"><title>get_client_data&#45;&gt;run_id</title>
<path fill="none" stroke="black" d="M924.368,-493.366C924.008,-483.632 923.581,-472.102 923.2,-461.838"/>
<polygon fill="black" stroke="black" points="926.694,-461.591 922.826,-451.728 919.699,-461.85 926.694,-461.591"/>
</g>
<!-- prediction_years -->
<g id="node18" class="node"><title>prediction_years</title>
<path fill="#ffffcc" stroke="black" d="M1244.19,-368.5C1244.19,-368.5 1146.19,-368.5 1146.19,-368.5 1140.19,-368.5 1134.19,-362.5 1134.19,-356.5 1134.19,-356.5 1134.19,-344.5 1134.19,-344.5 1134.19,-338.5 1140.19,-332.5 1146.19,-332.5 1146.19,-332.5 1244.19,-332.5 1244.19,-332.5 1250.19,-332.5 1256.19,-338.5 1256.19,-344.5 1256.19,-344.5 1256.19,-356.5 1256.19,-356.5 1256.19,-362.5 1250.19,-368.5 1244.19,-368.5"/>
<text text-anchor="middle" x="1195.19" y="-346.8" font-family="Helvetica,sans-Serif" font-size="14.00">prediction_years</text>
</g>
<!-- get_client_data&#45;&gt;prediction_years -->
<g id="edge4" class="edge"><title>get_client_data&#45;&gt;prediction_years</title>
<path fill="none" stroke="black" d="M961.601,-493.382C1013.07,-462.123 1106.56,-405.334 1158.29,-373.914"/>
<polygon fill="black" stroke="black" points="1160.4,-376.723 1167.13,-368.54 1156.77,-370.74 1160.4,-376.723"/>
</g>
<!-- access_static_server_files -->
<g id="node2" class="node"><title>access_static_server_files</title>
<polygon fill="#ccffcc" stroke="black" points="68.188,-493.5 68.188,-539.5 576.188,-539.5 576.188,-493.5 68.188,-493.5"/>
<text text-anchor="middle" x="322.188" y="-524.3" font-family="Helvetica,sans-Serif" font-size="14.00">access_static_server_files</text>
<polyline fill="none" stroke="black" points="68.188,-516.5 576.188,-516.5 "/>
<text text-anchor="middle" x="322.188" y="-501.3" font-family="Helvetica,sans-Serif" font-size="14.00">the static files available and required for execution of PaleoCAR on the server.</text>
</g>
<!-- prism_data -->
<g id="node5" class="node"><title>prism_data</title>
<path fill="#ffffcc" stroke="black" d="M257.188,-410.5C257.188,-410.5 387.188,-410.5 387.188,-410.5 393.188,-410.5 399.188,-416.5 399.188,-422.5 399.188,-422.5 399.188,-444.5 399.188,-444.5 399.188,-450.5 393.188,-456.5 387.188,-456.5 387.188,-456.5 257.188,-456.5 257.188,-456.5 251.188,-456.5 245.188,-450.5 245.188,-444.5 245.188,-444.5 245.188,-422.5 245.188,-422.5 245.188,-416.5 251.188,-410.5 257.188,-410.5"/>
<text text-anchor="middle" x="322.188" y="-441.3" font-family="Helvetica,sans-Serif" font-size="14.00">prism_data</text>
<polyline fill="none" stroke="black" points="245.188,-433.5 399.188,-433.5 "/>
<text text-anchor="middle" x="322.188" y="-418.3" font-family="Helvetica,sans-Serif" font-size="14.00">file:data/112W36N.nc</text>
</g>
<!-- access_static_server_files&#45;&gt;prism_data -->
<g id="edge7" class="edge"><title>access_static_server_files&#45;&gt;prism_data</title>
<path fill="none" stroke="black" d="M322.188,-493.366C322.188,-485.152 322.188,-475.658 322.188,-466.725"/>
<polygon fill="black" stroke="black" points="325.688,-466.607 322.188,-456.607 318.688,-466.607 325.688,-466.607"/>
</g>
<!-- itrdb -->
<g id="node6" class="node"><title>itrdb</title>
<path fill="#ffffcc" stroke="black" d="M156.188,-327.5C156.188,-327.5 270.188,-327.5 270.188,-327.5 276.188,-327.5 282.188,-333.5 282.188,-339.5 282.188,-339.5 282.188,-361.5 282.188,-361.5 282.188,-367.5 276.188,-373.5 270.188,-373.5 270.188,-373.5 156.188,-373.5 156.188,-373.5 150.188,-373.5 144.188,-367.5 144.188,-361.5 144.188,-361.5 144.188,-339.5 144.188,-339.5 144.188,-333.5 150.188,-327.5 156.188,-327.5"/>
<text text-anchor="middle" x="213.188" y="-358.3" font-family="Helvetica,sans-Serif" font-size="14.00">itrdb</text>
<polyline fill="none" stroke="black" points="144.188,-350.5 282.188,-350.5 "/>
<text text-anchor="middle" x="213.188" y="-335.3" font-family="Helvetica,sans-Serif" font-size="14.00">file:data/ITRDB.rda</text>
</g>
<!-- access_static_server_files&#45;&gt;itrdb -->
<g id="edge8" class="edge"><title>access_static_server_files&#45;&gt;itrdb</title>
<path fill="none" stroke="black" d="M276.563,-493.475C261.629,-484.164 246.295,-471.964 236.188,-457 221.514,-435.275 216.008,-405.801 214.033,-383.528"/>
<polygon fill="black" stroke="black" points="217.525,-383.28 213.338,-373.548 210.542,-383.767 217.525,-383.28"/>
</g>
<!-- extract_prism_data -->
<g id="node3" class="node"><title>extract_prism_data</title>
<polygon fill="#ccffcc" stroke="black" points="300.188,-327.5 300.188,-373.5 1116.19,-373.5 1116.19,-327.5 300.188,-327.5"/>
<text text-anchor="middle" x="708.188" y="-358.3" font-family="Helvetica,sans-Serif" font-size="14.00">extract_prism_data</text>
<polyline fill="none" stroke="black" points="300.188,-350.5 1116.19,-350.5 "/>
<text text-anchor="middle" x="708.188" y="-335.3" font-family="Helvetica,sans-Serif" font-size="14.00">get the prism data file on the server with precipitation values and extract the data for the input coordinates and save as a csv file.</text>
</g>
<!-- prism_data_for_coordinates -->
<g id="node19" class="node"><title>prism_data_for_coordinates</title>
<path fill="#ffffcc" stroke="black" d="M844.188,-244.5C844.188,-244.5 1130.19,-244.5 1130.19,-244.5 1136.19,-244.5 1142.19,-250.5 1142.19,-256.5 1142.19,-256.5 1142.19,-278.5 1142.19,-278.5 1142.19,-284.5 1136.19,-290.5 1130.19,-290.5 1130.19,-290.5 844.188,-290.5 844.188,-290.5 838.188,-290.5 832.188,-284.5 832.188,-278.5 832.188,-278.5 832.188,-256.5 832.188,-256.5 832.188,-250.5 838.188,-244.5 844.188,-244.5"/>
<text text-anchor="middle" x="987.188" y="-275.3" font-family="Helvetica,sans-Serif" font-size="14.00">prism_data_for_coordinates</text>
<polyline fill="none" stroke="black" points="832.188,-267.5 1142.19,-267.5 "/>
<text text-anchor="middle" x="987.188" y="-252.3" font-family="Helvetica,sans-Serif" font-size="14.00">file:.output/{session_id}/{run_id}/112W36N.csv</text>
</g>
<!-- extract_prism_data&#45;&gt;prism_data_for_coordinates -->
<g id="edge11" class="edge"><title>extract_prism_data&#45;&gt;prism_data_for_coordinates</title>
<path fill="none" stroke="black" d="M784.057,-327.473C820.348,-316.937 863.951,-304.279 901.44,-293.395"/>
<polygon fill="black" stroke="black" points="902.706,-296.672 911.334,-290.522 900.754,-289.949 902.706,-296.672"/>
</g>
<!-- exec_paleocar -->
<g id="node4" class="node"><title>exec_paleocar</title>
<polygon fill="#ccffcc" stroke="black" points="738.688,-161.5 738.688,-207.5 1745.69,-207.5 1745.69,-161.5 738.688,-161.5"/>
<text text-anchor="middle" x="1242.19" y="-192.3" font-family="Helvetica,sans-Serif" font-size="14.00">exec_paleocar</text>
<polyline fill="none" stroke="black" points="738.688,-184.5 1745.69,-184.5 "/>
<text text-anchor="middle" x="1242.19" y="-169.3" font-family="Helvetica,sans-Serif" font-size="14.00">execute paleocar for reconstruction of paleoclimate of the study region. Generate the timeseries graphs, and paleocar models of paleoclimatic reconstruction.</text>
</g>
<!-- prediction_graph -->
<g id="node7" class="node"><title>prediction_graph</title>
<path fill="#ffffcc" stroke="black" d="M837.688,-78.5C837.688,-78.5 1122.69,-78.5 1122.69,-78.5 1128.69,-78.5 1134.69,-84.5 1134.69,-90.5 1134.69,-90.5 1134.69,-112.5 1134.69,-112.5 1134.69,-118.5 1128.69,-124.5 1122.69,-124.5 1122.69,-124.5 837.688,-124.5 837.688,-124.5 831.688,-124.5 825.688,-118.5 825.688,-112.5 825.688,-112.5 825.688,-90.5 825.688,-90.5 825.688,-84.5 831.688,-78.5 837.688,-78.5"/>
<text text-anchor="middle" x="980.188" y="-109.3" font-family="Helvetica,sans-Serif" font-size="14.00">prediction_graph</text>
<polyline fill="none" stroke="black" points="825.688,-101.5 1134.69,-101.5 "/>
<text text-anchor="middle" x="980.188" y="-86.3" font-family="Helvetica,sans-Serif" font-size="14.00">file:/{session_id}/{run_id}/{label}_prediction.jpg</text>
</g>
<!-- exec_paleocar&#45;&gt;prediction_graph -->
<g id="edge17" class="edge"><title>exec_paleocar&#45;&gt;prediction_graph</title>
<path fill="none" stroke="black" d="M1170.94,-161.473C1137.01,-150.982 1096.26,-138.386 1061.16,-127.534"/>
<polygon fill="black" stroke="black" points="1062.01,-124.132 1051.42,-124.522 1059.94,-130.82 1062.01,-124.132"/>
</g>
<!-- paleocar_models -->
<g id="node8" class="node"><title>paleocar_models</title>
<path fill="#ffffcc" stroke="black" d="M1165.19,-78.5C1165.19,-78.5 1477.19,-78.5 1477.19,-78.5 1483.19,-78.5 1489.19,-84.5 1489.19,-90.5 1489.19,-90.5 1489.19,-112.5 1489.19,-112.5 1489.19,-118.5 1483.19,-124.5 1477.19,-124.5 1477.19,-124.5 1165.19,-124.5 1165.19,-124.5 1159.19,-124.5 1153.19,-118.5 1153.19,-112.5 1153.19,-112.5 1153.19,-90.5 1153.19,-90.5 1153.19,-84.5 1159.19,-78.5 1165.19,-78.5"/>
<text text-anchor="middle" x="1321.19" y="-109.3" font-family="Helvetica,sans-Serif" font-size="14.00">paleocar_models</text>
<polyline fill="none" stroke="black" points="1153.19,-101.5 1489.19,-101.5 "/>
<text text-anchor="middle" x="1321.19" y="-86.3" font-family="Helvetica,sans-Serif" font-size="14.00">file:.output/{session_id}/{run_id}/{label}_model.Rds</text>
</g>
<!-- exec_paleocar&#45;&gt;paleocar_models -->
<g id="edge19" class="edge"><title>exec_paleocar&#45;&gt;paleocar_models</title>
<path fill="none" stroke="black" d="M1263.78,-161.366C1272.66,-152.259 1283.07,-141.579 1292.58,-131.835"/>
<polygon fill="black" stroke="black" points="1295.15,-134.21 1299.63,-124.607 1290.14,-129.322 1295.15,-134.21"/>
</g>
<!-- prediction_model -->
<g id="node9" class="node"><title>prediction_model</title>
<path fill="#ffffcc" stroke="black" d="M1519.69,-78.5C1519.69,-78.5 1854.69,-78.5 1854.69,-78.5 1860.69,-78.5 1866.69,-84.5 1866.69,-90.5 1866.69,-90.5 1866.69,-112.5 1866.69,-112.5 1866.69,-118.5 1860.69,-124.5 1854.69,-124.5 1854.69,-124.5 1519.69,-124.5 1519.69,-124.5 1513.69,-124.5 1507.69,-118.5 1507.69,-112.5 1507.69,-112.5 1507.69,-90.5 1507.69,-90.5 1507.69,-84.5 1513.69,-78.5 1519.69,-78.5"/>
<text text-anchor="middle" x="1687.19" y="-109.3" font-family="Helvetica,sans-Serif" font-size="14.00">prediction_model</text>
<polyline fill="none" stroke="black" points="1507.69,-101.5 1866.69,-101.5 "/>
<text text-anchor="middle" x="1687.19" y="-86.3" font-family="Helvetica,sans-Serif" font-size="14.00">file:.output/{session_id}/{run_id}/{label}_prediction.Rds</text>
</g>
<!-- exec_paleocar&#45;&gt;prediction_model -->
<g id="edge16" class="edge"><title>exec_paleocar&#45;&gt;prediction_model</title>
<path fill="none" stroke="black" d="M1363.2,-161.473C1422.93,-150.601 1495.08,-137.468 1556.12,-126.358"/>
<polygon fill="black" stroke="black" points="1556.99,-129.757 1566.2,-124.522 1555.74,-122.87 1556.99,-129.757"/>
</g>
<!-- paleocar_log_file -->
<g id="node10" class="node"><title>paleocar_log_file</title>
<path fill="#ffffcc" stroke="black" d="M1897.19,-78.5C1897.19,-78.5 2241.19,-78.5 2241.19,-78.5 2247.19,-78.5 2253.19,-84.5 2253.19,-90.5 2253.19,-90.5 2253.19,-112.5 2253.19,-112.5 2253.19,-118.5 2247.19,-124.5 2241.19,-124.5 2241.19,-124.5 1897.19,-124.5 1897.19,-124.5 1891.19,-124.5 1885.19,-118.5 1885.19,-112.5 1885.19,-112.5 1885.19,-90.5 1885.19,-90.5 1885.19,-84.5 1891.19,-78.5 1897.19,-78.5"/>
<text text-anchor="middle" x="2069.19" y="-109.3" font-family="Helvetica,sans-Serif" font-size="14.00">paleocar_log_file</text>
<polyline fill="none" stroke="black" points="1885.19,-101.5 2253.19,-101.5 "/>
<text text-anchor="middle" x="2069.19" y="-86.3" font-family="Helvetica,sans-Serif" font-size="14.00">file:.output/{session_id}/{run_id}/paleocar_model_log.txt</text>
</g>
<!-- exec_paleocar&#45;&gt;paleocar_log_file -->
<g id="edge21" class="edge"><title>exec_paleocar&#45;&gt;paleocar_log_file</title>
<path fill="none" stroke="black" d="M1496.07,-161.48C1609.09,-151.325 1744.08,-138.716 1874.85,-125.129"/>
<polygon fill="black" stroke="black" points="1875.48,-128.583 1885.06,-124.065 1874.76,-121.62 1875.48,-128.583"/>
</g>
<!-- uncertainty_model -->
<g id="node11" class="node"><title>uncertainty_model</title>
<path fill="#ffffcc" stroke="black" d="M80.188,-78.5C80.188,-78.5 420.188,-78.5 420.188,-78.5 426.188,-78.5 432.188,-84.5 432.188,-90.5 432.188,-90.5 432.188,-112.5 432.188,-112.5 432.188,-118.5 426.188,-124.5 420.188,-124.5 420.188,-124.5 80.188,-124.5 80.188,-124.5 74.188,-124.5 68.188,-118.5 68.188,-112.5 68.188,-112.5 68.188,-90.5 68.188,-90.5 68.188,-84.5 74.188,-78.5 80.188,-78.5"/>
<text text-anchor="middle" x="250.188" y="-109.3" font-family="Helvetica,sans-Serif" font-size="14.00">uncertainty_model</text>
<polyline fill="none" stroke="black" points="68.188,-101.5 432.188,-101.5 "/>
<text text-anchor="middle" x="250.188" y="-86.3" font-family="Helvetica,sans-Serif" font-size="14.00">file:.output/{session_id}/{run_id}/{label}_uncertainty.Rds</text>
</g>
<!-- exec_paleocar&#45;&gt;uncertainty_model -->
<g id="edge18" class="edge"><title>exec_paleocar&#45;&gt;uncertainty_model</title>
<path fill="none" stroke="black" d="M894.455,-161.477C756.649,-151.889 596.574,-139.685 442.532,-125.11"/>
<polygon fill="black" stroke="black" points="442.681,-121.609 432.395,-124.147 442.019,-128.577 442.681,-121.609"/>
</g>
<!-- uncertainty_graph -->
<g id="node12" class="node"><title>uncertainty_graph</title>
<path fill="#ffffcc" stroke="black" d="M462.688,-78.5C462.688,-78.5 795.688,-78.5 795.688,-78.5 801.688,-78.5 807.688,-84.5 807.688,-90.5 807.688,-90.5 807.688,-112.5 807.688,-112.5 807.688,-118.5 801.688,-124.5 795.688,-124.5 795.688,-124.5 462.688,-124.5 462.688,-124.5 456.688,-124.5 450.688,-118.5 450.688,-112.5 450.688,-112.5 450.688,-90.5 450.688,-90.5 450.688,-84.5 456.688,-78.5 462.688,-78.5"/>
<text text-anchor="middle" x="629.188" y="-109.3" font-family="Helvetica,sans-Serif" font-size="14.00">uncertainty_graph</text>
<polyline fill="none" stroke="black" points="450.688,-101.5 807.688,-101.5 "/>
<text text-anchor="middle" x="629.188" y="-86.3" font-family="Helvetica,sans-Serif" font-size="14.00">file:.output/{session_id}/{run_id}/{label}_uncertainty.jpg</text>
</g>
<!-- exec_paleocar&#45;&gt;uncertainty_graph -->
<g id="edge20" class="edge"><title>exec_paleocar&#45;&gt;uncertainty_graph</title>
<path fill="none" stroke="black" d="M1075.49,-161.473C991.94,-150.433 890.747,-137.062 805.855,-125.844"/>
<polygon fill="black" stroke="black" points="806.222,-122.362 795.85,-124.522 805.305,-129.302 806.222,-122.362"/>
</g>
<!-- prism_data&#45;&gt;extract_prism_data -->
<g id="edge15" class="edge"><title>prism_data&#45;&gt;extract_prism_data</title>
<path fill="none" stroke="black" d="M399.373,-416.303C454.819,-404.668 530.502,-388.786 593.066,-375.658"/>
<polygon fill="black" stroke="black" points="593.922,-379.054 602.99,-373.575 592.484,-372.204 593.922,-379.054"/>
</g>
<!-- prism_data_output_port -->
<g id="node35" class="node"><title>prism_data_output_port</title>
<ellipse fill="#ffffff" stroke="black" cx="692.188" cy="-31" rx="7" ry="7"/>
</g>
<!-- prism_data&#45;&gt;prism_data_output_port -->
<g id="edge38" class="edge"><title>prism_data&#45;&gt;prism_data_output_port</title>
<path fill="none" stroke="black" d="M245.133,-426.287C150.445,-413.956 2.18796,-377.278 2.18796,-268.5 2.18796,-268.5 2.18796,-268.5 2.18796,-183.5 2.18796,-127.878 -10.8135,-97.2796 32.188,-62 57.7777,-41.0054 573.948,-33.4794 675.083,-32.2037"/>
<polygon fill="black" stroke="black" points="675.131,-35.7035 685.088,-32.0811 675.045,-28.704 675.131,-35.7035"/>
</g>
<!-- itrdb&#45;&gt;exec_paleocar -->
<g id="edge24" class="edge"><title>itrdb&#45;&gt;exec_paleocar</title>
<path fill="none" stroke="black" d="M282.394,-329.046C285.358,-328.326 288.298,-327.64 291.188,-327 541.489,-271.605 833.738,-231.749 1027.52,-208.724"/>
<polygon fill="black" stroke="black" points="1028.02,-212.19 1037.54,-207.538 1027.2,-205.238 1028.02,-212.19"/>
</g>
<!-- itrdb_output_port -->
<g id="node36" class="node"><title>itrdb_output_port</title>
<ellipse fill="#ffffff" stroke="black" cx="724.188" cy="-31" rx="7" ry="7"/>
</g>
<!-- itrdb&#45;&gt;itrdb_output_port -->
<g id="edge39" class="edge"><title>itrdb&#45;&gt;itrdb_output_port</title>
<path fill="none" stroke="black" d="M184.793,-327.382C121.162,-275.333 -21.1896,-143.374 59.188,-62 71.8577,-49.1731 692.173,-62.2801 708.188,-54 711.46,-52.3082 714.224,-49.605 716.485,-46.6637"/>
<polygon fill="black" stroke="black" points="719.603,-48.2708 721.767,-37.8993 713.607,-44.6575 719.603,-48.2708"/>
</g>
<!-- prediction_graph_output_port -->
<g id="node37" class="node"><title>prediction_graph_output_port</title>
<ellipse fill="#ffffff" stroke="black" cx="820.188" cy="-31" rx="7" ry="7"/>
</g>
<!-- prediction_graph&#45;&gt;prediction_graph_output_port -->
<g id="edge40" class="edge"><title>prediction_graph&#45;&gt;prediction_graph_output_port</title>
<path fill="none" stroke="black" d="M883.167,-78.4938C866.599,-72.195 850.227,-64.1755 836.188,-54 833.205,-51.8382 830.555,-48.9513 828.311,-45.982"/>
<polygon fill="black" stroke="black" points="831.206,-44.0129 822.874,-37.469 825.307,-47.7807 831.206,-44.0129"/>
</g>
<!-- paleocar_models_output_port -->
<g id="node38" class="node"><title>paleocar_models_output_port</title>
<ellipse fill="#ffffff" stroke="black" cx="852.188" cy="-31" rx="7" ry="7"/>
</g>
<!-- paleocar_models&#45;&gt;paleocar_models_output_port -->
<g id="edge41" class="edge"><title>paleocar_models&#45;&gt;paleocar_models_output_port</title>
<path fill="none" stroke="black" d="M1235.31,-78.4723C1206.54,-71.9908 1174.15,-65.6614 1144.19,-62 1128.96,-60.1396 881.755,-61.1582 868.188,-54 864.93,-52.281 862.172,-49.5672 859.912,-46.6243"/>
<polygon fill="black" stroke="black" points="862.791,-44.6215 854.622,-37.8744 856.8,-48.2429 862.791,-44.6215"/>
</g>
<!-- prediction_model_output_port -->
<g id="node39" class="node"><title>prediction_model_output_port</title>
<ellipse fill="#ffffff" stroke="black" cx="884.188" cy="-31" rx="7" ry="7"/>
</g>
<!-- prediction_model&#45;&gt;prediction_model_output_port -->
<g id="edge42" class="edge"><title>prediction_model&#45;&gt;prediction_model_output_port</title>
<path fill="none" stroke="black" d="M1596.4,-78.4142C1565.44,-71.8431 1530.48,-65.4743 1498.19,-62 1481.67,-60.2231 914.941,-61.6373 900.188,-54 896.917,-52.3065 894.153,-49.6026 891.892,-46.6613"/>
<polygon fill="black" stroke="black" points="894.77,-44.6553 886.61,-37.8977 888.775,-48.269 894.77,-44.6553"/>
</g>
<!-- paleocar_log_file_output_port -->
<g id="node40" class="node"><title>paleocar_log_file_output_port</title>
<ellipse fill="#ffffff" stroke="black" cx="916.188" cy="-31" rx="7" ry="7"/>
</g>
<!-- paleocar_log_file&#45;&gt;paleocar_log_file_output_port -->
<g id="edge43" class="edge"><title>paleocar_log_file&#45;&gt;paleocar_log_file_output_port</title>
<path fill="none" stroke="black" d="M1974.95,-78.4555C1943.7,-72.0148 1908.61,-65.7139 1876.19,-62 1683.18,-39.888 1046.21,-33.1748 933.355,-32.1474"/>
<polygon fill="black" stroke="black" points="933.184,-28.6458 923.153,-32.0573 933.122,-35.6456 933.184,-28.6458"/>
</g>
<!-- uncertainty_model_output_port -->
<g id="node41" class="node"><title>uncertainty_model_output_port</title>
<ellipse fill="#ffffff" stroke="black" cx="756.188" cy="-31" rx="7" ry="7"/>
</g>
<!-- uncertainty_model&#45;&gt;uncertainty_model_output_port -->
<g id="edge44" class="edge"><title>uncertainty_model&#45;&gt;uncertainty_model_output_port</title>
<path fill="none" stroke="black" d="M342.941,-78.4662C373.995,-71.9842 408.921,-65.6561 441.188,-62 457.699,-60.1291 725.482,-61.7378 740.188,-54 743.448,-52.2847 746.207,-49.5722 748.467,-46.6296"/>
<polygon fill="black" stroke="black" points="751.579,-48.2466 753.756,-37.8777 745.588,-44.6263 751.579,-48.2466"/>
</g>
<!-- uncertainty_graph_output_port -->
<g id="node42" class="node"><title>uncertainty_graph_output_port</title>
<ellipse fill="#ffffff" stroke="black" cx="788.188" cy="-31" rx="7" ry="7"/>
</g>
<!-- uncertainty_graph&#45;&gt;uncertainty_graph_output_port -->
<g id="edge45" class="edge"><title>uncertainty_graph&#45;&gt;uncertainty_graph_output_port</title>
<path fill="none" stroke="black" d="M725.537,-78.4117C741.99,-72.1212 758.247,-64.1258 772.188,-54 775.168,-51.8351 777.818,-48.9471 780.062,-45.9776"/>
<polygon fill="black" stroke="black" points="783.065,-47.7775 785.5,-37.4662 777.166,-44.0086 783.065,-47.7775"/>
</g>
<!-- user_map_marker_pos -->
<g id="node13" class="node"><title>user_map_marker_pos</title>
<path fill="#ffffcc" stroke="black" d="M1013.19,-612C1013.19,-612 873.188,-612 873.188,-612 867.188,-612 861.188,-606 861.188,-600 861.188,-600 861.188,-588 861.188,-588 861.188,-582 867.188,-576 873.188,-576 873.188,-576 1013.19,-576 1013.19,-576 1019.19,-576 1025.19,-582 1025.19,-588 1025.19,-588 1025.19,-600 1025.19,-600 1025.19,-606 1019.19,-612 1013.19,-612"/>
<text text-anchor="middle" x="943.188" y="-590.3" font-family="Helvetica,sans-Serif" font-size="14.00">user_map_marker_pos</text>
</g>
<!-- user_map_marker_pos&#45;&gt;get_client_data -->
<g id="edge5" class="edge"><title>user_map_marker_pos&#45;&gt;get_client_data</title>
<path fill="none" stroke="black" d="M939.103,-575.868C937.25,-568.092 934.994,-558.632 932.844,-549.611"/>
<polygon fill="black" stroke="black" points="936.211,-548.642 930.487,-539.727 929.402,-550.266 936.211,-548.642"/>
</g>
<!-- user_prediction_years -->
<g id="node14" class="node"><title>user_prediction_years</title>
<path fill="#ffffcc" stroke="black" d="M1225.19,-612C1225.19,-612 1091.19,-612 1091.19,-612 1085.19,-612 1079.19,-606 1079.19,-600 1079.19,-600 1079.19,-588 1079.19,-588 1079.19,-582 1085.19,-576 1091.19,-576 1091.19,-576 1225.19,-576 1225.19,-576 1231.19,-576 1237.19,-582 1237.19,-588 1237.19,-588 1237.19,-600 1237.19,-600 1237.19,-606 1231.19,-612 1225.19,-612"/>
<text text-anchor="middle" x="1158.19" y="-590.3" font-family="Helvetica,sans-Serif" font-size="14.00">user_prediction_years</text>
</g>
<!-- user_prediction_years&#45;&gt;get_client_data -->
<g id="edge6" class="edge"><title>user_prediction_years&#45;&gt;get_client_data</title>
<path fill="none" stroke="black" d="M1105.61,-575.962C1075.43,-566.185 1036.97,-553.723 1003.32,-542.818"/>
<polygon fill="black" stroke="black" points="1004.1,-539.392 993.51,-539.639 1001.94,-546.051 1004.1,-539.392"/>
</g>
<!-- coordinates&#45;&gt;extract_prism_data -->
<g id="edge12" class="edge"><title>coordinates&#45;&gt;extract_prism_data</title>
<path fill="none" stroke="black" d="M710.552,-415.322C710.21,-406.102 709.778,-394.435 709.377,-383.606"/>
<polygon fill="black" stroke="black" points="712.874,-383.45 709.006,-373.587 705.879,-383.71 712.874,-383.45"/>
</g>
<!-- session_id&#45;&gt;extract_prism_data -->
<g id="edge13" class="edge"><title>session_id&#45;&gt;extract_prism_data</title>
<path fill="none" stroke="black" d="M802.739,-415.322C787.249,-404.866 767.097,-391.264 749.38,-379.305"/>
<polygon fill="black" stroke="black" points="751.156,-376.281 740.909,-373.587 747.239,-382.083 751.156,-376.281"/>
</g>
<!-- run_id&#45;&gt;extract_prism_data -->
<g id="edge14" class="edge"><title>run_id&#45;&gt;extract_prism_data</title>
<path fill="none" stroke="black" d="M894.033,-416.606C889.466,-414.264 884.74,-411.978 880.188,-410 851.728,-397.636 819.741,-386.136 791.14,-376.661"/>
<polygon fill="black" stroke="black" points="792.174,-373.316 781.581,-373.527 789.993,-379.968 792.174,-373.316"/>
</g>
<!-- prediction_years&#45;&gt;exec_paleocar -->
<g id="edge22" class="edge"><title>prediction_years&#45;&gt;exec_paleocar</title>
<path fill="none" stroke="black" d="M1184.97,-332.312C1173.61,-310.793 1158.53,-273.209 1172.19,-244 1177.59,-232.453 1186.51,-222.384 1196.21,-214.005"/>
<polygon fill="black" stroke="black" points="1198.5,-216.65 1204.1,-207.652 1194.11,-211.197 1198.5,-216.65"/>
</g>
<!-- prism_data_for_coordinates&#45;&gt;exec_paleocar -->
<g id="edge23" class="edge"><title>prism_data_for_coordinates&#45;&gt;exec_paleocar</title>
<path fill="none" stroke="black" d="M1056.53,-244.473C1089.42,-234.027 1128.87,-221.494 1162.94,-210.673"/>
<polygon fill="black" stroke="black" points="1164.39,-213.885 1172.86,-207.522 1162.27,-207.214 1164.39,-213.885"/>
</g>
<!-- historical_precip_data -->
<g id="node20" class="node"><title>historical_precip_data</title>
<path fill="#fcfcfc" stroke="black" d="M471.688,-612C471.688,-612 340.688,-612 340.688,-612 334.688,-612 328.688,-606 328.688,-600 328.688,-600 328.688,-588 328.688,-588 328.688,-582 334.688,-576 340.688,-576 340.688,-576 471.688,-576 471.688,-576 477.688,-576 483.688,-582 483.688,-588 483.688,-588 483.688,-600 483.688,-600 483.688,-606 477.688,-612 471.688,-612"/>
<text text-anchor="middle" x="406.188" y="-590.3" font-family="Helvetica,sans-Serif" font-size="14.00">historical_precip_data</text>
</g>
<!-- historical_precip_data&#45;&gt;access_static_server_files -->
<g id="edge9" class="edge"><title>historical_precip_data&#45;&gt;access_static_server_files</title>
<path fill="none" stroke="black" d="M387.127,-575.868C377.452,-567.172 365.434,-556.37 354.378,-546.432"/>
<polygon fill="black" stroke="black" points="356.694,-543.808 346.917,-539.727 352.015,-549.014 356.694,-543.808"/>
</g>
<!-- tree_ring_data -->
<g id="node21" class="node"><title>tree_ring_data</title>
<path fill="#fcfcfc" stroke="black" d="M747.188,-612C747.188,-612 663.188,-612 663.188,-612 657.188,-612 651.188,-606 651.188,-600 651.188,-600 651.188,-588 651.188,-588 651.188,-582 657.188,-576 663.188,-576 663.188,-576 747.188,-576 747.188,-576 753.188,-576 759.188,-582 759.188,-588 759.188,-588 759.188,-600 759.188,-600 759.188,-606 753.188,-612 747.188,-612"/>
<text text-anchor="middle" x="705.188" y="-590.3" font-family="Helvetica,sans-Serif" font-size="14.00">tree_ring_data</text>
</g>
<!-- tree_ring_data&#45;&gt;access_static_server_files -->
<g id="edge10" class="edge"><title>tree_ring_data&#45;&gt;access_static_server_files</title>
<path fill="none" stroke="black" d="M651.126,-582.343C597.57,-571.786 513.704,-555.253 444.06,-541.524"/>
<polygon fill="black" stroke="black" points="444.381,-538.02 433.893,-539.52 443.028,-544.888 444.381,-538.02"/>
</g>
<!-- calibration_years -->
<g id="node22" class="node"><title>calibration_years</title>
<path fill="#fcfcfc" stroke="black" d="M1291.69,-285.5C1291.69,-285.5 1192.69,-285.5 1192.69,-285.5 1186.69,-285.5 1180.69,-279.5 1180.69,-273.5 1180.69,-273.5 1180.69,-261.5 1180.69,-261.5 1180.69,-255.5 1186.69,-249.5 1192.69,-249.5 1192.69,-249.5 1291.69,-249.5 1291.69,-249.5 1297.69,-249.5 1303.69,-255.5 1303.69,-261.5 1303.69,-261.5 1303.69,-273.5 1303.69,-273.5 1303.69,-279.5 1297.69,-285.5 1291.69,-285.5"/>
<text text-anchor="middle" x="1242.19" y="-263.8" font-family="Helvetica,sans-Serif" font-size="14.00">calibration_years</text>
</g>
<!-- calibration_years&#45;&gt;exec_paleocar -->
<g id="edge25" class="edge"><title>calibration_years&#45;&gt;exec_paleocar</title>
<path fill="none" stroke="black" d="M1242.19,-249.322C1242.19,-240.102 1242.19,-228.435 1242.19,-217.606"/>
<polygon fill="black" stroke="black" points="1245.69,-217.587 1242.19,-207.587 1238.69,-217.587 1245.69,-217.587"/>
</g>
<!-- label -->
<g id="node23" class="node"><title>label</title>
<path fill="#fcfcfc" stroke="black" d="M1364.19,-285.5C1364.19,-285.5 1334.19,-285.5 1334.19,-285.5 1328.19,-285.5 1322.19,-279.5 1322.19,-273.5 1322.19,-273.5 1322.19,-261.5 1322.19,-261.5 1322.19,-255.5 1328.19,-249.5 1334.19,-249.5 1334.19,-249.5 1364.19,-249.5 1364.19,-249.5 1370.19,-249.5 1376.19,-255.5 1376.19,-261.5 1376.19,-261.5 1376.19,-273.5 1376.19,-273.5 1376.19,-279.5 1370.19,-285.5 1364.19,-285.5"/>
<text text-anchor="middle" x="1349.19" y="-263.8" font-family="Helvetica,sans-Serif" font-size="14.00">label</text>
</g>
<!-- label&#45;&gt;exec_paleocar -->
<g id="edge26" class="edge"><title>label&#45;&gt;exec_paleocar</title>
<path fill="none" stroke="black" d="M1326.5,-249.322C1312.81,-238.961 1295.04,-225.511 1279.35,-213.631"/>
<polygon fill="black" stroke="black" points="1281.45,-210.832 1271.36,-207.587 1277.22,-216.413 1281.45,-210.832"/>
</g>
<!-- min_width -->
<g id="node24" class="node"><title>min_width</title>
<path fill="#fcfcfc" stroke="black" d="M1548.19,-285.5C1548.19,-285.5 1492.19,-285.5 1492.19,-285.5 1486.19,-285.5 1480.19,-279.5 1480.19,-273.5 1480.19,-273.5 1480.19,-261.5 1480.19,-261.5 1480.19,-255.5 1486.19,-249.5 1492.19,-249.5 1492.19,-249.5 1548.19,-249.5 1548.19,-249.5 1554.19,-249.5 1560.19,-255.5 1560.19,-261.5 1560.19,-261.5 1560.19,-273.5 1560.19,-273.5 1560.19,-279.5 1554.19,-285.5 1548.19,-285.5"/>
<text text-anchor="middle" x="1520.19" y="-263.8" font-family="Helvetica,sans-Serif" font-size="14.00">min_width</text>
</g>
<!-- min_width&#45;&gt;exec_paleocar -->
<g id="edge27" class="edge"><title>min_width&#45;&gt;exec_paleocar</title>
<path fill="none" stroke="black" d="M1484.9,-249.388C1480.34,-247.445 1475.69,-245.593 1471.19,-244 1433.9,-230.8 1392.23,-219.246 1354.76,-209.971"/>
<polygon fill="black" stroke="black" points="1355.37,-206.517 1344.83,-207.54 1353.71,-213.316 1355.37,-206.517"/>
</g>
<!-- verbose -->
<g id="node25" class="node"><title>verbose</title>
<path fill="#fcfcfc" stroke="black" d="M1450.19,-285.5C1450.19,-285.5 1406.19,-285.5 1406.19,-285.5 1400.19,-285.5 1394.19,-279.5 1394.19,-273.5 1394.19,-273.5 1394.19,-261.5 1394.19,-261.5 1394.19,-255.5 1400.19,-249.5 1406.19,-249.5 1406.19,-249.5 1450.19,-249.5 1450.19,-249.5 1456.19,-249.5 1462.19,-255.5 1462.19,-261.5 1462.19,-261.5 1462.19,-273.5 1462.19,-273.5 1462.19,-279.5 1456.19,-285.5 1450.19,-285.5"/>
<text text-anchor="middle" x="1428.19" y="-263.8" font-family="Helvetica,sans-Serif" font-size="14.00">verbose</text>
</g>
<!-- verbose&#45;&gt;exec_paleocar -->
<g id="edge28" class="edge"><title>verbose&#45;&gt;exec_paleocar</title>
<path fill="none" stroke="black" d="M1396.42,-249.453C1392.66,-247.562 1388.86,-245.705 1385.19,-244 1360.71,-232.619 1333.38,-221.145 1309.22,-211.411"/>
<polygon fill="black" stroke="black" points="1310.36,-208.099 1299.78,-207.63 1307.76,-214.597 1310.36,-208.099"/>
</g>
<!-- user_map_marker_pos_input_port -->
<g id="node26" class="node"><title>user_map_marker_pos_input_port</title>
<ellipse fill="#ffffff" stroke="black" cx="1220.19" cy="-659" rx="7" ry="7"/>
</g>
<!-- user_map_marker_pos_input_port&#45;&gt;user_map_marker_pos -->
<g id="edge29" class="edge"><title>user_map_marker_pos_input_port&#45;&gt;user_map_marker_pos</title>
<path fill="none" stroke="black" d="M1217.73,-652.171C1215.18,-646.933 1210.65,-639.537 1204.19,-636 1178.02,-621.677 1099.65,-632.662 1070.19,-628 1050.07,-624.817 1028.52,-619.833 1008.99,-614.694"/>
<polygon fill="black" stroke="black" points="1009.84,-611.3 999.274,-612.084 1008.02,-618.06 1009.84,-611.3"/>
</g>
<!-- user_prediction_years_input_port -->
<g id="node27" class="node"><title>user_prediction_years_input_port</title>
<ellipse fill="#ffffff" stroke="black" cx="1252.19" cy="-659" rx="7" ry="7"/>
</g>
<!-- user_prediction_years_input_port&#45;&gt;user_prediction_years -->
<g id="edge30" class="edge"><title>user_prediction_years_input_port&#45;&gt;user_prediction_years</title>
<path fill="none" stroke="black" d="M1249.1,-652.382C1246.24,-647.571 1241.62,-640.695 1236.19,-636 1227.86,-628.798 1218.05,-622.406 1208.25,-616.936"/>
<polygon fill="black" stroke="black" points="1209.77,-613.779 1199.29,-612.176 1206.48,-619.96 1209.77,-613.779"/>
</g>
<!-- prism_data_for_coordinates_input_port -->
<g id="node28" class="node"><title>prism_data_for_coordinates_input_port</title>
<ellipse fill="#ffffff" stroke="black" cx="1284.19" cy="-659" rx="7" ry="7"/>
</g>
<!-- prism_data_for_coordinates_input_port&#45;&gt;prism_data_for_coordinates -->
<g id="edge31" class="edge"><title>prism_data_for_coordinates_input_port&#45;&gt;prism_data_for_coordinates</title>
<path fill="none" stroke="black" d="M1284.19,-651.837C1284.19,-632.219 1284.19,-569.456 1284.19,-517.5 1284.19,-517.5 1284.19,-517.5 1284.19,-432.5 1284.19,-384.857 1298.38,-361.177 1265.19,-327 1248.07,-309.379 1202.19,-296.613 1152.51,-287.593"/>
<polygon fill="black" stroke="black" points="1152.99,-284.123 1142.54,-285.839 1151.78,-291.018 1152.99,-284.123"/>
</g>
<!-- calibration_years_input_port -->
<g id="node29" class="node"><title>calibration_years_input_port</title>
<ellipse fill="#ffffff" stroke="black" cx="1316.19" cy="-659" rx="7" ry="7"/>
</g>
<!-- calibration_years_input_port&#45;&gt;calibration_years -->
<g id="edge32" class="edge"><title>calibration_years_input_port&#45;&gt;calibration_years</title>
<path fill="none" stroke="black" d="M1316.64,-651.841C1318.03,-632.235 1322.19,-569.503 1322.19,-517.5 1322.19,-517.5 1322.19,-517.5 1322.19,-432.5 1322.19,-384.413 1320.97,-369.346 1298.19,-327 1291.34,-314.273 1280.96,-302.334 1270.99,-292.603"/>
<polygon fill="black" stroke="black" points="1273.21,-289.885 1263.51,-285.615 1268.43,-295 1273.21,-289.885"/>
</g>
<!-- label_input_port -->
<g id="node30" class="node"><title>label_input_port</title>
<ellipse fill="#ffffff" stroke="black" cx="1348.19" cy="-659" rx="7" ry="7"/>
</g>
<!-- label_input_port&#45;&gt;label -->
<g id="edge33" class="edge"><title>label_input_port&#45;&gt;label</title>
<path fill="none" stroke="black" d="M1349.09,-651.853C1351.88,-632.282 1360.19,-569.645 1360.19,-517.5 1360.19,-517.5 1360.19,-517.5 1360.19,-432.5 1360.19,-384.301 1355.4,-328.311 1352.14,-295.794"/>
<polygon fill="black" stroke="black" points="1355.61,-295.3 1351.1,-285.711 1348.65,-296.017 1355.61,-295.3"/>
</g>
<!-- verbose_input_port -->
<g id="node31" class="node"><title>verbose_input_port</title>
<ellipse fill="#ffffff" stroke="black" cx="1380.19" cy="-659" rx="7" ry="7"/>
</g>
<!-- verbose_input_port&#45;&gt;verbose -->
<g id="edge34" class="edge"><title>verbose_input_port&#45;&gt;verbose</title>
<path fill="none" stroke="black" d="M1382.2,-652.194C1388.62,-633.145 1408.19,-570.726 1408.19,-517.5 1408.19,-517.5 1408.19,-517.5 1408.19,-432.5 1408.19,-384.052 1416.89,-328.142 1422.82,-295.707"/>
<polygon fill="black" stroke="black" points="1426.3,-296.126 1424.7,-285.652 1419.42,-294.836 1426.3,-296.126"/>
</g>
<!-- min_width_input_port -->
<g id="node32" class="node"><title>min_width_input_port</title>
<ellipse fill="#ffffff" stroke="black" cx="1412.19" cy="-659" rx="7" ry="7"/>
</g>
<!-- min_width_input_port&#45;&gt;min_width -->
<g id="edge35" class="edge"><title>min_width_input_port&#45;&gt;min_width</title>
<path fill="none" stroke="black" d="M1417.01,-653.689C1434.45,-637.607 1493.19,-578.879 1493.19,-517.5 1493.19,-517.5 1493.19,-517.5 1493.19,-432.5 1493.19,-383.761 1504.94,-327.944 1512.94,-295.606"/>
<polygon fill="black" stroke="black" points="1516.42,-296.138 1515.48,-285.584 1509.63,-294.414 1516.42,-296.138"/>
</g>
<!-- historical_precip_data_input_port -->
<g id="node33" class="node"><title>historical_precip_data_input_port</title>
<ellipse fill="#ffffff" stroke="black" cx="1156.19" cy="-659" rx="7" ry="7"/>
</g>
<!-- historical_precip_data_input_port&#45;&gt;historical_precip_data -->
<g id="edge36" class="edge"><title>historical_precip_data_input_port&#45;&gt;historical_precip_data</title>
<path fill="none" stroke="black" d="M1149.22,-657.805C1104.12,-656.502 849.005,-648.462 642.188,-628 593.012,-623.135 538.348,-615.625 494.023,-608.999"/>
<polygon fill="black" stroke="black" points="494.271,-605.497 483.861,-607.468 493.228,-612.418 494.271,-605.497"/>
</g>
<!-- tree_ring_data_input_port -->
<g id="node34" class="node"><title>tree_ring_data_input_port</title>
<ellipse fill="#ffffff" stroke="black" cx="1188.19" cy="-659" rx="7" ry="7"/>
</g>
<!-- tree_ring_data_input_port&#45;&gt;tree_ring_data -->
<g id="edge37" class="edge"><title>tree_ring_data_input_port&#45;&gt;tree_ring_data</title>
<path fill="none" stroke="black" d="M1185.76,-652.12C1183.23,-646.845 1178.71,-639.425 1172.19,-636 1156.44,-627.733 869.837,-630.18 852.188,-628 824.688,-624.603 794.775,-618.366 769.155,-612.222"/>
<polygon fill="black" stroke="black" points="769.74,-608.762 759.195,-609.787 768.078,-615.562 769.74,-608.762"/>
</g>
</g>
</svg>
