<?xml version="1.0" encoding="UTF-8" standalone="no"?>
<!DOCTYPE svg PUBLIC "-//W3C//DTD SVG 1.1//EN"
 "http://www.w3.org/Graphics/SVG/1.1/DTD/svg11.dtd">
<!-- Generated by graphviz version 2.38.0 (20140413.2041)
 -->
<!-- Title: Workflow Pages: 1 -->
<svg width="2102pt" height="726pt"
 viewBox="0.00 0.00 2102.50 726.00" xmlns="http://www.w3.org/2000/svg" xmlns:xlink="http://www.w3.org/1999/xlink">
<g id="graph0" class="graph" transform="scale(1 1) rotate(0) translate(4 722)">
<title>Workflow</title>
<polygon fill="white" stroke="none" points="-4,4 -4,-722 2098.5,-722 2098.5,4 -4,4"/>
<text text-anchor="middle" x="1047.25" y="-699.6" font-family="Helvetica,sans-Serif" font-size="18.00">paleocar_web&#45;app_data_flow</text>
<g id="clust1" class="cluster"><title>cluster_workflow_box_outer</title>
<polygon fill="none" stroke="black" stroke-width="2" points="52.4951,-62 52.4951,-628 2086.5,-628 2086.5,-62 52.4951,-62"/>
</g>
<g id="clust2" class="cluster"><title>cluster_workflow_box_inner</title>
<polygon fill="none" stroke="black" stroke-width="0" points="60.4951,-70 60.4951,-620 2078.5,-620 2078.5,-70 60.4951,-70"/>
</g>
<g id="clust3" class="cluster"><title>cluster_input_ports_group_outer</title>
<polygon fill="none" stroke="black" stroke-width="0" points="1085.5,-636 1085.5,-682 1355.5,-682 1355.5,-636 1085.5,-636"/>
</g>
<g id="clust4" class="cluster"><title>cluster_input_ports_group_inner</title>
<polygon fill="none" stroke="black" stroke-width="0" points="1093.5,-644 1093.5,-674 1347.5,-674 1347.5,-644 1093.5,-644"/>
</g>
<g id="clust5" class="cluster"><title>cluster_output_ports_group_outer</title>
<polygon fill="none" stroke="black" stroke-width="0" points="669.495,-8 669.495,-54 907.495,-54 907.495,-8 669.495,-8"/>
</g>
<g id="clust6" class="cluster"><title>cluster_output_ports_group_inner</title>
<polygon fill="none" stroke="black" stroke-width="0" points="677.495,-16 677.495,-46 899.495,-46 899.495,-16 677.495,-16"/>
</g>
<!-- get_client_data -->
<g id="node1" class="node"><title>get_client_data</title>
<polygon fill="#ccffcc" stroke="black" points="594.995,-493.5 594.995,-539.5 1256,-539.5 1256,-493.5 594.995,-493.5"/>
<text text-anchor="middle" x="925.495" y="-524.3" font-family="Helvetica,sans-Serif" font-size="14.00">get_client_data</text>
<polyline fill="none" stroke="black" points="594.995,-516.5 1256,-516.5 "/>
<text text-anchor="middle" x="925.495" y="-501.3" font-family="Helvetica,sans-Serif" font-size="14.00">get the data from the user and generate the client side metadata for storing the information of each run.</text>
</g>
<!-- coordinates -->
<g id="node14" class="node"><title>coordinates</title>
<path fill="#ffffcc" stroke="black" d="M845.995,-451.5C845.995,-451.5 778.995,-451.5 778.995,-451.5 772.995,-451.5 766.995,-445.5 766.995,-439.5 766.995,-439.5 766.995,-427.5 766.995,-427.5 766.995,-421.5 772.995,-415.5 778.995,-415.5 778.995,-415.5 845.995,-415.5 845.995,-415.5 851.995,-415.5 857.995,-421.5 857.995,-427.5 857.995,-427.5 857.995,-439.5 857.995,-439.5 857.995,-445.5 851.995,-451.5 845.995,-451.5"/>
<text text-anchor="middle" x="812.495" y="-429.8" font-family="Helvetica,sans-Serif" font-size="14.00">coordinates</text>
</g>
<!-- get_client_data&#45;&gt;coordinates -->
<g id="edge3" class="edge"><title>get_client_data&#45;&gt;coordinates</title>
<path fill="none" stroke="black" d="M894.617,-493.366C879.179,-482.3 860.503,-468.913 844.865,-457.703"/>
<polygon fill="black" stroke="black" points="846.695,-454.709 836.529,-451.728 842.617,-460.398 846.695,-454.709"/>
</g>
<!-- session_id -->
<g id="node15" class="node"><title>session_id</title>
<path fill="#ffffcc" stroke="black" d="M954.495,-451.5C954.495,-451.5 892.495,-451.5 892.495,-451.5 886.495,-451.5 880.495,-445.5 880.495,-439.5 880.495,-439.5 880.495,-427.5 880.495,-427.5 880.495,-421.5 886.495,-415.5 892.495,-415.5 892.495,-415.5 954.495,-415.5 954.495,-415.5 960.495,-415.5 966.495,-421.5 966.495,-427.5 966.495,-427.5 966.495,-439.5 966.495,-439.5 966.495,-445.5 960.495,-451.5 954.495,-451.5"/>
<text text-anchor="middle" x="923.495" y="-429.8" font-family="Helvetica,sans-Serif" font-size="14.00">session_id</text>
</g>
<!-- get_client_data&#45;&gt;session_id -->
<g id="edge1" class="edge"><title>get_client_data&#45;&gt;session_id</title>
<path fill="none" stroke="black" d="M924.949,-493.366C924.708,-483.632 924.424,-472.102 924.17,-461.838"/>
<polygon fill="black" stroke="black" points="927.666,-461.638 923.921,-451.728 920.669,-461.811 927.666,-461.638"/>
</g>
<!-- run_id -->
<g id="node16" class="node"><title>run_id</title>
<path fill="#ffffcc" stroke="black" d="M727.495,-451.5C727.495,-451.5 695.495,-451.5 695.495,-451.5 689.495,-451.5 683.495,-445.5 683.495,-439.5 683.495,-439.5 683.495,-427.5 683.495,-427.5 683.495,-421.5 689.495,-415.5 695.495,-415.5 695.495,-415.5 727.495,-415.5 727.495,-415.5 733.495,-415.5 739.495,-421.5 739.495,-427.5 739.495,-427.5 739.495,-439.5 739.495,-439.5 739.495,-445.5 733.495,-451.5 727.495,-451.5"/>
<text text-anchor="middle" x="711.495" y="-429.8" font-family="Helvetica,sans-Serif" font-size="14.00">run_id</text>
</g>
<!-- get_client_data&#45;&gt;run_id -->
<g id="edge2" class="edge"><title>get_client_data&#45;&gt;run_id</title>
<path fill="none" stroke="black" d="M856.133,-493.429C825.569,-483.172 789.422,-470.311 757.495,-457 754.803,-455.877 752.045,-454.673 749.282,-453.426"/>
<polygon fill="black" stroke="black" points="750.504,-450.134 739.961,-449.081 747.546,-456.478 750.504,-450.134"/>
</g>
<!-- prediction_years -->
<g id="node17" class="node"><title>prediction_years</title>
<path fill="#ffffcc" stroke="black" d="M1244.5,-368.5C1244.5,-368.5 1146.5,-368.5 1146.5,-368.5 1140.5,-368.5 1134.5,-362.5 1134.5,-356.5 1134.5,-356.5 1134.5,-344.5 1134.5,-344.5 1134.5,-338.5 1140.5,-332.5 1146.5,-332.5 1146.5,-332.5 1244.5,-332.5 1244.5,-332.5 1250.5,-332.5 1256.5,-338.5 1256.5,-344.5 1256.5,-344.5 1256.5,-356.5 1256.5,-356.5 1256.5,-362.5 1250.5,-368.5 1244.5,-368.5"/>
<text text-anchor="middle" x="1195.5" y="-346.8" font-family="Helvetica,sans-Serif" font-size="14.00">prediction_years</text>
</g>
<!-- get_client_data&#45;&gt;prediction_years -->
<g id="edge4" class="edge"><title>get_client_data&#45;&gt;prediction_years</title>
<path fill="none" stroke="black" d="M961.909,-493.382C1013.37,-462.123 1106.87,-405.334 1158.59,-373.914"/>
<polygon fill="black" stroke="black" points="1160.71,-376.723 1167.44,-368.54 1157.08,-370.74 1160.71,-376.723"/>
</g>
<!-- acccess_static_server_files -->
<g id="node2" class="node"><title>acccess_static_server_files</title>
<polygon fill="#ccffcc" stroke="black" points="68.4951,-493.5 68.4951,-539.5 576.495,-539.5 576.495,-493.5 68.4951,-493.5"/>
<text text-anchor="middle" x="322.495" y="-524.3" font-family="Helvetica,sans-Serif" font-size="14.00">acccess_static_server_files</text>
<polyline fill="none" stroke="black" points="68.4951,-516.5 576.495,-516.5 "/>
<text text-anchor="middle" x="322.495" y="-501.3" font-family="Helvetica,sans-Serif" font-size="14.00">the static files available and required for execution of PaleoCAR on the server.</text>
</g>
<!-- prism_data -->
<g id="node5" class="node"><title>prism_data</title>
<path fill="#ffffcc" stroke="black" d="M161.495,-410.5C161.495,-410.5 291.495,-410.5 291.495,-410.5 297.495,-410.5 303.495,-416.5 303.495,-422.5 303.495,-422.5 303.495,-444.5 303.495,-444.5 303.495,-450.5 297.495,-456.5 291.495,-456.5 291.495,-456.5 161.495,-456.5 161.495,-456.5 155.495,-456.5 149.495,-450.5 149.495,-444.5 149.495,-444.5 149.495,-422.5 149.495,-422.5 149.495,-416.5 155.495,-410.5 161.495,-410.5"/>
<text text-anchor="middle" x="226.495" y="-441.3" font-family="Helvetica,sans-Serif" font-size="14.00">prism_data</text>
<polyline fill="none" stroke="black" points="149.495,-433.5 303.495,-433.5 "/>
<text text-anchor="middle" x="226.495" y="-418.3" font-family="Helvetica,sans-Serif" font-size="14.00">file:data/112W36N.nc</text>
</g>
<!-- acccess_static_server_files&#45;&gt;prism_data -->
<g id="edge7" class="edge"><title>acccess_static_server_files&#45;&gt;prism_data</title>
<path fill="none" stroke="black" d="M296.263,-493.366C285.257,-484.08 272.314,-473.16 260.584,-463.262"/>
<polygon fill="black" stroke="black" points="262.596,-460.381 252.696,-456.607 258.082,-465.731 262.596,-460.381"/>
</g>
<!-- itrdb -->
<g id="node6" class="node"><title>itrdb</title>
<path fill="#ffffcc" stroke="black" d="M146.495,-327.5C146.495,-327.5 270.495,-327.5 270.495,-327.5 276.495,-327.5 282.495,-333.5 282.495,-339.5 282.495,-339.5 282.495,-361.5 282.495,-361.5 282.495,-367.5 276.495,-373.5 270.495,-373.5 270.495,-373.5 146.495,-373.5 146.495,-373.5 140.495,-373.5 134.495,-367.5 134.495,-361.5 134.495,-361.5 134.495,-339.5 134.495,-339.5 134.495,-333.5 140.495,-327.5 146.495,-327.5"/>
<text text-anchor="middle" x="208.495" y="-358.3" font-family="Helvetica,sans-Serif" font-size="14.00">itrdb</text>
<polyline fill="none" stroke="black" points="134.495,-350.5 282.495,-350.5 "/>
<text text-anchor="middle" x="208.495" y="-335.3" font-family="Helvetica,sans-Serif" font-size="14.00">file:data/ITRDBA.rda</text>
</g>
<!-- acccess_static_server_files&#45;&gt;itrdb -->
<g id="edge8" class="edge"><title>acccess_static_server_files&#45;&gt;itrdb</title>
<path fill="none" stroke="black" d="M326.011,-493.381C328.43,-470.599 328.74,-434.988 312.495,-410 304.113,-397.106 291.846,-386.771 278.653,-378.595"/>
<polygon fill="black" stroke="black" points="280.29,-375.499 269.88,-373.528 276.789,-381.56 280.29,-375.499"/>
</g>
<!-- extract_prism_data -->
<g id="node3" class="node"><title>extract_prism_data</title>
<polygon fill="#ccffcc" stroke="black" points="300.495,-327.5 300.495,-373.5 1116.5,-373.5 1116.5,-327.5 300.495,-327.5"/>
<text text-anchor="middle" x="708.495" y="-358.3" font-family="Helvetica,sans-Serif" font-size="14.00">extract_prism_data</text>
<polyline fill="none" stroke="black" points="300.495,-350.5 1116.5,-350.5 "/>
<text text-anchor="middle" x="708.495" y="-335.3" font-family="Helvetica,sans-Serif" font-size="14.00">get the prism data file on the server with precipitation values and extract the data for the input coordinates and save as a csv file.</text>
</g>
<!-- prism_data_for_coordinates -->
<g id="node18" class="node"><title>prism_data_for_coordinates</title>
<path fill="#ffffcc" stroke="black" d="M671.495,-244.5C671.495,-244.5 957.495,-244.5 957.495,-244.5 963.495,-244.5 969.495,-250.5 969.495,-256.5 969.495,-256.5 969.495,-278.5 969.495,-278.5 969.495,-284.5 963.495,-290.5 957.495,-290.5 957.495,-290.5 671.495,-290.5 671.495,-290.5 665.495,-290.5 659.495,-284.5 659.495,-278.5 659.495,-278.5 659.495,-256.5 659.495,-256.5 659.495,-250.5 665.495,-244.5 671.495,-244.5"/>
<text text-anchor="middle" x="814.495" y="-275.3" font-family="Helvetica,sans-Serif" font-size="14.00">prism_data_for_coordinates</text>
<polyline fill="none" stroke="black" points="659.495,-267.5 969.495,-267.5 "/>
<text text-anchor="middle" x="814.495" y="-252.3" font-family="Helvetica,sans-Serif" font-size="14.00">file:.output/{session_id}/{run_id}/112W36N.csv</text>
</g>
<!-- extract_prism_data&#45;&gt;prism_data_for_coordinates -->
<g id="edge11" class="edge"><title>extract_prism_data&#45;&gt;prism_data_for_coordinates</title>
<path fill="none" stroke="black" d="M737.46,-327.366C749.846,-317.902 764.454,-306.739 777.601,-296.693"/>
<polygon fill="black" stroke="black" points="779.745,-299.46 785.565,-290.607 775.494,-293.898 779.745,-299.46"/>
</g>
<!-- exec_paleocar -->
<g id="node4" class="node"><title>exec_paleocar</title>
<polygon fill="#ccffcc" stroke="black" points="644.995,-161.5 644.995,-207.5 1652,-207.5 1652,-161.5 644.995,-161.5"/>
<text text-anchor="middle" x="1148.5" y="-192.3" font-family="Helvetica,sans-Serif" font-size="14.00">exec_paleocar</text>
<polyline fill="none" stroke="black" points="644.995,-184.5 1652,-184.5 "/>
<text text-anchor="middle" x="1148.5" y="-169.3" font-family="Helvetica,sans-Serif" font-size="14.00">execute paleocar for reconstruction of paleoclimate of the study region. Generate the timeseries graphs, and paleocar models of paleoclimatic reconstruction.</text>
</g>
<!-- prediction_graph -->
<g id="node7" class="node"><title>prediction_graph</title>
<path fill="#ffffcc" stroke="black" d="M1376.5,-78.5C1376.5,-78.5 1704.5,-78.5 1704.5,-78.5 1710.5,-78.5 1716.5,-84.5 1716.5,-90.5 1716.5,-90.5 1716.5,-112.5 1716.5,-112.5 1716.5,-118.5 1710.5,-124.5 1704.5,-124.5 1704.5,-124.5 1376.5,-124.5 1376.5,-124.5 1370.5,-124.5 1364.5,-118.5 1364.5,-112.5 1364.5,-112.5 1364.5,-90.5 1364.5,-90.5 1364.5,-84.5 1370.5,-78.5 1376.5,-78.5"/>
<text text-anchor="middle" x="1540.5" y="-109.3" font-family="Helvetica,sans-Serif" font-size="14.00">prediction_graph</text>
<polyline fill="none" stroke="black" points="1364.5,-101.5 1716.5,-101.5 "/>
<text text-anchor="middle" x="1540.5" y="-86.3" font-family="Helvetica,sans-Serif" font-size="14.00">file:.output/{session_id}/{run_id}/{label}_prediction.jpg</text>
</g>
<!-- exec_paleocar&#45;&gt;prediction_graph -->
<g id="edge17" class="edge"><title>exec_paleocar&#45;&gt;prediction_graph</title>
<path fill="none" stroke="black" d="M1255.09,-161.473C1307.38,-150.668 1370.48,-137.631 1424.03,-126.565"/>
<polygon fill="black" stroke="black" points="1424.83,-129.973 1433.92,-124.522 1423.42,-123.118 1424.83,-129.973"/>
</g>
<!-- paleocar_models -->
<g id="node8" class="node"><title>paleocar_models</title>
<path fill="#ffffcc" stroke="black" d="M1746.5,-78.5C1746.5,-78.5 2058.5,-78.5 2058.5,-78.5 2064.5,-78.5 2070.5,-84.5 2070.5,-90.5 2070.5,-90.5 2070.5,-112.5 2070.5,-112.5 2070.5,-118.5 2064.5,-124.5 2058.5,-124.5 2058.5,-124.5 1746.5,-124.5 1746.5,-124.5 1740.5,-124.5 1734.5,-118.5 1734.5,-112.5 1734.5,-112.5 1734.5,-90.5 1734.5,-90.5 1734.5,-84.5 1740.5,-78.5 1746.5,-78.5"/>
<text text-anchor="middle" x="1902.5" y="-109.3" font-family="Helvetica,sans-Serif" font-size="14.00">paleocar_models</text>
<polyline fill="none" stroke="black" points="1734.5,-101.5 2070.5,-101.5 "/>
<text text-anchor="middle" x="1902.5" y="-86.3" font-family="Helvetica,sans-Serif" font-size="14.00">file:.output/{session_id}/{run_id}/{label}_model.Rds</text>
</g>
<!-- exec_paleocar&#45;&gt;paleocar_models -->
<g id="edge19" class="edge"><title>exec_paleocar&#45;&gt;paleocar_models</title>
<path fill="none" stroke="black" d="M1378.87,-161.495C1481.67,-151.339 1604.53,-138.738 1724.25,-125.13"/>
<polygon fill="black" stroke="black" points="1724.8,-128.59 1734.34,-123.98 1724.01,-121.635 1724.8,-128.59"/>
</g>
<!-- paleocar_log_file -->
<g id="node9" class="node"><title>paleocar_log_file</title>
<path fill="#ffffcc" stroke="black" d="M80.4951,-78.5C80.4951,-78.5 424.495,-78.5 424.495,-78.5 430.495,-78.5 436.495,-84.5 436.495,-90.5 436.495,-90.5 436.495,-112.5 436.495,-112.5 436.495,-118.5 430.495,-124.5 424.495,-124.5 424.495,-124.5 80.4951,-124.5 80.4951,-124.5 74.4951,-124.5 68.4951,-118.5 68.4951,-112.5 68.4951,-112.5 68.4951,-90.5 68.4951,-90.5 68.4951,-84.5 74.4951,-78.5 80.4951,-78.5"/>
<text text-anchor="middle" x="252.495" y="-109.3" font-family="Helvetica,sans-Serif" font-size="14.00">paleocar_log_file</text>
<polyline fill="none" stroke="black" points="68.4951,-101.5 436.495,-101.5 "/>
<text text-anchor="middle" x="252.495" y="-86.3" font-family="Helvetica,sans-Serif" font-size="14.00">file:.output/{session_id}/{run_id}/paleocar_model_log.txt</text>
</g>
<!-- exec_paleocar&#45;&gt;paleocar_log_file -->
<g id="edge21" class="edge"><title>exec_paleocar&#45;&gt;paleocar_log_file</title>
<path fill="none" stroke="black" d="M857.999,-161.493C734.206,-151.569 587.95,-139.123 446.771,-125.113"/>
<polygon fill="black" stroke="black" points="446.913,-121.61 436.615,-124.102 446.219,-128.576 446.913,-121.61"/>
</g>
<!-- uncertainty_model -->
<g id="node10" class="node"><title>uncertainty_model</title>
<path fill="#ffffcc" stroke="black" d="M618.495,-78.5C618.495,-78.5 958.495,-78.5 958.495,-78.5 964.495,-78.5 970.495,-84.5 970.495,-90.5 970.495,-90.5 970.495,-112.5 970.495,-112.5 970.495,-118.5 964.495,-124.5 958.495,-124.5 958.495,-124.5 618.495,-124.5 618.495,-124.5 612.495,-124.5 606.495,-118.5 606.495,-112.5 606.495,-112.5 606.495,-90.5 606.495,-90.5 606.495,-84.5 612.495,-78.5 618.495,-78.5"/>
<text text-anchor="middle" x="788.495" y="-109.3" font-family="Helvetica,sans-Serif" font-size="14.00">uncertainty_model</text>
<polyline fill="none" stroke="black" points="606.495,-101.5 970.495,-101.5 "/>
<text text-anchor="middle" x="788.495" y="-86.3" font-family="Helvetica,sans-Serif" font-size="14.00">file:.output/{session_id}/{run_id}/{label}_uncertainty.Rds</text>
</g>
<!-- exec_paleocar&#45;&gt;uncertainty_model -->
<g id="edge18" class="edge"><title>exec_paleocar&#45;&gt;uncertainty_model</title>
<path fill="none" stroke="black" d="M1050.6,-161.473C1002.88,-150.736 945.353,-137.793 896.368,-126.771"/>
<polygon fill="black" stroke="black" points="896.896,-123.303 886.372,-124.522 895.359,-130.132 896.896,-123.303"/>
</g>
<!-- uncertainty_graph -->
<g id="node11" class="node"><title>uncertainty_graph</title>
<path fill="#ffffcc" stroke="black" d="M1001,-78.5C1001,-78.5 1334,-78.5 1334,-78.5 1340,-78.5 1346,-84.5 1346,-90.5 1346,-90.5 1346,-112.5 1346,-112.5 1346,-118.5 1340,-124.5 1334,-124.5 1334,-124.5 1001,-124.5 1001,-124.5 994.995,-124.5 988.995,-118.5 988.995,-112.5 988.995,-112.5 988.995,-90.5 988.995,-90.5 988.995,-84.5 994.995,-78.5 1001,-78.5"/>
<text text-anchor="middle" x="1167.5" y="-109.3" font-family="Helvetica,sans-Serif" font-size="14.00">uncertainty_graph</text>
<polyline fill="none" stroke="black" points="988.995,-101.5 1346,-101.5 "/>
<text text-anchor="middle" x="1167.5" y="-86.3" font-family="Helvetica,sans-Serif" font-size="14.00">file:.output/{session_id}/{run_id}/{label}_uncertainty.jpg</text>
</g>
<!-- exec_paleocar&#45;&gt;uncertainty_graph -->
<g id="edge20" class="edge"><title>exec_paleocar&#45;&gt;uncertainty_graph</title>
<path fill="none" stroke="black" d="M1153.69,-161.366C1155.63,-153.062 1157.89,-143.451 1160,-134.434"/>
<polygon fill="black" stroke="black" points="1163.43,-135.142 1162.31,-124.607 1156.62,-133.543 1163.43,-135.142"/>
</g>
<!-- prediction_models -->
<g id="node25" class="node"><title>prediction_models</title>
<path fill="#fcfcfc" stroke="black" d="M576.495,-119.5C576.495,-119.5 466.495,-119.5 466.495,-119.5 460.495,-119.5 454.495,-113.5 454.495,-107.5 454.495,-107.5 454.495,-95.5 454.495,-95.5 454.495,-89.5 460.495,-83.5 466.495,-83.5 466.495,-83.5 576.495,-83.5 576.495,-83.5 582.495,-83.5 588.495,-89.5 588.495,-95.5 588.495,-95.5 588.495,-107.5 588.495,-107.5 588.495,-113.5 582.495,-119.5 576.495,-119.5"/>
<text text-anchor="middle" x="521.495" y="-97.8" font-family="Helvetica,sans-Serif" font-size="14.00">prediction_models</text>
</g>
<!-- exec_paleocar&#45;&gt;prediction_models -->
<g id="edge16" class="edge"><title>exec_paleocar&#45;&gt;prediction_models</title>
<path fill="none" stroke="black" d="M846.729,-161.466C765.368,-152.809 677.685,-140.988 597.495,-125 593.32,-124.168 589.044,-123.208 584.753,-122.163"/>
<polygon fill="black" stroke="black" points="585.308,-118.693 574.752,-119.594 583.566,-125.472 585.308,-118.693"/>
</g>
<!-- prism_data&#45;&gt;extract_prism_data -->
<g id="edge15" class="edge"><title>prism_data&#45;&gt;extract_prism_data</title>
<path fill="none" stroke="black" d="M303.669,-419.531C374.604,-407.61 481.494,-389.648 567.628,-375.173"/>
<polygon fill="black" stroke="black" points="568.209,-378.624 577.491,-373.515 567.049,-371.721 568.209,-378.624"/>
</g>
<!-- prism_data_output_port -->
<g id="node34" class="node"><title>prism_data_output_port</title>
<ellipse fill="#ffffff" stroke="black" cx="692.495" cy="-31" rx="7" ry="7"/>
</g>
<!-- prism_data&#45;&gt;prism_data_output_port -->
<g id="edge37" class="edge"><title>prism_data&#45;&gt;prism_data_output_port</title>
<path fill="none" stroke="black" d="M149.407,-410.946C84.6118,-387.569 2.49514,-343.206 2.49514,-268.5 2.49514,-268.5 2.49514,-268.5 2.49514,-183.5 2.49514,-127.983 -11.2893,-97.3782 31.4951,-62 57.0424,-40.8751 574.06,-33.4538 675.362,-32.2"/>
<polygon fill="black" stroke="black" points="675.426,-35.6995 685.383,-32.0796 675.342,-28.7 675.426,-35.6995"/>
</g>
<!-- itrdb&#45;&gt;exec_paleocar -->
<g id="edge24" class="edge"><title>itrdb&#45;&gt;exec_paleocar</title>
<path fill="none" stroke="black" d="M282.671,-329.244C285.649,-328.478 288.599,-327.727 291.495,-327 450.331,-287.125 489.149,-272.04 650.495,-244 732.95,-229.67 823.708,-217.853 904.904,-208.682"/>
<polygon fill="black" stroke="black" points="905.72,-212.113 915.268,-207.52 904.94,-205.156 905.72,-212.113"/>
</g>
<!-- itrdb_output_port -->
<g id="node35" class="node"><title>itrdb_output_port</title>
<ellipse fill="#ffffff" stroke="black" cx="724.495" cy="-31" rx="7" ry="7"/>
</g>
<!-- itrdb&#45;&gt;itrdb_output_port -->
<g id="edge38" class="edge"><title>itrdb&#45;&gt;itrdb_output_port</title>
<path fill="none" stroke="black" d="M180.751,-327.305C118.599,-275.088 -20.308,-142.793 59.4951,-62 72.1649,-49.1731 692.48,-62.2801 708.495,-54 711.767,-52.3082 714.531,-49.605 716.792,-46.6637"/>
<polygon fill="black" stroke="black" points="719.91,-48.2708 722.074,-37.8993 713.915,-44.6575 719.91,-48.2708"/>
</g>
<!-- prediction_graph_output_port -->
<g id="node36" class="node"><title>prediction_graph_output_port</title>
<ellipse fill="#ffffff" stroke="black" cx="852.495" cy="-31" rx="7" ry="7"/>
</g>
<!-- prediction_graph&#45;&gt;prediction_graph_output_port -->
<g id="edge39" class="edge"><title>prediction_graph&#45;&gt;prediction_graph_output_port</title>
<path fill="none" stroke="black" d="M1451.65,-78.4657C1421.34,-71.8984 1387.12,-65.5187 1355.5,-62 1328.6,-59.0079 892.506,-66.4765 868.495,-54 865.226,-52.3015 862.464,-49.5957 860.203,-46.654"/>
<polygon fill="black" stroke="black" points="863.081,-44.6486 854.919,-37.8932 857.087,-48.2639 863.081,-44.6486"/>
</g>
<!-- paleocar_models_output_port -->
<g id="node37" class="node"><title>paleocar_models_output_port</title>
<ellipse fill="#ffffff" stroke="black" cx="884.495" cy="-31" rx="7" ry="7"/>
</g>
<!-- paleocar_models&#45;&gt;paleocar_models_output_port -->
<g id="edge40" class="edge"><title>paleocar_models&#45;&gt;paleocar_models_output_port</title>
<path fill="none" stroke="black" d="M1816.15,-78.4884C1787.49,-72.0497 1755.29,-65.7418 1725.5,-62 1557.82,-40.9446 1006.41,-33.4448 901.735,-32.1954"/>
<polygon fill="black" stroke="black" points="901.494,-28.6924 891.454,-32.0759 901.412,-35.6919 901.494,-28.6924"/>
</g>
<!-- paleocar_log_file_output_port -->
<g id="node38" class="node"><title>paleocar_log_file_output_port</title>
<ellipse fill="#ffffff" stroke="black" cx="756.495" cy="-31" rx="7" ry="7"/>
</g>
<!-- paleocar_log_file&#45;&gt;paleocar_log_file_output_port -->
<g id="edge41" class="edge"><title>paleocar_log_file&#45;&gt;paleocar_log_file_output_port</title>
<path fill="none" stroke="black" d="M346.232,-78.4779C377.611,-71.9967 412.9,-65.6661 445.495,-62 461.787,-60.1675 725.988,-61.637 740.495,-54 743.755,-52.2841 746.513,-49.5714 748.774,-46.6287"/>
<polygon fill="black" stroke="black" points="751.886,-48.246 754.063,-37.8772 745.895,-44.6255 751.886,-48.246"/>
</g>
<!-- uncertainty_model_output_port -->
<g id="node39" class="node"><title>uncertainty_model_output_port</title>
<ellipse fill="#ffffff" stroke="black" cx="788.495" cy="-31" rx="7" ry="7"/>
</g>
<!-- uncertainty_model&#45;&gt;uncertainty_model_output_port -->
<g id="edge42" class="edge"><title>uncertainty_model&#45;&gt;uncertainty_model_output_port</title>
<path fill="none" stroke="black" d="M788.495,-78.4491C788.495,-68.6592 788.495,-57.3397 788.495,-48.3261"/>
<polygon fill="black" stroke="black" points="791.995,-48.1278 788.495,-38.1279 784.995,-48.1279 791.995,-48.1278"/>
</g>
<!-- uncertainty_graph_output_port -->
<g id="node40" class="node"><title>uncertainty_graph_output_port</title>
<ellipse fill="#ffffff" stroke="black" cx="820.495" cy="-31" rx="7" ry="7"/>
</g>
<!-- uncertainty_graph&#45;&gt;uncertainty_graph_output_port -->
<g id="edge43" class="edge"><title>uncertainty_graph&#45;&gt;uncertainty_graph_output_port</title>
<path fill="none" stroke="black" d="M1073.75,-78.4975C1043.79,-72.2208 1010.39,-66.0055 979.495,-62 963.714,-59.9538 850.469,-61.6147 836.495,-54 833.26,-52.2373 830.512,-49.5064 828.253,-46.561"/>
<polygon fill="black" stroke="black" points="831.134,-44.5632 822.951,-37.8344 825.152,-48.198 831.134,-44.5632"/>
</g>
<!-- user_map_marker_pos -->
<g id="node12" class="node"><title>user_map_marker_pos</title>
<path fill="#ffffcc" stroke="black" d="M1226.5,-612C1226.5,-612 1086.5,-612 1086.5,-612 1080.5,-612 1074.5,-606 1074.5,-600 1074.5,-600 1074.5,-588 1074.5,-588 1074.5,-582 1080.5,-576 1086.5,-576 1086.5,-576 1226.5,-576 1226.5,-576 1232.5,-576 1238.5,-582 1238.5,-588 1238.5,-588 1238.5,-600 1238.5,-600 1238.5,-606 1232.5,-612 1226.5,-612"/>
<text text-anchor="middle" x="1156.5" y="-590.3" font-family="Helvetica,sans-Serif" font-size="14.00">user_map_marker_pos</text>
</g>
<!-- user_map_marker_pos&#45;&gt;get_client_data -->
<g id="edge5" class="edge"><title>user_map_marker_pos&#45;&gt;get_client_data</title>
<path fill="none" stroke="black" d="M1104.37,-575.962C1074.45,-566.185 1036.32,-553.723 1002.96,-542.818"/>
<polygon fill="black" stroke="black" points="1003.82,-539.418 993.23,-539.639 1001.65,-546.072 1003.82,-539.418"/>
</g>
<!-- user_prediction_years -->
<g id="node13" class="node"><title>user_prediction_years</title>
<path fill="#ffffcc" stroke="black" d="M1009.5,-612C1009.5,-612 875.495,-612 875.495,-612 869.495,-612 863.495,-606 863.495,-600 863.495,-600 863.495,-588 863.495,-588 863.495,-582 869.495,-576 875.495,-576 875.495,-576 1009.5,-576 1009.5,-576 1015.5,-576 1021.5,-582 1021.5,-588 1021.5,-588 1021.5,-600 1021.5,-600 1021.5,-606 1015.5,-612 1009.5,-612"/>
<text text-anchor="middle" x="942.495" y="-590.3" font-family="Helvetica,sans-Serif" font-size="14.00">user_prediction_years</text>
</g>
<!-- user_prediction_years&#45;&gt;get_client_data -->
<g id="edge6" class="edge"><title>user_prediction_years&#45;&gt;get_client_data</title>
<path fill="none" stroke="black" d="M938.638,-575.868C936.887,-568.092 934.757,-558.632 932.725,-549.611"/>
<polygon fill="black" stroke="black" points="936.111,-548.714 930.5,-539.727 929.282,-550.251 936.111,-548.714"/>
</g>
<!-- coordinates&#45;&gt;extract_prism_data -->
<g id="edge12" class="edge"><title>coordinates&#45;&gt;extract_prism_data</title>
<path fill="none" stroke="black" d="M790.439,-415.322C777.258,-405.056 760.184,-391.757 745.035,-379.959"/>
<polygon fill="black" stroke="black" points="746.894,-376.97 736.853,-373.587 742.592,-382.493 746.894,-376.97"/>
</g>
<!-- session_id&#45;&gt;extract_prism_data -->
<g id="edge13" class="edge"><title>session_id&#45;&gt;extract_prism_data</title>
<path fill="none" stroke="black" d="M881.35,-415.412C876.683,-413.566 871.993,-411.731 867.495,-410 838.764,-398.946 806.95,-387.152 779.376,-377.072"/>
<polygon fill="black" stroke="black" points="780.405,-373.722 769.811,-373.581 778.006,-380.297 780.405,-373.722"/>
</g>
<!-- run_id&#45;&gt;extract_prism_data -->
<g id="edge14" class="edge"><title>run_id&#45;&gt;extract_prism_data</title>
<path fill="none" stroke="black" d="M710.859,-415.322C710.517,-406.102 710.085,-394.435 709.684,-383.606"/>
<polygon fill="black" stroke="black" points="713.181,-383.45 709.313,-373.587 706.186,-383.71 713.181,-383.45"/>
</g>
<!-- prediction_years&#45;&gt;exec_paleocar -->
<g id="edge22" class="edge"><title>prediction_years&#45;&gt;exec_paleocar</title>
<path fill="none" stroke="black" d="M1152.02,-332.457C1134.25,-323.076 1115.54,-309.509 1105.5,-291 1095.53,-272.64 1098.99,-263.849 1105.5,-244 1108.77,-234.029 1114.46,-224.357 1120.65,-215.843"/>
<polygon fill="black" stroke="black" points="1123.56,-217.793 1126.93,-207.748 1118.04,-213.499 1123.56,-217.793"/>
</g>
<!-- prism_data_for_coordinates&#45;&gt;exec_paleocar -->
<g id="edge23" class="edge"><title>prism_data_for_coordinates&#45;&gt;exec_paleocar</title>
<path fill="none" stroke="black" d="M905.321,-244.473C949.413,-233.78 1002.52,-220.901 1047.84,-209.91"/>
<polygon fill="black" stroke="black" points="1048.79,-213.281 1057.69,-207.522 1047.14,-206.478 1048.79,-213.281"/>
</g>
<!-- historical_precip_data -->
<g id="node19" class="node"><title>historical_precip_data</title>
<path fill="#fcfcfc" stroke="black" d="M754.995,-612C754.995,-612 623.995,-612 623.995,-612 617.995,-612 611.995,-606 611.995,-600 611.995,-600 611.995,-588 611.995,-588 611.995,-582 617.995,-576 623.995,-576 623.995,-576 754.995,-576 754.995,-576 760.995,-576 766.995,-582 766.995,-588 766.995,-588 766.995,-600 766.995,-600 766.995,-606 760.995,-612 754.995,-612"/>
<text text-anchor="middle" x="689.495" y="-590.3" font-family="Helvetica,sans-Serif" font-size="14.00">historical_precip_data</text>
</g>
<!-- historical_precip_data&#45;&gt;acccess_static_server_files -->
<g id="edge9" class="edge"><title>historical_precip_data&#45;&gt;acccess_static_server_files</title>
<path fill="none" stroke="black" d="M611.664,-576.988C561.644,-566.698 495.734,-553.139 439.472,-541.565"/>
<polygon fill="black" stroke="black" points="439.948,-538.089 429.448,-539.503 438.538,-544.946 439.948,-538.089"/>
</g>
<!-- tree_ring_data -->
<g id="node20" class="node"><title>tree_ring_data</title>
<path fill="#fcfcfc" stroke="black" d="M442.495,-612C442.495,-612 358.495,-612 358.495,-612 352.495,-612 346.495,-606 346.495,-600 346.495,-600 346.495,-588 346.495,-588 346.495,-582 352.495,-576 358.495,-576 358.495,-576 442.495,-576 442.495,-576 448.495,-576 454.495,-582 454.495,-588 454.495,-588 454.495,-600 454.495,-600 454.495,-606 448.495,-612 442.495,-612"/>
<text text-anchor="middle" x="400.495" y="-590.3" font-family="Helvetica,sans-Serif" font-size="14.00">tree_ring_data</text>
</g>
<!-- tree_ring_data&#45;&gt;acccess_static_server_files -->
<g id="edge10" class="edge"><title>tree_ring_data&#45;&gt;acccess_static_server_files</title>
<path fill="none" stroke="black" d="M382.796,-575.868C373.898,-567.256 362.867,-556.578 352.682,-546.719"/>
<polygon fill="black" stroke="black" points="355.077,-544.167 345.458,-539.727 350.209,-549.197 355.077,-544.167"/>
</g>
<!-- calibration_years -->
<g id="node21" class="node"><title>calibration_years</title>
<path fill="#fcfcfc" stroke="black" d="M1410,-285.5C1410,-285.5 1311,-285.5 1311,-285.5 1305,-285.5 1299,-279.5 1299,-273.5 1299,-273.5 1299,-261.5 1299,-261.5 1299,-255.5 1305,-249.5 1311,-249.5 1311,-249.5 1410,-249.5 1410,-249.5 1416,-249.5 1422,-255.5 1422,-261.5 1422,-261.5 1422,-273.5 1422,-273.5 1422,-279.5 1416,-285.5 1410,-285.5"/>
<text text-anchor="middle" x="1360.5" y="-263.8" font-family="Helvetica,sans-Serif" font-size="14.00">calibration_years</text>
</g>
<!-- calibration_years&#45;&gt;exec_paleocar -->
<g id="edge25" class="edge"><title>calibration_years&#45;&gt;exec_paleocar</title>
<path fill="none" stroke="black" d="M1315.79,-249.421C1286.83,-238.353 1248.55,-223.729 1215.92,-211.262"/>
<polygon fill="black" stroke="black" points="1217.03,-207.939 1206.44,-207.639 1214.53,-214.478 1217.03,-207.939"/>
</g>
<!-- label -->
<g id="node22" class="node"><title>label</title>
<path fill="#fcfcfc" stroke="black" d="M1482.5,-285.5C1482.5,-285.5 1452.5,-285.5 1452.5,-285.5 1446.5,-285.5 1440.5,-279.5 1440.5,-273.5 1440.5,-273.5 1440.5,-261.5 1440.5,-261.5 1440.5,-255.5 1446.5,-249.5 1452.5,-249.5 1452.5,-249.5 1482.5,-249.5 1482.5,-249.5 1488.5,-249.5 1494.5,-255.5 1494.5,-261.5 1494.5,-261.5 1494.5,-273.5 1494.5,-273.5 1494.5,-279.5 1488.5,-285.5 1482.5,-285.5"/>
<text text-anchor="middle" x="1467.5" y="-263.8" font-family="Helvetica,sans-Serif" font-size="14.00">label</text>
</g>
<!-- label&#45;&gt;exec_paleocar -->
<g id="edge26" class="edge"><title>label&#45;&gt;exec_paleocar</title>
<path fill="none" stroke="black" d="M1442.53,-249.347C1438.93,-247.338 1435.19,-245.481 1431.5,-244 1394.79,-229.287 1353.86,-218.089 1314.78,-209.635"/>
<polygon fill="black" stroke="black" points="1315.4,-206.188 1304.89,-207.545 1313.95,-213.037 1315.4,-206.188"/>
</g>
<!-- min_width -->
<g id="node23" class="node"><title>min_width</title>
<path fill="#fcfcfc" stroke="black" d="M1268.5,-285.5C1268.5,-285.5 1212.5,-285.5 1212.5,-285.5 1206.5,-285.5 1200.5,-279.5 1200.5,-273.5 1200.5,-273.5 1200.5,-261.5 1200.5,-261.5 1200.5,-255.5 1206.5,-249.5 1212.5,-249.5 1212.5,-249.5 1268.5,-249.5 1268.5,-249.5 1274.5,-249.5 1280.5,-255.5 1280.5,-261.5 1280.5,-261.5 1280.5,-273.5 1280.5,-273.5 1280.5,-279.5 1274.5,-285.5 1268.5,-285.5"/>
<text text-anchor="middle" x="1240.5" y="-263.8" font-family="Helvetica,sans-Serif" font-size="14.00">min_width</text>
</g>
<!-- min_width&#45;&gt;exec_paleocar -->
<g id="edge27" class="edge"><title>min_width&#45;&gt;exec_paleocar</title>
<path fill="none" stroke="black" d="M1220.98,-249.322C1209.43,-239.151 1194.5,-226.003 1181.19,-214.287"/>
<polygon fill="black" stroke="black" points="1183.4,-211.568 1173.58,-207.587 1178.77,-216.822 1183.4,-211.568"/>
</g>
<!-- verbose -->
<g id="node24" class="node"><title>verbose</title>
<path fill="#fcfcfc" stroke="black" d="M1170.5,-285.5C1170.5,-285.5 1126.5,-285.5 1126.5,-285.5 1120.5,-285.5 1114.5,-279.5 1114.5,-273.5 1114.5,-273.5 1114.5,-261.5 1114.5,-261.5 1114.5,-255.5 1120.5,-249.5 1126.5,-249.5 1126.5,-249.5 1170.5,-249.5 1170.5,-249.5 1176.5,-249.5 1182.5,-255.5 1182.5,-261.5 1182.5,-261.5 1182.5,-273.5 1182.5,-273.5 1182.5,-279.5 1176.5,-285.5 1170.5,-285.5"/>
<text text-anchor="middle" x="1148.5" y="-263.8" font-family="Helvetica,sans-Serif" font-size="14.00">verbose</text>
</g>
<!-- verbose&#45;&gt;exec_paleocar -->
<g id="edge28" class="edge"><title>verbose&#45;&gt;exec_paleocar</title>
<path fill="none" stroke="black" d="M1148.5,-249.322C1148.5,-240.102 1148.5,-228.435 1148.5,-217.606"/>
<polygon fill="black" stroke="black" points="1152,-217.587 1148.5,-207.587 1145,-217.587 1152,-217.587"/>
</g>
<!-- user_map_marker_pos_input_port -->
<g id="node26" class="node"><title>user_map_marker_pos_input_port</title>
<ellipse fill="#ffffff" stroke="black" cx="1204.5" cy="-659" rx="7" ry="7"/>
</g>
<!-- user_map_marker_pos_input_port&#45;&gt;user_map_marker_pos -->
<g id="edge29" class="edge"><title>user_map_marker_pos_input_port&#45;&gt;user_map_marker_pos</title>
<path fill="none" stroke="black" d="M1200.86,-652.896C1197.65,-648.414 1192.82,-641.733 1188.5,-636 1184.57,-630.794 1180.32,-625.264 1176.23,-620.007"/>
<polygon fill="black" stroke="black" points="1178.93,-617.779 1170.02,-612.056 1173.42,-622.09 1178.93,-617.779"/>
</g>
<!-- user_prediction_years_input_port -->
<g id="node27" class="node"><title>user_prediction_years_input_port</title>
<ellipse fill="#ffffff" stroke="black" cx="1172.5" cy="-659" rx="7" ry="7"/>
</g>
<!-- user_prediction_years_input_port&#45;&gt;user_prediction_years -->
<g id="edge30" class="edge"><title>user_prediction_years_input_port&#45;&gt;user_prediction_years</title>
<path fill="none" stroke="black" d="M1170.01,-652.212C1167.45,-647.004 1162.91,-639.628 1156.5,-636 1138.83,-626.004 1085.49,-631.532 1065.5,-628 1046.49,-624.641 1026.14,-619.735 1007.57,-614.727"/>
<polygon fill="black" stroke="black" points="1008.32,-611.304 997.753,-612.026 1006.47,-618.053 1008.32,-611.304"/>
</g>
<!-- calibration_years_input_port -->
<g id="node28" class="node"><title>calibration_years_input_port</title>
<ellipse fill="#ffffff" stroke="black" cx="1300.5" cy="-659" rx="7" ry="7"/>
</g>
<!-- calibration_years_input_port&#45;&gt;calibration_years -->
<g id="edge31" class="edge"><title>calibration_years_input_port&#45;&gt;calibration_years</title>
<path fill="none" stroke="black" d="M1304.05,-652.835C1307.22,-648.314 1312.02,-641.61 1316.5,-636 1319.44,-632.308 1321.14,-632.098 1323.5,-628 1349.27,-583.08 1360.5,-569.291 1360.5,-517.5 1360.5,-517.5 1360.5,-517.5 1360.5,-432.5 1360.5,-384.409 1360.5,-328.385 1360.5,-295.831"/>
<polygon fill="black" stroke="black" points="1364,-295.736 1360.5,-285.736 1357,-295.736 1364,-295.736"/>
</g>
<!-- label_input_port -->
<g id="node29" class="node"><title>label_input_port</title>
<ellipse fill="#ffffff" stroke="black" cx="1332.5" cy="-659" rx="7" ry="7"/>
</g>
<!-- label_input_port&#45;&gt;label -->
<g id="edge32" class="edge"><title>label_input_port&#45;&gt;label</title>
<path fill="none" stroke="black" d="M1337.93,-654.367C1358.9,-639.851 1433.5,-583.59 1433.5,-517.5 1433.5,-517.5 1433.5,-517.5 1433.5,-432.5 1433.5,-383.435 1448.27,-327.8 1458.34,-295.572"/>
<polygon fill="black" stroke="black" points="1461.7,-296.56 1461.42,-285.969 1455.03,-294.423 1461.7,-296.56"/>
</g>
<!-- verbose_input_port -->
<g id="node30" class="node"><title>verbose_input_port</title>
<ellipse fill="#ffffff" stroke="black" cx="1236.5" cy="-659" rx="7" ry="7"/>
</g>
<!-- verbose_input_port&#45;&gt;verbose -->
<g id="edge33" class="edge"><title>verbose_input_port&#45;&gt;verbose</title>
<path fill="none" stroke="black" d="M1239.79,-652.607C1250.64,-634.352 1284.5,-572.92 1284.5,-517.5 1284.5,-517.5 1284.5,-517.5 1284.5,-432.5 1284.5,-384.857 1294.26,-364.983 1265.5,-327 1243.42,-297.842 1224.15,-307.48 1191.5,-291 1190.95,-290.727 1190.41,-290.452 1189.86,-290.174"/>
<polygon fill="black" stroke="black" points="1191.34,-286.999 1180.84,-285.556 1188.15,-293.229 1191.34,-286.999"/>
</g>
<!-- min_width_input_port -->
<g id="node31" class="node"><title>min_width_input_port</title>
<ellipse fill="#ffffff" stroke="black" cx="1268.5" cy="-659" rx="7" ry="7"/>
</g>
<!-- min_width_input_port&#45;&gt;min_width -->
<g id="edge34" class="edge"><title>min_width_input_port&#45;&gt;min_width</title>
<path fill="none" stroke="black" d="M1271.62,-652.429C1274.51,-647.648 1279.15,-640.79 1284.5,-636 1289.83,-631.218 1294.26,-633.779 1298.5,-628 1328.22,-587.474 1322.5,-567.756 1322.5,-517.5 1322.5,-517.5 1322.5,-517.5 1322.5,-432.5 1322.5,-384.413 1321.65,-369.145 1298.5,-327 1291.47,-314.215 1280.84,-302.331 1270.58,-292.659"/>
<polygon fill="black" stroke="black" points="1272.65,-289.814 1262.88,-285.717 1267.97,-295.013 1272.65,-289.814"/>
</g>
<!-- historical_precip_data_input_port -->
<g id="node32" class="node"><title>historical_precip_data_input_port</title>
<ellipse fill="#ffffff" stroke="black" cx="1140.5" cy="-659" rx="7" ry="7"/>
</g>
<!-- historical_precip_data_input_port&#45;&gt;historical_precip_data -->
<g id="edge35" class="edge"><title>historical_precip_data_input_port&#45;&gt;historical_precip_data</title>
<path fill="none" stroke="black" d="M1138.06,-652.127C1135.53,-646.857 1131.01,-639.44 1124.5,-636 1097.95,-621.986 884.315,-631.399 854.495,-628 827.085,-624.875 797.445,-619.565 770.949,-614.108"/>
<polygon fill="black" stroke="black" points="771.465,-610.64 760.96,-612.013 770.028,-617.491 771.465,-610.64"/>
</g>
<!-- tree_ring_data_input_port -->
<g id="node33" class="node"><title>tree_ring_data_input_port</title>
<ellipse fill="#ffffff" stroke="black" cx="1108.5" cy="-659" rx="7" ry="7"/>
</g>
<!-- tree_ring_data_input_port&#45;&gt;tree_ring_data -->
<g id="edge36" class="edge"><title>tree_ring_data_input_port&#45;&gt;tree_ring_data</title>
<path fill="none" stroke="black" d="M1101.34,-657.852C1056.11,-656.863 805.412,-650.53 602.495,-628 556.198,-622.86 504.349,-614.331 464.773,-607.231"/>
<polygon fill="black" stroke="black" points="465.192,-603.75 454.728,-605.413 463.945,-610.639 465.192,-603.75"/>
</g>
</g>
</svg>
