<?xml version="1.0" encoding="UTF-8" standalone="no"?>
<!DOCTYPE svg PUBLIC "-//W3C//DTD SVG 1.1//EN"
 "http://www.w3.org/Graphics/SVG/1.1/DTD/svg11.dtd">
<!-- Generated by graphviz version 2.38.0 (20140413.2041)
 -->
<!-- Title: Workflow Pages: 1 -->
<svg width="2335pt" height="726pt"
 viewBox="0.00 0.00 2335.19 726.00" xmlns="http://www.w3.org/2000/svg" xmlns:xlink="http://www.w3.org/1999/xlink">
<g id="graph0" class="graph" transform="scale(1 1) rotate(0) translate(4 722)">
<title>Workflow</title>
<polygon fill="white" stroke="none" points="-4,4 -4,-722 2331.19,-722 2331.19,4 -4,4"/>
<text text-anchor="middle" x="1163.6" y="-699.6" font-family="Helvetica,sans-Serif" font-size="18.00">paleocar_web&#45;app_data_flow</text>
<g id="clust1" class="cluster"><title>cluster_workflow_box_outer</title>
<polygon fill="none" stroke="black" stroke-width="2" points="52.1928,-62 52.1928,-628 2319.19,-628 2319.19,-62 52.1928,-62"/>
</g>
<g id="clust2" class="cluster"><title>cluster_workflow_box_inner</title>
<polygon fill="none" stroke="black" stroke-width="0" points="60.1928,-70 60.1928,-620 2311.19,-620 2311.19,-70 60.1928,-70"/>
</g>
<g id="clust5" class="cluster"><title>cluster_output_ports_group_outer</title>
<polygon fill="none" stroke="black" stroke-width="0" points="682.193,-8 682.193,-54 952.193,-54 952.193,-8 682.193,-8"/>
</g>
<g id="clust6" class="cluster"><title>cluster_output_ports_group_inner</title>
<polygon fill="none" stroke="black" stroke-width="0" points="690.193,-16 690.193,-46 944.193,-46 944.193,-16 690.193,-16"/>
</g>
<g id="clust3" class="cluster"><title>cluster_input_ports_group_outer</title>
<polygon fill="none" stroke="black" stroke-width="0" points="1085.19,-636 1085.19,-682 1355.19,-682 1355.19,-636 1085.19,-636"/>
</g>
<g id="clust4" class="cluster"><title>cluster_input_ports_group_inner</title>
<polygon fill="none" stroke="black" stroke-width="0" points="1093.19,-644 1093.19,-674 1347.19,-674 1347.19,-644 1093.19,-644"/>
</g>
<!-- get_client_data -->
<g id="node1" class="node"><title>get_client_data</title>
<polygon fill="#ccffcc" stroke="black" points="594.693,-493.5 594.693,-539.5 1255.69,-539.5 1255.69,-493.5 594.693,-493.5"/>
<text text-anchor="middle" x="925.193" y="-524.3" font-family="Helvetica,sans-Serif" font-size="14.00">get_client_data</text>
<polyline fill="none" stroke="black" points="594.693,-516.5 1255.69,-516.5 "/>
<text text-anchor="middle" x="925.193" y="-501.3" font-family="Helvetica,sans-Serif" font-size="14.00">get the data from the user and generate the client side metadata for storing the information of each run.</text>
</g>
<!-- coordinates -->
<g id="node15" class="node"><title>coordinates</title>
<path fill="#ffffcc" stroke="black" d="M846.693,-451.5C846.693,-451.5 779.693,-451.5 779.693,-451.5 773.693,-451.5 767.693,-445.5 767.693,-439.5 767.693,-439.5 767.693,-427.5 767.693,-427.5 767.693,-421.5 773.693,-415.5 779.693,-415.5 779.693,-415.5 846.693,-415.5 846.693,-415.5 852.693,-415.5 858.693,-421.5 858.693,-427.5 858.693,-427.5 858.693,-439.5 858.693,-439.5 858.693,-445.5 852.693,-451.5 846.693,-451.5"/>
<text text-anchor="middle" x="813.193" y="-429.8" font-family="Helvetica,sans-Serif" font-size="14.00">coordinates</text>
</g>
<!-- get_client_data&#45;&gt;coordinates -->
<g id="edge3" class="edge"><title>get_client_data&#45;&gt;coordinates</title>
<path fill="none" stroke="black" d="M894.588,-493.366C879.287,-482.3 860.776,-468.913 845.276,-457.703"/>
<polygon fill="black" stroke="black" points="847.168,-454.752 837.014,-451.728 843.066,-460.424 847.168,-454.752"/>
</g>
<!-- session_id -->
<g id="node16" class="node"><title>session_id</title>
<path fill="#ffffcc" stroke="black" d="M953.193,-451.5C953.193,-451.5 891.193,-451.5 891.193,-451.5 885.193,-451.5 879.193,-445.5 879.193,-439.5 879.193,-439.5 879.193,-427.5 879.193,-427.5 879.193,-421.5 885.193,-415.5 891.193,-415.5 891.193,-415.5 953.193,-415.5 953.193,-415.5 959.193,-415.5 965.193,-421.5 965.193,-427.5 965.193,-427.5 965.193,-439.5 965.193,-439.5 965.193,-445.5 959.193,-451.5 953.193,-451.5"/>
<text text-anchor="middle" x="922.193" y="-429.8" font-family="Helvetica,sans-Serif" font-size="14.00">session_id</text>
</g>
<!-- get_client_data&#45;&gt;session_id -->
<g id="edge1" class="edge"><title>get_client_data&#45;&gt;session_id</title>
<path fill="none" stroke="black" d="M924.373,-493.366C924.012,-483.632 923.585,-472.102 923.205,-461.838"/>
<polygon fill="black" stroke="black" points="926.699,-461.591 922.831,-451.728 919.703,-461.85 926.699,-461.591"/>
</g>
<!-- run_id -->
<g id="node17" class="node"><title>run_id</title>
<path fill="#ffffcc" stroke="black" d="M733.193,-451.5C733.193,-451.5 701.193,-451.5 701.193,-451.5 695.193,-451.5 689.193,-445.5 689.193,-439.5 689.193,-439.5 689.193,-427.5 689.193,-427.5 689.193,-421.5 695.193,-415.5 701.193,-415.5 701.193,-415.5 733.193,-415.5 733.193,-415.5 739.193,-415.5 745.193,-421.5 745.193,-427.5 745.193,-427.5 745.193,-439.5 745.193,-439.5 745.193,-445.5 739.193,-451.5 733.193,-451.5"/>
<text text-anchor="middle" x="717.193" y="-429.8" font-family="Helvetica,sans-Serif" font-size="14.00">run_id</text>
</g>
<!-- get_client_data&#45;&gt;run_id -->
<g id="edge2" class="edge"><title>get_client_data&#45;&gt;run_id</title>
<path fill="none" stroke="black" d="M853.901,-493.412C823.91,-483.382 788.916,-470.699 758.193,-457 757.025,-456.479 755.845,-455.937 754.66,-455.379"/>
<polygon fill="black" stroke="black" points="756.073,-452.173 745.561,-450.851 752.954,-458.44 756.073,-452.173"/>
</g>
<!-- prediction_years -->
<g id="node18" class="node"><title>prediction_years</title>
<path fill="#ffffcc" stroke="black" d="M1244.19,-368.5C1244.19,-368.5 1146.19,-368.5 1146.19,-368.5 1140.19,-368.5 1134.19,-362.5 1134.19,-356.5 1134.19,-356.5 1134.19,-344.5 1134.19,-344.5 1134.19,-338.5 1140.19,-332.5 1146.19,-332.5 1146.19,-332.5 1244.19,-332.5 1244.19,-332.5 1250.19,-332.5 1256.19,-338.5 1256.19,-344.5 1256.19,-344.5 1256.19,-356.5 1256.19,-356.5 1256.19,-362.5 1250.19,-368.5 1244.19,-368.5"/>
<text text-anchor="middle" x="1195.19" y="-346.8" font-family="Helvetica,sans-Serif" font-size="14.00">prediction_years</text>
</g>
<!-- get_client_data&#45;&gt;prediction_years -->
<g id="edge4" class="edge"><title>get_client_data&#45;&gt;prediction_years</title>
<path fill="none" stroke="black" d="M961.606,-493.382C1013.07,-462.123 1106.56,-405.334 1158.29,-373.914"/>
<polygon fill="black" stroke="black" points="1160.41,-376.723 1167.14,-368.54 1156.78,-370.74 1160.41,-376.723"/>
</g>
<!-- acccess_static_server_files -->
<g id="node2" class="node"><title>acccess_static_server_files</title>
<polygon fill="#ccffcc" stroke="black" points="68.1928,-493.5 68.1928,-539.5 576.193,-539.5 576.193,-493.5 68.1928,-493.5"/>
<text text-anchor="middle" x="322.193" y="-524.3" font-family="Helvetica,sans-Serif" font-size="14.00">acccess_static_server_files</text>
<polyline fill="none" stroke="black" points="68.1928,-516.5 576.193,-516.5 "/>
<text text-anchor="middle" x="322.193" y="-501.3" font-family="Helvetica,sans-Serif" font-size="14.00">the static files available and required for execution of PaleoCAR on the server.</text>
</g>
<!-- prism_data -->
<g id="node5" class="node"><title>prism_data</title>
<path fill="#ffffcc" stroke="black" d="M161.193,-410.5C161.193,-410.5 291.193,-410.5 291.193,-410.5 297.193,-410.5 303.193,-416.5 303.193,-422.5 303.193,-422.5 303.193,-444.5 303.193,-444.5 303.193,-450.5 297.193,-456.5 291.193,-456.5 291.193,-456.5 161.193,-456.5 161.193,-456.5 155.193,-456.5 149.193,-450.5 149.193,-444.5 149.193,-444.5 149.193,-422.5 149.193,-422.5 149.193,-416.5 155.193,-410.5 161.193,-410.5"/>
<text text-anchor="middle" x="226.193" y="-441.3" font-family="Helvetica,sans-Serif" font-size="14.00">prism_data</text>
<polyline fill="none" stroke="black" points="149.193,-433.5 303.193,-433.5 "/>
<text text-anchor="middle" x="226.193" y="-418.3" font-family="Helvetica,sans-Serif" font-size="14.00">file:data/112W36N.nc</text>
</g>
<!-- acccess_static_server_files&#45;&gt;prism_data -->
<g id="edge7" class="edge"><title>acccess_static_server_files&#45;&gt;prism_data</title>
<path fill="none" stroke="black" d="M295.96,-493.366C284.954,-484.08 272.011,-473.16 260.282,-463.262"/>
<polygon fill="black" stroke="black" points="262.293,-460.381 252.393,-456.607 257.779,-465.731 262.293,-460.381"/>
</g>
<!-- itrdb -->
<g id="node6" class="node"><title>itrdb</title>
<path fill="#ffffcc" stroke="black" d="M172.193,-327.5C172.193,-327.5 270.193,-327.5 270.193,-327.5 276.193,-327.5 282.193,-333.5 282.193,-339.5 282.193,-339.5 282.193,-361.5 282.193,-361.5 282.193,-367.5 276.193,-373.5 270.193,-373.5 270.193,-373.5 172.193,-373.5 172.193,-373.5 166.193,-373.5 160.193,-367.5 160.193,-361.5 160.193,-361.5 160.193,-339.5 160.193,-339.5 160.193,-333.5 166.193,-327.5 172.193,-327.5"/>
<text text-anchor="middle" x="221.193" y="-358.3" font-family="Helvetica,sans-Serif" font-size="14.00">itrdb</text>
<polyline fill="none" stroke="black" points="160.193,-350.5 282.193,-350.5 "/>
<text text-anchor="middle" x="221.193" y="-335.3" font-family="Helvetica,sans-Serif" font-size="14.00">file:data/itrdb.rda</text>
</g>
<!-- acccess_static_server_files&#45;&gt;itrdb -->
<g id="edge8" class="edge"><title>acccess_static_server_files&#45;&gt;itrdb</title>
<path fill="none" stroke="black" d="M325.448,-493.149C327.582,-470.504 327.599,-435.299 312.193,-410 304.653,-397.618 293.387,-387.385 281.327,-379.13"/>
<polygon fill="black" stroke="black" points="283.197,-376.171 272.887,-373.729 279.424,-382.067 283.197,-376.171"/>
</g>
<!-- extract_prism_data -->
<g id="node3" class="node"><title>extract_prism_data</title>
<polygon fill="#ccffcc" stroke="black" points="300.193,-327.5 300.193,-373.5 1116.19,-373.5 1116.19,-327.5 300.193,-327.5"/>
<text text-anchor="middle" x="708.193" y="-358.3" font-family="Helvetica,sans-Serif" font-size="14.00">extract_prism_data</text>
<polyline fill="none" stroke="black" points="300.193,-350.5 1116.19,-350.5 "/>
<text text-anchor="middle" x="708.193" y="-335.3" font-family="Helvetica,sans-Serif" font-size="14.00">get the prism data file on the server with precipitation values and extract the data for the input coordinates and save as a csv file.</text>
</g>
<!-- prism_data_for_coordinates -->
<g id="node19" class="node"><title>prism_data_for_coordinates</title>
<path fill="#ffffcc" stroke="black" d="M671.193,-244.5C671.193,-244.5 957.193,-244.5 957.193,-244.5 963.193,-244.5 969.193,-250.5 969.193,-256.5 969.193,-256.5 969.193,-278.5 969.193,-278.5 969.193,-284.5 963.193,-290.5 957.193,-290.5 957.193,-290.5 671.193,-290.5 671.193,-290.5 665.193,-290.5 659.193,-284.5 659.193,-278.5 659.193,-278.5 659.193,-256.5 659.193,-256.5 659.193,-250.5 665.193,-244.5 671.193,-244.5"/>
<text text-anchor="middle" x="814.193" y="-275.3" font-family="Helvetica,sans-Serif" font-size="14.00">prism_data_for_coordinates</text>
<polyline fill="none" stroke="black" points="659.193,-267.5 969.193,-267.5 "/>
<text text-anchor="middle" x="814.193" y="-252.3" font-family="Helvetica,sans-Serif" font-size="14.00">file:.output/{session_id}/{run_id}/112W36N.csv</text>
</g>
<!-- extract_prism_data&#45;&gt;prism_data_for_coordinates -->
<g id="edge11" class="edge"><title>extract_prism_data&#45;&gt;prism_data_for_coordinates</title>
<path fill="none" stroke="black" d="M737.158,-327.366C749.544,-317.902 764.152,-306.739 777.299,-296.693"/>
<polygon fill="black" stroke="black" points="779.442,-299.46 785.263,-290.607 775.192,-293.898 779.442,-299.46"/>
</g>
<!-- exec_paleocar -->
<g id="node4" class="node"><title>exec_paleocar</title>
<polygon fill="#ccffcc" stroke="black" points="644.693,-161.5 644.693,-207.5 1651.69,-207.5 1651.69,-161.5 644.693,-161.5"/>
<text text-anchor="middle" x="1148.19" y="-192.3" font-family="Helvetica,sans-Serif" font-size="14.00">exec_paleocar</text>
<polyline fill="none" stroke="black" points="644.693,-184.5 1651.69,-184.5 "/>
<text text-anchor="middle" x="1148.19" y="-169.3" font-family="Helvetica,sans-Serif" font-size="14.00">execute paleocar for reconstruction of paleoclimate of the study region. Generate the timeseries graphs, and paleocar models of paleoclimatic reconstruction.</text>
</g>
<!-- prediction_graph -->
<g id="node7" class="node"><title>prediction_graph</title>
<path fill="#ffffcc" stroke="black" d="M837.693,-78.5C837.693,-78.5 1172.69,-78.5 1172.69,-78.5 1178.69,-78.5 1184.69,-84.5 1184.69,-90.5 1184.69,-90.5 1184.69,-112.5 1184.69,-112.5 1184.69,-118.5 1178.69,-124.5 1172.69,-124.5 1172.69,-124.5 837.693,-124.5 837.693,-124.5 831.693,-124.5 825.693,-118.5 825.693,-112.5 825.693,-112.5 825.693,-90.5 825.693,-90.5 825.693,-84.5 831.693,-78.5 837.693,-78.5"/>
<text text-anchor="middle" x="1005.19" y="-109.3" font-family="Helvetica,sans-Serif" font-size="14.00">prediction_graph</text>
<polyline fill="none" stroke="black" points="825.693,-101.5 1184.69,-101.5 "/>
<text text-anchor="middle" x="1005.19" y="-86.3" font-family="Helvetica,sans-Serif" font-size="14.00">file:.output/{session_id}/{run_id}/{label}_predictions.jpg</text>
</g>
<!-- exec_paleocar&#45;&gt;prediction_graph -->
<g id="edge17" class="edge"><title>exec_paleocar&#45;&gt;prediction_graph</title>
<path fill="none" stroke="black" d="M1109.12,-161.366C1091.78,-151.544 1071.21,-139.894 1052.97,-129.56"/>
<polygon fill="black" stroke="black" points="1054.65,-126.49 1044.22,-124.607 1051.2,-132.581 1054.65,-126.49"/>
</g>
<!-- paleocar_models -->
<g id="node8" class="node"><title>paleocar_models</title>
<path fill="#ffffcc" stroke="black" d="M1215.19,-78.5C1215.19,-78.5 1527.19,-78.5 1527.19,-78.5 1533.19,-78.5 1539.19,-84.5 1539.19,-90.5 1539.19,-90.5 1539.19,-112.5 1539.19,-112.5 1539.19,-118.5 1533.19,-124.5 1527.19,-124.5 1527.19,-124.5 1215.19,-124.5 1215.19,-124.5 1209.19,-124.5 1203.19,-118.5 1203.19,-112.5 1203.19,-112.5 1203.19,-90.5 1203.19,-90.5 1203.19,-84.5 1209.19,-78.5 1215.19,-78.5"/>
<text text-anchor="middle" x="1371.19" y="-109.3" font-family="Helvetica,sans-Serif" font-size="14.00">paleocar_models</text>
<polyline fill="none" stroke="black" points="1203.19,-101.5 1539.19,-101.5 "/>
<text text-anchor="middle" x="1371.19" y="-86.3" font-family="Helvetica,sans-Serif" font-size="14.00">file:.output/{session_id}/{run_id}/{label}_model.Rds</text>
</g>
<!-- exec_paleocar&#45;&gt;paleocar_models -->
<g id="edge19" class="edge"><title>exec_paleocar&#45;&gt;paleocar_models</title>
<path fill="none" stroke="black" d="M1208.83,-161.473C1237.35,-151.117 1271.51,-138.709 1301.12,-127.952"/>
<polygon fill="black" stroke="black" points="1302.36,-131.226 1310.56,-124.522 1299.97,-124.647 1302.36,-131.226"/>
</g>
<!-- prediction_model -->
<g id="node9" class="node"><title>prediction_model</title>
<path fill="#ffffcc" stroke="black" d="M1569.69,-78.5C1569.69,-78.5 1904.69,-78.5 1904.69,-78.5 1910.69,-78.5 1916.69,-84.5 1916.69,-90.5 1916.69,-90.5 1916.69,-112.5 1916.69,-112.5 1916.69,-118.5 1910.69,-124.5 1904.69,-124.5 1904.69,-124.5 1569.69,-124.5 1569.69,-124.5 1563.69,-124.5 1557.69,-118.5 1557.69,-112.5 1557.69,-112.5 1557.69,-90.5 1557.69,-90.5 1557.69,-84.5 1563.69,-78.5 1569.69,-78.5"/>
<text text-anchor="middle" x="1737.19" y="-109.3" font-family="Helvetica,sans-Serif" font-size="14.00">prediction_model</text>
<polyline fill="none" stroke="black" points="1557.69,-101.5 1916.69,-101.5 "/>
<text text-anchor="middle" x="1737.19" y="-86.3" font-family="Helvetica,sans-Serif" font-size="14.00">file:.output/{session_id}/{run_id}/{label}_prediction.Rds</text>
</g>
<!-- exec_paleocar&#45;&gt;prediction_model -->
<g id="edge16" class="edge"><title>exec_paleocar&#45;&gt;prediction_model</title>
<path fill="none" stroke="black" d="M1308.36,-161.473C1388.4,-150.467 1485.28,-137.143 1566.7,-125.947"/>
<polygon fill="black" stroke="black" points="1567.63,-129.352 1577.06,-124.522 1566.67,-122.417 1567.63,-129.352"/>
</g>
<!-- paleocar_log_file -->
<g id="node10" class="node"><title>paleocar_log_file</title>
<path fill="#ffffcc" stroke="black" d="M1947.19,-78.5C1947.19,-78.5 2291.19,-78.5 2291.19,-78.5 2297.19,-78.5 2303.19,-84.5 2303.19,-90.5 2303.19,-90.5 2303.19,-112.5 2303.19,-112.5 2303.19,-118.5 2297.19,-124.5 2291.19,-124.5 2291.19,-124.5 1947.19,-124.5 1947.19,-124.5 1941.19,-124.5 1935.19,-118.5 1935.19,-112.5 1935.19,-112.5 1935.19,-90.5 1935.19,-90.5 1935.19,-84.5 1941.19,-78.5 1947.19,-78.5"/>
<text text-anchor="middle" x="2119.19" y="-109.3" font-family="Helvetica,sans-Serif" font-size="14.00">paleocar_log_file</text>
<polyline fill="none" stroke="black" points="1935.19,-101.5 2303.19,-101.5 "/>
<text text-anchor="middle" x="2119.19" y="-86.3" font-family="Helvetica,sans-Serif" font-size="14.00">file:.output/{session_id}/{run_id}/paleocar_model_log.txt</text>
</g>
<!-- exec_paleocar&#45;&gt;paleocar_log_file -->
<g id="edge21" class="edge"><title>exec_paleocar&#45;&gt;paleocar_log_file</title>
<path fill="none" stroke="black" d="M1481.13,-161.479C1616.02,-151.791 1773.48,-139.514 1925.1,-125.088"/>
<polygon fill="black" stroke="black" points="1925.45,-128.57 1935.08,-124.135 1924.79,-121.602 1925.45,-128.57"/>
</g>
<!-- uncertainty_model -->
<g id="node11" class="node"><title>uncertainty_model</title>
<path fill="#ffffcc" stroke="black" d="M80.1928,-78.5C80.1928,-78.5 420.193,-78.5 420.193,-78.5 426.193,-78.5 432.193,-84.5 432.193,-90.5 432.193,-90.5 432.193,-112.5 432.193,-112.5 432.193,-118.5 426.193,-124.5 420.193,-124.5 420.193,-124.5 80.1928,-124.5 80.1928,-124.5 74.1928,-124.5 68.1928,-118.5 68.1928,-112.5 68.1928,-112.5 68.1928,-90.5 68.1928,-90.5 68.1928,-84.5 74.1928,-78.5 80.1928,-78.5"/>
<text text-anchor="middle" x="250.193" y="-109.3" font-family="Helvetica,sans-Serif" font-size="14.00">uncertainty_model</text>
<polyline fill="none" stroke="black" points="68.1928,-101.5 432.193,-101.5 "/>
<text text-anchor="middle" x="250.193" y="-86.3" font-family="Helvetica,sans-Serif" font-size="14.00">file:.output/{session_id}/{run_id}/{label}_uncertainty.Rds</text>
</g>
<!-- exec_paleocar&#45;&gt;uncertainty_model -->
<g id="edge18" class="edge"><title>exec_paleocar&#45;&gt;uncertainty_model</title>
<path fill="none" stroke="black" d="M854.312,-161.478C730.166,-151.596 583.8,-139.187 442.563,-125.123"/>
<polygon fill="black" stroke="black" points="442.702,-121.619 432.404,-124.107 442.006,-128.585 442.702,-121.619"/>
</g>
<!-- uncertainty_graph -->
<g id="node12" class="node"><title>uncertainty_graph</title>
<path fill="#ffffcc" stroke="black" d="M462.693,-78.5C462.693,-78.5 795.693,-78.5 795.693,-78.5 801.693,-78.5 807.693,-84.5 807.693,-90.5 807.693,-90.5 807.693,-112.5 807.693,-112.5 807.693,-118.5 801.693,-124.5 795.693,-124.5 795.693,-124.5 462.693,-124.5 462.693,-124.5 456.693,-124.5 450.693,-118.5 450.693,-112.5 450.693,-112.5 450.693,-90.5 450.693,-90.5 450.693,-84.5 456.693,-78.5 462.693,-78.5"/>
<text text-anchor="middle" x="629.193" y="-109.3" font-family="Helvetica,sans-Serif" font-size="14.00">uncertainty_graph</text>
<polyline fill="none" stroke="black" points="450.693,-101.5 807.693,-101.5 "/>
<text text-anchor="middle" x="629.193" y="-86.3" font-family="Helvetica,sans-Serif" font-size="14.00">file:.output/{session_id}/{run_id}/{label}_uncertainty.jpg</text>
</g>
<!-- exec_paleocar&#45;&gt;uncertainty_graph -->
<g id="edge20" class="edge"><title>exec_paleocar&#45;&gt;uncertainty_graph</title>
<path fill="none" stroke="black" d="M1007.06,-161.473C936.822,-150.511 851.86,-137.252 780.303,-126.084"/>
<polygon fill="black" stroke="black" points="780.718,-122.606 770.298,-124.522 779.639,-129.522 780.718,-122.606"/>
</g>
<!-- prism_data&#45;&gt;extract_prism_data -->
<g id="edge15" class="edge"><title>prism_data&#45;&gt;extract_prism_data</title>
<path fill="none" stroke="black" d="M303.367,-419.531C374.301,-407.61 481.191,-389.648 567.326,-375.173"/>
<polygon fill="black" stroke="black" points="567.907,-378.624 577.189,-373.515 566.747,-371.721 567.907,-378.624"/>
</g>
<!-- prism_data_output_port -->
<g id="node34" class="node"><title>prism_data_output_port</title>
<ellipse fill="#ffffff" stroke="black" cx="705.193" cy="-31" rx="7" ry="7"/>
</g>
<!-- prism_data&#45;&gt;prism_data_output_port -->
<g id="edge37" class="edge"><title>prism_data&#45;&gt;prism_data_output_port</title>
<path fill="none" stroke="black" d="M149.105,-410.946C84.3095,-387.569 2.19278,-343.206 2.19278,-268.5 2.19278,-268.5 2.19278,-268.5 2.19278,-183.5 2.19278,-127.878 -10.8241,-97.2608 32.1928,-62 58.2949,-40.6042 584.625,-33.4006 687.751,-32.1921"/>
<polygon fill="black" stroke="black" points="687.993,-35.6897 697.953,-32.0763 687.914,-28.6901 687.993,-35.6897"/>
</g>
<!-- itrdb&#45;&gt;exec_paleocar -->
<g id="edge24" class="edge"><title>itrdb&#45;&gt;exec_paleocar</title>
<path fill="none" stroke="black" d="M282.565,-329.452C285.476,-328.603 288.362,-327.781 291.193,-327 449.063,-283.461 488.847,-272.04 650.193,-244 732.648,-229.67 823.406,-217.853 904.601,-208.682"/>
<polygon fill="black" stroke="black" points="905.418,-212.113 914.966,-207.52 904.638,-205.156 905.418,-212.113"/>
</g>
<!-- itrdb_output_port -->
<g id="node35" class="node"><title>itrdb_output_port</title>
<ellipse fill="#ffffff" stroke="black" cx="737.193" cy="-31" rx="7" ry="7"/>
</g>
<!-- itrdb&#45;&gt;itrdb_output_port -->
<g id="edge38" class="edge"><title>itrdb&#45;&gt;itrdb_output_port</title>
<path fill="none" stroke="black" d="M191.26,-327.123C125.012,-275.084 -21.9429,-144.122 59.1928,-62 72.1178,-48.9178 704.856,-62.4439 721.193,-54 724.465,-52.3086 727.229,-49.6055 729.49,-46.6643"/>
<polygon fill="black" stroke="black" points="732.608,-48.2712 734.772,-37.8997 726.613,-44.6581 732.608,-48.2712"/>
</g>
<!-- prediction_graph_output_port -->
<g id="node36" class="node"><title>prediction_graph_output_port</title>
<ellipse fill="#ffffff" stroke="black" cx="833.193" cy="-31" rx="7" ry="7"/>
</g>
<!-- prediction_graph&#45;&gt;prediction_graph_output_port -->
<g id="edge39" class="edge"><title>prediction_graph&#45;&gt;prediction_graph_output_port</title>
<path fill="none" stroke="black" d="M897.26,-78.4493C880.287,-72.1958 863.611,-64.2031 849.193,-54 846.186,-51.8721 843.526,-48.9985 841.281,-46.0312"/>
<polygon fill="black" stroke="black" points="844.176,-44.0611 835.857,-37.5 838.268,-47.8168 844.176,-44.0611"/>
</g>
<!-- paleocar_models_output_port -->
<g id="node37" class="node"><title>paleocar_models_output_port</title>
<ellipse fill="#ffffff" stroke="black" cx="865.193" cy="-31" rx="7" ry="7"/>
</g>
<!-- paleocar_models&#45;&gt;paleocar_models_output_port -->
<g id="edge40" class="edge"><title>paleocar_models&#45;&gt;paleocar_models_output_port</title>
<path fill="none" stroke="black" d="M1285.32,-78.4122C1256.55,-71.9266 1224.17,-65.6101 1194.19,-62 1176.92,-59.92 896.591,-62.0907 881.193,-54 877.932,-52.2866 875.173,-49.5749 872.912,-46.6324"/>
<polygon fill="black" stroke="black" points="875.791,-44.6289 867.624,-37.8795 869.799,-48.2486 875.791,-44.6289"/>
</g>
<!-- prediction_model_output_port -->
<g id="node38" class="node"><title>prediction_model_output_port</title>
<ellipse fill="#ffffff" stroke="black" cx="897.193" cy="-31" rx="7" ry="7"/>
</g>
<!-- prediction_model&#45;&gt;prediction_model_output_port -->
<g id="edge41" class="edge"><title>prediction_model&#45;&gt;prediction_model_output_port</title>
<path fill="none" stroke="black" d="M1646.41,-78.3997C1615.45,-71.8275 1580.49,-65.4617 1548.19,-62 1530.65,-60.12 928.862,-62.1036 913.193,-54 909.921,-52.3078 907.157,-49.6044 904.896,-46.6631"/>
<polygon fill="black" stroke="black" points="907.774,-44.6569 899.614,-37.8989 901.778,-48.2703 907.774,-44.6569"/>
</g>
<!-- paleocar_log_file_output_port -->
<g id="node39" class="node"><title>paleocar_log_file_output_port</title>
<ellipse fill="#ffffff" stroke="black" cx="929.193" cy="-31" rx="7" ry="7"/>
</g>
<!-- paleocar_log_file&#45;&gt;paleocar_log_file_output_port -->
<g id="edge42" class="edge"><title>paleocar_log_file&#45;&gt;paleocar_log_file_output_port</title>
<path fill="none" stroke="black" d="M2024.96,-78.4334C1993.7,-71.9912 1958.61,-65.6952 1926.19,-62 1725.54,-39.1295 1062.88,-33.0304 946.667,-32.1268"/>
<polygon fill="black" stroke="black" points="946.453,-28.6252 936.427,-32.0499 946.4,-35.625 946.453,-28.6252"/>
</g>
<!-- uncertainty_model_output_port -->
<g id="node40" class="node"><title>uncertainty_model_output_port</title>
<ellipse fill="#ffffff" stroke="black" cx="769.193" cy="-31" rx="7" ry="7"/>
</g>
<!-- uncertainty_model&#45;&gt;uncertainty_model_output_port -->
<g id="edge43" class="edge"><title>uncertainty_model&#45;&gt;uncertainty_model_output_port</title>
<path fill="none" stroke="black" d="M342.944,-78.4451C373.997,-71.9618 408.924,-65.6382 441.193,-62 458.423,-60.0574 737.844,-62.0655 753.193,-54 756.454,-52.2865 759.213,-49.5748 761.473,-46.6322"/>
<polygon fill="black" stroke="black" points="764.586,-48.2485 766.761,-37.8794 758.595,-44.6287 764.586,-48.2485"/>
</g>
<!-- uncertainty_graph_output_port -->
<g id="node41" class="node"><title>uncertainty_graph_output_port</title>
<ellipse fill="#ffffff" stroke="black" cx="801.193" cy="-31" rx="7" ry="7"/>
</g>
<!-- uncertainty_graph&#45;&gt;uncertainty_graph_output_port -->
<g id="edge44" class="edge"><title>uncertainty_graph&#45;&gt;uncertainty_graph_output_port</title>
<path fill="none" stroke="black" d="M737.126,-78.4493C754.098,-72.1958 770.775,-64.2031 785.193,-54 788.2,-51.8721 790.86,-48.9985 793.105,-46.0312"/>
<polygon fill="black" stroke="black" points="796.117,-47.8168 798.529,-37.5 790.21,-44.0611 796.117,-47.8168"/>
</g>
<!-- user_map_marker_pos -->
<g id="node13" class="node"><title>user_map_marker_pos</title>
<path fill="#ffffcc" stroke="black" d="M1226.19,-612C1226.19,-612 1086.19,-612 1086.19,-612 1080.19,-612 1074.19,-606 1074.19,-600 1074.19,-600 1074.19,-588 1074.19,-588 1074.19,-582 1080.19,-576 1086.19,-576 1086.19,-576 1226.19,-576 1226.19,-576 1232.19,-576 1238.19,-582 1238.19,-588 1238.19,-588 1238.19,-600 1238.19,-600 1238.19,-606 1232.19,-612 1226.19,-612"/>
<text text-anchor="middle" x="1156.19" y="-590.3" font-family="Helvetica,sans-Serif" font-size="14.00">user_map_marker_pos</text>
</g>
<!-- user_map_marker_pos&#45;&gt;get_client_data -->
<g id="edge5" class="edge"><title>user_map_marker_pos&#45;&gt;get_client_data</title>
<path fill="none" stroke="black" d="M1104.06,-575.962C1074.15,-566.185 1036.02,-553.723 1002.66,-542.818"/>
<polygon fill="black" stroke="black" points="1003.52,-539.418 992.928,-539.639 1001.35,-546.072 1003.52,-539.418"/>
</g>
<!-- user_prediction_years -->
<g id="node14" class="node"><title>user_prediction_years</title>
<path fill="#ffffcc" stroke="black" d="M1009.19,-612C1009.19,-612 875.193,-612 875.193,-612 869.193,-612 863.193,-606 863.193,-600 863.193,-600 863.193,-588 863.193,-588 863.193,-582 869.193,-576 875.193,-576 875.193,-576 1009.19,-576 1009.19,-576 1015.19,-576 1021.19,-582 1021.19,-588 1021.19,-588 1021.19,-600 1021.19,-600 1021.19,-606 1015.19,-612 1009.19,-612"/>
<text text-anchor="middle" x="942.193" y="-590.3" font-family="Helvetica,sans-Serif" font-size="14.00">user_prediction_years</text>
</g>
<!-- user_prediction_years&#45;&gt;get_client_data -->
<g id="edge6" class="edge"><title>user_prediction_years&#45;&gt;get_client_data</title>
<path fill="none" stroke="black" d="M938.335,-575.868C936.584,-568.092 934.454,-558.632 932.423,-549.611"/>
<polygon fill="black" stroke="black" points="935.809,-548.714 930.197,-539.727 928.98,-550.251 935.809,-548.714"/>
</g>
<!-- coordinates&#45;&gt;extract_prism_data -->
<g id="edge12" class="edge"><title>coordinates&#45;&gt;extract_prism_data</title>
<path fill="none" stroke="black" d="M790.925,-415.322C777.617,-405.056 760.378,-391.757 745.084,-379.959"/>
<polygon fill="black" stroke="black" points="746.879,-376.924 736.824,-373.587 742.604,-382.466 746.879,-376.924"/>
</g>
<!-- session_id&#45;&gt;extract_prism_data -->
<g id="edge13" class="edge"><title>session_id&#45;&gt;extract_prism_data</title>
<path fill="none" stroke="black" d="M881.875,-415.472C877.272,-413.596 872.639,-411.738 868.193,-410 839.486,-398.778 807.637,-386.998 779.961,-376.974"/>
<polygon fill="black" stroke="black" points="780.952,-373.611 770.357,-373.506 778.574,-380.195 780.952,-373.611"/>
</g>
<!-- run_id&#45;&gt;extract_prism_data -->
<g id="edge14" class="edge"><title>run_id&#45;&gt;extract_prism_data</title>
<path fill="none" stroke="black" d="M715.284,-415.322C714.26,-406.102 712.963,-394.435 711.76,-383.606"/>
<polygon fill="black" stroke="black" points="715.23,-383.139 710.647,-373.587 708.273,-383.912 715.23,-383.139"/>
</g>
<!-- prediction_years&#45;&gt;exec_paleocar -->
<g id="edge22" class="edge"><title>prediction_years&#45;&gt;exec_paleocar</title>
<path fill="none" stroke="black" d="M1151.72,-332.457C1133.95,-323.076 1115.24,-309.509 1105.19,-291 1095.23,-272.64 1098.68,-263.849 1105.19,-244 1108.46,-234.029 1114.15,-224.357 1120.34,-215.843"/>
<polygon fill="black" stroke="black" points="1123.26,-217.793 1126.63,-207.748 1117.73,-213.499 1123.26,-217.793"/>
</g>
<!-- prism_data_for_coordinates&#45;&gt;exec_paleocar -->
<g id="edge23" class="edge"><title>prism_data_for_coordinates&#45;&gt;exec_paleocar</title>
<path fill="none" stroke="black" d="M905.019,-244.473C949.11,-233.78 1002.22,-220.901 1047.54,-209.91"/>
<polygon fill="black" stroke="black" points="1048.49,-213.281 1057.39,-207.522 1046.84,-206.478 1048.49,-213.281"/>
</g>
<!-- historical_precip_data -->
<g id="node20" class="node"><title>historical_precip_data</title>
<path fill="#fcfcfc" stroke="black" d="M754.693,-612C754.693,-612 623.693,-612 623.693,-612 617.693,-612 611.693,-606 611.693,-600 611.693,-600 611.693,-588 611.693,-588 611.693,-582 617.693,-576 623.693,-576 623.693,-576 754.693,-576 754.693,-576 760.693,-576 766.693,-582 766.693,-588 766.693,-588 766.693,-600 766.693,-600 766.693,-606 760.693,-612 754.693,-612"/>
<text text-anchor="middle" x="689.193" y="-590.3" font-family="Helvetica,sans-Serif" font-size="14.00">historical_precip_data</text>
</g>
<!-- historical_precip_data&#45;&gt;acccess_static_server_files -->
<g id="edge9" class="edge"><title>historical_precip_data&#45;&gt;acccess_static_server_files</title>
<path fill="none" stroke="black" d="M611.362,-576.988C561.342,-566.698 495.431,-553.139 439.17,-541.565"/>
<polygon fill="black" stroke="black" points="439.646,-538.089 429.146,-539.503 438.235,-544.946 439.646,-538.089"/>
</g>
<!-- tree_ring_data -->
<g id="node21" class="node"><title>tree_ring_data</title>
<path fill="#fcfcfc" stroke="black" d="M442.193,-612C442.193,-612 358.193,-612 358.193,-612 352.193,-612 346.193,-606 346.193,-600 346.193,-600 346.193,-588 346.193,-588 346.193,-582 352.193,-576 358.193,-576 358.193,-576 442.193,-576 442.193,-576 448.193,-576 454.193,-582 454.193,-588 454.193,-588 454.193,-600 454.193,-600 454.193,-606 448.193,-612 442.193,-612"/>
<text text-anchor="middle" x="400.193" y="-590.3" font-family="Helvetica,sans-Serif" font-size="14.00">tree_ring_data</text>
</g>
<!-- tree_ring_data&#45;&gt;acccess_static_server_files -->
<g id="edge10" class="edge"><title>tree_ring_data&#45;&gt;acccess_static_server_files</title>
<path fill="none" stroke="black" d="M382.493,-575.868C373.596,-567.256 362.565,-556.578 352.38,-546.719"/>
<polygon fill="black" stroke="black" points="354.775,-544.167 345.155,-539.727 349.906,-549.197 354.775,-544.167"/>
</g>
<!-- calibration_years -->
<g id="node22" class="node"><title>calibration_years</title>
<path fill="#fcfcfc" stroke="black" d="M1409.69,-285.5C1409.69,-285.5 1310.69,-285.5 1310.69,-285.5 1304.69,-285.5 1298.69,-279.5 1298.69,-273.5 1298.69,-273.5 1298.69,-261.5 1298.69,-261.5 1298.69,-255.5 1304.69,-249.5 1310.69,-249.5 1310.69,-249.5 1409.69,-249.5 1409.69,-249.5 1415.69,-249.5 1421.69,-255.5 1421.69,-261.5 1421.69,-261.5 1421.69,-273.5 1421.69,-273.5 1421.69,-279.5 1415.69,-285.5 1409.69,-285.5"/>
<text text-anchor="middle" x="1360.19" y="-263.8" font-family="Helvetica,sans-Serif" font-size="14.00">calibration_years</text>
</g>
<!-- calibration_years&#45;&gt;exec_paleocar -->
<g id="edge25" class="edge"><title>calibration_years&#45;&gt;exec_paleocar</title>
<path fill="none" stroke="black" d="M1315.49,-249.421C1286.52,-238.353 1248.25,-223.729 1215.62,-211.262"/>
<polygon fill="black" stroke="black" points="1216.73,-207.939 1206.14,-207.639 1214.23,-214.478 1216.73,-207.939"/>
</g>
<!-- label -->
<g id="node23" class="node"><title>label</title>
<path fill="#fcfcfc" stroke="black" d="M1482.19,-285.5C1482.19,-285.5 1452.19,-285.5 1452.19,-285.5 1446.19,-285.5 1440.19,-279.5 1440.19,-273.5 1440.19,-273.5 1440.19,-261.5 1440.19,-261.5 1440.19,-255.5 1446.19,-249.5 1452.19,-249.5 1452.19,-249.5 1482.19,-249.5 1482.19,-249.5 1488.19,-249.5 1494.19,-255.5 1494.19,-261.5 1494.19,-261.5 1494.19,-273.5 1494.19,-273.5 1494.19,-279.5 1488.19,-285.5 1482.19,-285.5"/>
<text text-anchor="middle" x="1467.19" y="-263.8" font-family="Helvetica,sans-Serif" font-size="14.00">label</text>
</g>
<!-- label&#45;&gt;exec_paleocar -->
<g id="edge26" class="edge"><title>label&#45;&gt;exec_paleocar</title>
<path fill="none" stroke="black" d="M1442.22,-249.347C1438.62,-247.338 1434.89,-245.481 1431.19,-244 1394.49,-229.287 1353.56,-218.089 1314.48,-209.635"/>
<polygon fill="black" stroke="black" points="1315.1,-206.188 1304.59,-207.545 1313.65,-213.037 1315.1,-206.188"/>
</g>
<!-- min_width -->
<g id="node24" class="node"><title>min_width</title>
<path fill="#fcfcfc" stroke="black" d="M1268.19,-285.5C1268.19,-285.5 1212.19,-285.5 1212.19,-285.5 1206.19,-285.5 1200.19,-279.5 1200.19,-273.5 1200.19,-273.5 1200.19,-261.5 1200.19,-261.5 1200.19,-255.5 1206.19,-249.5 1212.19,-249.5 1212.19,-249.5 1268.19,-249.5 1268.19,-249.5 1274.19,-249.5 1280.19,-255.5 1280.19,-261.5 1280.19,-261.5 1280.19,-273.5 1280.19,-273.5 1280.19,-279.5 1274.19,-285.5 1268.19,-285.5"/>
<text text-anchor="middle" x="1240.19" y="-263.8" font-family="Helvetica,sans-Serif" font-size="14.00">min_width</text>
</g>
<!-- min_width&#45;&gt;exec_paleocar -->
<g id="edge27" class="edge"><title>min_width&#45;&gt;exec_paleocar</title>
<path fill="none" stroke="black" d="M1220.68,-249.322C1209.13,-239.151 1194.2,-226.003 1180.89,-214.287"/>
<polygon fill="black" stroke="black" points="1183.1,-211.568 1173.28,-207.587 1178.47,-216.822 1183.1,-211.568"/>
</g>
<!-- verbose -->
<g id="node25" class="node"><title>verbose</title>
<path fill="#fcfcfc" stroke="black" d="M1170.19,-285.5C1170.19,-285.5 1126.19,-285.5 1126.19,-285.5 1120.19,-285.5 1114.19,-279.5 1114.19,-273.5 1114.19,-273.5 1114.19,-261.5 1114.19,-261.5 1114.19,-255.5 1120.19,-249.5 1126.19,-249.5 1126.19,-249.5 1170.19,-249.5 1170.19,-249.5 1176.19,-249.5 1182.19,-255.5 1182.19,-261.5 1182.19,-261.5 1182.19,-273.5 1182.19,-273.5 1182.19,-279.5 1176.19,-285.5 1170.19,-285.5"/>
<text text-anchor="middle" x="1148.19" y="-263.8" font-family="Helvetica,sans-Serif" font-size="14.00">verbose</text>
</g>
<!-- verbose&#45;&gt;exec_paleocar -->
<g id="edge28" class="edge"><title>verbose&#45;&gt;exec_paleocar</title>
<path fill="none" stroke="black" d="M1148.19,-249.322C1148.19,-240.102 1148.19,-228.435 1148.19,-217.606"/>
<polygon fill="black" stroke="black" points="1151.69,-217.587 1148.19,-207.587 1144.69,-217.587 1151.69,-217.587"/>
</g>
<!-- user_map_marker_pos_input_port -->
<g id="node26" class="node"><title>user_map_marker_pos_input_port</title>
<ellipse fill="#ffffff" stroke="black" cx="1204.19" cy="-659" rx="7" ry="7"/>
</g>
<!-- user_map_marker_pos_input_port&#45;&gt;user_map_marker_pos -->
<g id="edge29" class="edge"><title>user_map_marker_pos_input_port&#45;&gt;user_map_marker_pos</title>
<path fill="none" stroke="black" d="M1200.56,-652.896C1197.34,-648.414 1192.51,-641.733 1188.19,-636 1184.27,-630.794 1180.02,-625.264 1175.93,-620.007"/>
<polygon fill="black" stroke="black" points="1178.63,-617.779 1169.71,-612.056 1173.11,-622.09 1178.63,-617.779"/>
</g>
<!-- user_prediction_years_input_port -->
<g id="node27" class="node"><title>user_prediction_years_input_port</title>
<ellipse fill="#ffffff" stroke="black" cx="1172.19" cy="-659" rx="7" ry="7"/>
</g>
<!-- user_prediction_years_input_port&#45;&gt;user_prediction_years -->
<g id="edge30" class="edge"><title>user_prediction_years_input_port&#45;&gt;user_prediction_years</title>
<path fill="none" stroke="black" d="M1169.71,-652.212C1167.14,-647.004 1162.61,-639.628 1156.19,-636 1138.52,-626.004 1085.18,-631.532 1065.19,-628 1046.18,-624.641 1025.83,-619.735 1007.27,-614.727"/>
<polygon fill="black" stroke="black" points="1008.02,-611.304 997.451,-612.026 1006.16,-618.053 1008.02,-611.304"/>
</g>
<!-- calibration_years_input_port -->
<g id="node28" class="node"><title>calibration_years_input_port</title>
<ellipse fill="#ffffff" stroke="black" cx="1300.19" cy="-659" rx="7" ry="7"/>
</g>
<!-- calibration_years_input_port&#45;&gt;calibration_years -->
<g id="edge31" class="edge"><title>calibration_years_input_port&#45;&gt;calibration_years</title>
<path fill="none" stroke="black" d="M1303.75,-652.835C1306.91,-648.314 1311.71,-641.61 1316.19,-636 1319.14,-632.308 1320.84,-632.098 1323.19,-628 1348.97,-583.08 1360.19,-569.291 1360.19,-517.5 1360.19,-517.5 1360.19,-517.5 1360.19,-432.5 1360.19,-384.409 1360.19,-328.385 1360.19,-295.831"/>
<polygon fill="black" stroke="black" points="1363.69,-295.736 1360.19,-285.736 1356.69,-295.736 1363.69,-295.736"/>
</g>
<!-- label_input_port -->
<g id="node29" class="node"><title>label_input_port</title>
<ellipse fill="#ffffff" stroke="black" cx="1332.19" cy="-659" rx="7" ry="7"/>
</g>
<!-- label_input_port&#45;&gt;label -->
<g id="edge32" class="edge"><title>label_input_port&#45;&gt;label</title>
<path fill="none" stroke="black" d="M1337.57,-654.354C1358.34,-639.788 1432.19,-583.368 1432.19,-517.5 1432.19,-517.5 1432.19,-517.5 1432.19,-432.5 1432.19,-383.375 1447.4,-327.759 1457.77,-295.551"/>
<polygon fill="black" stroke="black" points="1461.12,-296.548 1460.94,-285.955 1454.48,-294.352 1461.12,-296.548"/>
</g>
<!-- verbose_input_port -->
<g id="node30" class="node"><title>verbose_input_port</title>
<ellipse fill="#ffffff" stroke="black" cx="1236.19" cy="-659" rx="7" ry="7"/>
</g>
<!-- verbose_input_port&#45;&gt;verbose -->
<g id="edge33" class="edge"><title>verbose_input_port&#45;&gt;verbose</title>
<path fill="none" stroke="black" d="M1239.49,-652.607C1250.34,-634.352 1284.19,-572.92 1284.19,-517.5 1284.19,-517.5 1284.19,-517.5 1284.19,-432.5 1284.19,-384.857 1293.95,-364.983 1265.19,-327 1243.11,-297.842 1223.84,-307.48 1191.19,-291 1190.65,-290.727 1190.11,-290.452 1189.56,-290.174"/>
<polygon fill="black" stroke="black" points="1191.04,-286.999 1180.54,-285.556 1187.85,-293.229 1191.04,-286.999"/>
</g>
<!-- min_width_input_port -->
<g id="node31" class="node"><title>min_width_input_port</title>
<ellipse fill="#ffffff" stroke="black" cx="1268.19" cy="-659" rx="7" ry="7"/>
</g>
<!-- min_width_input_port&#45;&gt;min_width -->
<g id="edge34" class="edge"><title>min_width_input_port&#45;&gt;min_width</title>
<path fill="none" stroke="black" d="M1271.32,-652.429C1274.21,-647.648 1278.85,-640.79 1284.19,-636 1289.53,-631.218 1293.95,-633.779 1298.19,-628 1327.91,-587.474 1322.19,-567.756 1322.19,-517.5 1322.19,-517.5 1322.19,-517.5 1322.19,-432.5 1322.19,-384.413 1321.35,-369.145 1298.19,-327 1291.17,-314.215 1280.53,-302.331 1270.28,-292.659"/>
<polygon fill="black" stroke="black" points="1272.35,-289.814 1262.58,-285.717 1267.66,-295.013 1272.35,-289.814"/>
</g>
<!-- historical_precip_data_input_port -->
<g id="node32" class="node"><title>historical_precip_data_input_port</title>
<ellipse fill="#ffffff" stroke="black" cx="1140.19" cy="-659" rx="7" ry="7"/>
</g>
<!-- historical_precip_data_input_port&#45;&gt;historical_precip_data -->
<g id="edge35" class="edge"><title>historical_precip_data_input_port&#45;&gt;historical_precip_data</title>
<path fill="none" stroke="black" d="M1137.76,-652.127C1135.22,-646.857 1130.71,-639.44 1124.19,-636 1097.65,-621.986 884.013,-631.399 854.193,-628 826.783,-624.875 797.142,-619.565 770.647,-614.108"/>
<polygon fill="black" stroke="black" points="771.163,-610.64 760.657,-612.013 769.726,-617.491 771.163,-610.64"/>
</g>
<!-- tree_ring_data_input_port -->
<g id="node33" class="node"><title>tree_ring_data_input_port</title>
<ellipse fill="#ffffff" stroke="black" cx="1108.19" cy="-659" rx="7" ry="7"/>
</g>
<!-- tree_ring_data_input_port&#45;&gt;tree_ring_data -->
<g id="edge36" class="edge"><title>tree_ring_data_input_port&#45;&gt;tree_ring_data</title>
<path fill="none" stroke="black" d="M1101.04,-657.852C1055.81,-656.863 805.109,-650.53 602.193,-628 555.896,-622.86 504.046,-614.331 464.47,-607.231"/>
<polygon fill="black" stroke="black" points="464.89,-603.75 454.426,-605.413 463.643,-610.639 464.89,-603.75"/>
</g>
</g>
</svg>
