<?xml version="1.0" encoding="UTF-8" standalone="no"?>
<!DOCTYPE svg PUBLIC "-//W3C//DTD SVG 1.1//EN"
 "http://www.w3.org/Graphics/SVG/1.1/DTD/svg11.dtd">
<!-- Generated by graphviz version 2.38.0 (20140413.2041)
 -->
<!-- Title: Workflow Pages: 1 -->
<svg width="910pt" height="867pt"
 viewBox="0.00 0.00 910.00 867.00" xmlns="http://www.w3.org/2000/svg" xmlns:xlink="http://www.w3.org/1999/xlink">
<g id="graph0" class="graph" transform="scale(1 1) rotate(0) translate(4 863)">
<title>Workflow</title>
<polygon fill="white" stroke="none" points="-4,4 -4,-863 906,-863 906,4 -4,4"/>
<text text-anchor="middle" x="451" y="-840.6" font-family="Helvetica,sans-Serif" font-size="18.00">gen_paleocar_model</text>
<g id="clust1" class="cluster"><title>cluster_workflow_box_outer</title>
<polygon fill="none" stroke="black" stroke-width="2" points="8,-62 8,-769 894,-769 894,-62 8,-62"/>
</g>
<g id="clust2" class="cluster"><title>cluster_workflow_box_inner</title>
<polygon fill="none" stroke="black" stroke-width="0" points="16,-70 16,-761 886,-761 886,-70 16,-70"/>
</g>
<g id="clust3" class="cluster"><title>cluster_input_ports_group_outer</title>
<polygon fill="none" stroke="black" stroke-width="0" points="432,-777 432,-823 606,-823 606,-777 432,-777"/>
</g>
<g id="clust4" class="cluster"><title>cluster_input_ports_group_inner</title>
<polygon fill="none" stroke="black" stroke-width="0" points="440,-785 440,-815 598,-815 598,-785 440,-785"/>
</g>
<g id="clust5" class="cluster"><title>cluster_output_ports_group_outer</title>
<polygon fill="none" stroke="black" stroke-width="0" points="388,-8 388,-54 434,-54 434,-8 388,-8"/>
</g>
<g id="clust6" class="cluster"><title>cluster_output_ports_group_inner</title>
<polygon fill="none" stroke="black" stroke-width="0" points="396,-16 396,-46 426,-46 426,-16 396,-16"/>
</g>
<!-- get_predictor_matrix -->
<g id="node1" class="node"><title>get_predictor_matrix</title>
<polygon fill="#ccffcc" stroke="black" points="464.5,-623.5 464.5,-669.5 877.5,-669.5 877.5,-623.5 464.5,-623.5"/>
<text text-anchor="middle" x="671" y="-654.3" font-family="Helvetica,sans-Serif" font-size="14.00">get_predictor_matrix</text>
<polyline fill="none" stroke="black" points="464.5,-646.5 877.5,-646.5 "/>
<text text-anchor="middle" x="671" y="-631.3" font-family="Helvetica,sans-Serif" font-size="14.00">create a matrix of tree ring chronologies for the calibration year.</text>
</g>
<!-- predictor.matrix -->
<g id="node12" class="node"><title>predictor.matrix</title>
<path fill="#ffffcc" stroke="black" d="M538,-581.5C538,-581.5 448,-581.5 448,-581.5 442,-581.5 436,-575.5 436,-569.5 436,-569.5 436,-557.5 436,-557.5 436,-551.5 442,-545.5 448,-545.5 448,-545.5 538,-545.5 538,-545.5 544,-545.5 550,-551.5 550,-557.5 550,-557.5 550,-569.5 550,-569.5 550,-575.5 544,-581.5 538,-581.5"/>
<text text-anchor="middle" x="493" y="-559.8" font-family="Helvetica,sans-Serif" font-size="14.00">predictor.matrix</text>
</g>
<!-- get_predictor_matrix&#45;&gt;predictor.matrix -->
<g id="edge1" class="edge"><title>get_predictor_matrix&#45;&gt;predictor.matrix</title>
<path fill="none" stroke="black" d="M622.361,-623.366C596.713,-611.695 565.391,-597.442 539.993,-585.884"/>
<polygon fill="black" stroke="black" points="541.124,-582.554 530.572,-581.598 538.225,-588.925 541.124,-582.554"/>
</g>
<!-- max.preds -->
<g id="node15" class="node"><title>max.preds</title>
<path fill="#ffffcc" stroke="black" d="M440.5,-498.5C440.5,-498.5 381.5,-498.5 381.5,-498.5 375.5,-498.5 369.5,-492.5 369.5,-486.5 369.5,-486.5 369.5,-474.5 369.5,-474.5 369.5,-468.5 375.5,-462.5 381.5,-462.5 381.5,-462.5 440.5,-462.5 440.5,-462.5 446.5,-462.5 452.5,-468.5 452.5,-474.5 452.5,-474.5 452.5,-486.5 452.5,-486.5 452.5,-492.5 446.5,-498.5 440.5,-498.5"/>
<text text-anchor="middle" x="411" y="-476.8" font-family="Helvetica,sans-Serif" font-size="14.00">max.preds</text>
</g>
<!-- get_predictor_matrix&#45;&gt;max.preds -->
<g id="edge2" class="edge"><title>get_predictor_matrix&#45;&gt;max.preds</title>
<path fill="none" stroke="black" d="M520.453,-623.484C478.797,-614.412 441.108,-602.359 427,-587 407.764,-566.059 405.843,-532.303 407.389,-508.627"/>
<polygon fill="black" stroke="black" points="410.886,-508.813 408.293,-498.541 403.914,-508.188 410.886,-508.813"/>
</g>
<!-- get_reconstruction_matrix -->
<g id="node2" class="node"><title>get_reconstruction_matrix</title>
<polygon fill="#ccffcc" stroke="black" points="24,-623.5 24,-669.5 446,-669.5 446,-623.5 24,-623.5"/>
<text text-anchor="middle" x="235" y="-654.3" font-family="Helvetica,sans-Serif" font-size="14.00">get_reconstruction_matrix</text>
<polyline fill="none" stroke="black" points="24,-646.5 446,-646.5 "/>
<text text-anchor="middle" x="235" y="-631.3" font-family="Helvetica,sans-Serif" font-size="14.00">get reconstruction matrix for chronologies for the prediction year.</text>
</g>
<!-- reconstruction.matrix -->
<g id="node10" class="node"><title>reconstruction.matrix</title>
<path fill="#ffffcc" stroke="black" d="M298.5,-581.5C298.5,-581.5 175.5,-581.5 175.5,-581.5 169.5,-581.5 163.5,-575.5 163.5,-569.5 163.5,-569.5 163.5,-557.5 163.5,-557.5 163.5,-551.5 169.5,-545.5 175.5,-545.5 175.5,-545.5 298.5,-545.5 298.5,-545.5 304.5,-545.5 310.5,-551.5 310.5,-557.5 310.5,-557.5 310.5,-569.5 310.5,-569.5 310.5,-575.5 304.5,-581.5 298.5,-581.5"/>
<text text-anchor="middle" x="237" y="-559.8" font-family="Helvetica,sans-Serif" font-size="14.00">reconstruction.matrix</text>
</g>
<!-- get_reconstruction_matrix&#45;&gt;reconstruction.matrix -->
<g id="edge6" class="edge"><title>get_reconstruction_matrix&#45;&gt;reconstruction.matrix</title>
<path fill="none" stroke="black" d="M235.547,-623.366C235.787,-613.632 236.072,-602.102 236.325,-591.838"/>
<polygon fill="black" stroke="black" points="239.827,-591.811 236.575,-581.728 232.829,-591.638 239.827,-591.811"/>
</g>
<!-- get_predlist -->
<g id="node3" class="node"><title>get_predlist</title>
<polygon fill="#ccffcc" stroke="black" points="142,-457.5 142,-503.5 350,-503.5 350,-457.5 142,-457.5"/>
<text text-anchor="middle" x="246" y="-488.3" font-family="Helvetica,sans-Serif" font-size="14.00">get_predlist</text>
<polyline fill="none" stroke="black" points="142,-480.5 350,-480.5 "/>
<text text-anchor="middle" x="246" y="-465.3" font-family="Helvetica,sans-Serif" font-size="14.00">create list of prediction values.</text>
</g>
<!-- predlist -->
<g id="node13" class="node"><title>predlist</title>
<path fill="#ffffcc" stroke="black" d="M322.5,-421C322.5,-421 283.5,-421 283.5,-421 277.5,-421 271.5,-415 271.5,-409 271.5,-409 271.5,-397 271.5,-397 271.5,-391 277.5,-385 283.5,-385 283.5,-385 322.5,-385 322.5,-385 328.5,-385 334.5,-391 334.5,-397 334.5,-397 334.5,-409 334.5,-409 334.5,-415 328.5,-421 322.5,-421"/>
<text text-anchor="middle" x="303" y="-399.3" font-family="Helvetica,sans-Serif" font-size="14.00">predlist</text>
</g>
<!-- get_predlist&#45;&gt;predlist -->
<g id="edge10" class="edge"><title>get_predlist&#45;&gt;predlist</title>
<path fill="none" stroke="black" d="M262.794,-457.256C269.363,-448.554 276.938,-438.521 283.729,-429.526"/>
<polygon fill="black" stroke="black" points="286.709,-431.387 289.941,-421.298 281.122,-427.17 286.709,-431.387"/>
</g>
<!-- get_carscores -->
<g id="node4" class="node"><title>get_carscores</title>
<polygon fill="#ccffcc" stroke="black" points="470.5,-457.5 470.5,-503.5 815.5,-503.5 815.5,-457.5 470.5,-457.5"/>
<text text-anchor="middle" x="643" y="-488.3" font-family="Helvetica,sans-Serif" font-size="14.00">get_carscores</text>
<polyline fill="none" stroke="black" points="470.5,-480.5 815.5,-480.5 "/>
<text text-anchor="middle" x="643" y="-465.3" font-family="Helvetica,sans-Serif" font-size="14.00">get the carscores for reconstruction of paleoclimate.</text>
</g>
<!-- carscores -->
<g id="node14" class="node"><title>carscores</title>
<path fill="#ffffcc" stroke="black" d="M584,-421C584,-421 528,-421 528,-421 522,-421 516,-415 516,-409 516,-409 516,-397 516,-397 516,-391 522,-385 528,-385 528,-385 584,-385 584,-385 590,-385 596,-391 596,-397 596,-397 596,-409 596,-409 596,-415 590,-421 584,-421"/>
<text text-anchor="middle" x="556" y="-399.3" font-family="Helvetica,sans-Serif" font-size="14.00">carscores</text>
</g>
<!-- get_carscores&#45;&gt;carscores -->
<g id="edge12" class="edge"><title>get_carscores&#45;&gt;carscores</title>
<path fill="none" stroke="black" d="M617.368,-457.256C606.639,-447.945 594.155,-437.112 583.259,-427.656"/>
<polygon fill="black" stroke="black" points="585.5,-424.966 575.653,-421.055 580.912,-430.253 585.5,-424.966"/>
</g>
<!-- optimizeModels -->
<g id="node5" class="node"><title>optimizeModels</title>
<polygon fill="#ccffcc" stroke="black" points="469,-197 353,-197 353,-161 469,-161 469,-197"/>
<text text-anchor="middle" x="411" y="-175.3" font-family="Helvetica,sans-Serif" font-size="14.00">optimizeModels</text>
</g>
<!-- paleocar_models -->
<g id="node17" class="node"><title>paleocar_models</title>
<path fill="#ffffcc" stroke="black" d="M255,-78.5C255,-78.5 567,-78.5 567,-78.5 573,-78.5 579,-84.5 579,-90.5 579,-90.5 579,-112.5 579,-112.5 579,-118.5 573,-124.5 567,-124.5 567,-124.5 255,-124.5 255,-124.5 249,-124.5 243,-118.5 243,-112.5 243,-112.5 243,-90.5 243,-90.5 243,-84.5 249,-78.5 255,-78.5"/>
<text text-anchor="middle" x="411" y="-109.3" font-family="Helvetica,sans-Serif" font-size="14.00">paleocar_models</text>
<polyline fill="none" stroke="black" points="243,-101.5 579,-101.5 "/>
<text text-anchor="middle" x="411" y="-86.3" font-family="Helvetica,sans-Serif" font-size="14.00">file:.output/{session_id}/{run_id}/{label}_model.Rds</text>
</g>
<!-- optimizeModels&#45;&gt;paleocar_models -->
<g id="edge19" class="edge"><title>optimizeModels&#45;&gt;paleocar_models</title>
<path fill="none" stroke="black" d="M411,-160.868C411,-153.175 411,-143.835 411,-134.902"/>
<polygon fill="black" stroke="black" points="414.5,-134.727 411,-124.727 407.5,-134.727 414.5,-134.727"/>
</g>
<!-- calculate_Models -->
<g id="node6" class="node"><title>calculate_Models</title>
<polygon fill="#ccffcc" stroke="black" points="474.5,-345 347.5,-345 347.5,-309 474.5,-309 474.5,-345"/>
<polygon fill="none" stroke="black" points="478.5,-349 343.5,-349 343.5,-305 478.5,-305 478.5,-349"/>
<text text-anchor="middle" x="411" y="-323.3" font-family="Helvetica,sans-Serif" font-size="14.00">calculate_Models</text>
</g>
<!-- linear.models -->
<g id="node16" class="node"><title>linear.models</title>
<path fill="#ffffcc" stroke="black" d="M449.5,-269C449.5,-269 372.5,-269 372.5,-269 366.5,-269 360.5,-263 360.5,-257 360.5,-257 360.5,-245 360.5,-245 360.5,-239 366.5,-233 372.5,-233 372.5,-233 449.5,-233 449.5,-233 455.5,-233 461.5,-239 461.5,-245 461.5,-245 461.5,-257 461.5,-257 461.5,-263 455.5,-269 449.5,-269"/>
<text text-anchor="middle" x="411" y="-247.3" font-family="Helvetica,sans-Serif" font-size="14.00">linear.models</text>
</g>
<!-- calculate_Models&#45;&gt;linear.models -->
<g id="edge15" class="edge"><title>calculate_Models&#45;&gt;linear.models</title>
<path fill="none" stroke="black" d="M411,-304.993C411,-297.061 411,-287.915 411,-279.478"/>
<polygon fill="black" stroke="black" points="414.5,-279.315 411,-269.315 407.5,-279.315 414.5,-279.315"/>
</g>
<!-- itrdb -->
<g id="node7" class="node"><title>itrdb</title>
<path fill="#ffffcc" stroke="black" d="M459,-706.5C459,-706.5 579,-706.5 579,-706.5 585,-706.5 591,-712.5 591,-718.5 591,-718.5 591,-740.5 591,-740.5 591,-746.5 585,-752.5 579,-752.5 579,-752.5 459,-752.5 459,-752.5 453,-752.5 447,-746.5 447,-740.5 447,-740.5 447,-718.5 447,-718.5 447,-712.5 453,-706.5 459,-706.5"/>
<text text-anchor="middle" x="519" y="-737.3" font-family="Helvetica,sans-Serif" font-size="14.00">itrdb</text>
<polyline fill="none" stroke="black" points="447,-729.5 591,-729.5 "/>
<text text-anchor="middle" x="519" y="-714.3" font-family="Helvetica,sans-Serif" font-size="14.00">file:data/ITRDB.Rda</text>
</g>
<!-- itrdb&#45;&gt;get_predictor_matrix -->
<g id="edge3" class="edge"><title>itrdb&#45;&gt;get_predictor_matrix</title>
<path fill="none" stroke="black" d="M560.535,-706.366C579.05,-696.5 601.027,-684.788 620.485,-674.419"/>
<polygon fill="black" stroke="black" points="622.336,-677.399 629.516,-669.607 619.044,-671.221 622.336,-677.399"/>
</g>
<!-- itrdb&#45;&gt;get_reconstruction_matrix -->
<g id="edge7" class="edge"><title>itrdb&#45;&gt;get_reconstruction_matrix</title>
<path fill="none" stroke="black" d="M446.968,-707.956C408.938,-697.109 361.983,-683.717 321.939,-672.296"/>
<polygon fill="black" stroke="black" points="322.761,-668.891 312.184,-669.514 320.841,-675.622 322.761,-668.891"/>
</g>
<!-- calibration_years -->
<g id="node8" class="node"><title>calibration_years</title>
<path fill="#ffffcc" stroke="black" d="M720.5,-747.5C720.5,-747.5 621.5,-747.5 621.5,-747.5 615.5,-747.5 609.5,-741.5 609.5,-735.5 609.5,-735.5 609.5,-723.5 609.5,-723.5 609.5,-717.5 615.5,-711.5 621.5,-711.5 621.5,-711.5 720.5,-711.5 720.5,-711.5 726.5,-711.5 732.5,-717.5 732.5,-723.5 732.5,-723.5 732.5,-735.5 732.5,-735.5 732.5,-741.5 726.5,-747.5 720.5,-747.5"/>
<text text-anchor="middle" x="671" y="-725.8" font-family="Helvetica,sans-Serif" font-size="14.00">calibration_years</text>
</g>
<!-- calibration_years&#45;&gt;get_predictor_matrix -->
<g id="edge4" class="edge"><title>calibration_years&#45;&gt;get_predictor_matrix</title>
<path fill="none" stroke="black" d="M671,-711.322C671,-702.102 671,-690.435 671,-679.606"/>
<polygon fill="black" stroke="black" points="674.5,-679.587 671,-669.587 667.5,-679.587 674.5,-679.587"/>
</g>
<!-- prediction_years -->
<g id="node9" class="node"><title>prediction_years</title>
<path fill="#ffffcc" stroke="black" d="M302,-747.5C302,-747.5 204,-747.5 204,-747.5 198,-747.5 192,-741.5 192,-735.5 192,-735.5 192,-723.5 192,-723.5 192,-717.5 198,-711.5 204,-711.5 204,-711.5 302,-711.5 302,-711.5 308,-711.5 314,-717.5 314,-723.5 314,-723.5 314,-735.5 314,-735.5 314,-741.5 308,-747.5 302,-747.5"/>
<text text-anchor="middle" x="253" y="-725.8" font-family="Helvetica,sans-Serif" font-size="14.00">prediction_years</text>
</g>
<!-- prediction_years&#45;&gt;get_reconstruction_matrix -->
<g id="edge8" class="edge"><title>prediction_years&#45;&gt;get_reconstruction_matrix</title>
<path fill="none" stroke="black" d="M249.183,-711.322C247.134,-702.102 244.541,-690.435 242.135,-679.606"/>
<polygon fill="black" stroke="black" points="245.494,-678.589 239.908,-669.587 238.661,-680.108 245.494,-678.589"/>
</g>
<!-- reconstruction.matrix&#45;&gt;get_predlist -->
<g id="edge11" class="edge"><title>reconstruction.matrix&#45;&gt;get_predlist</title>
<path fill="none" stroke="black" d="M238.909,-545.322C239.933,-536.102 241.229,-524.435 242.433,-513.606"/>
<polygon fill="black" stroke="black" points="245.92,-513.912 243.546,-503.587 238.963,-513.139 245.92,-513.912"/>
</g>
<!-- prism_data_for_coordinates -->
<g id="node11" class="node"><title>prism_data_for_coordinates</title>
<path fill="#ffffcc" stroke="black" d="M580,-540.5C580,-540.5 866,-540.5 866,-540.5 872,-540.5 878,-546.5 878,-552.5 878,-552.5 878,-574.5 878,-574.5 878,-580.5 872,-586.5 866,-586.5 866,-586.5 580,-586.5 580,-586.5 574,-586.5 568,-580.5 568,-574.5 568,-574.5 568,-552.5 568,-552.5 568,-546.5 574,-540.5 580,-540.5"/>
<text text-anchor="middle" x="723" y="-571.3" font-family="Helvetica,sans-Serif" font-size="14.00">prism_data_for_coordinates</text>
<polyline fill="none" stroke="black" points="568,-563.5 878,-563.5 "/>
<text text-anchor="middle" x="723" y="-548.3" font-family="Helvetica,sans-Serif" font-size="14.00">file:.output/{session_id}/{run_id}/112W36N.csv</text>
</g>
<!-- prism_data_for_coordinates&#45;&gt;get_carscores -->
<g id="edge13" class="edge"><title>prism_data_for_coordinates&#45;&gt;get_carscores</title>
<path fill="none" stroke="black" d="M701.14,-540.366C692.144,-531.259 681.596,-520.579 671.972,-510.835"/>
<polygon fill="black" stroke="black" points="674.351,-508.262 664.834,-503.607 669.371,-513.181 674.351,-508.262"/>
</g>
<!-- predictor.matrix&#45;&gt;get_carscores -->
<g id="edge14" class="edge"><title>predictor.matrix&#45;&gt;get_carscores</title>
<path fill="none" stroke="black" d="M524.811,-545.322C544.614,-534.628 570.511,-520.644 593.015,-508.492"/>
<polygon fill="black" stroke="black" points="594.963,-511.418 602.099,-503.587 591.636,-505.259 594.963,-511.418"/>
</g>
<!-- predlist&#45;&gt;calculate_Models -->
<g id="edge16" class="edge"><title>predlist&#45;&gt;calculate_Models</title>
<path fill="none" stroke="black" d="M328.049,-384.837C341.071,-375.914 357.283,-364.806 371.911,-354.783"/>
<polygon fill="black" stroke="black" points="374.033,-357.572 380.304,-349.032 370.077,-351.797 374.033,-357.572"/>
</g>
<!-- carscores&#45;&gt;calculate_Models -->
<g id="edge17" class="edge"><title>carscores&#45;&gt;calculate_Models</title>
<path fill="none" stroke="black" d="M522.37,-384.837C504.232,-375.581 481.487,-363.973 461.288,-353.664"/>
<polygon fill="black" stroke="black" points="462.71,-350.46 452.212,-349.032 459.528,-356.695 462.71,-350.46"/>
</g>
<!-- max.preds&#45;&gt;calculate_Models -->
<g id="edge18" class="edge"><title>max.preds&#45;&gt;calculate_Models</title>
<path fill="none" stroke="black" d="M411,-462.416C411,-437.495 411,-390.748 411,-359.49"/>
<polygon fill="black" stroke="black" points="414.5,-359.14 411,-349.14 407.5,-359.14 414.5,-359.14"/>
</g>
<!-- linear.models&#45;&gt;optimizeModels -->
<g id="edge20" class="edge"><title>linear.models&#45;&gt;optimizeModels</title>
<path fill="none" stroke="black" d="M411,-232.697C411,-224.983 411,-215.712 411,-207.112"/>
<polygon fill="black" stroke="black" points="414.5,-207.104 411,-197.104 407.5,-207.104 414.5,-207.104"/>
</g>
<!-- paleocar_models_output_port -->
<g id="node24" class="node"><title>paleocar_models_output_port</title>
<ellipse fill="#ffffff" stroke="black" cx="411" cy="-31" rx="7" ry="7"/>
</g>
<!-- paleocar_models&#45;&gt;paleocar_models_output_port -->
<g id="edge26" class="edge"><title>paleocar_models&#45;&gt;paleocar_models_output_port</title>
<path fill="none" stroke="black" d="M411,-78.4491C411,-68.6592 411,-57.3397 411,-48.3261"/>
<polygon fill="black" stroke="black" points="414.5,-48.1278 411,-38.1279 407.5,-48.1279 414.5,-48.1278"/>
</g>
<!-- min_width -->
<g id="node18" class="node"><title>min_width</title>
<path fill="#fcfcfc" stroke="black" d="M417,-747.5C417,-747.5 361,-747.5 361,-747.5 355,-747.5 349,-741.5 349,-735.5 349,-735.5 349,-723.5 349,-723.5 349,-717.5 355,-711.5 361,-711.5 361,-711.5 417,-711.5 417,-711.5 423,-711.5 429,-717.5 429,-723.5 429,-723.5 429,-735.5 429,-735.5 429,-741.5 423,-747.5 417,-747.5"/>
<text text-anchor="middle" x="389" y="-725.8" font-family="Helvetica,sans-Serif" font-size="14.00">min_width</text>
</g>
<!-- min_width&#45;&gt;get_predictor_matrix -->
<g id="edge5" class="edge"><title>min_width&#45;&gt;get_predictor_matrix</title>
<path fill="none" stroke="black" d="M424.008,-711.485C428.66,-709.503 433.408,-707.615 438,-706 475.742,-692.725 517.915,-681.184 555.899,-671.942"/>
<polygon fill="black" stroke="black" points="557.07,-675.26 565.975,-669.52 555.434,-668.454 557.07,-675.26"/>
</g>
<!-- min_width&#45;&gt;get_reconstruction_matrix -->
<g id="edge9" class="edge"><title>min_width&#45;&gt;get_reconstruction_matrix</title>
<path fill="none" stroke="black" d="M356.341,-711.322C335.919,-700.581 309.185,-686.52 286.01,-674.33"/>
<polygon fill="black" stroke="black" points="287.472,-671.144 276.992,-669.587 284.213,-677.34 287.472,-671.144"/>
</g>
<!-- prediction_years_input_port -->
<g id="node19" class="node"><title>prediction_years_input_port</title>
<ellipse fill="#ffffff" stroke="black" cx="455" cy="-800" rx="7" ry="7"/>
</g>
<!-- prediction_years_input_port&#45;&gt;prediction_years -->
<g id="edge21" class="edge"><title>prediction_years_input_port&#45;&gt;prediction_years</title>
<path fill="none" stroke="black" d="M448.145,-797.617C430.141,-793.899 380.129,-783.011 340,-769 325.81,-764.046 310.714,-757.749 297.151,-751.69"/>
<polygon fill="black" stroke="black" points="298.588,-748.498 288.035,-747.553 295.695,-754.873 298.588,-748.498"/>
</g>
<!-- prism_data_for_coordinates_input_port -->
<g id="node20" class="node"><title>prism_data_for_coordinates_input_port</title>
<ellipse fill="#ffffff" stroke="black" cx="583" cy="-800" rx="7" ry="7"/>
</g>
<!-- prism_data_for_coordinates_input_port&#45;&gt;prism_data_for_coordinates -->
<g id="edge22" class="edge"><title>prism_data_for_coordinates_input_port&#45;&gt;prism_data_for_coordinates</title>
<path fill="none" stroke="black" d="M590.123,-798.88C629.959,-797.764 825.556,-786.351 887,-670 896.755,-651.529 899.036,-640.073 887,-623 877.552,-609.599 864.745,-599.25 850.426,-591.262"/>
<polygon fill="black" stroke="black" points="851.826,-588.046 841.332,-586.587 848.626,-594.272 851.826,-588.046"/>
</g>
<!-- itrdb_input_port -->
<g id="node21" class="node"><title>itrdb_input_port</title>
<ellipse fill="#ffffff" stroke="black" cx="519" cy="-800" rx="7" ry="7"/>
</g>
<!-- itrdb_input_port&#45;&gt;itrdb -->
<g id="edge23" class="edge"><title>itrdb_input_port&#45;&gt;itrdb</title>
<path fill="none" stroke="black" d="M519,-792.678C519,-785.781 519,-774.208 519,-762.904"/>
<polygon fill="black" stroke="black" points="522.5,-762.74 519,-752.74 515.5,-762.74 522.5,-762.74"/>
</g>
<!-- calibration_years_input_port -->
<g id="node22" class="node"><title>calibration_years_input_port</title>
<ellipse fill="#ffffff" stroke="black" cx="551" cy="-800" rx="7" ry="7"/>
</g>
<!-- calibration_years_input_port&#45;&gt;calibration_years -->
<g id="edge24" class="edge"><title>calibration_years_input_port&#45;&gt;calibration_years</title>
<path fill="none" stroke="black" d="M553.614,-793.428C556.276,-788.371 560.878,-781.098 567,-777 579.541,-768.605 585.915,-774.42 600,-769 611.655,-764.515 623.794,-758.491 634.669,-752.541"/>
<polygon fill="black" stroke="black" points="636.466,-755.546 643.469,-747.596 633.037,-749.444 636.466,-755.546"/>
</g>
<!-- min_width_input_port -->
<g id="node23" class="node"><title>min_width_input_port</title>
<ellipse fill="#ffffff" stroke="black" cx="487" cy="-800" rx="7" ry="7"/>
</g>
<!-- min_width_input_port&#45;&gt;min_width -->
<g id="edge25" class="edge"><title>min_width_input_port&#45;&gt;min_width</title>
<path fill="none" stroke="black" d="M484.386,-793.428C481.724,-788.371 477.122,-781.098 471,-777 458.459,-768.605 451.577,-775.59 438,-769 429.885,-765.061 421.859,-759.604 414.724,-754.036"/>
<polygon fill="black" stroke="black" points="416.755,-751.175 406.806,-747.532 412.312,-756.584 416.755,-751.175"/>
</g>
</g>
</svg>
