<?xml version="1.0" encoding="UTF-8" standalone="no"?>
<!DOCTYPE svg PUBLIC "-//W3C//DTD SVG 1.1//EN"
 "http://www.w3.org/Graphics/SVG/1.1/DTD/svg11.dtd">
<!-- Generated by graphviz version 2.38.0 (20140413.2041)
 -->
<!-- Title: Workflow Pages: 1 -->
<svg width="910pt" height="856pt"
 viewBox="0.00 0.00 910.00 856.00" xmlns="http://www.w3.org/2000/svg" xmlns:xlink="http://www.w3.org/1999/xlink">
<g id="graph0" class="graph" transform="scale(1 1) rotate(0) translate(4 852)">
<title>Workflow</title>
<polygon fill="white" stroke="none" points="-4,4 -4,-852 906,-852 906,4 -4,4"/>
<text text-anchor="middle" x="451" y="-829.6" font-family="Helvetica,sans-Serif" font-size="18.00">gen_paleocar_model</text>
<g id="clust1" class="cluster"><title>cluster_workflow_box_outer</title>
<polygon fill="none" stroke="black" stroke-width="2" points="8,-62 8,-758 894,-758 894,-62 8,-62"/>
</g>
<g id="clust2" class="cluster"><title>cluster_workflow_box_inner</title>
<polygon fill="none" stroke="black" stroke-width="0" points="16,-70 16,-750 886,-750 886,-70 16,-70"/>
</g>
<g id="clust3" class="cluster"><title>cluster_input_ports_group_outer</title>
<polygon fill="none" stroke="black" stroke-width="0" points="452,-766 452,-812 626,-812 626,-766 452,-766"/>
</g>
<g id="clust4" class="cluster"><title>cluster_input_ports_group_inner</title>
<polygon fill="none" stroke="black" stroke-width="0" points="460,-774 460,-804 618,-804 618,-774 460,-774"/>
</g>
<g id="clust5" class="cluster"><title>cluster_output_ports_group_outer</title>
<polygon fill="none" stroke="black" stroke-width="0" points="385,-8 385,-54 431,-54 431,-8 385,-8"/>
</g>
<g id="clust6" class="cluster"><title>cluster_output_ports_group_inner</title>
<polygon fill="none" stroke="black" stroke-width="0" points="393,-16 393,-46 423,-46 423,-16 393,-16"/>
</g>
<!-- get_predictor_matrix -->
<g id="node1" class="node"><title>get_predictor_matrix</title>
<polygon fill="#ccffcc" stroke="black" points="464.5,-612.5 464.5,-658.5 877.5,-658.5 877.5,-612.5 464.5,-612.5"/>
<text text-anchor="middle" x="671" y="-643.3" font-family="Helvetica,sans-Serif" font-size="14.00">get_predictor_matrix</text>
<polyline fill="none" stroke="black" points="464.5,-635.5 877.5,-635.5 "/>
<text text-anchor="middle" x="671" y="-620.3" font-family="Helvetica,sans-Serif" font-size="14.00">create a matrix of tree ring chronologies for the calibration year.</text>
</g>
<!-- predictor_matrix -->
<g id="node12" class="node"><title>predictor_matrix</title>
<path fill="#ffffcc" stroke="black" d="M537.5,-570.5C537.5,-570.5 442.5,-570.5 442.5,-570.5 436.5,-570.5 430.5,-564.5 430.5,-558.5 430.5,-558.5 430.5,-546.5 430.5,-546.5 430.5,-540.5 436.5,-534.5 442.5,-534.5 442.5,-534.5 537.5,-534.5 537.5,-534.5 543.5,-534.5 549.5,-540.5 549.5,-546.5 549.5,-546.5 549.5,-558.5 549.5,-558.5 549.5,-564.5 543.5,-570.5 537.5,-570.5"/>
<text text-anchor="middle" x="490" y="-548.8" font-family="Helvetica,sans-Serif" font-size="14.00">predictor_matrix</text>
</g>
<!-- get_predictor_matrix&#45;&gt;predictor_matrix -->
<g id="edge1" class="edge"><title>get_predictor_matrix&#45;&gt;predictor_matrix</title>
<path fill="none" stroke="black" d="M621.541,-612.366C595.346,-600.644 563.331,-586.316 537.444,-574.732"/>
<polygon fill="black" stroke="black" points="538.763,-571.488 528.206,-570.598 535.904,-577.877 538.763,-571.488"/>
</g>
<!-- max_preds -->
<g id="node15" class="node"><title>max_preds</title>
<path fill="#ffffcc" stroke="black" d="M440,-487.5C440,-487.5 376,-487.5 376,-487.5 370,-487.5 364,-481.5 364,-475.5 364,-475.5 364,-463.5 364,-463.5 364,-457.5 370,-451.5 376,-451.5 376,-451.5 440,-451.5 440,-451.5 446,-451.5 452,-457.5 452,-463.5 452,-463.5 452,-475.5 452,-475.5 452,-481.5 446,-487.5 440,-487.5"/>
<text text-anchor="middle" x="408" y="-465.8" font-family="Helvetica,sans-Serif" font-size="14.00">max_preds</text>
</g>
<!-- get_predictor_matrix&#45;&gt;max_preds -->
<g id="edge2" class="edge"><title>get_predictor_matrix&#45;&gt;max_preds</title>
<path fill="none" stroke="black" d="M513.518,-612.452C472.026,-603.487 434.924,-591.504 421,-576 402.18,-555.045 401.18,-521.577 403.441,-497.964"/>
<polygon fill="black" stroke="black" points="406.933,-498.237 404.657,-487.889 399.984,-497.398 406.933,-498.237"/>
</g>
<!-- get_reconstruction_matrix -->
<g id="node2" class="node"><title>get_reconstruction_matrix</title>
<polygon fill="#ccffcc" stroke="black" points="24,-612.5 24,-658.5 446,-658.5 446,-612.5 24,-612.5"/>
<text text-anchor="middle" x="235" y="-643.3" font-family="Helvetica,sans-Serif" font-size="14.00">get_reconstruction_matrix</text>
<polyline fill="none" stroke="black" points="24,-635.5 446,-635.5 "/>
<text text-anchor="middle" x="235" y="-620.3" font-family="Helvetica,sans-Serif" font-size="14.00">get reconstruction matrix for chronologies for the prediction year.</text>
</g>
<!-- reconstruction_matrix -->
<g id="node10" class="node"><title>reconstruction_matrix</title>
<path fill="#ffffcc" stroke="black" d="M300,-570.5C300,-570.5 172,-570.5 172,-570.5 166,-570.5 160,-564.5 160,-558.5 160,-558.5 160,-546.5 160,-546.5 160,-540.5 166,-534.5 172,-534.5 172,-534.5 300,-534.5 300,-534.5 306,-534.5 312,-540.5 312,-546.5 312,-546.5 312,-558.5 312,-558.5 312,-564.5 306,-570.5 300,-570.5"/>
<text text-anchor="middle" x="236" y="-548.8" font-family="Helvetica,sans-Serif" font-size="14.00">reconstruction_matrix</text>
</g>
<!-- get_reconstruction_matrix&#45;&gt;reconstruction_matrix -->
<g id="edge6" class="edge"><title>get_reconstruction_matrix&#45;&gt;reconstruction_matrix</title>
<path fill="none" stroke="black" d="M235.273,-612.366C235.393,-602.632 235.536,-591.102 235.662,-580.838"/>
<polygon fill="black" stroke="black" points="239.164,-580.77 235.787,-570.728 232.164,-580.684 239.164,-580.77"/>
</g>
<!-- get_predlist -->
<g id="node3" class="node"><title>get_predlist</title>
<polygon fill="#ccffcc" stroke="black" points="137,-446.5 137,-492.5 345,-492.5 345,-446.5 137,-446.5"/>
<text text-anchor="middle" x="241" y="-477.3" font-family="Helvetica,sans-Serif" font-size="14.00">get_predlist</text>
<polyline fill="none" stroke="black" points="137,-469.5 345,-469.5 "/>
<text text-anchor="middle" x="241" y="-454.3" font-family="Helvetica,sans-Serif" font-size="14.00">create list of prediction values.</text>
</g>
<!-- predlist -->
<g id="node13" class="node"><title>predlist</title>
<path fill="#ffffcc" stroke="black" d="M318.5,-410C318.5,-410 279.5,-410 279.5,-410 273.5,-410 267.5,-404 267.5,-398 267.5,-398 267.5,-386 267.5,-386 267.5,-380 273.5,-374 279.5,-374 279.5,-374 318.5,-374 318.5,-374 324.5,-374 330.5,-380 330.5,-386 330.5,-386 330.5,-398 330.5,-398 330.5,-404 324.5,-410 318.5,-410"/>
<text text-anchor="middle" x="299" y="-388.3" font-family="Helvetica,sans-Serif" font-size="14.00">predlist</text>
</g>
<!-- get_predlist&#45;&gt;predlist -->
<g id="edge10" class="edge"><title>get_predlist&#45;&gt;predlist</title>
<path fill="none" stroke="black" d="M258.088,-446.256C264.842,-437.464 272.64,-427.314 279.604,-418.248"/>
<polygon fill="black" stroke="black" points="282.395,-420.36 285.712,-410.298 276.844,-416.095 282.395,-420.36"/>
</g>
<!-- get_carscores -->
<g id="node4" class="node"><title>get_carscores</title>
<polygon fill="#ccffcc" stroke="black" points="470.5,-446.5 470.5,-492.5 815.5,-492.5 815.5,-446.5 470.5,-446.5"/>
<text text-anchor="middle" x="643" y="-477.3" font-family="Helvetica,sans-Serif" font-size="14.00">get_carscores</text>
<polyline fill="none" stroke="black" points="470.5,-469.5 815.5,-469.5 "/>
<text text-anchor="middle" x="643" y="-454.3" font-family="Helvetica,sans-Serif" font-size="14.00">get the carscores for reconstruction of paleoclimate.</text>
</g>
<!-- carscores -->
<g id="node14" class="node"><title>carscores</title>
<path fill="#ffffcc" stroke="black" d="M583,-410C583,-410 527,-410 527,-410 521,-410 515,-404 515,-398 515,-398 515,-386 515,-386 515,-380 521,-374 527,-374 527,-374 583,-374 583,-374 589,-374 595,-380 595,-386 595,-386 595,-398 595,-398 595,-404 589,-410 583,-410"/>
<text text-anchor="middle" x="555" y="-388.3" font-family="Helvetica,sans-Serif" font-size="14.00">carscores</text>
</g>
<!-- get_carscores&#45;&gt;carscores -->
<g id="edge12" class="edge"><title>get_carscores&#45;&gt;carscores</title>
<path fill="none" stroke="black" d="M617.073,-446.256C606.221,-436.945 593.594,-426.112 582.572,-416.656"/>
<polygon fill="black" stroke="black" points="584.748,-413.911 574.879,-410.055 580.19,-419.223 584.748,-413.911"/>
</g>
<!-- optimizeModels -->
<g id="node5" class="node"><title>optimizeModels</title>
<polygon fill="#ccffcc" stroke="black" points="466,-186 350,-186 350,-150 466,-150 466,-186"/>
<text text-anchor="middle" x="408" y="-164.3" font-family="Helvetica,sans-Serif" font-size="14.00">optimizeModels</text>
</g>
<!-- paleocar_models -->
<g id="node7" class="node"><title>paleocar_models</title>
<path fill="#ffffcc" stroke="black" d="M459.5,-114C459.5,-114 356.5,-114 356.5,-114 350.5,-114 344.5,-108 344.5,-102 344.5,-102 344.5,-90 344.5,-90 344.5,-84 350.5,-78 356.5,-78 356.5,-78 459.5,-78 459.5,-78 465.5,-78 471.5,-84 471.5,-90 471.5,-90 471.5,-102 471.5,-102 471.5,-108 465.5,-114 459.5,-114"/>
<text text-anchor="middle" x="408" y="-92.3" font-family="Helvetica,sans-Serif" font-size="14.00">paleocar_models</text>
</g>
<!-- optimizeModels&#45;&gt;paleocar_models -->
<g id="edge19" class="edge"><title>optimizeModels&#45;&gt;paleocar_models</title>
<path fill="none" stroke="black" d="M408,-149.697C408,-141.983 408,-132.712 408,-124.112"/>
<polygon fill="black" stroke="black" points="411.5,-124.104 408,-114.104 404.5,-124.104 411.5,-124.104"/>
</g>
<!-- calculate_Models -->
<g id="node6" class="node"><title>calculate_Models</title>
<polygon fill="#ccffcc" stroke="black" points="471.5,-334 344.5,-334 344.5,-298 471.5,-298 471.5,-334"/>
<polygon fill="none" stroke="black" points="475.5,-338 340.5,-338 340.5,-294 475.5,-294 475.5,-338"/>
<text text-anchor="middle" x="408" y="-312.3" font-family="Helvetica,sans-Serif" font-size="14.00">calculate_Models</text>
</g>
<!-- linear_models -->
<g id="node16" class="node"><title>linear_models</title>
<path fill="#ffffcc" stroke="black" d="M449,-258C449,-258 367,-258 367,-258 361,-258 355,-252 355,-246 355,-246 355,-234 355,-234 355,-228 361,-222 367,-222 367,-222 449,-222 449,-222 455,-222 461,-228 461,-234 461,-234 461,-246 461,-246 461,-252 455,-258 449,-258"/>
<text text-anchor="middle" x="408" y="-236.3" font-family="Helvetica,sans-Serif" font-size="14.00">linear_models</text>
</g>
<!-- calculate_Models&#45;&gt;linear_models -->
<g id="edge15" class="edge"><title>calculate_Models&#45;&gt;linear_models</title>
<path fill="none" stroke="black" d="M408,-293.993C408,-286.061 408,-276.915 408,-268.478"/>
<polygon fill="black" stroke="black" points="411.5,-268.315 408,-258.315 404.5,-268.315 411.5,-268.315"/>
</g>
<!-- paleocar_models_output_port -->
<g id="node24" class="node"><title>paleocar_models_output_port</title>
<ellipse fill="#ffffff" stroke="black" cx="408" cy="-31" rx="7" ry="7"/>
</g>
<!-- paleocar_models&#45;&gt;paleocar_models_output_port -->
<g id="edge26" class="edge"><title>paleocar_models&#45;&gt;paleocar_models_output_port</title>
<path fill="none" stroke="black" d="M408,-77.785C408,-68.6656 408,-57.5197 408,-48.5085"/>
<polygon fill="black" stroke="black" points="411.5,-48.242 408,-38.242 404.5,-48.2421 411.5,-48.242"/>
</g>
<!-- itrdb -->
<g id="node8" class="node"><title>itrdb</title>
<path fill="#ffffcc" stroke="black" d="M498.5,-695.5C498.5,-695.5 579.5,-695.5 579.5,-695.5 585.5,-695.5 591.5,-701.5 591.5,-707.5 591.5,-707.5 591.5,-729.5 591.5,-729.5 591.5,-735.5 585.5,-741.5 579.5,-741.5 579.5,-741.5 498.5,-741.5 498.5,-741.5 492.5,-741.5 486.5,-735.5 486.5,-729.5 486.5,-729.5 486.5,-707.5 486.5,-707.5 486.5,-701.5 492.5,-695.5 498.5,-695.5"/>
<text text-anchor="middle" x="539" y="-726.3" font-family="Helvetica,sans-Serif" font-size="14.00">itrdb</text>
<polyline fill="none" stroke="black" points="486.5,-718.5 591.5,-718.5 "/>
<text text-anchor="middle" x="539" y="-703.3" font-family="Helvetica,sans-Serif" font-size="14.00">data/itrdb.Rda</text>
</g>
<!-- itrdb&#45;&gt;get_predictor_matrix -->
<g id="edge3" class="edge"><title>itrdb&#45;&gt;get_predictor_matrix</title>
<path fill="none" stroke="black" d="M575.07,-695.366C590.93,-685.634 609.717,-674.106 626.442,-663.842"/>
<polygon fill="black" stroke="black" points="628.281,-666.82 634.974,-658.607 624.62,-660.854 628.281,-666.82"/>
</g>
<!-- itrdb&#45;&gt;get_reconstruction_matrix -->
<g id="edge7" class="edge"><title>itrdb&#45;&gt;get_reconstruction_matrix</title>
<path fill="none" stroke="black" d="M486.368,-697.95C483.21,-696.917 480.07,-695.925 477,-695 434.95,-682.33 388.158,-670.502 347.012,-660.844"/>
<polygon fill="black" stroke="black" points="347.763,-657.425 337.23,-658.563 346.174,-664.242 347.763,-657.425"/>
</g>
<!-- prediction_years -->
<g id="node9" class="node"><title>prediction_years</title>
<path fill="#ffffcc" stroke="black" d="M321,-736.5C321,-736.5 223,-736.5 223,-736.5 217,-736.5 211,-730.5 211,-724.5 211,-724.5 211,-712.5 211,-712.5 211,-706.5 217,-700.5 223,-700.5 223,-700.5 321,-700.5 321,-700.5 327,-700.5 333,-706.5 333,-712.5 333,-712.5 333,-724.5 333,-724.5 333,-730.5 327,-736.5 321,-736.5"/>
<text text-anchor="middle" x="272" y="-714.8" font-family="Helvetica,sans-Serif" font-size="14.00">prediction_years</text>
</g>
<!-- prediction_years&#45;&gt;get_reconstruction_matrix -->
<g id="edge8" class="edge"><title>prediction_years&#45;&gt;get_reconstruction_matrix</title>
<path fill="none" stroke="black" d="M264.153,-700.322C259.855,-690.912 254.392,-678.953 249.36,-667.937"/>
<polygon fill="black" stroke="black" points="252.428,-666.228 245.089,-658.587 246.06,-669.137 252.428,-666.228"/>
</g>
<!-- reconstruction_matrix&#45;&gt;get_predlist -->
<g id="edge11" class="edge"><title>reconstruction_matrix&#45;&gt;get_predlist</title>
<path fill="none" stroke="black" d="M237.06,-534.322C237.63,-525.102 238.35,-513.435 239.018,-502.606"/>
<polygon fill="black" stroke="black" points="242.514,-502.783 239.637,-492.587 235.527,-502.352 242.514,-502.783"/>
</g>
<!-- prism_data_for_coordinates -->
<g id="node11" class="node"><title>prism_data_for_coordinates</title>
<path fill="#ffffcc" stroke="black" d="M580,-529.5C580,-529.5 866,-529.5 866,-529.5 872,-529.5 878,-535.5 878,-541.5 878,-541.5 878,-563.5 878,-563.5 878,-569.5 872,-575.5 866,-575.5 866,-575.5 580,-575.5 580,-575.5 574,-575.5 568,-569.5 568,-563.5 568,-563.5 568,-541.5 568,-541.5 568,-535.5 574,-529.5 580,-529.5"/>
<text text-anchor="middle" x="723" y="-560.3" font-family="Helvetica,sans-Serif" font-size="14.00">prism_data_for_coordinates</text>
<polyline fill="none" stroke="black" points="568,-552.5 878,-552.5 "/>
<text text-anchor="middle" x="723" y="-537.3" font-family="Helvetica,sans-Serif" font-size="14.00">file:.output/{session_id}/{run_id}/112W36N.csv</text>
</g>
<!-- prism_data_for_coordinates&#45;&gt;get_carscores -->
<g id="edge13" class="edge"><title>prism_data_for_coordinates&#45;&gt;get_carscores</title>
<path fill="none" stroke="black" d="M701.14,-529.366C692.144,-520.259 681.596,-509.579 671.972,-499.835"/>
<polygon fill="black" stroke="black" points="674.351,-497.262 664.834,-492.607 669.371,-502.181 674.351,-497.262"/>
</g>
<!-- predictor_matrix&#45;&gt;get_carscores -->
<g id="edge14" class="edge"><title>predictor_matrix&#45;&gt;get_carscores</title>
<path fill="none" stroke="black" d="M522.447,-534.322C542.736,-523.581 569.296,-509.52 592.321,-497.33"/>
<polygon fill="black" stroke="black" points="594.08,-500.359 601.281,-492.587 590.805,-494.172 594.08,-500.359"/>
</g>
<!-- predlist&#45;&gt;calculate_Models -->
<g id="edge16" class="edge"><title>predlist&#45;&gt;calculate_Models</title>
<path fill="none" stroke="black" d="M324.281,-373.837C337.424,-364.914 353.786,-353.806 368.549,-343.783"/>
<polygon fill="black" stroke="black" points="370.713,-346.545 377.02,-338.032 366.781,-340.753 370.713,-346.545"/>
</g>
<!-- carscores&#45;&gt;calculate_Models -->
<g id="edge17" class="edge"><title>carscores&#45;&gt;calculate_Models</title>
<path fill="none" stroke="black" d="M520.906,-373.837C502.518,-364.581 479.459,-352.973 458.981,-342.664"/>
<polygon fill="black" stroke="black" points="460.286,-339.402 449.78,-338.032 457.139,-345.655 460.286,-339.402"/>
</g>
<!-- max_preds&#45;&gt;calculate_Models -->
<g id="edge18" class="edge"><title>max_preds&#45;&gt;calculate_Models</title>
<path fill="none" stroke="black" d="M408,-451.416C408,-426.495 408,-379.748 408,-348.49"/>
<polygon fill="black" stroke="black" points="411.5,-348.14 408,-338.14 404.5,-348.14 411.5,-348.14"/>
</g>
<!-- linear_models&#45;&gt;optimizeModels -->
<g id="edge20" class="edge"><title>linear_models&#45;&gt;optimizeModels</title>
<path fill="none" stroke="black" d="M408,-221.697C408,-213.983 408,-204.712 408,-196.112"/>
<polygon fill="black" stroke="black" points="411.5,-196.104 408,-186.104 404.5,-196.104 411.5,-196.104"/>
</g>
<!-- calibration_years -->
<g id="node17" class="node"><title>calibration_years</title>
<path fill="#fcfcfc" stroke="black" d="M720.5,-736.5C720.5,-736.5 621.5,-736.5 621.5,-736.5 615.5,-736.5 609.5,-730.5 609.5,-724.5 609.5,-724.5 609.5,-712.5 609.5,-712.5 609.5,-706.5 615.5,-700.5 621.5,-700.5 621.5,-700.5 720.5,-700.5 720.5,-700.5 726.5,-700.5 732.5,-706.5 732.5,-712.5 732.5,-712.5 732.5,-724.5 732.5,-724.5 732.5,-730.5 726.5,-736.5 720.5,-736.5"/>
<text text-anchor="middle" x="671" y="-714.8" font-family="Helvetica,sans-Serif" font-size="14.00">calibration_years</text>
</g>
<!-- calibration_years&#45;&gt;get_predictor_matrix -->
<g id="edge4" class="edge"><title>calibration_years&#45;&gt;get_predictor_matrix</title>
<path fill="none" stroke="black" d="M671,-700.322C671,-691.102 671,-679.435 671,-668.606"/>
<polygon fill="black" stroke="black" points="674.5,-668.587 671,-658.587 667.5,-668.587 674.5,-668.587"/>
</g>
<!-- min_width -->
<g id="node18" class="node"><title>min_width</title>
<path fill="#fcfcfc" stroke="black" d="M456,-736.5C456,-736.5 400,-736.5 400,-736.5 394,-736.5 388,-730.5 388,-724.5 388,-724.5 388,-712.5 388,-712.5 388,-706.5 394,-700.5 400,-700.5 400,-700.5 456,-700.5 456,-700.5 462,-700.5 468,-706.5 468,-712.5 468,-712.5 468,-724.5 468,-724.5 468,-730.5 462,-736.5 456,-736.5"/>
<text text-anchor="middle" x="428" y="-714.8" font-family="Helvetica,sans-Serif" font-size="14.00">min_width</text>
</g>
<!-- min_width&#45;&gt;get_predictor_matrix -->
<g id="edge5" class="edge"><title>min_width&#45;&gt;get_predictor_matrix</title>
<path fill="none" stroke="black" d="M463.619,-700.457C468.085,-698.524 472.622,-696.656 477,-695 509.8,-682.591 546.472,-670.976 579.028,-661.418"/>
<polygon fill="black" stroke="black" points="580.366,-664.674 588.99,-658.519 578.41,-657.952 580.366,-664.674"/>
</g>
<!-- min_width&#45;&gt;get_reconstruction_matrix -->
<g id="edge9" class="edge"><title>min_width&#45;&gt;get_reconstruction_matrix</title>
<path fill="none" stroke="black" d="M387.541,-700.52C361.309,-689.511 326.623,-674.953 296.955,-662.502"/>
<polygon fill="black" stroke="black" points="298.091,-659.183 287.516,-658.54 295.382,-665.638 298.091,-659.183"/>
</g>
<!-- prediction_years_input_port -->
<g id="node19" class="node"><title>prediction_years_input_port</title>
<ellipse fill="#ffffff" stroke="black" cx="475" cy="-789" rx="7" ry="7"/>
</g>
<!-- prediction_years_input_port&#45;&gt;prediction_years -->
<g id="edge21" class="edge"><title>prediction_years_input_port&#45;&gt;prediction_years</title>
<path fill="none" stroke="black" d="M468.451,-786.058C452.877,-781.418 412.435,-769.234 379,-758 362.183,-752.35 343.988,-745.922 327.454,-739.959"/>
<polygon fill="black" stroke="black" points="328.529,-736.626 317.934,-736.512 326.145,-743.208 328.529,-736.626"/>
</g>
<!-- prism_data_for_coordinates_input_port -->
<g id="node20" class="node"><title>prism_data_for_coordinates_input_port</title>
<ellipse fill="#ffffff" stroke="black" cx="603" cy="-789" rx="7" ry="7"/>
</g>
<!-- prism_data_for_coordinates_input_port&#45;&gt;prism_data_for_coordinates -->
<g id="edge22" class="edge"><title>prism_data_for_coordinates_input_port&#45;&gt;prism_data_for_coordinates</title>
<path fill="none" stroke="black" d="M609.878,-787.657C647.532,-785.355 829.09,-768.66 887,-659 896.755,-640.529 899.036,-629.073 887,-612 877.552,-598.599 864.745,-588.25 850.426,-580.262"/>
<polygon fill="black" stroke="black" points="851.826,-577.046 841.332,-575.587 848.626,-583.272 851.826,-577.046"/>
</g>
<!-- itrdb_input_port -->
<g id="node21" class="node"><title>itrdb_input_port</title>
<ellipse fill="#ffffff" stroke="black" cx="539" cy="-789" rx="7" ry="7"/>
</g>
<!-- itrdb_input_port&#45;&gt;itrdb -->
<g id="edge23" class="edge"><title>itrdb_input_port&#45;&gt;itrdb</title>
<path fill="none" stroke="black" d="M539,-781.678C539,-774.781 539,-763.208 539,-751.904"/>
<polygon fill="black" stroke="black" points="542.5,-751.74 539,-741.74 535.5,-751.74 542.5,-751.74"/>
</g>
<!-- calibration_years_input_port -->
<g id="node22" class="node"><title>calibration_years_input_port</title>
<ellipse fill="#ffffff" stroke="black" cx="571" cy="-789" rx="7" ry="7"/>
</g>
<!-- calibration_years_input_port&#45;&gt;calibration_years -->
<g id="edge24" class="edge"><title>calibration_years_input_port&#45;&gt;calibration_years</title>
<path fill="none" stroke="black" d="M574.113,-782.411C576.989,-777.618 581.621,-770.754 587,-766 587.515,-765.545 609.777,-753.227 631.251,-741.384"/>
<polygon fill="black" stroke="black" points="632.955,-744.441 640.023,-736.549 629.575,-738.311 632.955,-744.441"/>
</g>
<!-- min_width_input_port -->
<g id="node23" class="node"><title>min_width_input_port</title>
<ellipse fill="#ffffff" stroke="black" cx="507" cy="-789" rx="7" ry="7"/>
</g>
<!-- min_width_input_port&#45;&gt;min_width -->
<g id="edge25" class="edge"><title>min_width_input_port&#45;&gt;min_width</title>
<path fill="none" stroke="black" d="M503.871,-782.429C500.985,-777.648 496.347,-770.79 491,-766 485.662,-761.218 482.945,-762.002 477,-758 470.185,-753.412 463.102,-748.158 456.509,-743.037"/>
<polygon fill="black" stroke="black" points="458.491,-740.142 448.477,-736.682 454.147,-745.632 458.491,-740.142"/>
</g>
</g>
</svg>
