<?xml version="1.0" encoding="UTF-8" standalone="no"?>
<!DOCTYPE svg PUBLIC "-//W3C//DTD SVG 1.1//EN"
 "http://www.w3.org/Graphics/SVG/1.1/DTD/svg11.dtd">
<!-- Generated by graphviz version 2.38.0 (20140413.2041)
 -->
<!-- Title: Workflow Pages: 1 -->
<svg width="392pt" height="383pt"
 viewBox="0.00 0.00 392.00 383.00" xmlns="http://www.w3.org/2000/svg" xmlns:xlink="http://www.w3.org/1999/xlink">
<g id="graph0" class="graph" transform="scale(1 1) rotate(0) translate(4 379)">
<title>Workflow</title>
<polygon fill="white" stroke="none" points="-4,4 -4,-379 388,-379 388,4 -4,4"/>
<text text-anchor="middle" x="192" y="-356.6" font-family="Helvetica,sans-Serif" font-size="18.00">gen_boundary_region</text>
<g id="clust1" class="cluster"><title>cluster_workflow_box_outer</title>
<polygon fill="none" stroke="black" stroke-width="2" points="8,-62 8,-285 376,-285 376,-62 8,-62"/>
</g>
<g id="clust2" class="cluster"><title>cluster_workflow_box_inner</title>
<polygon fill="none" stroke="black" stroke-width="0" points="16,-70 16,-277 368,-277 368,-70 16,-70"/>
</g>
<g id="clust3" class="cluster"><title>cluster_input_ports_group_outer</title>
<polygon fill="none" stroke="black" stroke-width="0" points="150,-293 150,-339 228,-339 228,-293 150,-293"/>
</g>
<g id="clust4" class="cluster"><title>cluster_input_ports_group_inner</title>
<polygon fill="none" stroke="black" stroke-width="0" points="158,-301 158,-331 220,-331 220,-301 158,-301"/>
</g>
<g id="clust5" class="cluster"><title>cluster_output_ports_group_outer</title>
<polygon fill="none" stroke="black" stroke-width="0" points="167,-8 167,-54 213,-54 213,-8 167,-8"/>
</g>
<g id="clust6" class="cluster"><title>cluster_output_ports_group_inner</title>
<polygon fill="none" stroke="black" stroke-width="0" points="175,-16 175,-46 205,-46 205,-16 175,-16"/>
</g>
<!-- gen_boundary_region -->
<g id="node1" class="node"><title>gen_boundary_region</title>
<polygon fill="#ccffcc" stroke="black" points="267.5,-186 112.5,-186 112.5,-150 267.5,-150 267.5,-186"/>
<text text-anchor="middle" x="190" y="-164.3" font-family="Helvetica,sans-Serif" font-size="14.00">gen_boundary_region</text>
</g>
<!-- boundary_coordinates -->
<g id="node2" class="node"><title>boundary_coordinates</title>
<path fill="#ffffcc" stroke="black" d="M257,-114C257,-114 123,-114 123,-114 117,-114 111,-108 111,-102 111,-102 111,-90 111,-90 111,-84 117,-78 123,-78 123,-78 257,-78 257,-78 263,-78 269,-84 269,-90 269,-90 269,-102 269,-102 269,-108 263,-114 257,-114"/>
<text text-anchor="middle" x="190" y="-92.3" font-family="Helvetica,sans-Serif" font-size="14.00">boundary_coordinates</text>
</g>
<!-- gen_boundary_region&#45;&gt;boundary_coordinates -->
<g id="edge1" class="edge"><title>gen_boundary_region&#45;&gt;boundary_coordinates</title>
<path fill="none" stroke="black" d="M190,-149.697C190,-141.983 190,-132.712 190,-124.112"/>
<polygon fill="black" stroke="black" points="193.5,-124.104 190,-114.104 186.5,-124.104 193.5,-124.104"/>
</g>
<!-- boundary_coordinates_output_port -->
<g id="node7" class="node"><title>boundary_coordinates_output_port</title>
<ellipse fill="#ffffff" stroke="black" cx="190" cy="-31" rx="7" ry="7"/>
</g>
<!-- boundary_coordinates&#45;&gt;boundary_coordinates_output_port -->
<g id="edge6" class="edge"><title>boundary_coordinates&#45;&gt;boundary_coordinates_output_port</title>
<path fill="none" stroke="black" d="M190,-77.785C190,-68.6656 190,-57.5197 190,-48.5085"/>
<polygon fill="black" stroke="black" points="193.5,-48.242 190,-38.242 186.5,-48.2421 193.5,-48.242"/>
</g>
<!-- user_map_marker_pos -->
<g id="node3" class="node"><title>user_map_marker_pos</title>
<path fill="#ffffcc" stroke="black" d="M348,-263.5C348,-263.5 208,-263.5 208,-263.5 202,-263.5 196,-257.5 196,-251.5 196,-251.5 196,-239.5 196,-239.5 196,-233.5 202,-227.5 208,-227.5 208,-227.5 348,-227.5 348,-227.5 354,-227.5 360,-233.5 360,-239.5 360,-239.5 360,-251.5 360,-251.5 360,-257.5 354,-263.5 348,-263.5"/>
<text text-anchor="middle" x="278" y="-241.8" font-family="Helvetica,sans-Serif" font-size="14.00">user_map_marker_pos</text>
</g>
<!-- user_map_marker_pos&#45;&gt;gen_boundary_region -->
<g id="edge2" class="edge"><title>user_map_marker_pos&#45;&gt;gen_boundary_region</title>
<path fill="none" stroke="black" d="M258.031,-227.368C246.105,-217.136 230.781,-203.988 217.696,-192.762"/>
<polygon fill="black" stroke="black" points="219.758,-189.919 209.89,-186.064 215.2,-195.232 219.758,-189.919"/>
</g>
<!-- prism_data -->
<g id="node4" class="node"><title>prism_data</title>
<path fill="#fcfcfc" stroke="black" d="M36,-222.5C36,-222.5 166,-222.5 166,-222.5 172,-222.5 178,-228.5 178,-234.5 178,-234.5 178,-256.5 178,-256.5 178,-262.5 172,-268.5 166,-268.5 166,-268.5 36,-268.5 36,-268.5 30,-268.5 24,-262.5 24,-256.5 24,-256.5 24,-234.5 24,-234.5 24,-228.5 30,-222.5 36,-222.5"/>
<text text-anchor="middle" x="101" y="-253.3" font-family="Helvetica,sans-Serif" font-size="14.00">prism_data</text>
<polyline fill="none" stroke="black" points="24,-245.5 178,-245.5 "/>
<text text-anchor="middle" x="101" y="-230.3" font-family="Helvetica,sans-Serif" font-size="14.00">file:data/112W36N.nc</text>
</g>
<!-- prism_data&#45;&gt;gen_boundary_region -->
<g id="edge3" class="edge"><title>prism_data&#45;&gt;gen_boundary_region</title>
<path fill="none" stroke="black" d="M127.222,-222.256C138.197,-212.945 150.968,-202.112 162.114,-192.656"/>
<polygon fill="black" stroke="black" points="164.533,-195.194 169.895,-186.055 160.005,-189.856 164.533,-195.194"/>
</g>
<!-- user_map_marker_pos_input_port -->
<g id="node5" class="node"><title>user_map_marker_pos_input_port</title>
<ellipse fill="#ffffff" stroke="black" cx="205" cy="-316" rx="7" ry="7"/>
</g>
<!-- user_map_marker_pos_input_port&#45;&gt;user_map_marker_pos -->
<g id="edge4" class="edge"><title>user_map_marker_pos_input_port&#45;&gt;user_map_marker_pos</title>
<path fill="none" stroke="black" d="M209.79,-310.506C218.349,-302.474 236.833,-285.129 252.403,-270.519"/>
<polygon fill="black" stroke="black" points="254.858,-273.015 259.756,-263.62 250.068,-267.91 254.858,-273.015"/>
</g>
<!-- prism_data_input_port -->
<g id="node6" class="node"><title>prism_data_input_port</title>
<ellipse fill="#ffffff" stroke="black" cx="173" cy="-316" rx="7" ry="7"/>
</g>
<!-- prism_data_input_port&#45;&gt;prism_data -->
<g id="edge5" class="edge"><title>prism_data_input_port&#45;&gt;prism_data</title>
<path fill="none" stroke="black" d="M168.276,-310.506C160.832,-303.423 145.777,-289.101 131.794,-275.797"/>
<polygon fill="black" stroke="black" points="133.847,-272.92 124.19,-268.563 129.022,-277.991 133.847,-272.92"/>
</g>
</g>
</svg>
