<?xml version="1.0" encoding="UTF-8" standalone="no"?>
<!DOCTYPE svg PUBLIC "-//W3C//DTD SVG 1.1//EN"
 "http://www.w3.org/Graphics/SVG/1.1/DTD/svg11.dtd">
<!-- Generated by graphviz version 2.38.0 (20140413.2041)
 -->
<!-- Title: Workflow Pages: 1 -->
<svg width="1469pt" height="892pt"
 viewBox="0.00 0.00 1469.00 892.00" xmlns="http://www.w3.org/2000/svg" xmlns:xlink="http://www.w3.org/1999/xlink">
<g id="graph0" class="graph" transform="scale(1 1) rotate(0) translate(4 888)">
<title>Workflow</title>
<polygon fill="white" stroke="none" points="-4,4 -4,-888 1465,-888 1465,4 -4,4"/>
<text text-anchor="middle" x="730.502" y="-865.6" font-family="Helvetica,sans-Serif" font-size="18.00">yw_artifacts</text>
<g id="clust1" class="cluster"><title>cluster_workflow_box_outer</title>
<polygon fill="none" stroke="black" stroke-width="2" points="8,-62 8,-794 1332,-794 1332,-62 8,-62"/>
</g>
<g id="clust2" class="cluster"><title>cluster_workflow_box_inner</title>
<polygon fill="none" stroke="black" stroke-width="0" points="16,-70 16,-786 1324,-786 1324,-70 16,-70"/>
</g>
<g id="clust5" class="cluster"><title>cluster_output_ports_group_outer</title>
<polygon fill="none" stroke="black" stroke-width="0" points="1070,-8 1070,-54 1372,-54 1372,-8 1070,-8"/>
</g>
<g id="clust6" class="cluster"><title>cluster_output_ports_group_inner</title>
<polygon fill="none" stroke="black" stroke-width="0" points="1078,-16 1078,-46 1364,-46 1364,-16 1078,-16"/>
</g>
<g id="clust3" class="cluster"><title>cluster_input_ports_group_outer</title>
<polygon fill="none" stroke="black" stroke-width="0" points="1071,-802 1071,-848 1277,-848 1277,-802 1071,-802"/>
</g>
<g id="clust4" class="cluster"><title>cluster_input_ports_group_inner</title>
<polygon fill="none" stroke="black" stroke-width="0" points="1079,-810 1079,-840 1269,-840 1269,-810 1079,-810"/>
</g>
<!-- get_filenames -->
<g id="node1" class="node"><title>get_filenames</title>
<polygon fill="#ccffcc" stroke="black" points="511,-659.5 511,-705.5 801,-705.5 801,-659.5 511,-659.5"/>
<text text-anchor="middle" x="656" y="-690.3" font-family="Helvetica,sans-Serif" font-size="14.00">get_filenames</text>
<polyline fill="none" stroke="black" points="511,-682.5 801,-682.5 "/>
<text text-anchor="middle" x="656" y="-667.3" font-family="Helvetica,sans-Serif" font-size="14.00">get the filenames from the scripts directory.</text>
</g>
<!-- filename -->
<g id="node12" class="node"><title>filename</title>
<path fill="#ffffcc" stroke="black" d="M523.5,-617.5C523.5,-617.5 476.5,-617.5 476.5,-617.5 470.5,-617.5 464.5,-611.5 464.5,-605.5 464.5,-605.5 464.5,-593.5 464.5,-593.5 464.5,-587.5 470.5,-581.5 476.5,-581.5 476.5,-581.5 523.5,-581.5 523.5,-581.5 529.5,-581.5 535.5,-587.5 535.5,-593.5 535.5,-593.5 535.5,-605.5 535.5,-605.5 535.5,-611.5 529.5,-617.5 523.5,-617.5"/>
<text text-anchor="middle" x="500" y="-595.8" font-family="Helvetica,sans-Serif" font-size="14.00">filename</text>
</g>
<!-- get_filenames&#45;&gt;filename -->
<g id="edge1" class="edge"><title>get_filenames&#45;&gt;filename</title>
<path fill="none" stroke="black" d="M613.372,-659.366C591.27,-647.89 564.361,-633.918 542.306,-622.466"/>
<polygon fill="black" stroke="black" points="543.667,-619.23 533.179,-617.728 540.441,-625.442 543.667,-619.23"/>
</g>
<!-- gen_dot_files -->
<g id="node2" class="node"><title>gen_dot_files</title>
<polygon fill="#ccffcc" stroke="black" points="104,-493.5 104,-539.5 338,-539.5 338,-493.5 104,-493.5"/>
<text text-anchor="middle" x="221" y="-524.3" font-family="Helvetica,sans-Serif" font-size="14.00">gen_dot_files</text>
<polyline fill="none" stroke="black" points="104,-516.5 338,-516.5 "/>
<text text-anchor="middle" x="221" y="-501.3" font-family="Helvetica,sans-Serif" font-size="14.00">generate yeskworkflow graph files.</text>
</g>
<!-- gv_files -->
<g id="node13" class="node"><title>gv_files</title>
<path fill="#ffffcc" stroke="black" d="M156,-410.5C156,-410.5 306,-410.5 306,-410.5 312,-410.5 318,-416.5 318,-422.5 318,-422.5 318,-444.5 318,-444.5 318,-450.5 312,-456.5 306,-456.5 306,-456.5 156,-456.5 156,-456.5 150,-456.5 144,-450.5 144,-444.5 144,-444.5 144,-422.5 144,-422.5 144,-416.5 150,-410.5 156,-410.5"/>
<text text-anchor="middle" x="231" y="-441.3" font-family="Helvetica,sans-Serif" font-size="14.00">gv_files</text>
<polyline fill="none" stroke="black" points="144,-433.5 318,-433.5 "/>
<text text-anchor="middle" x="231" y="-418.3" font-family="Helvetica,sans-Serif" font-size="14.00">file:gv_files/{filename}.gv</text>
</g>
<!-- gen_dot_files&#45;&gt;gv_files -->
<g id="edge3" class="edge"><title>gen_dot_files&#45;&gt;gv_files</title>
<path fill="none" stroke="black" d="M223.733,-493.366C224.747,-485.152 225.919,-475.658 227.022,-466.725"/>
<polygon fill="black" stroke="black" points="230.519,-466.96 228.271,-456.607 223.572,-466.103 230.519,-466.96"/>
</g>
<!-- gen_png_files -->
<g id="node3" class="node"><title>gen_png_files</title>
<polygon fill="#ccffcc" stroke="black" points="282.5,-327.5 282.5,-373.5 505.5,-373.5 505.5,-327.5 282.5,-327.5"/>
<text text-anchor="middle" x="394" y="-358.3" font-family="Helvetica,sans-Serif" font-size="14.00">gen_png_files</text>
<polyline fill="none" stroke="black" points="282.5,-350.5 505.5,-350.5 "/>
<text text-anchor="middle" x="394" y="-335.3" font-family="Helvetica,sans-Serif" font-size="14.00">generate png files from doT files</text>
</g>
<!-- graphs -->
<g id="node17" class="node"><title>graphs</title>
<path fill="#ffffcc" stroke="black" d="M902.5,-244.5C902.5,-244.5 1055.5,-244.5 1055.5,-244.5 1061.5,-244.5 1067.5,-250.5 1067.5,-256.5 1067.5,-256.5 1067.5,-278.5 1067.5,-278.5 1067.5,-284.5 1061.5,-290.5 1055.5,-290.5 1055.5,-290.5 902.5,-290.5 902.5,-290.5 896.5,-290.5 890.5,-284.5 890.5,-278.5 890.5,-278.5 890.5,-256.5 890.5,-256.5 890.5,-250.5 896.5,-244.5 902.5,-244.5"/>
<text text-anchor="middle" x="979" y="-275.3" font-family="Helvetica,sans-Serif" font-size="14.00">graphs</text>
<polyline fill="none" stroke="black" points="890.5,-267.5 1067.5,-267.5 "/>
<text text-anchor="middle" x="979" y="-252.3" font-family="Helvetica,sans-Serif" font-size="14.00">file:graphs/{filename}.png</text>
</g>
<!-- gen_png_files&#45;&gt;graphs -->
<g id="edge7" class="edge"><title>gen_png_files&#45;&gt;graphs</title>
<path fill="none" stroke="black" d="M505.729,-328.219C508.512,-327.796 511.272,-327.389 514,-327 673.085,-304.328 717.52,-316.877 880.541,-290.965"/>
<polygon fill="black" stroke="black" points="881.112,-294.418 890.427,-289.37 879.997,-287.508 881.112,-294.418"/>
</g>
<!-- gen_pdf_files -->
<g id="node4" class="node"><title>gen_pdf_files</title>
<polygon fill="#ccffcc" stroke="black" points="44,-327.5 44,-373.5 264,-373.5 264,-327.5 44,-327.5"/>
<text text-anchor="middle" x="154" y="-358.3" font-family="Helvetica,sans-Serif" font-size="14.00">gen_pdf_files</text>
<polyline fill="none" stroke="black" points="44,-350.5 264,-350.5 "/>
<text text-anchor="middle" x="154" y="-335.3" font-family="Helvetica,sans-Serif" font-size="14.00">generate pdf files from doT files</text>
</g>
<!-- prov_pdf -->
<g id="node21" class="node"><title>prov_pdf</title>
<path fill="#ffffcc" stroke="black" d="M258,-244.5C258,-244.5 422,-244.5 422,-244.5 428,-244.5 434,-250.5 434,-256.5 434,-256.5 434,-278.5 434,-278.5 434,-284.5 428,-290.5 422,-290.5 422,-290.5 258,-290.5 258,-290.5 252,-290.5 246,-284.5 246,-278.5 246,-278.5 246,-256.5 246,-256.5 246,-250.5 252,-244.5 258,-244.5"/>
<text text-anchor="middle" x="340" y="-275.3" font-family="Helvetica,sans-Serif" font-size="14.00">prov_pdf</text>
<polyline fill="none" stroke="black" points="246,-267.5 434,-267.5 "/>
<text text-anchor="middle" x="340" y="-252.3" font-family="Helvetica,sans-Serif" font-size="14.00">file:prov_pdf/{filename}.pdf</text>
</g>
<!-- gen_pdf_files&#45;&gt;prov_pdf -->
<g id="edge11" class="edge"><title>gen_pdf_files&#45;&gt;prov_pdf</title>
<path fill="none" stroke="black" d="M204.825,-327.366C227.995,-317.277 255.595,-305.257 279.796,-294.718"/>
<polygon fill="black" stroke="black" points="281.465,-297.808 289.236,-290.607 278.67,-291.391 281.465,-297.808"/>
</g>
<!-- gen_svg_files -->
<g id="node5" class="node"><title>gen_svg_files</title>
<polygon fill="#ccffcc" stroke="black" points="523.5,-327.5 523.5,-373.5 744.5,-373.5 744.5,-327.5 523.5,-327.5"/>
<text text-anchor="middle" x="634" y="-358.3" font-family="Helvetica,sans-Serif" font-size="14.00">gen_svg_files</text>
<polyline fill="none" stroke="black" points="523.5,-350.5 744.5,-350.5 "/>
<text text-anchor="middle" x="634" y="-335.3" font-family="Helvetica,sans-Serif" font-size="14.00">generate svg files from doT files</text>
</g>
<!-- svg_files -->
<g id="node20" class="node"><title>svg_files</title>
<path fill="#ffffcc" stroke="black" d="M1138.5,-244.5C1138.5,-244.5 1303.5,-244.5 1303.5,-244.5 1309.5,-244.5 1315.5,-250.5 1315.5,-256.5 1315.5,-256.5 1315.5,-278.5 1315.5,-278.5 1315.5,-284.5 1309.5,-290.5 1303.5,-290.5 1303.5,-290.5 1138.5,-290.5 1138.5,-290.5 1132.5,-290.5 1126.5,-284.5 1126.5,-278.5 1126.5,-278.5 1126.5,-256.5 1126.5,-256.5 1126.5,-250.5 1132.5,-244.5 1138.5,-244.5"/>
<text text-anchor="middle" x="1221" y="-275.3" font-family="Helvetica,sans-Serif" font-size="14.00">svg_files</text>
<polyline fill="none" stroke="black" points="1126.5,-267.5 1315.5,-267.5 "/>
<text text-anchor="middle" x="1221" y="-252.3" font-family="Helvetica,sans-Serif" font-size="14.00">file:svg_files/{filename}.svg</text>
</g>
<!-- gen_svg_files&#45;&gt;svg_files -->
<g id="edge15" class="edge"><title>gen_svg_files&#45;&gt;svg_files</title>
<path fill="none" stroke="black" d="M744.899,-335.52C834.351,-324.076 963.372,-307.19 1076,-291 1088.96,-289.137 1102.56,-287.115 1116.02,-285.073"/>
<polygon fill="black" stroke="black" points="1116.92,-288.477 1126.28,-283.51 1115.87,-281.557 1116.92,-288.477"/>
</g>
<!-- extract_graph_facts -->
<g id="node6" class="node"><title>extract_graph_facts</title>
<polygon fill="#ccffcc" stroke="black" points="641.5,-493.5 641.5,-539.5 888.5,-539.5 888.5,-493.5 641.5,-493.5"/>
<text text-anchor="middle" x="765" y="-524.3" font-family="Helvetica,sans-Serif" font-size="14.00">extract_graph_facts</text>
<polyline fill="none" stroke="black" points="641.5,-516.5 888.5,-516.5 "/>
<text text-anchor="middle" x="765" y="-501.3" font-family="Helvetica,sans-Serif" font-size="14.00">extract datalog facts from the graphs</text>
</g>
<!-- facts -->
<g id="node15" class="node"><title>facts</title>
<path fill="#ffffcc" stroke="black" d="M594,-410.5C594,-410.5 720,-410.5 720,-410.5 726,-410.5 732,-416.5 732,-422.5 732,-422.5 732,-444.5 732,-444.5 732,-450.5 726,-456.5 720,-456.5 720,-456.5 594,-456.5 594,-456.5 588,-456.5 582,-450.5 582,-444.5 582,-444.5 582,-422.5 582,-422.5 582,-416.5 588,-410.5 594,-410.5"/>
<text text-anchor="middle" x="657" y="-441.3" font-family="Helvetica,sans-Serif" font-size="14.00">facts</text>
<polyline fill="none" stroke="black" points="582,-433.5 732,-433.5 "/>
<text text-anchor="middle" x="657" y="-418.3" font-family="Helvetica,sans-Serif" font-size="14.00">file:facts/{filename}.P</text>
</g>
<!-- extract_graph_facts&#45;&gt;facts -->
<g id="edge19" class="edge"><title>extract_graph_facts&#45;&gt;facts</title>
<path fill="none" stroke="black" d="M735.489,-493.366C722.869,-483.902 707.985,-472.739 694.59,-462.693"/>
<polygon fill="black" stroke="black" points="696.576,-459.807 686.476,-456.607 692.376,-465.407 696.576,-459.807"/>
</g>
<!-- extract_model_facts -->
<g id="node7" class="node"><title>extract_model_facts</title>
<polygon fill="#ccffcc" stroke="black" points="376.5,-493.5 376.5,-539.5 623.5,-539.5 623.5,-493.5 376.5,-493.5"/>
<text text-anchor="middle" x="500" y="-524.3" font-family="Helvetica,sans-Serif" font-size="14.00">extract_model_facts</text>
<polyline fill="none" stroke="black" points="376.5,-516.5 623.5,-516.5 "/>
<text text-anchor="middle" x="500" y="-501.3" font-family="Helvetica,sans-Serif" font-size="14.00">extract datalog facts from the model.</text>
</g>
<!-- models -->
<g id="node14" class="node"><title>models</title>
<path fill="#ffffcc" stroke="black" d="M408.5,-410.5C408.5,-410.5 551.5,-410.5 551.5,-410.5 557.5,-410.5 563.5,-416.5 563.5,-422.5 563.5,-422.5 563.5,-444.5 563.5,-444.5 563.5,-450.5 557.5,-456.5 551.5,-456.5 551.5,-456.5 408.5,-456.5 408.5,-456.5 402.5,-456.5 396.5,-450.5 396.5,-444.5 396.5,-444.5 396.5,-422.5 396.5,-422.5 396.5,-416.5 402.5,-410.5 408.5,-410.5"/>
<text text-anchor="middle" x="480" y="-441.3" font-family="Helvetica,sans-Serif" font-size="14.00">models</text>
<polyline fill="none" stroke="black" points="396.5,-433.5 563.5,-433.5 "/>
<text text-anchor="middle" x="480" y="-418.3" font-family="Helvetica,sans-Serif" font-size="14.00">file:models/{filename}.P</text>
</g>
<!-- extract_model_facts&#45;&gt;models -->
<g id="edge23" class="edge"><title>extract_model_facts&#45;&gt;models</title>
<path fill="none" stroke="black" d="M494.535,-493.366C492.485,-485.062 490.111,-475.451 487.885,-466.434"/>
<polygon fill="black" stroke="black" points="491.254,-465.476 485.458,-456.607 484.458,-467.154 491.254,-465.476"/>
</g>
<!-- gen_views -->
<g id="node8" class="node"><title>gen_views</title>
<polygon fill="#ccffcc" stroke="black" points="823.5,-327.5 823.5,-373.5 1144.5,-373.5 1144.5,-327.5 823.5,-327.5"/>
<text text-anchor="middle" x="984" y="-358.3" font-family="Helvetica,sans-Serif" font-size="14.00">gen_views</text>
<polyline fill="none" stroke="black" points="823.5,-350.5 1144.5,-350.5 "/>
<text text-anchor="middle" x="984" y="-335.3" font-family="Helvetica,sans-Serif" font-size="14.00">create datalog facts views from the models files.</text>
</g>
<!-- views -->
<g id="node16" class="node"><title>views</title>
<path fill="#ffffcc" stroke="black" d="M729.5,-244.5C729.5,-244.5 860.5,-244.5 860.5,-244.5 866.5,-244.5 872.5,-250.5 872.5,-256.5 872.5,-256.5 872.5,-278.5 872.5,-278.5 872.5,-284.5 866.5,-290.5 860.5,-290.5 860.5,-290.5 729.5,-290.5 729.5,-290.5 723.5,-290.5 717.5,-284.5 717.5,-278.5 717.5,-278.5 717.5,-256.5 717.5,-256.5 717.5,-250.5 723.5,-244.5 729.5,-244.5"/>
<text text-anchor="middle" x="795" y="-275.3" font-family="Helvetica,sans-Serif" font-size="14.00">views</text>
<polyline fill="none" stroke="black" points="717.5,-267.5 872.5,-267.5 "/>
<text text-anchor="middle" x="795" y="-252.3" font-family="Helvetica,sans-Serif" font-size="14.00">file:views/{filename}.P</text>
</g>
<!-- gen_views&#45;&gt;views -->
<g id="edge27" class="edge"><title>gen_views&#45;&gt;views</title>
<path fill="none" stroke="black" d="M932.355,-327.366C908.708,-317.232 880.518,-305.151 855.849,-294.578"/>
<polygon fill="black" stroke="black" points="857.153,-291.329 846.583,-290.607 854.395,-297.763 857.153,-291.329"/>
</g>
<!-- exec_queries -->
<g id="node9" class="node"><title>exec_queries</title>
<polygon fill="#ccffcc" stroke="black" points="559,-161.5 559,-207.5 837,-207.5 837,-161.5 559,-161.5"/>
<text text-anchor="middle" x="698" y="-192.3" font-family="Helvetica,sans-Serif" font-size="14.00">exec_queries</text>
<polyline fill="none" stroke="black" points="559,-184.5 837,-184.5 "/>
<text text-anchor="middle" x="698" y="-169.3" font-family="Helvetica,sans-Serif" font-size="14.00">execute prospective provenance queries.</text>
</g>
<!-- results -->
<g id="node18" class="node"><title>results</title>
<path fill="#ffffcc" stroke="black" d="M695.5,-78.5C695.5,-78.5 842.5,-78.5 842.5,-78.5 848.5,-78.5 854.5,-84.5 854.5,-90.5 854.5,-90.5 854.5,-112.5 854.5,-112.5 854.5,-118.5 848.5,-124.5 842.5,-124.5 842.5,-124.5 695.5,-124.5 695.5,-124.5 689.5,-124.5 683.5,-118.5 683.5,-112.5 683.5,-112.5 683.5,-90.5 683.5,-90.5 683.5,-84.5 689.5,-78.5 695.5,-78.5"/>
<text text-anchor="middle" x="769" y="-109.3" font-family="Helvetica,sans-Serif" font-size="14.00">results</text>
<polyline fill="none" stroke="black" points="683.5,-101.5 854.5,-101.5 "/>
<text text-anchor="middle" x="769" y="-86.3" font-family="Helvetica,sans-Serif" font-size="14.00">file:results/{filename}.log</text>
</g>
<!-- exec_queries&#45;&gt;results -->
<g id="edge35" class="edge"><title>exec_queries&#45;&gt;results</title>
<path fill="none" stroke="black" d="M717.401,-161.366C725.228,-152.437 734.379,-141.997 742.784,-132.409"/>
<polygon fill="black" stroke="black" points="745.663,-134.434 749.622,-124.607 740.399,-129.82 745.663,-134.434"/>
</g>
<!-- exec_yw_recon -->
<g id="node10" class="node"><title>exec_yw_recon</title>
<polygon fill="#ccffcc" stroke="black" points="907,-493.5 907,-539.5 1101,-539.5 1101,-493.5 907,-493.5"/>
<text text-anchor="middle" x="1004" y="-524.3" font-family="Helvetica,sans-Serif" font-size="14.00">exec_yw_recon</text>
<polyline fill="none" stroke="black" points="907,-516.5 1101,-516.5 "/>
<text text-anchor="middle" x="1004" y="-501.3" font-family="Helvetica,sans-Serif" font-size="14.00">execute yw recon for the run</text>
</g>
<!-- recon -->
<g id="node19" class="node"><title>recon</title>
<path fill="#ffffcc" stroke="black" d="M1172.5,-410.5C1172.5,-410.5 1303.5,-410.5 1303.5,-410.5 1309.5,-410.5 1315.5,-416.5 1315.5,-422.5 1315.5,-422.5 1315.5,-444.5 1315.5,-444.5 1315.5,-450.5 1309.5,-456.5 1303.5,-456.5 1303.5,-456.5 1172.5,-456.5 1172.5,-456.5 1166.5,-456.5 1160.5,-450.5 1160.5,-444.5 1160.5,-444.5 1160.5,-422.5 1160.5,-422.5 1160.5,-416.5 1166.5,-410.5 1172.5,-410.5"/>
<text text-anchor="middle" x="1238" y="-441.3" font-family="Helvetica,sans-Serif" font-size="14.00">recon</text>
<polyline fill="none" stroke="black" points="1160.5,-433.5 1315.5,-433.5 "/>
<text text-anchor="middle" x="1238" y="-418.3" font-family="Helvetica,sans-Serif" font-size="14.00">file:recon/{filename}.P</text>
</g>
<!-- exec_yw_recon&#45;&gt;recon -->
<g id="edge44" class="edge"><title>exec_yw_recon&#45;&gt;recon</title>
<path fill="none" stroke="black" d="M1067.63,-493.473C1097.68,-483.072 1133.71,-470.601 1164.88,-459.812"/>
<polygon fill="black" stroke="black" points="1166.08,-463.101 1174.38,-456.522 1163.79,-456.486 1166.08,-463.101"/>
</g>
<!-- script_dir -->
<g id="node11" class="node"><title>script_dir</title>
<path fill="#ffffcc" stroke="black" d="M837.5,-778C837.5,-778 786.5,-778 786.5,-778 780.5,-778 774.5,-772 774.5,-766 774.5,-766 774.5,-754 774.5,-754 774.5,-748 780.5,-742 786.5,-742 786.5,-742 837.5,-742 837.5,-742 843.5,-742 849.5,-748 849.5,-754 849.5,-754 849.5,-766 849.5,-766 849.5,-772 843.5,-778 837.5,-778"/>
<text text-anchor="middle" x="812" y="-756.3" font-family="Helvetica,sans-Serif" font-size="14.00">script_dir</text>
</g>
<!-- script_dir&#45;&gt;get_filenames -->
<g id="edge2" class="edge"><title>script_dir&#45;&gt;get_filenames</title>
<path fill="none" stroke="black" d="M776.601,-741.868C757.173,-732.465 732.657,-720.6 710.811,-710.027"/>
<polygon fill="black" stroke="black" points="712.161,-706.792 701.635,-705.586 709.111,-713.093 712.161,-706.792"/>
</g>
<!-- filename&#45;&gt;gen_dot_files -->
<g id="edge4" class="edge"><title>filename&#45;&gt;gen_dot_files</title>
<path fill="none" stroke="black" d="M464.381,-588.159C424.828,-576.676 359.571,-557.73 306.582,-542.346"/>
<polygon fill="black" stroke="black" points="307.419,-538.945 296.839,-539.518 305.467,-545.667 307.419,-538.945"/>
</g>
<!-- filename&#45;&gt;extract_graph_facts -->
<g id="edge22" class="edge"><title>filename&#45;&gt;extract_graph_facts</title>
<path fill="none" stroke="black" d="M535.739,-587.576C573.354,-576.079 633.845,-557.589 683.248,-542.488"/>
<polygon fill="black" stroke="black" points="684.43,-545.787 692.97,-539.517 682.384,-539.093 684.43,-545.787"/>
</g>
<!-- filename&#45;&gt;extract_model_facts -->
<g id="edge24" class="edge"><title>filename&#45;&gt;extract_model_facts</title>
<path fill="none" stroke="black" d="M500,-581.322C500,-572.102 500,-560.435 500,-549.606"/>
<polygon fill="black" stroke="black" points="503.5,-549.587 500,-539.587 496.5,-549.587 503.5,-549.587"/>
</g>
<!-- filename&#45;&gt;gen_views -->
<g id="edge28" class="edge"><title>filename&#45;&gt;gen_views</title>
<path fill="none" stroke="black" d="M464.207,-593.658C432.618,-587.282 388.369,-572.743 367,-540 348.841,-512.174 385.574,-411.241 387,-410 387.254,-409.779 636.801,-385.383 813.136,-368.17"/>
<polygon fill="black" stroke="black" points="813.707,-371.63 823.32,-367.175 813.027,-364.664 813.707,-371.63"/>
</g>
<!-- filename&#45;&gt;exec_queries -->
<g id="edge36" class="edge"><title>filename&#45;&gt;exec_queries</title>
<path fill="none" stroke="black" d="M464.295,-593.305C432.88,-588.737 385.906,-581.914 345,-576 289.449,-567.968 138.521,-575.445 95,-540 18.7413,-477.891 -19.7568,-408.698 35,-327 91.3251,-242.962 370.987,-207.982 548.629,-194.07"/>
<polygon fill="black" stroke="black" points="549.154,-197.54 558.857,-193.283 548.618,-190.56 549.154,-197.54"/>
</g>
<!-- filename&#45;&gt;exec_yw_recon -->
<g id="edge45" class="edge"><title>filename&#45;&gt;exec_yw_recon</title>
<path fill="none" stroke="black" d="M535.705,-593.981C605.387,-584.998 764.294,-563.708 897,-540 897.102,-539.982 897.204,-539.963 897.307,-539.945"/>
<polygon fill="black" stroke="black" points="897.742,-543.424 906.947,-538.178 896.48,-536.539 897.742,-543.424"/>
</g>
<!-- gv_files&#45;&gt;gen_png_files -->
<g id="edge8" class="edge"><title>gv_files&#45;&gt;gen_png_files</title>
<path fill="none" stroke="black" d="M275.54,-410.366C295.575,-400.41 319.39,-388.576 340.395,-378.138"/>
<polygon fill="black" stroke="black" points="342.116,-381.191 349.513,-373.607 339.001,-374.923 342.116,-381.191"/>
</g>
<!-- gv_files&#45;&gt;gen_pdf_files -->
<g id="edge12" class="edge"><title>gv_files&#45;&gt;gen_pdf_files</title>
<path fill="none" stroke="black" d="M209.959,-410.366C201.386,-401.348 191.348,-390.788 182.159,-381.121"/>
<polygon fill="black" stroke="black" points="184.442,-378.443 175.015,-373.607 179.368,-383.266 184.442,-378.443"/>
</g>
<!-- gv_files&#45;&gt;gen_svg_files -->
<g id="edge16" class="edge"><title>gv_files&#45;&gt;gen_svg_files</title>
<path fill="none" stroke="black" d="M318.013,-412.955C322.742,-411.943 327.427,-410.952 332,-410 366.323,-402.854 444.874,-387.651 513.26,-374.534"/>
<polygon fill="black" stroke="black" points="514.108,-377.936 523.27,-372.615 512.79,-371.061 514.108,-377.936"/>
</g>
<!-- gv_files_output_port -->
<g id="node41" class="node"><title>gv_files_output_port</title>
<ellipse fill="#ffffff" stroke="black" cx="1253" cy="-31" rx="7" ry="7"/>
</g>
<!-- gv_files&#45;&gt;gv_files_output_port -->
<g id="edge62" class="edge"><title>gv_files&#45;&gt;gv_files_output_port</title>
<path fill="none" stroke="black" d="M318.28,-418.4C340.63,-415.205 364.663,-412.131 387,-410 556.64,-393.818 987.815,-415.876 1153,-374 1247,-350.169 1344,-365.478 1344,-268.5 1344,-268.5 1344,-268.5 1344,-183.5 1344,-167.792 1285.77,-80.269 1262.47,-45.8784"/>
<polygon fill="black" stroke="black" points="1265.2,-43.6675 1256.68,-37.3674 1259.41,-47.6044 1265.2,-43.6675"/>
</g>
<!-- models&#45;&gt;gen_views -->
<g id="edge29" class="edge"><title>models&#45;&gt;gen_views</title>
<path fill="none" stroke="black" d="M563.569,-411.881C566.748,-411.224 569.9,-410.594 573,-410 651.422,-394.968 738.942,-381.991 812.999,-372.105"/>
<polygon fill="black" stroke="black" points="813.904,-375.515 823.357,-370.73 812.983,-368.576 813.904,-375.515"/>
</g>
<!-- models&#45;&gt;exec_queries -->
<g id="edge37" class="edge"><title>models&#45;&gt;exec_queries</title>
<path fill="none" stroke="black" d="M563.601,-412.041C566.772,-411.339 569.913,-410.656 573,-410 616.316,-400.79 740.656,-408.025 769,-374 782.37,-357.951 780.711,-344.297 769,-327 744.847,-291.326 703.153,-326.674 679,-291 664.21,-269.155 671.624,-239.156 681.188,-216.73"/>
<polygon fill="black" stroke="black" points="684.374,-218.178 685.359,-207.629 678.011,-215.261 684.374,-218.178"/>
</g>
<!-- models_output_port -->
<g id="node34" class="node"><title>models_output_port</title>
<ellipse fill="#ffffff" stroke="black" cx="1285" cy="-31" rx="7" ry="7"/>
</g>
<!-- models&#45;&gt;models_output_port -->
<g id="edge55" class="edge"><title>models&#45;&gt;models_output_port</title>
<path fill="none" stroke="black" d="M563.505,-411.499C566.702,-410.949 569.875,-410.445 573,-410 659.44,-397.678 1291.02,-430.013 1358,-374 1394.89,-343.152 1382,-316.587 1382,-268.5 1382,-268.5 1382,-268.5 1382,-183.5 1382,-128.457 1397.99,-99.825 1358,-62 1339.42,-44.4207 1322.93,-67.1682 1301,-54 1297.84,-52.1038 1295.12,-49.3207 1292.87,-46.3673"/>
<polygon fill="black" stroke="black" points="1295.76,-44.3828 1287.53,-37.7122 1289.8,-48.0599 1295.76,-44.3828"/>
</g>
<!-- facts&#45;&gt;gen_views -->
<g id="edge30" class="edge"><title>facts&#45;&gt;gen_views</title>
<path fill="none" stroke="black" d="M732.254,-413.438C736.905,-412.271 741.515,-411.118 746,-410 791.292,-398.709 841.473,-386.352 884.034,-375.916"/>
<polygon fill="black" stroke="black" points="884.956,-379.294 893.835,-373.514 883.29,-372.495 884.956,-379.294"/>
</g>
<!-- facts&#45;&gt;exec_queries -->
<g id="edge38" class="edge"><title>facts&#45;&gt;exec_queries</title>
<path fill="none" stroke="black" d="M732.202,-416.01C754.261,-407.301 775.945,-394.065 789,-374 800.392,-356.491 800.898,-344.169 789,-327 763.045,-289.546 718.955,-328.454 693,-291 678.327,-269.827 681.264,-240.121 686.902,-217.624"/>
<polygon fill="black" stroke="black" points="690.312,-218.424 689.629,-207.851 683.57,-216.543 690.312,-218.424"/>
</g>
<!-- facts_output_port -->
<g id="node35" class="node"><title>facts_output_port</title>
<ellipse fill="#ffffff" stroke="black" cx="1317" cy="-31" rx="7" ry="7"/>
</g>
<!-- facts&#45;&gt;facts_output_port -->
<g id="edge56" class="edge"><title>facts&#45;&gt;facts_output_port</title>
<path fill="none" stroke="black" d="M732.019,-414.814C741.729,-412.954 751.573,-411.279 761,-410 831.027,-400.499 1342.03,-419.627 1396,-374 1432.72,-342.953 1420,-316.587 1420,-268.5 1420,-268.5 1420,-268.5 1420,-183.5 1420,-128.457 1436.24,-99.5617 1396,-62 1375.37,-42.7393 1357.29,-68.3696 1333,-54 1329.83,-52.1246 1327.11,-49.3496 1324.85,-46.3974"/>
<polygon fill="black" stroke="black" points="1327.74,-44.4111 1319.51,-37.7312 1321.78,-48.0815 1327.74,-44.4111"/>
</g>
<!-- views&#45;&gt;exec_queries -->
<g id="edge39" class="edge"><title>views&#45;&gt;exec_queries</title>
<path fill="none" stroke="black" d="M768.494,-244.366C757.374,-235.08 744.296,-224.16 732.444,-214.262"/>
<polygon fill="black" stroke="black" points="734.393,-211.33 724.474,-207.607 729.906,-216.703 734.393,-211.33"/>
</g>
<!-- views_output_port -->
<g id="node40" class="node"><title>views_output_port</title>
<ellipse fill="#ffffff" stroke="black" cx="1157" cy="-31" rx="7" ry="7"/>
</g>
<!-- views&#45;&gt;views_output_port -->
<g id="edge61" class="edge"><title>views&#45;&gt;views_output_port</title>
<path fill="none" stroke="black" d="M822.458,-244.41C875.278,-202.934 996.011,-113.005 1111,-62 1123.61,-56.4049 1129.62,-61.8065 1141,-54 1144.04,-51.9161 1146.71,-49.0597 1148.96,-46.095"/>
<polygon fill="black" stroke="black" points="1151.98,-47.8633 1154.36,-37.5403 1146.06,-44.123 1151.98,-47.8633"/>
</g>
<!-- graphs_output_port -->
<g id="node33" class="node"><title>graphs_output_port</title>
<ellipse fill="#ffffff" stroke="black" cx="1189" cy="-31" rx="7" ry="7"/>
</g>
<!-- graphs&#45;&gt;graphs_output_port -->
<g id="edge54" class="edge"><title>graphs&#45;&gt;graphs_output_port</title>
<path fill="none" stroke="black" d="M1000.81,-244.284C1037.65,-206.404 1113.95,-126.38 1173,-54 1175.2,-51.3058 1177.46,-48.3417 1179.56,-45.4857"/>
<polygon fill="black" stroke="black" points="1182.52,-47.3631 1185.47,-37.1886 1176.82,-43.2997 1182.52,-47.3631"/>
</g>
<!-- results_output_port -->
<g id="node36" class="node"><title>results_output_port</title>
<ellipse fill="#ffffff" stroke="black" cx="1125" cy="-31" rx="7" ry="7"/>
</g>
<!-- results&#45;&gt;results_output_port -->
<g id="edge57" class="edge"><title>results&#45;&gt;results_output_port</title>
<path fill="none" stroke="black" d="M853.274,-78.4653C880.743,-72.1072 911.502,-65.8527 940,-62 958.629,-59.4815 1092.45,-62.9243 1109,-54 1112.24,-52.2512 1114.99,-49.5258 1117.25,-46.5811"/>
<polygon fill="black" stroke="black" points="1120.36,-48.2123 1122.55,-37.8472 1114.37,-44.5818 1120.36,-48.2123"/>
</g>
<!-- recon_output_port -->
<g id="node37" class="node"><title>recon_output_port</title>
<ellipse fill="#ffffff" stroke="black" cx="1349" cy="-31" rx="7" ry="7"/>
</g>
<!-- recon&#45;&gt;recon_output_port -->
<g id="edge58" class="edge"><title>recon&#45;&gt;recon_output_port</title>
<path fill="none" stroke="black" d="M1315.62,-427.684C1356.23,-421.119 1403.67,-406.412 1434,-374 1466.86,-338.888 1458,-316.587 1458,-268.5 1458,-268.5 1458,-268.5 1458,-183.5 1458,-128.457 1470.02,-103.626 1434,-62 1416.79,-42.11 1385.54,-35.4058 1366.1,-33.1469"/>
<polygon fill="black" stroke="black" points="1366.26,-29.647 1355.99,-32.2504 1365.64,-36.6197 1366.26,-29.647"/>
</g>
<!-- svg_files_output_port -->
<g id="node38" class="node"><title>svg_files_output_port</title>
<ellipse fill="#ffffff" stroke="black" cx="1221" cy="-31" rx="7" ry="7"/>
</g>
<!-- svg_files&#45;&gt;svg_files_output_port -->
<g id="edge59" class="edge"><title>svg_files&#45;&gt;svg_files_output_port</title>
<path fill="none" stroke="black" d="M1221,-244.439C1221,-197.742 1221,-89.8134 1221,-48.4986"/>
<polygon fill="black" stroke="black" points="1224.5,-48.3339 1221,-38.3339 1217.5,-48.334 1224.5,-48.3339"/>
</g>
<!-- prov_pdf_output_port -->
<g id="node39" class="node"><title>prov_pdf_output_port</title>
<ellipse fill="#ffffff" stroke="black" cx="1093" cy="-31" rx="7" ry="7"/>
</g>
<!-- prov_pdf&#45;&gt;prov_pdf_output_port -->
<g id="edge60" class="edge"><title>prov_pdf&#45;&gt;prov_pdf_output_port</title>
<path fill="none" stroke="black" d="M365.938,-244.437C419.389,-200.455 547.43,-102.605 674,-62 750.647,-37.411 1006.65,-32.9214 1075.71,-32.1512"/>
<polygon fill="black" stroke="black" points="1076.08,-35.6477 1086.05,-32.0491 1076.01,-28.6481 1076.08,-35.6477"/>
</g>
<!-- yw_jar_file -->
<g id="node22" class="node"><title>yw_jar_file</title>
<path fill="#fcfcfc" stroke="black" d="M907.5,-576.5C907.5,-576.5 1188.5,-576.5 1188.5,-576.5 1194.5,-576.5 1200.5,-582.5 1200.5,-588.5 1200.5,-588.5 1200.5,-610.5 1200.5,-610.5 1200.5,-616.5 1194.5,-622.5 1188.5,-622.5 1188.5,-622.5 907.5,-622.5 907.5,-622.5 901.5,-622.5 895.5,-616.5 895.5,-610.5 895.5,-610.5 895.5,-588.5 895.5,-588.5 895.5,-582.5 901.5,-576.5 907.5,-576.5"/>
<text text-anchor="middle" x="1048" y="-607.3" font-family="Helvetica,sans-Serif" font-size="14.00">yw_jar_file</text>
<polyline fill="none" stroke="black" points="895.5,-599.5 1200.5,-599.5 "/>
<text text-anchor="middle" x="1048" y="-584.3" font-family="Helvetica,sans-Serif" font-size="14.00">yesworkflow&#45;0.2.1.1&#45;jar&#45;with&#45;dependencies.jar</text>
</g>
<!-- yw_jar_file&#45;&gt;gen_dot_files -->
<g id="edge5" class="edge"><title>yw_jar_file&#45;&gt;gen_dot_files</title>
<path fill="none" stroke="black" d="M895.223,-588.326C757.007,-578.42 548.003,-561.697 367,-540 360.817,-539.259 354.493,-538.456 348.112,-537.609"/>
<polygon fill="black" stroke="black" points="348.426,-534.12 338.047,-536.246 347.487,-541.057 348.426,-534.12"/>
</g>
<!-- yw_jar_file&#45;&gt;gen_png_files -->
<g id="edge10" class="edge"><title>yw_jar_file&#45;&gt;gen_png_files</title>
<path fill="none" stroke="black" d="M1091.03,-576.279C1104.42,-567.011 1117.61,-554.889 1125,-540 1134.28,-521.288 1139.5,-508.037 1125,-493 1048.59,-413.765 211.406,-536.235 135,-457 120.5,-441.963 121.958,-426.317 135,-410 139.714,-404.103 207.448,-388.918 272.459,-375.497"/>
<polygon fill="black" stroke="black" points="273.349,-378.887 282.44,-373.446 271.94,-372.031 273.349,-378.887"/>
</g>
<!-- yw_jar_file&#45;&gt;gen_pdf_files -->
<g id="edge13" class="edge"><title>yw_jar_file&#45;&gt;gen_pdf_files</title>
<path fill="none" stroke="black" d="M1080.84,-576.344C1092.31,-566.673 1103.85,-554.268 1110,-540 1118.27,-520.819 1124.5,-508.037 1110,-493 1033.67,-413.844 197.327,-536.156 121,-457 101.628,-436.91 114.914,-405.601 130.005,-382.302"/>
<polygon fill="black" stroke="black" points="133.06,-384.036 135.813,-373.805 127.28,-380.085 133.06,-384.036"/>
</g>
<!-- yw_jar_file&#45;&gt;gen_svg_files -->
<g id="edge17" class="edge"><title>yw_jar_file&#45;&gt;gen_svg_files</title>
<path fill="none" stroke="black" d="M1105.72,-576.487C1121.24,-567.61 1136.15,-555.669 1145,-540 1155.27,-521.811 1159.42,-508.11 1145,-493 1085.63,-430.803 431.367,-519.197 372,-457 357.577,-441.89 358.937,-426.301 372,-410 376.825,-403.979 446.792,-388.528 513.201,-375.018"/>
<polygon fill="black" stroke="black" points="514.285,-378.369 523.391,-372.954 512.896,-371.508 514.285,-378.369"/>
</g>
<!-- yw_jar_file&#45;&gt;extract_graph_facts -->
<g id="edge21" class="edge"><title>yw_jar_file&#45;&gt;extract_graph_facts</title>
<path fill="none" stroke="black" d="M971.043,-576.473C934.232,-565.937 890.004,-553.279 851.978,-542.395"/>
<polygon fill="black" stroke="black" points="852.519,-538.909 841.942,-539.522 850.593,-545.639 852.519,-538.909"/>
</g>
<!-- yw_jar_file&#45;&gt;extract_model_facts -->
<g id="edge25" class="edge"><title>yw_jar_file&#45;&gt;extract_model_facts</title>
<path fill="none" stroke="black" d="M895.215,-578.099C819.269,-567.693 725.851,-554.498 633.711,-540.25"/>
<polygon fill="black" stroke="black" points="634.063,-536.763 623.645,-538.688 632.99,-543.68 634.063,-536.763"/>
</g>
<!-- yw_jar_file&#45;&gt;gen_views -->
<g id="edge34" class="edge"><title>yw_jar_file&#45;&gt;gen_views</title>
<path fill="none" stroke="black" d="M1140.58,-576.395C1158.13,-567.909 1174.31,-556.186 1185,-540 1196.51,-522.569 1199.13,-508.383 1185,-493 1121.03,-423.364 824.974,-526.636 761,-457 725.52,-418.38 775.001,-392.568 836.283,-376.147"/>
<polygon fill="black" stroke="black" points="837.398,-379.475 846.209,-373.592 835.652,-372.696 837.398,-379.475"/>
</g>
<!-- yw_jar_file&#45;&gt;exec_queries -->
<g id="edge43" class="edge"><title>yw_jar_file&#45;&gt;exec_queries</title>
<path fill="none" stroke="black" d="M1114.04,-576.391C1130.24,-567.674 1145.61,-555.843 1155,-540 1165.65,-522.032 1169.42,-508.113 1155,-493 1096.03,-431.196 445.975,-518.804 387,-457 372.579,-441.887 372.971,-425.477 387,-410 441.888,-349.449 698.112,-434.551 753,-374 767.029,-358.523 764.573,-344.39 753,-327 730.044,-292.504 689.956,-325.496 667,-291 652.034,-268.511 663.085,-238.65 675.963,-216.438"/>
<polygon fill="black" stroke="black" points="679.061,-218.081 681.327,-207.732 673.101,-214.41 679.061,-218.081"/>
</g>
<!-- yw_jar_file&#45;&gt;exec_yw_recon -->
<g id="edge47" class="edge"><title>yw_jar_file&#45;&gt;exec_yw_recon</title>
<path fill="none" stroke="black" d="M1035.98,-576.366C1031.32,-567.794 1025.91,-557.83 1020.87,-548.563"/>
<polygon fill="black" stroke="black" points="1023.86,-546.723 1016.01,-539.607 1017.71,-550.065 1023.86,-546.723"/>
</g>
<!-- yw.properties -->
<g id="node23" class="node"><title>yw.properties</title>
<path fill="#fcfcfc" stroke="black" d="M324.5,-617.5C324.5,-617.5 247.5,-617.5 247.5,-617.5 241.5,-617.5 235.5,-611.5 235.5,-605.5 235.5,-605.5 235.5,-593.5 235.5,-593.5 235.5,-587.5 241.5,-581.5 247.5,-581.5 247.5,-581.5 324.5,-581.5 324.5,-581.5 330.5,-581.5 336.5,-587.5 336.5,-593.5 336.5,-593.5 336.5,-605.5 336.5,-605.5 336.5,-611.5 330.5,-617.5 324.5,-617.5"/>
<text text-anchor="middle" x="286" y="-595.8" font-family="Helvetica,sans-Serif" font-size="14.00">yw.properties</text>
</g>
<!-- yw.properties&#45;&gt;gen_dot_files -->
<g id="edge6" class="edge"><title>yw.properties&#45;&gt;gen_dot_files</title>
<path fill="none" stroke="black" d="M272.215,-581.322C264.358,-571.531 254.288,-558.982 245.16,-547.606"/>
<polygon fill="black" stroke="black" points="247.712,-545.196 238.724,-539.587 242.253,-549.577 247.712,-545.196"/>
</g>
<!-- yw.properties&#45;&gt;gen_png_files -->
<g id="edge9" class="edge"><title>yw.properties&#45;&gt;gen_png_files</title>
<path fill="none" stroke="black" d="M235.403,-591.185C180.676,-582.117 98.7142,-564.769 80,-540 60.212,-513.81 95.6151,-414.213 100,-410 103.318,-406.812 192.727,-389.287 272.078,-374.242"/>
<polygon fill="black" stroke="black" points="273.022,-377.625 282.196,-372.326 271.72,-370.748 273.022,-377.625"/>
</g>
<!-- yw.properties&#45;&gt;gen_pdf_files -->
<g id="edge14" class="edge"><title>yw.properties&#45;&gt;gen_pdf_files</title>
<path fill="none" stroke="black" d="M235.336,-591.268C178.809,-582.116 92.4518,-564.535 71,-540 32.8338,-496.348 31.8425,-460.689 60,-410 66.9102,-397.56 77.6848,-387.423 89.5108,-379.297"/>
<polygon fill="black" stroke="black" points="91.7054,-382.049 98.2675,-373.731 87.9505,-376.142 91.7054,-382.049"/>
</g>
<!-- yw.properties&#45;&gt;gen_svg_files -->
<g id="edge18" class="edge"><title>yw.properties&#45;&gt;gen_svg_files</title>
<path fill="none" stroke="black" d="M235.194,-598.549C190.24,-595.548 126.963,-583.219 95,-540 77.0273,-515.698 110.195,-427.271 135,-410 202.057,-363.311 414.974,-384.242 513.246,-373.87"/>
<polygon fill="black" stroke="black" points="513.736,-377.336 523.237,-372.646 512.885,-370.388 513.736,-377.336"/>
</g>
<!-- yw.properties&#45;&gt;extract_graph_facts -->
<g id="edge20" class="edge"><title>yw.properties&#45;&gt;extract_graph_facts</title>
<path fill="none" stroke="black" d="M336.714,-589.927C402.169,-578.862 519.877,-558.962 631.384,-540.104"/>
<polygon fill="black" stroke="black" points="632.186,-543.518 641.462,-538.4 631.018,-536.616 632.186,-543.518"/>
</g>
<!-- yw.properties&#45;&gt;extract_model_facts -->
<g id="edge26" class="edge"><title>yw.properties&#45;&gt;extract_model_facts</title>
<path fill="none" stroke="black" d="M331.122,-581.421C360.364,-570.353 399,-555.729 431.937,-543.262"/>
<polygon fill="black" stroke="black" points="433.396,-546.452 441.509,-539.639 430.918,-539.906 433.396,-546.452"/>
</g>
<!-- yw.properties&#45;&gt;exec_yw_recon -->
<g id="edge46" class="edge"><title>yw.properties&#45;&gt;exec_yw_recon</title>
<path fill="none" stroke="black" d="M336.575,-591.08C370.112,-586.329 415.122,-580.276 455,-576 650.972,-554.988 701.952,-568.335 897,-540 897.103,-539.985 897.206,-539.97 897.308,-539.955"/>
<polygon fill="black" stroke="black" points="897.645,-543.445 906.992,-538.455 896.574,-536.527 897.645,-543.445"/>
</g>
<!-- general_rules.P -->
<g id="node24" class="node"><title>general_rules.P</title>
<path fill="#fcfcfc" stroke="black" d="M1022,-451.5C1022,-451.5 930,-451.5 930,-451.5 924,-451.5 918,-445.5 918,-439.5 918,-439.5 918,-427.5 918,-427.5 918,-421.5 924,-415.5 930,-415.5 930,-415.5 1022,-415.5 1022,-415.5 1028,-415.5 1034,-421.5 1034,-427.5 1034,-427.5 1034,-439.5 1034,-439.5 1034,-445.5 1028,-451.5 1022,-451.5"/>
<text text-anchor="middle" x="976" y="-429.8" font-family="Helvetica,sans-Serif" font-size="14.00">general_rules.P</text>
</g>
<!-- general_rules.P&#45;&gt;gen_views -->
<g id="edge31" class="edge"><title>general_rules.P&#45;&gt;gen_views</title>
<path fill="none" stroke="black" d="M977.697,-415.322C978.607,-406.102 979.76,-394.435 980.829,-383.606"/>
<polygon fill="black" stroke="black" points="984.319,-383.882 981.819,-373.587 977.353,-383.194 984.319,-383.882"/>
</g>
<!-- general_rules.P&#45;&gt;exec_queries -->
<g id="edge40" class="edge"><title>general_rules.P&#45;&gt;exec_queries</title>
<path fill="none" stroke="black" d="M1026.05,-415.441C1031.75,-413.571 1037.5,-411.722 1043,-410 1097.77,-392.862 1132.54,-419.888 1167,-374 1179.54,-357.297 1177.61,-344.997 1167,-327 1150.23,-298.549 1125.35,-314.357 1102,-291 1085.12,-274.116 1095.57,-257.666 1076,-244 1039.26,-218.35 936.229,-203.487 846.996,-195.166"/>
<polygon fill="black" stroke="black" points="847.299,-191.679 837.023,-194.257 846.664,-198.65 847.299,-191.679"/>
</g>
<!-- yw_views.P -->
<g id="node25" class="node"><title>yw_views.P</title>
<path fill="#fcfcfc" stroke="black" d="M1130,-451.5C1130,-451.5 1064,-451.5 1064,-451.5 1058,-451.5 1052,-445.5 1052,-439.5 1052,-439.5 1052,-427.5 1052,-427.5 1052,-421.5 1058,-415.5 1064,-415.5 1064,-415.5 1130,-415.5 1130,-415.5 1136,-415.5 1142,-421.5 1142,-427.5 1142,-427.5 1142,-439.5 1142,-439.5 1142,-445.5 1136,-451.5 1130,-451.5"/>
<text text-anchor="middle" x="1097" y="-429.8" font-family="Helvetica,sans-Serif" font-size="14.00">yw_views.P</text>
</g>
<!-- yw_views.P&#45;&gt;gen_views -->
<g id="edge32" class="edge"><title>yw_views.P&#45;&gt;gen_views</title>
<path fill="none" stroke="black" d="M1073.04,-415.322C1058.58,-404.961 1039.82,-391.511 1023.24,-379.631"/>
<polygon fill="black" stroke="black" points="1024.98,-376.568 1014.81,-373.587 1020.9,-382.257 1024.98,-376.568"/>
</g>
<!-- yw_views.P&#45;&gt;exec_queries -->
<g id="edge41" class="edge"><title>yw_views.P&#45;&gt;exec_queries</title>
<path fill="none" stroke="black" d="M1134.08,-415.365C1150.39,-405.713 1167.89,-391.951 1177,-374 1186.45,-355.373 1187.29,-345.178 1177,-327 1161.68,-299.938 1138.03,-313.908 1117,-291 1101.27,-273.869 1112.78,-257.723 1094,-244 1055.15,-215.606 942.467,-200.813 847.189,-193.215"/>
<polygon fill="black" stroke="black" points="847.383,-189.72 837.142,-192.435 846.842,-196.699 847.383,-189.72"/>
</g>
<!-- yw_graph_rules.P -->
<g id="node26" class="node"><title>yw_graph_rules.P</title>
<path fill="#fcfcfc" stroke="black" d="M888,-451.5C888,-451.5 782,-451.5 782,-451.5 776,-451.5 770,-445.5 770,-439.5 770,-439.5 770,-427.5 770,-427.5 770,-421.5 776,-415.5 782,-415.5 782,-415.5 888,-415.5 888,-415.5 894,-415.5 900,-421.5 900,-427.5 900,-427.5 900,-439.5 900,-439.5 900,-445.5 894,-451.5 888,-451.5"/>
<text text-anchor="middle" x="835" y="-429.8" font-family="Helvetica,sans-Serif" font-size="14.00">yw_graph_rules.P</text>
</g>
<!-- yw_graph_rules.P&#45;&gt;gen_views -->
<g id="edge33" class="edge"><title>yw_graph_rules.P&#45;&gt;gen_views</title>
<path fill="none" stroke="black" d="M866.599,-415.322C886.27,-404.628 911.995,-390.644 934.348,-378.492"/>
<polygon fill="black" stroke="black" points="936.257,-381.438 943.371,-373.587 932.914,-375.288 936.257,-381.438"/>
</g>
<!-- yw_graph_rules.P&#45;&gt;exec_queries -->
<g id="edge42" class="edge"><title>yw_graph_rules.P&#45;&gt;exec_queries</title>
<path fill="none" stroke="black" d="M887.699,-415.434C894.815,-413.437 902.056,-411.559 909,-410 1020.77,-384.91 1230.66,-411.199 1153,-327 1085.73,-254.073 778.635,-360.668 708,-291 697.94,-281.077 696.352,-245.078 696.691,-217.868"/>
<polygon fill="black" stroke="black" points="700.197,-217.652 696.913,-207.579 693.198,-217.501 700.197,-217.652"/>
</g>
<!-- script_dir_input_port -->
<g id="node27" class="node"><title>script_dir_input_port</title>
<ellipse fill="#ffffff" stroke="black" cx="1126" cy="-825" rx="7" ry="7"/>
</g>
<!-- script_dir_input_port&#45;&gt;script_dir -->
<g id="edge48" class="edge"><title>script_dir_input_port&#45;&gt;script_dir</title>
<path fill="none" stroke="black" d="M1123.48,-818.284C1120.88,-813.126 1116.32,-805.784 1110,-802 1068.84,-777.363 933.285,-766.971 860.015,-763.068"/>
<polygon fill="black" stroke="black" points="859.842,-759.554 849.676,-762.538 859.483,-766.545 859.842,-759.554"/>
</g>
<!-- yw.properties_input_port -->
<g id="node28" class="node"><title>yw.properties_input_port</title>
<ellipse fill="#ffffff" stroke="black" cx="1094" cy="-825" rx="7" ry="7"/>
</g>
<!-- yw.properties_input_port&#45;&gt;yw.properties -->
<g id="edge49" class="edge"><title>yw.properties_input_port&#45;&gt;yw.properties</title>
<path fill="none" stroke="black" d="M1086.73,-823.958C1051.14,-823.622 891.858,-820.63 765,-794 644.37,-768.678 616.068,-752.704 502,-706 439.392,-680.366 369.463,-644.893 326.59,-622.321"/>
<polygon fill="black" stroke="black" points="328.079,-619.149 317.603,-617.569 324.807,-625.338 328.079,-619.149"/>
</g>
<!-- yw_graph_rules.P_input_port -->
<g id="node29" class="node"><title>yw_graph_rules.P_input_port</title>
<ellipse fill="#ffffff" stroke="black" cx="1190" cy="-825" rx="7" ry="7"/>
</g>
<!-- yw_graph_rules.P_input_port&#45;&gt;yw_graph_rules.P -->
<g id="edge50" class="edge"><title>yw_graph_rules.P_input_port&#45;&gt;yw_graph_rules.P</title>
<path fill="none" stroke="black" d="M1192.68,-818.531C1201.49,-800.033 1229,-737.926 1229,-683.5 1229,-683.5 1229,-683.5 1229,-598.5 1229,-549.236 1232.93,-524.439 1195,-493 1145.68,-452.12 971.647,-470.365 909,-457 905.122,-456.173 901.154,-455.237 897.168,-454.228"/>
<polygon fill="black" stroke="black" points="897.829,-450.783 887.265,-451.593 896.029,-457.547 897.829,-450.783"/>
</g>
<!-- general_rules.P_input_port -->
<g id="node30" class="node"><title>general_rules.P_input_port</title>
<ellipse fill="#ffffff" stroke="black" cx="1222" cy="-825" rx="7" ry="7"/>
</g>
<!-- general_rules.P_input_port&#45;&gt;general_rules.P -->
<g id="edge51" class="edge"><title>general_rules.P_input_port&#45;&gt;general_rules.P</title>
<path fill="none" stroke="black" d="M1225.77,-818.852C1231.49,-811.005 1241.83,-796.679 1243,-794 1263.14,-747.955 1267,-733.756 1267,-683.5 1267,-683.5 1267,-683.5 1267,-598.5 1267,-550.413 1277.77,-526.219 1243,-493 1177.7,-430.608 1130.49,-479.436 1043,-457 1040.01,-456.232 1036.95,-455.398 1033.88,-454.517"/>
<polygon fill="black" stroke="black" points="1034.64,-451.091 1024.06,-451.573 1032.63,-457.796 1034.64,-451.091"/>
</g>
<!-- yw_views.P_input_port -->
<g id="node31" class="node"><title>yw_views.P_input_port</title>
<ellipse fill="#ffffff" stroke="black" cx="1254" cy="-825" rx="7" ry="7"/>
</g>
<!-- yw_views.P_input_port&#45;&gt;yw_views.P -->
<g id="edge52" class="edge"><title>yw_views.P_input_port&#45;&gt;yw_views.P</title>
<path fill="none" stroke="black" d="M1259.04,-819.895C1265.21,-814.582 1275.51,-804.727 1281,-794 1303.91,-749.27 1305,-733.756 1305,-683.5 1305,-683.5 1305,-683.5 1305,-598.5 1305,-550.413 1314.2,-527.783 1281,-493 1239.6,-449.634 1207.67,-476.567 1151,-457 1149.35,-456.43 1147.68,-455.836 1145.99,-455.222"/>
<polygon fill="black" stroke="black" points="1146.89,-451.819 1136.3,-451.541 1144.41,-458.363 1146.89,-451.819"/>
</g>
<!-- yw_jar_file_input_port -->
<g id="node32" class="node"><title>yw_jar_file_input_port</title>
<ellipse fill="#ffffff" stroke="black" cx="1158" cy="-825" rx="7" ry="7"/>
</g>
<!-- yw_jar_file_input_port&#45;&gt;yw_jar_file -->
<g id="edge53" class="edge"><title>yw_jar_file_input_port&#45;&gt;yw_jar_file</title>
<path fill="none" stroke="black" d="M1155.28,-818.475C1142.73,-792.983 1089.92,-685.67 1063.37,-631.728"/>
<polygon fill="black" stroke="black" points="1066.44,-630.045 1058.89,-622.619 1060.16,-633.136 1066.44,-630.045"/>
</g>
</g>
</svg>
